<?xml version="1.0" encoding="utf-8"?>
<svg version="1.1" baseProfile="full"  width="165" height="165" viewBox="0 0 165 165"
		 xmlns="http://www.w3.org/2000/svg" xmlns:xlink="http://www.w3.org/1999/xlink" xmlns:ev="http://www.w3.org/2001/xml-events">
<desc></desc>
<rect width="165" height="165" fill="#ffffff" cx="0" cy="0" />
<defs>
<rect id="p" width="5" height="5" />
</defs>
<g fill="#000000">
<use x="20" y="20" xlink:href="#p" />
<use x="20" y="25" xlink:href="#p" />
<use x="20" y="30" xlink:href="#p" />
<use x="20" y="35" xlink:href="#p" />
<use x="20" y="40" xlink:href="#p" />
<use x="20" y="45" xlink:href="#p" />
<use x="20" y="50" xlink:href="#p" />
<use x="20" y="60" xlink:href="#p" />
<use x="20" y="65" xlink:href="#p" />
<use x="20" y="70" xlink:href="#p" />
<use x="20" y="75" xlink:href="#p" />
<use x="20" y="85" xlink:href="#p" />
<use x="20" y="95" xlink:href="#p" />
<use x="20" y="110" xlink:href="#p" />
<use x="20" y="115" xlink:href="#p" />
<use x="20" y="120" xlink:href="#p" />
<use x="20" y="125" xlink:href="#p" />
<use x="20" y="130" xlink:href="#p" />
<use x="20" y="135" xlink:href="#p" />
<use x="20" y="140" xlink:href="#p" />
<use x="25" y="20" xlink:href="#p" />
<use x="25" y="50" xlink:href="#p" />
<use x="25" y="65" xlink:href="#p" />
<use x="25" y="70" xlink:href="#p" />
<use x="25" y="90" xlink:href="#p" />
<use x="25" y="110" xlink:href="#p" />
<use x="25" y="140" xlink:href="#p" />
<use x="30" y="20" xlink:href="#p" />
<use x="30" y="30" xlink:href="#p" />
<use x="30" y="35" xlink:href="#p" />
<use x="30" y="40" xlink:href="#p" />
<use x="30" y="50" xlink:href="#p" />
<use x="30" y="65" xlink:href="#p" />
<use x="30" y="75" xlink:href="#p" />
<use x="30" y="80" xlink:href="#p" />
<use x="30" y="110" xlink:href="#p" />
<use x="30" y="120" xlink:href="#p" />
<use x="30" y="125" xlink:href="#p" />
<use x="30" y="130" xlink:href="#p" />
<use x="30" y="140" xlink:href="#p" />
<use x="35" y="20" xlink:href="#p" />
<use x="35" y="30" xlink:href="#p" />
<use x="35" y="35" xlink:href="#p" />
<use x="35" y="40" xlink:href="#p" />
<use x="35" y="50" xlink:href="#p" />
<use x="35" y="60" xlink:href="#p" />
<use x="35" y="65" xlink:href="#p" />
<use x="35" y="75" xlink:href="#p" />
<use x="35" y="80" xlink:href="#p" />
<use x="35" y="90" xlink:href="#p" />
<use x="35" y="95" xlink:href="#p" />
<use x="35" y="110" xlink:href="#p" />
<use x="35" y="120" xlink:href="#p" />
<use x="35" y="125" xlink:href="#p" />
<use x="35" y="130" xlink:href="#p" />
<use x="35" y="140" xlink:href="#p" />
<use x="40" y="20" xlink:href="#p" />
<use x="40" y="30" xlink:href="#p" />
<use x="40" y="35" xlink:href="#p" />
<use x="40" y="40" xlink:href="#p" />
<use x="40" y="50" xlink:href="#p" />
<use x="40" y="70" xlink:href="#p" />
<use x="40" y="75" xlink:href="#p" />
<use x="40" y="90" xlink:href="#p" />
<use x="40" y="100" xlink:href="#p" />
<use x="40" y="110" xlink:href="#p" />
<use x="40" y="120" xlink:href="#p" />
<use x="40" y="125" xlink:href="#p" />
<use x="40" y="130" xlink:href="#p" />
<use x="40" y="140" xlink:href="#p" />
<use x="45" y="20" xlink:href="#p" />
<use x="45" y="50" xlink:href="#p" />
<use x="45" y="60" xlink:href="#p" />
<use x="45" y="65" xlink:href="#p" />
<use x="45" y="75" xlink:href="#p" />
<use x="45" y="80" xlink:href="#p" />
<use x="45" y="95" xlink:href="#p" />
<use x="45" y="100" xlink:href="#p" />
<use x="45" y="110" xlink:href="#p" />
<use x="45" y="140" xlink:href="#p" />
<use x="50" y="20" xlink:href="#p" />
<use x="50" y="25" xlink:href="#p" />
<use x="50" y="30" xlink:href="#p" />
<use x="50" y="35" xlink:href="#p" />
<use x="50" y="40" xlink:href="#p" />
<use x="50" y="45" xlink:href="#p" />
<use x="50" y="50" xlink:href="#p" />
<use x="50" y="60" xlink:href="#p" />
<use x="50" y="70" xlink:href="#p" />
<use x="50" y="80" xlink:href="#p" />
<use x="50" y="90" xlink:href="#p" />
<use x="50" y="100" xlink:href="#p" />
<use x="50" y="110" xlink:href="#p" />
<use x="50" y="115" xlink:href="#p" />
<use x="50" y="120" xlink:href="#p" />
<use x="50" y="125" xlink:href="#p" />
<use x="50" y="130" xlink:href="#p" />
<use x="50" y="135" xlink:href="#p" />
<use x="50" y="140" xlink:href="#p" />
<use x="55" y="65" xlink:href="#p" />
<use x="55" y="80" xlink:href="#p" />
<use x="55" y="85" xlink:href="#p" />
<use x="55" y="100" xlink:href="#p" />
<use x="60" y="45" xlink:href="#p" />
<use x="60" y="50" xlink:href="#p" />
<use x="60" y="60" xlink:href="#p" />
<use x="60" y="90" xlink:href="#p" />
<use x="60" y="95" xlink:href="#p" />
<use x="60" y="100" xlink:href="#p" />
<use x="60" y="105" xlink:href="#p" />
<use x="60" y="115" xlink:href="#p" />
<use x="60" y="125" xlink:href="#p" />
<use x="60" y="140" xlink:href="#p" />
<use x="65" y="35" xlink:href="#p" />
<use x="65" y="45" xlink:href="#p" />
<use x="65" y="55" xlink:href="#p" />
<use x="65" y="70" xlink:href="#p" />
<use x="65" y="90" xlink:href="#p" />
<use x="65" y="100" xlink:href="#p" />
<use x="65" y="110" xlink:href="#p" />
<use x="65" y="115" xlink:href="#p" />
<use x="65" y="140" xlink:href="#p" />
<use x="70" y="25" xlink:href="#p" />
<use x="70" y="50" xlink:href="#p" />
<use x="70" y="65" xlink:href="#p" />
<use x="70" y="75" xlink:href="#p" />
<use x="70" y="80" xlink:href="#p" />
<use x="70" y="85" xlink:href="#p" />
<use x="70" y="90" xlink:href="#p" />
<use x="70" y="105" xlink:href="#p" />
<use x="70" y="125" xlink:href="#p" />
<use x="70" y="130" xlink:href="#p" />
<use x="70" y="135" xlink:href="#p" />
<use x="75" y="25" xlink:href="#p" />
<use x="75" y="40" xlink:href="#p" />
<use x="75" y="45" xlink:href="#p" />
<use x="75" y="65" xlink:href="#p" />
<use x="75" y="85" xlink:href="#p" />
<use x="75" y="90" xlink:href="#p" />
<use x="75" y="95" xlink:href="#p" />
<use x="75" y="110" xlink:href="#p" />
<use x="75" y="125" xlink:href="#p" />
<use x="80" y="20" xlink:href="#p" />
<use x="80" y="30" xlink:href="#p" />
<use x="80" y="35" xlink:href="#p" />
<use x="80" y="45" xlink:href="#p" />
<use x="80" y="50" xlink:href="#p" />
<use x="80" y="55" xlink:href="#p" />
<use x="80" y="60" xlink:href="#p" />
<use x="80" y="75" xlink:href="#p" />
<use x="80" y="100" xlink:href="#p" />
<use x="80" y="105" xlink:href="#p" />
<use x="80" y="110" xlink:href="#p" />
<use x="80" y="115" xlink:href="#p" />
<use x="80" y="140" xlink:href="#p" />
<use x="85" y="20" xlink:href="#p" />
<use x="85" y="25" xlink:href="#p" />
<use x="85" y="45" xlink:href="#p" />
<use x="85" y="60" xlink:href="#p" />
<use x="85" y="75" xlink:href="#p" />
<use x="85" y="80" xlink:href="#p" />
<use x="85" y="90" xlink:href="#p" />
<use x="85" y="95" xlink:href="#p" />
<use x="85" y="105" xlink:href="#p" />
<use x="85" y="110" xlink:href="#p" />
<use x="90" y="20" xlink:href="#p" />
<use x="90" y="25" xlink:href="#p" />
<use x="90" y="30" xlink:href="#p" />
<use x="90" y="35" xlink:href="#p" />
<use x="90" y="40" xlink:href="#p" />
<use x="90" y="50" xlink:href="#p" />
<use x="90" y="55" xlink:href="#p" />
<use x="90" y="105" xlink:href="#p" />
<use x="90" y="110" xlink:href="#p" />
<use x="90" y="115" xlink:href="#p" />
<use x="90" y="135" xlink:href="#p" />
<use x="95" y="20" xlink:href="#p" />
<use x="95" y="25" xlink:href="#p" />
<use x="95" y="30" xlink:href="#p" />
<use x="95" y="35" xlink:href="#p" />
<use x="95" y="40" xlink:href="#p" />
<use x="95" y="45" xlink:href="#p" />
<use x="95" y="60" xlink:href="#p" />
<use x="95" y="75" xlink:href="#p" />
<use x="95" y="95" xlink:href="#p" />
<use x="95" y="105" xlink:href="#p" />
<use x="95" y="110" xlink:href="#p" />
<use x="95" y="125" xlink:href="#p" />
<use x="95" y="140" xlink:href="#p" />
<use x="100" y="30" xlink:href="#p" />
<use x="100" y="40" xlink:href="#p" />
<use x="100" y="50" xlink:href="#p" />
<use x="100" y="60" xlink:href="#p" />
<use x="100" y="70" xlink:href="#p" />
<use x="100" y="95" xlink:href="#p" />
<use x="100" y="100" xlink:href="#p" />
<use x="100" y="105" xlink:href="#p" />
<use x="100" y="110" xlink:href="#p" />
<use x="100" y="115" xlink:href="#p" />
<use x="100" y="120" xlink:href="#p" />
<use x="100" y="125" xlink:href="#p" />
<use x="100" y="135" xlink:href="#p" />
<use x="100" y="140" xlink:href="#p" />
<use x="105" y="60" xlink:href="#p" />
<use x="105" y="65" xlink:href="#p" />
<use x="105" y="80" xlink:href="#p" />
<use x="105" y="85" xlink:href="#p" />
<use x="105" y="90" xlink:href="#p" />
<use x="105" y="100" xlink:href="#p" />
<use x="105" y="120" xlink:href="#p" />
<use x="105" y="130" xlink:href="#p" />
<use x="110" y="20" xlink:href="#p" />
<use x="110" y="25" xlink:href="#p" />
<use x="110" y="30" xlink:href="#p" />
<use x="110" y="35" xlink:href="#p" />
<use x="110" y="40" xlink:href="#p" />
<use x="110" y="45" xlink:href="#p" />
<use x="110" y="50" xlink:href="#p" />
<use x="110" y="65" xlink:href="#p" />
<use x="110" y="80" xlink:href="#p" />
<use x="110" y="85" xlink:href="#p" />
<use x="110" y="100" xlink:href="#p" />
<use x="110" y="110" xlink:href="#p" />
<use x="110" y="120" xlink:href="#p" />
<use x="110" y="140" xlink:href="#p" />
<use x="115" y="20" xlink:href="#p" />
<use x="115" y="50" xlink:href="#p" />
<use x="115" y="60" xlink:href="#p" />
<use x="115" y="75" xlink:href="#p" />
<use x="115" y="80" xlink:href="#p" />
<use x="115" y="85" xlink:href="#p" />
<use x="115" y="90" xlink:href="#p" />
<use x="115" y="100" xlink:href="#p" />
<use x="115" y="120" xlink:href="#p" />
<use x="115" y="125" xlink:href="#p" />
<use x="115" y="130" xlink:href="#p" />
<use x="115" y="140" xlink:href="#p" />
<use x="120" y="20" xlink:href="#p" />
<use x="120" y="30" xlink:href="#p" />
<use x="120" y="35" xlink:href="#p" />
<use x="120" y="40" xlink:href="#p" />
<use x="120" y="50" xlink:href="#p" />
<use x="120" y="75" xlink:href="#p" />
<use x="120" y="90" xlink:href="#p" />
<use x="120" y="95" xlink:href="#p" />
<use x="120" y="100" xlink:href="#p" />
<use x="120" y="105" xlink:href="#p" />
<use x="120" y="110" xlink:href="#p" />
<use x="120" y="115" xlink:href="#p" />
<use x="120" y="120" xlink:href="#p" />
<use x="120" y="125" xlink:href="#p" />
<use x="120" y="130" xlink:href="#p" />
<use x="125" y="20" xlink:href="#p" />
<use x="125" y="30" xlink:href="#p" />
<use x="125" y="35" xlink:href="#p" />
<use x="125" y="40" xlink:href="#p" />
<use x="125" y="50" xlink:href="#p" />
<use x="125" y="80" xlink:href="#p" />
<use x="125" y="85" xlink:href="#p" />
<use x="125" y="100" xlink:href="#p" />
<use x="125" y="105" xlink:href="#p" />
<use x="125" y="110" xlink:href="#p" />
<use x="125" y="115" xlink:href="#p" />
<use x="125" y="120" xlink:href="#p" />
<use x="125" y="125" xlink:href="#p" />
<use x="125" y="135" xlink:href="#p" />
<use x="130" y="20" xlink:href="#p" />
<use x="130" y="30" xlink:href="#p" />
<use x="130" y="35" xlink:href="#p" />
<use x="130" y="40" xlink:href="#p" />
<use x="130" y="50" xlink:href="#p" />
<use x="130" y="85" xlink:href="#p" />
<use x="130" y="90" xlink:href="#p" />
<use x="130" y="100" xlink:href="#p" />
<use x="130" y="115" xlink:href="#p" />
<use x="130" y="125" xlink:href="#p" />
<use x="130" y="130" xlink:href="#p" />
<use x="135" y="20" xlink:href="#p" />
<use x="135" y="50" xlink:href="#p" />
<use x="135" y="70" xlink:href="#p" />
<use x="135" y="80" xlink:href="#p" />
<use x="135" y="95" xlink:href="#p" />
<use x="135" y="110" xlink:href="#p" />
<use x="135" y="115" xlink:href="#p" />
<use x="135" y="140" xlink:href="#p" />
<use x="140" y="20" xlink:href="#p" />
<use x="140" y="25" xlink:href="#p" />
<use x="140" y="30" xlink:href="#p" />
<use x="140" y="35" xlink:href="#p" />
<use x="140" y="40" xlink:href="#p" />
<use x="140" y="45" xlink:href="#p" />
<use x="140" y="50" xlink:href="#p" />
<use x="140" y="65" xlink:href="#p" />
<use x="140" y="70" xlink:href="#p" />
<use x="140" y="80" xlink:href="#p" />
<use x="140" y="85" xlink:href="#p" />
<use x="140" y="90" xlink:href="#p" />
<use x="140" y="105" xlink:href="#p" />
<use x="140" y="110" xlink:href="#p" />
<use x="140" y="115" xlink:href="#p" />
<use x="140" y="120" xlink:href="#p" />
<use x="140" y="130" xlink:href="#p" />
<use x="140" y="140" xlink:href="#p" />
</g>
</svg>