<?xml version="1.0" encoding="UTF-8" standalone="no"?>
<!DOCTYPE svg PUBLIC "-//W3C//DTD SVG 1.1//EN"
 "http://www.w3.org/Graphics/SVG/1.1/DTD/svg11.dtd">
<!-- Generated by graphviz version 2.36.0 (20140111.2315)
 -->
<!-- Title: G Pages: 1 -->
<svg width="699pt" height="930pt"
 viewBox="0.00 0.00 699.00 930.00" xmlns="http://www.w3.org/2000/svg" xmlns:xlink="http://www.w3.org/1999/xlink">
<g id="graph0" class="graph" transform="scale(1 1) rotate(0) translate(4 926)">
<title>G</title>
<polygon fill="white" stroke="none" points="-4,4 -4,-926 695,-926 695,4 -4,4"/>
<text text-anchor="middle" x="345.5" y="-906.8" font-family="Times,serif" font-size="14.00">ShipReq System Diagram</text>
<g id="clust1" class="cluster"><title>cluster_usr</title>
<polygon fill="#eeeeaa" stroke="black" points="337,-814 337,-891 511,-891 511,-814 337,-814"/>
<text text-anchor="middle" x="424" y="-875.8" font-family="Times,serif" font-size="14.00">Userland</text>
</g>
<g id="clust2" class="cluster"><title>cluster_net</title>
<polygon fill="#e2ffe2" stroke="black" points="274,-8 274,-792 683,-792 683,-8 274,-8"/>
</g>
<g id="clust4" class="cluster"><title>cluster_aws</title>
<polygon fill="#ccddcc" stroke="black" points="409,-407 409,-706 590,-706 590,-407 409,-407"/>
<text text-anchor="middle" x="499.5" y="-690.8" font-family="Times,serif" font-size="14.00">Amazon Web Services</text>
</g>
<g id="clust5" class="cluster"><title>cluster_crm</title>
<polygon fill="#ccddcc" stroke="black" points="282,-16 282,-165 392,-165 392,-16 282,-16"/>
<text text-anchor="middle" x="337" y="-149.8" font-family="Times,serif" font-size="14.00">Insightly</text>
</g>
<!-- me -->
<g id="node1" class="node"><title>me</title>
<polygon fill="#aabbff" stroke="black" points="34.5,-573 36,-574.5 36,-577.5 34.5,-579 31.5,-579 30,-577.5 30,-574.5 31.5,-573 34.5,-573"/>
<polyline fill="none" stroke="black" points="33,-573 33,-567 "/>
<polyline fill="none" stroke="black" points="6,-567 60,-567 "/>
<text text-anchor="middle" x="33" y="-555.3" font-family="Times,serif" font-size="14.00">Staff</text>
</g>
<!-- tbird -->
<g id="node2" class="node"><title>tbird</title>
<ellipse fill="none" stroke="black" cx="171" cy="-433" rx="54.3924" ry="18"/>
<text text-anchor="middle" x="171" y="-429.3" font-family="Times,serif" font-size="14.00">Thunderbird</text>
</g>
<!-- me&#45;&gt;tbird -->
<g id="edge17" class="edge"><title>me&#45;&gt;tbird</title>
<path fill="none" stroke="#445599" d="M27.0805,-547.384C21.5591,-526.075 16.5305,-491.256 34,-469 43.8559,-456.444 79.0524,-447.612 111.3,-441.962"/>
<polygon fill="#445599" stroke="#445599" points="111.896,-445.411 121.182,-440.31 110.742,-438.507 111.896,-445.411"/>
<text text-anchor="middle" x="107.5" y="-517.8" font-family="Times,serif" font-size="14.00" fill="red">Send email</text>
<text text-anchor="middle" x="107.5" y="-502.8" font-family="Times,serif" font-size="14.00" fill="red">IF WE CAN SEND</text>
<text text-anchor="middle" x="107.5" y="-487.8" font-family="Times,serif" font-size="14.00" fill="red">MAIL FROM CRM THIS</text>
<text text-anchor="middle" x="107.5" y="-472.8" font-family="Times,serif" font-size="14.00" fill="red">BECOMES OBSOLETE</text>
</g>
<!-- mailchimp -->
<g id="node6" class="node"><title>mailchimp</title>
<ellipse fill="#55cc55" stroke="black" cx="334" cy="-433" rx="51.4931" ry="18"/>
<text text-anchor="middle" x="334" y="-429.3" font-family="Times,serif" font-size="14.00">MailChimp</text>
</g>
<!-- me&#45;&gt;mailchimp -->
<g id="edge18" class="edge"><title>me&#45;&gt;mailchimp</title>
<path fill="none" stroke="#445599" d="M60.0821,-564.275C91.3522,-561.197 143.313,-552.655 181,-529 210.401,-510.546 202.386,-488.652 231,-469 245.966,-458.721 264.216,-451.227 281.174,-445.875"/>
<polygon fill="#445599" stroke="#445599" points="282.384,-449.167 290.975,-442.967 280.392,-442.456 282.384,-449.167"/>
<text text-anchor="middle" x="280.5" y="-495.3" font-family="Times,serif" font-size="14.00" fill="#182866">Broadcast comms</text>
</g>
<!-- crm_web -->
<g id="node13" class="node"><title>crm_web</title>
<polygon fill="#55cc55" stroke="black" points="384,-60 302,-60 302,-64 290,-64 290,-24 384,-24 384,-60"/>
<polyline fill="none" stroke="black" points="290,-60 302,-60 "/>
<text text-anchor="middle" x="337" y="-38.3" font-family="Times,serif" font-size="14.00">Web interface</text>
</g>
<!-- me&#45;&gt;crm_web -->
<g id="edge19" class="edge"><title>me&#45;&gt;crm_web</title>
<path fill="none" stroke="#445599" d="M24.6359,-547.433C22.2439,-541.617 19.8003,-535.117 18,-529 5.86798,-487.775 0,-476.973 0,-434 0,-434 0,-434 0,-115 0,-58.5026 183.429,-46.1794 279.631,-43.6014"/>
<polygon fill="#445599" stroke="#445599" points="279.874,-47.0967 289.787,-43.3568 279.705,-40.0987 279.874,-47.0967"/>
<text text-anchor="middle" x="78.5" y="-297.3" font-family="Times,serif" font-size="14.00" fill="#182866">Read incoming comms</text>
<text text-anchor="middle" x="78.5" y="-282.3" font-family="Times,serif" font-size="14.00" fill="#182866">Manage comms work&#45;queue</text>
<text text-anchor="middle" x="78.5" y="-267.3" font-family="Times,serif" font-size="14.00" fill="#182866">Manage network</text>
</g>
<!-- mandrill -->
<g id="node7" class="node"><title>mandrill</title>
<ellipse fill="#55cc55" stroke="black" cx="334" cy="-345" rx="42.3701" ry="18"/>
<text text-anchor="middle" x="334" y="-341.3" font-family="Times,serif" font-size="14.00">Mandrill</text>
</g>
<!-- tbird&#45;&gt;mandrill -->
<g id="edge11" class="edge"><title>tbird&#45;&gt;mandrill</title>
<path fill="none" stroke="black" d="M181.781,-415.054C189.709,-403.879 201.435,-389.742 215,-381 235.877,-367.545 262.097,-359.109 284.608,-353.902"/>
<polygon fill="black" stroke="black" points="285.622,-357.263 294.657,-351.73 284.144,-350.421 285.622,-357.263"/>
<text text-anchor="middle" x="227.5" y="-385.3" font-family="Times,serif" font-size="14.00">send</text>
</g>
<!-- eaddr_shipreq -->
<g id="node8" class="node"><title>eaddr_shipreq</title>
<polygon fill="#aabbff" stroke="black" points="380.25,-245 377.25,-249 356.25,-249 353.25,-245 291.75,-245 291.75,-207 380.25,-207 380.25,-245"/>
<text text-anchor="middle" x="336" y="-229.8" font-family="Times,serif" font-size="14.00">shipreq</text>
<text text-anchor="middle" x="336" y="-214.8" font-family="Times,serif" font-size="14.00">@gmail.com</text>
</g>
<!-- tbird&#45;&gt;eaddr_shipreq -->
<g id="edge12" class="edge"><title>tbird&#45;&gt;eaddr_shipreq</title>
<path fill="none" stroke="black" d="M176.766,-414.729C180.587,-404.488 186.153,-391.501 193,-381 226.068,-330.286 276.349,-280.613 307.635,-251.939"/>
<polygon fill="black" stroke="black" points="310.104,-254.426 315.158,-245.114 305.4,-249.241 310.104,-254.426"/>
<text text-anchor="middle" x="246" y="-341.3" font-family="Times,serif" font-size="14.00">recv</text>
</g>
<!-- usr_web -->
<g id="node3" class="node"><title>usr_web</title>
<polygon fill="#ccaa66" stroke="black" points="503,-860 429,-860 429,-864 417,-864 417,-822 503,-822 503,-860"/>
<polyline fill="none" stroke="black" points="417,-860 429,-860 "/>
<text text-anchor="middle" x="460" y="-844.8" font-family="Times,serif" font-size="14.00">User&#39;s</text>
<text text-anchor="middle" x="460" y="-829.8" font-family="Times,serif" font-size="14.00">web browser</text>
</g>
<!-- gandi -->
<g id="node5" class="node"><title>gandi</title>
<ellipse fill="#55cc55" stroke="black" cx="460" cy="-766" rx="43.319" ry="18"/>
<text text-anchor="middle" x="460" y="-762.3" font-family="Times,serif" font-size="14.00">gandi.net</text>
</g>
<!-- usr_web&#45;&gt;gandi -->
<g id="edge1" class="edge"><title>usr_web&#45;&gt;gandi</title>
<path fill="none" stroke="#996644" d="M460,-821.955C460,-813.701 460,-803.738 460,-794.574"/>
<polygon fill="#996644" stroke="#996644" points="463.5,-794.335 460,-784.335 456.5,-794.335 463.5,-794.335"/>
</g>
<!-- usr_email -->
<g id="node4" class="node"><title>usr_email</title>
<polygon fill="#ccaa66" stroke="black" points="399,-860 396,-864 375,-864 372,-860 345,-860 345,-822 399,-822 399,-860"/>
<text text-anchor="middle" x="372" y="-844.8" font-family="Times,serif" font-size="14.00">User&#39;s</text>
<text text-anchor="middle" x="372" y="-829.8" font-family="Times,serif" font-size="14.00">email</text>
</g>
<!-- usr_email&#45;&gt;gandi -->
<g id="edge2" class="edge"><title>usr_email&#45;&gt;gandi</title>
<path fill="none" stroke="#996644" d="M393.753,-821.955C405.777,-811.98 420.81,-799.51 433.514,-788.971"/>
<polygon fill="#996644" stroke="#996644" points="436.01,-791.448 441.472,-782.37 431.541,-786.061 436.01,-791.448"/>
</g>
<!-- gandi&#45;&gt;eaddr_shipreq -->
<g id="edge14" class="edge"><title>gandi&#45;&gt;eaddr_shipreq</title>
<path fill="none" stroke="black" d="M497.366,-756.796C543.517,-744.206 616,-715.309 616,-658 616,-658 616,-658 616,-344 616,-247.248 471.908,-229.099 390.458,-226.569"/>
<polygon fill="black" stroke="black" points="390.448,-223.068 380.367,-226.325 390.279,-230.066 390.448,-223.068"/>
<text text-anchor="middle" x="645.5" y="-495.3" font-family="Times,serif" font-size="14.00">Fwd email</text>
</g>
<!-- aws_r53 -->
<g id="node9" class="node"><title>aws_r53</title>
<ellipse fill="#55cc55" stroke="black" cx="460" cy="-657" rx="42.3456" ry="18"/>
<text text-anchor="middle" x="460" y="-653.3" font-family="Times,serif" font-size="14.00">Route 53</text>
</g>
<!-- gandi&#45;&gt;aws_r53 -->
<g id="edge3" class="edge"><title>gandi&#45;&gt;aws_r53</title>
<path fill="none" stroke="black" d="M460,-747.809C460,-730.961 460,-705.018 460,-685.339"/>
<polygon fill="black" stroke="black" points="463.5,-685.149 460,-675.149 456.5,-685.149 463.5,-685.149"/>
<text text-anchor="middle" x="479" y="-718.3" font-family="Times,serif" font-size="14.00">DNS:*</text>
</g>
<!-- mailchimp&#45;&gt;mandrill -->
<g id="edge9" class="edge"><title>mailchimp&#45;&gt;mandrill</title>
<path fill="none" stroke="black" stroke-dasharray="1,5" d="M334,-414.597C334,-402.746 334,-386.817 334,-373.292"/>
<polygon fill="black" stroke="black" points="337.5,-373.084 334,-363.084 330.5,-373.084 337.5,-373.084"/>
</g>
<!-- mandrill&#45;&gt;usr_email -->
<g id="edge8" class="edge"><title>mandrill&#45;&gt;usr_email</title>
<path fill="none" stroke="black" d="M312.414,-360.526C298.266,-371.436 280.967,-387.767 273,-407 265.516,-425.067 263.365,-433.983 273,-451 280.661,-464.531 294.39,-456.052 303,-469 327.12,-505.27 317,-522.442 317,-566 317,-767 317,-767 317,-767 317,-785.305 328.168,-801.937 340.44,-814.685"/>
<polygon fill="black" stroke="black" points="338.096,-817.288 347.716,-821.726 342.963,-812.257 338.096,-817.288"/>
</g>
<!-- mandrill&#45;&gt;eaddr_shipreq -->
<g id="edge13" class="edge"><title>mandrill&#45;&gt;eaddr_shipreq</title>
<path fill="none" stroke="black" d="M334.291,-326.987C334.611,-308.251 335.131,-277.817 335.514,-255.44"/>
<polygon fill="black" stroke="black" points="339.018,-255.247 335.689,-245.189 332.019,-255.128 339.018,-255.247"/>
</g>
<!-- crm_mail -->
<g id="node12" class="node"><title>crm_mail</title>
<polygon fill="#55cc55" stroke="black" points="367.25,-134 364.25,-138 343.25,-138 340.25,-134 304.75,-134 304.75,-98 367.25,-98 367.25,-134"/>
<text text-anchor="middle" x="336" y="-112.3" font-family="Times,serif" font-size="14.00">Mailbox</text>
</g>
<!-- eaddr_shipreq&#45;&gt;crm_mail -->
<g id="edge15" class="edge"><title>eaddr_shipreq&#45;&gt;crm_mail</title>
<path fill="none" stroke="black" d="M336,-206.679C336,-189.618 336,-163.955 336,-144.448"/>
<polygon fill="black" stroke="black" points="339.5,-144.337 336,-134.337 332.5,-144.337 339.5,-144.337"/>
<text text-anchor="middle" x="362" y="-177.3" font-family="Times,serif" font-size="14.00">Auto fwd</text>
</g>
<!-- aws_r53&#45;&gt;aws_r53 -->
<g id="edge4" class="edge"><title>aws_r53&#45;&gt;aws_r53</title>
<path fill="none" stroke="black" d="M507.946,-664.496C515.133,-663.336 520,-660.837 520,-657 520,-651.543 510.156,-648.793 497.793,-648.751"/>
<polygon fill="black" stroke="black" points="507.506,-661.019 497.793,-665.249 508.024,-667.999 507.506,-661.019"/>
<text text-anchor="middle" x="550.5" y="-653.3" font-family="Times,serif" font-size="14.00">DNS:www</text>
</g>
<!-- aws_ec2 -->
<g id="node10" class="node"><title>aws_ec2</title>
<ellipse fill="#55cc55" stroke="black" cx="445" cy="-567" rx="27" ry="18"/>
<text text-anchor="middle" x="445" y="-563.3" font-family="Times,serif" font-size="14.00">EC2</text>
</g>
<!-- aws_r53&#45;&gt;aws_ec2 -->
<g id="edge5" class="edge"><title>aws_r53&#45;&gt;aws_ec2</title>
<path fill="none" stroke="black" d="M456.419,-638.941C455.269,-633.246 454.028,-626.859 453,-621 451.531,-612.622 450.091,-603.47 448.847,-595.165"/>
<polygon fill="black" stroke="black" points="452.302,-594.606 447.388,-585.219 445.376,-595.622 452.302,-594.606"/>
<text text-anchor="middle" x="486.5" y="-609.3" font-family="Times,serif" font-size="14.00">DNS:APEX</text>
</g>
<!-- aws_ec2&#45;&gt;mailchimp -->
<g id="edge10" class="edge"><title>aws_ec2&#45;&gt;mailchimp</title>
<path fill="none" stroke="black" d="M426.739,-553.737C422.653,-551.3 418.264,-548.908 414,-547 388.586,-535.631 372.843,-549.495 354,-529 337.292,-510.827 333.156,-482.351 332.675,-461.31"/>
<polygon fill="black" stroke="black" points="336.176,-461.091 332.709,-451.079 329.176,-461.067 336.176,-461.091"/>
<text text-anchor="middle" x="385.5" y="-502.8" font-family="Times,serif" font-size="14.00">Update</text>
<text text-anchor="middle" x="385.5" y="-487.8" font-family="Times,serif" font-size="14.00">mailing list</text>
</g>
<!-- aws_ec2&#45;&gt;mandrill -->
<g id="edge7" class="edge"><title>aws_ec2&#45;&gt;mandrill</title>
<path fill="none" stroke="black" d="M442.47,-549.014C437.327,-518.553 423.546,-453.485 394,-407 384.871,-392.638 371.897,-378.914 360.347,-368.133"/>
<polygon fill="black" stroke="black" points="362.409,-365.278 352.644,-361.168 357.714,-370.471 362.409,-365.278"/>
<text text-anchor="middle" x="459" y="-436.8" font-family="Times,serif" font-size="14.00">Outgoing email</text>
<text text-anchor="middle" x="459" y="-421.8" font-family="Times,serif" font-size="14.00">(SMTP)</text>
</g>
<!-- aws_rds -->
<g id="node11" class="node"><title>aws_rds</title>
<ellipse fill="#55cc55" stroke="black" cx="554" cy="-433" rx="27.4223" ry="18"/>
<text text-anchor="middle" x="554" y="-429.3" font-family="Times,serif" font-size="14.00">RDS</text>
</g>
<!-- aws_ec2&#45;&gt;aws_rds -->
<g id="edge6" class="edge"><title>aws_ec2&#45;&gt;aws_rds</title>
<path fill="none" stroke="black" d="M451.309,-549.437C453.729,-543.055 456.507,-535.693 459,-529 468.915,-502.384 461.551,-489.699 481,-469 494.627,-454.497 504.089,-459.674 522,-451 522.817,-450.604 523.644,-450.199 524.477,-449.786"/>
<polygon fill="black" stroke="black" points="526.143,-452.866 533.459,-445.202 522.961,-446.631 526.143,-452.866"/>
<text text-anchor="middle" x="513.5" y="-502.8" font-family="Times,serif" font-size="14.00">Database</text>
<text text-anchor="middle" x="513.5" y="-487.8" font-family="Times,serif" font-size="14.00">(postgresql)</text>
</g>
<!-- crm_mail&#45;&gt;crm_web -->
<g id="edge16" class="edge"><title>crm_mail&#45;&gt;crm_web</title>
<path fill="none" stroke="black" stroke-dasharray="1,5" d="M336.237,-97.937C336.35,-89.8072 336.488,-79.8761 336.615,-70.7047"/>
<polygon fill="black" stroke="black" points="340.118,-70.4883 336.758,-60.4407 333.119,-70.3911 340.118,-70.4883"/>
</g>
</g>
</svg>
