<?xml version="1.0" encoding="UTF-8" standalone="no"?>
<!DOCTYPE svg PUBLIC "-//W3C//DTD SVG 1.1//EN"
 "http://www.w3.org/Graphics/SVG/1.1/DTD/svg11.dtd">
<!-- Generated by graphviz version 2.38.0 (20140413.2041)
 -->
<!-- Title: G Pages: 1 -->
<svg width="1240pt" height="587pt"
 viewBox="0.00 0.00 1240.04 586.87" xmlns="http://www.w3.org/2000/svg" xmlns:xlink="http://www.w3.org/1999/xlink">
<g id="graph0" class="graph" transform="scale(1 1) rotate(0) translate(4 582.87)">
<title>G</title>
<polygon fill="white" stroke="none" points="-4,4 -4,-582.87 1236.04,-582.87 1236.04,4 -4,4"/>
<!-- 1 -->
<g id="node1" class="node"><title>1</title>
<ellipse fill="none" stroke="black" cx="115.258" cy="-342.87" rx="115.017" ry="48.5816"/>
<text text-anchor="middle" x="115.258" y="-362.17" font-family="Times,serif" font-size="14.00">Why am I tracking issues?</text>
<text text-anchor="middle" x="115.258" y="-331.17" font-family="Times,serif" font-size="14.00">To remember to change</text>
<text text-anchor="middle" x="115.258" y="-316.17" font-family="Times,serif" font-size="14.00">things later</text>
</g>
<!-- 21 -->
<g id="node2" class="node"><title>21</title>
<ellipse fill="none" stroke="black" cx="378.24" cy="-251.87" rx="108.789" ry="26.7407"/>
<text text-anchor="middle" x="378.24" y="-255.67" font-family="Times,serif" font-size="14.00">Without changes,</text>
<text text-anchor="middle" x="378.24" y="-240.67" font-family="Times,serif" font-size="14.00">users could have bad exp</text>
</g>
<!-- 1&#45;&gt;21 -->
<g id="edge1" class="edge"><title>1&#45;&gt;21</title>
<path fill="none" stroke="black" d="M204.979,-311.935C237.381,-300.637 273.623,-287.999 304.475,-277.242"/>
<polygon fill="black" stroke="black" points="306,-280.417 314.29,-273.82 303.695,-273.807 306,-280.417"/>
</g>
<!-- 22 -->
<g id="node3" class="node"><title>22</title>
<ellipse fill="none" stroke="black" cx="378.24" cy="-392.87" rx="111.946" ry="37.4533"/>
<text text-anchor="middle" x="378.24" y="-404.17" font-family="Times,serif" font-size="14.00">Without changes,</text>
<text text-anchor="middle" x="378.24" y="-389.17" font-family="Times,serif" font-size="14.00">maintenance &amp; dev could</text>
<text text-anchor="middle" x="378.24" y="-374.17" font-family="Times,serif" font-size="14.00">become harder</text>
</g>
<!-- 1&#45;&gt;22 -->
<g id="edge2" class="edge"><title>1&#45;&gt;22</title>
<path fill="none" stroke="black" d="M220.53,-362.847C236.991,-366.001 254.032,-369.265 270.547,-372.429"/>
<polygon fill="black" stroke="black" points="270.272,-375.94 280.752,-374.385 271.589,-369.065 270.272,-375.94"/>
</g>
<!-- 31 -->
<g id="node4" class="node"><title>31</title>
<ellipse fill="none" stroke="black" cx="627.079" cy="-292.87" rx="96.3333" ry="37.4533"/>
<text text-anchor="middle" x="627.079" y="-304.17" font-family="Times,serif" font-size="14.00">User&#45;instigated action</text>
<text text-anchor="middle" x="627.079" y="-289.17" font-family="Times,serif" font-size="14.00">doesn&#39;t complete</text>
<text text-anchor="middle" x="627.079" y="-274.17" font-family="Times,serif" font-size="14.00">successfully</text>
</g>
<!-- 21&#45;&gt;31 -->
<g id="edge3" class="edge"><title>21&#45;&gt;31</title>
<path fill="none" stroke="black" d="M469.053,-266.788C488.304,-269.986 508.736,-273.379 528.272,-276.624"/>
<polygon fill="black" stroke="black" points="527.957,-280.12 538.396,-278.306 529.104,-273.215 527.957,-280.12"/>
</g>
<!-- 32 -->
<g id="node5" class="node"><title>32</title>
<ellipse fill="none" stroke="black" cx="627.079" cy="-210.87" rx="70.922" ry="26.7407"/>
<text text-anchor="middle" x="627.079" y="-214.67" font-family="Times,serif" font-size="14.00">User can&#39;t do</text>
<text text-anchor="middle" x="627.079" y="-199.67" font-family="Times,serif" font-size="14.00">what they want</text>
</g>
<!-- 21&#45;&gt;32 -->
<g id="edge4" class="edge"><title>21&#45;&gt;32</title>
<path fill="none" stroke="black" d="M469.053,-236.952C496.19,-232.445 525.674,-227.547 551.688,-223.226"/>
<polygon fill="black" stroke="black" points="552.559,-226.63 561.85,-221.538 551.412,-219.724 552.559,-226.63"/>
</g>
<!-- 33 -->
<g id="node6" class="node"><title>33</title>
<ellipse fill="none" stroke="black" cx="627.079" cy="-138.87" rx="101.233" ry="26.7407"/>
<text text-anchor="middle" x="627.079" y="-142.67" font-family="Times,serif" font-size="14.00">UX is shit</text>
<text text-anchor="middle" x="627.079" y="-127.67" font-family="Times,serif" font-size="14.00">(eg. poor UI, too slow)</text>
</g>
<!-- 21&#45;&gt;33 -->
<g id="edge5" class="edge"><title>21&#45;&gt;33</title>
<path fill="none" stroke="black" d="M422.443,-227.178C451.265,-211.212 490.279,-190.559 525.963,-174.87 534.966,-170.911 544.556,-167.042 554.099,-163.396"/>
<polygon fill="black" stroke="black" points="555.47,-166.62 563.602,-159.829 553.01,-160.066 555.47,-166.62"/>
</g>
<!-- 34 -->
<g id="node7" class="node"><title>34</title>
<ellipse fill="none" stroke="black" cx="627.079" cy="-487.87" rx="58.8803" ry="26.7407"/>
<text text-anchor="middle" x="627.079" y="-491.67" font-family="Times,serif" font-size="14.00">Code too __</text>
<text text-anchor="middle" x="627.079" y="-476.67" font-family="Times,serif" font-size="14.00">to build on</text>
</g>
<!-- 22&#45;&gt;34 -->
<g id="edge6" class="edge"><title>22&#45;&gt;34</title>
<path fill="none" stroke="black" d="M452.298,-420.988C490.631,-435.741 536.789,-453.505 571.897,-467.017"/>
<polygon fill="black" stroke="black" points="570.901,-470.384 581.49,-470.709 573.415,-463.851 570.901,-470.384"/>
</g>
<!-- 35 -->
<g id="node8" class="node"><title>35</title>
<ellipse fill="none" stroke="black" cx="627.079" cy="-419.87" rx="68.7879" ry="18"/>
<text text-anchor="middle" x="627.079" y="-416.17" font-family="Times,serif" font-size="14.00">Servers max out</text>
</g>
<!-- 22&#45;&gt;35 -->
<g id="edge7" class="edge"><title>22&#45;&gt;35</title>
<path fill="none" stroke="black" d="M484.638,-404.399C507.714,-406.923 531.65,-409.541 553.123,-411.89"/>
<polygon fill="black" stroke="black" points="552.806,-415.376 563.127,-412.984 553.567,-408.418 552.806,-415.376"/>
</g>
<!-- 36 -->
<g id="node9" class="node"><title>36</title>
<ellipse fill="none" stroke="black" cx="627.079" cy="-365.87" rx="73.387" ry="18"/>
<text text-anchor="middle" x="627.079" y="-362.17" font-family="Times,serif" font-size="14.00">Manual ops work</text>
</g>
<!-- 22&#45;&gt;36 -->
<g id="edge8" class="edge"><title>22&#45;&gt;36</title>
<path fill="none" stroke="black" d="M484.638,-381.341C506.384,-378.963 528.894,-376.5 549.387,-374.259"/>
<polygon fill="black" stroke="black" points="550.028,-377.71 559.588,-373.143 549.267,-370.751 550.028,-377.71"/>
</g>
<!-- 41 -->
<g id="node10" class="node"><title>41</title>
<ellipse fill="none" stroke="black" cx="857.787" cy="-342.87" rx="93.6835" ry="18"/>
<text text-anchor="middle" x="857.787" y="-339.17" font-family="Times,serif" font-size="14.00">Frontend/backend error</text>
</g>
<!-- 31&#45;&gt;41 -->
<g id="edge9" class="edge"><title>31&#45;&gt;41</title>
<path fill="none" stroke="black" d="M711.295,-311.063C735.546,-316.364 761.819,-322.108 785.28,-327.237"/>
<polygon fill="black" stroke="black" points="784.631,-330.678 795.148,-329.395 786.126,-323.84 784.631,-330.678"/>
</g>
<!-- 48 -->
<g id="node11" class="node"><title>48</title>
<ellipse fill="none" stroke="black" cx="857.787" cy="-288.87" rx="50.8918" ry="18"/>
<text text-anchor="middle" x="857.787" y="-285.17" font-family="Times,serif" font-size="14.00">Logic error</text>
</g>
<!-- 31&#45;&gt;48 -->
<g id="edge10" class="edge"><title>31&#45;&gt;48</title>
<path fill="none" stroke="black" d="M723.415,-291.203C748.287,-290.768 774.394,-290.311 796.85,-289.918"/>
<polygon fill="black" stroke="black" points="796.956,-293.417 806.893,-289.743 796.833,-286.418 796.956,-293.417"/>
</g>
<!-- 42 -->
<g id="node12" class="node"><title>42</title>
<ellipse fill="none" stroke="black" cx="857.787" cy="-161.87" rx="87.1846" ry="18"/>
<text text-anchor="middle" x="857.787" y="-158.17" font-family="Times,serif" font-size="14.00">Missing functionality</text>
</g>
<!-- 32&#45;&gt;42 -->
<g id="edge11" class="edge"><title>32&#45;&gt;42</title>
<path fill="none" stroke="black" d="M689.068,-197.803C719.158,-191.357 755.602,-183.549 786.822,-176.86"/>
<polygon fill="black" stroke="black" points="787.715,-180.248 796.76,-174.731 786.248,-173.403 787.715,-180.248"/>
</g>
<!-- 33&#45;&gt;42 -->
<g id="edge12" class="edge"><title>33&#45;&gt;42</title>
<path fill="none" stroke="black" d="M722.093,-148.325C737.657,-149.89 753.741,-151.507 769.14,-153.056"/>
<polygon fill="black" stroke="black" points="768.848,-156.544 779.149,-154.062 769.549,-149.579 768.848,-156.544"/>
</g>
<!-- 43 -->
<g id="node13" class="node"><title>43</title>
<ellipse fill="none" stroke="black" cx="857.787" cy="-102.87" rx="36.2938" ry="18"/>
<text text-anchor="middle" x="857.787" y="-99.1701" font-family="Times,serif" font-size="14.00">Bad UI</text>
</g>
<!-- 33&#45;&gt;43 -->
<g id="edge13" class="edge"><title>33&#45;&gt;43</title>
<path fill="none" stroke="black" d="M714.543,-125.26C747.969,-119.999 784.78,-114.204 812.58,-109.829"/>
<polygon fill="black" stroke="black" points="813.433,-113.237 822.767,-108.225 812.344,-106.323 813.433,-113.237"/>
</g>
<!-- 44 -->
<g id="node14" class="node"><title>44</title>
<ellipse fill="none" stroke="black" cx="857.787" cy="-234.87" rx="72.2875" ry="18"/>
<text text-anchor="middle" x="857.787" y="-231.17" font-family="Times,serif" font-size="14.00">Bad performance</text>
</g>
<!-- 33&#45;&gt;44 -->
<g id="edge14" class="edge"><title>33&#45;&gt;44</title>
<path fill="none" stroke="black" d="M689.835,-160.076C702.6,-164.739 715.899,-169.803 728.195,-174.87 757.784,-187.063 790.455,-202.331 815.462,-214.414"/>
<polygon fill="black" stroke="black" points="814.124,-217.655 824.648,-218.876 817.182,-211.359 814.124,-217.655"/>
</g>
<!-- 45 -->
<g id="node15" class="node"><title>45</title>
<ellipse fill="none" stroke="black" cx="857.787" cy="-560.87" rx="79.0865" ry="18"/>
<text text-anchor="middle" x="857.787" y="-557.17" font-family="Times,serif" font-size="14.00">Code needs rewrite</text>
</g>
<!-- 34&#45;&gt;45 -->
<g id="edge15" class="edge"><title>34&#45;&gt;45</title>
<path fill="none" stroke="black" d="M674.226,-504.004C700.506,-513.057 734.095,-524.4 764.195,-533.87 774.943,-537.252 786.438,-540.721 797.544,-543.998"/>
<polygon fill="black" stroke="black" points="796.595,-547.367 807.176,-546.822 798.564,-540.65 796.595,-547.367"/>
</g>
<!-- 46 -->
<g id="node16" class="node"><title>46</title>
<ellipse fill="none" stroke="black" cx="857.787" cy="-487.87" rx="80.7205" ry="37.4533"/>
<text text-anchor="middle" x="857.787" y="-499.17" font-family="Times,serif" font-size="14.00">Additional code</text>
<text text-anchor="middle" x="857.787" y="-484.17" font-family="Times,serif" font-size="14.00">and/or refactoring</text>
<text text-anchor="middle" x="857.787" y="-469.17" font-family="Times,serif" font-size="14.00">required</text>
</g>
<!-- 34&#45;&gt;46 -->
<g id="edge16" class="edge"><title>34&#45;&gt;46</title>
<path fill="none" stroke="black" d="M685.791,-487.87C710.315,-487.87 739.489,-487.87 766.733,-487.87"/>
<polygon fill="black" stroke="black" points="767.067,-491.37 777.067,-487.87 767.067,-484.37 767.067,-491.37"/>
</g>
<!-- 35&#45;&gt;44 -->
<g id="edge17" class="edge"><title>35&#45;&gt;44</title>
<path fill="none" stroke="black" d="M691.281,-413.307C704.891,-409.233 718.179,-402.839 728.195,-392.87 770.992,-350.276 721.833,-304.896 764.195,-261.87 770.106,-255.867 777.269,-251.18 784.965,-247.525"/>
<polygon fill="black" stroke="black" points="786.308,-250.758 794.201,-243.691 783.623,-244.293 786.308,-250.758"/>
</g>
<!-- 35&#45;&gt;46 -->
<g id="edge18" class="edge"><title>35&#45;&gt;46</title>
<path fill="none" stroke="black" d="M673.264,-433.305C703.607,-442.326 744.358,-454.443 779.752,-464.966"/>
<polygon fill="black" stroke="black" points="778.997,-468.393 789.58,-467.888 780.992,-461.683 778.997,-468.393"/>
</g>
<!-- 36&#45;&gt;41 -->
<g id="edge19" class="edge"><title>36&#45;&gt;41</title>
<path fill="none" stroke="black" d="M695.462,-359.094C717.04,-356.924 741.319,-354.482 764.364,-352.165"/>
<polygon fill="black" stroke="black" points="764.901,-355.628 774.501,-351.145 764.201,-348.663 764.901,-355.628"/>
</g>
<!-- 36&#45;&gt;42 -->
<g id="edge20" class="edge"><title>36&#45;&gt;42</title>
<path fill="none" stroke="black" d="M694.136,-358.416C706.737,-354.319 718.88,-348.14 728.195,-338.87 770.992,-296.276 725.81,-254.479 764.195,-207.87 773.466,-196.613 786.18,-187.867 799.216,-181.173"/>
<polygon fill="black" stroke="black" points="800.736,-184.326 808.254,-176.861 797.722,-178.008 800.736,-184.326"/>
</g>
<!-- 47 -->
<g id="node17" class="node"><title>47</title>
<ellipse fill="none" stroke="black" cx="857.787" cy="-405.87" rx="91.8478" ry="26.7407"/>
<text text-anchor="middle" x="857.787" y="-409.67" font-family="Times,serif" font-size="14.00">Manual work should</text>
<text text-anchor="middle" x="857.787" y="-394.67" font-family="Times,serif" font-size="14.00">be avoided.</text>
</g>
<!-- 36&#45;&gt;47 -->
<g id="edge21" class="edge"><title>36&#45;&gt;47</title>
<path fill="none" stroke="black" d="M687.274,-376.223C712.029,-380.552 741.318,-385.675 768.525,-390.433"/>
<polygon fill="black" stroke="black" points="767.989,-393.893 778.442,-392.168 769.195,-386.997 767.989,-393.893"/>
</g>
<!-- 51 -->
<g id="node18" class="node"><title>51</title>
<ellipse fill="none" stroke="black" cx="1109.71" cy="-361.87" rx="95.5831" ry="18"/>
<text text-anchor="middle" x="1109.71" y="-358.17" font-family="Times,serif" font-size="14.00">Code not robust enough</text>
</g>
<!-- 41&#45;&gt;51 -->
<g id="edge22" class="edge"><title>41&#45;&gt;51</title>
<path fill="none" stroke="black" d="M945.145,-349.435C966.217,-351.037 988.913,-352.763 1010.49,-354.403"/>
<polygon fill="black" stroke="black" points="1010.41,-357.907 1020.65,-355.175 1010.94,-350.927 1010.41,-357.907"/>
</g>
<!-- 52 -->
<g id="node19" class="node"><title>52</title>
<ellipse fill="none" stroke="black" cx="1109.71" cy="-307.87" rx="27" ry="18"/>
<text text-anchor="middle" x="1109.71" y="-304.17" font-family="Times,serif" font-size="14.00">Bug</text>
</g>
<!-- 41&#45;&gt;52 -->
<g id="edge23" class="edge"><title>41&#45;&gt;52</title>
<path fill="none" stroke="black" d="M934.11,-332.321C980.156,-325.873 1036.94,-317.921 1072.99,-312.872"/>
<polygon fill="black" stroke="black" points="1073.62,-316.319 1083.03,-311.465 1072.65,-309.386 1073.62,-316.319"/>
</g>
<!-- 48&#45;&gt;51 -->
<g id="edge36" class="edge"><title>48&#45;&gt;51</title>
<path fill="none" stroke="black" d="M899.956,-298.956C916.224,-303.436 934.926,-309.21 951.378,-315.87 968.148,-322.659 970.398,-328.627 987.378,-334.87 1000.71,-339.77 1015.2,-343.936 1029.38,-347.42"/>
<polygon fill="black" stroke="black" points="1028.59,-350.83 1039.13,-349.724 1030.2,-344.018 1028.59,-350.83"/>
</g>
<!-- 48&#45;&gt;52 -->
<g id="edge37" class="edge"><title>48&#45;&gt;52</title>
<path fill="none" stroke="black" d="M907.567,-292.579C955.993,-296.26 1029.1,-301.818 1072.55,-305.122"/>
<polygon fill="black" stroke="black" points="1072.43,-308.622 1082.67,-305.89 1072.96,-301.642 1072.43,-308.622"/>
</g>
<!-- 53 -->
<g id="node20" class="node"><title>53</title>
<ellipse fill="none" stroke="black" cx="1109.71" cy="-161.87" rx="70.6878" ry="18"/>
<text text-anchor="middle" x="1109.71" y="-158.17" font-family="Times,serif" font-size="14.00">Not high priority</text>
</g>
<!-- 42&#45;&gt;53 -->
<g id="edge24" class="edge"><title>42&#45;&gt;53</title>
<path fill="none" stroke="black" d="M945.145,-161.87C972.169,-161.87 1001.86,-161.87 1028.45,-161.87"/>
<polygon fill="black" stroke="black" points="1028.47,-165.37 1038.47,-161.87 1028.47,-158.37 1028.47,-165.37"/>
</g>
<!-- 54 -->
<g id="node21" class="node"><title>54</title>
<ellipse fill="none" stroke="black" cx="1109.71" cy="-98.8701" rx="96.7474" ry="26.7407"/>
<text text-anchor="middle" x="1109.71" y="-102.67" font-family="Times,serif" font-size="14.00">Haven&#39;t had the time /</text>
<text text-anchor="middle" x="1109.71" y="-87.6701" font-family="Times,serif" font-size="14.00">It&#39;s queued to do</text>
</g>
<!-- 42&#45;&gt;54 -->
<g id="edge25" class="edge"><title>42&#45;&gt;54</title>
<path fill="none" stroke="black" d="M913.633,-148.044C947.004,-139.632 990.239,-128.734 1027.52,-119.335"/>
<polygon fill="black" stroke="black" points="1028.52,-122.693 1037.36,-116.854 1026.81,-115.905 1028.52,-122.693"/>
</g>
<!-- 43&#45;&gt;53 -->
<g id="edge26" class="edge"><title>43&#45;&gt;53</title>
<path fill="none" stroke="black" d="M890.441,-110.981C916.437,-117.585 954.238,-127.06 987.378,-134.87 1006.16,-139.296 1026.63,-143.925 1045.31,-148.075"/>
<polygon fill="black" stroke="black" points="1044.67,-151.517 1055.19,-150.261 1046.18,-144.683 1044.67,-151.517"/>
</g>
<!-- 43&#45;&gt;54 -->
<g id="edge27" class="edge"><title>43&#45;&gt;54</title>
<path fill="none" stroke="black" d="M894.329,-102.301C922.658,-101.848 963.863,-101.188 1002.6,-100.568"/>
<polygon fill="black" stroke="black" points="1002.97,-104.063 1012.91,-100.403 1002.85,-97.0639 1002.97,-104.063"/>
</g>
<!-- 55 -->
<g id="node22" class="node"><title>55</title>
<ellipse fill="none" stroke="black" cx="1109.71" cy="-26.8701" rx="93.1765" ry="26.7407"/>
<text text-anchor="middle" x="1109.71" y="-30.6701" font-family="Times,serif" font-size="14.00">Temporarily pending</text>
<text text-anchor="middle" x="1109.71" y="-15.6701" font-family="Times,serif" font-size="14.00">future changes</text>
</g>
<!-- 43&#45;&gt;55 -->
<g id="edge28" class="edge"><title>43&#45;&gt;55</title>
<path fill="none" stroke="black" d="M888.892,-93.383C914.93,-85.2068 953.6,-73.1345 987.378,-62.8701 1002.38,-58.311 1018.45,-53.496 1033.82,-48.9222"/>
<polygon fill="black" stroke="black" points="1035.22,-52.1593 1043.8,-45.9564 1033.22,-45.4491 1035.22,-52.1593"/>
</g>
<!-- 44&#45;&gt;52 -->
<g id="edge29" class="edge"><title>44&#45;&gt;52</title>
<path fill="none" stroke="black" d="M909.393,-247.627C923.202,-251.646 938.031,-256.466 951.378,-261.87 968.148,-268.659 970.398,-274.627 987.378,-280.87 1015.38,-291.164 1048.52,-298.214 1073.09,-302.522"/>
<polygon fill="black" stroke="black" points="1072.61,-305.99 1083.05,-304.201 1073.77,-299.088 1072.61,-305.99"/>
</g>
<!-- 56 -->
<g id="node23" class="node"><title>56</title>
<ellipse fill="none" stroke="black" cx="1109.71" cy="-234.87" rx="122.159" ry="37.4533"/>
<text text-anchor="middle" x="1109.71" y="-246.17" font-family="Times,serif" font-size="14.00">Optimisation required</text>
<text text-anchor="middle" x="1109.71" y="-231.17" font-family="Times,serif" font-size="14.00">(could be code, DB indicies,</text>
<text text-anchor="middle" x="1109.71" y="-216.17" font-family="Times,serif" font-size="14.00">svr config)</text>
</g>
<!-- 44&#45;&gt;56 -->
<g id="edge30" class="edge"><title>44&#45;&gt;56</title>
<path fill="none" stroke="black" d="M930.07,-234.87C944.885,-234.87 960.944,-234.87 977.15,-234.87"/>
<polygon fill="black" stroke="black" points="977.251,-238.37 987.251,-234.87 977.251,-231.37 977.251,-238.37"/>
</g>
<!-- 57 -->
<g id="node24" class="node"><title>57</title>
<ellipse fill="none" stroke="black" cx="1109.71" cy="-529.87" rx="83.3772" ry="48.1667"/>
<text text-anchor="middle" x="1109.71" y="-548.67" font-family="Times,serif" font-size="14.00">Flawed design.</text>
<text text-anchor="middle" x="1109.71" y="-533.67" font-family="Times,serif" font-size="14.00">Wrong abstraction</text>
<text text-anchor="middle" x="1109.71" y="-518.67" font-family="Times,serif" font-size="14.00">Usage changed</text>
<text text-anchor="middle" x="1109.71" y="-503.67" font-family="Times,serif" font-size="14.00">Scope changed</text>
</g>
<!-- 45&#45;&gt;57 -->
<g id="edge31" class="edge"><title>45&#45;&gt;57</title>
<path fill="none" stroke="black" d="M927.74,-552.317C955.649,-548.855 988.258,-544.811 1018.05,-541.116"/>
<polygon fill="black" stroke="black" points="1018.54,-544.582 1028.03,-539.877 1017.68,-537.635 1018.54,-544.582"/>
</g>
<!-- 46&#45;&gt;51 -->
<g id="edge32" class="edge"><title>46&#45;&gt;51</title>
<path fill="none" stroke="black" d="M919.405,-463.392C930.7,-457.316 941.913,-450.132 951.378,-441.87 972.831,-423.145 963.821,-404.867 987.378,-388.87 996.468,-382.698 1006.74,-377.912 1017.37,-374.207"/>
<polygon fill="black" stroke="black" points="1018.72,-377.45 1027.2,-371.098 1016.61,-370.775 1018.72,-377.45"/>
</g>
<!-- 46&#45;&gt;52 -->
<g id="edge33" class="edge"><title>46&#45;&gt;52</title>
<path fill="none" stroke="black" d="M921.795,-465.036C932.76,-458.849 943.239,-451.205 951.378,-441.87 984.355,-404.053 950.077,-368.428 987.378,-334.87 1010.46,-314.102 1045.93,-308.151 1072.57,-306.921"/>
<polygon fill="black" stroke="black" points="1072.75,-310.417 1082.66,-306.657 1072.57,-303.42 1072.75,-310.417"/>
</g>
<!-- 46&#45;&gt;57 -->
<g id="edge34" class="edge"><title>46&#45;&gt;57</title>
<path fill="none" stroke="black" d="M933.771,-500.471C960.663,-504.991 991.251,-510.131 1019.25,-514.836"/>
<polygon fill="black" stroke="black" points="1018.99,-518.342 1029.43,-516.548 1020.15,-511.439 1018.99,-518.342"/>
</g>
<!-- 58 -->
<g id="node25" class="node"><title>58</title>
<ellipse fill="none" stroke="black" cx="1109.71" cy="-415.87" rx="59.5901" ry="18"/>
<text text-anchor="middle" x="1109.71" y="-412.17" font-family="Times,serif" font-size="14.00">I&#39;m time&#45;poor</text>
</g>
<!-- 47&#45;&gt;58 -->
<g id="edge35" class="edge"><title>47&#45;&gt;58</title>
<path fill="none" stroke="black" d="M949.014,-409.48C979.025,-410.681 1011.94,-411.998 1040.05,-413.123"/>
<polygon fill="black" stroke="black" points="1040.04,-416.625 1050.17,-413.528 1040.32,-409.631 1040.04,-416.625"/>
</g>
</g>
</svg>
