<?xml version="1.0" encoding="UTF-8" standalone="no"?>
<!-- Created with Inkscape (http://www.inkscape.org/) -->

<svg
   xmlns:dc="http://purl.org/dc/elements/1.1/"
   xmlns:cc="http://creativecommons.org/ns#"
   xmlns:rdf="http://www.w3.org/1999/02/22-rdf-syntax-ns#"
   xmlns:svg="http://www.w3.org/2000/svg"
   xmlns="http://www.w3.org/2000/svg"
   xmlns:sodipodi="http://sodipodi.sourceforge.net/DTD/sodipodi-0.dtd"
   xmlns:inkscape="http://www.inkscape.org/namespaces/inkscape"
   width="333.07086"
   height="205.51181"
   id="svg2"
   version="1.1"
   inkscape:version="0.48.4 r9939"
   sodipodi:docname="business_card-side_b.svg">
  <defs
     id="defs4" />
  <sodipodi:namedview
     id="base"
     pagecolor="#ffffff"
     bordercolor="#666666"
     borderopacity="1.0"
     inkscape:pageopacity="0.0"
     inkscape:pageshadow="2"
     inkscape:zoom="1"
     inkscape:cx="166.53543"
     inkscape:cy="102.75591"
     inkscape:document-units="mm"
     inkscape:current-layer="layer2"
     showgrid="true"
     units="mm"
     borderlayer="true"
     inkscape:showpageshadow="true"
     showborder="true"
     inkscape:window-width="1920"
     inkscape:window-height="1058"
     inkscape:window-x="1200"
     inkscape:window-y="0"
     inkscape:window-maximized="1" />
  <metadata
     id="metadata7">
    <rdf:RDF>
      <cc:Work
         rdf:about="">
        <dc:format>image/svg+xml</dc:format>
        <dc:type
           rdf:resource="http://purl.org/dc/dcmitype/StillImage" />
        <dc:title />
      </cc:Work>
    </rdf:RDF>
  </metadata>
  <g
     inkscape:label="Guides"
     inkscape:groupmode="layer"
     id="layer1"
     transform="translate(0,-846.85042)"
     style="opacity:0.25;display:none"
     sodipodi:insensitive="true">
    <rect
       y="846.8504"
       x="0"
       height="205.51181"
       width="333.07086"
       id="rect3809"
       style="fill:#000000;fill-opacity:1;stroke:none" />
    <rect
       style="fill:#ffffff;fill-opacity:1;stroke:none"
       id="rect2989"
       width="322.44095"
       height="194.8819"
       x="5.3149567"
       y="852.16541" />
    <rect
       y="857.48035"
       x="10.629913"
       height="184.25197"
       width="311.81104"
       id="rect3759"
       style="fill:#ffffff;fill-opacity:1;stroke:#ff8812;stroke-opacity:1" />
  </g>
  <g
     inkscape:groupmode="layer"
     id="layer2"
     inkscape:label="Foreground"
     style="display:inline">
    <text
       xml:space="preserve"
       style="font-size:40px;font-style:normal;font-variant:normal;font-weight:normal;font-stretch:normal;line-height:125%;letter-spacing:0.50000000000000000px;word-spacing:0px;fill:#ac0000;fill-opacity:1;stroke:none;font-family:Arimo;-inkscape-font-specification:Arimo"
       x="172.50999"
       y="189.12346"
       id="text3812"
       sodipodi:linespacing="125%"><tspan
         sodipodi:role="line"
         id="tspan3814"
         x="172.50999"
         y="189.12346"
         style="font-size:14px;font-style:normal;font-variant:normal;font-weight:normal;font-stretch:normal;letter-spacing:0.50000000000000000px;fill:#ac0000;fill-opacity:1;font-family:Arimo;-inkscape-font-specification:Arimo">https://shipreq.com/bc</tspan></text>
    <text
       sodipodi:linespacing="115%"
       id="text4249"
       y="119.8909"
       x="28.506041"
       style="font-size:14px;font-style:normal;font-variant:normal;font-weight:normal;font-stretch:normal;text-align:start;line-height:114.99999762%;letter-spacing:0px;word-spacing:0px;writing-mode:lr-tb;text-anchor:start;fill:#101010;fill-opacity:1;stroke:none;display:inline;font-family:Minion Pro;-inkscape-font-specification:Minion Pro"
       xml:space="preserve"><tspan
         style="font-size:14px;font-style:normal;font-variant:normal;font-weight:normal;font-stretch:normal;text-align:start;line-height:114.99999762%;writing-mode:lr-tb;text-anchor:start;fill:#101010;fill-opacity:1;font-family:Minion Pro;-inkscape-font-specification:Minion Pro"
         y="119.8909"
         x="28.506041"
         id="tspan4251"
         sodipodi:role="line">ShipReq is a modern, online tool </tspan><tspan
         style="font-size:14px;font-style:normal;font-variant:normal;font-weight:normal;font-stretch:normal;text-align:start;line-height:114.99999762%;writing-mode:lr-tb;text-anchor:start;fill:#101010;fill-opacity:1;font-family:Minion Pro;-inkscape-font-specification:Minion Pro"
         id="tspan4253"
         y="135.99091"
         x="28.506041"
         sodipodi:role="line">for <tspan
   style="font-weight:bold;line-height:114.99999762%;fill:#101010;fill-opacity:1"
   id="tspan4011">requirements</tspan> development and management.</tspan></text>
  </g>
  <g
     inkscape:groupmode="layer"
     id="layer3"
     inkscape:label="B"
     style="display:none">
    <g
       style="display:inline"
       id="g4371"
       transform="matrix(0.20569374,0,0,0.20569374,1.5219531,-239.74847)">
      <g
         style="stroke:#000000;stroke-width:2;stroke-miterlimit:4;stroke-opacity:1;stroke-dasharray:none"
         transform="translate(0,1173.3333)"
         id="g4145">
        <path
           d="m 543.45375,326.8063 c 0,11.51875 -4.67875,21.815 -14.035,30.8825 -11.6675,11.235 -27.575,16.84625 -47.73,16.84625 -13.68,0 -27.07125,-2.37375 -40.17375,-7.12375 l -6.91125,-28.29375 c 15.40625,12.09625 32.11125,18.14 50.10375,18.14 9.6525,0 17.75125,-2.23375 24.3025,-6.6925 6.55,-4.46625 9.8225,-10.00625 9.8225,-16.62875 0,-6.33875 -2.51625,-11.7375 -7.56125,-16.1975 -4.3175,-3.745 -14.07,-9.0725 -29.2625,-15.98375 -15.1875,-6.9125 -25.66125,-12.96125 -31.42,-18.14125 -7.92125,-7.2 -11.87875,-15.98375 -11.87875,-26.35125 0,-12.23375 5.14375,-22.0275 15.44125,-29.37 10.295,-7.3425 24.0825,-11.01125 41.36125,-11.01125 11.37,0 22.96,1.655 34.76875,4.9625 l 0,25.92 c -10.225,-9.93625 -22.24625,-14.90375 -36.06875,-14.90375 -8.925,0 -16.16125,1.97875 -21.7025,5.9425 -5.5475,3.9575 -8.3175,9.1025 -8.3175,15.44125 0,5.6125 2.1975,10.32625 6.58625,14.14125 4.395,3.81625 13.42625,8.89 27.1075,15.22875 16.2675,7.48375 27.35625,13.60375 33.25625,18.35875 8.205,6.475 12.31125,14.75625 12.31125,24.83375"
           style="fill:#000000;fill-opacity:1;fill-rule:nonzero;stroke:#000000;stroke-width:2;stroke-miterlimit:4;stroke-opacity:1;stroke-dasharray:none"
           id="path4147"
           inkscape:connector-curvature="0" />
        <path
           d="m 670.4375,370.6488 -38.01125,0 c 4.02875,-3.025 6.515,-5.68875 7.44875,-7.9925 0.93875,-2.30375 1.40625,-7.12375 1.40625,-14.46625 l 0,-40.38625 c 0,-9.21625 -1.4425,-15.695 -4.31875,-19.44125 -4.8975,-6.48 -12.24,-9.71625 -22.03375,-9.71625 -9.49875,0 -16.77,3.025 -21.80875,9.07375 -1.8725,2.155 -3.025,4.2825 -3.455,6.3675 -0.43125,2.09125 -0.65,6.22625 -0.65,12.41625 l 0,41.68625 c 0,7.3425 0.43125,12.1275 1.29375,14.36 0.8675,2.2325 3.385,4.9325 7.56125,8.09875 l -38.00625,0 c 4.03375,-3.16625 6.48,-5.86625 7.33625,-8.09875 0.86875,-2.2325 1.3,-7.0175 1.3,-14.36 l 0,-105.18125 c 0,-7.48375 -0.39625,-12.26875 -1.1875,-14.36 -0.78625,-2.085 -3.2725,-4.785 -7.44875,-8.09875 l 15.76,0 c 6.19,0 10.65625,-1.44125 13.39125,-4.3175 l 0,60.68875 c 7.3425,-9.6525 18.71875,-14.4725 34.125,-14.4725 14.97375,0 25.985,4.9675 33.04375,14.90375 3.74,5.18 5.6125,13.025 5.6125,23.54 l 0,47.2975 c 0,7.195 0.43125,11.95 1.29375,14.25375 0.8675,2.30375 3.31375,5.03875 7.3475,8.205"
           style="fill:#000000;fill-opacity:1;fill-rule:nonzero;stroke:#000000;stroke-width:2;stroke-miterlimit:4;stroke-opacity:1;stroke-dasharray:none"
           id="path4149"
           inkscape:connector-curvature="0" />
        <path
           d="m 720.535,237.3963 c 0,4.02875 -1.36375,7.41375 -4.09875,10.14875 -2.735,2.735 -6.12,4.10625 -10.155,4.10625 -3.88625,0 -7.19375,-1.37125 -9.935,-4.10625 -2.735,-2.735 -4.1,-6.12 -4.1,-10.14875 0,-3.88625 1.4,-7.2 4.2125,-9.935 2.805,-2.735 6.22625,-4.105 10.25375,-4.105 3.74625,0 6.98875,1.40625 9.72375,4.21125 2.735,2.81125 4.09875,6.085 4.09875,9.82875 z m 5.1875,133.2525 -37.79375,0 c 4.02875,-3.16625 6.47375,-5.86625 7.3425,-8.09875 0.8625,-2.2325 1.29375,-7.0175 1.29375,-14.36 l 0,-60.25875 c 0,-7.34125 -0.43125,-12.12625 -1.29375,-14.35875 -0.86875,-2.23375 -3.31375,-4.9325 -7.3425,-8.09875 l 15.765,0 c 6.19125,0 10.65125,-1.44125 13.38625,-4.31875 l 0,87.035 c 0,7.3425 0.43125,12.1275 1.3,14.36 0.8625,2.2325 3.3075,4.9325 7.3425,8.09875"
           style="fill:#000000;fill-opacity:1;fill-rule:nonzero;stroke:#000000;stroke-width:2;stroke-miterlimit:4;stroke-opacity:1;stroke-dasharray:none"
           id="path4151"
           inkscape:connector-curvature="0" />
        <path
           d="m 861.135,316.44005 c 0,16.415 -5.22125,30.05375 -15.65875,40.92375 -10.43875,10.875 -23.50375,16.30875 -39.2,16.30875 -5.90125,0 -11.66,-1.01 -17.2775,-3.02375 l -12.305,-18.57125 c 8.92625,4.3175 17.42,6.47875 25.48375,6.47875 11.37125,0 20.155,-3.49 26.345,-10.44375 6.19125,-6.94625 9.28625,-16.69875 9.28625,-29.29875 0,-12.31 -3.2025,-22.24 -9.61125,-29.83625 -6.4025,-7.59625 -14.72,-11.4125 -24.93875,-11.4125 -11.08875,0 -19.9425,4.10625 -26.565,12.34625 -3.745,4.6075 -5.6175,11.66625 -5.6175,21.165 l 0,84.1575 c 0,6.3325 0.29,10.50875 0.8625,12.55875 1.01,3.8925 3.6025,7.05875 7.77375,9.50375 l -37.79375,0 c 4.17625,-2.445 6.77,-5.61125 7.77375,-9.50375 0.57875,-1.8675 0.86875,-6.04375 0.86875,-12.52375 l 0,-107.3375 c 0,-7.34125 -0.43125,-12.12625 -1.3,-14.35875 -0.8625,-2.23375 -3.3075,-4.9325 -7.3425,-8.09875 l 15.76625,0 c 6.19125,0 10.65625,-1.44125 13.39125,-4.31875 l 0,17.71 c 9.0675,-10.94625 21.59625,-16.41625 37.58125,-16.41625 14.96875,0 27.63875,5.2575 38.00625,15.76625 9.64625,9.7875 14.47125,22.52875 14.47125,38.225"
           style="fill:#000000;fill-opacity:1;fill-rule:nonzero;stroke:#000000;stroke-width:2;stroke-miterlimit:4;stroke-opacity:1;stroke-dasharray:none"
           id="path4153"
           inkscape:connector-curvature="0" />
        <path
           d="m 1015.54,370.6488 c -11.2287,0.8625 -18.21125,1.29375 -20.94625,1.29375 -6.48,0 -12.0625,-1.5125 -16.74,-4.53125 -4.67375,-2.98875 -10.8275,-9.0375 -18.46,-18.07 -14.5375,-17.2425 -27.8575,-36.10375 -39.95,-56.61875 C 944.78,288.3988 957.45,277.56505 957.45,260.2163 c 0,-7.485 -2.55125,-13.53375 -7.6675,-18.21125 -5.10875,-4.64375 -11.76625,-6.9825 -19.97125,-6.9825 -4.46625,0 -9.79375,0.5725 -15.985,1.725 l 0,104.85625 c 0,8.31125 0.28875,13.745 0.8625,16.33875 1.3,5.90125 4.395,10.1125 9.28625,12.70625 l -43.1925,0 c 4.8975,-2.59375 7.9925,-6.84 9.28625,-12.74125 0.57875,-2.59375 0.8675,-8.06375 0.8675,-16.41625 l 0,-91.78375 c 0,-8.3525 -0.28875,-13.8225 -0.8675,-16.41625 -1.29375,-5.90125 -4.38875,-10.1475 -9.28625,-12.74125 l 33.04375,0 c 2.30375,0 5.68875,0 10.14875,0 4.46625,0 7.85,0 10.15375,0 14.54375,0 25.7725,2.95375 33.68875,8.81875 10.07125,7.485 15.11625,17.1725 15.11625,29.0875 0,8.74125 -3.45625,16.77 -10.36125,24.00625 -6.91125,7.235 -15.76625,12.23875 -26.56375,14.97375 16.98875,22.81875 30.55125,39.56 40.69875,50.175 10.155,10.62 19.765,18.2875 28.8325,23.0375"
           style="fill:#000000;fill-opacity:1;fill-rule:nonzero;stroke:#000000;stroke-width:2;stroke-miterlimit:4;stroke-opacity:1;stroke-dasharray:none"
           id="path4155"
           inkscape:connector-curvature="0" />
        <path
           d="m 1117.915,346.4588 -12.3125,21.815 c -9.3625,3.5975 -19.875,5.39875 -31.5375,5.39875 -19,0 -34.5125,-5.18625 -46.5387,-15.5525 -12.0213,-10.36125 -18.035,-23.7525 -18.035,-40.1675 0,-16.99 6.1962,-31.10125 18.5775,-42.33125 9.6462,-8.78375 22.3212,-13.1725 38.0087,-13.1725 14.975,0 27.35,4.67875 37.15,14.035 9.7875,9.3625 14.6875,21.2425 14.6875,35.6375 l 0,3.675 -83.8025,0 c 0.5787,13.31375 4.8963,23.75125 12.965,31.3475 8.0625,7.5975 18.925,11.4125 32.6125,11.4125 14.25,0 26.9875,-4.03375 38.225,-12.0975 z m -23.975,-44.9225 c -3.1625,-16.98875 -12.8125,-25.48375 -28.9375,-25.48375 -16.275,0 -26.2825,8.495 -30.0225,25.48375 l 58.96,0"
           style="fill:#000000;fill-opacity:1;fill-rule:nonzero;stroke:#000000;stroke-width:2;stroke-miterlimit:4;stroke-opacity:1;stroke-dasharray:none"
           id="path4157"
           inkscape:connector-curvature="0" />
        <path
           d="m 1253.1025,417.2963 -37.7875,0 c 4.1625,-3.455 6.65,-6.26125 7.45,-8.4225 0.7875,-2.15625 1.1875,-6.9125 1.1875,-14.255 l 0,-110.355 c -10.4125,-3.02375 -18.9375,-4.5375 -25.5625,-4.5375 -11.9875,0 -21.675,3.5275 -29.05,10.61625 -7.375,7.05875 -11.05,16.38 -11.05,27.93375 0,11.98625 3.85,21.7025 11.6,29.1225 7.7375,7.44875 17.7375,11.1575 30.0125,11.1575 6.375,0 12.35,-1.29875 18,-3.8925 l -11.0125,16.41625 c -4.325,1.73125 -9.3625,2.5925 -15.125,2.5925 -16.5625,0 -30.0875,-4.825 -40.6,-14.4725 -10.5125,-9.645 -15.7625,-21.95625 -15.7625,-36.93 0,-9.64625 2.3375,-18.74875 7.0125,-27.32 4.6875,-8.56625 11.05,-15.29375 19.1125,-20.19125 10.375,-6.47875 22.9,-9.64625 37.575,-9.50375 l 54,0.21875 c -4.0375,3.16625 -6.4875,5.865 -7.35,8.09875 -0.8625,2.2325 -1.3,7.0175 -1.3,14.35875 l 0,106.6875 c 0,7.3425 0.4,12.09875 1.1875,14.255 0.8,2.16125 3.2875,4.9675 7.4625,8.4225"
           style="fill:#000000;fill-opacity:1;fill-rule:nonzero;stroke:#000000;stroke-width:2;stroke-miterlimit:4;stroke-opacity:1;stroke-dasharray:none"
           id="path4159"
           inkscape:connector-curvature="0" />
      </g>
      <g
         transform="matrix(1.25,0,0,-1.25,-204.86,2262.8121)"
         style="display:inline"
         id="g4161">
        <path
           d="m 347.722,831.457 c 45.647,-1.832 85.591,-25.965 109.41,-61.891 l -86.018,-0.074 c -13.1,24.042 -23.392,45.595 -23.392,61.965 z m 121.363,-84.021 c 7.249,-16.918 11.267,-35.572 11.267,-55.167 0,-75.054 -58.883,-136.231 -132.63,-139.194 122.944,38.055 73.901,125.957 33.318,198.517 l 88.045,-4.156"
           style="fill:#000000;fill-opacity:1;fill-rule:evenodd;stroke:none"
           id="path4163"
           inkscape:connector-curvature="0" />
        <path
           d="m 308.228,652.562 1.951,-21.242 -53.011,-19.057 2.084,22.691 48.976,17.608"
           style="fill:#000000;fill-opacity:1;fill-rule:evenodd;stroke:none"
           id="path4165"
           inkscape:connector-curvature="0" />
        <path
           d="m 302.704,712.741 1.95,-21.239 -41.584,-14.951 2.083,22.69 37.551,13.5"
           style="fill:#000000;fill-opacity:1;fill-rule:evenodd;stroke:none"
           id="path4167"
           inkscape:connector-curvature="0" />
        <path
           d="m 270.337,755.718 28.422,0 0.371,-4.036 -30.159,-10.843 1.366,14.879"
           style="fill:#000000;fill-opacity:1;fill-rule:evenodd;stroke:none"
           id="path4169"
           inkscape:connector-curvature="0" />
        <path
           d="m 284.548,768.643 -14.211,0 c 0,7.91 6.362,14.322 14.211,14.322 7.848,0 14.209,-6.412 14.209,-14.322 l -14.209,0"
           style="fill:#000000;fill-opacity:1;fill-rule:evenodd;stroke:none"
           id="path4171"
           inkscape:connector-curvature="0" />
        <path
           d="m 305.466,682.653 1.95,-21.242 -47.295,-17.004 2.081,22.69 43.264,15.556"
           style="fill:#000000;fill-opacity:1;fill-rule:evenodd;stroke:none"
           id="path4173"
           inkscape:connector-curvature="0" />
        <path
           d="m 299.941,742.832 1.951,-21.24 -35.871,-12.897 2.083,22.691 31.837,11.446"
           style="fill:#000000;fill-opacity:1;fill-rule:evenodd;stroke:none"
           id="path4175"
           inkscape:connector-curvature="0" />
        <path
           d="m 263.496,759.058 42.1055,0 0,6.68086 -42.1055,0 0,-6.68086 z"
           style="fill:#000000;fill-opacity:1;fill-rule:evenodd;stroke:none"
           id="path4177"
           inkscape:connector-curvature="0" />
        <path
           d="m 342.117,831.583 c 1.113,0 2.232,-0.012 3.334,-0.04 -45.373,-6.524 -122.635,-34.197 -122.635,-139.274 0,-44.978 24.338,-68.974 60.515,-79.78 l 28.374,10.16 -0.108,8.831 16.821,11.495 17.033,-11.587 0.154,-27.609 -0.154,0 0,-50.79 c -1.102,-0.028 -2.221,-0.039 -3.334,-0.039 -76.338,0 -138.229,62.376 -138.229,139.319 0,76.949 61.891,139.314 138.229,139.314"
           style="fill:#000000;fill-opacity:1;fill-rule:evenodd;stroke:none"
           id="path4179"
           inkscape:connector-curvature="0" />
        <path
           sodipodi:nodetypes="cccc"
           d="m 1166.368,722.21803 0,40.2696 -855.152,0.0954 z"
           style="fill:#000000;fill-opacity:1;fill-rule:evenodd;stroke:none"
           id="path4181"
           inkscape:connector-curvature="0" />
        <path
           d="m 349.02,655.92 18.274,20.043 -18.274,-11.088 -32.835,23.88 32.835,-32.835"
           style="fill:#000000;fill-opacity:1;fill-rule:evenodd;stroke:none;display:inline"
           id="path4183"
           inkscape:connector-curvature="0" />
      </g>
    </g>
  </g>
  <g
     inkscape:groupmode="layer"
     id="layer4"
     inkscape:label="A">
    <g
       id="g4535"
       transform="matrix(0.22073602,0,0,0.22073602,0.86783894,0.75411858)">
      <g
         style="display:inline"
         transform="matrix(1.25,0,0,-1.25,-204.86,1089.4788)"
         inkscape:label="Lighthouse"
         id="g3012">
        <g
           style="fill:#001a30;fill-opacity:1"
           id="g4693">
          <path
             inkscape:connector-curvature="0"
             id="path3026"
             style="fill:#001a30;fill-opacity:1;fill-rule:evenodd;stroke:none"
             d="m 305.466,682.653 1.95,-21.242 -47.295,-17.004 2.081,22.69 43.264,15.556" />
          <path
             inkscape:connector-curvature="0"
             id="path3028"
             style="fill:#001a30;fill-opacity:1;fill-rule:evenodd;stroke:none"
             d="m 299.941,742.832 1.951,-21.24 -35.871,-12.897 2.083,22.691 31.837,11.446" />
          <path
             inkscape:connector-curvature="0"
             id="path3030"
             style="fill:#001a30;fill-opacity:1;fill-rule:evenodd;stroke:none"
             d="m 263.496,759.058 42.1055,0 0,6.68086 -42.1055,0 0,-6.68086 z" />
        </g>
        <path
           sodipodi:nodetypes="cccc"
           d="m 1166.368,722.21803 0,40.2696 -855.152,0.0954 z"
           style="fill:#001a30;fill-opacity:1;fill-rule:evenodd;stroke:none"
           id="path3036"
           inkscape:connector-curvature="0" />
        <path
           d="m 349.02,655.92 18.274,20.043 -18.274,-11.088 -32.835,23.88 32.835,-32.835"
           style="fill:#007ac8;fill-opacity:0.34509804;fill-rule:evenodd;stroke:none;display:inline"
           id="path3034"
           inkscape:connector-curvature="0" />
        <path
           d="m 347.722,831.457 c 45.647,-1.832 85.591,-25.965 109.41,-61.891 l -86.018,-0.074 c -13.1,24.042 -23.392,45.595 -23.392,61.965 z m 121.363,-84.021 c 7.249,-16.918 11.267,-35.572 11.267,-55.167 0,-75.054 -58.883,-136.231 -132.63,-139.194 122.944,38.055 73.901,125.957 33.318,198.517 l 88.045,-4.156"
           style="fill:#00488c;fill-opacity:1;fill-rule:evenodd;stroke:none;display:inline"
           id="path3016"
           inkscape:connector-curvature="0" />
        <g
           style="fill:#00488c;fill-opacity:1;display:inline"
           id="g4687">
          <path
             inkscape:connector-curvature="0"
             id="path3018"
             style="fill:#00488c;fill-opacity:1;fill-rule:evenodd;stroke:none"
             d="m 308.228,652.562 1.951,-21.242 -53.011,-19.057 2.084,22.691 48.976,17.608" />
          <path
             inkscape:connector-curvature="0"
             id="path3020"
             style="fill:#00488c;fill-opacity:1;fill-rule:evenodd;stroke:none"
             d="m 302.704,712.741 1.95,-21.239 -41.584,-14.951 2.083,22.69 37.551,13.5" />
          <path
             inkscape:connector-curvature="0"
             id="path3022"
             style="fill:#00488c;fill-opacity:1;fill-rule:evenodd;stroke:none"
             d="m 270.337,755.718 28.422,0 0.371,-4.036 -30.159,-10.843 1.366,14.879" />
          <path
             inkscape:connector-curvature="0"
             id="path3024"
             style="fill:#00488c;fill-opacity:1;fill-rule:evenodd;stroke:none"
             d="m 284.548,768.643 -14.211,0 c 0,7.91 6.362,14.322 14.211,14.322 7.848,0 14.209,-6.412 14.209,-14.322 l -14.209,0" />
        </g>
        <path
           d="m 342.117,831.583 c 1.113,0 2.232,-0.012 3.334,-0.04 -45.373,-6.524 -122.635,-34.197 -122.635,-139.274 0,-44.978 24.338,-68.974 60.515,-79.78 l 28.374,10.16 -0.108,8.831 16.821,11.495 17.033,-11.587 0.154,-27.609 -0.154,0 0,-50.79 c -1.102,-0.028 -2.221,-0.039 -3.334,-0.039 -76.338,0 -138.229,62.376 -138.229,139.319 0,76.949 61.891,139.314 138.229,139.314"
           style="fill:#001a30;fill-opacity:1;fill-rule:evenodd;stroke:none"
           id="path3032"
           inkscape:connector-curvature="0" />
        <g
           transform="translate(-0.80200001,0)"
           style="fill:#00488c;fill-opacity:1;stroke:#00488c;stroke-width:1.60000002;stroke-linejoin:round;stroke-miterlimit:4;stroke-opacity:1;stroke-dasharray:none"
           id="g3096">
          <path
             inkscape:connector-curvature="0"
             id="path3038"
             style="fill:#00488c;fill-opacity:1;fill-rule:nonzero;stroke:#00488c;stroke-width:1.60000002;stroke-linejoin:round;stroke-miterlimit:4;stroke-opacity:1;stroke-dasharray:none"
             d="m 598.651,610.138 c 0,-9.215 -3.743,-17.452 -11.228,-24.706 -9.334,-8.988 -22.06,-13.477 -38.184,-13.477 -10.944,0 -21.657,1.899 -32.139,5.699 l -5.529,22.635 c 12.325,-9.677 25.689,-14.512 40.083,-14.512 7.722,0 14.201,1.787 19.442,5.354 5.24,3.573 7.858,8.005 7.858,13.303 0,5.071 -2.013,9.39 -6.049,12.958 -3.454,2.996 -11.256,7.258 -23.41,12.787 -12.15,5.53 -20.529,10.369 -25.136,14.513 -6.337,5.76 -9.503,12.787 -9.503,21.081 0,9.787 4.115,17.622 12.353,23.496 8.236,5.874 19.266,8.809 33.089,8.809 9.096,0 18.368,-1.324 27.815,-3.97 l 0,-20.736 c -8.18,7.949 -17.797,11.923 -28.855,11.923 -7.14,0 -12.929,-1.583 -17.362,-4.754 -4.438,-3.166 -6.654,-7.282 -6.654,-12.353 0,-4.49 1.758,-8.261 5.269,-11.313 3.516,-3.053 10.741,-7.112 21.686,-12.183 13.014,-5.987 21.885,-10.883 26.605,-14.687 6.564,-5.18 9.849,-11.805 9.849,-19.867" />
          <path
             inkscape:connector-curvature="0"
             id="path3040"
             style="fill:#00488c;fill-opacity:1;fill-rule:nonzero;stroke:#00488c;stroke-width:1.60000002;stroke-linejoin:round;stroke-miterlimit:4;stroke-opacity:1;stroke-dasharray:none"
             d="m 700.238,575.064 -30.409,0 c 3.223,2.42 5.212,4.551 5.959,6.394 0.751,1.843 1.125,5.699 1.125,11.573 l 0,32.309 c 0,7.373 -1.154,12.556 -3.455,15.553 -3.918,5.184 -9.792,7.773 -17.627,7.773 -7.599,0 -13.416,-2.42 -17.447,-7.259 -1.498,-1.724 -2.42,-3.426 -2.764,-5.094 -0.345,-1.673 -0.52,-4.981 -0.52,-9.933 l 0,-33.349 c 0,-5.874 0.345,-9.702 1.035,-11.488 0.694,-1.786 2.708,-3.946 6.049,-6.479 l -30.405,0 c 3.227,2.533 5.184,4.693 5.869,6.479 0.695,1.786 1.04,5.614 1.04,11.488 l 0,84.145 c 0,5.987 -0.317,9.815 -0.95,11.488 -0.629,1.668 -2.618,3.828 -5.959,6.479 l 12.608,0 c 4.952,0 8.525,1.153 10.713,3.454 l 0,-48.551 c 5.874,7.722 14.975,11.578 27.3,11.578 11.979,0 20.788,-3.974 26.435,-11.923 2.992,-4.144 4.49,-10.42 4.49,-18.832 l 0,-37.838 c 0,-5.756 0.345,-9.56 1.035,-11.403 0.694,-1.843 2.651,-4.031 5.878,-6.564" />
          <path
             inkscape:connector-curvature="0"
             id="path3042"
             style="fill:#00488c;fill-opacity:1;fill-rule:nonzero;stroke:#00488c;stroke-width:1.60000002;stroke-linejoin:round;stroke-miterlimit:4;stroke-opacity:1;stroke-dasharray:none"
             d="m 740.316,681.666 c 0,-3.223 -1.091,-5.931 -3.279,-8.119 -2.188,-2.188 -4.896,-3.285 -8.124,-3.285 -3.109,0 -5.755,1.097 -7.948,3.285 -2.188,2.188 -3.28,4.896 -3.28,8.119 0,3.109 1.12,5.76 3.37,7.948 2.244,2.188 4.981,3.284 8.203,3.284 2.997,0 5.591,-1.125 7.779,-3.369 2.188,-2.249 3.279,-4.868 3.279,-7.863 z m 4.15,-106.602 -30.235,0 c 3.223,2.533 5.179,4.693 5.874,6.479 0.69,1.786 1.035,5.614 1.035,11.488 l 0,48.207 c 0,5.873 -0.345,9.701 -1.035,11.487 -0.695,1.787 -2.651,3.946 -5.874,6.479 l 12.612,0 c 4.953,0 8.521,1.153 10.709,3.455 l 0,-69.628 c 0,-5.874 0.345,-9.702 1.04,-11.488 0.69,-1.786 2.646,-3.946 5.874,-6.479" />
          <path
             inkscape:connector-curvature="0"
             id="path3044"
             style="fill:#00488c;fill-opacity:1;fill-rule:nonzero;stroke:#00488c;stroke-width:1.60000002;stroke-linejoin:round;stroke-miterlimit:4;stroke-opacity:1;stroke-dasharray:none"
             d="m 852.796,618.431 c 0,-13.132 -4.177,-24.043 -12.527,-32.739 -8.351,-8.7 -18.803,-13.047 -31.36,-13.047 -4.721,0 -9.328,0.808 -13.822,2.419 l -9.844,14.857 c 7.141,-3.454 13.936,-5.183 20.387,-5.183 9.097,0 16.124,2.792 21.076,8.355 4.953,5.557 7.429,13.359 7.429,23.439 0,9.848 -2.562,17.792 -7.689,23.869 -5.122,6.077 -11.776,9.13 -19.951,9.13 -8.871,0 -15.954,-3.285 -21.252,-9.877 -2.996,-3.686 -4.494,-9.333 -4.494,-16.932 l 0,-67.326 c 0,-5.066 0.232,-8.407 0.69,-10.047 0.808,-3.114 2.882,-5.647 6.219,-7.603 l -30.235,0 c 3.341,1.956 5.416,4.489 6.219,7.603 0.463,1.494 0.695,4.835 0.695,10.019 l 0,85.87 c 0,5.873 -0.345,9.701 -1.04,11.487 -0.69,1.787 -2.646,3.946 -5.874,6.479 l 12.613,0 c 4.953,0 8.525,1.153 10.713,3.455 l 0,-14.168 c 7.254,8.757 17.277,13.133 30.065,13.133 11.975,0 22.111,-4.206 30.405,-12.613 7.717,-7.83 11.577,-18.023 11.577,-30.58" />
        </g>
        <g
           transform="translate(-0.80200001,0)"
           id="g3091"
           style="fill:#001a30;fill-opacity:1;stroke:#001a30;stroke-width:1.60000002;stroke-linecap:butt;stroke-linejoin:round;stroke-miterlimit:4;stroke-opacity:1;stroke-dasharray:none;display:inline">
          <path
             inkscape:connector-curvature="0"
             id="path3046"
             style="fill:#001a30;fill-opacity:1;fill-rule:nonzero;stroke:#001a30;stroke-width:1.60000002;stroke-linecap:butt;stroke-linejoin:round;stroke-miterlimit:4;stroke-opacity:1;stroke-dasharray:none"
             d="m 976.32,575.064 c -8.983,-0.69 -14.569,-1.035 -16.757,-1.035 -5.184,0 -9.65,1.21 -13.392,3.625 -3.739,2.391 -8.662,7.23 -14.768,14.456 -11.63,13.794 -22.286,28.883 -31.96,45.295 20.269,3.459 30.405,12.126 30.405,26.005 0,5.988 -2.041,10.827 -6.134,14.569 -4.087,3.715 -9.413,5.586 -15.977,5.586 -3.573,0 -7.835,-0.458 -12.788,-1.38 l 0,-83.885 c 0,-6.649 0.231,-10.996 0.69,-13.071 1.04,-4.721 3.516,-8.09 7.429,-10.165 l -34.554,0 c 3.918,2.075 6.394,5.472 7.429,10.193 0.463,2.075 0.694,6.451 0.694,13.133 l 0,73.427 c 0,6.682 -0.231,11.058 -0.694,13.133 -1.035,4.721 -3.511,8.118 -7.429,10.193 l 26.435,0 c 1.843,0 4.551,0 8.119,0 3.573,0 6.28,0 8.123,0 11.635,0 20.618,-2.363 26.951,-7.055 8.057,-5.988 12.093,-13.738 12.093,-23.27 0,-6.993 -2.765,-13.416 -8.289,-19.205 -5.529,-5.788 -12.613,-9.791 -21.251,-11.979 13.591,-18.255 24.441,-31.648 32.559,-40.14 8.124,-8.496 15.812,-14.63 23.066,-18.43" />
          <path
             inkscape:connector-curvature="0"
             id="path3048"
             style="fill:#001a30;fill-opacity:1;fill-rule:nonzero;stroke:#001a30;stroke-width:1.60000002;stroke-linecap:butt;stroke-linejoin:round;stroke-miterlimit:4;stroke-opacity:1;stroke-dasharray:none"
             d="m 1058.22,594.416 -9.85,-17.452 c -7.49,-2.878 -15.9,-4.319 -25.23,-4.319 -15.2,0 -27.61,4.149 -37.231,12.442 -9.617,8.289 -14.428,19.002 -14.428,32.134 0,13.592 4.957,24.881 14.862,33.865 7.717,7.027 17.857,10.538 30.407,10.538 11.98,0 21.88,-3.743 29.72,-11.228 7.83,-7.49 11.75,-16.994 11.75,-28.51 l 0,-2.94 -67.042,0 c 0.463,-10.651 3.917,-19.001 10.372,-25.078 6.45,-6.078 15.14,-9.13 26.09,-9.13 11.4,0 21.59,3.227 30.58,9.678 z m -19.18,35.938 c -2.53,13.591 -10.25,20.387 -23.15,20.387 -13.02,0 -21.026,-6.796 -24.018,-20.387 l 47.168,0" />
          <path
             inkscape:connector-curvature="0"
             id="path3050"
             style="fill:#001a30;fill-opacity:1;fill-rule:nonzero;stroke:#001a30;stroke-width:1.60000002;stroke-linecap:butt;stroke-linejoin:round;stroke-miterlimit:4;stroke-opacity:1;stroke-dasharray:none"
             d="m 1166.37,537.746 -30.23,0 c 3.33,2.764 5.32,5.009 5.96,6.738 0.63,1.725 0.95,5.53 0.95,11.404 l 0,88.284 c -8.33,2.419 -15.15,3.63 -20.45,3.63 -9.59,0 -17.34,-2.822 -23.24,-8.493 -5.9,-5.647 -8.84,-13.104 -8.84,-22.347 0,-9.589 3.08,-17.362 9.28,-23.298 6.19,-5.959 14.19,-8.926 24.01,-8.926 5.1,0 9.88,1.039 14.4,3.114 l -8.81,-13.133 c -3.46,-1.385 -7.49,-2.074 -12.1,-2.074 -13.25,0 -24.07,3.86 -32.48,11.578 -8.41,7.716 -12.61,17.565 -12.61,29.544 0,7.717 1.87,14.999 5.61,21.856 3.75,6.853 8.84,12.235 15.29,16.153 8.3,5.183 18.32,7.717 30.06,7.603 l 43.2,-0.175 c -3.23,-2.533 -5.19,-4.692 -5.88,-6.479 -0.69,-1.786 -1.04,-5.614 -1.04,-11.487 l 0,-85.35 c 0,-5.874 0.32,-9.679 0.95,-11.404 0.64,-1.729 2.63,-3.974 5.97,-6.738" />
        </g>
      </g>
      <g
         transform="translate(0,-5e-5)"
         style="display:inline"
         inkscape:label="Bird"
         id="layer5" />
      <g
         transform="translate(0,-5e-5)"
         style="opacity:0.25114154;display:none"
         inkscape:label="Guides"
         id="layer3-1">
        <path
           sodipodi:nodetypes="ccccc"
           inkscape:connector-curvature="0"
           id="rect3102"
           d="m 311.216,-762.58283 903.46,42.6473 0,224.65671 -1050.788,0 z"
           style="fill:#ff6600;fill-opacity:1;stroke:none"
           transform="matrix(1.25,0,0,1.25,-204.86,1089.4788)" />
        <rect
           y="-0.59926307"
           x="1253.1056"
           height="478.67242"
           width="74.989029"
           id="rect3875"
           style="fill:#008000;fill-opacity:1;stroke:none" />
        <rect
           y="127.5537"
           x="250.04417"
           height="8.7317019"
           width="128.91167"
           id="rect3877"
           style="fill:#ff00ff;fill-opacity:1;stroke:none" />
        <rect
           transform="matrix(0.99880544,0.04886397,-0.04886397,0.99880544,0,0)"
           style="fill:#ff00ff;fill-opacity:1;stroke:none"
           id="rect3880"
           width="128.91167"
           height="8.7317019"
           x="267.45135"
           y="127.80371" />
      </g>
    </g>
  </g>
</svg>
