<?xml version="1.0" encoding="UTF-8" standalone="no"?>
<!-- Created with Inkscape (http://www.inkscape.org/) -->

<svg
   xmlns:dc="http://purl.org/dc/elements/1.1/"
   xmlns:cc="http://creativecommons.org/ns#"
   xmlns:rdf="http://www.w3.org/1999/02/22-rdf-syntax-ns#"
   xmlns:svg="http://www.w3.org/2000/svg"
   xmlns="http://www.w3.org/2000/svg"
   xmlns:xlink="http://www.w3.org/1999/xlink"
   xmlns:sodipodi="http://sodipodi.sourceforge.net/DTD/sodipodi-0.dtd"
   xmlns:inkscape="http://www.inkscape.org/namespaces/inkscape"
   id="svg3004"
   version="1.1"
   inkscape:version="0.48.4 r9939"
   width="300"
   height="180"
   xml:space="preserve"
   sodipodi:docname="logo-wide.svg"><metadata
     id="metadata3010"><rdf:RDF><cc:Work
         rdf:about=""><dc:format>image/svg+xml</dc:format><dc:type
           rdf:resource="http://purl.org/dc/dcmitype/StillImage" /><dc:title /></cc:Work></rdf:RDF></metadata><defs
     id="defs3008"><linearGradient
       id="linearGradient3971"><stop
         id="stop3973"
         offset="0"
         style="stop-color:#001a30;stop-opacity:1;" /><stop
         style="stop-color:#001a30;stop-opacity:0.95686275;"
         offset="0.5"
         id="stop3977" /><stop
         id="stop3975"
         offset="1"
         style="stop-color:#001a30;stop-opacity:0.03137255;" /></linearGradient><linearGradient
       id="linearGradient3963"><stop
         style="stop-color:#000000;stop-opacity:1;"
         offset="0"
         id="stop3965" /><stop
         style="stop-color:#000000;stop-opacity:0;"
         offset="1"
         id="stop3967" /></linearGradient><linearGradient
       id="linearGradient4157"><stop
         id="stop4159"
         offset="0"
         style="stop-color:#ff9a40;stop-opacity:1;" /><stop
         id="stop4161"
         offset="1"
         style="stop-color:#fffe81;stop-opacity:0;" /></linearGradient><linearGradient
       id="linearGradient4091"><stop
         id="stop4093"
         offset="0"
         style="stop-color:#e86600;stop-opacity:1;" /><stop
         id="stop4095"
         offset="1"
         style="stop-color:#eeff23;stop-opacity:0.2682927;" /></linearGradient><linearGradient
       id="linearGradient4025"><stop
         id="stop4027"
         offset="0"
         style="stop-color:#001a30;stop-opacity:1;" /><stop
         id="stop4029"
         offset="1"
         style="stop-color:#001a30;stop-opacity:0;" /></linearGradient><linearGradient
       id="linearGradient3959"><stop
         style="stop-color:#efff2c;stop-opacity:1;"
         offset="0"
         id="stop3961" /><stop
         style="stop-color:#f2ff55;stop-opacity:0;"
         offset="1"
         id="stop3963" /></linearGradient><linearGradient
       id="linearGradient5594"><stop
         style="stop-color:#fbeda0;stop-opacity:1;"
         offset="0"
         id="stop5596" /><stop
         style="stop-color:#fbfbd5;stop-opacity:1;"
         offset="1"
         id="stop5598" /></linearGradient><linearGradient
       inkscape:collect="always"
       xlink:href="#linearGradient4091"
       id="linearGradient4097"
       gradientUnits="userSpaceOnUse"
       x1="206.80417"
       y1="80.044655"
       x2="726.83533"
       y2="80.044655" /><linearGradient
       id="linearGradient4025-3"><stop
         id="stop4027-2"
         offset="0"
         style="stop-color:#001a30;stop-opacity:1;" /><stop
         id="stop4029-2"
         offset="1"
         style="stop-color:#001a30;stop-opacity:0;" /></linearGradient><linearGradient
       inkscape:collect="always"
       xlink:href="#linearGradient4025-3"
       id="linearGradient3174"
       gradientUnits="userSpaceOnUse"
       gradientTransform="matrix(0.83458074,0,0,0.83458074,-83.047297,28.277322)"
       x1="206.80417"
       y1="80.044655"
       x2="868.73816"
       y2="80.044655" /><linearGradient
       inkscape:collect="always"
       xlink:href="#linearGradient3971"
       id="linearGradient3969"
       x1="69.34375"
       y1="50.015625"
       x2="300"
       y2="50.015625"
       gradientUnits="userSpaceOnUse" /></defs><sodipodi:namedview
     pagecolor="#ffffff"
     bordercolor="#666666"
     borderopacity="1"
     objecttolerance="10"
     gridtolerance="10"
     guidetolerance="10"
     inkscape:pageopacity="0"
     inkscape:pageshadow="2"
     inkscape:window-width="1200"
     inkscape:window-height="1797"
     id="namedview3006"
     showgrid="false"
     inkscape:zoom="2.4366667"
     inkscape:cx="150"
     inkscape:cy="90"
     inkscape:window-x="0"
     inkscape:window-y="27"
     inkscape:window-maximized="1"
     inkscape:current-layer="g3183"
     fit-margin-top="0"
     fit-margin-left="0"
     fit-margin-right="0"
     fit-margin-bottom="0"
     showborder="true" /><g
     style="display:none"
     inkscape:label="Beam &amp; Wave (hack)"
     id="g4068"
     inkscape:groupmode="layer"
     transform="translate(-123.7265,-46.48081)"><path
       inkscape:connector-curvature="0"
       id="path4072"
       style="fill:#00488c;fill-opacity:1;fill-rule:evenodd;stroke:none;display:inline"
       d="m 621.72697,-68.073382 c 79.44865,3.198685 141.39413,70.6449506 141.39413,148.827833 0,80.251819 -62.77392,145.666099 -141.39413,148.833569 191.45515,-59.43748 0,-216.324446 0,-297.661402" /><path
       sodipodi:nodetypes="cccc"
       d="m 820.90022,38.328453 0,-39.5234865 -373.47229,0 z"
       style="fill:#001a30;fill-opacity:1;fill-rule:evenodd;stroke:#ffffff;stroke-width:9.92917824;stroke-linecap:butt;stroke-linejoin:miter;stroke-miterlimit:4;stroke-opacity:1;stroke-dasharray:none;marker-start:none;display:inline"
       id="path4074"
       inkscape:connector-curvature="0" /><path
       inkscape:connector-curvature="0"
       id="path4116"
       d="m 661.59879,-70.230936 0,9.489626 c 53.51006,17.880193 93.03719,66.0712286 100.31866,122.643393 l 54.95667,0 0,-132.133019 -22.33446,0 -94.69505,0 -38.24582,0 z"
       style="fill:#ffffff;fill-opacity:1;fill-rule:evenodd;stroke:none;display:inline" /></g><g
     transform="translate(-123.7265,-46.48081)"
     inkscape:groupmode="layer"
     id="g3337"
     inkscape:label="Wave"
     style="display:inline"><path
       transform="translate(103.51408,9.01259)"
       inkscape:connector-curvature="0"
       id="path3981"
       style="fill:#00488c;fill-opacity:1;fill-rule:evenodd;stroke:none;display:inline"
       d="m 113.13075,37.549618 c 29.48845,1.183487 55.29271,16.773665 70.68004,39.982255 l -55.56856,0.04779 C 119.7795,62.048259 113.13075,48.124789 113.13075,37.5496 z m 78.4018,54.278466 c 4.68294,10.929206 7.27861,22.979896 7.27861,35.638476 0,48.48568 -38.03906,88.00669 -85.68041,89.92082 79.42315,-24.58394 47.74084,-81.36959 21.52379,-128.244114 l 56.87801,2.684818" /></g><g
     inkscape:groupmode="layer"
     id="layer2"
     inkscape:label="Beam (full)"
     style="display:none"
     transform="translate(-20.21242,-37.46822)"><path
       inkscape:connector-curvature="0"
       id="path3977"
       style="fill:url(#linearGradient3174);fill-opacity:1;fill-rule:evenodd;stroke:none;display:inline"
       d="m 641.98481,108.11916 0,-26.014588 -552.437318,-0.06166 z"
       sodipodi:nodetypes="cccc" /></g><g
     transform="translate(-20.21242,-37.46822)"
     style="display:inline"
     inkscape:label="Beam"
     id="g3183"
     inkscape:groupmode="layer"><path
       style="fill:url(#linearGradient3969);fill-opacity:1;fill-rule:evenodd;stroke:none;display:inline"
       d="M 69.34375 44.5625 L 300 55.46875 L 300 44.59375 L 69.34375 44.5625 z "
       transform="translate(20.21242,37.46822)"
       id="path3185" /></g><g
     inkscape:groupmode="layer"
     id="layer1"
     inkscape:label="Logo Left"
     style="display:inline"
     transform="translate(-20.21242,-37.46822)"><g
       id="g3969"
       style="fill:#001a30;fill-opacity:1;display:inline"
       transform="matrix(0.64601072,0,0,-0.64601072,-111.50139,574.67975)"><path
         d="m 305.466,682.653 1.95,-21.242 -47.295,-17.004 2.081,22.69 43.264,15.556"
         style="fill:#001a30;fill-opacity:1;fill-rule:evenodd;stroke:none"
         id="path3971"
         inkscape:connector-curvature="0" /><path
         d="m 299.941,742.832 1.951,-21.24 -35.871,-12.897 2.083,22.691 31.837,11.446"
         style="fill:#001a30;fill-opacity:1;fill-rule:evenodd;stroke:none"
         id="path3973"
         inkscape:connector-curvature="0" /><path
         d="m 263.496,759.058 42.1055,0 0,6.68086 -42.1055,0 0,-6.68086 z"
         style="fill:#001a30;fill-opacity:1;fill-rule:evenodd;stroke:none"
         id="path3975"
         inkscape:connector-curvature="0" /></g><path
       inkscape:connector-curvature="0"
       id="path3979"
       style="fill:#a7d1ec;fill-opacity:1;fill-rule:evenodd;stroke:none;display:inline"
       d="m 113.96927,150.94841 11.8052,-12.94801 -11.8052,7.16299 -21.211762,-15.42675 21.211762,21.21177" /><g
       id="g3983"
       style="fill:#00488c;fill-opacity:1;display:inline"
       transform="matrix(0.64601072,0,0,-0.64601072,-111.50139,574.67975)"><path
         d="m 308.228,652.562 1.951,-21.242 -53.011,-19.057 2.084,22.691 48.976,17.608"
         style="fill:#00488c;fill-opacity:1;fill-rule:evenodd;stroke:none"
         id="path3985"
         inkscape:connector-curvature="0" /><path
         d="m 302.704,712.741 1.95,-21.239 -41.584,-14.951 2.083,22.69 37.551,13.5"
         style="fill:#00488c;fill-opacity:1;fill-rule:evenodd;stroke:none"
         id="path3987"
         inkscape:connector-curvature="0" /><path
         d="m 270.337,755.718 28.422,0 0.371,-4.036 -30.159,-10.843 1.366,14.879"
         style="fill:#00488c;fill-opacity:1;fill-rule:evenodd;stroke:none"
         id="path3989"
         inkscape:connector-curvature="0" /><path
         d="m 284.548,768.643 -14.211,0 c 0,7.91 6.362,14.322 14.211,14.322 7.848,0 14.209,-6.412 14.209,-14.322 l -14.209,0"
         style="fill:#00488c;fill-opacity:1;fill-rule:evenodd;stroke:none"
         id="path3991"
         inkscape:connector-curvature="0" /></g><path
       inkscape:connector-curvature="0"
       id="path3993"
       style="fill:#001a30;fill-opacity:1;fill-rule:evenodd;stroke:none;display:inline"
       d="m 109.50987,37.468217 c 0.719,0 1.44188,0.0073 2.15379,0.02587 -29.311447,4.214578 -79.223528,22.091634 -79.223528,89.972493 0,29.05628 15.722614,44.55795 39.093351,51.53875 l 18.329893,-6.56348 -0.06979,-5.70491 10.866554,-7.4259 11.0035,7.48533 0.0995,17.8357 -0.0995,0 0,32.81089 c -0.71191,0.0181 -1.43479,0.0253 -2.15379,0.0253 -49.315168,-10e-6 -89.297429,-40.29558 -89.297429,-90.00159 0,-49.709872 39.982261,-89.998331 89.297429,-89.998331" /><g
       transform="matrix(0.51680857,0,0,0.51680857,-5.6279861,11.627721)"
       style="display:inline"
       inkscape:label="Bird"
       id="g4013" /></g></svg>