<?xml version="1.0" encoding="UTF-8" standalone="no"?>
<!-- Created with Inkscape (http://www.inkscape.org/) -->

<svg
   xmlns:dc="http://purl.org/dc/elements/1.1/"
   xmlns:cc="http://creativecommons.org/ns#"
   xmlns:rdf="http://www.w3.org/1999/02/22-rdf-syntax-ns#"
   xmlns:svg="http://www.w3.org/2000/svg"
   xmlns="http://www.w3.org/2000/svg"
   xmlns:sodipodi="http://sodipodi.sourceforge.net/DTD/sodipodi-0.dtd"
   xmlns:inkscape="http://www.inkscape.org/namespaces/inkscape"
   id="svg3004"
   version="1.1"
   inkscape:version="0.48.4 r9939"
   width="1712.5"
   height="1712.5"
   xml:space="preserve"
   sodipodi:docname="shipreq3.eps"><metadata
     id="metadata3010"><rdf:RDF><cc:Work
         rdf:about=""><dc:format>image/svg+xml</dc:format><dc:type
           rdf:resource="http://purl.org/dc/dcmitype/StillImage" /><dc:title></dc:title></cc:Work></rdf:RDF></metadata><defs
     id="defs3008" /><sodipodi:namedview
     pagecolor="#ffffff"
     bordercolor="#666666"
     borderopacity="1"
     objecttolerance="10"
     gridtolerance="10"
     guidetolerance="10"
     inkscape:pageopacity="0"
     inkscape:pageshadow="2"
     inkscape:window-width="1920"
     inkscape:window-height="1058"
     id="namedview3006"
     showgrid="false"
     inkscape:zoom="0.49693431"
     inkscape:cx="584.58431"
     inkscape:cy="856.25"
     inkscape:window-x="1200"
     inkscape:window-y="0"
     inkscape:window-maximized="1"
     inkscape:current-layer="g3012" /><g
     id="g3012"
     inkscape:groupmode="layer"
     inkscape:label="Layer 1"
     transform="matrix(1.25,0,0,-1.25,0,1712.5)"><g
       id="g3014"
       transform="scale(0.1,0.1)"><path
         d="m 3477.22,8314.57 c 456.47,-18.32 855.91,-259.65 1094.1,-618.91 l -860.18,-0.74 c -131,240.42 -233.92,455.95 -233.92,619.65 z m 1213.63,-840.21 c 72.49,-169.18 112.67,-355.72 112.67,-551.67 0,-750.54 -588.83,-1362.31 -1326.3,-1391.94 1229.44,380.55 739.01,1259.57 333.18,1985.17 l 880.45,-41.56"
         style="fill:#006399;fill-opacity:1;fill-rule:evenodd;stroke:none"
         id="path3016" /><path
         d="m 3082.28,6525.62 19.51,-212.42 -530.11,-190.57 20.84,226.91 489.76,176.08"
         style="fill:#006399;fill-opacity:1;fill-rule:evenodd;stroke:none"
         id="path3018" /><path
         d="m 3027.04,7127.41 19.5,-212.39 -415.84,-149.51 20.83,226.9 375.51,135"
         style="fill:#006399;fill-opacity:1;fill-rule:evenodd;stroke:none"
         id="path3020" /><path
         d="m 2703.37,7557.18 284.22,0 3.71,-40.36 -301.59,-108.43 13.66,148.79"
         style="fill:#006399;fill-opacity:1;fill-rule:evenodd;stroke:none"
         id="path3022" /><path
         d="m 2845.48,7686.43 -142.11,0 c 0,79.1 63.62,143.22 142.11,143.22 78.48,0 142.09,-64.12 142.09,-143.22 l -142.09,0"
         style="fill:#006399;fill-opacity:1;fill-rule:evenodd;stroke:none"
         id="path3024" /><path
         d="m 3054.66,6826.53 19.5,-212.42 -472.95,-170.04 20.81,226.9 432.64,155.56"
         style="fill:#000d29;fill-opacity:1;fill-rule:evenodd;stroke:none"
         id="path3026" /><path
         d="m 2999.41,7428.32 19.51,-212.4 -358.71,-128.97 20.83,226.91 318.37,114.46"
         style="fill:#000d29;fill-opacity:1;fill-rule:evenodd;stroke:none"
         id="path3028" /><path
         d="m 2634.96,7590.58 421.055,0 0,66.8086 -421.055,0 0,-66.8086 z"
         style="fill:#000d29;fill-opacity:1;fill-rule:evenodd;stroke:none"
         id="path3030" /><path
         d="m 3421.17,8315.83 c 11.13,0 22.32,-0.12 33.34,-0.4 -453.73,-65.24 -1226.35,-341.97 -1226.35,-1392.74 0,-449.78 243.38,-689.74 605.15,-797.8 l 283.74,101.6 -1.08,88.31 168.21,114.95 170.33,-115.87 1.54,-276.09 -1.54,0 0,-507.9 c -11.02,-0.28 -22.21,-0.39 -33.34,-0.39 -763.38,0 -1382.29,623.76 -1382.29,1393.19 0,769.49 618.91,1393.14 1382.29,1393.14"
         style="fill:#000d29;fill-opacity:1;fill-rule:evenodd;stroke:none"
         id="path3032" /><path
         d="m 3490.2,6559.2 182.74,200.43 -182.74,-110.88 -328.35,238.8 328.35,-328.35"
         style="fill:#006399;fill-opacity:1;fill-rule:evenodd;stroke:none"
         id="path3034" /><path
         d="m 3112.16,7625.83 8442.44,-398.5 0,397.55 -8442.44,0.95"
         style="fill:#000d29;fill-opacity:1;fill-rule:evenodd;stroke:none"
         id="path3036" /><path
         d="m 5986.51,6101.38 c 0,-92.15 -37.43,-174.52 -112.28,-247.06 -93.34,-89.88 -220.6,-134.77 -381.84,-134.77 -109.44,0 -216.57,18.99 -321.39,56.99 l -55.29,226.35 c 123.25,-96.77 256.89,-145.12 400.83,-145.12 77.22,0 142.01,17.87 194.42,53.54 52.4,35.73 78.58,80.05 78.58,133.03 0,50.71 -20.13,93.9 -60.49,129.58 -34.54,29.96 -112.56,72.58 -234.1,127.87 -121.5,55.3 -205.29,103.69 -251.36,145.13 -63.37,57.6 -95.03,127.87 -95.03,210.81 0,97.87 41.15,176.22 123.53,234.96 82.36,58.74 192.66,88.09 330.89,88.09 90.96,0 183.68,-13.24 278.15,-39.7 l 0,-207.36 c -81.8,79.49 -177.97,119.23 -288.55,119.23 -71.4,0 -129.29,-15.83 -173.62,-47.54 -44.38,-31.66 -66.54,-72.82 -66.54,-123.53 0,-44.9 17.58,-82.61 52.69,-113.13 35.16,-30.53 107.41,-71.12 216.86,-121.83 130.14,-59.87 218.85,-108.83 266.05,-146.87 65.64,-51.8 98.49,-118.05 98.49,-198.67"
         style="fill:#006399;fill-opacity:1;fill-rule:nonzero;stroke:none"
         id="path3038" /><path
         d="m 7002.38,5750.64 -304.09,0 c 32.23,24.2 52.12,45.51 59.59,63.94 7.51,18.43 11.25,56.99 11.25,115.73 l 0,323.09 c 0,73.73 -11.54,125.56 -34.55,155.53 -39.18,51.84 -97.92,77.73 -176.27,77.73 -75.99,0 -134.16,-24.2 -174.47,-72.59 -14.98,-17.24 -24.2,-34.26 -27.64,-50.94 -3.45,-16.73 -5.2,-49.81 -5.2,-99.33 l 0,-333.49 c 0,-58.74 3.45,-97.02 10.35,-114.88 6.94,-17.86 27.08,-39.46 60.49,-64.79 l -304.05,0 c 32.27,25.33 51.84,46.93 58.69,64.79 6.95,17.86 10.4,56.14 10.4,114.88 l 0,841.45 c 0,59.87 -3.17,98.15 -9.5,114.88 -6.29,16.68 -26.18,38.28 -59.59,64.79 l 126.08,0 c 49.52,0 85.25,11.53 107.13,34.54 l 0,-485.51 c 58.74,77.22 149.75,115.78 273,115.78 119.79,0 207.88,-39.74 264.35,-119.23 29.92,-41.44 44.9,-104.2 44.9,-188.32 l 0,-378.38 c 0,-57.56 3.45,-95.6 10.35,-114.03 6.94,-18.43 26.51,-40.31 58.78,-65.64"
         style="fill:#006399;fill-opacity:1;fill-rule:nonzero;stroke:none"
         id="path3040" /><path
         d="m 7403.16,6816.66 c 0,-32.23 -10.91,-59.31 -32.79,-81.19 -21.88,-21.88 -48.96,-32.85 -81.24,-32.85 -31.09,0 -57.55,10.97 -79.48,32.85 -21.88,21.88 -32.8,48.96 -32.8,81.19 0,31.09 11.2,57.6 33.7,79.48 22.44,21.88 49.81,32.84 82.03,32.84 29.97,0 55.91,-11.25 77.79,-33.69 21.88,-22.49 32.79,-48.68 32.79,-78.63 z m 41.5,-1066.02 -302.35,0 c 32.23,25.33 51.79,46.93 58.74,64.79 6.9,17.86 10.35,56.14 10.35,114.88 l 0,482.07 c 0,58.73 -3.45,97.01 -10.35,114.87 -6.95,17.87 -26.51,39.46 -58.74,64.79 l 126.12,0 c 49.53,0 85.21,11.53 107.09,34.55 l 0,-696.28 c 0,-58.74 3.45,-97.02 10.4,-114.88 6.9,-17.86 26.46,-39.46 58.74,-64.79"
         style="fill:#006399;fill-opacity:1;fill-rule:nonzero;stroke:none"
         id="path3042" /><path
         d="m 8527.96,6184.31 c 0,-131.32 -41.77,-240.43 -125.27,-327.39 -83.51,-87 -188.03,-130.47 -313.6,-130.47 -47.21,0 -93.28,8.08 -138.22,24.19 l -98.44,148.57 c 71.41,-34.54 139.36,-51.83 203.87,-51.83 90.97,0 161.24,27.92 210.76,83.55 49.53,55.57 74.29,133.59 74.29,234.39 0,98.48 -25.62,177.92 -76.89,238.69 -51.22,60.77 -117.76,91.3 -199.51,91.3 -88.71,0 -159.54,-32.85 -212.52,-98.77 -29.96,-36.86 -44.94,-93.33 -44.94,-169.32 l 0,-673.26 c 0,-50.66 2.32,-84.07 6.9,-100.47 8.08,-31.14 28.82,-56.47 62.19,-76.03 l -302.35,0 c 33.41,19.56 54.16,44.89 62.19,76.03 4.63,14.94 6.95,48.35 6.95,100.19 l 0,858.7 c 0,58.73 -3.45,97.01 -10.4,114.87 -6.9,17.87 -26.46,39.46 -58.74,64.79 l 126.13,0 c 49.53,0 85.25,11.53 107.13,34.55 l 0,-141.68 c 72.54,87.57 172.77,131.33 300.65,131.33 119.75,0 221.11,-42.06 304.05,-126.13 77.17,-78.3 115.77,-180.23 115.77,-305.8"
         style="fill:#006399;fill-opacity:1;fill-rule:nonzero;stroke:none"
         id="path3044" /><path
         d="m 9763.2,5750.64 c -89.83,-6.9 -145.69,-10.35 -167.57,-10.35 -51.84,0 -96.5,12.1 -133.92,36.25 -37.39,23.91 -86.62,72.3 -147.68,144.56 -116.3,137.94 -222.86,288.83 -319.6,452.95 202.69,34.59 304.05,121.26 304.05,260.05 0,59.88 -20.41,108.27 -61.34,145.69 -40.87,37.15 -94.13,55.86 -159.77,55.86 -35.73,0 -78.35,-4.58 -127.88,-13.8 l 0,-838.85 c 0,-66.49 2.31,-109.96 6.9,-130.71 10.4,-47.21 35.16,-80.9 74.29,-101.65 l -345.54,0 c 39.18,20.75 63.94,54.72 74.29,101.93 4.63,20.75 6.94,64.51 6.94,131.33 l 0,734.27 c 0,66.82 -2.31,110.58 -6.94,131.33 -10.35,47.21 -35.11,81.18 -74.29,101.93 l 264.35,0 c 18.43,0 45.51,0 81.19,0 35.73,0 62.8,0 81.23,0 116.35,0 206.18,-23.63 269.51,-70.55 80.57,-59.88 120.93,-137.38 120.93,-232.7 0,-69.93 -27.65,-134.16 -82.89,-192.05 -55.29,-57.88 -126.13,-97.91 -212.51,-119.79 135.91,-182.55 244.41,-316.48 325.59,-401.4 81.24,-84.96 158.12,-146.3 230.66,-184.3"
         style="fill:#000d29;fill-opacity:1;fill-rule:nonzero;stroke:none"
         id="path3046" /><path
         d="m 10582.2,5944.16 -98.5,-174.52 c -74.9,-28.78 -159,-43.19 -252.3,-43.19 -152,0 -276.1,41.49 -372.31,124.42 -96.17,82.89 -144.28,190.02 -144.28,321.34 0,135.92 49.57,248.81 148.62,338.65 77.17,70.27 178.57,105.38 304.07,105.38 119.8,0 218.8,-37.43 297.2,-112.28 78.3,-74.9 117.5,-169.94 117.5,-285.1 l 0,-29.4 -670.42,0 c 4.63,-106.51 39.17,-190.01 103.72,-250.78 64.5,-60.78 151.4,-91.3 260.9,-91.3 114,0 215.9,32.27 305.8,96.78 z m -191.8,359.38 c -25.3,135.91 -102.5,203.87 -231.5,203.87 -130.2,0 -210.26,-67.96 -240.18,-203.87 l 471.68,0"
         style="fill:#000d29;fill-opacity:1;fill-rule:nonzero;stroke:none"
         id="path3048" /><path
         d="m 11663.7,5377.46 -302.3,0 c 33.3,27.64 53.2,50.09 59.6,67.38 6.3,17.25 9.5,55.3 9.5,114.04 l 0,882.84 c -83.3,24.19 -151.5,36.3 -204.5,36.3 -95.9,0 -173.4,-28.22 -232.4,-84.93 -59,-56.47 -88.4,-131.04 -88.4,-223.47 0,-95.89 30.8,-173.62 92.8,-232.98 61.9,-59.59 141.9,-89.26 240.1,-89.26 51,0 98.8,10.39 144,31.14 l -88.1,-131.33 c -34.6,-13.85 -74.9,-20.74 -121,-20.74 -132.5,0 -240.7,38.6 -324.8,115.78 -84.1,77.16 -126.1,175.65 -126.1,295.44 0,77.17 18.7,149.99 56.1,218.56 37.5,68.53 88.4,122.35 152.9,161.53 83,51.83 183.2,77.17 300.6,76.03 l 432,-1.75 c -32.3,-25.33 -51.9,-46.92 -58.8,-64.79 -6.9,-17.86 -10.4,-56.14 -10.4,-114.87 l 0,-853.5 c 0,-58.74 3.2,-96.79 9.5,-114.04 6.4,-17.29 26.3,-39.74 59.7,-67.38"
         style="fill:#000d29;fill-opacity:1;fill-rule:nonzero;stroke:none"
         id="path3050" /></g></g></svg>