<?xml version="1.0" encoding="UTF-8" standalone="no"?>
<!DOCTYPE svg PUBLIC "-//W3C//DTD SVG 1.1//EN"
 "http://www.w3.org/Graphics/SVG/1.1/DTD/svg11.dtd">
<!-- Generated by graphviz version 2.38.0 (20140413.2041)
 -->
<!-- Title: G Pages: 1 -->
<svg width="1488pt" height="389pt"
 viewBox="0.00 0.00 1488.04 388.69" xmlns="http://www.w3.org/2000/svg" xmlns:xlink="http://www.w3.org/1999/xlink">
<g id="graph0" class="graph" transform="scale(1 1) rotate(0) translate(4 384.693)">
<title>G</title>
<polygon fill="white" stroke="none" points="-4,4 -4,-384.693 1484.04,-384.693 1484.04,4 -4,4"/>
<!-- vs1 -->
<g id="node1" class="node"><title>vs1</title>
<ellipse fill="none" stroke="black" cx="152.592" cy="-343.217" rx="98.9899" ry="37.4533"/>
<text text-anchor="middle" x="152.592" y="-354.517" font-family="Times,serif" font-size="14.00">View settings #1</text>
<text text-anchor="middle" x="152.592" y="-339.517" font-family="Times,serif" font-size="14.00">sort &amp; cols</text>
<text text-anchor="middle" x="152.592" y="-324.517" font-family="Times,serif" font-size="14.00">(data rep)</text>
</g>
<!-- sortColsEd -->
<g id="node2" class="node"><title>sortColsEd</title>
<ellipse fill="none" stroke="black" cx="93.5917" cy="-242.87" rx="93.6835" ry="18"/>
<text text-anchor="middle" x="93.5917" y="-239.17" font-family="Times,serif" font-size="14.00">Sort &amp; cols editor</text>
</g>
<!-- vs1&#45;&gt;sortColsEd -->
<g id="edge11" class="edge"><title>vs1&#45;&gt;sortColsEd</title>
<path fill="none" stroke="black" d="M131.124,-306.433C123.866,-294.333 115.904,-281.063 109.189,-269.869"/>
<polygon fill="black" stroke="black" points="112.03,-267.801 103.884,-261.026 106.027,-271.402 112.03,-267.801"/>
</g>
<!-- ro -->
<g id="node3" class="node"><title>ro</title>
<ellipse fill="none" stroke="black" cx="258.592" cy="-242.87" rx="53.0913" ry="18"/>
<text text-anchor="middle" x="258.592" y="-239.17" font-family="Times,serif" font-size="14.00">RO Table</text>
</g>
<!-- vs1&#45;&gt;ro -->
<g id="edge12" class="edge"><title>vs1&#45;&gt;ro</title>
<path fill="none" stroke="black" d="M189.071,-308.371C203.789,-294.716 220.396,-279.308 233.687,-266.977"/>
<polygon fill="black" stroke="black" points="236.14,-269.476 241.09,-260.108 231.378,-264.344 236.14,-269.476"/>
</g>
<!-- kb -->
<g id="node4" class="node"><title>kb</title>
<ellipse fill="none" stroke="black" cx="258.592" cy="-162" rx="83.3857" ry="18"/>
<text text-anchor="middle" x="258.592" y="-158.3" font-family="Times,serif" font-size="14.00">KB focus &amp; nav</text>
</g>
<!-- ro&#45;&gt;kb -->
<g id="edge13" class="edge"><title>ro&#45;&gt;kb</title>
<path fill="none" stroke="black" d="M258.592,-224.756C258.592,-214.731 258.592,-201.836 258.592,-190.425"/>
<polygon fill="black" stroke="black" points="262.092,-190.08 258.592,-180.08 255.092,-190.08 262.092,-190.08"/>
</g>
<!-- rw -->
<g id="node8" class="node"><title>rw</title>
<ellipse fill="none" stroke="black" cx="492.592" cy="-162" rx="55.7903" ry="18"/>
<text text-anchor="middle" x="492.592" y="-158.3" font-family="Times,serif" font-size="14.00">RW Table</text>
</g>
<!-- ro&#45;&gt;rw -->
<g id="edge15" class="edge"><title>ro&#45;&gt;rw</title>
<path fill="none" stroke="black" d="M289.902,-228.116C299.656,-224.018 310.501,-219.65 320.592,-216 360.84,-201.44 407.261,-187.287 441.726,-177.275"/>
<polygon fill="black" stroke="black" points="442.928,-180.571 451.565,-174.434 440.987,-173.845 442.928,-180.571"/>
</g>
<!-- txt -->
<g id="node5" class="node"><title>txt</title>
<ellipse fill="none" stroke="black" cx="1151.59" cy="-343.217" rx="152.056" ry="26.7407"/>
<text text-anchor="middle" x="1151.59" y="-347.017" font-family="Times,serif" font-size="14.00">Rich text parser &amp; data rep</text>
<text text-anchor="middle" x="1151.59" y="-332.017" font-family="Times,serif" font-size="14.00">(incl. refs &amp; markdown)</text>
</g>
<!-- txtPoly -->
<g id="node6" class="node"><title>txtPoly</title>
<ellipse fill="none" stroke="black" cx="1355.59" cy="-242.87" rx="124.402" ry="26.7407"/>
<text text-anchor="middle" x="1355.59" y="-246.67" font-family="Times,serif" font-size="14.00">Rich text variants</text>
<text text-anchor="middle" x="1355.59" y="-231.67" font-family="Times,serif" font-size="14.00">certain features on/off</text>
</g>
<!-- txt&#45;&gt;txtPoly -->
<g id="edge14" class="edge"><title>txt&#45;&gt;txtPoly</title>
<path fill="none" stroke="black" d="M1202.28,-317.78C1231.05,-303.912 1267.18,-286.494 1297.14,-272.051"/>
<polygon fill="black" stroke="black" points="1298.73,-275.167 1306.22,-267.671 1295.69,-268.861 1298.73,-275.167"/>
</g>
<!-- fieldCellRText -->
<g id="node12" class="node"><title>fieldCellRText</title>
<ellipse fill="#ddffdd" stroke="black" cx="703.592" cy="-242.87" rx="106.132" ry="26.7407"/>
<text text-anchor="middle" x="703.592" y="-246.67" font-family="Times,serif" font-size="14.00">Field cell renderer</text>
<text text-anchor="middle" x="703.592" y="-231.67" font-family="Times,serif" font-size="14.00">Text</text>
</g>
<!-- txt&#45;&gt;fieldCellRText -->
<g id="edge6" class="edge"><title>txt&#45;&gt;fieldCellRText</title>
<path fill="none" stroke="black" d="M1061.39,-321.505C1038.32,-316.285 1013.55,-310.744 990.592,-305.74 914.282,-289.111 894.914,-286.311 818.592,-269.74 809.538,-267.774 800.09,-265.695 790.67,-263.603"/>
<polygon fill="black" stroke="black" points="791.403,-260.181 780.881,-261.423 789.881,-267.013 791.403,-260.181"/>
</g>
<!-- fieldCellEText -->
<g id="node15" class="node"><title>fieldCellEText</title>
<ellipse fill="#ffdddd" stroke="black" cx="1121.59" cy="-242.87" rx="91.8478" ry="26.7407"/>
<text text-anchor="middle" x="1121.59" y="-246.67" font-family="Times,serif" font-size="14.00">Field cell editor</text>
<text text-anchor="middle" x="1121.59" y="-231.67" font-family="Times,serif" font-size="14.00">Text</text>
</g>
<!-- txt&#45;&gt;fieldCellEText -->
<g id="edge10" class="edge"><title>txt&#45;&gt;fieldCellEText</title>
<path fill="none" stroke="black" d="M1143.71,-316.377C1140.29,-305.173 1136.23,-291.865 1132.53,-279.727"/>
<polygon fill="black" stroke="black" points="1135.79,-278.422 1129.53,-269.878 1129.1,-280.464 1135.79,-278.422"/>
</g>
<!-- cellLock -->
<g id="node7" class="node"><title>cellLock</title>
<ellipse fill="none" stroke="black" cx="492.592" cy="-90" rx="66.0889" ry="18"/>
<text text-anchor="middle" x="492.592" y="-86.3" font-family="Times,serif" font-size="14.00">Cell locking</text>
</g>
<!-- filter -->
<g id="node9" class="node"><title>filter</title>
<ellipse fill="#dddddd" stroke="black" cx="405.592" cy="-18" rx="64.9885" ry="18"/>
<text text-anchor="middle" x="405.592" y="-14.3" font-family="Times,serif" font-size="14.00">Table Filter</text>
</g>
<!-- cellLock&#45;&gt;filter -->
<g id="edge1" class="edge"><title>cellLock&#45;&gt;filter</title>
<path fill="none" stroke="black" d="M472.413,-72.7646C460.884,-63.488 446.251,-51.7144 433.619,-41.5511"/>
<polygon fill="black" stroke="black" points="435.646,-38.6892 425.66,-35.1473 431.258,-44.143 435.646,-38.6892"/>
</g>
<!-- impfields -->
<g id="node10" class="node"><title>impfields</title>
<ellipse fill="#dddddd" stroke="black" cx="580.592" cy="-18" rx="92.0841" ry="18"/>
<text text-anchor="middle" x="580.592" y="-14.3" font-family="Times,serif" font-size="14.00">Implication fields</text>
</g>
<!-- cellLock&#45;&gt;impfields -->
<g id="edge2" class="edge"><title>cellLock&#45;&gt;impfields</title>
<path fill="none" stroke="black" d="M513.002,-72.7646C524.497,-63.6205 539.043,-52.0503 551.693,-41.9876"/>
<polygon fill="black" stroke="black" points="554.034,-44.5978 559.681,-35.6334 549.676,-39.1196 554.034,-44.5978"/>
</g>
<!-- rw&#45;&gt;cellLock -->
<g id="edge16" class="edge"><title>rw&#45;&gt;cellLock</title>
<path fill="none" stroke="black" d="M492.592,-143.697C492.592,-135.983 492.592,-126.712 492.592,-118.112"/>
<polygon fill="black" stroke="black" points="496.092,-118.104 492.592,-108.104 489.092,-118.104 496.092,-118.104"/>
</g>
<!-- fieldCellRI -->
<g id="node11" class="node"><title>fieldCellRI</title>
<ellipse fill="#ddffdd" stroke="black" cx="435.592" cy="-343.217" rx="106.132" ry="26.7407"/>
<text text-anchor="middle" x="435.592" y="-347.017" font-family="Times,serif" font-size="14.00">Field cell renderer</text>
<text text-anchor="middle" x="435.592" y="-332.017" font-family="Times,serif" font-size="14.00">interface</text>
</g>
<!-- fieldCellRI&#45;&gt;ro -->
<g id="edge5" class="edge"><title>fieldCellRI&#45;&gt;ro</title>
<path fill="none" stroke="black" d="M392.745,-318.41C362.464,-301.585 322.363,-279.303 293.914,-263.496"/>
<polygon fill="black" stroke="black" points="295.556,-260.404 285.114,-258.607 292.156,-266.523 295.556,-260.404"/>
</g>
<!-- fieldCellRI&#45;&gt;fieldCellRText -->
<g id="edge3" class="edge"><title>fieldCellRI&#45;&gt;fieldCellRText</title>
<path fill="none" stroke="black" d="M494.074,-320.756C535.686,-305.486 591.722,-284.922 635.373,-268.904"/>
<polygon fill="black" stroke="black" points="636.589,-272.186 644.771,-265.455 634.178,-265.614 636.589,-272.186"/>
</g>
<!-- fieldCellRTag -->
<g id="node13" class="node"><title>fieldCellRTag</title>
<ellipse fill="#ddffdd" stroke="black" cx="435.592" cy="-242.87" rx="106.132" ry="26.7407"/>
<text text-anchor="middle" x="435.592" y="-246.67" font-family="Times,serif" font-size="14.00">Field cell renderer</text>
<text text-anchor="middle" x="435.592" y="-231.67" font-family="Times,serif" font-size="14.00">Tag</text>
</g>
<!-- fieldCellRI&#45;&gt;fieldCellRTag -->
<g id="edge4" class="edge"><title>fieldCellRI&#45;&gt;fieldCellRTag</title>
<path fill="none" stroke="black" d="M435.592,-316.12C435.592,-305.029 435.592,-291.912 435.592,-279.919"/>
<polygon fill="black" stroke="black" points="439.092,-279.748 435.592,-269.748 432.092,-279.748 439.092,-279.748"/>
</g>
<!-- fieldCellEI -->
<g id="node14" class="node"><title>fieldCellEI</title>
<ellipse fill="#ffdddd" stroke="black" cx="889.592" cy="-343.217" rx="91.8478" ry="26.7407"/>
<text text-anchor="middle" x="889.592" y="-347.017" font-family="Times,serif" font-size="14.00">Field cell editor</text>
<text text-anchor="middle" x="889.592" y="-332.017" font-family="Times,serif" font-size="14.00">interface</text>
</g>
<!-- fieldCellEI&#45;&gt;rw -->
<g id="edge9" class="edge"><title>fieldCellEI&#45;&gt;rw</title>
<path fill="none" stroke="black" d="M799.917,-337.228C736.262,-329.937 651.321,-312.27 588.592,-269.74 564.38,-253.324 569.945,-237.935 550.592,-216 541.263,-205.427 530.012,-194.752 519.912,-185.78"/>
<polygon fill="black" stroke="black" points="521.954,-182.918 512.117,-178.985 517.355,-188.194 521.954,-182.918"/>
</g>
<!-- fieldCellEI&#45;&gt;fieldCellEText -->
<g id="edge7" class="edge"><title>fieldCellEI&#45;&gt;fieldCellEText</title>
<path fill="none" stroke="black" d="M940.218,-320.756C975.863,-305.646 1023.73,-285.353 1061.35,-269.409"/>
<polygon fill="black" stroke="black" points="1062.83,-272.58 1070.67,-265.455 1060.1,-266.136 1062.83,-272.58"/>
</g>
<!-- fieldCellETag -->
<g id="node16" class="node"><title>fieldCellETag</title>
<ellipse fill="#ffdddd" stroke="black" cx="919.592" cy="-242.87" rx="91.8478" ry="26.7407"/>
<text text-anchor="middle" x="919.592" y="-246.67" font-family="Times,serif" font-size="14.00">Field cell editor</text>
<text text-anchor="middle" x="919.592" y="-231.67" font-family="Times,serif" font-size="14.00">Tag</text>
</g>
<!-- fieldCellEI&#45;&gt;fieldCellETag -->
<g id="edge8" class="edge"><title>fieldCellEI&#45;&gt;fieldCellETag</title>
<path fill="none" stroke="black" d="M897.474,-316.377C900.892,-305.173 904.951,-291.865 908.654,-279.727"/>
<polygon fill="black" stroke="black" points="912.088,-280.464 911.658,-269.878 905.393,-278.422 912.088,-280.464"/>
</g>
</g>
</svg>
