<?xml version="1.0" encoding="UTF-8" standalone="no"?>
<svg
   xmlns:dc="http://purl.org/dc/elements/1.1/"
   xmlns:cc="http://creativecommons.org/ns#"
   xmlns:rdf="http://www.w3.org/1999/02/22-rdf-syntax-ns#"
   xmlns:svg="http://www.w3.org/2000/svg"
   xmlns="http://www.w3.org/2000/svg"
   xmlns:sodipodi="http://sodipodi.sourceforge.net/DTD/sodipodi-0.dtd"
   xmlns:inkscape="http://www.inkscape.org/namespaces/inkscape"
   width="3584"
   height="3584"
   viewBox="0 0 3584 3584"
   version="1.1"
   id="svg4836"
   sodipodi:docname="exclamation-tiled_manually.svg"
   inkscape:version="0.92.1 r">
  <metadata
     id="metadata4842">
    <rdf:RDF>
      <cc:Work
         rdf:about="">
        <dc:format>image/svg+xml</dc:format>
        <dc:type
           rdf:resource="http://purl.org/dc/dcmitype/StillImage" />
        <dc:title></dc:title>
      </cc:Work>
    </rdf:RDF>
  </metadata>
  <defs
     id="defs4840">
    <filter
       inkscape:collect="always"
       style="color-interpolation-filters:sRGB"
       id="filter4887"
       x="-0.14688776"
       width="1.2937755"
       y="-0.04633042"
       height="1.0926608">
      <feGaussianBlur
         inkscape:collect="always"
         stdDeviation="27.180513"
         id="feGaussianBlur4889" />
    </filter>
    <filter
       inkscape:collect="always"
       style="color-interpolation-filters:sRGB"
       id="filter4891"
       x="-0.14688776"
       width="1.2937755"
       y="-0.04633042"
       height="1.0926608">
      <feGaussianBlur
         inkscape:collect="always"
         stdDeviation="27.180513"
         id="feGaussianBlur4893" />
    </filter>
  </defs>
  <sodipodi:namedview
     pagecolor="#ffffff"
     bordercolor="#666666"
     borderopacity="1"
     objecttolerance="10"
     gridtolerance="10"
     guidetolerance="10"
     inkscape:pageopacity="0"
     inkscape:pageshadow="2"
     inkscape:window-width="1920"
     inkscape:window-height="1058"
     id="namedview4838"
     showgrid="false"
     inkscape:zoom="0.23939732"
     inkscape:cx="1792"
     inkscape:cy="1792"
     inkscape:window-x="1200"
     inkscape:window-y="0"
     inkscape:window-maximized="1"
     inkscape:current-layer="svg4836" />
  <path
     inkscape:connector-curvature="0"
     d="m 1088,1248 v 224 q 0,26 -19,45 -19,19 -45,19 H 768 q -26,0 -45,-19 -19,-19 -19,-45 v -224 q 0,-26 19,-45 19,-19 45,-19 h 256 q 26,0 45,19 19,19 19,45 z m 30,-1056 -28,768 q -1,26 -20.5,45 -19.5,19 -45.5,19 H 768 q -26,0 -45.5,-19 Q 703,986 702,960 L 674,192 q -1,-26 17.5,-45 18.5,-19 44.5,-19 h 320 q 26,0 44.5,19 18.5,19 17.5,45 z"
     id="path4834"
     style="opacity:0.025;filter:url(#filter4887)" />
  <path
     id="path4869"
     d="m 2880,3040 v 224 q 0,26 -19,45 -19,19 -45,19 h -256 q -26,0 -45,-19 -19,-19 -19,-45 v -224 q 0,-26 19,-45 19,-19 45,-19 h 256 q 26,0 45,19 19,19 19,45 z m 30,-1056 -28,768 q -1,26 -20.5,45 -19.5,19 -45.5,19 h -256 q -26,0 -45.5,-19 -19.5,-19 -20.5,-45 l -28,-768 q -1,-26 17.5,-45 18.5,-19 44.5,-19 h 320 q 26,0 44.5,19 18.5,19 17.5,45 z"
     inkscape:connector-curvature="0"
     style="opacity:0.025;filter:url(#filter4891)" />
</svg>
