<?xml version="1.0" encoding="UTF-8" standalone="no"?>
<!DOCTYPE svg PUBLIC "-//W3C//DTD SVG 1.1//EN"
 "http://www.w3.org/Graphics/SVG/1.1/DTD/svg11.dtd">
<!-- Generated by graphviz version 2.38.0 (20140413.2041)
 -->
<!-- Title: G Pages: 1 -->
<svg width="899pt" height="440pt"
 viewBox="0.00 0.00 898.93 440.00" xmlns="http://www.w3.org/2000/svg" xmlns:xlink="http://www.w3.org/1999/xlink">
<g id="graph0" class="graph" transform="scale(1 1) rotate(0) translate(4 436)">
<title>G</title>
<polygon fill="white" stroke="none" points="-4,4 -4,-436 894.927,-436 894.927,4 -4,4"/>
<!-- graphviz -->
<g id="node1" class="node"><title>graphviz</title>
<ellipse fill="none" stroke="black" cx="467.562" cy="-414" rx="119.679" ry="18"/>
<text text-anchor="middle" x="467.562" y="-410.3" font-family="Times,serif" font-size="14.00">Use graphviz or a replacement</text>
</g>
<!-- impgraph -->
<g id="node12" class="node"><title>impgraph</title>
<ellipse fill="#ddddff" stroke="black" cx="757.039" cy="-393" rx="74.187" ry="18"/>
<text text-anchor="middle" x="757.039" y="-389.3" font-family="Times,serif" font-size="14.00">Implication graph</text>
</g>
<!-- graphviz&#45;&gt;impgraph -->
<g id="edge12" class="edge"><title>graphviz&#45;&gt;impgraph</title>
<path fill="none" stroke="black" d="M575.608,-406.18C608.739,-403.76 644.657,-401.136 675.659,-398.872"/>
<polygon fill="black" stroke="black" points="676.254,-402.338 685.973,-398.118 675.744,-395.356 676.254,-402.338"/>
</g>
<!-- detail_links -->
<g id="node2" class="node"><title>detail_links</title>
<ellipse fill="none" stroke="black" cx="757.039" cy="-144" rx="133.776" ry="18"/>
<text text-anchor="middle" x="757.039" y="-140.3" font-family="Times,serif" font-size="14.00">Make ReqTable link to detail page</text>
</g>
<!-- singstate -->
<g id="node3" class="node"><title>singstate</title>
<ellipse fill="#33aa33" stroke="black" cx="155.986" cy="-49" rx="155.972" ry="18"/>
<text text-anchor="middle" x="155.986" y="-45.3" font-family="Times,serif" font-size="14.00">Use single state for all ProjectSPA pages</text>
</g>
<!-- fixhack -->
<g id="node4" class="node"><title>fixhack</title>
<ellipse fill="#33aa33" stroke="black" cx="467.562" cy="-18" rx="118.079" ry="18"/>
<text text-anchor="middle" x="467.562" y="-14.3" font-family="Times,serif" font-size="14.00">Fix ProjectSPA/var/filter hack</text>
</g>
<!-- singstate&#45;&gt;fixhack -->
<g id="edge2" class="edge"><title>singstate&#45;&gt;fixhack</title>
<path fill="none" stroke="black" d="M274.465,-37.236C301.917,-34.487 331.035,-31.5713 358.076,-28.8635"/>
<polygon fill="black" stroke="black" points="358.729,-32.3157 368.33,-27.8366 358.031,-25.3505 358.729,-32.3157"/>
</g>
<!-- back -->
<g id="node10" class="node"><title>back</title>
<ellipse fill="#ddddff" stroke="black" cx="467.562" cy="-81" rx="73.5782" ry="26.7407"/>
<text text-anchor="middle" x="467.562" y="-84.8" font-family="Times,serif" font-size="14.00">Detail page:</text>
<text text-anchor="middle" x="467.562" y="-69.8" font-family="Times,serif" font-size="14.00">back to reqtable</text>
</g>
<!-- singstate&#45;&gt;back -->
<g id="edge3" class="edge"><title>singstate&#45;&gt;back</title>
<path fill="none" stroke="black" d="M272.701,-60.9611C310.528,-64.8712 351.686,-69.1256 386.309,-72.7044"/>
<polygon fill="black" stroke="black" points="386.054,-76.1967 396.361,-73.7435 386.774,-69.2338 386.054,-76.1967"/>
</g>
<!-- newroute -->
<g id="node5" class="node"><title>newroute</title>
<ellipse fill="#33aa33" stroke="black" cx="467.562" cy="-144" rx="94.7833" ry="18"/>
<text text-anchor="middle" x="467.562" y="-140.3" font-family="Times,serif" font-size="14.00">Add route for req detail</text>
</g>
<!-- newroute&#45;&gt;detail_links -->
<g id="edge1" class="edge"><title>newroute&#45;&gt;detail_links</title>
<path fill="none" stroke="black" d="M562.693,-144C578.845,-144 595.95,-144 613.041,-144"/>
<polygon fill="black" stroke="black" points="613.096,-147.5 623.096,-144 613.095,-140.5 613.096,-147.5"/>
</g>
<!-- detail -->
<g id="node6" class="node"><title>detail</title>
<ellipse fill="#33aa33" stroke="black" cx="155.986" cy="-207" rx="73.387" ry="18"/>
<text text-anchor="middle" x="155.986" y="-203.3" font-family="Times,serif" font-size="14.00">Add a detail page</text>
</g>
<!-- detail&#45;&gt;newroute -->
<g id="edge8" class="edge"><title>detail&#45;&gt;newroute</title>
<path fill="none" stroke="black" d="M213.048,-195.591C263.159,-185.393 336.964,-170.374 392.033,-159.167"/>
<polygon fill="black" stroke="black" points="392.987,-162.545 402.088,-157.121 391.591,-155.685 392.987,-162.545"/>
</g>
<!-- notfound -->
<g id="node7" class="node"><title>notfound</title>
<ellipse fill="#ddddff" stroke="black" cx="467.562" cy="-351" rx="63.7795" ry="26.7407"/>
<text text-anchor="middle" x="467.562" y="-354.8" font-family="Times,serif" font-size="14.00">Detail page:</text>
<text text-anchor="middle" x="467.562" y="-339.8" font-family="Times,serif" font-size="14.00">req not found</text>
</g>
<!-- detail&#45;&gt;notfound -->
<g id="edge4" class="edge"><title>detail&#45;&gt;notfound</title>
<path fill="none" stroke="black" d="M182.618,-223.923C218.422,-246.987 285.996,-288.454 347.972,-315 365.328,-322.434 384.719,-329.001 402.711,-334.423"/>
<polygon fill="black" stroke="black" points="401.959,-337.85 412.54,-337.315 403.935,-331.135 401.959,-337.85"/>
</g>
<!-- struct -->
<g id="node8" class="node"><title>struct</title>
<ellipse fill="#ddddff" stroke="black" cx="467.562" cy="-279" rx="62.8651" ry="26.7407"/>
<text text-anchor="middle" x="467.562" y="-282.8" font-family="Times,serif" font-size="14.00">Detail page:</text>
<text text-anchor="middle" x="467.562" y="-267.8" font-family="Times,serif" font-size="14.00">display fields</text>
</g>
<!-- detail&#45;&gt;struct -->
<g id="edge5" class="edge"><title>detail&#45;&gt;struct</title>
<path fill="none" stroke="black" d="M209.852,-219.295C262.961,-231.647 344.887,-250.701 401.851,-263.95"/>
<polygon fill="black" stroke="black" points="401.297,-267.414 411.83,-266.271 402.883,-260.596 401.297,-267.414"/>
</g>
<!-- update -->
<g id="node9" class="node"><title>update</title>
<ellipse fill="#ddddff" stroke="black" cx="467.562" cy="-207" rx="82.0488" ry="26.7407"/>
<text text-anchor="middle" x="467.562" y="-210.8" font-family="Times,serif" font-size="14.00">Detail page:</text>
<text text-anchor="middle" x="467.562" y="-195.8" font-family="Times,serif" font-size="14.00">send/recv changes</text>
</g>
<!-- detail&#45;&gt;update -->
<g id="edge6" class="edge"><title>detail&#45;&gt;update</title>
<path fill="none" stroke="black" d="M229.568,-207C273.107,-207 328.87,-207 375.366,-207"/>
<polygon fill="black" stroke="black" points="375.443,-210.5 385.443,-207 375.443,-203.5 375.443,-210.5"/>
</g>
<!-- detail&#45;&gt;back -->
<g id="edge7" class="edge"><title>detail&#45;&gt;back</title>
<path fill="none" stroke="black" d="M187.807,-190.764C225.065,-171.542 289.993,-139.325 347.972,-117 364.086,-110.796 381.75,-104.943 398.41,-99.8323"/>
<polygon fill="black" stroke="black" points="399.522,-103.153 408.084,-96.9115 397.499,-96.4514 399.522,-103.153"/>
</g>
<!-- editors -->
<g id="node11" class="node"><title>editors</title>
<ellipse fill="#ddddff" stroke="black" cx="757.039" cy="-299" rx="66.0889" ry="18"/>
<text text-anchor="middle" x="757.039" y="-295.3" font-family="Times,serif" font-size="14.00">Existing editors</text>
</g>
<!-- struct&#45;&gt;editors -->
<g id="edge9" class="edge"><title>struct&#45;&gt;editors</title>
<path fill="none" stroke="black" d="M529.88,-283.266C574.509,-286.371 635.149,-290.59 682.403,-293.877"/>
<polygon fill="black" stroke="black" points="682.358,-297.382 692.577,-294.585 682.844,-290.399 682.358,-297.382"/>
</g>
<!-- struct&#45;&gt;impgraph -->
<g id="edge10" class="edge"><title>struct&#45;&gt;impgraph</title>
<path fill="none" stroke="black" d="M521.039,-293.239C541.84,-299.32 565.836,-306.887 587.151,-315 631.847,-332.013 681.343,-355.441 715.132,-372.172"/>
<polygon fill="black" stroke="black" points="713.716,-375.377 724.228,-376.702 716.837,-369.111 713.716,-375.377"/>
</g>
<!-- static -->
<g id="node13" class="node"><title>static</title>
<ellipse fill="#ddddff" stroke="black" cx="757.039" cy="-245" rx="48.1917" ry="18"/>
<text text-anchor="middle" x="757.039" y="-241.3" font-family="Times,serif" font-size="14.00">Static data</text>
</g>
<!-- struct&#45;&gt;static -->
<g id="edge11" class="edge"><title>struct&#45;&gt;static</title>
<path fill="none" stroke="black" d="M528.476,-271.914C579.173,-265.918 651.254,-257.393 700.628,-251.553"/>
<polygon fill="black" stroke="black" points="701.284,-255 710.803,-250.35 700.461,-248.049 701.284,-255"/>
</g>
</g>
</svg>
