<?xml version="1.0" encoding="UTF-8" standalone="no"?>
<!DOCTYPE svg PUBLIC "-//W3C//DTD SVG 1.1//EN"
 "http://www.w3.org/Graphics/SVG/1.1/DTD/svg11.dtd">
<!-- Generated by graphviz version 2.38.0 (20140413.2041)
 -->
<!-- Title: G Pages: 1 -->
<svg width="1129pt" height="206pt"
 viewBox="0.00 0.00 1129.18 205.74" xmlns="http://www.w3.org/2000/svg" xmlns:xlink="http://www.w3.org/1999/xlink">
<g id="graph0" class="graph" transform="scale(1 1) rotate(0) translate(4 201.74)">
<title>G</title>
<polygon fill="white" stroke="none" points="-4,4 -4,-201.74 1125.18,-201.74 1125.18,4 -4,4"/>
<!-- newroute -->
<g id="node1" class="node"><title>newroute</title>
<ellipse fill="none" stroke="black" cx="133.888" cy="-98.8701" rx="94.7833" ry="18"/>
<text text-anchor="middle" x="133.888" y="-95.1701" font-family="Times,serif" font-size="14.00">Add route for req detail</text>
</g>
<!-- detail_links -->
<g id="node2" class="node"><title>detail_links</title>
<ellipse fill="none" stroke="black" cx="133.888" cy="-18" rx="133.776" ry="18"/>
<text text-anchor="middle" x="133.888" y="-14.3" font-family="Times,serif" font-size="14.00">Make ReqTable link to detail page</text>
</g>
<!-- newroute&#45;&gt;detail_links -->
<g id="edge1" class="edge"><title>newroute&#45;&gt;detail_links</title>
<path fill="none" stroke="black" d="M133.888,-80.7564C133.888,-70.7312 133.888,-57.8362 133.888,-46.4246"/>
<polygon fill="black" stroke="black" points="137.388,-46.0802 133.888,-36.0802 130.388,-46.0803 137.388,-46.0802"/>
</g>
<!-- singstate -->
<g id="node3" class="node"><title>singstate</title>
<ellipse fill="none" stroke="black" cx="897.888" cy="-179.74" rx="155.972" ry="18"/>
<text text-anchor="middle" x="897.888" y="-176.04" font-family="Times,serif" font-size="14.00">Use single state for all ProjectSPA pages</text>
</g>
<!-- fixhack -->
<g id="node4" class="node"><title>fixhack</title>
<ellipse fill="none" stroke="black" cx="1002.89" cy="-98.8701" rx="118.079" ry="18"/>
<text text-anchor="middle" x="1002.89" y="-95.1701" font-family="Times,serif" font-size="14.00">Fix ProjectSPA/var/filter hack</text>
</g>
<!-- singstate&#45;&gt;fixhack -->
<g id="edge2" class="edge"><title>singstate&#45;&gt;fixhack</title>
<path fill="none" stroke="black" d="M920.413,-161.821C935.5,-150.489 955.552,-135.426 972.107,-122.991"/>
<polygon fill="black" stroke="black" points="974.507,-125.566 980.4,-116.762 970.303,-119.969 974.507,-125.566"/>
</g>
<!-- back -->
<g id="node9" class="node"><title>back</title>
<ellipse fill="#ddddff" stroke="black" cx="792.888" cy="-98.8701" rx="73.5782" ry="26.7407"/>
<text text-anchor="middle" x="792.888" y="-102.67" font-family="Times,serif" font-size="14.00">Detail page:</text>
<text text-anchor="middle" x="792.888" y="-87.6701" font-family="Times,serif" font-size="14.00">back to reqtable</text>
</g>
<!-- singstate&#45;&gt;back -->
<g id="edge3" class="edge"><title>singstate&#45;&gt;back</title>
<path fill="none" stroke="black" d="M875.363,-161.821C862.871,-152.437 846.973,-140.496 832.476,-129.606"/>
<polygon fill="black" stroke="black" points="834.236,-126.551 824.138,-123.343 830.032,-132.148 834.236,-126.551"/>
</g>
<!-- detail -->
<g id="node5" class="node"><title>detail</title>
<ellipse fill="#ddddff" stroke="black" cx="455.888" cy="-179.74" rx="73.387" ry="18"/>
<text text-anchor="middle" x="455.888" y="-176.04" font-family="Times,serif" font-size="14.00">Add a detail page</text>
</g>
<!-- detail&#45;&gt;newroute -->
<g id="edge8" class="edge"><title>detail&#45;&gt;newroute</title>
<path fill="none" stroke="black" d="M405.65,-166.606C361.453,-155.912 295.379,-139.879 237.888,-125.74 225.218,-122.624 211.686,-119.274 198.714,-116.052"/>
<polygon fill="black" stroke="black" points="199.477,-112.635 188.928,-113.619 197.788,-119.428 199.477,-112.635"/>
</g>
<!-- notfound -->
<g id="node6" class="node"><title>notfound</title>
<ellipse fill="#ddddff" stroke="black" cx="310.888" cy="-98.8701" rx="63.7795" ry="26.7407"/>
<text text-anchor="middle" x="310.888" y="-102.67" font-family="Times,serif" font-size="14.00">Detail page:</text>
<text text-anchor="middle" x="310.888" y="-87.6701" font-family="Times,serif" font-size="14.00">req not found</text>
</g>
<!-- detail&#45;&gt;notfound -->
<g id="edge4" class="edge"><title>detail&#45;&gt;notfound</title>
<path fill="none" stroke="black" d="M427.241,-163.158C407.422,-152.378 380.601,-137.789 357.704,-125.335"/>
<polygon fill="black" stroke="black" points="359.276,-122.206 348.819,-120.502 355.932,-128.355 359.276,-122.206"/>
</g>
<!-- struct -->
<g id="node7" class="node"><title>struct</title>
<ellipse fill="#ddddff" stroke="black" cx="455.888" cy="-98.8701" rx="62.8651" ry="26.7407"/>
<text text-anchor="middle" x="455.888" y="-102.67" font-family="Times,serif" font-size="14.00">Detail page:</text>
<text text-anchor="middle" x="455.888" y="-87.6701" font-family="Times,serif" font-size="14.00">display fields</text>
</g>
<!-- detail&#45;&gt;struct -->
<g id="edge5" class="edge"><title>detail&#45;&gt;struct</title>
<path fill="none" stroke="black" d="M455.888,-161.626C455.888,-154.137 455.888,-145.046 455.888,-136.168"/>
<polygon fill="black" stroke="black" points="459.388,-135.953 455.888,-125.953 452.388,-135.953 459.388,-135.953"/>
</g>
<!-- update -->
<g id="node8" class="node"><title>update</title>
<ellipse fill="#ddddff" stroke="black" cx="618.888" cy="-98.8701" rx="82.0488" ry="26.7407"/>
<text text-anchor="middle" x="618.888" y="-102.67" font-family="Times,serif" font-size="14.00">Detail page:</text>
<text text-anchor="middle" x="618.888" y="-87.6701" font-family="Times,serif" font-size="14.00">send/recv changes</text>
</g>
<!-- detail&#45;&gt;update -->
<g id="edge6" class="edge"><title>detail&#45;&gt;update</title>
<path fill="none" stroke="black" d="M487.703,-163.346C509.652,-152.726 539.376,-138.343 564.98,-125.954"/>
<polygon fill="black" stroke="black" points="566.727,-128.997 574.205,-121.491 563.678,-122.696 566.727,-128.997"/>
</g>
<!-- detail&#45;&gt;back -->
<g id="edge7" class="edge"><title>detail&#45;&gt;back</title>
<path fill="none" stroke="black" d="M513.25,-168.408C564.971,-158.705 642.958,-143.11 709.888,-125.74 716.268,-124.084 722.887,-122.24 729.478,-120.321"/>
<polygon fill="black" stroke="black" points="730.493,-123.671 739.082,-117.468 728.499,-116.961 730.493,-123.671"/>
</g>
</g>
</svg>
