<?xml version="1.0" encoding="UTF-8" standalone="no"?>
<!DOCTYPE svg PUBLIC "-//W3C//DTD SVG 1.1//EN"
 "http://www.w3.org/Graphics/SVG/1.1/DTD/svg11.dtd">
<!-- Generated by graphviz version 2.38.0 (20140413.2041)
 -->
<!-- Title: G Pages: 1 -->
<svg width="900pt" height="202pt"
 viewBox="0.00 0.00 900.10 201.99" xmlns="http://www.w3.org/2000/svg" xmlns:xlink="http://www.w3.org/1999/xlink">
<g id="graph0" class="graph" transform="scale(1 1) rotate(0) translate(4 197.995)">
<title>G</title>
<polygon fill="white" stroke="none" points="-4,4 -4,-197.995 896.103,-197.995 896.103,4 -4,4"/>
<!-- 1.0 -->
<g id="node1" class="node"><title>1.0</title>
<polygon fill="lawngreen" stroke="black" points="42.1841,-143.438 69.3147,-131 96.4453,-143.438 96.42,-163.562 42.2094,-163.562 42.1841,-143.438"/>
<text text-anchor="middle" x="69.3147" y="-145.3" font-family="Times,serif" font-size="14.00">1.0</text>
</g>
<!-- 1.0.1 -->
<g id="node2" class="node"><title>1.0.1</title>
<ellipse fill="lawngreen" stroke="black" cx="145.227" cy="-149" rx="28.6953" ry="18"/>
<text text-anchor="middle" x="145.227" y="-145.3" font-family="Times,serif" font-size="14.00">1.0.1</text>
</g>
<!-- 1.0&#45;&gt;1.0.1 -->
<g id="edge1" class="edge"><title>1.0&#45;&gt;1.0.1</title>
<path fill="none" stroke="black" d="M96.5814,-149C99.8179,-149 103.174,-149 106.538,-149"/>
<polygon fill="black" stroke="black" points="106.544,-152.5 116.544,-149 106.544,-145.5 106.544,-152.5"/>
</g>
<!-- 1.0.2 -->
<g id="node3" class="node"><title>1.0.2</title>
<ellipse fill="lawngreen" stroke="black" cx="222.422" cy="-149" rx="28.6953" ry="18"/>
<text text-anchor="middle" x="222.422" y="-145.3" font-family="Times,serif" font-size="14.00">1.0.2</text>
</g>
<!-- 1.0.1&#45;&gt;1.0.2 -->
<g id="edge2" class="edge"><title>1.0.1&#45;&gt;1.0.2</title>
<path fill="none" stroke="black" d="M174.227,-149C177.301,-149 180.467,-149 183.635,-149"/>
<polygon fill="black" stroke="black" points="183.649,-152.5 193.649,-149 183.649,-145.5 183.649,-152.5"/>
</g>
<!-- 1.0.3 -->
<g id="node4" class="node"><title>1.0.3</title>
<ellipse fill="lawngreen" stroke="black" cx="299.617" cy="-149" rx="28.6953" ry="18"/>
<text text-anchor="middle" x="299.617" y="-145.3" font-family="Times,serif" font-size="14.00">1.0.3</text>
</g>
<!-- 1.0.2&#45;&gt;1.0.3 -->
<g id="edge3" class="edge"><title>1.0.2&#45;&gt;1.0.3</title>
<path fill="none" stroke="black" d="M251.422,-149C254.496,-149 257.662,-149 260.83,-149"/>
<polygon fill="black" stroke="black" points="260.844,-152.5 270.844,-149 260.844,-145.5 260.844,-152.5"/>
</g>
<!-- 1.1 -->
<g id="node11" class="node"><title>1.1</title>
<polygon fill="skyblue" stroke="black" points="272.486,-82.4377 299.617,-70 326.747,-82.4377 326.722,-102.562 272.511,-102.562 272.486,-82.4377"/>
<text text-anchor="middle" x="299.617" y="-84.3" font-family="Times,serif" font-size="14.00">1.1</text>
</g>
<!-- 1.0.2&#45;&gt;1.1 -->
<g id="edge16" class="edge"><title>1.0.2&#45;&gt;1.1</title>
<path fill="none" stroke="black" d="M240.862,-134.852C250.242,-127.243 261.999,-117.705 272.452,-109.225"/>
<polygon fill="black" stroke="black" points="274.925,-111.726 280.486,-102.708 270.515,-106.29 274.925,-111.726"/>
</g>
<!-- 1.0.4 -->
<g id="node5" class="node"><title>1.0.4</title>
<ellipse fill="lawngreen" stroke="black" cx="376.812" cy="-149" rx="28.6953" ry="18"/>
<text text-anchor="middle" x="376.812" y="-145.3" font-family="Times,serif" font-size="14.00">1.0.4</text>
</g>
<!-- 1.0.3&#45;&gt;1.0.4 -->
<g id="edge4" class="edge"><title>1.0.3&#45;&gt;1.0.4</title>
<path fill="none" stroke="black" d="M328.616,-149C331.691,-149 334.857,-149 338.025,-149"/>
<polygon fill="black" stroke="black" points="338.039,-152.5 348.039,-149 338.039,-145.5 338.039,-152.5"/>
</g>
<!-- 1.0.5 -->
<g id="node6" class="node"><title>1.0.5</title>
<ellipse fill="lawngreen" stroke="black" cx="454.007" cy="-149" rx="28.6953" ry="18"/>
<text text-anchor="middle" x="454.007" y="-145.3" font-family="Times,serif" font-size="14.00">1.0.5</text>
</g>
<!-- 1.0.4&#45;&gt;1.0.5 -->
<g id="edge5" class="edge"><title>1.0.4&#45;&gt;1.0.5</title>
<path fill="none" stroke="black" d="M405.811,-149C408.886,-149 412.052,-149 415.22,-149"/>
<polygon fill="black" stroke="black" points="415.234,-152.5 425.234,-149 415.234,-145.5 415.234,-152.5"/>
</g>
<!-- 1.0.6 -->
<g id="node7" class="node"><title>1.0.6</title>
<ellipse fill="lawngreen" stroke="black" cx="531.201" cy="-149" rx="28.6953" ry="18"/>
<text text-anchor="middle" x="531.201" y="-145.3" font-family="Times,serif" font-size="14.00">1.0.6</text>
</g>
<!-- 1.0.5&#45;&gt;1.0.6 -->
<g id="edge6" class="edge"><title>1.0.5&#45;&gt;1.0.6</title>
<path fill="none" stroke="black" d="M483.006,-149C486.081,-149 489.247,-149 492.414,-149"/>
<polygon fill="black" stroke="black" points="492.429,-152.5 502.429,-149 492.429,-145.5 492.429,-152.5"/>
</g>
<!-- 1.0.6&#45;&gt;1.0.2 -->
<g id="edge17" class="edge"><title>1.0.6&#45;&gt;1.0.2</title>
<path fill="none" stroke="black" d="M511.729,-162.441C503.289,-167.778 492.892,-173.285 482.604,-176 391.679,-199.993 361.944,-199.993 271.019,-176 264.107,-174.176 257.146,-171.091 250.761,-167.645"/>
<polygon fill="black" stroke="black" points="252.29,-164.484 241.894,-162.441 248.747,-170.521 252.29,-164.484"/>
</g>
<!-- 1.0.7 -->
<g id="node8" class="node"><title>1.0.7</title>
<ellipse fill="lawngreen" stroke="black" cx="612.16" cy="-149" rx="28.6953" ry="18"/>
<text text-anchor="middle" x="612.16" y="-145.3" font-family="Times,serif" font-size="14.00">1.0.7</text>
</g>
<!-- 1.0.6&#45;&gt;1.0.7 -->
<g id="edge7" class="edge"><title>1.0.6&#45;&gt;1.0.7</title>
<path fill="none" stroke="black" d="M559.817,-149C564.12,-149 568.63,-149 573.115,-149"/>
<polygon fill="black" stroke="black" points="573.426,-152.5 583.426,-149 573.426,-145.5 573.426,-152.5"/>
</g>
<!-- 1.0.8 -->
<g id="node9" class="node"><title>1.0.8</title>
<ellipse fill="lawngreen" stroke="black" cx="703.916" cy="-149" rx="28.6953" ry="18"/>
<text text-anchor="middle" x="703.916" y="-145.3" font-family="Times,serif" font-size="14.00">1.0.8</text>
</g>
<!-- 1.0.7&#45;&gt;1.0.8 -->
<g id="edge8" class="edge"><title>1.0.7&#45;&gt;1.0.8</title>
<path fill="none" stroke="black" d="M641.067,-149C648.581,-149 656.84,-149 664.807,-149"/>
<polygon fill="black" stroke="black" points="665.026,-152.5 675.026,-149 665.026,-145.5 665.026,-152.5"/>
</g>
<!-- 1.0.9 -->
<g id="node10" class="node"><title>1.0.9</title>
<ellipse fill="lawngreen" stroke="black" cx="802.707" cy="-149" rx="28.6953" ry="18"/>
<text text-anchor="middle" x="802.707" y="-145.3" font-family="Times,serif" font-size="14.00">1.0.9</text>
</g>
<!-- 1.0.8&#45;&gt;1.0.9 -->
<g id="edge9" class="edge"><title>1.0.8&#45;&gt;1.0.9</title>
<path fill="none" stroke="black" d="M732.652,-149C742.372,-149 753.461,-149 763.866,-149"/>
<polygon fill="black" stroke="black" points="763.966,-152.5 773.966,-149 763.966,-145.5 763.966,-152.5"/>
</g>
<!-- E -->
<g id="node20" class="node"><title>E</title>
<ellipse fill="black" stroke="black" cx="877.103" cy="-149" rx="11" ry="11"/>
<ellipse fill="none" stroke="black" cx="877.103" cy="-149" rx="15" ry="15"/>
<text text-anchor="middle" x="877.103" y="-148.7" font-family="Times,serif" font-size="1.00">E</text>
</g>
<!-- 1.0.9&#45;&gt;E -->
<g id="edge22" class="edge"><title>1.0.9&#45;&gt;E</title>
<path fill="none" stroke="black" d="M831.49,-149C838.132,-149 845.173,-149 851.652,-149"/>
<polygon fill="black" stroke="black" points="851.854,-152.5 861.854,-149 851.853,-145.5 851.854,-152.5"/>
</g>
<!-- 1.1.1 -->
<g id="node12" class="node"><title>1.1.1</title>
<path fill="skyblue" stroke="black" d="M391.812,-79C391.812,-79 361.812,-79 361.812,-79 355.812,-79 349.812,-73 349.812,-67 349.812,-67 349.812,-55 349.812,-55 349.812,-49 355.812,-43 361.812,-43 361.812,-43 391.812,-43 391.812,-43 397.812,-43 403.812,-49 403.812,-55 403.812,-55 403.812,-67 403.812,-67 403.812,-73 397.812,-79 391.812,-79"/>
<text text-anchor="middle" x="376.812" y="-57.3" font-family="Times,serif" font-size="14.00">1.1.1</text>
</g>
<!-- 1.1&#45;&gt;1.1.1 -->
<g id="edge10" class="edge"><title>1.1&#45;&gt;1.1.1</title>
<path fill="none" stroke="black" d="M322.366,-80.1905C327.812,-78.2349 333.802,-76.0843 339.74,-73.952"/>
<polygon fill="black" stroke="black" points="341.352,-77.092 349.581,-70.4184 338.987,-70.5038 341.352,-77.092"/>
</g>
<!-- 1.1.2 -->
<g id="node13" class="node"><title>1.1.2</title>
<path fill="skyblue" stroke="black" d="M469.007,-66C469.007,-66 439.007,-66 439.007,-66 433.007,-66 427.007,-60 427.007,-54 427.007,-54 427.007,-42 427.007,-42 427.007,-36 433.007,-30 439.007,-30 439.007,-30 469.007,-30 469.007,-30 475.007,-30 481.007,-36 481.007,-42 481.007,-42 481.007,-54 481.007,-54 481.007,-60 475.007,-66 469.007,-66"/>
<text text-anchor="middle" x="454.007" y="-44.3" font-family="Times,serif" font-size="14.00">1.1.2</text>
</g>
<!-- 1.1.1&#45;&gt;1.1.2 -->
<g id="edge11" class="edge"><title>1.1.1&#45;&gt;1.1.2</title>
<path fill="none" stroke="black" d="M404.111,-56.4532C408.256,-55.7366 412.603,-54.985 416.924,-54.2381"/>
<polygon fill="black" stroke="black" points="417.591,-57.6747 426.849,-52.5222 416.399,-50.7771 417.591,-57.6747"/>
</g>
<!-- 1.1.3 -->
<g id="node14" class="node"><title>1.1.3</title>
<path fill="skyblue" stroke="black" d="M546.201,-66C546.201,-66 516.201,-66 516.201,-66 510.201,-66 504.201,-60 504.201,-54 504.201,-54 504.201,-42 504.201,-42 504.201,-36 510.201,-30 516.201,-30 516.201,-30 546.201,-30 546.201,-30 552.201,-30 558.201,-36 558.201,-42 558.201,-42 558.201,-54 558.201,-54 558.201,-60 552.201,-66 546.201,-66"/>
<text text-anchor="middle" x="531.201" y="-44.3" font-family="Times,serif" font-size="14.00">1.1.3</text>
</g>
<!-- 1.1.2&#45;&gt;1.1.3 -->
<g id="edge12" class="edge"><title>1.1.2&#45;&gt;1.1.3</title>
<path fill="none" stroke="black" d="M481.306,-48C485.336,-48 489.557,-48 493.759,-48"/>
<polygon fill="black" stroke="black" points="494.044,-51.5001 504.044,-48 494.044,-44.5001 494.044,-51.5001"/>
</g>
<!-- 1.1.4 -->
<g id="node15" class="node"><title>1.1.4</title>
<path fill="skyblue" stroke="black" d="M627.16,-113C627.16,-113 597.16,-113 597.16,-113 591.16,-113 585.16,-107 585.16,-101 585.16,-101 585.16,-89 585.16,-89 585.16,-83 591.16,-77 597.16,-77 597.16,-77 627.16,-77 627.16,-77 633.16,-77 639.16,-83 639.16,-89 639.16,-89 639.16,-101 639.16,-101 639.16,-107 633.16,-113 627.16,-113"/>
<text text-anchor="middle" x="612.16" y="-91.3" font-family="Times,serif" font-size="14.00">1.1.4</text>
</g>
<!-- 1.1.3&#45;&gt;1.1.4 -->
<g id="edge13" class="edge"><title>1.1.3&#45;&gt;1.1.4</title>
<path fill="none" stroke="black" d="M558.493,-63.6503C564.22,-67.0592 570.365,-70.7171 576.364,-74.2879"/>
<polygon fill="black" stroke="black" points="574.599,-77.3106 584.982,-79.418 578.18,-71.2955 574.599,-77.3106"/>
</g>
<!-- 1.E.1 -->
<g id="node16" class="node"><title>1.E.1</title>
<polygon fill="tomato" stroke="black" points="644.381,-33.5442 644.381,-48.4558 625.506,-59 598.813,-59 579.938,-48.4558 579.938,-33.5442 598.813,-23 625.506,-23 644.381,-33.5442"/>
<text text-anchor="middle" x="612.16" y="-37.3" font-family="Times,serif" font-size="14.00">1.E.1</text>
</g>
<!-- 1.1.3&#45;&gt;1.E.1 -->
<g id="edge18" class="edge"><title>1.1.3&#45;&gt;1.E.1</title>
<path fill="none" stroke="black" d="M558.493,-45.6691C562.116,-45.3479 565.906,-45.012 569.72,-44.6738"/>
<polygon fill="black" stroke="black" points="570.124,-48.1518 579.776,-43.7823 569.506,-41.1791 570.124,-48.1518"/>
</g>
<!-- 1.1.4&#45;&gt;1.0.8 -->
<g id="edge19" class="edge"><title>1.1.4&#45;&gt;1.0.8</title>
<path fill="none" stroke="black" d="M639.604,-110.91C650.35,-117.375 662.803,-124.867 673.807,-131.487"/>
<polygon fill="black" stroke="black" points="672.267,-134.645 682.64,-136.801 675.875,-128.647 672.267,-134.645"/>
</g>
<!-- 1.E.1.1 -->
<g id="node17" class="node"><title>1.E.1.1</title>
<polygon fill="tomato" stroke="black" points="743.207,-33.5442 743.207,-48.4558 720.191,-59 687.641,-59 664.624,-48.4558 664.624,-33.5442 687.641,-23 720.191,-23 743.207,-33.5442"/>
<text text-anchor="middle" x="703.916" y="-37.3" font-family="Times,serif" font-size="14.00">1.E.1.1</text>
</g>
<!-- 1.E.1&#45;&gt;1.E.1.1 -->
<g id="edge14" class="edge"><title>1.E.1&#45;&gt;1.E.1.1</title>
<path fill="none" stroke="black" d="M644.552,-41C647.787,-41 651.126,-41 654.491,-41"/>
<polygon fill="black" stroke="black" points="654.591,-44.5001 664.591,-41 654.591,-37.5001 654.591,-44.5001"/>
</g>
<!-- 1.E.1.2 -->
<g id="node18" class="node"><title>1.E.1.2</title>
<polygon fill="tomato" stroke="black" points="841.998,-10.5442 841.998,-25.4558 818.982,-36 786.432,-36 763.416,-25.4558 763.416,-10.5442 786.432,-3.55271e-15 818.982,-0 841.998,-10.5442"/>
<text text-anchor="middle" x="802.707" y="-14.3" font-family="Times,serif" font-size="14.00">1.E.1.2</text>
</g>
<!-- 1.E.1.1&#45;&gt;1.E.1.2 -->
<g id="edge15" class="edge"><title>1.E.1.1&#45;&gt;1.E.1.2</title>
<path fill="none" stroke="black" d="M740.957,-32.4356C745.744,-31.2981 750.704,-30.1196 755.632,-28.9487"/>
<polygon fill="black" stroke="black" points="756.715,-32.2886 765.635,-26.5715 755.097,-25.4783 756.715,-32.2886"/>
</g>
<!-- 1.E.1.2&#45;&gt;1.1.2 -->
<g id="edge20" class="edge"><title>1.E.1.2&#45;&gt;1.1.2</title>
<path fill="none" stroke="black" d="M763.312,-11.464C705.307,-3.1119 592.558,7.14302 502.604,-21 498.524,-22.2765 494.407,-23.9385 490.394,-25.8111"/>
<polygon fill="black" stroke="black" points="488.584,-22.8057 481.279,-30.4801 491.775,-29.0358 488.584,-22.8057"/>
</g>
<!-- S -->
<g id="node19" class="node"><title>S</title>
<ellipse fill="black" stroke="black" cx="11" cy="-149" rx="11" ry="11"/>
<text text-anchor="middle" x="11" y="-148.7" font-family="Times,serif" font-size="1.00">S</text>
</g>
<!-- S&#45;&gt;1.0 -->
<g id="edge21" class="edge"><title>S&#45;&gt;1.0</title>
<path fill="none" stroke="black" d="M22.0679,-149C24.939,-149 28.2452,-149 31.742,-149"/>
<polygon fill="black" stroke="black" points="31.899,-152.5 41.899,-149 31.899,-145.5 31.899,-152.5"/>
</g>
</g>
</svg>
