<?xml version="1.0" encoding="UTF-8" standalone="no"?>
<!DOCTYPE svg PUBLIC "-//W3C//DTD SVG 1.1//EN"
 "http://www.w3.org/Graphics/SVG/1.1/DTD/svg11.dtd">
<!-- Generated by graphviz version 2.36.0 (20140111.2315)
 -->
<!-- Title: G Pages: 1 -->
<svg width="511pt" height="630pt"
 viewBox="0.00 0.00 511.00 630.00" xmlns="http://www.w3.org/2000/svg" xmlns:xlink="http://www.w3.org/1999/xlink">
<g id="graph0" class="graph" transform="scale(1 1) rotate(0) translate(4 626)">
<title>G</title>
<polygon fill="white" stroke="none" points="-4,4 -4,-626 507,-626 507,4 -4,4"/>
<!-- base -->
<g id="node1" class="node"><title>base</title>
<ellipse fill="#bbffbb" stroke="black" cx="292" cy="-604" rx="27" ry="18"/>
<text text-anchor="middle" x="292" y="-600.3" font-family="Times,serif" font-size="14.00">base</text>
</g>
<!-- baseDb -->
<g id="node2" class="node"><title>baseDb</title>
<ellipse fill="#bbffbb" stroke="black" cx="223" cy="-530" rx="38.1938" ry="18"/>
<text text-anchor="middle" x="223" y="-526.3" font-family="Times,serif" font-size="14.00">base&#45;db</text>
</g>
<!-- baseDb&#45;&gt;base -->
<g id="edge1" class="edge"><title>baseDb&#45;&gt;base</title>
<path fill="none" stroke="black" d="M245.085,-554.045C255.881,-565.31 268.549,-578.529 277.998,-588.389"/>
<polygon fill="black" stroke="black" points="247.418,-551.421 237.972,-546.623 242.364,-556.265 247.418,-551.421"/>
</g>
<!-- taskmanDb -->
<g id="node3" class="node"><title>taskmanDb</title>
<ellipse fill="#aaaaff" stroke="black" cx="146" cy="-456" rx="94.7833" ry="18"/>
<text text-anchor="middle" x="146" y="-452.3" font-family="Times,serif" font-size="14.00">taskman&#45;server&#45;schema</text>
</g>
<!-- taskmanDb&#45;&gt;baseDb -->
<g id="edge2" class="edge"><title>taskmanDb&#45;&gt;baseDb</title>
<path fill="none" stroke="black" d="M171.175,-480.541C182.794,-491.405 196.26,-503.996 206.552,-513.62"/>
<polygon fill="black" stroke="black" points="173.554,-477.973 163.859,-473.699 168.773,-483.086 173.554,-477.973"/>
</g>
<!-- taskmanServerImpl -->
<g id="node4" class="node"><title>taskmanServerImpl</title>
<ellipse fill="#aaaaff" stroke="black" cx="236" cy="-202" rx="84.485" ry="18"/>
<text text-anchor="middle" x="236" y="-198.3" font-family="Times,serif" font-size="14.00">taskman&#45;server&#45;impl</text>
</g>
<!-- taskmanServerImpl&#45;&gt;taskmanDb -->
<g id="edge12" class="edge"><title>taskmanServerImpl&#45;&gt;taskmanDb</title>
<path fill="none" stroke="black" d="M210.316,-227.024C202.063,-236.011 193.613,-246.779 188,-258 157.26,-319.457 148.965,-402.636 146.77,-437.981"/>
<polygon fill="black" stroke="black" points="213.031,-229.251 217.443,-219.619 207.987,-224.397 213.031,-229.251"/>
</g>
<!-- taskmanServerLogic -->
<g id="node5" class="node"><title>taskmanServerLogic</title>
<ellipse fill="#aaaaff" stroke="black" cx="418" cy="-285" rx="85.2851" ry="18"/>
<text text-anchor="middle" x="418" y="-281.3" font-family="Times,serif" font-size="14.00">taskman&#45;server&#45;logic</text>
</g>
<!-- taskmanServerImpl&#45;&gt;taskmanServerLogic -->
<g id="edge10" class="edge"><title>taskmanServerImpl&#45;&gt;taskmanServerLogic</title>
<path fill="none" stroke="black" d="M280.126,-222.638C311.783,-236.728 353.851,-255.45 383.158,-268.494"/>
<polygon fill="black" stroke="black" points="281.22,-219.295 270.661,-218.426 278.374,-225.69 281.22,-219.295"/>
</g>
<!-- taskmanApi -->
<g id="node9" class="node"><title>taskmanApi</title>
<ellipse fill="#dddddd" stroke="black" cx="256" cy="-285" rx="58.8803" ry="26.7407"/>
<text text-anchor="middle" x="256" y="-288.8" font-family="Times,serif" font-size="14.00">[aggregate]</text>
<text text-anchor="middle" x="256" y="-273.8" font-family="Times,serif" font-size="14.00">taskman&#45;api</text>
</g>
<!-- taskmanServerImpl&#45;&gt;taskmanApi -->
<g id="edge11" class="edge"><title>taskmanServerImpl&#45;&gt;taskmanApi</title>
<path fill="none" stroke="black" d="M242.646,-229.917C244.898,-239.037 247.406,-249.196 249.636,-258.225"/>
<polygon fill="black" stroke="black" points="246.037,-229.047 240.241,-220.178 239.241,-230.725 246.037,-229.047"/>
</g>
<!-- taskmanApiLogic -->
<g id="node7" class="node"><title>taskmanApiLogic</title>
<ellipse fill="#cceeff" stroke="black" cx="372" cy="-456" rx="74.9875" ry="18"/>
<text text-anchor="middle" x="372" y="-452.3" font-family="Times,serif" font-size="14.00">taskman&#45;api&#45;logic</text>
</g>
<!-- taskmanServerLogic&#45;&gt;taskmanApiLogic -->
<g id="edge9" class="edge"><title>taskmanServerLogic&#45;&gt;taskmanApiLogic</title>
<path fill="none" stroke="black" d="M416.195,-313.172C413.659,-340.841 407.703,-384.585 394,-420 391.565,-426.292 387.953,-432.682 384.355,-438.25"/>
<polygon fill="black" stroke="black" points="419.695,-313.316 417.034,-303.061 412.719,-312.737 419.695,-313.316"/>
</g>
<!-- taskmanApiImpl -->
<g id="node6" class="node"><title>taskmanApiImpl</title>
<ellipse fill="#cceeff" stroke="black" cx="269" cy="-368" rx="73.387" ry="18"/>
<text text-anchor="middle" x="269" y="-364.3" font-family="Times,serif" font-size="14.00">taskman&#45;api&#45;impl</text>
</g>
<!-- taskmanApiImpl&#45;&gt;baseDb -->
<g id="edge5" class="edge"><title>taskmanApiImpl&#45;&gt;baseDb</title>
<path fill="none" stroke="black" d="M265.761,-396.104C262.737,-417.591 257.408,-448.189 249,-474 244.682,-487.256 237.904,-501.465 232.352,-512.119"/>
<polygon fill="black" stroke="black" points="269.248,-396.436 267.1,-386.061 262.309,-395.511 269.248,-396.436"/>
</g>
<!-- taskmanApiImpl&#45;&gt;taskmanDb -->
<g id="edge7" class="edge"><title>taskmanApiImpl&#45;&gt;taskmanDb</title>
<path fill="none" stroke="black" stroke-dasharray="5,2" d="M237.547,-390.991C216.474,-405.726 189.161,-424.823 169.871,-438.31"/>
<polygon fill="black" stroke="black" points="239.675,-393.775 245.865,-385.176 235.664,-388.038 239.675,-393.775"/>
<text text-anchor="middle" x="228.5" y="-408.3" font-family="Times,serif" font-size="14.00">test</text>
</g>
<!-- taskmanApiImpl&#45;&gt;taskmanApiLogic -->
<g id="edge4" class="edge"><title>taskmanApiImpl&#45;&gt;taskmanApiLogic</title>
<path fill="none" stroke="black" d="M285.278,-394.517C291.662,-403.278 299.499,-412.705 308,-420 316.938,-427.67 327.828,-434.386 338.073,-439.829"/>
<polygon fill="black" stroke="black" points="287.992,-392.29 279.407,-386.081 282.247,-396.288 287.992,-392.29"/>
</g>
<!-- taskmanApiImpl&#45;&gt;taskmanApiLogic -->
<g id="edge6" class="edge"><title>taskmanApiImpl&#45;&gt;taskmanApiLogic</title>
<path fill="none" stroke="black" stroke-dasharray="5,2" d="M295.422,-392.242C305.535,-401.032 317.227,-411.066 328,-420 335.363,-426.106 343.537,-432.667 350.821,-438.439"/>
<polygon fill="black" stroke="black" points="297.535,-389.441 287.698,-385.505 292.934,-394.716 297.535,-389.441"/>
<text text-anchor="middle" x="347" y="-408.3" font-family="Times,serif" font-size="14.00">test&#45;lib</text>
</g>
<!-- taskmanApiLogic&#45;&gt;base -->
<g id="edge3" class="edge"><title>taskmanApiLogic&#45;&gt;base</title>
<path fill="none" stroke="black" d="M357.687,-483.121C341.165,-513.274 314.509,-561.922 300.786,-586.965"/>
<polygon fill="black" stroke="black" points="360.93,-484.485 362.666,-474.034 354.792,-481.122 360.93,-484.485"/>
</g>
<!-- taskman -->
<g id="node8" class="node"><title>taskman</title>
<ellipse fill="#dddddd" stroke="black" cx="342" cy="-27" rx="55.3091" ry="26.7407"/>
<text text-anchor="middle" x="342" y="-30.8" font-family="Times,serif" font-size="14.00">[aggregate]</text>
<text text-anchor="middle" x="342" y="-15.8" font-family="Times,serif" font-size="14.00">taskman</text>
</g>
<!-- taskman&#45;&gt;taskmanApi -->
<g id="edge21" class="edge"><title>taskman&#45;&gt;taskmanApi</title>
<path fill="none" stroke="#aaaaaa" stroke-dasharray="5,2" d="M346.209,-53.8253C351.207,-92.2601 355.808,-165.796 329,-220 321.951,-234.252 310.185,-246.691 298.134,-256.718"/>
<polygon fill="#aaaaaa" stroke="#aaaaaa" points="290.221,-262.953 295.29,-253.23 294.148,-259.859 298.076,-256.764 298.076,-256.764 298.076,-256.764 294.148,-259.859 300.861,-260.299 290.221,-262.953 290.221,-262.953"/>
</g>
<!-- taskmanServer -->
<g id="node10" class="node"><title>taskmanServer</title>
<ellipse fill="#dddddd" stroke="black" cx="236" cy="-119" rx="70.922" ry="26.7407"/>
<text text-anchor="middle" x="236" y="-122.8" font-family="Times,serif" font-size="14.00">[aggregate]</text>
<text text-anchor="middle" x="236" y="-107.8" font-family="Times,serif" font-size="14.00">taskman&#45;server</text>
</g>
<!-- taskman&#45;&gt;taskmanServer -->
<g id="edge22" class="edge"><title>taskman&#45;&gt;taskmanServer</title>
<path fill="none" stroke="#aaaaaa" stroke-dasharray="5,2" d="M315.252,-50.7108C302.108,-61.8709 286.082,-75.4778 271.889,-87.5279"/>
<polygon fill="#aaaaaa" stroke="#aaaaaa" points="264.223,-94.0368 268.934,-84.1341 268.035,-90.8006 271.846,-87.5644 271.846,-87.5644 271.846,-87.5644 268.035,-90.8006 274.759,-90.9948 264.223,-94.0368 264.223,-94.0368"/>
</g>
<!-- taskmanApi&#45;&gt;taskmanApiImpl -->
<g id="edge8" class="edge"><title>taskmanApi&#45;&gt;taskmanApiImpl</title>
<path fill="none" stroke="black" d="M255.106,-322.286C256.501,-331.909 258.461,-341.852 260.631,-349.912"/>
<polygon fill="black" stroke="black" points="258.543,-321.564 253.831,-312.075 251.597,-322.432 258.543,-321.564"/>
</g>
<!-- taskmanApi&#45;&gt;taskmanApiImpl -->
<g id="edge17" class="edge"><title>taskmanApi&#45;&gt;taskmanApiImpl</title>
<path fill="none" stroke="#aaaaaa" stroke-dasharray="5,2" d="M266.441,-311.629C268.403,-320.557 270.047,-330.604 271.035,-339.665"/>
<polygon fill="#aaaaaa" stroke="#aaaaaa" points="271.874,-349.723 266.559,-340.131 271.458,-344.74 271.043,-339.757 271.043,-339.757 271.043,-339.757 271.458,-344.74 275.527,-339.384 271.874,-349.723 271.874,-349.723"/>
</g>
<!-- taskmanApi&#45;&gt;taskmanApiLogic -->
<g id="edge16" class="edge"><title>taskmanApi&#45;&gt;taskmanApiLogic</title>
<path fill="none" stroke="#aaaaaa" stroke-dasharray="5,2" d="M296.134,-304.604C315.302,-315.367 337.048,-330.64 351,-350 367.326,-372.655 371.723,-404.874 372.569,-427.634"/>
<polygon fill="#aaaaaa" stroke="#aaaaaa" points="372.737,-437.66 368.07,-427.737 372.654,-432.661 372.57,-427.661 372.57,-427.661 372.57,-427.661 372.654,-432.661 377.069,-427.586 372.737,-437.66 372.737,-437.66"/>
</g>
<!-- taskmanServer&#45;&gt;taskmanDb -->
<g id="edge20" class="edge"><title>taskmanServer&#45;&gt;taskmanDb</title>
<path fill="none" stroke="#aaaaaa" stroke-dasharray="5,2" d="M180.11,-135.378C149.611,-147.535 118,-168.076 118,-201 118,-201 118,-201 118,-369 118,-389.87 125.548,-412.251 132.806,-428.949"/>
<polygon fill="#aaaaaa" stroke="#aaaaaa" points="136.986,-438.069 128.729,-430.854 134.903,-433.524 132.819,-428.978 132.819,-428.978 132.819,-428.978 134.903,-433.524 136.91,-427.103 136.986,-438.069 136.986,-438.069"/>
</g>
<!-- taskmanServer&#45;&gt;taskmanServerImpl -->
<g id="edge13" class="edge"><title>taskmanServer&#45;&gt;taskmanServerImpl</title>
<path fill="none" stroke="black" d="M229.283,-156.286C229.133,-165.909 229.497,-175.852 230.374,-183.912"/>
<polygon fill="black" stroke="black" points="232.788,-156.193 229.646,-146.075 225.792,-155.944 232.788,-156.193"/>
</g>
<!-- taskmanServer&#45;&gt;taskmanServerImpl -->
<g id="edge19" class="edge"><title>taskmanServer&#45;&gt;taskmanServerImpl</title>
<path fill="none" stroke="#aaaaaa" stroke-dasharray="5,2" d="M242.354,-146.075C242.858,-154.886 242.881,-164.746 242.423,-173.653"/>
<polygon fill="#aaaaaa" stroke="#aaaaaa" points="241.626,-183.912 237.914,-173.593 242.014,-178.927 242.401,-173.942 242.401,-173.942 242.401,-173.942 242.014,-178.927 246.887,-174.29 241.626,-183.912 241.626,-183.912"/>
</g>
<!-- taskmanServer&#45;&gt;taskmanServerLogic -->
<g id="edge18" class="edge"><title>taskmanServer&#45;&gt;taskmanServerLogic</title>
<path fill="none" stroke="#aaaaaa" stroke-dasharray="5,2" d="M272.372,-142.109C290.189,-153.652 311.514,-168.566 329,-184 355.304,-207.217 381.534,-237.826 398.631,-259.035"/>
<polygon fill="#aaaaaa" stroke="#aaaaaa" points="404.935,-266.946 395.183,-261.93 401.819,-263.035 398.702,-259.125 398.702,-259.125 398.702,-259.125 401.819,-263.035 402.221,-256.321 404.935,-266.946 404.935,-266.946"/>
</g>
<!-- webapp -->
<g id="node11" class="node"><title>webapp</title>
<ellipse fill="#ffff80" stroke="black" cx="38" cy="-202" rx="38.1938" ry="18"/>
<text text-anchor="middle" x="38" y="-198.3" font-family="Times,serif" font-size="14.00">webapp</text>
</g>
<!-- webapp&#45;&gt;baseDb -->
<g id="edge14" class="edge"><title>webapp&#45;&gt;baseDb</title>
<path fill="none" stroke="black" d="M30.4615,-229.931C26.7244,-245.582 23,-265.757 23,-284 23,-284 23,-284 23,-457 23,-491.505 129.717,-514.018 187.244,-523.648"/>
<polygon fill="black" stroke="black" points="33.9404,-230.451 33.0052,-219.898 27.155,-228.731 33.9404,-230.451"/>
</g>
<!-- webapp&#45;&gt;taskmanApi -->
<g id="edge15" class="edge"><title>webapp&#45;&gt;taskmanApi</title>
<path fill="none" stroke="black" d="M76.5665,-217.33C114.302,-231.351 171.736,-252.691 211.413,-267.433"/>
<polygon fill="black" stroke="black" points="77.5416,-213.958 66.9487,-213.756 75.1035,-220.52 77.5416,-213.958"/>
</g>
</g>
</svg>
