<?xml version="1.0" encoding="UTF-8" standalone="no"?>
<!DOCTYPE svg PUBLIC "-//W3C//DTD SVG 1.1//EN"
 "http://www.w3.org/Graphics/SVG/1.1/DTD/svg11.dtd">
<!-- Generated by graphviz version 2.36.0 (20140111.2315)
 -->
<!-- Title: G Pages: 1 -->
<svg width="825pt" height="610pt"
 viewBox="0.00 0.00 825.00 610.00" xmlns="http://www.w3.org/2000/svg" xmlns:xlink="http://www.w3.org/1999/xlink">
<g id="graph0" class="graph" transform="scale(1 1) rotate(0) translate(4 606)">
<title>G</title>
<polygon fill="white" stroke="none" points="-4,4 -4,-606 821,-606 821,4 -4,4"/>
<g id="clust1" class="cluster"><title>cluster_base</title>
<polygon fill="#f4fff4" stroke="black" points="643,-268 643,-594 783,-594 783,-268 643,-268"/>
</g>
<g id="clust2" class="cluster"><title>cluster_t</title>
<polygon fill="#eeeeff" stroke="black" points="8,-84 8,-522 608,-522 608,-84 8,-84"/>
</g>
<g id="clust3" class="cluster"><title>cluster_ts</title>
<polygon fill="white" stroke="black" points="16,-176 16,-426 410,-426 410,-176 16,-176"/>
</g>
<g id="clust4" class="cluster"><title>cluster_ta</title>
<polygon fill="white" stroke="black" points="418,-176 418,-514 600,-514 600,-176 418,-176"/>
</g>
<!-- base -->
<g id="node1" class="node"><title>base</title>
<ellipse fill="#cccccc" stroke="black" cx="713" cy="-303" rx="55.3091" ry="26.7407"/>
<text text-anchor="middle" x="713" y="-306.8" font-family="Times,serif" font-size="14.00">[aggregate]</text>
<text text-anchor="middle" x="713" y="-291.8" font-family="Times,serif" font-size="14.00">base</text>
</g>
<!-- baseUtil -->
<g id="node2" class="node"><title>baseUtil</title>
<ellipse fill="#bbffbb" stroke="black" cx="713" cy="-568" rx="40.8928" ry="18"/>
<text text-anchor="middle" x="713" y="-564.3" font-family="Times,serif" font-size="14.00">base&#45;util</text>
</g>
<!-- base&#45;&gt;baseUtil -->
<g id="edge26" class="edge"><title>base&#45;&gt;baseUtil</title>
<path fill="none" stroke="#aaaaaa" stroke-dasharray="5,2" d="M733.658,-328.181C744.711,-342.742 757.211,-362.242 763,-382 780.609,-442.101 771.739,-464.466 747,-522 743.862,-529.297 739.299,-536.489 734.528,-542.909"/>
<polygon fill="#aaaaaa" stroke="#aaaaaa" points="728.009,-551.122 730.701,-540.492 731.118,-547.206 734.226,-543.289 734.226,-543.289 734.226,-543.289 731.118,-547.206 737.751,-546.087 728.009,-551.122 728.009,-551.122"/>
</g>
<!-- baseDb -->
<g id="node3" class="node"><title>baseDb</title>
<ellipse fill="#bbffbb" stroke="black" cx="689" cy="-488" rx="38.1938" ry="18"/>
<text text-anchor="middle" x="689" y="-484.3" font-family="Times,serif" font-size="14.00">base&#45;db</text>
</g>
<!-- base&#45;&gt;baseDb -->
<g id="edge27" class="edge"><title>base&#45;&gt;baseDb</title>
<path fill="none" stroke="#aaaaaa" stroke-dasharray="5,2" d="M691.935,-328.114C680.663,-342.652 667.913,-362.152 662,-382 653.984,-408.906 664.475,-440.103 674.628,-461.458"/>
<polygon fill="#aaaaaa" stroke="#aaaaaa" points="679.201,-470.526 670.68,-463.623 676.95,-466.061 674.698,-461.597 674.698,-461.597 674.698,-461.597 676.95,-466.061 678.716,-459.57 679.201,-470.526 679.201,-470.526"/>
</g>
<!-- baseTest -->
<g id="node4" class="node"><title>baseTest</title>
<ellipse fill="#bbffbb" stroke="black" cx="713" cy="-400" rx="41.6928" ry="18"/>
<text text-anchor="middle" x="713" y="-396.3" font-family="Times,serif" font-size="14.00">base&#45;test</text>
</g>
<!-- base&#45;&gt;baseTest -->
<g id="edge28" class="edge"><title>base&#45;&gt;baseTest</title>
<path fill="none" stroke="#aaaaaa" stroke-dasharray="5,2" d="M713,-329.959C713,-342.835 713,-358.39 713,-371.473"/>
<polygon fill="#aaaaaa" stroke="#aaaaaa" points="713,-381.769 708.5,-371.769 713,-376.769 713,-371.769 713,-371.769 713,-371.769 713,-376.769 717.5,-371.769 713,-381.769 713,-381.769"/>
</g>
<!-- baseDb&#45;&gt;baseUtil -->
<g id="edge1" class="edge"><title>baseDb&#45;&gt;baseUtil</title>
<path fill="none" stroke="#cc0000" d="M697.25,-515.811C700.749,-527.185 704.722,-540.098 707.803,-550.108"/>
<polygon fill="#cc0000" stroke="#cc0000" points="700.494,-514.453 694.208,-505.925 693.803,-516.512 700.494,-514.453"/>
</g>
<!-- baseTest&#45;&gt;baseUtil -->
<g id="edge2" class="edge"><title>baseTest&#45;&gt;baseUtil</title>
<path fill="none" stroke="#cc0000" d="M735.387,-424.88C737.673,-428.399 739.648,-432.145 741,-436 746.514,-451.718 753.01,-460.991 736,-522 733.22,-531.973 728.116,-542.313 723.421,-550.563"/>
<polygon fill="#cc0000" stroke="#cc0000" points="738.035,-422.577 729.243,-416.665 732.429,-426.769 738.035,-422.577"/>
</g>
<!-- baseTest&#45;&gt;baseDb -->
<g id="edge3" class="edge"><title>baseTest&#45;&gt;baseDb</title>
<path fill="none" stroke="#cc0000" stroke-dasharray="5,2" d="M696.073,-426.038C694.455,-429.285 693.035,-432.649 692,-436 688.649,-446.847 687.899,-459.597 687.987,-469.635"/>
<polygon fill="#cc0000" stroke="#cc0000" points="699.132,-427.738 700.997,-417.309 693.035,-424.299 699.132,-427.738"/>
<text text-anchor="middle" x="716.5" y="-440.3" font-family="Times,serif" font-size="14.00">provided</text>
</g>
<!-- taskmanDb -->
<g id="node5" class="node"><title>taskmanDb</title>
<ellipse fill="#aaaaff" stroke="black" cx="307" cy="-400" rx="94.7833" ry="18"/>
<text text-anchor="middle" x="307" y="-396.3" font-family="Times,serif" font-size="14.00">taskman&#45;server&#45;schema</text>
</g>
<!-- taskmanDb&#45;&gt;baseDb -->
<g id="edge4" class="edge"><title>taskmanDb&#45;&gt;baseDb</title>
<path fill="none" stroke="#cc0000" d="M373.911,-416.755C387.188,-419.847 401.031,-423.047 414,-426 500.783,-445.762 603.165,-468.257 655.104,-479.61"/>
<polygon fill="#cc0000" stroke="#cc0000" points="374.425,-413.281 363.891,-414.418 372.834,-420.098 374.425,-413.281"/>
</g>
<!-- taskmanServerImpl -->
<g id="node6" class="node"><title>taskmanServerImpl</title>
<ellipse fill="#aaaaff" stroke="black" cx="228" cy="-303" rx="84.485" ry="18"/>
<text text-anchor="middle" x="228" y="-299.3" font-family="Times,serif" font-size="14.00">taskman&#45;server&#45;impl</text>
</g>
<!-- taskmanServerImpl&#45;&gt;taskmanDb -->
<g id="edge15" class="edge"><title>taskmanServerImpl&#45;&gt;taskmanDb</title>
<path fill="none" stroke="#cc0000" d="M248.608,-328.782C262.581,-345.585 280.679,-367.349 292.999,-382.163"/>
<polygon fill="#cc0000" stroke="#cc0000" points="251.209,-326.435 242.124,-320.984 245.826,-330.911 251.209,-326.435"/>
</g>
<!-- taskmanServerLogic -->
<g id="node7" class="node"><title>taskmanServerLogic</title>
<ellipse fill="#aaaaff" stroke="black" cx="109" cy="-400" rx="85.2851" ry="18"/>
<text text-anchor="middle" x="109" y="-396.3" font-family="Times,serif" font-size="14.00">taskman&#45;server&#45;logic</text>
</g>
<!-- taskmanServerImpl&#45;&gt;taskmanServerLogic -->
<g id="edge13" class="edge"><title>taskmanServerImpl&#45;&gt;taskmanServerLogic</title>
<path fill="none" stroke="#cc0000" d="M199.177,-327.01C177.784,-344.089 149.108,-366.981 129.89,-382.323"/>
<polygon fill="#cc0000" stroke="#cc0000" points="201.64,-329.522 207.272,-320.548 197.273,-324.051 201.64,-329.522"/>
</g>
<!-- taskmanApi -->
<g id="node9" class="node"><title>taskmanApi</title>
<ellipse fill="#cccccc" stroke="black" cx="519" cy="-211" rx="58.8803" ry="26.7407"/>
<text text-anchor="middle" x="519" y="-214.8" font-family="Times,serif" font-size="14.00">[aggregate]</text>
<text text-anchor="middle" x="519" y="-199.8" font-family="Times,serif" font-size="14.00">taskman&#45;api</text>
</g>
<!-- taskmanServerImpl&#45;&gt;taskmanApi -->
<g id="edge14" class="edge"><title>taskmanServerImpl&#45;&gt;taskmanApi</title>
<path fill="none" stroke="#cc0000" d="M283.646,-284.79C337.989,-267.983 419.815,-242.676 471.273,-226.761"/>
<polygon fill="#cc0000" stroke="#cc0000" points="282.351,-281.527 273.832,-287.825 284.42,-288.214 282.351,-281.527"/>
</g>
<!-- taskmanApiLogic -->
<g id="node11" class="node"><title>taskmanApiLogic</title>
<ellipse fill="#cceeff" stroke="black" cx="501" cy="-488" rx="74.9875" ry="18"/>
<text text-anchor="middle" x="501" y="-484.3" font-family="Times,serif" font-size="14.00">taskman&#45;api&#45;logic</text>
</g>
<!-- taskmanServerLogic&#45;&gt;taskmanApiLogic -->
<g id="edge12" class="edge"><title>taskmanServerLogic&#45;&gt;taskmanApiLogic</title>
<path fill="none" stroke="#cc0000" d="M168.51,-417.385C179.928,-420.37 191.812,-423.369 203,-426 286.408,-445.611 383.793,-464.866 443.934,-476.34"/>
<polygon fill="#cc0000" stroke="#cc0000" points="169.187,-413.944 158.624,-414.774 167.399,-420.712 169.187,-413.944"/>
</g>
<!-- taskmanServer -->
<g id="node8" class="node"><title>taskmanServer</title>
<ellipse fill="#cccccc" stroke="black" cx="228" cy="-211" rx="70.922" ry="26.7407"/>
<text text-anchor="middle" x="228" y="-214.8" font-family="Times,serif" font-size="14.00">[aggregate]</text>
<text text-anchor="middle" x="228" y="-199.8" font-family="Times,serif" font-size="14.00">taskman&#45;server</text>
</g>
<!-- taskmanServer&#45;&gt;taskmanDb -->
<g id="edge23" class="edge"><title>taskmanServer&#45;&gt;taskmanDb</title>
<path fill="none" stroke="#aaaaaa" stroke-dasharray="5,2" d="M278.205,-230.245C294.856,-238.974 311.542,-251.264 321,-268 339.342,-300.454 328.654,-344.683 318.466,-372.538"/>
<polygon fill="#aaaaaa" stroke="#aaaaaa" points="314.79,-382.008 314.214,-371.057 316.599,-377.347 318.409,-372.686 318.409,-372.686 318.409,-372.686 316.599,-377.347 322.604,-374.314 314.79,-382.008 314.79,-382.008"/>
</g>
<!-- taskmanServer&#45;&gt;taskmanServerImpl -->
<g id="edge16" class="edge"><title>taskmanServer&#45;&gt;taskmanServerImpl</title>
<path fill="none" stroke="#cc0000" d="M221.363,-248.318C221.031,-260.937 221.431,-274.504 222.563,-284.842"/>
<polygon fill="#cc0000" stroke="#cc0000" points="224.872,-248.175 221.814,-238.032 217.879,-247.869 224.872,-248.175"/>
</g>
<!-- taskmanServer&#45;&gt;taskmanServerImpl -->
<g id="edge22" class="edge"><title>taskmanServer&#45;&gt;taskmanServerImpl</title>
<path fill="none" stroke="#aaaaaa" stroke-dasharray="5,2" d="M234.186,-238.032C234.913,-249.558 234.937,-263.118 234.258,-274.779"/>
<polygon fill="#aaaaaa" stroke="#aaaaaa" points="233.437,-284.842 229.765,-274.509 233.844,-279.858 234.25,-274.875 234.25,-274.875 234.25,-274.875 233.844,-279.858 238.735,-275.241 233.437,-284.842 233.437,-284.842"/>
</g>
<!-- taskmanServer&#45;&gt;taskmanServerLogic -->
<g id="edge21" class="edge"><title>taskmanServer&#45;&gt;taskmanServerLogic</title>
<path fill="none" stroke="#aaaaaa" stroke-dasharray="5,2" d="M180.491,-230.819C163.728,-239.711 146.267,-251.961 135,-268 113.373,-298.788 108.717,-343.179 108.206,-371.558"/>
<polygon fill="#aaaaaa" stroke="#aaaaaa" points="108.187,-381.589 103.706,-371.58 108.197,-376.589 108.206,-371.589 108.206,-371.589 108.206,-371.589 108.197,-376.589 112.706,-371.597 108.187,-381.589 108.187,-381.589"/>
</g>
<!-- taskmanApiImpl -->
<g id="node10" class="node"><title>taskmanApiImpl</title>
<ellipse fill="#cceeff" stroke="black" cx="519" cy="-303" rx="73.387" ry="18"/>
<text text-anchor="middle" x="519" y="-299.3" font-family="Times,serif" font-size="14.00">taskman&#45;api&#45;impl</text>
</g>
<!-- taskmanApi&#45;&gt;taskmanApiImpl -->
<g id="edge11" class="edge"><title>taskmanApi&#45;&gt;taskmanApiImpl</title>
<path fill="none" stroke="#cc0000" d="M512.363,-248.318C512.031,-260.937 512.431,-274.504 513.563,-284.842"/>
<polygon fill="#cc0000" stroke="#cc0000" points="515.872,-248.175 512.814,-238.032 508.879,-247.869 515.872,-248.175"/>
</g>
<!-- taskmanApi&#45;&gt;taskmanApiImpl -->
<g id="edge20" class="edge"><title>taskmanApi&#45;&gt;taskmanApiImpl</title>
<path fill="none" stroke="#aaaaaa" stroke-dasharray="5,2" d="M525.186,-238.032C525.913,-249.558 525.937,-263.118 525.258,-274.779"/>
<polygon fill="#aaaaaa" stroke="#aaaaaa" points="524.437,-284.842 520.765,-274.509 524.844,-279.858 525.25,-274.875 525.25,-274.875 525.25,-274.875 524.844,-279.858 529.735,-275.241 524.437,-284.842 524.437,-284.842"/>
</g>
<!-- taskmanApi&#45;&gt;taskmanApiLogic -->
<g id="edge19" class="edge"><title>taskmanApi&#45;&gt;taskmanApiLogic</title>
<path fill="none" stroke="#aaaaaa" stroke-dasharray="5,2" d="M477.186,-230.001C461.646,-238.997 445.693,-251.536 437,-268 402.466,-333.404 452.355,-419.904 481.887,-461.933"/>
<polygon fill="#aaaaaa" stroke="#aaaaaa" points="487.842,-470.203 478.347,-464.718 484.92,-466.146 481.999,-462.088 481.999,-462.088 481.999,-462.088 484.92,-466.146 485.65,-459.459 487.842,-470.203 487.842,-470.203"/>
</g>
<!-- taskmanApiImpl&#45;&gt;baseDb -->
<g id="edge7" class="edge"><title>taskmanApiImpl&#45;&gt;baseDb</title>
<path fill="none" stroke="#cc0000" d="M541.741,-328.48C577.186,-366.636 644.615,-439.22 674.322,-471.199"/>
<polygon fill="#cc0000" stroke="#cc0000" points="544.059,-325.833 534.688,-320.888 538.93,-330.597 544.059,-325.833"/>
</g>
<!-- taskmanApiImpl&#45;&gt;baseTest -->
<g id="edge10" class="edge"><title>taskmanApiImpl&#45;&gt;baseTest</title>
<path fill="none" stroke="#111111" stroke-dasharray="5,2" d="M563.853,-322.797C581.225,-330.32 601.181,-339.265 619,-348 643.173,-359.851 670.119,-374.638 688.942,-385.234"/>
<polygon fill="#111111" stroke="#111111" points="565.068,-319.509 554.499,-318.773 562.302,-325.94 565.068,-319.509"/>
<text text-anchor="middle" x="657.5" y="-352.3" font-family="Times,serif" font-size="14.00">test</text>
</g>
<!-- taskmanApiImpl&#45;&gt;taskmanDb -->
<g id="edge9" class="edge"><title>taskmanApiImpl&#45;&gt;taskmanDb</title>
<path fill="none" stroke="#111111" stroke-dasharray="5,2" d="M475.803,-323.357C436.397,-341.016 378.88,-366.79 342.2,-383.226"/>
<polygon fill="#111111" stroke="#111111" points="477.714,-326.336 485.408,-319.053 474.851,-319.948 477.714,-326.336"/>
<text text-anchor="middle" x="429.5" y="-352.3" font-family="Times,serif" font-size="14.00">test</text>
</g>
<!-- taskmanApiImpl&#45;&gt;taskmanApiLogic -->
<g id="edge6" class="edge"><title>taskmanApiImpl&#45;&gt;taskmanApiLogic</title>
<path fill="none" stroke="#cc0000" d="M523.525,-331.285C526.848,-356.169 529.861,-393.845 524,-426 521.199,-441.366 514.735,-457.891 509.37,-469.861"/>
<polygon fill="#cc0000" stroke="#cc0000" points="526.953,-330.534 522.057,-321.138 520.025,-331.536 526.953,-330.534"/>
</g>
<!-- taskmanApiImpl&#45;&gt;taskmanApiLogic -->
<g id="edge8" class="edge"><title>taskmanApiImpl&#45;&gt;taskmanApiLogic</title>
<path fill="none" stroke="#111111" stroke-dasharray="5,2" d="M503.181,-329.834C495.106,-344.543 486.132,-363.648 482,-382 475.082,-412.724 485.731,-448.945 493.666,-469.814"/>
<polygon fill="#111111" stroke="#111111" points="506.387,-331.276 508.297,-320.855 500.305,-327.81 506.387,-331.276"/>
<text text-anchor="middle" x="501" y="-396.3" font-family="Times,serif" font-size="14.00">test&#45;lib</text>
</g>
<!-- taskmanApiLogic&#45;&gt;baseUtil -->
<g id="edge5" class="edge"><title>taskmanApiLogic&#45;&gt;baseUtil</title>
<path fill="none" stroke="#cc0000" d="M549.903,-506.993C590.89,-522.073 648.111,-543.126 682.745,-555.869"/>
<polygon fill="#cc0000" stroke="#cc0000" points="550.972,-503.657 540.379,-503.488 548.555,-510.226 550.972,-503.657"/>
</g>
<!-- taskman -->
<g id="node12" class="node"><title>taskman</title>
<ellipse fill="#ffff80" stroke="black" cx="519" cy="-119" rx="55.3091" ry="26.7407"/>
<text text-anchor="middle" x="519" y="-122.8" font-family="Times,serif" font-size="14.00">[aggregate]</text>
<text text-anchor="middle" x="519" y="-107.8" font-family="Times,serif" font-size="14.00">taskman</text>
</g>
<!-- taskman&#45;&gt;taskmanServer -->
<g id="edge25" class="edge"><title>taskman&#45;&gt;taskmanServer</title>
<path fill="none" stroke="#aaaaaa" stroke-dasharray="5,2" d="M473.211,-134.162C424.139,-149.339 345.91,-173.533 291.039,-190.503"/>
<polygon fill="#aaaaaa" stroke="#aaaaaa" points="281.42,-193.478 289.643,-186.225 286.196,-192.001 290.973,-190.524 290.973,-190.524 290.973,-190.524 286.196,-192.001 292.303,-194.823 281.42,-193.478 281.42,-193.478"/>
</g>
<!-- taskman&#45;&gt;taskmanApi -->
<g id="edge24" class="edge"><title>taskman&#45;&gt;taskmanApi</title>
<path fill="none" stroke="#aaaaaa" stroke-dasharray="5,2" d="M519,-146.032C519,-154.707 519,-164.534 519,-173.836"/>
<polygon fill="#aaaaaa" stroke="#aaaaaa" points="519,-184.027 514.5,-174.027 519,-179.027 519,-174.027 519,-174.027 519,-174.027 519,-179.027 523.5,-174.027 519,-184.027 519,-184.027"/>
</g>
<!-- root -->
<g id="node13" class="node"><title>root</title>
<ellipse fill="#cccccc" stroke="black" cx="713" cy="-27" rx="55.3091" ry="26.7407"/>
<text text-anchor="middle" x="713" y="-30.8" font-family="Times,serif" font-size="14.00">[aggregate]</text>
<text text-anchor="middle" x="713" y="-15.8" font-family="Times,serif" font-size="14.00">root</text>
</g>
<!-- root&#45;&gt;base -->
<g id="edge29" class="edge"><title>root&#45;&gt;base</title>
<path fill="none" stroke="#aaaaaa" stroke-dasharray="5,2" d="M713,-54.2723C713,-103.474 713,-209.586 713,-265.625"/>
<polygon fill="#aaaaaa" stroke="#aaaaaa" points="713,-275.807 708.5,-265.807 713,-270.807 713,-265.807 713,-265.807 713,-265.807 713,-270.807 717.5,-265.807 713,-275.807 713,-275.807"/>
</g>
<!-- root&#45;&gt;taskman -->
<g id="edge31" class="edge"><title>root&#45;&gt;taskman</title>
<path fill="none" stroke="#aaaaaa" stroke-dasharray="5,2" d="M673.741,-46.2128C643.107,-60.4246 600.392,-80.2407 567.6,-95.4535"/>
<polygon fill="#aaaaaa" stroke="#aaaaaa" points="558.2,-99.8142 565.378,-91.5237 562.736,-97.71 567.272,-95.6058 567.272,-95.6058 567.272,-95.6058 562.736,-97.71 569.166,-99.6879 558.2,-99.8142 558.2,-99.8142"/>
</g>
<!-- webapp -->
<g id="node14" class="node"><title>webapp</title>
<ellipse fill="#ffff80" stroke="black" cx="779" cy="-119" rx="38.1938" ry="18"/>
<text text-anchor="middle" x="779" y="-115.3" font-family="Times,serif" font-size="14.00">webapp</text>
</g>
<!-- root&#45;&gt;webapp -->
<g id="edge30" class="edge"><title>root&#45;&gt;webapp</title>
<path fill="none" stroke="#aaaaaa" stroke-dasharray="5,2" d="M731.035,-52.5929C740.338,-65.279 751.654,-80.7104 760.958,-93.3978"/>
<polygon fill="#aaaaaa" stroke="#aaaaaa" points="767.029,-101.676 757.486,-96.2727 764.072,-97.6436 761.115,-93.6115 761.115,-93.6115 761.115,-93.6115 764.072,-97.6436 764.744,-90.9504 767.029,-101.676 767.029,-101.676"/>
</g>
<!-- webapp&#45;&gt;baseDb -->
<g id="edge17" class="edge"><title>webapp&#45;&gt;baseDb</title>
<path fill="none" stroke="#cc0000" d="M789.957,-146.516C796.284,-164.186 803,-188.101 803,-210 803,-210 803,-210 803,-401 803,-442.278 754.777,-466.241 721.059,-477.951"/>
<polygon fill="#cc0000" stroke="#cc0000" points="793.134,-145.019 786.331,-136.896 786.584,-147.488 793.134,-145.019"/>
</g>
<!-- webapp&#45;&gt;taskmanApi -->
<g id="edge18" class="edge"><title>webapp&#45;&gt;taskmanApi</title>
<path fill="none" stroke="#cc0000" d="M739.645,-133.623C692.648,-149.891 614.184,-177.052 564.591,-194.219"/>
<polygon fill="#cc0000" stroke="#cc0000" points="740.87,-136.903 749.175,-130.324 738.58,-130.288 740.87,-136.903"/>
</g>
</g>
</svg>
