<?xml version="1.0" encoding="UTF-8" standalone="no"?>
<!DOCTYPE svg PUBLIC "-//W3C//DTD SVG 1.1//EN"
 "http://www.w3.org/Graphics/SVG/1.1/DTD/svg11.dtd">
<!-- Generated by graphviz version 2.36.0 (20140111.2315)
 -->
<!-- Title: G Pages: 1 -->
<svg width="350pt" height="260pt"
 viewBox="0.00 0.00 350.00 260.00" xmlns="http://www.w3.org/2000/svg" xmlns:xlink="http://www.w3.org/1999/xlink">
<g id="graph0" class="graph" transform="scale(1 1) rotate(0) translate(4 256)">
<title>G</title>
<polygon fill="white" stroke="none" points="-4,4 -4,-256 346,-256 346,4 -4,4"/>
<!-- base -->
<g id="node1" class="node"><title>base</title>
<ellipse fill="#bbffbb" stroke="black" cx="247" cy="-234" rx="27" ry="18"/>
<text text-anchor="middle" x="247" y="-230.3" font-family="Times,serif" font-size="14.00">base</text>
</g>
<!-- baseDb -->
<g id="node2" class="node"><title>baseDb</title>
<ellipse fill="#bbffbb" stroke="black" cx="304" cy="-90" rx="38.1938" ry="18"/>
<text text-anchor="middle" x="304" y="-86.3" font-family="Times,serif" font-size="14.00">base&#45;db</text>
</g>
<!-- baseDb&#45;&gt;base -->
<g id="edge1" class="edge"><title>baseDb&#45;&gt;base</title>
<path fill="none" stroke="black" d="M297.492,-117.926C292.755,-135.868 285.665,-159.777 277,-180 271.42,-193.023 263.462,-206.934 257.144,-217.235"/>
<polygon fill="black" stroke="black" points="300.912,-118.681 300.003,-108.125 294.131,-116.943 300.912,-118.681"/>
</g>
<!-- taskman -->
<g id="node3" class="node"><title>taskman</title>
<ellipse fill="#aaaaff" stroke="black" cx="194" cy="-18" rx="40.0939" ry="18"/>
<text text-anchor="middle" x="194" y="-14.3" font-family="Times,serif" font-size="14.00">taskman</text>
</g>
<!-- taskman&#45;&gt;baseDb -->
<g id="edge8" class="edge"><title>taskman&#45;&gt;baseDb</title>
<path fill="none" stroke="black" d="M224.814,-38.6092C243.061,-50.2208 265.743,-64.6545 282.148,-75.0944"/>
<polygon fill="black" stroke="black" points="226.576,-35.5815 216.26,-33.1655 222.818,-41.4872 226.576,-35.5815"/>
</g>
<!-- taskmanLogic -->
<g id="node4" class="node"><title>taskmanLogic</title>
<ellipse fill="#aaaaff" stroke="black" cx="61" cy="-90" rx="61.1893" ry="18"/>
<text text-anchor="middle" x="61" y="-86.3" font-family="Times,serif" font-size="14.00">taskman&#45;logic</text>
</g>
<!-- taskman&#45;&gt;taskmanLogic -->
<g id="edge6" class="edge"><title>taskman&#45;&gt;taskmanLogic</title>
<path fill="none" stroke="black" d="M160.06,-36.8631C138.261,-48.3365 110.264,-63.0717 89.5982,-73.9483"/>
<polygon fill="black" stroke="black" points="161.765,-39.9212 168.984,-32.1665 158.504,-33.7268 161.765,-39.9212"/>
</g>
<!-- taskmanApi -->
<g id="node5" class="node"><title>taskmanApi</title>
<ellipse fill="#ddf8ff" stroke="black" cx="194" cy="-90" rx="53.8905" ry="18"/>
<text text-anchor="middle" x="194" y="-86.3" font-family="Times,serif" font-size="14.00">taskman&#45;api</text>
</g>
<!-- taskman&#45;&gt;taskmanApi -->
<g id="edge7" class="edge"><title>taskman&#45;&gt;taskmanApi</title>
<path fill="none" stroke="black" d="M194,-46.3349C194,-54.9463 194,-64.2087 194,-71.8957"/>
<polygon fill="black" stroke="black" points="197.5,-46.3033 194,-36.3034 190.5,-46.3034 197.5,-46.3033"/>
</g>
<!-- taskmanApiLogic -->
<g id="node6" class="node"><title>taskmanApiLogic</title>
<ellipse fill="#ddf8ff" stroke="black" cx="194" cy="-162" rx="74.9875" ry="18"/>
<text text-anchor="middle" x="194" y="-158.3" font-family="Times,serif" font-size="14.00">taskman&#45;api&#45;logic</text>
</g>
<!-- taskmanLogic&#45;&gt;taskmanApiLogic -->
<g id="edge9" class="edge"><title>taskmanLogic&#45;&gt;taskmanApiLogic</title>
<path fill="none" stroke="black" d="M98.4128,-110.691C119.195,-121.629 144.697,-135.051 164.131,-145.28"/>
<polygon fill="black" stroke="black" points="100.011,-107.577 89.5318,-106.017 96.7509,-113.771 100.011,-107.577"/>
</g>
<!-- taskmanApi&#45;&gt;taskmanApiLogic -->
<g id="edge4" class="edge"><title>taskmanApi&#45;&gt;taskmanApiLogic</title>
<path fill="none" stroke="black" d="M194,-118.335C194,-126.946 194,-136.209 194,-143.896"/>
<polygon fill="black" stroke="black" points="197.5,-118.303 194,-108.303 190.5,-118.303 197.5,-118.303"/>
</g>
<!-- taskmanApiLogic&#45;&gt;base -->
<g id="edge5" class="edge"><title>taskmanApiLogic&#45;&gt;base</title>
<path fill="none" stroke="black" d="M212.869,-187.921C220.379,-197.84 228.783,-208.94 235.373,-217.644"/>
<polygon fill="black" stroke="black" points="215.657,-185.805 206.83,-179.945 210.076,-190.03 215.657,-185.805"/>
</g>
<!-- webapp -->
<g id="node7" class="node"><title>webapp</title>
<ellipse fill="#ffbbbb" stroke="black" cx="297" cy="-18" rx="38.1938" ry="18"/>
<text text-anchor="middle" x="297" y="-14.3" font-family="Times,serif" font-size="14.00">webapp</text>
</g>
<!-- webapp&#45;&gt;baseDb -->
<g id="edge2" class="edge"><title>webapp&#45;&gt;baseDb</title>
<path fill="none" stroke="black" d="M299.733,-46.3349C300.595,-54.9463 301.521,-64.2087 302.29,-71.8957"/>
<polygon fill="black" stroke="black" points="303.208,-45.9055 298.73,-36.3034 296.243,-46.602 303.208,-45.9055"/>
</g>
<!-- webapp&#45;&gt;taskmanApi -->
<g id="edge3" class="edge"><title>webapp&#45;&gt;taskmanApi</title>
<path fill="none" stroke="black" d="M267.578,-38.9952C251.376,-50.0067 231.577,-63.4624 216.6,-73.6409"/>
<polygon fill="black" stroke="black" points="269.853,-41.6813 276.156,-33.1655 265.918,-35.8917 269.853,-41.6813"/>
</g>
</g>
</svg>
