<?xml version="1.0" encoding="UTF-8" standalone="no"?>
<!DOCTYPE svg PUBLIC "-//W3C//DTD SVG 1.1//EN"
 "http://www.w3.org/Graphics/SVG/1.1/DTD/svg11.dtd">
<!-- Generated by graphviz version 2.36.0 (20140111.2315)
 -->
<!-- Title: G Pages: 1 -->
<svg width="824pt" height="614pt"
 viewBox="0.00 0.00 824.00 614.00" xmlns="http://www.w3.org/2000/svg" xmlns:xlink="http://www.w3.org/1999/xlink">
<g id="graph0" class="graph" transform="scale(1 1) rotate(0) translate(4 610)">
<title>G</title>
<polygon fill="white" stroke="none" points="-4,4 -4,-610 820,-610 820,4 -4,4"/>
<g id="clust1" class="cluster"><title>cluster_base</title>
<polygon fill="#f4fff4" stroke="black" points="682,-360 682,-598 808,-598 808,-360 682,-360"/>
</g>
<g id="clust2" class="cluster"><title>cluster_t</title>
<polygon fill="#eeeeff" stroke="black" points="8,-84 8,-526 621,-526 621,-84 8,-84"/>
</g>
<g id="clust3" class="cluster"><title>cluster_ts</title>
<polygon fill="white" stroke="black" points="16,-176 16,-421 410,-421 410,-176 16,-176"/>
</g>
<g id="clust4" class="cluster"><title>cluster_ta</title>
<polygon fill="white" stroke="black" points="431,-268 431,-518 613,-518 613,-268 431,-268"/>
</g>
<!-- base -->
<g id="node1" class="node"><title>base</title>
<ellipse fill="#cccccc" stroke="black" cx="745" cy="-395" rx="55.3091" ry="26.7407"/>
<text text-anchor="middle" x="745" y="-398.8" font-family="Times,serif" font-size="14.00">[aggregate]</text>
<text text-anchor="middle" x="745" y="-383.8" font-family="Times,serif" font-size="14.00">base</text>
</g>
<!-- baseUtil -->
<g id="node2" class="node"><title>baseUtil</title>
<ellipse fill="#bbffbb" stroke="black" cx="731" cy="-572" rx="40.8928" ry="18"/>
<text text-anchor="middle" x="731" y="-568.3" font-family="Times,serif" font-size="14.00">base&#45;util</text>
</g>
<!-- base&#45;&gt;baseUtil -->
<g id="edge23" class="edge"><title>base&#45;&gt;baseUtil</title>
<path fill="none" stroke="#aaaaaa" stroke-dasharray="5,2" d="M759.644,-421.162C773.193,-447.895 789.252,-491.038 775,-526 771.502,-534.581 765.492,-542.416 759.019,-549.057"/>
<polygon fill="#aaaaaa" stroke="#aaaaaa" points="751.33,-556.277 755.539,-546.151 754.975,-552.854 758.62,-549.432 758.62,-549.432 758.62,-549.432 754.975,-552.854 761.7,-552.712 751.33,-556.277 751.33,-556.277"/>
</g>
<!-- baseDb -->
<g id="node3" class="node"><title>baseDb</title>
<ellipse fill="#bbffbb" stroke="black" cx="728" cy="-492" rx="38.1938" ry="18"/>
<text text-anchor="middle" x="728" y="-488.3" font-family="Times,serif" font-size="14.00">base&#45;db</text>
</g>
<!-- base&#45;&gt;baseDb -->
<g id="edge24" class="edge"><title>base&#45;&gt;baseDb</title>
<path fill="none" stroke="#aaaaaa" stroke-dasharray="5,2" d="M740.355,-421.959C738.028,-434.964 735.211,-450.701 732.856,-463.865"/>
<polygon fill="#aaaaaa" stroke="#aaaaaa" points="731.083,-473.769 728.415,-463.132 731.964,-468.847 732.845,-463.925 732.845,-463.925 732.845,-463.925 731.964,-468.847 737.275,-464.718 731.083,-473.769 731.083,-473.769"/>
</g>
<!-- baseDb&#45;&gt;baseUtil -->
<g id="edge1" class="edge"><title>baseDb&#45;&gt;baseUtil</title>
<path fill="none" stroke="black" d="M729.053,-520.39C729.48,-531.481 729.96,-543.951 730.336,-553.738"/>
<polygon fill="black" stroke="black" points="732.548,-520.169 728.666,-510.311 725.553,-520.438 732.548,-520.169"/>
</g>
<!-- taskmanDb -->
<g id="node4" class="node"><title>taskmanDb</title>
<ellipse fill="#aaaaff" stroke="black" cx="307" cy="-395" rx="94.7833" ry="18"/>
<text text-anchor="middle" x="307" y="-391.3" font-family="Times,serif" font-size="14.00">taskman&#45;server&#45;schema</text>
</g>
<!-- taskmanDb&#45;&gt;baseDb -->
<g id="edge2" class="edge"><title>taskmanDb&#45;&gt;baseDb</title>
<path fill="none" stroke="black" d="M373.011,-411.777C390.487,-415.548 409.391,-419.268 427,-422 510.82,-435.004 536.138,-414.383 617,-440 630.664,-444.329 632.151,-449.648 645,-456 662.664,-464.732 683.047,-473.347 699.193,-479.845"/>
<polygon fill="black" stroke="black" points="373.425,-408.284 362.907,-409.557 371.923,-415.121 373.425,-408.284"/>
</g>
<!-- taskmanServerImpl -->
<g id="node5" class="node"><title>taskmanServerImpl</title>
<ellipse fill="#aaaaff" stroke="black" cx="268" cy="-303" rx="84.485" ry="18"/>
<text text-anchor="middle" x="268" y="-299.3" font-family="Times,serif" font-size="14.00">taskman&#45;server&#45;impl</text>
</g>
<!-- taskmanServerImpl&#45;&gt;taskmanDb -->
<g id="edge12" class="edge"><title>taskmanServerImpl&#45;&gt;taskmanDb</title>
<path fill="none" stroke="black" d="M279.549,-330.651C286.05,-345.655 293.975,-363.943 299.636,-377.006"/>
<polygon fill="black" stroke="black" points="282.707,-329.137 275.52,-321.353 276.284,-331.92 282.707,-329.137"/>
</g>
<!-- taskmanServerLogic -->
<g id="node6" class="node"><title>taskmanServerLogic</title>
<ellipse fill="#aaaaff" stroke="black" cx="109" cy="-395" rx="85.2851" ry="18"/>
<text text-anchor="middle" x="109" y="-391.3" font-family="Times,serif" font-size="14.00">taskman&#45;server&#45;logic</text>
</g>
<!-- taskmanServerImpl&#45;&gt;taskmanServerLogic -->
<g id="edge10" class="edge"><title>taskmanServerImpl&#45;&gt;taskmanServerLogic</title>
<path fill="none" stroke="black" d="M230.705,-325.11C202.196,-341.248 163.489,-363.157 137.448,-377.898"/>
<polygon fill="black" stroke="black" points="232.596,-328.062 239.574,-320.09 229.147,-321.97 232.596,-328.062"/>
</g>
<!-- taskmanApi -->
<g id="node8" class="node"><title>taskmanApi</title>
<ellipse fill="#cccccc" stroke="black" cx="512" cy="-303" rx="58.8803" ry="26.7407"/>
<text text-anchor="middle" x="512" y="-306.8" font-family="Times,serif" font-size="14.00">[aggregate]</text>
<text text-anchor="middle" x="512" y="-291.8" font-family="Times,serif" font-size="14.00">taskman&#45;api</text>
</g>
<!-- taskmanServerImpl&#45;&gt;taskmanApi -->
<g id="edge11" class="edge"><title>taskmanServerImpl&#45;&gt;taskmanApi</title>
<path fill="none" stroke="black" d="M362.612,-303C392.868,-303 423.123,-303 453.379,-303"/>
<polygon fill="black" stroke="black" points="362.352,-299.5 352.352,-303 362.352,-306.5 362.352,-299.5"/>
</g>
<!-- taskmanApiLogic -->
<g id="node10" class="node"><title>taskmanApiLogic</title>
<ellipse fill="#cceeff" stroke="black" cx="530" cy="-492" rx="74.9875" ry="18"/>
<text text-anchor="middle" x="530" y="-488.3" font-family="Times,serif" font-size="14.00">taskman&#45;api&#45;logic</text>
</g>
<!-- taskmanServerLogic&#45;&gt;taskmanApiLogic -->
<g id="edge9" class="edge"><title>taskmanServerLogic&#45;&gt;taskmanApiLogic</title>
<path fill="none" stroke="black" d="M166.973,-412.64C178.855,-415.88 191.304,-419.151 203,-422 297.425,-444.998 408.276,-467.44 473.635,-480.208"/>
<polygon fill="black" stroke="black" points="167.724,-409.217 157.154,-409.936 165.866,-415.965 167.724,-409.217"/>
</g>
<!-- taskmanServer -->
<g id="node7" class="node"><title>taskmanServer</title>
<ellipse fill="#cccccc" stroke="black" cx="268" cy="-211" rx="70.922" ry="26.7407"/>
<text text-anchor="middle" x="268" y="-214.8" font-family="Times,serif" font-size="14.00">[aggregate]</text>
<text text-anchor="middle" x="268" y="-199.8" font-family="Times,serif" font-size="14.00">taskman&#45;server</text>
</g>
<!-- taskmanServer&#45;&gt;taskmanDb -->
<g id="edge20" class="edge"><title>taskmanServer&#45;&gt;taskmanDb</title>
<path fill="none" stroke="#aaaaaa" stroke-dasharray="5,2" d="M318.205,-230.245C334.856,-238.974 351.542,-251.264 361,-268 374.558,-291.99 370.46,-304.119 361,-330 355.485,-345.088 344.67,-359.075 334.158,-370.1"/>
<polygon fill="#aaaaaa" stroke="#aaaaaa" points="326.998,-377.237 330.904,-366.99 330.539,-373.707 334.081,-370.177 334.081,-370.177 334.081,-370.177 330.539,-373.707 337.257,-373.365 326.998,-377.237 326.998,-377.237"/>
</g>
<!-- taskmanServer&#45;&gt;taskmanServerImpl -->
<g id="edge13" class="edge"><title>taskmanServer&#45;&gt;taskmanServerImpl</title>
<path fill="none" stroke="black" d="M261.363,-248.318C261.031,-260.937 261.431,-274.504 262.563,-284.842"/>
<polygon fill="black" stroke="black" points="264.872,-248.175 261.814,-238.032 257.879,-247.869 264.872,-248.175"/>
</g>
<!-- taskmanServer&#45;&gt;taskmanServerImpl -->
<g id="edge19" class="edge"><title>taskmanServer&#45;&gt;taskmanServerImpl</title>
<path fill="none" stroke="#aaaaaa" stroke-dasharray="5,2" d="M274.186,-238.032C274.913,-249.558 274.937,-263.118 274.258,-274.779"/>
<polygon fill="#aaaaaa" stroke="#aaaaaa" points="273.437,-284.842 269.765,-274.509 273.844,-279.858 274.25,-274.875 274.25,-274.875 274.25,-274.875 273.844,-279.858 278.735,-275.241 273.437,-284.842 273.437,-284.842"/>
</g>
<!-- taskmanServer&#45;&gt;taskmanServerLogic -->
<g id="edge18" class="edge"><title>taskmanServer&#45;&gt;taskmanServerLogic</title>
<path fill="none" stroke="#aaaaaa" stroke-dasharray="5,2" d="M223.74,-232.172C206.999,-241.36 188.7,-253.46 175,-268 147.671,-297.005 128.569,-339.514 118.183,-366.974"/>
<polygon fill="#aaaaaa" stroke="#aaaaaa" points="114.63,-376.702 113.834,-365.765 116.346,-372.005 118.061,-367.309 118.061,-367.309 118.061,-367.309 116.346,-372.005 122.288,-368.852 114.63,-376.702 114.63,-376.702"/>
</g>
<!-- taskmanApiImpl -->
<g id="node9" class="node"><title>taskmanApiImpl</title>
<ellipse fill="#cceeff" stroke="black" cx="512" cy="-395" rx="73.387" ry="18"/>
<text text-anchor="middle" x="512" y="-391.3" font-family="Times,serif" font-size="14.00">taskman&#45;api&#45;impl</text>
</g>
<!-- taskmanApi&#45;&gt;taskmanApiImpl -->
<g id="edge8" class="edge"><title>taskmanApi&#45;&gt;taskmanApiImpl</title>
<path fill="none" stroke="black" d="M505.363,-340.318C505.031,-352.937 505.431,-366.504 506.563,-376.842"/>
<polygon fill="black" stroke="black" points="508.872,-340.175 505.814,-330.032 501.879,-339.869 508.872,-340.175"/>
</g>
<!-- taskmanApi&#45;&gt;taskmanApiImpl -->
<g id="edge17" class="edge"><title>taskmanApi&#45;&gt;taskmanApiImpl</title>
<path fill="none" stroke="#aaaaaa" stroke-dasharray="5,2" d="M518.186,-330.032C518.913,-341.558 518.937,-355.118 518.258,-366.779"/>
<polygon fill="#aaaaaa" stroke="#aaaaaa" points="517.437,-376.842 513.765,-366.509 517.844,-371.858 518.25,-366.875 518.25,-366.875 518.25,-366.875 517.844,-371.858 522.735,-367.241 517.437,-376.842 517.437,-376.842"/>
</g>
<!-- taskmanApi&#45;&gt;taskmanApiLogic -->
<g id="edge16" class="edge"><title>taskmanApi&#45;&gt;taskmanApiLogic</title>
<path fill="none" stroke="#aaaaaa" stroke-dasharray="5,2" d="M553.814,-322.001C569.354,-330.997 585.307,-343.536 594,-360 606.866,-384.367 604.065,-396.348 594,-422 586.966,-439.927 572.842,-455.974 559.648,-468.071"/>
<polygon fill="#aaaaaa" stroke="#aaaaaa" points="552.048,-474.721 556.61,-464.749 555.81,-471.428 559.573,-468.136 559.573,-468.136 559.573,-468.136 555.81,-471.428 562.537,-471.522 552.048,-474.721 552.048,-474.721"/>
</g>
<!-- taskmanApiImpl&#45;&gt;baseDb -->
<g id="edge5" class="edge"><title>taskmanApiImpl&#45;&gt;baseDb</title>
<path fill="none" stroke="black" d="M567.783,-412.057C591.145,-419.501 618.32,-429.117 642,-440 648.506,-442.99 682.352,-463.312 705.592,-477.382"/>
<polygon fill="black" stroke="black" points="568.614,-408.65 558.025,-409.002 566.523,-415.33 568.614,-408.65"/>
</g>
<!-- taskmanApiImpl&#45;&gt;taskmanDb -->
<g id="edge7" class="edge"><title>taskmanApiImpl&#45;&gt;taskmanDb</title>
<path fill="none" stroke="black" stroke-dasharray="5,2" d="M428.358,-395C419.573,-395 410.597,-395 401.699,-395"/>
<polygon fill="black" stroke="black" points="428.567,-398.5 438.567,-395 428.567,-391.5 428.567,-398.5"/>
<text text-anchor="middle" x="419.778" y="-380.8" font-family="Times,serif" font-size="14.00">test</text>
</g>
<!-- taskmanApiImpl&#45;&gt;taskmanApiLogic -->
<g id="edge4" class="edge"><title>taskmanApiImpl&#45;&gt;taskmanApiLogic</title>
<path fill="none" stroke="black" d="M530.179,-421.611C533.405,-427.404 536.28,-433.709 538,-440 541.025,-451.066 539.025,-463.816 536.269,-473.799"/>
<polygon fill="black" stroke="black" points="533.128,-419.724 524.937,-413.004 527.15,-423.366 533.128,-419.724"/>
</g>
<!-- taskmanApiImpl&#45;&gt;taskmanApiLogic -->
<g id="edge6" class="edge"><title>taskmanApiImpl&#45;&gt;taskmanApiLogic</title>
<path fill="none" stroke="black" stroke-dasharray="5,2" d="M497.746,-422.17C493.784,-432.857 491.624,-445.216 496,-456 498.803,-462.908 503.696,-469.202 508.912,-474.489"/>
<polygon fill="black" stroke="black" points="500.99,-423.485 501.755,-412.918 494.567,-420.702 500.99,-423.485"/>
<text text-anchor="middle" x="515" y="-444.3" font-family="Times,serif" font-size="14.00">test&#45;lib</text>
</g>
<!-- taskmanApiLogic&#45;&gt;baseUtil -->
<g id="edge3" class="edge"><title>taskmanApiLogic&#45;&gt;baseUtil</title>
<path fill="none" stroke="black" d="M577.254,-511.337C615.737,-526.271 668.866,-546.888 701.526,-559.562"/>
<polygon fill="black" stroke="black" points="578.395,-508.026 567.807,-507.671 575.863,-514.552 578.395,-508.026"/>
</g>
<!-- taskman -->
<g id="node11" class="node"><title>taskman</title>
<ellipse fill="#cccccc" stroke="black" cx="512" cy="-119" rx="55.3091" ry="26.7407"/>
<text text-anchor="middle" x="512" y="-122.8" font-family="Times,serif" font-size="14.00">[aggregate]</text>
<text text-anchor="middle" x="512" y="-107.8" font-family="Times,serif" font-size="14.00">taskman</text>
</g>
<!-- taskman&#45;&gt;taskmanServer -->
<g id="edge22" class="edge"><title>taskman&#45;&gt;taskmanServer</title>
<path fill="none" stroke="#aaaaaa" stroke-dasharray="5,2" d="M465.684,-133.712C431.218,-144.287 383.212,-159.804 342,-176 334.783,-178.836 327.262,-182.018 319.899,-185.266"/>
<polygon fill="#aaaaaa" stroke="#aaaaaa" points="310.691,-189.396 317.973,-181.198 315.253,-187.35 319.815,-185.304 319.815,-185.304 319.815,-185.304 315.253,-187.35 321.657,-189.41 310.691,-189.396 310.691,-189.396"/>
</g>
<!-- taskman&#45;&gt;taskmanApi -->
<g id="edge21" class="edge"><title>taskman&#45;&gt;taskmanApi</title>
<path fill="none" stroke="#aaaaaa" stroke-dasharray="5,2" d="M512,-146.076C512,-177.431 512,-230.242 512,-265.602"/>
<polygon fill="#aaaaaa" stroke="#aaaaaa" points="512,-275.972 507.5,-265.972 512,-270.972 512,-265.972 512,-265.972 512,-265.972 512,-270.972 516.5,-265.972 512,-275.972 512,-275.972"/>
</g>
<!-- root -->
<g id="node12" class="node"><title>root</title>
<ellipse fill="#cccccc" stroke="black" cx="667" cy="-27" rx="55.3091" ry="26.7407"/>
<text text-anchor="middle" x="667" y="-30.8" font-family="Times,serif" font-size="14.00">[aggregate]</text>
<text text-anchor="middle" x="667" y="-15.8" font-family="Times,serif" font-size="14.00">root</text>
</g>
<!-- root&#45;&gt;base -->
<g id="edge25" class="edge"><title>root&#45;&gt;base</title>
<path fill="none" stroke="#aaaaaa" stroke-dasharray="5,2" d="M697.093,-49.6204C716.065,-65.969 737,-90.2874 737,-118 737,-118 737,-118 737,-304 737,-321.758 738.564,-341.409 740.309,-357.807"/>
<polygon fill="#aaaaaa" stroke="#aaaaaa" points="741.468,-368.061 735.874,-358.629 740.906,-363.092 740.345,-358.124 740.345,-358.124 740.345,-358.124 740.906,-363.092 744.817,-357.619 741.468,-368.061 741.468,-368.061"/>
</g>
<!-- root&#45;&gt;taskman -->
<g id="edge27" class="edge"><title>root&#45;&gt;taskman</title>
<path fill="none" stroke="#aaaaaa" stroke-dasharray="5,2" d="M632.215,-48.1978C609.48,-61.3989 579.612,-78.7412 555.336,-92.837"/>
<polygon fill="#aaaaaa" stroke="#aaaaaa" points="546.669,-97.8697 553.057,-88.9567 550.993,-95.359 555.317,-92.8482 555.317,-92.8482 555.317,-92.8482 550.993,-95.359 557.576,-96.7398 546.669,-97.8697 546.669,-97.8697"/>
</g>
<!-- webapp -->
<g id="node13" class="node"><title>webapp</title>
<ellipse fill="#ffff80" stroke="black" cx="667" cy="-211" rx="38.1938" ry="18"/>
<text text-anchor="middle" x="667" y="-207.3" font-family="Times,serif" font-size="14.00">webapp</text>
</g>
<!-- root&#45;&gt;webapp -->
<g id="edge26" class="edge"><title>root&#45;&gt;webapp</title>
<path fill="none" stroke="#aaaaaa" stroke-dasharray="5,2" d="M667,-54.0762C667,-88.1337 667,-147.507 667,-182.333"/>
<polygon fill="#aaaaaa" stroke="#aaaaaa" points="667,-192.714 662.5,-182.714 667,-187.714 667,-182.714 667,-182.714 667,-182.714 667,-187.714 671.5,-182.714 667,-192.714 667,-192.714"/>
</g>
<!-- webapp&#45;&gt;baseDb -->
<g id="edge14" class="edge"><title>webapp&#45;&gt;baseDb</title>
<path fill="none" stroke="black" d="M664.361,-239.211C661.368,-280.129 659.392,-359.378 681,-422 687.95,-442.141 702.415,-461.903 713.474,-475.079"/>
<polygon fill="black" stroke="black" points="667.853,-239.449 665.171,-229.199 660.876,-238.884 667.853,-239.449"/>
</g>
<!-- webapp&#45;&gt;taskmanApi -->
<g id="edge15" class="edge"><title>webapp&#45;&gt;taskmanApi</title>
<path fill="none" stroke="black" d="M636.233,-231.236C632.462,-233.537 628.652,-235.836 625,-238 599.589,-253.054 570.595,-269.46 548.339,-281.892"/>
<polygon fill="black" stroke="black" points="638.182,-234.147 644.865,-225.926 634.514,-228.184 638.182,-234.147"/>
</g>
</g>
</svg>
