<?xml version="1.0" encoding="UTF-8" standalone="no"?>
<!DOCTYPE svg PUBLIC "-//W3C//DTD SVG 1.1//EN"
 "http://www.w3.org/Graphics/SVG/1.1/DTD/svg11.dtd">
<!-- Generated by graphviz version 2.38.0 (20140413.2041)
 -->
<!-- Title: G Pages: 1 -->
<svg width="1418pt" height="503pt"
 viewBox="0.00 0.00 1418.49 503.12" xmlns="http://www.w3.org/2000/svg" xmlns:xlink="http://www.w3.org/1999/xlink">
<g id="graph0" class="graph" transform="scale(1 1) rotate(0) translate(4 499.12)">
<title>G</title>
<polygon fill="white" stroke="none" points="-4,4 -4,-499.12 1414.49,-499.12 1414.49,4 -4,4"/>
<!-- removeS -->
<g id="node1" class="node"><title>removeS</title>
<ellipse fill="none" stroke="black" cx="140.714" cy="-58.6899" rx="140.929" ry="26.7407"/>
<text text-anchor="middle" x="140.714" y="-62.4899" font-family="Times,serif" font-size="14.00">Remove from server:</text>
<text text-anchor="middle" x="140.714" y="-47.4899" font-family="Times,serif" font-size="14.00">UnsafeTypes, ProjectDSL</text>
</g>
<!-- template -->
<g id="node2" class="node"><title>template</title>
<ellipse fill="none" stroke="black" cx="414.714" cy="-58.6899" rx="115.88" ry="18"/>
<text text-anchor="middle" x="414.714" y="-54.9899" font-family="Times,serif" font-size="14.00">Create template event</text>
</g>
<!-- nowip -->
<g id="node3" class="node"><title>nowip</title>
<ellipse fill="#ffcccc" stroke="black" cx="414.714" cy="-171.38" rx="147.574" ry="18"/>
<text text-anchor="middle" x="414.714" y="-167.68" font-family="Times,serif" font-size="14.00">Change WIP into real service</text>
</g>
<!-- nowip&#45;&gt;removeS -->
<g id="edge14" class="edge"><title>nowip&#45;&gt;removeS</title>
<path fill="none" stroke="black" d="M374.285,-154.047C330.701,-136.44 260.587,-108.116 208.536,-87.0883"/>
<polygon fill="black" stroke="black" points="209.62,-83.7517 199.037,-83.2511 206.998,-90.2421 209.62,-83.7517"/>
</g>
<!-- nowip&#45;&gt;template -->
<g id="edge4" class="edge"><title>nowip&#45;&gt;template</title>
<path fill="none" stroke="black" d="M414.714,-153.084C414.714,-135.376 414.714,-107.595 414.714,-86.9305"/>
<polygon fill="black" stroke="black" points="418.214,-86.8637 414.714,-76.8637 411.214,-86.8637 418.214,-86.8637"/>
</g>
<!-- tp -->
<g id="node4" class="node"><title>tp</title>
<ellipse fill="#ffcccc" stroke="black" cx="650.714" cy="-58.6899" rx="102.082" ry="18"/>
<text text-anchor="middle" x="650.714" y="-54.9899" font-family="Times,serif" font-size="14.00">Trim .protocol code</text>
</g>
<!-- nwo -->
<g id="node5" class="node"><title>nwo</title>
<ellipse fill="#ffcccc" stroke="black" cx="974.714" cy="-58.6899" rx="204.208" ry="58.8803"/>
<text text-anchor="middle" x="974.714" y="-84.9899" font-family="Times,serif" font-size="14.00">Refactor new world:</text>
<text text-anchor="middle" x="974.714" y="-69.9899" font-family="Times,serif" font-size="14.00">.event</text>
<text text-anchor="middle" x="974.714" y="-54.9899" font-family="Times,serif" font-size="14.00">.protocol</text>
<text text-anchor="middle" x="974.714" y="-39.9899" font-family="Times,serif" font-size="14.00">ClientData, Changes, ChangeListener</text>
<text text-anchor="middle" x="974.714" y="-24.9899" font-family="Times,serif" font-size="14.00">UpdateProject</text>
</g>
<!-- remove -->
<g id="node6" class="node"><title>remove</title>
<ellipse fill="#ddffcc" stroke="black" cx="845.714" cy="-171.38" rx="137.576" ry="18"/>
<text text-anchor="middle" x="845.714" y="-167.68" font-family="Times,serif" font-size="14.00">Remove Δ, δ, Rev, Partition</text>
</g>
<!-- remove&#45;&gt;tp -->
<g id="edge7" class="edge"><title>remove&#45;&gt;tp</title>
<path fill="none" stroke="black" d="M816.098,-153.568C782.015,-134.222 725.963,-102.404 688.697,-81.2506"/>
<polygon fill="black" stroke="black" points="690.077,-78.0093 679.653,-76.1166 686.622,-84.097 690.077,-78.0093"/>
</g>
<!-- remove&#45;&gt;nwo -->
<g id="edge15" class="edge"><title>remove&#45;&gt;nwo</title>
<path fill="none" stroke="black" d="M865.588,-153.327C875.904,-144.475 889.208,-133.06 902.957,-121.262"/>
<polygon fill="black" stroke="black" points="905.315,-123.85 910.625,-114.682 900.757,-118.538 905.315,-123.85"/>
</g>
<!-- rpadt -->
<g id="node14" class="node"><title>rpadt</title>
<ellipse fill="#ddffcc" stroke="black" cx="1303.71" cy="-58.6899" rx="106.547" ry="26.7407"/>
<text text-anchor="middle" x="1303.71" y="-62.4899" font-family="Times,serif" font-size="14.00">Restore pickleADT</text>
<text text-anchor="middle" x="1303.71" y="-47.4899" font-family="Times,serif" font-size="14.00">to Protocol codecs</text>
</g>
<!-- remove&#45;&gt;rpadt -->
<g id="edge8" class="edge"><title>remove&#45;&gt;rpadt</title>
<path fill="none" stroke="black" d="M960.955,-161.432C1028.25,-154.02 1114.13,-140.758 1187.71,-117.38 1210.49,-110.145 1234.33,-98.9806 1254.44,-88.3937"/>
<polygon fill="black" stroke="black" points="1256.24,-91.3987 1263.4,-83.5864 1252.94,-85.2306 1256.24,-91.3987"/>
</g>
<!-- allve -->
<g id="node7" class="node"><title>allve</title>
<ellipse fill="#ddffcc" stroke="black" cx="694.714" cy="-243.38" rx="228.56" ry="18"/>
<text text-anchor="middle" x="694.714" y="-239.68" font-family="Times,serif" font-size="14.00">All RemoteFns use VerifiedEvents instead of Δ</text>
</g>
<!-- allve&#45;&gt;nowip -->
<g id="edge11" class="edge"><title>allve&#45;&gt;nowip</title>
<path fill="none" stroke="black" d="M629.42,-226.056C586.453,-215.314 530.209,-201.253 486.065,-190.218"/>
<polygon fill="black" stroke="black" points="486.819,-186.798 476.268,-187.768 485.121,-193.589 486.819,-186.798"/>
</g>
<!-- allve&#45;&gt;remove -->
<g id="edge10" class="edge"><title>allve&#45;&gt;remove</title>
<path fill="none" stroke="black" d="M731.267,-225.435C752.27,-215.698 778.809,-203.395 801.042,-193.088"/>
<polygon fill="black" stroke="black" points="802.678,-196.188 810.279,-188.807 799.734,-189.837 802.678,-196.188"/>
</g>
<!-- bc -->
<g id="node8" class="node"><title>bc</title>
<ellipse fill="#ddffcc" stroke="black" cx="875.714" cy="-324.25" rx="227.877" ry="26.7407"/>
<text text-anchor="middle" x="875.714" y="-328.05" font-family="Times,serif" font-size="14.00">Change broadcast from δ</text>
<text text-anchor="middle" x="875.714" y="-313.05" font-family="Times,serif" font-size="14.00">Either each listener scans events or new δ</text>
</g>
<!-- bc&#45;&gt;allve -->
<g id="edge13" class="edge"><title>bc&#45;&gt;allve</title>
<path fill="none" stroke="black" d="M817.947,-298.078C793.669,-287.499 765.758,-275.337 742.645,-265.265"/>
<polygon fill="black" stroke="black" points="743.952,-262.017 733.386,-261.231 741.156,-268.434 743.952,-262.017"/>
</g>
<!-- wip2 -->
<g id="node9" class="node"><title>wip2</title>
<ellipse fill="#ddffcc" stroke="black" cx="414.714" cy="-324.25" rx="215.562" ry="18"/>
<text text-anchor="middle" x="414.714" y="-320.55" font-family="Times,serif" font-size="14.00">WIP to use UpdateProject &amp; VerifiedEvents</text>
</g>
<!-- wip2&#45;&gt;nowip -->
<g id="edge6" class="edge"><title>wip2&#45;&gt;nowip</title>
<path fill="none" stroke="black" d="M414.714,-306.236C414.714,-280.317 414.714,-230.686 414.714,-199.683"/>
<polygon fill="black" stroke="black" points="418.214,-199.562 414.714,-189.562 411.214,-199.563 418.214,-199.562"/>
</g>
<!-- wip2&#45;&gt;allve -->
<g id="edge12" class="edge"><title>wip2&#45;&gt;allve</title>
<path fill="none" stroke="black" d="M472.73,-306.908C517.445,-294.313 579.386,-276.865 626.479,-263.6"/>
<polygon fill="black" stroke="black" points="627.615,-266.916 636.291,-260.836 625.717,-260.179 627.615,-266.916"/>
</g>
<!-- svetcl -->
<g id="node10" class="node"><title>svetcl</title>
<ellipse fill="#ddffcc" stroke="black" cx="804.714" cy="-405.12" rx="149.473" ry="18"/>
<text text-anchor="middle" x="804.714" y="-401.42" font-family="Times,serif" font-size="14.00">Send VerifiedEvents to Client</text>
</g>
<!-- svetcl&#45;&gt;bc -->
<g id="edge9" class="edge"><title>svetcl&#45;&gt;bc</title>
<path fill="none" stroke="black" d="M820.12,-387.006C827.586,-378.713 836.821,-368.455 845.604,-358.698"/>
<polygon fill="black" stroke="black" points="848.42,-360.801 852.509,-351.027 843.217,-356.118 848.42,-360.801"/>
</g>
<!-- svetcl&#45;&gt;wip2 -->
<g id="edge5" class="edge"><title>svetcl&#45;&gt;wip2</title>
<path fill="none" stroke="black" d="M731.816,-389.378C666.989,-376.268 572.037,-357.065 502.942,-343.092"/>
<polygon fill="black" stroke="black" points="503.437,-339.622 492.942,-341.07 502.05,-346.483 503.437,-339.622"/>
</g>
<!-- aveic -->
<g id="node11" class="node"><title>aveic</title>
<ellipse fill="#ddffcc" stroke="black" cx="414.714" cy="-405.12" rx="152.973" ry="18"/>
<text text-anchor="middle" x="414.714" y="-401.42" font-family="Times,serif" font-size="14.00">Apply VerifiedEvents in Client</text>
</g>
<!-- aveic&#45;&gt;wip2 -->
<g id="edge3" class="edge"><title>aveic&#45;&gt;wip2</title>
<path fill="none" stroke="black" d="M414.714,-387.006C414.714,-376.981 414.714,-364.086 414.714,-352.674"/>
<polygon fill="black" stroke="black" points="418.214,-352.33 414.714,-342.33 411.214,-352.33 418.214,-352.33"/>
</g>
<!-- bin -->
<g id="node12" class="node"><title>bin</title>
<ellipse fill="#ddffcc" stroke="black" cx="637.714" cy="-477.12" rx="124.278" ry="18"/>
<text text-anchor="middle" x="637.714" y="-473.42" font-family="Times,serif" font-size="14.00">Use binary for transport</text>
</g>
<!-- bin&#45;&gt;svetcl -->
<g id="edge1" class="edge"><title>bin&#45;&gt;svetcl</title>
<path fill="none" stroke="black" d="M676.447,-459.884C700.199,-449.929 730.813,-437.096 756.175,-426.466"/>
<polygon fill="black" stroke="black" points="757.743,-429.603 765.613,-422.51 755.037,-423.148 757.743,-429.603"/>
</g>
<!-- asfttr -->
<g id="node13" class="node"><title>asfttr</title>
<ellipse fill="#ddffcc" stroke="black" cx="972.714" cy="-477.12" rx="192.266" ry="18"/>
<text text-anchor="middle" x="972.714" y="-473.42" font-family="Times,serif" font-size="14.00">Add separate failure type to RemoteFn</text>
</g>
<!-- asfttr&#45;&gt;svetcl -->
<g id="edge2" class="edge"><title>asfttr&#45;&gt;svetcl</title>
<path fill="none" stroke="black" d="M932.474,-459.353C908.717,-449.454 878.481,-436.856 853.388,-426.4"/>
<polygon fill="black" stroke="black" points="854.623,-423.124 844.046,-422.508 851.931,-429.585 854.623,-423.124"/>
</g>
</g>
</svg>
