<?xml version="1.0" encoding="UTF-8" standalone="no"?>
<!DOCTYPE svg PUBLIC "-//W3C//DTD SVG 1.1//EN"
 "http://www.w3.org/Graphics/SVG/1.1/DTD/svg11.dtd">
<!-- Generated by graphviz version 2.38.0 (20140413.2041)
 -->
<!-- Title: G Pages: 1 -->
<svg width="1123pt" height="494pt"
 viewBox="0.00 0.00 1122.82 493.74" xmlns="http://www.w3.org/2000/svg" xmlns:xlink="http://www.w3.org/1999/xlink">
<g id="graph0" class="graph" transform="scale(1 1) rotate(0) translate(4 489.74)">
<title>G</title>
<polygon fill="white" stroke="none" points="-4,4 -4,-489.74 1118.82,-489.74 1118.82,4 -4,4"/>
<!-- nono -->
<g id="node1" class="node"><title>nono</title>
<ellipse fill="none" stroke="black" cx="258.136" cy="-242.87" rx="70.3881" ry="18"/>
<text text-anchor="middle" x="258.136" y="-239.17" font-family="Times,serif" font-size="14.00">Avoid no&#45;ops</text>
</g>
<!-- template -->
<g id="node4" class="node"><title>template</title>
<ellipse fill="none" stroke="black" cx="376.136" cy="-162" rx="115.88" ry="18"/>
<text text-anchor="middle" x="376.136" y="-158.3" font-family="Times,serif" font-size="14.00">Create template event</text>
</g>
<!-- nono&#45;&gt;template -->
<g id="edge5" class="edge"><title>nono&#45;&gt;template</title>
<path fill="none" stroke="black" d="M282.015,-225.91C299.418,-214.277 323.231,-198.361 342.549,-185.449"/>
<polygon fill="black" stroke="black" points="344.701,-188.22 351.07,-179.753 340.811,-182.401 344.701,-188.22"/>
</g>
<!-- remove -->
<g id="node2" class="node"><title>remove</title>
<ellipse fill="none" stroke="black" cx="887.136" cy="-162" rx="139.976" ry="18"/>
<text text-anchor="middle" x="887.136" y="-158.3" font-family="Times,serif" font-size="14.00">Remove Δ, δ, rev, partitions</text>
</g>
<!-- tp -->
<g id="node3" class="node"><title>tp</title>
<ellipse fill="none" stroke="black" cx="887.136" cy="-90" rx="102.082" ry="18"/>
<text text-anchor="middle" x="887.136" y="-86.3" font-family="Times,serif" font-size="14.00">Trim .protocol code</text>
</g>
<!-- remove&#45;&gt;tp -->
<g id="edge9" class="edge"><title>remove&#45;&gt;tp</title>
<path fill="none" stroke="black" d="M887.136,-143.697C887.136,-135.983 887.136,-126.712 887.136,-118.112"/>
<polygon fill="black" stroke="black" points="890.636,-118.104 887.136,-108.104 883.636,-118.104 890.636,-118.104"/>
</g>
<!-- rpadt -->
<g id="node5" class="node"><title>rpadt</title>
<ellipse fill="none" stroke="black" cx="887.136" cy="-18" rx="187.367" ry="18"/>
<text text-anchor="middle" x="887.136" y="-14.3" font-family="Times,serif" font-size="14.00">Restore pickleADT to Protocol codecs</text>
</g>
<!-- tp&#45;&gt;rpadt -->
<g id="edge10" class="edge"><title>tp&#45;&gt;rpadt</title>
<path fill="none" stroke="black" d="M887.136,-71.6966C887.136,-63.9827 887.136,-54.7125 887.136,-46.1124"/>
<polygon fill="black" stroke="black" points="890.636,-46.1043 887.136,-36.1043 883.636,-46.1044 890.636,-46.1043"/>
</g>
<!-- bc -->
<g id="node6" class="node"><title>bc</title>
<ellipse fill="none" stroke="black" cx="887.136" cy="-242.87" rx="227.877" ry="26.7407"/>
<text text-anchor="middle" x="887.136" y="-246.67" font-family="Times,serif" font-size="14.00">Change broadcast from δ</text>
<text text-anchor="middle" x="887.136" y="-231.67" font-family="Times,serif" font-size="14.00">Either each listener scans events or new δ</text>
</g>
<!-- bc&#45;&gt;remove -->
<g id="edge13" class="edge"><title>bc&#45;&gt;remove</title>
<path fill="none" stroke="black" d="M887.136,-215.607C887.136,-207.506 887.136,-198.568 887.136,-190.392"/>
<polygon fill="black" stroke="black" points="890.636,-190.22 887.136,-180.22 883.636,-190.22 890.636,-190.22"/>
</g>
<!-- nowip -->
<g id="node7" class="node"><title>nowip</title>
<ellipse fill="none" stroke="black" cx="494.136" cy="-242.87" rx="147.574" ry="18"/>
<text text-anchor="middle" x="494.136" y="-239.17" font-family="Times,serif" font-size="14.00">Change WIP into real service</text>
</g>
<!-- nowip&#45;&gt;template -->
<g id="edge6" class="edge"><title>nowip&#45;&gt;template</title>
<path fill="none" stroke="black" d="M468.822,-224.95C451.439,-213.332 428.189,-197.792 409.325,-185.183"/>
<polygon fill="black" stroke="black" points="411.261,-182.268 401.003,-179.621 407.372,-188.088 411.261,-182.268"/>
</g>
<!-- wipuve -->
<g id="node8" class="node"><title>wipuve</title>
<ellipse fill="#ffcccc" stroke="black" cx="494.136" cy="-323.74" rx="232.059" ry="18"/>
<text text-anchor="middle" x="494.136" y="-320.04" font-family="Times,serif" font-size="14.00">Make all RemoteFns &amp; WIP use VerifiedEvents</text>
</g>
<!-- wipuve&#45;&gt;nono -->
<g id="edge14" class="edge"><title>wipuve&#45;&gt;nono</title>
<path fill="none" stroke="black" d="M444.374,-306.11C404.521,-292.791 348.844,-274.185 308.764,-260.79"/>
<polygon fill="black" stroke="black" points="309.779,-257.439 299.185,-257.589 307.56,-264.078 309.779,-257.439"/>
</g>
<!-- wipuve&#45;&gt;bc -->
<g id="edge12" class="edge"><title>wipuve&#45;&gt;bc</title>
<path fill="none" stroke="black" d="M573.665,-306.78C628.699,-295.735 702.98,-280.828 765.42,-268.297"/>
<polygon fill="black" stroke="black" points="766.219,-271.706 775.335,-266.307 764.842,-264.843 766.219,-271.706"/>
</g>
<!-- wipuve&#45;&gt;nowip -->
<g id="edge8" class="edge"><title>wipuve&#45;&gt;nowip</title>
<path fill="none" stroke="black" d="M494.136,-305.626C494.136,-295.601 494.136,-282.706 494.136,-271.295"/>
<polygon fill="black" stroke="black" points="497.636,-270.95 494.136,-260.95 490.636,-270.95 497.636,-270.95"/>
</g>
<!-- cmd -->
<g id="node9" class="node"><title>cmd</title>
<ellipse fill="#ffcccc" stroke="black" cx="163.136" cy="-395.74" rx="163.271" ry="18"/>
<text text-anchor="middle" x="163.136" y="-392.04" font-family="Times,serif" font-size="14.00">Create input events (commands)</text>
</g>
<!-- cmd&#45;&gt;wipuve -->
<g id="edge11" class="edge"><title>cmd&#45;&gt;wipuve</title>
<path fill="none" stroke="black" d="M234.958,-379.551C285.882,-368.782 354.45,-354.281 408.268,-342.899"/>
<polygon fill="black" stroke="black" points="409.078,-346.306 418.137,-340.812 407.63,-339.457 409.078,-346.306"/>
</g>
<!-- svetcl -->
<g id="node10" class="node"><title>svetcl</title>
<ellipse fill="#ddffcc" stroke="black" cx="494.136" cy="-395.74" rx="149.473" ry="18"/>
<text text-anchor="middle" x="494.136" y="-392.04" font-family="Times,serif" font-size="14.00">Send VerifiedEvents to Client</text>
</g>
<!-- svetcl&#45;&gt;wipuve -->
<g id="edge7" class="edge"><title>svetcl&#45;&gt;wipuve</title>
<path fill="none" stroke="black" d="M494.136,-377.437C494.136,-369.723 494.136,-360.453 494.136,-351.853"/>
<polygon fill="black" stroke="black" points="497.636,-351.844 494.136,-341.844 490.636,-351.844 497.636,-351.844"/>
</g>
<!-- aveic -->
<g id="node11" class="node"><title>aveic</title>
<ellipse fill="#ddffcc" stroke="black" cx="814.136" cy="-395.74" rx="152.973" ry="18"/>
<text text-anchor="middle" x="814.136" y="-392.04" font-family="Times,serif" font-size="14.00">Apply VerifiedEvents in Client</text>
</g>
<!-- aveic&#45;&gt;wipuve -->
<g id="edge4" class="edge"><title>aveic&#45;&gt;wipuve</title>
<path fill="none" stroke="black" d="M745.094,-379.637C695.987,-368.895 629.762,-354.408 577.673,-343.014"/>
<polygon fill="black" stroke="black" points="578.303,-339.569 567.787,-340.851 576.808,-346.407 578.303,-339.569"/>
</g>
<!-- bin -->
<g id="node12" class="node"><title>bin</title>
<ellipse fill="#ddffcc" stroke="black" cx="163.136" cy="-467.74" rx="124.278" ry="18"/>
<text text-anchor="middle" x="163.136" y="-464.04" font-family="Times,serif" font-size="14.00">Use binary for transport</text>
</g>
<!-- bin&#45;&gt;cmd -->
<g id="edge2" class="edge"><title>bin&#45;&gt;cmd</title>
<path fill="none" stroke="black" d="M163.136,-449.437C163.136,-441.723 163.136,-432.453 163.136,-423.853"/>
<polygon fill="black" stroke="black" points="166.636,-423.844 163.136,-413.844 159.636,-423.844 166.636,-423.844"/>
</g>
<!-- bin&#45;&gt;svetcl -->
<g id="edge1" class="edge"><title>bin&#45;&gt;svetcl</title>
<path fill="none" stroke="black" d="M230.118,-452.575C283.134,-441.363 357.356,-425.666 413.608,-413.77"/>
<polygon fill="black" stroke="black" points="414.477,-417.164 423.537,-411.67 413.029,-410.315 414.477,-417.164"/>
</g>
<!-- asfttr -->
<g id="node13" class="node"><title>asfttr</title>
<ellipse fill="#ddffcc" stroke="black" cx="498.136" cy="-467.74" rx="192.266" ry="18"/>
<text text-anchor="middle" x="498.136" y="-464.04" font-family="Times,serif" font-size="14.00">Add separate failure type to RemoteFn</text>
</g>
<!-- asfttr&#45;&gt;svetcl -->
<g id="edge3" class="edge"><title>asfttr&#45;&gt;svetcl</title>
<path fill="none" stroke="black" d="M497.147,-449.437C496.706,-441.723 496.176,-432.453 495.685,-423.853"/>
<polygon fill="black" stroke="black" points="499.178,-423.628 495.113,-413.844 492.189,-424.028 499.178,-423.628"/>
</g>
</g>
</svg>
