<?xml version="1.0" encoding="UTF-8" standalone="no"?>
<!DOCTYPE svg PUBLIC "-//W3C//DTD SVG 1.1//EN"
 "http://www.w3.org/Graphics/SVG/1.1/DTD/svg11.dtd">
<!-- Generated by graphviz version 2.38.0 (20140413.2041)
 -->
<!-- Title: G Pages: 1 -->
<svg width="1891pt" height="844pt"
 viewBox="0.00 0.00 1890.62 844.34" xmlns="http://www.w3.org/2000/svg" xmlns:xlink="http://www.w3.org/1999/xlink">
<g id="graph0" class="graph" transform="scale(1 1) rotate(0) translate(4 840.34)">
<title>G</title>
<polygon fill="white" stroke="none" points="-4,4 -4,-840.34 1886.62,-840.34 1886.62,4 -4,4"/>
<!-- removeS -->
<g id="node1" class="node"><title>removeS</title>
<ellipse fill="none" stroke="black" cx="1096.84" cy="-26.8701" rx="140.929" ry="26.7407"/>
<text text-anchor="middle" x="1096.84" y="-30.6701" font-family="Times,serif" font-size="14.00">Remove from server:</text>
<text text-anchor="middle" x="1096.84" y="-15.6701" font-family="Times,serif" font-size="14.00">UnsafeTypes, ProjectDSL</text>
</g>
<!-- db -->
<g id="node2" class="node"><title>db</title>
<ellipse fill="none" stroke="black" cx="469.84" cy="-206.35" rx="157.072" ry="18"/>
<text text-anchor="middle" x="469.84" y="-202.65" font-family="Times,serif" font-size="14.00">DB table, event load, event add</text>
</g>
<!-- realspa -->
<g id="node3" class="node"><title>realspa</title>
<ellipse fill="none" stroke="black" cx="1096.84" cy="-116.61" rx="147.571" ry="26.7407"/>
<text text-anchor="middle" x="1096.84" y="-120.41" font-family="Times,serif" font-size="14.00">Replace /wip with</text>
<text text-anchor="middle" x="1096.84" y="-105.41" font-family="Times,serif" font-size="14.00">real SPA using real project</text>
</g>
<!-- db&#45;&gt;realspa -->
<g id="edge25" class="edge"><title>db&#45;&gt;realspa</title>
<path fill="none" stroke="black" d="M565.409,-191.977C674.278,-176.742 852.546,-151.796 972.238,-135.047"/>
<polygon fill="black" stroke="black" points="972.772,-138.506 982.19,-133.654 971.802,-131.574 972.772,-138.506"/>
</g>
<!-- testDbCodec -->
<g id="node4" class="node"><title>testDbCodec</title>
<ellipse fill="none" stroke="black" cx="469.84" cy="-116.61" rx="158.672" ry="18"/>
<text text-anchor="middle" x="469.84" y="-112.91" font-family="Times,serif" font-size="14.00">Ensure db event codec stability</text>
</g>
<!-- db&#45;&gt;testDbCodec -->
<g id="edge22" class="edge"><title>db&#45;&gt;testDbCodec</title>
<path fill="none" stroke="black" d="M469.84,-188.016C469.84,-175.679 469.84,-158.857 469.84,-144.75"/>
<polygon fill="black" stroke="black" points="473.34,-144.61 469.84,-134.61 466.34,-144.61 473.34,-144.61"/>
</g>
<!-- realspa&#45;&gt;removeS -->
<g id="edge18" class="edge"><title>realspa&#45;&gt;removeS</title>
<path fill="none" stroke="black" d="M1096.84,-89.2852C1096.84,-81.3185 1096.84,-72.4275 1096.84,-63.9391"/>
<polygon fill="black" stroke="black" points="1100.34,-63.874 1096.84,-53.874 1093.34,-63.8741 1100.34,-63.874"/>
</g>
<!-- localProd -->
<g id="node5" class="node"><title>localProd</title>
<ellipse fill="none" stroke="black" cx="1705.84" cy="-116.61" rx="145.674" ry="18"/>
<text text-anchor="middle" x="1705.84" y="-112.91" font-family="Times,serif" font-size="14.00">Get a local prod env working</text>
</g>
<!-- newReq -->
<g id="node6" class="node"><title>newReq</title>
<ellipse fill="#ffcccc" stroke="black" cx="109.84" cy="-327.91" rx="109.681" ry="18"/>
<text text-anchor="middle" x="109.84" y="-324.21" font-family="Times,serif" font-size="14.00">Ability to create reqs</text>
</g>
<!-- newReq&#45;&gt;db -->
<g id="edge32" class="edge"><title>newReq&#45;&gt;db</title>
<path fill="none" stroke="black" d="M139.44,-310.5C163.088,-297.899 197.367,-280.757 228.84,-269.22 279.958,-250.483 339.157,-235.199 386.09,-224.51"/>
<polygon fill="black" stroke="black" points="386.924,-227.909 395.912,-222.299 385.387,-221.08 386.924,-227.909"/>
</g>
<!-- newRCG -->
<g id="node7" class="node"><title>newRCG</title>
<ellipse fill="#ffcccc" stroke="black" cx="402.84" cy="-327.91" rx="165.171" ry="18"/>
<text text-anchor="middle" x="402.84" y="-324.21" font-family="Times,serif" font-size="14.00">Ability to create ReqCodeGroups</text>
</g>
<!-- newRCG&#45;&gt;db -->
<g id="edge33" class="edge"><title>newRCG&#45;&gt;db</title>
<path fill="none" stroke="black" d="M412.44,-309.78C423.634,-289.804 442.258,-256.57 455.246,-233.394"/>
<polygon fill="black" stroke="black" points="458.423,-234.883 460.259,-224.449 452.317,-231.461 458.423,-234.883"/>
</g>
<!-- realCU -->
<g id="node8" class="node"><title>realCU</title>
<ellipse fill="#ffcccc" stroke="black" cx="845.84" cy="-206.35" rx="132.872" ry="26.7407"/>
<text text-anchor="middle" x="845.84" y="-210.15" font-family="Times,serif" font-size="14.00">Real responses</text>
<text text-anchor="middle" x="845.84" y="-195.15" font-family="Times,serif" font-size="14.00">to ContentUpdate cmds</text>
</g>
<!-- realCU&#45;&gt;realspa -->
<g id="edge34" class="edge"><title>realCU&#45;&gt;realspa</title>
<path fill="none" stroke="black" d="M910.479,-182.755C944.203,-170.967 985.662,-156.474 1020.91,-144.153"/>
<polygon fill="black" stroke="black" points="1022.39,-147.344 1030.67,-140.74 1020.08,-140.736 1022.39,-147.344"/>
</g>
<!-- devx -->
<g id="node9" class="node"><title>devx</title>
<ellipse fill="#ffcccc" stroke="black" cx="1705.84" cy="-206.35" rx="176.569" ry="18"/>
<text text-anchor="middle" x="1705.84" y="-202.65" font-family="Times,serif" font-size="14.00">Get /x working again and document</text>
</g>
<!-- devx&#45;&gt;realspa -->
<g id="edge23" class="edge"><title>devx&#45;&gt;realspa</title>
<path fill="none" stroke="black" d="M1608.33,-191.302C1502.98,-176.123 1334.84,-151.9 1220.33,-135.401"/>
<polygon fill="black" stroke="black" points="1220.51,-131.891 1210.11,-133.929 1219.51,-138.819 1220.51,-131.891"/>
</g>
<!-- devx&#45;&gt;localProd -->
<g id="edge28" class="edge"><title>devx&#45;&gt;localProd</title>
<path fill="none" stroke="black" d="M1705.84,-188.016C1705.84,-175.679 1705.84,-158.857 1705.84,-144.75"/>
<polygon fill="black" stroke="black" points="1709.34,-144.61 1705.84,-134.61 1702.34,-144.61 1709.34,-144.61"/>
</g>
<!-- template -->
<g id="node10" class="node"><title>template</title>
<ellipse fill="#ffcccc" stroke="black" cx="701.84" cy="-327.91" rx="115.88" ry="18"/>
<text text-anchor="middle" x="701.84" y="-324.21" font-family="Times,serif" font-size="14.00">Create template event</text>
</g>
<!-- template&#45;&gt;db -->
<g id="edge21" class="edge"><title>template&#45;&gt;db</title>
<path fill="none" stroke="black" d="M670.068,-310.537C628.852,-289.296 556.857,-252.194 511.356,-228.745"/>
<polygon fill="black" stroke="black" points="512.84,-225.573 502.348,-224.103 509.634,-231.795 512.84,-225.573"/>
</g>
<!-- devmd -->
<g id="node11" class="node"><title>devmd</title>
<ellipse fill="#ffcccc" stroke="black" cx="1081.84" cy="-206.35" rx="85.2851" ry="18"/>
<text text-anchor="middle" x="1081.84" y="-202.65" font-family="Times,serif" font-size="14.00">Update DEV.md</text>
</g>
<!-- tesths -->
<g id="node12" class="node"><title>tesths</title>
<ellipse fill="#ffcccc" stroke="black" cx="405.84" cy="-746.34" rx="148.374" ry="18"/>
<text text-anchor="middle" x="405.84" y="-742.64" font-family="Times,serif" font-size="14.00">Ensure hash scheme stability</text>
</g>
<!-- cfgcss -->
<g id="node13" class="node"><title>cfgcss</title>
<ellipse fill="#ffcccc" stroke="black" cx="1347.84" cy="-206.35" rx="163.271" ry="18"/>
<text text-anchor="middle" x="1347.84" y="-202.65" font-family="Times,serif" font-size="14.00">Replace CSS WIP with ScalaCSS</text>
</g>
<!-- cfgcss&#45;&gt;realspa -->
<g id="edge24" class="edge"><title>cfgcss&#45;&gt;realspa</title>
<path fill="none" stroke="black" d="M1301.22,-189.053C1265.18,-176.455 1214.55,-158.756 1172.7,-144.127"/>
<polygon fill="black" stroke="black" points="1173.68,-140.764 1163.09,-140.768 1171.37,-147.372 1173.68,-140.764"/>
</g>
<!-- nowip -->
<g id="node14" class="node"><title>nowip</title>
<ellipse fill="#ddffcc" stroke="black" cx="701.84" cy="-440.6" rx="184.667" ry="18"/>
<text text-anchor="middle" x="701.84" y="-436.9" font-family="Times,serif" font-size="14.00">Use real RemoteFn responses in WIP</text>
</g>
<!-- nowip&#45;&gt;newReq -->
<g id="edge30" class="edge"><title>nowip&#45;&gt;newReq</title>
<path fill="none" stroke="black" d="M528.882,-434.295C438.106,-428.009 325.882,-414.662 228.84,-386.6 199.763,-378.192 169.074,-363.144 146.146,-350.525"/>
<polygon fill="black" stroke="black" points="147.569,-347.31 137.135,-345.471 144.145,-353.416 147.569,-347.31"/>
</g>
<!-- nowip&#45;&gt;newRCG -->
<g id="edge31" class="edge"><title>nowip&#45;&gt;newRCG</title>
<path fill="none" stroke="black" d="M657.077,-423.029C603.638,-403.246 514.319,-370.18 457.029,-348.971"/>
<polygon fill="black" stroke="black" points="458.014,-345.603 447.421,-345.414 455.583,-352.168 458.014,-345.603"/>
</g>
<!-- nowip&#45;&gt;realCU -->
<g id="edge29" class="edge"><title>nowip&#45;&gt;realCU</title>
<path fill="none" stroke="black" d="M773.463,-423.924C793.724,-416.024 813.79,-404.213 826.84,-386.6 857.559,-345.142 856.589,-282.73 852.007,-243.553"/>
<polygon fill="black" stroke="black" points="855.446,-242.859 850.678,-233.398 848.506,-243.768 855.446,-242.859"/>
</g>
<!-- nowip&#45;&gt;template -->
<g id="edge8" class="edge"><title>nowip&#45;&gt;template</title>
<path fill="none" stroke="black" d="M701.84,-422.305C701.84,-404.597 701.84,-376.816 701.84,-356.151"/>
<polygon fill="black" stroke="black" points="705.34,-356.084 701.84,-346.084 698.34,-356.084 705.34,-356.084"/>
</g>
<!-- hash -->
<g id="node15" class="node"><title>hash</title>
<ellipse fill="#ddffcc" stroke="black" cx="542.84" cy="-818.34" rx="50.0912" ry="18"/>
<text text-anchor="middle" x="542.84" y="-814.64" font-family="Times,serif" font-size="14.00">Hashing</text>
</g>
<!-- hash&#45;&gt;tesths -->
<g id="edge26" class="edge"><title>hash&#45;&gt;tesths</title>
<path fill="none" stroke="black" d="M515.116,-803.175C495.687,-793.247 469.376,-779.804 447.44,-768.596"/>
<polygon fill="black" stroke="black" points="448.837,-765.379 438.34,-763.946 445.652,-771.613 448.837,-765.379"/>
</g>
<!-- eventap -->
<g id="node28" class="node"><title>eventap</title>
<ellipse fill="#ddffcc" stroke="black" cx="701.84" cy="-746.34" rx="129.977" ry="18"/>
<text text-anchor="middle" x="701.84" y="-742.64" font-family="Times,serif" font-size="14.00">Event application &amp; tests</text>
</g>
<!-- hash&#45;&gt;eventap -->
<g id="edge27" class="edge"><title>hash&#45;&gt;eventap</title>
<path fill="none" stroke="black" d="M573.121,-804.009C596.313,-793.799 628.717,-779.533 655.21,-767.869"/>
<polygon fill="black" stroke="black" points="656.933,-770.935 664.676,-763.702 654.113,-764.528 656.933,-770.935"/>
</g>
<!-- tp -->
<g id="node16" class="node"><title>tp</title>
<ellipse fill="#ddffcc" stroke="black" cx="975.84" cy="-327.91" rx="102.082" ry="18"/>
<text text-anchor="middle" x="975.84" y="-324.21" font-family="Times,serif" font-size="14.00">Trim .protocol code</text>
</g>
<!-- nwo -->
<g id="node17" class="node"><title>nwo</title>
<ellipse fill="#ddffcc" stroke="black" cx="1299.84" cy="-327.91" rx="204.208" ry="58.8803"/>
<text text-anchor="middle" x="1299.84" y="-354.21" font-family="Times,serif" font-size="14.00">Refactor new world:</text>
<text text-anchor="middle" x="1299.84" y="-339.21" font-family="Times,serif" font-size="14.00">.event</text>
<text text-anchor="middle" x="1299.84" y="-324.21" font-family="Times,serif" font-size="14.00">.protocol</text>
<text text-anchor="middle" x="1299.84" y="-309.21" font-family="Times,serif" font-size="14.00">ClientData, Changes, ChangeListener</text>
<text text-anchor="middle" x="1299.84" y="-294.21" font-family="Times,serif" font-size="14.00">UpdateProject</text>
</g>
<!-- nwo&#45;&gt;devmd -->
<g id="edge20" class="edge"><title>nwo&#45;&gt;devmd</title>
<path fill="none" stroke="black" d="M1206.44,-275.686C1175.9,-258.938 1143.7,-241.276 1119.68,-228.104"/>
<polygon fill="black" stroke="black" points="1121.35,-225.026 1110.9,-223.286 1117.98,-231.164 1121.35,-225.026"/>
</g>
<!-- remove -->
<g id="node18" class="node"><title>remove</title>
<ellipse fill="#ddffcc" stroke="black" cx="1170.84" cy="-440.6" rx="137.576" ry="18"/>
<text text-anchor="middle" x="1170.84" y="-436.9" font-family="Times,serif" font-size="14.00">Remove Δ, δ, Rev, Partition</text>
</g>
<!-- remove&#45;&gt;tp -->
<g id="edge11" class="edge"><title>remove&#45;&gt;tp</title>
<path fill="none" stroke="black" d="M1141.22,-422.789C1107.14,-403.442 1051.09,-371.624 1013.82,-350.471"/>
<polygon fill="black" stroke="black" points="1015.2,-347.23 1004.78,-345.337 1011.75,-353.317 1015.2,-347.23"/>
</g>
<!-- remove&#45;&gt;nwo -->
<g id="edge19" class="edge"><title>remove&#45;&gt;nwo</title>
<path fill="none" stroke="black" d="M1190.71,-422.547C1201.03,-413.695 1214.33,-402.28 1228.08,-390.482"/>
<polygon fill="black" stroke="black" points="1230.44,-393.071 1235.75,-383.902 1225.88,-387.758 1230.44,-393.071"/>
</g>
<!-- rpadt -->
<g id="node26" class="node"><title>rpadt</title>
<ellipse fill="#ddffcc" stroke="black" cx="1628.84" cy="-327.91" rx="106.547" ry="26.7407"/>
<text text-anchor="middle" x="1628.84" y="-331.71" font-family="Times,serif" font-size="14.00">Restore pickleADT</text>
<text text-anchor="middle" x="1628.84" y="-316.71" font-family="Times,serif" font-size="14.00">to Protocol codecs</text>
</g>
<!-- remove&#45;&gt;rpadt -->
<g id="edge12" class="edge"><title>remove&#45;&gt;rpadt</title>
<path fill="none" stroke="black" d="M1286.08,-430.652C1353.38,-423.241 1439.26,-409.978 1512.84,-386.6 1535.61,-379.365 1559.46,-368.201 1579.57,-357.614"/>
<polygon fill="black" stroke="black" points="1581.37,-360.619 1588.53,-352.807 1578.06,-354.451 1581.37,-360.619"/>
</g>
<!-- allve -->
<g id="node19" class="node"><title>allve</title>
<ellipse fill="#ddffcc" stroke="black" cx="1060.84" cy="-512.6" rx="228.56" ry="18"/>
<text text-anchor="middle" x="1060.84" y="-508.9" font-family="Times,serif" font-size="14.00">All RemoteFns use VerifiedEvents instead of Δ</text>
</g>
<!-- allve&#45;&gt;nowip -->
<g id="edge15" class="edge"><title>allve&#45;&gt;nowip</title>
<path fill="none" stroke="black" d="M979.378,-495.716C923.056,-484.734 848.159,-470.13 790.365,-458.861"/>
<polygon fill="black" stroke="black" points="790.998,-455.419 780.513,-456.94 789.659,-462.289 790.998,-455.419"/>
</g>
<!-- allve&#45;&gt;remove -->
<g id="edge14" class="edge"><title>allve&#45;&gt;remove</title>
<path fill="none" stroke="black" d="M1087.47,-494.655C1101.93,-485.455 1119.98,-473.963 1135.59,-464.029"/>
<polygon fill="black" stroke="black" points="1137.9,-466.711 1144.46,-458.389 1134.14,-460.805 1137.9,-466.711"/>
</g>
<!-- bc -->
<g id="node20" class="node"><title>bc</title>
<ellipse fill="#ddffcc" stroke="black" cx="1162.84" cy="-593.47" rx="227.877" ry="26.7407"/>
<text text-anchor="middle" x="1162.84" y="-597.27" font-family="Times,serif" font-size="14.00">Change broadcast from δ</text>
<text text-anchor="middle" x="1162.84" y="-582.27" font-family="Times,serif" font-size="14.00">Either each listener scans events or new δ</text>
</g>
<!-- bc&#45;&gt;allve -->
<g id="edge17" class="edge"><title>bc&#45;&gt;allve</title>
<path fill="none" stroke="black" d="M1129.72,-566.863C1117.25,-557.215 1103.13,-546.303 1090.95,-536.878"/>
<polygon fill="black" stroke="black" points="1092.91,-533.974 1082.86,-530.626 1088.63,-539.512 1092.91,-533.974"/>
</g>
<!-- wip2 -->
<g id="node21" class="node"><title>wip2</title>
<ellipse fill="#ddffcc" stroke="black" cx="701.84" cy="-593.47" rx="215.562" ry="18"/>
<text text-anchor="middle" x="701.84" y="-589.77" font-family="Times,serif" font-size="14.00">WIP to use UpdateProject &amp; VerifiedEvents</text>
</g>
<!-- wip2&#45;&gt;nowip -->
<g id="edge10" class="edge"><title>wip2&#45;&gt;nowip</title>
<path fill="none" stroke="black" d="M701.84,-575.457C701.84,-549.537 701.84,-499.906 701.84,-468.903"/>
<polygon fill="black" stroke="black" points="705.34,-468.783 701.84,-458.783 698.34,-468.783 705.34,-468.783"/>
</g>
<!-- wip2&#45;&gt;allve -->
<g id="edge16" class="edge"><title>wip2&#45;&gt;allve</title>
<path fill="none" stroke="black" d="M774.489,-576.51C833.296,-563.59 916.158,-545.386 977.625,-531.882"/>
<polygon fill="black" stroke="black" points="978.668,-535.236 987.684,-529.672 977.166,-528.399 978.668,-535.236"/>
</g>
<!-- svetcl -->
<g id="node22" class="node"><title>svetcl</title>
<ellipse fill="#ddffcc" stroke="black" cx="1091.84" cy="-674.34" rx="149.473" ry="18"/>
<text text-anchor="middle" x="1091.84" y="-670.64" font-family="Times,serif" font-size="14.00">Send VerifiedEvents to Client</text>
</g>
<!-- svetcl&#45;&gt;bc -->
<g id="edge13" class="edge"><title>svetcl&#45;&gt;bc</title>
<path fill="none" stroke="black" d="M1107.25,-656.227C1114.71,-647.933 1123.95,-637.675 1132.73,-627.918"/>
<polygon fill="black" stroke="black" points="1135.55,-630.021 1139.64,-620.247 1130.34,-625.338 1135.55,-630.021"/>
</g>
<!-- svetcl&#45;&gt;wip2 -->
<g id="edge9" class="edge"><title>svetcl&#45;&gt;wip2</title>
<path fill="none" stroke="black" d="M1018.94,-658.598C954.115,-645.488 859.163,-626.286 790.068,-612.313"/>
<polygon fill="black" stroke="black" points="790.563,-608.842 780.068,-610.29 789.176,-615.703 790.563,-608.842"/>
</g>
<!-- aveic -->
<g id="node23" class="node"><title>aveic</title>
<ellipse fill="#ddffcc" stroke="black" cx="701.84" cy="-674.34" rx="152.973" ry="18"/>
<text text-anchor="middle" x="701.84" y="-670.64" font-family="Times,serif" font-size="14.00">Apply VerifiedEvents in Client</text>
</g>
<!-- aveic&#45;&gt;wip2 -->
<g id="edge7" class="edge"><title>aveic&#45;&gt;wip2</title>
<path fill="none" stroke="black" d="M701.84,-656.227C701.84,-646.201 701.84,-633.306 701.84,-621.895"/>
<polygon fill="black" stroke="black" points="705.34,-621.55 701.84,-611.55 698.34,-621.55 705.34,-621.55"/>
</g>
<!-- bin -->
<g id="node24" class="node"><title>bin</title>
<ellipse fill="#ddffcc" stroke="black" cx="975.84" cy="-818.34" rx="124.278" ry="18"/>
<text text-anchor="middle" x="975.84" y="-814.64" font-family="Times,serif" font-size="14.00">Use binary for transport</text>
</g>
<!-- eventbin -->
<g id="node29" class="node"><title>eventbin</title>
<ellipse fill="#ddffcc" stroke="black" cx="975.84" cy="-746.34" rx="126.178" ry="18"/>
<text text-anchor="middle" x="975.84" y="-742.64" font-family="Times,serif" font-size="14.00">Binary codecs for events</text>
</g>
<!-- bin&#45;&gt;eventbin -->
<g id="edge3" class="edge"><title>bin&#45;&gt;eventbin</title>
<path fill="none" stroke="black" d="M975.84,-800.037C975.84,-792.323 975.84,-783.053 975.84,-774.453"/>
<polygon fill="black" stroke="black" points="979.34,-774.444 975.84,-764.445 972.34,-774.445 979.34,-774.444"/>
</g>
<!-- asfttr -->
<g id="node25" class="node"><title>asfttr</title>
<ellipse fill="#ddffcc" stroke="black" cx="1311.84" cy="-746.34" rx="192.266" ry="18"/>
<text text-anchor="middle" x="1311.84" y="-742.64" font-family="Times,serif" font-size="14.00">Add separate failure type to RemoteFn</text>
</g>
<!-- asfttr&#45;&gt;svetcl -->
<g id="edge6" class="edge"><title>asfttr&#45;&gt;svetcl</title>
<path fill="none" stroke="black" d="M1260.26,-728.928C1227.89,-718.63 1186.02,-705.307 1152.13,-694.522"/>
<polygon fill="black" stroke="black" points="1152.93,-691.105 1142.34,-691.408 1150.81,-697.775 1152.93,-691.105"/>
</g>
<!-- event -->
<g id="node27" class="node"><title>event</title>
<ellipse fill="#ddffcc" stroke="black" cx="745.84" cy="-818.34" rx="42.7926" ry="18"/>
<text text-anchor="middle" x="745.84" y="-814.64" font-family="Times,serif" font-size="14.00">Events</text>
</g>
<!-- event&#45;&gt;eventap -->
<g id="edge1" class="edge"><title>event&#45;&gt;eventap</title>
<path fill="none" stroke="black" d="M735.413,-800.751C730.175,-792.418 723.713,-782.137 717.861,-772.828"/>
<polygon fill="black" stroke="black" points="720.783,-770.9 712.498,-764.296 714.857,-774.625 720.783,-770.9"/>
</g>
<!-- event&#45;&gt;eventbin -->
<g id="edge2" class="edge"><title>event&#45;&gt;eventbin</title>
<path fill="none" stroke="black" d="M779.778,-807.011C815.326,-796.192 871.901,-778.974 915.161,-765.808"/>
<polygon fill="black" stroke="black" points="916.186,-769.155 924.733,-762.894 914.147,-762.458 916.186,-769.155"/>
</g>
<!-- eventap&#45;&gt;aveic -->
<g id="edge5" class="edge"><title>eventap&#45;&gt;aveic</title>
<path fill="none" stroke="black" d="M701.84,-728.037C701.84,-720.323 701.84,-711.053 701.84,-702.453"/>
<polygon fill="black" stroke="black" points="705.34,-702.444 701.84,-692.445 698.34,-702.445 705.34,-702.444"/>
</g>
<!-- eventbin&#45;&gt;svetcl -->
<g id="edge4" class="edge"><title>eventbin&#45;&gt;svetcl</title>
<path fill="none" stroke="black" d="M1003.33,-728.751C1018.82,-719.404 1038.37,-707.609 1055.15,-697.481"/>
<polygon fill="black" stroke="black" points="1057.39,-700.216 1064.15,-692.053 1053.77,-694.223 1057.39,-700.216"/>
</g>
</g>
</svg>
