<svg xmlns="http://www.w3.org/2000/svg" xmlns:xlink="http://www.w3.org/1999/xlink" width="1024" height="313.238"><defs><linearGradient id="a"><stop offset="0" stop-color="#001a30"/><stop offset="1" stop-color="#001a30" stop-opacity="0"/></linearGradient><linearGradient xlink:href="#a" id="b" gradientUnits="userSpaceOnUse" gradientTransform="matrix(.8 0 0 -.8 247.124 786.113)" x1="206.804" y1="80.045" x2="868.738" y2="80.045"/></defs><g fill="#001a30" fill-rule="evenodd"><path d="M108.07 158.45l2.075 22.6-50.318 18.09L62.041 175l46.03-16.55M102.193 94.424l2.075 22.597-38.164 13.722 2.217-24.142 33.872-12.177M63.418 77.16h44.797v-7.107H63.418v7.108z"/></g><path d="M942.115 709.58v24.936l-529.548.059z" fill="url(#b)" fill-rule="evenodd" transform="matrix(1.7181 0 0 -1.7181 -594.641 1335.479)"/><path d="M154.409 186.891l19.442-21.324-19.442 11.797-34.934-25.407 34.934 34.934" fill="#a7d1ec" fill-rule="evenodd"/><path d="M153.028.134c48.564 1.95 91.061 27.625 116.403 65.847l-91.516.079C163.978 40.48 153.028 17.55 153.028.134zm129.12 89.391c7.712 18 11.987 37.846 11.987 58.694 0 79.851-62.647 144.938-141.107 148.09 130.802-40.487 78.624-134.007 35.447-211.205l93.673 4.421" fill="#00488c" fill-rule="evenodd"/><g fill="#00488c" fill-rule="evenodd"><path d="M111.01 190.464l2.075 22.6-56.4 20.275 2.218-24.142 52.106-18.733M105.132 126.438l2.075 22.597-44.242 15.906 2.216-24.14 39.951-14.363M70.696 80.714h30.239l.395 4.294-32.087 11.536 1.453-15.83M85.816 66.963h-15.12c0-8.416 6.769-15.237 15.12-15.237 8.35 0 15.117 6.821 15.117 15.237H85.816"/></g><path d="M147.064 0c1.185 0 2.375.012 3.547.043-48.273 6.94-130.473 36.382-130.473 148.176 0 47.853 25.894 73.382 64.383 84.88l30.188-10.81-.115-9.396 17.896-12.23 18.121 12.328.164 29.374h-.164V296.4c-1.172.03-2.363.042-3.547.042C65.847 296.443 0 230.08 0 148.219 0 66.35 65.847 0 147.064 0" fill="#001a30" fill-rule="evenodd"/><g fill="#00488c" stroke="#00488c" stroke-width="1.164" stroke-linejoin="round"><path d="M419.142 235.6c0 9.803-3.982 18.567-11.945 26.285-9.931 9.562-23.47 14.338-40.625 14.338-11.644 0-23.041-2.02-34.193-6.063l-5.883-24.082c13.113 10.295 27.331 15.44 42.645 15.44 8.216 0 15.109-1.902 20.685-5.697 5.575-3.801 8.36-8.516 8.36-14.153 0-5.395-2.141-9.99-6.435-13.786-3.675-3.188-11.976-7.722-24.907-13.605-12.926-5.883-21.84-11.031-26.742-15.44-6.742-6.128-10.11-13.605-10.11-22.429 0-10.412 4.377-18.748 13.142-24.998 8.762-6.249 20.497-9.372 35.204-9.372 9.677 0 19.542 1.409 29.593 4.224v22.062c-8.703-8.458-18.935-12.686-30.7-12.686-7.596 0-13.755 1.685-18.471 5.058-4.722 3.369-7.08 7.748-7.08 13.143 0 4.777 1.87 8.789 5.606 12.036 3.74 3.248 11.428 7.567 23.072 12.962 13.846 6.37 23.284 11.578 28.306 15.625 6.983 5.512 10.478 12.56 10.478 21.137M527.223 272.915H494.87c3.429-2.574 5.545-4.842 6.34-6.802.799-1.961 1.197-6.064 1.197-12.313v-34.374c0-7.845-1.228-13.359-3.676-16.547-4.169-5.516-10.418-8.27-18.754-8.27-8.085 0-14.273 2.574-18.562 7.723-1.594 1.834-2.575 3.645-2.94 5.42-.368 1.78-.554 5.299-.554 10.567v35.48c0 6.25.367 10.323 1.101 12.223.739 1.9 2.881 4.198 6.436 6.893h-32.349c3.434-2.695 5.516-4.993 6.245-6.893.739-1.9 1.106-5.973 1.106-12.222v-89.524c0-6.37-.337-10.442-1.01-12.222-.67-1.775-2.786-4.073-6.34-6.893h13.413c5.269 0 9.07-1.227 11.398-3.675v51.654c6.25-8.215 15.932-12.318 29.045-12.318 12.745 0 22.117 4.228 28.125 12.686 3.183 4.408 4.777 11.086 4.777 20.035V253.8c0 6.124.367 10.17 1.1 12.132.74 1.96 2.821 4.288 6.255 6.983M569.862 159.5c0 3.428-1.16 6.31-3.488 8.637-2.328 2.328-5.21 3.495-8.644 3.495-3.307 0-6.122-1.167-8.456-3.495-2.327-2.327-3.49-5.209-3.49-8.638 0-3.307 1.192-6.128 3.586-8.456 2.388-2.327 5.3-3.494 8.727-3.494 3.189 0 5.949 1.197 8.277 3.585 2.328 2.393 3.488 5.179 3.488 8.365zm4.416 113.415H542.11c3.429-2.695 5.51-4.993 6.25-6.893.734-1.9 1.1-5.973 1.1-12.222V202.51c0-6.248-.366-10.32-1.1-12.22-.74-1.902-2.821-4.199-6.25-6.894h13.418c5.27 0 9.066-1.227 11.394-3.676V253.8c0 6.25.367 10.322 1.106 12.222.734 1.9 2.815 4.198 6.25 6.893M689.532 226.776c0 13.972-4.444 25.58-13.328 34.832-8.885 9.256-20.005 13.88-33.364 13.88-5.023 0-9.925-.859-14.706-2.573l-10.473-15.806c7.597 3.674 14.827 5.514 21.69 5.514 9.678 0 17.155-2.97 22.423-8.89 5.27-5.911 7.904-14.212 7.904-24.936 0-10.478-2.726-18.93-8.18-25.395-5.45-6.465-12.53-9.714-21.227-9.714-9.438 0-16.973 3.495-22.61 10.509-3.188 3.921-4.781 9.93-4.781 18.014v71.63c0 5.39.247 8.944.734 10.689.86 3.313 3.066 6.007 6.616 8.089h-32.167c3.554-2.082 5.762-4.776 6.616-8.09.493-1.589.74-5.144.74-10.659v-91.359c0-6.248-.367-10.32-1.107-12.22-.734-1.902-2.815-4.199-6.25-6.894h13.42c5.27 0 9.07-1.227 11.398-3.676v15.074c7.717-9.317 18.381-13.973 31.986-13.973 12.74 0 23.525 4.475 32.349 13.42 8.21 8.33 12.317 19.175 12.317 32.534" stroke-width="1.23840288"/></g><g fill="#001a30" stroke="#001a30" stroke-width="1.164" stroke-linejoin="round"><path d="M820.951 272.915c-9.557.734-15.5 1.101-17.828 1.101-5.515 0-10.267-1.287-14.248-3.856-3.978-2.544-9.216-7.692-15.712-15.38-12.373-14.676-23.71-30.73-34.003-48.19 21.565-3.68 32.349-12.902 32.349-27.668 0-6.37-2.172-11.519-6.526-15.5-4.348-3.952-10.015-5.943-16.998-5.943-3.802 0-8.336.487-13.606 1.468v89.247c0 7.074.246 11.699.734 13.906 1.107 5.023 3.741 8.608 7.904 10.815h-36.763c4.169-2.207 6.803-5.822 7.904-10.844.493-2.208.739-6.864.739-13.973v-78.12c0-7.11-.246-11.765-.739-13.973-1.1-5.022-3.735-8.636-7.904-10.844h45.405c12.379 0 21.936 2.514 28.674 7.506 8.572 6.37 12.866 14.616 12.866 24.757 0 7.44-2.942 14.274-8.819 20.433-5.882 6.158-13.42 10.417-22.61 12.745 14.46 19.421 26.004 33.67 34.64 42.705 8.644 9.04 16.824 15.565 24.541 19.608M908.086 252.326l-10.48 18.568c-7.968 3.062-16.916 4.595-26.842 4.595-16.172 0-29.375-4.414-39.61-13.237-10.233-8.82-15.351-20.217-15.351-34.188 0-14.461 5.274-26.472 15.812-36.03 8.21-7.476 18.998-11.212 32.35-11.212 12.746 0 23.279 3.983 31.62 11.946 8.33 7.969 12.501 18.08 12.501 30.332v3.128H836.76c.493 11.332 4.167 20.216 11.035 26.681 6.862 6.467 16.108 9.714 27.758 9.714 12.128 0 22.97-3.433 32.534-10.297zm-20.406-38.235c-2.692-14.46-10.905-21.69-24.63-21.69-13.852 0-22.37 7.23-25.553 21.69h50.183M1023.149 312.619h-32.162c3.542-2.941 5.66-5.33 6.34-7.17.67-1.834 1.011-5.883 1.011-12.132V199.39c-8.862-2.574-16.118-3.862-21.757-3.862-10.203 0-18.448 3.002-24.725 9.036-6.277 6.008-9.405 13.941-9.405 23.775 0 10.202 3.277 18.472 9.873 24.787 6.585 6.34 15.097 9.497 25.545 9.497 5.426 0 10.511-1.106 15.32-3.313l-9.373 13.972c-3.681 1.474-7.969 2.207-12.874 2.207-14.097 0-25.608-4.107-34.556-12.318-8.947-8.21-13.416-18.688-13.416-31.433 0-8.21 1.99-15.957 5.969-23.253 3.99-7.29 9.405-13.017 16.267-17.185 8.83-5.514 19.491-8.21 31.982-8.09l45.96.187c-3.436 2.695-5.52 4.992-6.255 6.893-.734 1.9-1.106 5.973-1.106 12.221v90.806c0 6.25.34 10.298 1.01 12.133.681 1.84 2.798 4.228 6.352 7.169" stroke-width="1.23840288"/></g></svg>