<?xml version="1.0" encoding="UTF-8" standalone="no"?>
<svg
   xmlns:dc="http://purl.org/dc/elements/1.1/"
   xmlns:cc="http://creativecommons.org/ns#"
   xmlns:rdf="http://www.w3.org/1999/02/22-rdf-syntax-ns#"
   xmlns:svg="http://www.w3.org/2000/svg"
   xmlns="http://www.w3.org/2000/svg"
   xmlns:sodipodi="http://sodipodi.sourceforge.net/DTD/sodipodi-0.dtd"
   xmlns:inkscape="http://www.inkscape.org/namespaces/inkscape"
   width="3584"
   height="3584"
   viewBox="0 0 3584 3584"
   version="1.1"
   id="svg4487"
   sodipodi:docname="question-tiled_manually.svg"
   inkscape:version="0.92.1 r">
  <metadata
     id="metadata4493">
    <rdf:RDF>
      <cc:Work
         rdf:about="">
        <dc:format>image/svg+xml</dc:format>
        <dc:type
           rdf:resource="http://purl.org/dc/dcmitype/StillImage" />
        <dc:title />
      </cc:Work>
    </rdf:RDF>
  </metadata>
  <defs
     id="defs4491">
    <filter
       inkscape:collect="always"
       style="color-interpolation-filters:sRGB"
       id="filter4770"
       x="-0.075162321"
       width="1.1503246"
       y="-0.054263393"
       height="1.1085268">
      <feGaussianBlur
         inkscape:collect="always"
         stdDeviation="28.940476"
         id="feGaussianBlur4772" />
    </filter>
    <filter
       inkscape:collect="always"
       style="color-interpolation-filters:sRGB"
       id="filter4774"
       x="-0.075162321"
       width="1.1503246"
       y="-0.054263393"
       height="1.1085268">
      <feGaussianBlur
         inkscape:collect="always"
         stdDeviation="28.940476"
         id="feGaussianBlur4776" />
    </filter>
  </defs>
  <sodipodi:namedview
     pagecolor="#ffffff"
     bordercolor="#666666"
     borderopacity="1"
     objecttolerance="10"
     gridtolerance="10"
     guidetolerance="10"
     inkscape:pageopacity="0"
     inkscape:pageshadow="2"
     inkscape:window-width="1920"
     inkscape:window-height="1058"
     id="namedview4489"
     showgrid="false"
     inkscape:zoom="0.23939732"
     inkscape:cx="1792"
     inkscape:cy="1792"
     inkscape:window-x="1200"
     inkscape:window-y="0"
     inkscape:window-maximized="1"
     inkscape:current-layer="svg4487" />
  <path
     inkscape:connector-curvature="0"
     d="m 2880,3048 v 240 q 0,16 -12,28 -12,12 -28,12 h -240 q -16,0 -28,-12 -12,-12 -12,-28 v -240 q 0,-16 12,-28 12,-12 28,-12 h 240 q 16,0 28,12 12,12 12,28 z m 316,-600 q 0,54 -15.5,101 -15.5,47 -35,76.5 -19.5,29.5 -55,59.5 -35.5,30 -57.5,43.5 -22,13.5 -61,35.5 -41,23 -68.5,65 -27.5,42 -27.5,67 0,17 -12,32.5 -12,15.5 -28,15.5 h -240 q -15,0 -25.5,-18.5 Q 2560,2907 2560,2888 v -45 q 0,-83 65,-156.5 65,-73.5 143,-108.5 59,-27 84,-56 25,-29 25,-76 0,-42 -46.5,-74 -46.5,-32 -107.5,-32 -65,0 -108,29 -35,25 -107,115 -13,16 -31,16 -12,0 -25,-8 l -164,-125 q -13,-10 -15.5,-25 -2.5,-15 5.5,-28 160,-266 464,-266 80,0 161,31 81,31 146,83 65,52 106,127.5 41,75.5 41,158.5 z"
     id="path4485"
     style="opacity:0.025;filter:url(#filter4770)" />
  <path
     id="path4501"
     d="m 1088,1256 v 240 q 0,16 -12,28 -12,12 -28,12 H 808 q -16,0 -28,-12 -12,-12 -12,-28 v -240 q 0,-16 12,-28 12,-12 28,-12 h 240 q 16,0 28,12 12,12 12,28 z m 316,-600 q 0,54 -15.5,101 -15.5,47 -35,76.5 -19.5,29.5 -55,59.5 -35.5,30 -57.5,43.5 -22,13.5 -61,35.5 -41,23 -68.5,65 -27.5,42 -27.5,67 0,17 -12,32.5 -12,15.5 -28,15.5 H 804 q -15,0 -25.5,-18.5 Q 768,1115 768,1096 v -45 q 0,-83 65,-156.5 65,-73.5 143,-108.5 59,-27 84,-56 25,-29 25,-76 0,-42 -46.5,-74 Q 992,548 931,548 q -65,0 -108,29 -35,25 -107,115 -13,16 -31,16 -12,0 -25,-8 L 496,575 Q 483,565 480.5,550 478,535 486,522 646,256 950,256 q 80,0 161,31 81,31 146,83 65,52 106,127.5 41,75.5 41,158.5 z"
     inkscape:connector-curvature="0"
     style="opacity:0.025;filter:url(#filter4774)" />
</svg>
