<?xml version="1.0" encoding="UTF-8" standalone="no"?>
<!DOCTYPE svg PUBLIC "-//W3C//DTD SVG 1.1//EN"
 "http://www.w3.org/Graphics/SVG/1.1/DTD/svg11.dtd">
<!-- Generated by graphviz version 2.36.0 (20140111.2315)
 -->
<!-- Title: G Pages: 1 -->
<svg width="813pt" height="715pt"
 viewBox="0.00 0.00 813.00 715.00" xmlns="http://www.w3.org/2000/svg" xmlns:xlink="http://www.w3.org/1999/xlink">
<g id="graph0" class="graph" transform="scale(1 1) rotate(0) translate(4 711)">
<title>G</title>
<polygon fill="white" stroke="none" points="-4,4 -4,-711 809,-711 809,4 -4,4"/>
<text text-anchor="middle" x="402.5" y="-691.8" font-family="Times,serif" font-size="14.00">ShipReq System Diagram</text>
<text text-anchor="middle" x="402.5" y="-676.8" font-family="Times,serif" font-size="14.00">(arrows denote flow of data from one component to another)</text>
<text text-anchor="middle" x="402.5" y="-661.8" font-family="Times,serif" font-size="14.00">(ignores which component instigates the data transfer)</text>
<text text-anchor="middle" x="402.5" y="-646.8" font-family="Times,serif" font-size="14.00">(red = email from user, blue = email to user)</text>
<g id="clust1" class="cluster"><title>cluster_usr</title>
<polygon fill="#eeeeaa" stroke="black" points="540,-156 540,-384 642,-384 642,-156 540,-156"/>
<text text-anchor="middle" x="591" y="-368.8" font-family="Times,serif" font-size="14.00">Userland</text>
</g>
<g id="clust2" class="cluster"><title>cluster_gandi</title>
<polygon fill="#e8e8e8" stroke="black" points="157,-307 157,-476 461,-476 461,-307 157,-307"/>
<text text-anchor="middle" x="309" y="-460.8" font-family="Times,serif" font-size="14.00">gandi.net</text>
</g>
<g id="clust3" class="cluster"><title>cluster_aws</title>
<polygon fill="#e8e8e8" stroke="black" points="469,-392 469,-631 612,-631 612,-392 469,-392"/>
<text text-anchor="middle" x="540.5" y="-615.8" font-family="Times,serif" font-size="14.00">Amazon Web Services</text>
</g>
<g id="clust5" class="cluster"><title>cluster_mc</title>
<polygon fill="#e8e8e8" stroke="black" points="687,-156 687,-383 797,-383 797,-156 687,-156"/>
<text text-anchor="middle" x="742" y="-367.8" font-family="Times,serif" font-size="14.00">MailChimp</text>
</g>
<g id="clust6" class="cluster"><title>cluster_fd</title>
<polygon fill="#e8e8e8" stroke="black" points="8,-156 8,-383 118,-383 118,-156 8,-156"/>
<text text-anchor="middle" x="63" y="-367.8" font-family="Times,serif" font-size="14.00">Freshdesk</text>
</g>
<g id="clust7" class="cluster"><title>cluster_crm</title>
<polygon fill="#e8e8e8" stroke="black" points="253,-8 253,-233 405,-233 405,-8 253,-8"/>
<text text-anchor="middle" x="329" y="-217.8" font-family="Times,serif" font-size="14.00">Insightly</text>
</g>
<!-- gmail -->
<g id="node1" class="node"><title>gmail</title>
<polygon fill="#aabbff" stroke="black" points="247,-528 244,-532 223,-532 220,-528 171,-528 171,-490 247,-490 247,-528"/>
<text text-anchor="middle" x="209" y="-512.8" font-family="Times,serif" font-size="14.00">shipreq@</text>
<text text-anchor="middle" x="209" y="-497.8" font-family="Times,serif" font-size="14.00">gmail.com</text>
</g>
<!-- gandi_mx -->
<g id="node5" class="node"><title>gandi_mx</title>
<ellipse fill="#55cc55" stroke="black" cx="209" cy="-427" rx="44.2946" ry="18"/>
<text text-anchor="middle" x="209" y="-423.3" font-family="Times,serif" font-size="14.00">Mail fwd</text>
</g>
<!-- gmail&#45;&gt;gandi_mx -->
<g id="edge14" class="edge"><title>gmail&#45;&gt;gandi_mx</title>
<path fill="none" stroke="red" d="M209,-479.796C209,-468.279 209,-455.329 209,-445.259"/>
<polygon fill="red" stroke="red" points="209,-489.847 204.5,-479.847 209,-484.847 209,-479.847 209,-479.847 209,-479.847 209,-484.847 213.5,-479.847 209,-489.847 209,-489.847"/>
</g>
<!-- usr_web -->
<g id="node2" class="node"><title>usr_web</title>
<polygon fill="#ccaa66" stroke="black" points="634,-279 560,-279 560,-283 548,-283 548,-241 634,-241 634,-279"/>
<polyline fill="none" stroke="black" points="548,-279 560,-279 "/>
<text text-anchor="middle" x="591" y="-263.8" font-family="Times,serif" font-size="14.00">User&#39;s</text>
<text text-anchor="middle" x="591" y="-248.8" font-family="Times,serif" font-size="14.00">web browser</text>
</g>
<!-- usr -->
<g id="node4" class="node"><title>usr</title>
<polygon fill="#ccaa66" stroke="black" points="592.5,-190 594,-191.5 594,-194.5 592.5,-196 589.5,-196 588,-194.5 588,-191.5 589.5,-190 592.5,-190"/>
<polyline fill="none" stroke="black" points="591,-190 591,-184 "/>
<polyline fill="none" stroke="black" points="564,-184 618,-184 "/>
<text text-anchor="middle" x="591" y="-172.3" font-family="Times,serif" font-size="14.00">User</text>
</g>
<!-- usr_web&#45;&gt;usr -->
<g id="edge24" class="edge"><title>usr_web&#45;&gt;usr</title>
<path fill="none" stroke="red" d="M584.413,-230.564C584.063,-221.522 584.277,-211.757 585.055,-203.596"/>
<polygon fill="red" stroke="red" points="585.084,-240.708 579.934,-231.027 584.754,-235.719 584.424,-230.73 584.424,-230.73 584.424,-230.73 584.754,-235.719 588.914,-230.433 585.084,-240.708 585.084,-240.708"/>
</g>
<!-- usr_web&#45;&gt;usr -->
<g id="edge36" class="edge"><title>usr_web&#45;&gt;usr</title>
<path fill="none" stroke="#000099" d="M596.916,-240.708C597.708,-232.587 597.936,-222.834 597.599,-213.774"/>
<polygon fill="#000099" stroke="#000099" points="596.945,-203.596 602.078,-213.286 597.266,-208.585 597.587,-213.575 597.587,-213.575 597.587,-213.575 597.266,-208.585 593.096,-213.864 596.945,-203.596 596.945,-203.596"/>
</g>
<!-- wb -->
<g id="node10" class="node"><title>wb</title>
<ellipse fill="pink" stroke="black" cx="540" cy="-582" rx="38.0212" ry="18"/>
<text text-anchor="middle" x="540" y="-578.3" font-family="Times,serif" font-size="14.00">webapp</text>
</g>
<!-- usr_web&#45;&gt;wb -->
<g id="edge19" class="edge"><title>usr_web&#45;&gt;wb</title>
<path fill="none" stroke="red" d="M600.98,-279.226C604.938,-287.453 609.014,-297.451 611,-307 626.295,-380.537 632.925,-404.16 611,-476 601.459,-507.262 579.087,-537.595 561.986,-557.553"/>
<polygon fill="red" stroke="red" points="555.265,-565.186 558.496,-554.707 558.57,-561.433 561.874,-557.681 561.874,-557.681 561.874,-557.681 558.57,-561.433 565.251,-560.654 555.265,-565.186 555.265,-565.186"/>
</g>
<!-- usr_mail -->
<g id="node3" class="node"><title>usr_mail</title>
<polygon fill="#ccaaaa" stroke="black" points="602,-353 599,-357 578,-357 575,-353 548,-353 548,-315 602,-315 602,-353"/>
<text text-anchor="middle" x="575" y="-337.8" font-family="Times,serif" font-size="14.00">User&#39;s</text>
<text text-anchor="middle" x="575" y="-322.8" font-family="Times,serif" font-size="14.00">email</text>
</g>
<!-- usr_mail&#45;&gt;usr_web -->
<g id="edge18" class="edge"><title>usr_mail&#45;&gt;usr_web</title>
<path fill="none" stroke="red" d="M574.649,-304.854C576.228,-296.31 578.475,-287.144 580.932,-279.413"/>
<polygon fill="red" stroke="red" points="573.085,-314.831 570.189,-304.255 573.86,-309.892 574.634,-304.952 574.634,-304.952 574.634,-304.952 573.86,-309.892 579.08,-305.649 573.085,-314.831 573.085,-314.831"/>
</g>
<!-- usr_mail&#45;&gt;usr_web -->
<g id="edge30" class="edge"><title>usr_mail&#45;&gt;usr_web</title>
<path fill="none" stroke="#000099" d="M584.99,-314.831C587.451,-307.131 589.707,-297.974 591.3,-289.417"/>
<polygon fill="#000099" stroke="#000099" points="592.884,-279.413 595.765,-289.994 592.102,-284.352 591.32,-289.29 591.32,-289.29 591.32,-289.29 592.102,-284.352 586.876,-288.586 592.884,-279.413 592.884,-279.413"/>
</g>
<!-- ea_contact -->
<g id="node6" class="node"><title>ea_contact</title>
<polygon fill="#a8aab8" stroke="black" points="452.5,-353 449.5,-357 428.5,-357 425.5,-353 369.5,-353 369.5,-315 452.5,-315 452.5,-353"/>
<text text-anchor="middle" x="411" y="-337.8" font-family="Times,serif" font-size="14.00">contact@</text>
<text text-anchor="middle" x="411" y="-322.8" font-family="Times,serif" font-size="14.00">shipreq.com</text>
</g>
<!-- usr_mail&#45;&gt;ea_contact -->
<g id="edge8" class="edge"><title>usr_mail&#45;&gt;ea_contact</title>
<path fill="none" stroke="red" d="M547.756,-334C519.395,-334 491.034,-334 462.672,-334"/>
<polygon fill="red" stroke="red" points="452.641,-334 462.641,-329.5 457.641,-334 462.641,-334 462.641,-334 462.641,-334 457.641,-334 462.641,-338.5 452.641,-334 452.641,-334"/>
</g>
<!-- gandi_mx&#45;&gt;ea_contact -->
<g id="edge9" class="edge"><title>gandi_mx&#45;&gt;ea_contact</title>
<path fill="none" stroke="red" d="M259.808,-418.101C290.029,-411.901 328.328,-401.332 359,-384 373.039,-376.067 386.229,-363.555 395.812,-353.16"/>
<polygon fill="red" stroke="red" points="249.892,-420.04 258.842,-413.705 254.799,-419.08 259.706,-418.121 259.706,-418.121 259.706,-418.121 254.799,-419.08 260.569,-422.537 249.892,-420.04 249.892,-420.04"/>
</g>
<!-- ea_news -->
<g id="node7" class="node"><title>ea_news</title>
<polygon fill="#a8aab8" stroke="black" points="248.5,-353 245.5,-357 224.5,-357 221.5,-353 165.5,-353 165.5,-315 248.5,-315 248.5,-353"/>
<text text-anchor="middle" x="207" y="-337.8" font-family="Times,serif" font-size="14.00">news@</text>
<text text-anchor="middle" x="207" y="-322.8" font-family="Times,serif" font-size="14.00">shipreq.com</text>
</g>
<!-- gandi_mx&#45;&gt;ea_news -->
<g id="edge10" class="edge"><title>gandi_mx&#45;&gt;ea_news</title>
<path fill="none" stroke="red" d="M208.403,-398.827C208.08,-384.119 207.689,-366.342 207.402,-353.289"/>
<polygon fill="red" stroke="red" points="208.624,-408.884 203.905,-398.985 208.514,-403.885 208.404,-398.886 208.404,-398.886 208.404,-398.886 208.514,-403.885 212.903,-398.787 208.624,-408.884 208.624,-408.884"/>
</g>
<!-- ea_notice -->
<g id="node8" class="node"><title>ea_notice</title>
<polygon fill="#a8aab8" stroke="black" points="350.5,-353 347.5,-357 326.5,-357 323.5,-353 267.5,-353 267.5,-315 350.5,-315 350.5,-353"/>
<text text-anchor="middle" x="309" y="-337.8" font-family="Times,serif" font-size="14.00">notice@</text>
<text text-anchor="middle" x="309" y="-322.8" font-family="Times,serif" font-size="14.00">shipreq.com</text>
</g>
<!-- gandi_mx&#45;&gt;ea_notice -->
<g id="edge11" class="edge"><title>gandi_mx&#45;&gt;ea_notice</title>
<path fill="none" stroke="red" d="M235.359,-403.245C242.433,-397.054 250.048,-390.313 257,-384 268.02,-373.993 280.134,-362.601 289.896,-353.321"/>
<polygon fill="red" stroke="red" points="227.374,-410.202 231.958,-400.24 231.144,-406.917 234.914,-403.632 234.914,-403.632 234.914,-403.632 231.144,-406.917 237.87,-407.025 227.374,-410.202 227.374,-410.202"/>
</g>
<!-- fd_mail -->
<g id="node15" class="node"><title>fd_mail</title>
<polygon fill="#aabbff" stroke="black" points="101.25,-352 98.25,-356 77.25,-356 74.25,-352 38.75,-352 38.75,-316 101.25,-316 101.25,-352"/>
<text text-anchor="middle" x="70" y="-330.3" font-family="Times,serif" font-size="14.00">Mailbox</text>
</g>
<!-- gandi_mx&#45;&gt;fd_mail -->
<g id="edge12" class="edge"><title>gandi_mx&#45;&gt;fd_mail</title>
<path fill="none" stroke="red" d="M178.761,-413.834C161.715,-406.349 140.413,-395.92 123,-384 112.603,-376.883 102.197,-367.798 93.3931,-359.388"/>
<polygon fill="red" stroke="red" points="86.1093,-352.238 96.3981,-356.032 89.6776,-355.741 93.2458,-359.244 93.2458,-359.244 93.2458,-359.244 89.6776,-355.741 90.0934,-362.455 86.1093,-352.238 86.1093,-352.238"/>
</g>
<!-- crm_mail -->
<g id="node18" class="node"><title>crm_mail</title>
<polygon fill="#aabbff" stroke="black" points="324.25,-202 321.25,-206 300.25,-206 297.25,-202 261.75,-202 261.75,-166 324.25,-166 324.25,-202"/>
<text text-anchor="middle" x="293" y="-180.3" font-family="Times,serif" font-size="14.00">Mailbox</text>
</g>
<!-- gandi_mx&#45;&gt;crm_mail -->
<g id="edge13" class="edge"><title>gandi_mx&#45;&gt;crm_mail</title>
<path fill="none" stroke="red" d="M182.99,-412.32C172.583,-405.357 161.723,-395.838 156,-384 141.104,-353.19 141.995,-338.225 156,-307 175.742,-262.985 220.081,-228.347 253,-207.397"/>
<polygon fill="red" stroke="red" points="261.526,-202.112 255.398,-211.205 257.277,-204.746 253.027,-207.38 253.027,-207.38 253.027,-207.38 257.277,-204.746 250.656,-203.556 261.526,-202.112 261.526,-202.112"/>
</g>
<!-- aws_rds -->
<g id="node9" class="node"><title>aws_rds</title>
<ellipse fill="#55cc55" stroke="black" cx="540" cy="-509" rx="27.4223" ry="18"/>
<text text-anchor="middle" x="540" y="-505.3" font-family="Times,serif" font-size="14.00">RDS</text>
</g>
<!-- worker -->
<g id="node11" class="node"><title>worker</title>
<ellipse fill="pink" stroke="black" cx="540" cy="-427" rx="62.3993" ry="26.7407"/>
<text text-anchor="middle" x="540" y="-430.8" font-family="Times,serif" font-size="14.00">Backend task</text>
<text text-anchor="middle" x="540" y="-415.8" font-family="Times,serif" font-size="14.00">processor</text>
</g>
<!-- aws_rds&#45;&gt;worker -->
<g id="edge21" class="edge"><title>aws_rds&#45;&gt;worker</title>
<path fill="none" stroke="red" d="M528.993,-492.195C527.053,-484.016 526.245,-473.676 526.57,-463.697"/>
<polygon fill="red" stroke="red" points="527.317,-453.534 531.071,-463.837 526.95,-458.521 526.584,-463.507 526.584,-463.507 526.584,-463.507 526.95,-458.521 522.096,-463.177 527.317,-453.534 527.317,-453.534"/>
</g>
<!-- aws_rds&#45;&gt;worker -->
<g id="edge39" class="edge"><title>aws_rds&#45;&gt;worker</title>
<path fill="none" stroke="#000099" d="M551.007,-492.195C552.947,-484.016 553.755,-473.676 553.43,-463.697"/>
<polygon fill="#000099" stroke="#000099" points="552.683,-453.534 557.904,-463.177 553.05,-458.521 553.416,-463.507 553.416,-463.507 553.416,-463.507 553.05,-458.521 548.929,-463.837 552.683,-453.534 552.683,-453.534"/>
</g>
<!-- wb&#45;&gt;usr_web -->
<g id="edge7" class="edge"><title>wb&#45;&gt;usr_web</title>
<path fill="none" stroke="black" d="M583.835,-570.646C606.274,-562.884 631.622,-549.738 645,-528 696.48,-444.349 686.179,-396.173 645,-307 641.326,-299.044 635.523,-291.957 629.057,-285.871"/>
<polygon fill="black" stroke="black" points="574.113,-573.748 582.272,-566.421 578.876,-572.228 583.64,-570.708 583.64,-570.708 583.64,-570.708 578.876,-572.228 585.008,-574.995 574.113,-573.748 574.113,-573.748"/>
<polygon fill="black" stroke="black" points="621.251,-279.193 631.775,-282.274 625.051,-282.443 628.85,-285.694 628.85,-285.694 628.85,-285.694 625.051,-282.443 625.925,-289.113 621.251,-279.193 621.251,-279.193"/>
</g>
<!-- wb&#45;&gt;aws_rds -->
<g id="edge1" class="edge"><title>wb&#45;&gt;aws_rds</title>
<path fill="none" stroke="black" d="M526.888,-554.442C526.333,-548.169 526.373,-541.498 527.01,-535.283"/>
<polygon fill="black" stroke="black" points="528.398,-564.533 522.468,-555.309 527.658,-559.588 526.918,-554.643 526.918,-554.643 526.918,-554.643 527.658,-559.588 531.368,-553.977 528.398,-564.533 528.398,-564.533"/>
<polygon fill="black" stroke="black" points="528.643,-525.406 531.451,-536.006 527.827,-530.339 527.011,-535.272 527.011,-535.272 527.011,-535.272 527.827,-530.339 522.572,-534.538 528.643,-525.406 528.643,-525.406"/>
</g>
<!-- wb&#45;&gt;aws_rds -->
<g id="edge20" class="edge"><title>wb&#45;&gt;aws_rds</title>
<path fill="none" stroke="red" d="M540,-563.813C540,-555.789 540,-546.047 540,-537.069"/>
<polygon fill="red" stroke="red" points="540,-527.029 544.5,-537.029 540,-532.029 540,-537.029 540,-537.029 540,-537.029 540,-532.029 535.5,-537.029 540,-527.029 540,-527.029"/>
</g>
<!-- wb&#45;&gt;aws_rds -->
<g id="edge38" class="edge"><title>wb&#45;&gt;aws_rds</title>
<path fill="none" stroke="#000099" d="M551.602,-564.533C553.519,-555.869 553.984,-545.057 552.997,-535.351"/>
<polygon fill="#000099" stroke="#000099" points="551.357,-525.406 557.424,-534.54 552.171,-530.339 552.984,-535.273 552.984,-535.273 552.984,-535.273 552.171,-530.339 548.544,-536.005 551.357,-525.406 551.357,-525.406"/>
</g>
<!-- worker&#45;&gt;usr_mail -->
<g id="edge26" class="edge"><title>worker&#45;&gt;usr_mail</title>
<path fill="none" stroke="#000099" d="M549.936,-400.166C554.452,-388.426 559.799,-374.522 564.393,-362.578"/>
<polygon fill="#000099" stroke="#000099" points="568.039,-353.098 568.65,-364.047 566.244,-357.764 564.449,-362.431 564.449,-362.431 564.449,-362.431 566.244,-357.764 560.249,-360.816 568.039,-353.098 568.039,-353.098"/>
</g>
<!-- worker&#45;&gt;ea_contact -->
<g id="edge15" class="edge"><title>worker&#45;&gt;ea_contact</title>
<path fill="none" stroke="red" d="M501.606,-405.789C490.179,-399.279 477.826,-391.736 467,-384 456.92,-376.796 446.532,-368.113 437.483,-360.07"/>
<polygon fill="red" stroke="red" points="429.917,-353.219 440.35,-356.595 433.623,-356.575 437.33,-359.931 437.33,-359.931 437.33,-359.931 433.623,-356.575 434.31,-363.267 429.917,-353.219 429.917,-353.219"/>
</g>
<!-- worker&#45;&gt;aws_rds -->
<g id="edge2" class="edge"><title>worker&#45;&gt;aws_rds</title>
<path fill="none" stroke="black" d="M540,-464.333C540,-469.743 540,-475.243 540,-480.433"/>
<polygon fill="black" stroke="black" points="540,-454.147 544.5,-464.147 540,-459.147 540,-464.147 540,-464.147 540,-464.147 540,-459.147 535.5,-464.147 540,-454.147 540,-454.147"/>
<polygon fill="black" stroke="black" points="540,-490.641 535.5,-480.641 540,-485.641 540,-480.641 540,-480.641 540,-480.641 540,-485.641 544.5,-480.641 540,-490.641 540,-490.641"/>
</g>
<!-- mc_api -->
<g id="node12" class="node"><title>mc_api</title>
<ellipse fill="#55cc55" stroke="black" cx="733" cy="-334" rx="27" ry="18"/>
<text text-anchor="middle" x="733" y="-330.3" font-family="Times,serif" font-size="14.00">API</text>
</g>
<!-- worker&#45;&gt;mc_api -->
<g id="edge3" class="edge"><title>worker&#45;&gt;mc_api</title>
<path fill="none" stroke="black" d="M582.788,-407.297C599.854,-400.464 619.491,-392.352 637,-384 659.085,-373.465 683.265,-359.651 702.024,-349.376"/>
<polygon fill="black" stroke="black" points="711.032,-344.505 704.377,-353.22 706.634,-346.883 702.236,-349.262 702.236,-349.262 702.236,-349.262 706.634,-346.883 700.095,-345.304 711.032,-344.505 711.032,-344.505"/>
</g>
<!-- worker&#45;&gt;mc_api -->
<g id="edge32" class="edge"><title>worker&#45;&gt;mc_api</title>
<path fill="none" stroke="#000099" d="M600.081,-407.182C618.073,-400.374 637.589,-392.305 655,-384 677.374,-373.327 701.898,-359.289 717.621,-348.975"/>
<polygon fill="#000099" stroke="#000099" points="590.266,-410.828 598.073,-403.128 594.953,-409.087 599.64,-407.346 599.64,-407.346 599.64,-407.346 594.953,-409.087 601.207,-411.564 590.266,-410.828 590.266,-410.828"/>
</g>
<!-- worker&#45;&gt;crm_mail -->
<g id="edge27" class="edge"><title>worker&#45;&gt;crm_mail</title>
<path fill="none" stroke="#000099" d="M525.985,-400.651C508.834,-370.227 480.204,-321.489 465,-307 416.591,-260.869 385.613,-275.515 334,-233 326.048,-226.45 318.408,-218.239 311.923,-210.469"/>
<polygon fill="#000099" stroke="#000099" points="305.379,-202.311 315.147,-207.295 308.508,-206.211 311.636,-210.111 311.636,-210.111 311.636,-210.111 308.508,-206.211 308.126,-212.927 305.379,-202.311 305.379,-202.311"/>
</g>
<!-- crm_api -->
<g id="node20" class="node"><title>crm_api</title>
<ellipse fill="#55cc55" stroke="black" cx="370" cy="-184" rx="27" ry="18"/>
<text text-anchor="middle" x="370" y="-180.3" font-family="Times,serif" font-size="14.00">API</text>
</g>
<!-- worker&#45;&gt;crm_api -->
<g id="edge4" class="edge"><title>worker&#45;&gt;crm_api</title>
<path fill="none" stroke="black" d="M536.524,-399.908C530.066,-354.877 515.035,-265.073 495,-241 472.442,-213.896 434.076,-199.402 405.784,-192.004"/>
<polygon fill="black" stroke="black" points="395.865,-189.589 406.646,-187.582 400.723,-190.772 405.581,-191.955 405.581,-191.955 405.581,-191.955 400.723,-190.772 404.517,-196.327 395.865,-189.589 395.865,-189.589"/>
</g>
<!-- mc_web -->
<g id="node13" class="node"><title>mc_web</title>
<polygon fill="#55cc55" stroke="black" points="789,-278 707,-278 707,-282 695,-282 695,-242 789,-242 789,-278"/>
<polyline fill="none" stroke="black" points="695,-278 707,-278 "/>
<text text-anchor="middle" x="742" y="-256.3" font-family="Times,serif" font-size="14.00">Web interface</text>
</g>
<!-- mc_api&#45;&gt;mc_web -->
<g id="edge6" class="edge"><title>mc_api&#45;&gt;mc_web</title>
<path fill="none" stroke="black" d="M729.293,-315.937C729.448,-307.719 730.46,-297.66 731.998,-288.406"/>
<polygon fill="black" stroke="black" points="733.94,-278.441 736.444,-289.117 732.984,-283.348 732.027,-288.256 732.027,-288.256 732.027,-288.256 732.984,-283.348 727.61,-287.395 733.94,-278.441 733.94,-278.441"/>
</g>
<!-- mc_api&#45;&gt;mc_web -->
<g id="edge33" class="edge"><title>mc_api&#45;&gt;mc_web</title>
<path fill="none" stroke="#000099" d="M742.799,-306.791C744.453,-297.2 745.548,-286.605 745.708,-278.025"/>
<polygon fill="#000099" stroke="#000099" points="740.803,-316.662 738.374,-305.969 741.794,-311.761 742.785,-306.86 742.785,-306.86 742.785,-306.86 741.794,-311.761 747.196,-307.752 740.803,-316.662 740.803,-316.662"/>
</g>
<!-- mc_web&#45;&gt;usr_mail -->
<g id="edge25" class="edge"><title>mc_web&#45;&gt;usr_mail</title>
<path fill="none" stroke="#000099" d="M702.329,-278.104C674.816,-289.966 638.443,-305.647 611.619,-317.212"/>
<polygon fill="#000099" stroke="#000099" points="602.203,-321.272 609.604,-313.18 606.795,-319.292 611.386,-317.313 611.386,-317.313 611.386,-317.313 606.795,-319.292 613.168,-321.445 602.203,-321.272 602.203,-321.272"/>
</g>
<!-- mc_staff -->
<g id="node14" class="node"><title>mc_staff</title>
<polygon fill="#aabbff" stroke="black" points="743.5,-190 745,-191.5 745,-194.5 743.5,-196 740.5,-196 739,-194.5 739,-191.5 740.5,-190 743.5,-190"/>
<polyline fill="none" stroke="black" points="742,-190 742,-184 "/>
<polyline fill="none" stroke="black" points="715,-184 769,-184 "/>
<text text-anchor="middle" x="742" y="-172.3" font-family="Times,serif" font-size="14.00">Staff</text>
</g>
<!-- mc_web&#45;&gt;mc_staff -->
<g id="edge35" class="edge"><title>mc_web&#45;&gt;mc_staff</title>
<path fill="none" stroke="#000099" d="M742,-231.785C742,-222.418 742,-212.15 742,-203.626"/>
<polygon fill="#000099" stroke="#000099" points="742,-241.837 737.5,-231.837 742,-236.837 742,-231.837 742,-231.837 742,-231.837 742,-236.837 746.5,-231.837 742,-241.837 742,-241.837"/>
</g>
<!-- fd_web -->
<g id="node16" class="node"><title>fd_web</title>
<polygon fill="#55cc55" stroke="black" points="110,-278 28,-278 28,-282 16,-282 16,-242 110,-242 110,-278"/>
<polyline fill="none" stroke="black" points="16,-278 28,-278 "/>
<text text-anchor="middle" x="63" y="-256.3" font-family="Times,serif" font-size="14.00">Web interface</text>
</g>
<!-- fd_mail&#45;&gt;fd_web -->
<g id="edge16" class="edge"><title>fd_mail&#45;&gt;fd_web</title>
<path fill="none" stroke="red" d="M68.3411,-315.937C67.5421,-307.719 66.5642,-297.66 65.6645,-288.406"/>
<polygon fill="red" stroke="red" points="64.6956,-278.441 70.1423,-287.958 65.1795,-283.417 65.6634,-288.394 65.6634,-288.394 65.6634,-288.394 65.1795,-283.417 61.1845,-288.829 64.6956,-278.441 64.6956,-278.441"/>
</g>
<!-- fd_web&#45;&gt;usr_mail -->
<g id="edge29" class="edge"><title>fd_web&#45;&gt;usr_mail</title>
<path fill="none" stroke="#000099" d="M110.295,-264.589C185.706,-270.72 337.675,-284.748 465,-307 489.42,-311.268 516.525,-317.655 537.719,-323.03"/>
<polygon fill="#000099" stroke="#000099" points="547.611,-325.574 536.805,-327.442 542.768,-324.329 537.926,-323.083 537.926,-323.083 537.926,-323.083 542.768,-324.329 539.047,-318.725 547.611,-325.574 547.611,-325.574"/>
</g>
<!-- fd_staff -->
<g id="node17" class="node"><title>fd_staff</title>
<polygon fill="#aabbff" stroke="black" points="64.5,-190 66,-191.5 66,-194.5 64.5,-196 61.5,-196 60,-194.5 60,-191.5 61.5,-190 64.5,-190"/>
<polyline fill="none" stroke="black" points="63,-190 63,-184 "/>
<polyline fill="none" stroke="black" points="36,-184 90,-184 "/>
<text text-anchor="middle" x="63" y="-172.3" font-family="Times,serif" font-size="14.00">Staff</text>
</g>
<!-- fd_web&#45;&gt;fd_staff -->
<g id="edge22" class="edge"><title>fd_web&#45;&gt;fd_staff</title>
<path fill="none" stroke="red" d="M57.1992,-241.837C56.3168,-233.523 56.0496,-223.312 56.3977,-213.85"/>
<polygon fill="red" stroke="red" points="57.0521,-203.626 60.9041,-213.893 56.7327,-208.615 56.4133,-213.605 56.4133,-213.605 56.4133,-213.605 56.7327,-208.615 51.9225,-213.318 57.0521,-203.626 57.0521,-203.626"/>
</g>
<!-- fd_web&#45;&gt;fd_staff -->
<g id="edge34" class="edge"><title>fd_web&#45;&gt;fd_staff</title>
<path fill="none" stroke="#000099" d="M69.5357,-231.785C69.955,-222.418 69.7591,-212.15 68.9479,-203.626"/>
<polygon fill="#000099" stroke="#000099" points="68.8008,-241.837 65.042,-231.535 69.1654,-236.85 69.53,-231.864 69.53,-231.864 69.53,-231.864 69.1654,-236.85 74.0181,-232.192 68.8008,-241.837 68.8008,-241.837"/>
</g>
<!-- fd_web&#45;&gt;crm_mail -->
<g id="edge28" class="edge"><title>fd_web&#45;&gt;crm_mail</title>
<path fill="none" stroke="#000099" d="M110.099,-243.846C151.777,-230.437 211.993,-211.063 251.794,-198.258"/>
<polygon fill="#000099" stroke="#000099" points="261.449,-195.151 253.308,-202.498 256.689,-196.683 251.93,-198.214 251.93,-198.214 251.93,-198.214 256.689,-196.683 250.551,-193.93 261.449,-195.151 261.449,-195.151"/>
</g>
<!-- crm_web -->
<g id="node19" class="node"><title>crm_web</title>
<polygon fill="#55cc55" stroke="black" points="355,-128 273,-128 273,-132 261,-132 261,-92 355,-92 355,-128"/>
<polyline fill="none" stroke="black" points="261,-128 273,-128 "/>
<text text-anchor="middle" x="308" y="-106.3" font-family="Times,serif" font-size="14.00">Web interface</text>
</g>
<!-- crm_mail&#45;&gt;crm_web -->
<g id="edge17" class="edge"><title>crm_mail&#45;&gt;crm_web</title>
<path fill="none" stroke="red" d="M290.715,-165.937C291.564,-157.63 293.445,-147.444 295.789,-138.108"/>
<polygon fill="red" stroke="red" points="298.487,-128.441 300.133,-139.282 297.143,-133.257 295.799,-138.073 295.799,-138.073 295.799,-138.073 297.143,-133.257 291.464,-136.863 298.487,-128.441 298.487,-128.441"/>
</g>
<!-- crm_mail&#45;&gt;crm_web -->
<g id="edge31" class="edge"><title>crm_mail&#45;&gt;crm_web</title>
<path fill="none" stroke="#000099" d="M302.395,-165.937C304.979,-157.719 307.32,-147.66 308.866,-138.406"/>
<polygon fill="#000099" stroke="#000099" points="310.246,-128.441 313.332,-138.963 309.56,-133.393 308.875,-138.346 308.875,-138.346 308.875,-138.346 309.56,-133.393 304.417,-137.729 310.246,-128.441 310.246,-128.441"/>
</g>
<!-- crm_staff -->
<g id="node21" class="node"><title>crm_staff</title>
<polygon fill="#aabbff" stroke="black" points="309.5,-42 311,-43.5 311,-46.5 309.5,-48 306.5,-48 305,-46.5 305,-43.5 306.5,-42 309.5,-42"/>
<polyline fill="none" stroke="black" points="308,-42 308,-36 "/>
<polyline fill="none" stroke="black" points="281,-36 335,-36 "/>
<text text-anchor="middle" x="308" y="-24.3" font-family="Times,serif" font-size="14.00">Staff</text>
</g>
<!-- crm_web&#45;&gt;crm_staff -->
<g id="edge23" class="edge"><title>crm_web&#45;&gt;crm_staff</title>
<path fill="none" stroke="red" d="M302.16,-91.937C301.329,-84.1061 301.067,-74.6039 301.374,-65.7192"/>
<polygon fill="red" stroke="red" points="301.996,-55.7101 305.867,-65.9699 301.686,-60.7005 301.376,-65.6909 301.376,-65.6909 301.376,-65.6909 301.686,-60.7005 296.885,-65.4119 301.996,-55.7101 301.996,-55.7101"/>
</g>
<!-- crm_web&#45;&gt;crm_staff -->
<g id="edge37" class="edge"><title>crm_web&#45;&gt;crm_staff</title>
<path fill="none" stroke="#000099" d="M313.84,-91.937C314.671,-84.1061 314.933,-74.6039 314.626,-65.7192"/>
<polygon fill="#000099" stroke="#000099" points="314.004,-55.7101 319.115,-65.4119 314.314,-60.7005 314.624,-65.6909 314.624,-65.6909 314.624,-65.6909 314.314,-60.7005 310.133,-65.9699 314.004,-55.7101 314.004,-55.7101"/>
</g>
<!-- crm_api&#45;&gt;crm_web -->
<g id="edge5" class="edge"><title>crm_api&#45;&gt;crm_web</title>
<path fill="none" stroke="black" d="M357.154,-168.082C349.183,-158.825 338.74,-146.698 329.531,-136.004"/>
<polygon fill="black" stroke="black" points="322.79,-128.176 332.725,-132.817 326.053,-131.965 329.315,-135.753 329.315,-135.753 329.315,-135.753 326.053,-131.965 325.906,-138.69 322.79,-128.176 322.79,-128.176"/>
</g>
</g>
</svg>
