<?xml version="1.0" encoding="UTF-8" standalone="no"?>
<!DOCTYPE svg PUBLIC "-//W3C//DTD SVG 1.1//EN"
 "http://www.w3.org/Graphics/SVG/1.1/DTD/svg11.dtd">
<!-- Generated by graphviz version 2.40.1 (20161225.0304)
 -->
<!-- Title: G Pages: 1 -->
<svg width="835pt" height="422pt"
 viewBox="0.00 0.00 834.59 421.74" xmlns="http://www.w3.org/2000/svg" xmlns:xlink="http://www.w3.org/1999/xlink">
<g id="graph0" class="graph" transform="scale(1 1) rotate(0) translate(4 417.7401)">
<title>G</title>
<polygon fill="#ffffff" stroke="transparent" points="-4,4 -4,-417.7401 830.5859,-417.7401 830.5859,4 -4,4"/>
<!-- SimpleActor -->
<g id="node1" class="node">
<title>SimpleActor</title>
<ellipse fill="none" stroke="#5566aa" stroke-width="2" cx="600.594" cy="-386.8701" rx="92.7622" ry="26.7407"/>
<text text-anchor="middle" x="600.594" y="-390.6701" font-family="Times,serif" font-size="14.00" fill="#000000">SimpleActor[&#45;T]</text>
<text text-anchor="middle" x="600.594" y="-375.6701" font-family="Times,serif" font-size="14.00" fill="#000000">! : T =&gt; Unit</text>
</g>
<!-- ForwardableActor -->
<g id="node2" class="node">
<title>ForwardableActor</title>
<ellipse fill="none" stroke="#5566aa" stroke-width="2" cx="336.594" cy="-234" rx="95.5831" ry="18"/>
<text text-anchor="middle" x="336.594" y="-230.3" font-family="Times,serif" font-size="14.00" fill="#000000">ForwardableActor</text>
</g>
<!-- TypedActor -->
<g id="node3" class="node">
<title>TypedActor</title>
<ellipse fill="none" stroke="#5566aa" stroke-width="2" cx="361.594" cy="-306" rx="65.7887" ry="18"/>
<text text-anchor="middle" x="361.594" y="-302.3" font-family="Times,serif" font-size="14.00" fill="#000000">TypedActor</text>
</g>
<!-- ForwardableActor&#45;&gt;TypedActor -->
<g id="edge2" class="edge">
<title>ForwardableActor&#45;&gt;TypedActor</title>
<path fill="none" stroke="#6677cc" d="M346.269,-261.864C349.2637,-270.4887 352.4866,-279.7708 355.2005,-287.5867"/>
<polygon fill="#6677cc" stroke="#6677cc" points="342.9026,-252.1686 350.4338,-260.1393 344.5426,-256.892 346.1827,-261.6154 346.1827,-261.6154 346.1827,-261.6154 344.5426,-256.892 341.9317,-263.0915 342.9026,-252.1686 342.9026,-252.1686"/>
</g>
<!-- TypedActor&#45;&gt;SimpleActor -->
<g id="edge1" class="edge">
<title>TypedActor&#45;&gt;SimpleActor</title>
<path fill="none" stroke="#6677cc" d="M412.614,-323.2636C449.9229,-335.8877 500.6743,-353.0604 540.0399,-366.3804"/>
<polygon fill="#6677cc" stroke="#6677cc" points="402.9518,-319.9942 413.8666,-318.9368 407.688,-321.5968 412.4242,-323.1994 412.4242,-323.1994 412.4242,-323.1994 407.688,-321.5968 410.9819,-327.462 402.9518,-319.9942 402.9518,-319.9942"/>
</g>
<!-- GenericActor -->
<g id="node4" class="node">
<title>GenericActor</title>
<ellipse fill="none" stroke="#5566aa" stroke-width="2" cx="523.594" cy="-234" rx="73.387" ry="18"/>
<text text-anchor="middle" x="523.594" y="-230.3" font-family="Times,serif" font-size="14.00" fill="#000000">GenericActor</text>
</g>
<!-- GenericActor&#45;&gt;TypedActor -->
<g id="edge3" class="edge">
<title>GenericActor&#45;&gt;TypedActor</title>
<path fill="none" stroke="#6677cc" d="M478.7497,-253.9308C452.6814,-265.5167 420.327,-279.8964 396.2283,-290.607"/>
<polygon fill="#6677cc" stroke="#6677cc" points="488.0424,-249.8007 480.7319,-257.9743 483.4734,-251.8314 478.9043,-253.8621 478.9043,-253.8621 478.9043,-253.8621 483.4734,-251.8314 477.0766,-249.75 488.0424,-249.8007 488.0424,-249.8007"/>
</g>
<!-- SpecializedLiftActor -->
<g id="node5" class="node">
<title>SpecializedLiftActor</title>
<ellipse fill="#ccddff" stroke="#5566aa" cx="600.594" cy="-306" rx="106.6812" ry="18"/>
<text text-anchor="middle" x="600.594" y="-302.3" font-family="Times,serif" font-size="14.00" fill="#000000">SpecializedLiftActor</text>
</g>
<!-- SpecializedLiftActor&#45;&gt;SimpleActor -->
<g id="edge4" class="edge">
<title>SpecializedLiftActor&#45;&gt;SimpleActor</title>
<path fill="none" stroke="#6677cc" d="M600.594,-334.3728C600.594,-342.697 600.594,-351.7719 600.594,-359.9994"/>
<polygon fill="#6677cc" stroke="#6677cc" points="600.594,-324.3507 605.0941,-334.3506 600.5941,-329.3507 600.5941,-334.3507 600.5941,-334.3507 600.5941,-334.3507 600.5941,-329.3507 596.0941,-334.3507 600.594,-324.3507 600.594,-324.3507"/>
</g>
<!-- LiftActor -->
<g id="node6" class="node">
<title>LiftActor</title>
<ellipse fill="#ccddff" stroke="#5566aa" cx="507.594" cy="-162" rx="53.0913" ry="18"/>
<text text-anchor="middle" x="507.594" y="-158.3" font-family="Times,serif" font-size="14.00" fill="#000000">LiftActor</text>
</g>
<!-- LiftActor&#45;&gt;ForwardableActor -->
<g id="edge7" class="edge">
<title>LiftActor&#45;&gt;ForwardableActor</title>
<path fill="none" stroke="#6677cc" d="M464.9181,-179.9688C437.6259,-191.4603 402.4857,-206.2561 375.8802,-217.4585"/>
<polygon fill="#6677cc" stroke="#6677cc" points="474.2175,-176.0532 466.7475,-184.0812 469.6094,-177.9936 465.0012,-179.9339 465.0012,-179.9339 465.0012,-179.9339 469.6094,-177.9936 463.2549,-175.7865 474.2175,-176.0532 474.2175,-176.0532"/>
</g>
<!-- LiftActor&#45;&gt;GenericActor -->
<g id="edge6" class="edge">
<title>LiftActor&#45;&gt;GenericActor</title>
<path fill="none" stroke="#6677cc" d="M513.8486,-190.1455C515.7474,-198.6903 517.7842,-207.8558 519.5022,-215.5867"/>
<polygon fill="#6677cc" stroke="#6677cc" points="511.6315,-180.1686 518.1937,-188.9543 512.7162,-185.0496 513.8009,-189.9305 513.8009,-189.9305 513.8009,-189.9305 512.7162,-185.0496 509.408,-190.9067 511.6315,-180.1686 511.6315,-180.1686"/>
</g>
<!-- LiftActor&#45;&gt;SpecializedLiftActor -->
<g id="edge5" class="edge">
<title>LiftActor&#45;&gt;SpecializedLiftActor</title>
<path fill="none" stroke="#6677cc" d="M557.8344,-177.4129C576.1905,-185.7494 595.0285,-198.1149 605.594,-216 618.568,-237.9621 612.9934,-268.4438 607.2308,-287.6923"/>
<polygon fill="#6677cc" stroke="#6677cc" points="548.6142,-173.5253 559.5769,-173.264 553.2214,-175.4679 557.8286,-177.4105 557.8286,-177.4105 557.8286,-177.4105 553.2214,-175.4679 556.0803,-181.557 548.6142,-173.5253 548.6142,-173.5253"/>
</g>
<!-- LiftCometActor -->
<g id="node7" class="node">
<title>LiftCometActor</title>
<ellipse fill="none" stroke="#cc7755" stroke-width="2" cx="336.594" cy="-162" rx="83.6854" ry="18"/>
<text text-anchor="middle" x="336.594" y="-158.3" font-family="Times,serif" font-size="14.00" fill="#000000">LiftCometActor</text>
</g>
<!-- LiftCometActor&#45;&gt;ForwardableActor -->
<g id="edge9" class="edge">
<title>LiftCometActor&#45;&gt;ForwardableActor</title>
<path fill="none" stroke="#dd5544" d="M336.594,-190.4274C336.594,-198.8916 336.594,-207.9407 336.594,-215.5867"/>
<polygon fill="#dd5544" stroke="#dd5544" points="336.594,-180.1686 341.0941,-190.1686 336.5941,-185.1686 336.5941,-190.1686 336.5941,-190.1686 336.5941,-190.1686 336.5941,-185.1686 332.0941,-190.1687 336.594,-180.1686 336.594,-180.1686"/>
</g>
<!-- LiftCometActor&#45;&gt;TypedActor -->
<g id="edge8" class="edge">
<title>LiftCometActor&#45;&gt;TypedActor</title>
<path fill="none" stroke="#dd5544" d="M274.6068,-180.2784C257.7298,-188.4078 241.414,-199.9072 231.594,-216 223.2598,-229.658 222.7115,-238.692 231.594,-252 247.875,-276.3926 277.457,-289.7824 304.293,-297.1248"/>
<polygon fill="#dd5544" stroke="#dd5544" points="284.003,-176.101 276.6935,-184.2754 279.4342,-178.1322 274.8653,-180.1635 274.8653,-180.1635 274.8653,-180.1635 279.4342,-178.1322 273.0372,-176.0516 284.003,-176.101 284.003,-176.101"/>
</g>
<!-- BaseCometActor -->
<g id="node8" class="node">
<title>BaseCometActor</title>
<ellipse fill="#ffddbb" stroke="#cc7755" cx="413.594" cy="-90" rx="89.8845" ry="18"/>
<text text-anchor="middle" x="413.594" y="-86.3" font-family="Times,serif" font-size="14.00" fill="#000000">BaseCometActor</text>
</g>
<!-- BaseCometActor&#45;&gt;LiftActor -->
<g id="edge10" class="edge">
<title>BaseCometActor&#45;&gt;LiftActor</title>
<path fill="none" stroke="#dd5544" d="M444.4971,-113.6705C458.0847,-124.078 473.7136,-136.0491 486.0174,-145.4733"/>
<polygon fill="#dd5544" stroke="#dd5544" points="436.3488,-107.4292 447.0239,-109.9375 440.3182,-110.4696 444.2876,-113.51 444.2876,-113.51 444.2876,-113.51 440.3182,-110.4696 441.5512,-117.0825 436.3488,-107.4292 436.3488,-107.4292"/>
</g>
<!-- BaseCometActor&#45;&gt;LiftCometActor -->
<g id="edge11" class="edge">
<title>BaseCometActor&#45;&gt;LiftCometActor</title>
<path fill="none" stroke="#dd5544" d="M387.2301,-114.652C376.7704,-124.4325 364.9794,-135.4578 355.4088,-144.407"/>
<polygon fill="#dd5544" stroke="#dd5544" points="394.5603,-107.7978 390.3295,-117.9146 390.9082,-111.2127 387.256,-114.6277 387.256,-114.6277 387.256,-114.6277 390.9082,-111.2127 384.1825,-111.3408 394.5603,-107.7978 394.5603,-107.7978"/>
</g>
<!-- CometActor -->
<g id="node9" class="node">
<title>CometActor</title>
<ellipse fill="#ffddbb" stroke="#cc7755" cx="67.594" cy="-18" rx="67.6881" ry="18"/>
<text text-anchor="middle" x="67.594" y="-14.3" font-family="Times,serif" font-size="14.00" fill="#000000">CometActor</text>
</g>
<!-- CometActor&#45;&gt;BaseCometActor -->
<g id="edge12" class="edge">
<title>CometActor&#45;&gt;BaseCometActor</title>
<path fill="none" stroke="#dd5544" d="M127.9548,-32.4998C133.2387,-33.7073 138.5083,-34.8895 143.594,-36 213.2981,-51.2199 293.4987,-67.0477 348.2643,-77.6013"/>
<polygon fill="#dd5544" stroke="#dd5544" points="117.8206,-30.1589 128.5768,-28.0251 122.6923,-31.2843 127.564,-32.4096 127.564,-32.4096 127.564,-32.4096 122.6923,-31.2843 126.5512,-36.7942 117.8206,-30.1589 117.8206,-30.1589"/>
</g>
<!-- MessageCometActor -->
<g id="node10" class="node">
<title>MessageCometActor</title>
<ellipse fill="#ffddbb" stroke="#cc7755" cx="261.594" cy="-18" rx="108.5808" ry="18"/>
<text text-anchor="middle" x="261.594" y="-14.3" font-family="Times,serif" font-size="14.00" fill="#000000">MessageCometActor</text>
</g>
<!-- MessageCometActor&#45;&gt;BaseCometActor -->
<g id="edge13" class="edge">
<title>MessageCometActor&#45;&gt;BaseCometActor</title>
<path fill="none" stroke="#dd5544" d="M306.7926,-39.4099C329.6792,-50.2509 357.0514,-63.2167 378.355,-73.3079"/>
<polygon fill="#dd5544" stroke="#dd5544" points="297.6159,-35.063 308.5797,-35.2771 302.1346,-37.2035 306.6533,-39.3439 306.6533,-39.3439 306.6533,-39.3439 302.1346,-37.2035 304.7269,-43.4107 297.6159,-35.063 297.6159,-35.063"/>
</g>
<!-- CometListener -->
<g id="node11" class="node">
<title>CometListener</title>
<ellipse fill="#ffddbb" stroke="#cc7755" cx="735.594" cy="-18" rx="80.6858" ry="18"/>
<text text-anchor="middle" x="735.594" y="-14.3" font-family="Times,serif" font-size="14.00" fill="#000000">CometListener</text>
</g>
<!-- CometListener&#45;&gt;BaseCometActor -->
<g id="edge14" class="edge">
<title>CometListener&#45;&gt;BaseCometActor</title>
<path fill="none" stroke="#dd5544" d="M668.315,-33.0438C610.8062,-45.9029 528.8216,-64.2348 473.5324,-76.5976"/>
<polygon fill="#dd5544" stroke="#dd5544" points="678.3979,-30.7892 669.6209,-37.363 673.5184,-31.8803 668.6389,-32.9714 668.6389,-32.9714 668.6389,-32.9714 673.5184,-31.8803 667.6569,-28.5799 678.3979,-30.7892 678.3979,-30.7892"/>
</g>
<!-- ListenerManager -->
<g id="node12" class="node">
<title>ListenerManager</title>
<ellipse fill="#ffddbb" stroke="#cc7755" cx="735.594" cy="-90" rx="90.9839" ry="18"/>
<text text-anchor="middle" x="735.594" y="-86.3" font-family="Times,serif" font-size="14.00" fill="#000000">ListenerManager</text>
</g>
<!-- CometListener&#45;&gt;ListenerManager -->
<g id="edge16" class="edge">
<title>CometListener&#45;&gt;ListenerManager</title>
<path fill="none" stroke="#dd5544" stroke-dasharray="1,5" d="M735.594,-36.1686C735.594,-47 735.594,-60.7124 735.594,-71.5867"/>
</g>
<!-- ListenerManager&#45;&gt;SimpleActor -->
<g id="edge15" class="edge">
<title>ListenerManager&#45;&gt;SimpleActor</title>
<path fill="none" stroke="#dd5544" d="M741.3334,-118.3134C749.2156,-165.2552 758.092,-260.3241 716.594,-324 703.9621,-343.3828 683.2416,-357.2574 662.7811,-366.9531"/>
<polygon fill="#dd5544" stroke="#dd5544" points="739.5338,-108.2575 745.7251,-117.3084 740.4147,-113.1793 741.2955,-118.1011 741.2955,-118.1011 741.2955,-118.1011 740.4147,-113.1793 736.8658,-118.8939 739.5338,-108.2575 739.5338,-108.2575"/>
</g>
<!-- NamedCometActorTrait -->
<g id="node13" class="node">
<title>NamedCometActorTrait</title>
<ellipse fill="#ffddbb" stroke="#cc7755" cx="512.594" cy="-18" rx="124.2781" ry="18"/>
<text text-anchor="middle" x="512.594" y="-14.3" font-family="Times,serif" font-size="14.00" fill="#000000">NamedCometActorTrait</text>
</g>
<!-- NamedCometActorTrait&#45;&gt;BaseCometActor -->
<g id="edge17" class="edge">
<title>NamedCometActorTrait&#45;&gt;BaseCometActor</title>
<path fill="none" stroke="#dd5544" d="M479.8681,-41.8006C466.1348,-51.7885 450.4479,-63.1971 437.7844,-72.407"/>
<polygon fill="#dd5544" stroke="#dd5544" points="488.1221,-35.7978 482.6815,-45.3188 484.0784,-38.7386 480.0347,-41.6795 480.0347,-41.6795 480.0347,-41.6795 484.0784,-38.7386 477.3879,-38.0402 488.1221,-35.7978 488.1221,-35.7978"/>
</g>
</g>
</svg>
