<?xml version="1.0" encoding="UTF-8" standalone="no"?>
<!DOCTYPE svg PUBLIC "-//W3C//DTD SVG 1.1//EN"
 "http://www.w3.org/Graphics/SVG/1.1/DTD/svg11.dtd">
<!-- Generated by graphviz version 2.40.1 (20161225.0304)
 -->
<!-- Title: G Pages: 1 -->
<svg width="661pt" height="440pt"
 viewBox="0.00 0.00 661.25 440.17" xmlns="http://www.w3.org/2000/svg" xmlns:xlink="http://www.w3.org/1999/xlink">
<g id="graph0" class="graph" transform="scale(1 1) rotate(0) translate(4 436.1737)">
<title>G</title>
<polygon fill="#ffffff" stroke="transparent" points="-4,4 -4,-436.1737 657.2463,-436.1737 657.2463,4 -4,4"/>
<g id="clust1" class="cluster">
<title>cluster_devops</title>
<polygon fill="#e6ffe6" stroke="#000000" points="8,-64 8,-424.1737 455,-424.1737 455,-64 8,-64"/>
</g>
<!-- services -->
<g id="node1" class="node">
<title>services</title>
<ellipse fill="#add8e6" stroke="#000000" cx="518" cy="-209.8234" rx="54.3945" ry="26.7407"/>
<text text-anchor="middle" x="518" y="-213.6234" font-family="Times,serif" font-size="14.00" fill="#000000">ShipReq</text>
<text text-anchor="middle" x="518" y="-198.6234" font-family="Times,serif" font-size="14.00" fill="#000000">services</text>
</g>
<!-- kamon -->
<g id="node2" class="node">
<title>kamon</title>
<ellipse fill="#add8e6" stroke="#000000" cx="611" cy="-109.4767" rx="42.4939" ry="18"/>
<text text-anchor="middle" x="611" y="-105.7767" font-family="Times,serif" font-size="14.00" fill="#000000">kamon</text>
</g>
<!-- services&#45;&gt;kamon -->
<g id="edge5" class="edge">
<title>services&#45;&gt;kamon</title>
<path fill="none" stroke="#000000" d="M540.7504,-185.2758C557.7431,-166.9407 580.5199,-142.3646 595.4683,-126.2354"/>
</g>
<!-- fluentd -->
<g id="node3" class="node">
<title>fluentd</title>
<ellipse fill="#add8e6" stroke="#000000" cx="507" cy="-109.4767" rx="44.393" ry="18"/>
<text text-anchor="middle" x="507" y="-105.7767" font-family="Times,serif" font-size="14.00" fill="#000000">fluentd</text>
</g>
<!-- services&#45;&gt;fluentd -->
<g id="edge6" class="edge">
<title>services&#45;&gt;fluentd</title>
<path fill="none" stroke="#000000" d="M515.0522,-182.9323C513.1303,-165.3998 510.6742,-142.9938 508.9827,-127.5634"/>
</g>
<!-- jaeger -->
<g id="node6" class="node">
<title>jaeger</title>
<ellipse fill="#77bb66" stroke="#000000" cx="391" cy="-299.5635" rx="55.7232" ry="26.7407"/>
<text text-anchor="middle" x="391" y="-303.3635" font-family="Times,serif" font-size="14.00" fill="#000000">[tracing]</text>
<text text-anchor="middle" x="391" y="-288.3635" font-family="Times,serif" font-size="14.00" fill="#000000">jaeger</text>
</g>
<!-- kamon&#45;&gt;jaeger -->
<g id="edge17" class="edge">
<title>kamon&#45;&gt;jaeger</title>
<path fill="none" stroke="#000000" d="M611.9205,-127.5857C612.2874,-154.7849 608.8909,-206.2345 581,-236.6934 563.3286,-255.992 500.6775,-274.3455 452.0938,-286.1853"/>
<polygon fill="#000000" stroke="#000000" points="451.1817,-282.8047 442.2721,-288.5378 452.8123,-289.6121 451.1817,-282.8047"/>
</g>
<!-- es -->
<g id="node4" class="node">
<title>es</title>
<ellipse fill="#ffffe0" stroke="#000000" cx="370" cy="-209.8234" rx="75.2868" ry="18"/>
<text text-anchor="middle" x="370" y="-206.1234" font-family="Times,serif" font-size="14.00" fill="#000000">ElasticSearch</text>
</g>
<!-- fluentd&#45;&gt;es -->
<g id="edge15" class="edge">
<title>fluentd&#45;&gt;es</title>
<path fill="none" stroke="#000000" d="M486.6111,-125.7434C478.1408,-132.4099 468.1657,-140.1439 459,-146.9533 440.7666,-160.4994 420.0584,-175.169 403.208,-186.9283"/>
<polygon fill="#000000" stroke="#000000" points="400.9913,-184.2067 394.7815,-192.791 404.9891,-189.9528 400.9913,-184.2067"/>
</g>
<!-- prometheus_storage -->
<g id="node5" class="node">
<title>prometheus_storage</title>
<ellipse fill="#ffffe0" stroke="#000000" cx="120" cy="-109.4767" rx="78.4777" ry="37.4533"/>
<text text-anchor="middle" x="120" y="-120.7767" font-family="Times,serif" font-size="14.00" fill="#000000">Cortex |</text>
<text text-anchor="middle" x="120" y="-105.7767" font-family="Times,serif" font-size="14.00" fill="#000000">InfluxDB |</text>
<text text-anchor="middle" x="120" y="-90.7767" font-family="Times,serif" font-size="14.00" fill="#000000">TimescaleDB</text>
</g>
<!-- jaeger&#45;&gt;es -->
<g id="edge18" class="edge">
<title>jaeger&#45;&gt;es</title>
<path fill="none" stroke="#000000" stroke-dasharray="1,5" d="M384.6993,-272.6385C382.1358,-261.6837 379.1724,-249.0203 376.5809,-237.946"/>
<polygon fill="#000000" stroke="#000000" points="379.922,-236.8623 374.2354,-227.9229 373.1061,-238.4573 379.922,-236.8623"/>
</g>
<!-- prometheus -->
<g id="node7" class="node">
<title>prometheus</title>
<ellipse fill="#77bb66" stroke="#000000" cx="147" cy="-209.8234" rx="125.316" ry="26.7407"/>
<text text-anchor="middle" x="147" y="-213.6234" font-family="Times,serif" font-size="14.00" fill="#000000">[monitoring] [alerting]</text>
<text text-anchor="middle" x="147" y="-198.6234" font-family="Times,serif" font-size="14.00" fill="#000000">prometheus</text>
</g>
<!-- prometheus&#45;&gt;services -->
<g id="edge7" class="edge">
<title>prometheus&#45;&gt;services</title>
<path fill="none" stroke="#000000" d="M206.1826,-233.5483C268.0695,-254.915 367.4895,-279.4627 450,-254.6934 461.2111,-251.3279 472.28,-245.4492 482.1271,-239.0339"/>
<polygon fill="#000000" stroke="#000000" points="484.1896,-241.8633 490.439,-233.3078 480.2183,-236.0988 484.1896,-241.8633"/>
</g>
<!-- prometheus&#45;&gt;kamon -->
<g id="edge8" class="edge">
<title>prometheus&#45;&gt;kamon</title>
<path fill="none" stroke="#000000" d="M238.4524,-191.3316C254.2783,-188.3646 270.5939,-185.4521 286,-182.9533 407.2399,-163.2886 446.037,-192.7602 560,-146.9533 568.6466,-143.4779 577.1617,-138.1918 584.6834,-132.6764"/>
<polygon fill="#000000" stroke="#000000" points="587.269,-135.0987 593.0052,-126.1911 582.9661,-129.5774 587.269,-135.0987"/>
</g>
<!-- prometheus&#45;&gt;prometheus_storage -->
<g id="edge14" class="edge">
<title>prometheus&#45;&gt;prometheus_storage</title>
<path fill="none" stroke="#000000" stroke-dasharray="1,5" d="M139.7645,-182.9323C137.5849,-174.8319 135.1255,-165.6911 132.7005,-156.6787"/>
<polygon fill="#000000" stroke="#000000" points="136.0757,-155.752 130.0976,-147.0048 129.3161,-157.5708 136.0757,-155.752"/>
</g>
<!-- alertmanager -->
<g id="node9" class="node">
<title>alertmanager</title>
<ellipse fill="#77bb66" stroke="#000000" cx="296" cy="-109.4767" rx="79.8062" ry="26.7407"/>
<text text-anchor="middle" x="296" y="-113.2767" font-family="Times,serif" font-size="14.00" fill="#000000">[alerting]</text>
<text text-anchor="middle" x="296" y="-98.2767" font-family="Times,serif" font-size="14.00" fill="#000000">alertmanager</text>
</g>
<!-- prometheus&#45;&gt;alertmanager -->
<g id="edge9" class="edge">
<title>prometheus&#45;&gt;alertmanager</title>
<path fill="none" stroke="#000000" d="M185.3712,-183.9816C205.6057,-170.3544 230.5317,-153.5674 251.5981,-139.3799"/>
<polygon fill="#000000" stroke="#000000" points="253.7241,-142.1679 260.0633,-133.6788 249.8138,-136.3618 253.7241,-142.1679"/>
</g>
<!-- grafana -->
<g id="node8" class="node">
<title>grafana</title>
<ellipse fill="#77bb66" stroke="#000000" cx="111" cy="-299.5635" rx="74.9067" ry="26.7407"/>
<text text-anchor="middle" x="111" y="-303.3635" font-family="Times,serif" font-size="14.00" fill="#000000">[monitoring]</text>
<text text-anchor="middle" x="111" y="-288.3635" font-family="Times,serif" font-size="14.00" fill="#000000">grafana</text>
</g>
<!-- grafana&#45;&gt;prometheus -->
<g id="edge10" class="edge">
<title>grafana&#45;&gt;prometheus</title>
<path fill="none" stroke="#000000" d="M121.8012,-272.6385C125.1473,-264.2974 128.8908,-254.9657 132.4477,-246.0991"/>
<polygon fill="#000000" stroke="#000000" points="135.7316,-247.3136 136.2064,-236.7294 129.2348,-244.7073 135.7316,-247.3136"/>
</g>
<!-- email -->
<g id="node12" class="node">
<title>email</title>
<ellipse fill="none" stroke="#000000" cx="207" cy="-18" rx="36.2938" ry="18"/>
<text text-anchor="middle" x="207" y="-14.3" font-family="Times,serif" font-size="14.00" fill="#000000">email</text>
</g>
<!-- alertmanager&#45;&gt;email -->
<g id="edge11" class="edge">
<title>alertmanager&#45;&gt;email</title>
<path fill="none" stroke="#000000" d="M270.7342,-83.5078C257.8463,-70.2612 242.293,-54.2751 229.7774,-41.4112"/>
<polygon fill="#000000" stroke="#000000" points="232.2845,-38.969 222.8025,-34.2422 227.2673,-43.8504 232.2845,-38.969"/>
</g>
<!-- slack -->
<g id="node13" class="node">
<title>slack</title>
<ellipse fill="none" stroke="#000000" cx="296" cy="-18" rx="35.194" ry="18"/>
<text text-anchor="middle" x="296" y="-14.3" font-family="Times,serif" font-size="14.00" fill="#000000">slack</text>
</g>
<!-- alertmanager&#45;&gt;slack -->
<g id="edge12" class="edge">
<title>alertmanager&#45;&gt;slack</title>
<path fill="none" stroke="#000000" d="M296,-82.5254C296,-71.066 296,-57.7024 296,-46.1186"/>
<polygon fill="#000000" stroke="#000000" points="299.5001,-46.0865 296,-36.0865 292.5001,-46.0865 299.5001,-46.0865"/>
</g>
<!-- sms -->
<g id="node14" class="node">
<title>sms</title>
<ellipse fill="none" stroke="#000000" cx="378" cy="-18" rx="29.4969" ry="18"/>
<text text-anchor="middle" x="378" y="-14.3" font-family="Times,serif" font-size="14.00" fill="#000000">sms</text>
</g>
<!-- alertmanager&#45;&gt;sms -->
<g id="edge13" class="edge">
<title>alertmanager&#45;&gt;sms</title>
<path fill="none" stroke="#000000" d="M319.2786,-83.5078C331.1203,-70.2975 345.4043,-54.3628 356.9192,-41.5171"/>
<polygon fill="#000000" stroke="#000000" points="359.6158,-43.7524 363.6845,-33.97 354.4034,-39.08 359.6158,-43.7524"/>
</g>
<!-- kibana -->
<g id="node10" class="node">
<title>kibana</title>
<ellipse fill="#77bb66" stroke="#000000" cx="261" cy="-299.5635" rx="56.6372" ry="26.7407"/>
<text text-anchor="middle" x="261" y="-303.3635" font-family="Times,serif" font-size="14.00" fill="#000000">[logging]</text>
<text text-anchor="middle" x="261" y="-288.3635" font-family="Times,serif" font-size="14.00" fill="#000000">kibana</text>
</g>
<!-- kibana&#45;&gt;es -->
<g id="edge16" class="edge">
<title>kibana&#45;&gt;es</title>
<path fill="none" stroke="#000000" d="M289.3539,-276.2196C305.1462,-263.2177 324.777,-247.0556 340.7164,-233.9327"/>
<polygon fill="#000000" stroke="#000000" points="343.1797,-236.4382 348.6753,-227.3801 338.7305,-231.0341 343.1797,-236.4382"/>
</g>
<!-- portal -->
<g id="node11" class="node">
<title>portal</title>
<ellipse fill="#77bb66" stroke="#000000" cx="202" cy="-389.3036" rx="126.6443" ry="26.7407"/>
<text text-anchor="middle" x="202" y="-393.1036" font-family="Times,serif" font-size="14.00" fill="#000000">DevOps portal</text>
<text text-anchor="middle" x="202" y="-378.1036" font-family="Times,serif" font-size="14.00" fill="#000000">Custom, simple HTML</text>
</g>
<!-- portal&#45;&gt;jaeger -->
<g id="edge1" class="edge">
<title>portal&#45;&gt;jaeger</title>
<path fill="none" stroke="#000000" d="M253.8951,-364.663C281.3641,-351.6203 314.9075,-335.6934 341.9401,-322.8579"/>
<polygon fill="#000000" stroke="#000000" points="343.6775,-325.9075 351.2097,-318.4565 340.6751,-319.5841 343.6775,-325.9075"/>
</g>
<!-- portal&#45;&gt;prometheus -->
<g id="edge2" class="edge">
<title>portal&#45;&gt;prometheus</title>
<path fill="none" stroke="#000000" d="M118.1442,-369.0389C78.9351,-357.6981 38.3753,-342.6073 27,-326.4335 13.2597,-306.8971 14.6362,-293.1289 27,-272.6934 36.2105,-257.4699 50.4569,-245.7535 65.9585,-236.8009"/>
<polygon fill="#000000" stroke="#000000" points="68.0436,-239.6542 75.2021,-231.8435 64.7352,-233.4854 68.0436,-239.6542"/>
</g>
<!-- portal&#45;&gt;grafana -->
<g id="edge3" class="edge">
<title>portal&#45;&gt;grafana</title>
<path fill="none" stroke="#000000" d="M175.1892,-362.864C165.4017,-353.212 154.2177,-342.1828 143.9569,-332.0641"/>
<polygon fill="#000000" stroke="#000000" points="146.2595,-329.4192 136.6817,-324.8896 141.3444,-334.4034 146.2595,-329.4192"/>
</g>
<!-- portal&#45;&gt;kibana -->
<g id="edge4" class="edge">
<title>portal&#45;&gt;kibana</title>
<path fill="none" stroke="#000000" d="M219.7019,-362.3786C225.6271,-353.3663 232.3126,-343.1976 238.5511,-333.7087"/>
<polygon fill="#000000" stroke="#000000" points="241.551,-335.5168 244.1201,-325.2381 235.7019,-331.6712 241.551,-335.5168"/>
</g>
</g>
</svg>
