<?xml version="1.0" encoding="UTF-8" standalone="no"?>
<!DOCTYPE svg PUBLIC "-//W3C//DTD SVG 1.1//EN"
 "http://www.w3.org/Graphics/SVG/1.1/DTD/svg11.dtd">
<!-- Generated by graphviz version 2.40.1 (20161225.0304)
 -->
<!-- Title: G Pages: 1 -->
<svg width="799pt" height="496pt"
 viewBox="0.00 0.00 799.25 496.17" xmlns="http://www.w3.org/2000/svg" xmlns:xlink="http://www.w3.org/1999/xlink">
<g id="graph0" class="graph" transform="scale(1 1) rotate(0) translate(4 492.1737)">
<title>G</title>
<polygon fill="#ffffff" stroke="transparent" points="-4,4 -4,-492.1737 795.2463,-492.1737 795.2463,4 -4,4"/>
<g id="clust1" class="cluster">
<title>cluster_devops</title>
<polygon fill="#e6ffe6" stroke="#000000" points="8,-64 8,-424.1737 581,-424.1737 581,-64 8,-64"/>
</g>
<!-- services -->
<g id="node1" class="node">
<title>services</title>
<ellipse fill="#add8e6" stroke="#000000" cx="645" cy="-209.8234" rx="54.3945" ry="26.7407"/>
<text text-anchor="middle" x="645" y="-213.6234" font-family="Times,serif" font-size="14.00" fill="#000000">ShipReq</text>
<text text-anchor="middle" x="645" y="-198.6234" font-family="Times,serif" font-size="14.00" fill="#000000">services</text>
</g>
<!-- kamon -->
<g id="node2" class="node">
<title>kamon</title>
<ellipse fill="#add8e6" stroke="#000000" cx="749" cy="-109.4767" rx="42.4939" ry="18"/>
<text text-anchor="middle" x="749" y="-105.7767" font-family="Times,serif" font-size="14.00" fill="#000000">kamon</text>
</g>
<!-- services&#45;&gt;kamon -->
<g id="edge5" class="edge">
<title>services&#45;&gt;kamon</title>
<path fill="none" stroke="#000000" d="M669.9106,-185.7878C689.0201,-167.3496 714.9013,-142.3775 731.7709,-126.1005"/>
</g>
<!-- logstash -->
<g id="node3" class="node">
<title>logstash</title>
<ellipse fill="#add8e6" stroke="#000000" cx="639" cy="-109.4767" rx="50.0912" ry="18"/>
<text text-anchor="middle" x="639" y="-105.7767" font-family="Times,serif" font-size="14.00" fill="#000000">logstash</text>
</g>
<!-- services&#45;&gt;logstash -->
<g id="edge6" class="edge">
<title>services&#45;&gt;logstash</title>
<path fill="none" stroke="#000000" d="M643.3921,-182.9323C642.3438,-165.3998 641.0041,-142.9938 640.0815,-127.5634"/>
</g>
<!-- jaeger -->
<g id="node7" class="node">
<title>jaeger</title>
<ellipse fill="#77bb66" stroke="#000000" cx="513" cy="-299.5635" rx="55.7232" ry="26.7407"/>
<text text-anchor="middle" x="513" y="-303.3635" font-family="Times,serif" font-size="14.00" fill="#000000">[tracing]</text>
<text text-anchor="middle" x="513" y="-288.3635" font-family="Times,serif" font-size="14.00" fill="#000000">jaeger</text>
</g>
<!-- kamon&#45;&gt;jaeger -->
<g id="edge23" class="edge">
<title>kamon&#45;&gt;jaeger</title>
<path fill="none" stroke="#000000" d="M748.1885,-127.7346C745.9864,-155.1283 737.8615,-206.8285 708,-236.6934 688.9013,-255.7943 623.8316,-274.3592 574.0585,-286.3014"/>
<polygon fill="#000000" stroke="#000000" points="573.2539,-282.8951 564.326,-288.5998 574.8627,-289.7077 573.2539,-282.8951"/>
</g>
<!-- es -->
<g id="node4" class="node">
<title>es</title>
<ellipse fill="#ffffe0" stroke="#000000" cx="360" cy="-209.8234" rx="75.2868" ry="18"/>
<text text-anchor="middle" x="360" y="-206.1234" font-family="Times,serif" font-size="14.00" fill="#000000">ElasticSearch</text>
</g>
<!-- logstash&#45;&gt;es -->
<g id="edge21" class="edge">
<title>logstash&#45;&gt;es</title>
<path fill="none" stroke="#000000" d="M618.7651,-126.0991C609.0472,-133.3861 596.9377,-141.5024 585,-146.9533 526.1661,-173.8175 506.162,-165.0927 444,-182.9533 434.2875,-185.7439 423.9998,-188.8816 414.079,-192.002"/>
<polygon fill="#000000" stroke="#000000" points="412.7867,-188.74 404.3154,-195.103 414.9057,-195.4116 412.7867,-188.74"/>
</g>
<!-- jaeger_storage -->
<g id="node5" class="node">
<title>jaeger_storage</title>
<ellipse fill="#ffffe0" stroke="#000000" cx="513" cy="-209.8234" rx="59.5901" ry="18"/>
<text text-anchor="middle" x="513" y="-206.1234" font-family="Times,serif" font-size="14.00" fill="#000000">Cassandra</text>
</g>
<!-- prometheus_storage -->
<g id="node6" class="node">
<title>prometheus_storage</title>
<ellipse fill="#ffffe0" stroke="#000000" cx="117" cy="-109.4767" rx="78.4777" ry="37.4533"/>
<text text-anchor="middle" x="117" y="-120.7767" font-family="Times,serif" font-size="14.00" fill="#000000">Cortex |</text>
<text text-anchor="middle" x="117" y="-105.7767" font-family="Times,serif" font-size="14.00" fill="#000000">InfluxDB |</text>
<text text-anchor="middle" x="117" y="-90.7767" font-family="Times,serif" font-size="14.00" fill="#000000">TimescaleDB</text>
</g>
<!-- jaeger&#45;&gt;jaeger_storage -->
<g id="edge24" class="edge">
<title>jaeger&#45;&gt;jaeger_storage</title>
<path fill="none" stroke="#000000" stroke-dasharray="1,5" d="M513,-272.6385C513,-261.6837 513,-249.0203 513,-237.946"/>
<polygon fill="#000000" stroke="#000000" points="516.5001,-237.9228 513,-227.9229 509.5001,-237.9229 516.5001,-237.9228"/>
</g>
<!-- prometheus -->
<g id="node8" class="node">
<title>prometheus</title>
<ellipse fill="#77bb66" stroke="#000000" cx="141" cy="-209.8234" rx="125.316" ry="26.7407"/>
<text text-anchor="middle" x="141" y="-213.6234" font-family="Times,serif" font-size="14.00" fill="#000000">[monitoring] [alerting]</text>
<text text-anchor="middle" x="141" y="-198.6234" font-family="Times,serif" font-size="14.00" fill="#000000">prometheus</text>
</g>
<!-- prometheus&#45;&gt;services -->
<g id="edge13" class="edge">
<title>prometheus&#45;&gt;services</title>
<path fill="none" stroke="#000000" d="M202.0564,-233.3266C227.3218,-241.8677 257.171,-250.4581 285,-254.6934 348.9305,-264.423 514.002,-273.079 576,-254.6934 587.4434,-251.2999 598.7653,-245.3437 608.8266,-238.8585"/>
<polygon fill="#000000" stroke="#000000" points="611.0221,-241.5978 617.3152,-233.0744 607.0804,-235.8131 611.0221,-241.5978"/>
</g>
<!-- prometheus&#45;&gt;kamon -->
<g id="edge14" class="edge">
<title>prometheus&#45;&gt;kamon</title>
<path fill="none" stroke="#000000" d="M229.3526,-190.7733C244.8481,-187.8519 260.8571,-185.0994 276,-182.9533 462.3744,-156.5397 521.791,-213.161 698,-146.9533 707.0642,-143.5476 715.9314,-138.0457 723.6631,-132.2943"/>
<polygon fill="#000000" stroke="#000000" points="725.893,-134.993 731.5628,-126.0429 721.5492,-129.5038 725.893,-134.993"/>
</g>
<!-- prometheus&#45;&gt;prometheus_storage -->
<g id="edge20" class="edge">
<title>prometheus&#45;&gt;prometheus_storage</title>
<path fill="none" stroke="#000000" stroke-dasharray="1,5" d="M134.5684,-182.9323C132.6517,-174.9181 130.4913,-165.8855 128.3581,-156.9663"/>
<polygon fill="#000000" stroke="#000000" points="131.7058,-155.9164 125.9756,-147.0048 124.8978,-157.5447 131.7058,-155.9164"/>
</g>
<!-- alertmanager -->
<g id="node10" class="node">
<title>alertmanager</title>
<ellipse fill="#77bb66" stroke="#000000" cx="293" cy="-109.4767" rx="79.8062" ry="26.7407"/>
<text text-anchor="middle" x="293" y="-113.2767" font-family="Times,serif" font-size="14.00" fill="#000000">[alerting]</text>
<text text-anchor="middle" x="293" y="-98.2767" font-family="Times,serif" font-size="14.00" fill="#000000">alertmanager</text>
</g>
<!-- prometheus&#45;&gt;alertmanager -->
<g id="edge15" class="edge">
<title>prometheus&#45;&gt;alertmanager</title>
<path fill="none" stroke="#000000" d="M179.7493,-184.242C200.6369,-170.4525 226.512,-153.3704 248.2543,-139.0167"/>
<polygon fill="#000000" stroke="#000000" points="250.2559,-141.8893 256.673,-133.4589 246.3992,-136.0475 250.2559,-141.8893"/>
</g>
<!-- grafana -->
<g id="node9" class="node">
<title>grafana</title>
<ellipse fill="#77bb66" stroke="#000000" cx="147" cy="-299.5635" rx="74.9067" ry="26.7407"/>
<text text-anchor="middle" x="147" y="-303.3635" font-family="Times,serif" font-size="14.00" fill="#000000">[monitoring]</text>
<text text-anchor="middle" x="147" y="-288.3635" font-family="Times,serif" font-size="14.00" fill="#000000">grafana</text>
</g>
<!-- grafana&#45;&gt;prometheus -->
<g id="edge16" class="edge">
<title>grafana&#45;&gt;prometheus</title>
<path fill="none" stroke="#000000" d="M145.1998,-272.6385C144.6599,-264.5636 144.058,-255.5603 143.4822,-246.9494"/>
<polygon fill="#000000" stroke="#000000" points="146.9583,-246.4736 142.7989,-236.7294 139.9739,-246.9406 146.9583,-246.4736"/>
</g>
<!-- email -->
<g id="node18" class="node">
<title>email</title>
<ellipse fill="none" stroke="#000000" cx="204" cy="-18" rx="36.2938" ry="18"/>
<text text-anchor="middle" x="204" y="-14.3" font-family="Times,serif" font-size="14.00" fill="#000000">email</text>
</g>
<!-- alertmanager&#45;&gt;email -->
<g id="edge17" class="edge">
<title>alertmanager&#45;&gt;email</title>
<path fill="none" stroke="#000000" d="M267.7342,-83.5078C254.8463,-70.2612 239.293,-54.2751 226.7774,-41.4112"/>
<polygon fill="#000000" stroke="#000000" points="229.2845,-38.969 219.8025,-34.2422 224.2673,-43.8504 229.2845,-38.969"/>
</g>
<!-- slack -->
<g id="node19" class="node">
<title>slack</title>
<ellipse fill="none" stroke="#000000" cx="293" cy="-18" rx="35.194" ry="18"/>
<text text-anchor="middle" x="293" y="-14.3" font-family="Times,serif" font-size="14.00" fill="#000000">slack</text>
</g>
<!-- alertmanager&#45;&gt;slack -->
<g id="edge18" class="edge">
<title>alertmanager&#45;&gt;slack</title>
<path fill="none" stroke="#000000" d="M293,-82.5254C293,-71.066 293,-57.7024 293,-46.1186"/>
<polygon fill="#000000" stroke="#000000" points="296.5001,-46.0865 293,-36.0865 289.5001,-46.0865 296.5001,-46.0865"/>
</g>
<!-- sms -->
<g id="node20" class="node">
<title>sms</title>
<ellipse fill="none" stroke="#000000" cx="375" cy="-18" rx="29.4969" ry="18"/>
<text text-anchor="middle" x="375" y="-14.3" font-family="Times,serif" font-size="14.00" fill="#000000">sms</text>
</g>
<!-- alertmanager&#45;&gt;sms -->
<g id="edge19" class="edge">
<title>alertmanager&#45;&gt;sms</title>
<path fill="none" stroke="#000000" d="M316.2786,-83.5078C328.1203,-70.2975 342.4043,-54.3628 353.9192,-41.5171"/>
<polygon fill="#000000" stroke="#000000" points="356.6158,-43.7524 360.6845,-33.97 351.4034,-39.08 356.6158,-43.7524"/>
</g>
<!-- kibana -->
<g id="node11" class="node">
<title>kibana</title>
<ellipse fill="#77bb66" stroke="#000000" cx="336" cy="-299.5635" rx="56.6372" ry="26.7407"/>
<text text-anchor="middle" x="336" y="-303.3635" font-family="Times,serif" font-size="14.00" fill="#000000">[logging]</text>
<text text-anchor="middle" x="336" y="-288.3635" font-family="Times,serif" font-size="14.00" fill="#000000">kibana</text>
</g>
<!-- kibana&#45;&gt;es -->
<g id="edge22" class="edge">
<title>kibana&#45;&gt;es</title>
<path fill="none" stroke="#000000" d="M343.2008,-272.6385C346.1607,-261.5708 349.5871,-248.759 352.5704,-237.604"/>
<polygon fill="#000000" stroke="#000000" points="355.957,-238.4877 355.1595,-227.9229 349.1947,-236.6791 355.957,-238.4877"/>
</g>
<!-- portal -->
<g id="node12" class="node">
<title>portal</title>
<ellipse fill="#77bb66" stroke="#000000" cx="292" cy="-389.3036" rx="126.6443" ry="26.7407"/>
<text text-anchor="middle" x="292" y="-393.1036" font-family="Times,serif" font-size="14.00" fill="#000000">DevOps portal</text>
<text text-anchor="middle" x="292" y="-378.1036" font-family="Times,serif" font-size="14.00" fill="#000000">Custom, simple HTML</text>
</g>
<!-- portal&#45;&gt;services -->
<g id="edge7" class="edge">
<title>portal&#45;&gt;services</title>
<path fill="none" stroke="#000000" d="M399.1305,-374.9464C467.935,-364.0095 549.5607,-347.2929 578,-326.4335 605.0449,-306.5969 622.8344,-272.3058 633.24,-246.0276"/>
<polygon fill="#000000" stroke="#000000" points="636.6186,-246.9872 636.8704,-236.3954 630.0684,-244.5184 636.6186,-246.9872"/>
</g>
<!-- portal&#45;&gt;jaeger -->
<g id="edge1" class="edge">
<title>portal&#45;&gt;jaeger</title>
<path fill="none" stroke="#000000" d="M350.6437,-365.4905C384.8615,-351.5959 427.659,-334.2174 460.7219,-320.7917"/>
<polygon fill="#000000" stroke="#000000" points="462.2625,-323.9438 470.2109,-316.9386 459.6288,-317.4581 462.2625,-323.9438"/>
</g>
<!-- portal&#45;&gt;prometheus -->
<g id="edge2" class="edge">
<title>portal&#45;&gt;prometheus</title>
<path fill="none" stroke="#000000" d="M282.1249,-362.0747C272.0438,-336.9019 254.5421,-299.454 231,-272.6934 220.5696,-260.8371 207.4638,-250.0699 194.5068,-240.9288"/>
<polygon fill="#000000" stroke="#000000" points="196.278,-237.9004 186.0433,-235.1615 192.3361,-243.6851 196.278,-237.9004"/>
</g>
<!-- portal&#45;&gt;grafana -->
<g id="edge3" class="edge">
<title>portal&#45;&gt;grafana</title>
<path fill="none" stroke="#000000" d="M250.8367,-363.8277C232.9112,-352.7337 211.8209,-339.681 193.3469,-328.2474"/>
<polygon fill="#000000" stroke="#000000" points="195.1346,-325.2378 184.7894,-322.9513 191.4507,-331.1901 195.1346,-325.2378"/>
</g>
<!-- portal&#45;&gt;kibana -->
<g id="edge4" class="edge">
<title>portal&#45;&gt;kibana</title>
<path fill="none" stroke="#000000" d="M305.2015,-362.3786C309.4098,-353.7955 314.1324,-344.1634 318.5916,-335.0687"/>
<polygon fill="#000000" stroke="#000000" points="321.8508,-336.3716 323.1107,-325.8519 315.5657,-333.2899 321.8508,-336.3716"/>
</g>
<!-- mailchimp -->
<g id="node13" class="node">
<title>mailchimp</title>
<ellipse fill="none" stroke="#000000" cx="61" cy="-470.1737" rx="59.5901" ry="18"/>
<text text-anchor="middle" x="61" y="-466.4737" font-family="Times,serif" font-size="14.00" fill="#000000">mailchimp</text>
</g>
<!-- mailchimp&#45;&gt;portal -->
<g id="edge8" class="edge">
<title>mailchimp&#45;&gt;portal</title>
<path fill="none" stroke="#000000" d="M109.8629,-453.0674C143.7536,-441.2027 189.2788,-425.265 226.3358,-412.2918"/>
<polygon fill="#000000" stroke="#000000" points="108.4678,-449.8474 100.186,-456.4552 110.7808,-456.4543 108.4678,-449.8474"/>
</g>
<!-- gsuite -->
<g id="node14" class="node">
<title>gsuite</title>
<ellipse fill="none" stroke="#000000" cx="178" cy="-470.1737" rx="39.7935" ry="18"/>
<text text-anchor="middle" x="178" y="-466.4737" font-family="Times,serif" font-size="14.00" fill="#000000">gsuite</text>
</g>
<!-- gsuite&#45;&gt;portal -->
<g id="edge9" class="edge">
<title>gsuite&#45;&gt;portal</title>
<path fill="none" stroke="#000000" d="M207.6334,-449.1521C222.231,-438.7968 239.9683,-426.2142 255.4053,-415.2634"/>
<polygon fill="#000000" stroke="#000000" points="205.5737,-446.322 199.4425,-454.9626 209.6238,-452.0314 205.5737,-446.322"/>
</g>
<!-- freshdesk -->
<g id="node15" class="node">
<title>freshdesk</title>
<ellipse fill="none" stroke="#000000" cx="292" cy="-470.1737" rx="56.59" ry="18"/>
<text text-anchor="middle" x="292" y="-466.4737" font-family="Times,serif" font-size="14.00" fill="#000000">freshdesk</text>
</g>
<!-- freshdesk&#45;&gt;portal -->
<g id="edge10" class="edge">
<title>freshdesk&#45;&gt;portal</title>
<path fill="none" stroke="#000000" d="M292,-441.8008C292,-433.4767 292,-424.4017 292,-416.1742"/>
<polygon fill="#000000" stroke="#000000" points="288.5001,-441.823 292,-451.823 295.5001,-441.823 288.5001,-441.823"/>
</g>
<!-- mailgun -->
<g id="node16" class="node">
<title>mailgun</title>
<ellipse fill="none" stroke="#000000" cx="415" cy="-470.1737" rx="48.1917" ry="18"/>
<text text-anchor="middle" x="415" y="-466.4737" font-family="Times,serif" font-size="14.00" fill="#000000">mailgun</text>
</g>
<!-- mailgun&#45;&gt;portal -->
<g id="edge11" class="edge">
<title>mailgun&#45;&gt;portal</title>
<path fill="none" stroke="#000000" d="M382.5777,-448.8567C366.7455,-438.4473 347.5737,-425.8422 330.9523,-414.914"/>
<polygon fill="#000000" stroke="#000000" points="380.7138,-451.8199 390.9924,-454.3891 384.5594,-445.9708 380.7138,-451.8199"/>
</g>
<!-- gcp -->
<g id="node17" class="node">
<title>gcp</title>
<ellipse fill="none" stroke="#000000" cx="509" cy="-470.1737" rx="27.8951" ry="18"/>
<text text-anchor="middle" x="509" y="-466.4737" font-family="Times,serif" font-size="14.00" fill="#000000">gcp</text>
</g>
<!-- gcp&#45;&gt;portal -->
<g id="edge12" class="edge">
<title>gcp&#45;&gt;portal</title>
<path fill="none" stroke="#000000" d="M477.5746,-454.5789C475.6982,-453.7435 473.8301,-452.9354 472,-452.1737 436.3976,-437.3555 395.9217,-423.004 362.381,-411.7633"/>
<polygon fill="#000000" stroke="#000000" points="476.3429,-457.8657 486.8875,-458.8962 479.287,-451.5149 476.3429,-457.8657"/>
</g>
</g>
</svg>
