<?xml version="1.0" encoding="UTF-8" standalone="no"?>
<!DOCTYPE svg PUBLIC "-//W3C//DTD SVG 1.1//EN"
 "http://www.w3.org/Graphics/SVG/1.1/DTD/svg11.dtd">
<!-- Generated by graphviz version 2.38.0 (20140413.2041)
 -->
<!-- Title: G Pages: 1 -->
<svg width="1848pt" height="1235pt"
 viewBox="0.00 0.00 1848.00 1234.62" xmlns="http://www.w3.org/2000/svg" xmlns:xlink="http://www.w3.org/1999/xlink">
<g id="graph0" class="graph" transform="scale(1 1) rotate(0) translate(4 1230.62)">
<title>G</title>
<polygon fill="white" stroke="none" points="-4,4 -4,-1230.62 1844,-1230.62 1844,4 -4,4"/>
<g id="clust1" class="cluster"><title>cluster_base</title>
<polygon fill="#f4fff4" stroke="black" points="1584,-765.921 1584,-1218.62 1782,-1218.62 1782,-765.921 1584,-765.921"/>
</g>
<g id="clust2" class="cluster"><title>cluster_t</title>
<polygon fill="#eeeeff" stroke="black" points="326,-171.48 326,-1039.14 1576,-1039.14 1576,-171.48 326,-171.48"/>
</g>
<g id="clust3" class="cluster"><title>cluster_ts</title>
<polygon fill="white" stroke="black" points="971,-270.22 971,-526.571 1365,-526.571 1365,-270.22 971,-270.22"/>
</g>
<g id="clust4" class="cluster"><title>cluster_ta</title>
<polygon fill="white" stroke="black" points="1386,-360.96 1386,-631.311 1568,-631.311 1568,-360.96 1386,-360.96"/>
</g>
<g id="clust5" class="cluster"><title>cluster_w</title>
<polygon fill="white" stroke="black" points="334,-179.48 334,-1031.14 963,-1031.14 963,-179.48 334,-179.48"/>
</g>
<g id="clust6" class="cluster"><title>cluster_supp</title>
<polygon fill="#fff2f2" stroke="black" points="20,-82.7401 20,-339.96 318,-339.96 318,-82.7401 20,-82.7401"/>
</g>
<!-- base -->
<g id="node1" class="node"><title>base</title>
<ellipse fill="#cccccc" stroke="black" cx="1719" cy="-800.791" rx="55.3091" ry="26.7407"/>
<text text-anchor="middle" x="1719" y="-804.591" font-family="Times,serif" font-size="14.00">[aggregate]</text>
<text text-anchor="middle" x="1719" y="-789.591" font-family="Times,serif" font-size="14.00">base</text>
</g>
<!-- baseMacro -->
<g id="node2" class="node"><title>baseMacro</title>
<ellipse fill="#bbffbb" stroke="black" cx="1702" cy="-1183.75" rx="60.623" ry="26.7407"/>
<text text-anchor="middle" x="1702" y="-1187.55" font-family="Times,serif" font-size="14.00">base&#45;macro</text>
<text text-anchor="middle" x="1702" y="-1172.55" font-family="Times,serif" font-size="14.00">(Scala &amp; JS)</text>
</g>
<!-- base&#45;&gt;baseMacro -->
<g id="edge61" class="edge"><title>base&#45;&gt;baseMacro</title>
<path fill="none" stroke="#aaaaaa" stroke-dasharray="5,2" d="M1742.84,-825.109C1757.31,-841.801 1773,-865.643 1773,-890.531 1773,-890.531 1773,-890.531 1773,-1094.01 1773,-1117.45 1757.71,-1138.25 1741.32,-1153.81"/>
<polygon fill="#aaaaaa" stroke="#aaaaaa" points="1733.76,-1160.58 1738.21,-1150.55 1737.49,-1157.24 1741.21,-1153.9 1741.21,-1153.9 1741.21,-1153.9 1737.49,-1157.24 1744.21,-1157.25 1733.76,-1160.58 1733.76,-1160.58"/>
</g>
<!-- baseUtil -->
<g id="node3" class="node"><title>baseUtil</title>
<ellipse fill="#bbffbb" stroke="black" cx="1681" cy="-1093.01" rx="60.623" ry="26.7407"/>
<text text-anchor="middle" x="1681" y="-1096.81" font-family="Times,serif" font-size="14.00">base&#45;util</text>
<text text-anchor="middle" x="1681" y="-1081.81" font-family="Times,serif" font-size="14.00">(Scala &amp; JS)</text>
</g>
<!-- base&#45;&gt;baseUtil -->
<g id="edge58" class="edge"><title>base&#45;&gt;baseUtil</title>
<path fill="none" stroke="#aaaaaa" stroke-dasharray="5,2" d="M1726.58,-827.573C1728,-833.466 1729.27,-839.738 1730,-845.661 1740.59,-931.459 1738.25,-957.439 1710,-1039.14 1707.84,-1045.37 1704.99,-1051.74 1701.92,-1057.8"/>
<polygon fill="#aaaaaa" stroke="#aaaaaa" points="1696.98,-1067 1697.75,-1056.06 1699.34,-1062.6 1701.71,-1058.19 1701.71,-1058.19 1701.71,-1058.19 1699.34,-1062.6 1705.67,-1060.32 1696.98,-1067 1696.98,-1067"/>
</g>
<!-- baseDb -->
<g id="node4" class="node"><title>baseDb</title>
<ellipse fill="#bbffbb" stroke="black" cx="1645" cy="-996.271" rx="41.9398" ry="26.7407"/>
<text text-anchor="middle" x="1645" y="-1000.07" font-family="Times,serif" font-size="14.00">base&#45;db</text>
<text text-anchor="middle" x="1645" y="-985.071" font-family="Times,serif" font-size="14.00">(JVM)</text>
</g>
<!-- base&#45;&gt;baseDb -->
<g id="edge59" class="edge"><title>base&#45;&gt;baseDb</title>
<path fill="none" stroke="#aaaaaa" stroke-dasharray="5,2" d="M1724.32,-827.801C1728.2,-851.792 1731.45,-888.161 1723,-918.401 1716.93,-940.117 1699.75,-958.21 1683.05,-971.376"/>
<polygon fill="#aaaaaa" stroke="#aaaaaa" points="1674.94,-977.438 1680.25,-967.846 1678.94,-974.444 1682.95,-971.45 1682.95,-971.45 1682.95,-971.45 1678.94,-974.444 1685.64,-975.054 1674.94,-977.438 1674.94,-977.438"/>
</g>
<!-- baseTest -->
<g id="node5" class="node"><title>baseTest</title>
<ellipse fill="white" stroke="darkgreen" cx="1653" cy="-891.531" rx="60.623" ry="26.7407"/>
<text text-anchor="middle" x="1653" y="-895.331" font-family="Times,serif" font-size="14.00">base&#45;test</text>
<text text-anchor="middle" x="1653" y="-880.331" font-family="Times,serif" font-size="14.00">(Scala &amp; JS)</text>
</g>
<!-- base&#45;&gt;baseTest -->
<g id="edge60" class="edge"><title>base&#45;&gt;baseTest</title>
<path fill="none" stroke="#aaaaaa" stroke-dasharray="5,2" d="M1700.62,-826.51C1693.52,-836.046 1685.3,-847.099 1677.71,-857.31"/>
<polygon fill="#aaaaaa" stroke="#aaaaaa" points="1671.51,-865.637 1673.87,-854.927 1674.5,-861.625 1677.48,-857.613 1677.48,-857.613 1677.48,-857.613 1674.5,-861.625 1681.09,-860.298 1671.51,-865.637 1671.51,-865.637"/>
</g>
<!-- baseUtil&#45;&gt;baseMacro -->
<g id="edge1" class="edge"><title>baseUtil&#45;&gt;baseMacro</title>
<path fill="none" stroke="#cc0000" d="M1687.19,-1120.16C1689.17,-1128.55 1691.41,-1138 1693.53,-1146.96"/>
<polygon fill="#cc0000" stroke="#cc0000" points="1690.15,-1147.87 1695.86,-1156.79 1696.96,-1146.26 1690.15,-1147.87"/>
</g>
<!-- baseDb&#45;&gt;baseUtil -->
<g id="edge2" class="edge"><title>baseDb&#45;&gt;baseUtil</title>
<path fill="none" stroke="#cc0000" d="M1654.65,-1022.66C1658.61,-1033.09 1663.27,-1045.34 1667.55,-1056.63"/>
<polygon fill="#cc0000" stroke="#cc0000" points="1664.38,-1058.12 1671.2,-1066.22 1670.92,-1055.63 1664.38,-1058.12"/>
</g>
<!-- baseTest&#45;&gt;baseUtil -->
<g id="edge3" class="edge"><title>baseTest&#45;&gt;baseUtil</title>
<path fill="none" stroke="#111111" d="M1684.7,-914.508C1691.3,-920.753 1697.36,-928.137 1701,-936.401 1718.12,-975.252 1706.98,-1024.48 1695.64,-1057.05"/>
<polygon fill="#111111" stroke="#111111" points="1692.3,-1056 1692.15,-1066.59 1698.87,-1058.4 1692.3,-1056"/>
</g>
<!-- baseTest&#45;&gt;baseDb -->
<g id="edge4" class="edge"><title>baseTest&#45;&gt;baseDb</title>
<path fill="none" stroke="#111111" stroke-dasharray="5,2" d="M1650.98,-918.457C1650.02,-930.746 1648.87,-945.635 1647.82,-959.02"/>
<polygon fill="#111111" stroke="#111111" points="1644.31,-959.112 1647.02,-969.354 1651.28,-959.656 1644.31,-959.112"/>
<text text-anchor="middle" x="1674.5" y="-940.201" font-family="Times,serif" font-size="14.00">provided</text>
</g>
<!-- taskmanDb -->
<g id="node6" class="node"><title>taskmanDb</title>
<ellipse fill="#aaaaff" stroke="black" cx="1262" cy="-500.571" rx="94.7833" ry="18"/>
<text text-anchor="middle" x="1262" y="-496.871" font-family="Times,serif" font-size="14.00">taskman&#45;server&#45;schema</text>
</g>
<!-- taskmanDb&#45;&gt;baseDb -->
<g id="edge5" class="edge"><title>taskmanDb&#45;&gt;baseDb</title>
<path fill="none" stroke="#cc0000" d="M1318.21,-515.122C1338.25,-519.571 1361.04,-524.201 1382,-527.441 1402.96,-530.681 1557.5,-529.967 1572,-545.441 1685.39,-666.449 1525.5,-762.858 1583,-918.401 1589.61,-936.281 1602.17,-953.129 1614.27,-966.469"/>
<polygon fill="#cc0000" stroke="#cc0000" points="1611.88,-969.035 1621.29,-973.9 1616.97,-964.227 1611.88,-969.035"/>
</g>
<!-- taskmanServerImpl -->
<g id="node7" class="node"><title>taskmanServerImpl</title>
<ellipse fill="#aaaaff" stroke="black" cx="1167" cy="-395.831" rx="84.485" ry="18"/>
<text text-anchor="middle" x="1167" y="-392.131" font-family="Times,serif" font-size="14.00">taskman&#45;server&#45;impl</text>
</g>
<!-- taskmanServerImpl&#45;&gt;taskmanDb -->
<g id="edge16" class="edge"><title>taskmanServerImpl&#45;&gt;taskmanDb</title>
<path fill="none" stroke="#cc0000" d="M1182.69,-413.796C1198.16,-430.527 1221.96,-456.269 1239.46,-475.189"/>
<polygon fill="#cc0000" stroke="#cc0000" points="1236.93,-477.614 1246.29,-482.58 1242.07,-472.862 1236.93,-477.614"/>
</g>
<!-- taskmanServerLogic -->
<g id="node8" class="node"><title>taskmanServerLogic</title>
<ellipse fill="#aaaaff" stroke="black" cx="1064" cy="-500.571" rx="85.2851" ry="18"/>
<text text-anchor="middle" x="1064" y="-496.871" font-family="Times,serif" font-size="14.00">taskman&#45;server&#45;logic</text>
</g>
<!-- taskmanServerImpl&#45;&gt;taskmanServerLogic -->
<g id="edge14" class="edge"><title>taskmanServerImpl&#45;&gt;taskmanServerLogic</title>
<path fill="none" stroke="#cc0000" d="M1149.99,-413.796C1133.14,-430.601 1107.18,-456.498 1088.19,-475.441"/>
<polygon fill="#cc0000" stroke="#cc0000" points="1085.64,-473.04 1081.03,-482.58 1090.59,-477.996 1085.64,-473.04"/>
</g>
<!-- taskmanApi -->
<g id="node10" class="node"><title>taskmanApi</title>
<ellipse fill="#cccccc" stroke="black" cx="1457" cy="-395.831" rx="58.8803" ry="26.7407"/>
<text text-anchor="middle" x="1457" y="-399.631" font-family="Times,serif" font-size="14.00">[aggregate]</text>
<text text-anchor="middle" x="1457" y="-384.631" font-family="Times,serif" font-size="14.00">taskman&#45;api</text>
</g>
<!-- taskmanServerImpl&#45;&gt;taskmanApi -->
<g id="edge15" class="edge"><title>taskmanServerImpl&#45;&gt;taskmanApi</title>
<path fill="none" stroke="#cc0000" d="M1251.68,-395.831C1297.13,-395.831 1342.59,-395.831 1388.04,-395.831"/>
<polygon fill="#cc0000" stroke="#cc0000" points="1388.05,-399.331 1398.05,-395.831 1388.05,-392.331 1388.05,-399.331"/>
</g>
<!-- taskmanApiLogic -->
<g id="node12" class="node"><title>taskmanApiLogic</title>
<ellipse fill="#cceeff" stroke="black" cx="1469" cy="-605.311" rx="74.9875" ry="18"/>
<text text-anchor="middle" x="1469" y="-601.611" font-family="Times,serif" font-size="14.00">taskman&#45;api&#45;logic</text>
</g>
<!-- taskmanServerLogic&#45;&gt;taskmanApiLogic -->
<g id="edge13" class="edge"><title>taskmanServerLogic&#45;&gt;taskmanApiLogic</title>
<path fill="none" stroke="#cc0000" d="M1113.21,-515.375C1127.62,-519.348 1143.42,-523.634 1158,-527.441 1244.71,-550.084 1345.47,-574.676 1408.25,-589.794"/>
<polygon fill="#cc0000" stroke="#cc0000" points="1407.45,-593.201 1417.99,-592.137 1409.08,-586.395 1407.45,-593.201"/>
</g>
<!-- taskmanServer -->
<g id="node9" class="node"><title>taskmanServer</title>
<ellipse fill="#cccccc" stroke="black" cx="1167" cy="-305.09" rx="70.922" ry="26.7407"/>
<text text-anchor="middle" x="1167" y="-308.89" font-family="Times,serif" font-size="14.00">[aggregate]</text>
<text text-anchor="middle" x="1167" y="-293.89" font-family="Times,serif" font-size="14.00">taskman&#45;server</text>
</g>
<!-- taskmanServer&#45;&gt;taskmanDb -->
<g id="edge51" class="edge"><title>taskmanServer&#45;&gt;taskmanDb</title>
<path fill="none" stroke="#aaaaaa" stroke-dasharray="5,2" d="M1217.54,-324.07C1234.01,-332.592 1250.49,-344.587 1260,-360.96 1279.91,-395.252 1275.02,-442.82 1269.01,-472.37"/>
<polygon fill="#aaaaaa" stroke="#aaaaaa" points="1266.78,-482.384 1264.56,-471.646 1267.87,-477.503 1268.95,-472.622 1268.95,-472.622 1268.95,-472.622 1267.87,-477.503 1273.34,-473.597 1266.78,-482.384 1266.78,-482.384"/>
</g>
<!-- taskmanServer&#45;&gt;taskmanServerImpl -->
<g id="edge17" class="edge"><title>taskmanServer&#45;&gt;taskmanServerImpl</title>
<path fill="none" stroke="#cc0000" d="M1160.78,-332.235C1160.09,-343.393 1160.07,-356.413 1160.72,-367.679"/>
<polygon fill="#cc0000" stroke="#cc0000" points="1157.25,-368.144 1161.55,-377.826 1164.23,-367.573 1157.25,-368.144"/>
</g>
<!-- taskmanServer&#45;&gt;taskmanServerImpl -->
<g id="edge50" class="edge"><title>taskmanServer&#45;&gt;taskmanServerImpl</title>
<path fill="none" stroke="#aaaaaa" stroke-dasharray="5,2" d="M1173.22,-332.235C1173.91,-343.393 1173.93,-356.413 1173.28,-367.679"/>
<polygon fill="#aaaaaa" stroke="#aaaaaa" points="1172.45,-377.826 1168.78,-367.492 1172.85,-372.842 1173.26,-367.859 1173.26,-367.859 1173.26,-367.859 1172.85,-372.842 1177.75,-368.226 1172.45,-377.826 1172.45,-377.826"/>
</g>
<!-- taskmanServer&#45;&gt;taskmanServerLogic -->
<g id="edge49" class="edge"><title>taskmanServer&#45;&gt;taskmanServerLogic</title>
<path fill="none" stroke="#aaaaaa" stroke-dasharray="5,2" d="M1116.98,-324.378C1100.56,-332.932 1083.98,-344.867 1074,-360.96 1053.06,-394.749 1054.93,-442.462 1058.92,-472.179"/>
<polygon fill="#aaaaaa" stroke="#aaaaaa" points="1060.45,-482.254 1054.5,-473.042 1059.7,-477.31 1058.95,-472.367 1058.95,-472.367 1058.95,-472.367 1059.7,-477.31 1063.4,-471.691 1060.45,-482.254 1060.45,-482.254"/>
</g>
<!-- taskmanApiImpl -->
<g id="node11" class="node"><title>taskmanApiImpl</title>
<ellipse fill="#cceeff" stroke="black" cx="1467" cy="-500.571" rx="73.387" ry="18"/>
<text text-anchor="middle" x="1467" y="-496.871" font-family="Times,serif" font-size="14.00">taskman&#45;api&#45;impl</text>
</g>
<!-- taskmanApi&#45;&gt;taskmanApiImpl -->
<g id="edge12" class="edge"><title>taskmanApi&#45;&gt;taskmanApiImpl</title>
<path fill="none" stroke="#cc0000" d="M1453.57,-422.756C1454.01,-437.922 1455.85,-457.047 1458.32,-472.419"/>
<polygon fill="#cc0000" stroke="#cc0000" points="1454.9,-473.155 1460.13,-482.367 1461.79,-471.902 1454.9,-473.155"/>
</g>
<!-- taskmanApi&#45;&gt;taskmanApiImpl -->
<g id="edge48" class="edge"><title>taskmanApi&#45;&gt;taskmanApiImpl</title>
<path fill="none" stroke="#aaaaaa" stroke-dasharray="5,2" d="M1465.43,-422.491C1467.97,-437.751 1469.89,-457.089 1470.4,-472.578"/>
<polygon fill="#aaaaaa" stroke="#aaaaaa" points="1470.52,-482.589 1465.9,-472.643 1470.46,-477.589 1470.4,-472.59 1470.4,-472.59 1470.4,-472.59 1470.46,-477.589 1474.9,-472.536 1470.52,-482.589 1470.52,-482.589"/>
</g>
<!-- taskmanApi&#45;&gt;taskmanApiLogic -->
<g id="edge47" class="edge"><title>taskmanApi&#45;&gt;taskmanApiLogic</title>
<path fill="none" stroke="#aaaaaa" stroke-dasharray="5,2" d="M1494.06,-416.857C1514.36,-430.049 1537.63,-449.378 1549,-473.701 1559.12,-495.337 1558.36,-505.467 1549,-527.441 1539.53,-549.675 1520.13,-568.579 1502.8,-582.077"/>
<polygon fill="#aaaaaa" stroke="#aaaaaa" points="1494.51,-588.26 1499.84,-578.673 1498.52,-585.27 1502.53,-582.28 1502.53,-582.28 1502.53,-582.28 1498.52,-585.27 1505.22,-585.886 1494.51,-588.26 1494.51,-588.26"/>
</g>
<!-- taskmanApiImpl&#45;&gt;baseDb -->
<g id="edge8" class="edge"><title>taskmanApiImpl&#45;&gt;baseDb</title>
<path fill="none" stroke="#cc0000" d="M1423.51,-515.14C1406.65,-519.847 1387.09,-524.641 1369,-527.441 1254.78,-545.121 409.701,-494.731 330,-578.441 253.622,-658.66 253.884,-747.193 330,-827.661 380.854,-881.423 921.592,-855.292 995,-864.661 1222.3,-893.671 1489.16,-956.547 1596.6,-983.073"/>
<polygon fill="#cc0000" stroke="#cc0000" points="1595.94,-986.517 1606.49,-985.525 1597.62,-979.722 1595.94,-986.517"/>
</g>
<!-- taskmanApiImpl&#45;&gt;baseTest -->
<g id="edge11" class="edge"><title>taskmanApiImpl&#45;&gt;baseTest</title>
<path fill="none" stroke="#111111" stroke-dasharray="5,2" d="M1524,-512.167C1572.38,-524.843 1634,-551.378 1634,-604.311 1634,-604.311 1634,-604.311 1634,-801.791 1634,-819.497 1637.66,-838.759 1641.77,-854.799"/>
<polygon fill="#111111" stroke="#111111" points="1638.5,-856.096 1644.5,-864.825 1645.25,-854.257 1638.5,-856.096"/>
<text text-anchor="middle" x="1643.5" y="-706.351" font-family="Times,serif" font-size="14.00">test</text>
</g>
<!-- taskmanApiImpl&#45;&gt;taskmanDb -->
<g id="edge10" class="edge"><title>taskmanApiImpl&#45;&gt;taskmanDb</title>
<path fill="none" stroke="#111111" stroke-dasharray="5,2" d="M1393.49,-500.571C1384.89,-500.571 1375.99,-500.571 1367.07,-500.571"/>
<polygon fill="#111111" stroke="#111111" points="1367,-497.071 1357,-500.571 1367,-504.071 1367,-497.071"/>
<text text-anchor="middle" x="1375.22" y="-486.371" font-family="Times,serif" font-size="14.00">test</text>
</g>
<!-- taskmanApiImpl&#45;&gt;taskmanApiLogic -->
<g id="edge7" class="edge"><title>taskmanApiImpl&#45;&gt;taskmanApiLogic</title>
<path fill="none" stroke="#cc0000" d="M1463.54,-518.563C1461.57,-530.317 1459.72,-546.321 1461,-560.441 1461.49,-565.891 1462.32,-571.676 1463.27,-577.196"/>
<polygon fill="#cc0000" stroke="#cc0000" points="1459.88,-578.14 1465.16,-587.325 1466.76,-576.852 1459.88,-578.14"/>
</g>
<!-- taskmanApiImpl&#45;&gt;taskmanApiLogic -->
<g id="edge9" class="edge"><title>taskmanApiImpl&#45;&gt;taskmanApiLogic</title>
<path fill="none" stroke="#111111" stroke-dasharray="5,2" d="M1467.34,-518.999C1467.65,-534.888 1468.11,-558.618 1468.47,-577.02"/>
<polygon fill="#111111" stroke="#111111" points="1464.97,-577.21 1468.67,-587.14 1471.97,-577.073 1464.97,-577.21"/>
<text text-anchor="middle" x="1488" y="-549.241" font-family="Times,serif" font-size="14.00">test&#45;lib</text>
</g>
<!-- taskmanApiLogic&#45;&gt;baseUtil -->
<g id="edge6" class="edge"><title>taskmanApiLogic&#45;&gt;baseUtil</title>
<path fill="none" stroke="#cc0000" d="M1397.12,-610.541C1299.68,-616.155 1120.25,-626.068 967,-632.181 949.313,-632.886 342.468,-637.615 330,-650.181 268.48,-712.181 265.112,-784.04 326,-846.661 350.835,-872.203 936.803,-845.759 967,-864.661 989.829,-878.95 973.876,-901.694 995,-918.401 1180.47,-1065.09 1474.86,-1089.34 1609.52,-1092.34"/>
<polygon fill="#cc0000" stroke="#cc0000" points="1609.65,-1095.85 1619.72,-1092.54 1609.79,-1088.85 1609.65,-1095.85"/>
</g>
<!-- webapp -->
<g id="node13" class="node"><title>webapp</title>
<ellipse fill="#ffff80" stroke="black" cx="661" cy="-214.35" rx="55.3091" ry="26.7407"/>
<text text-anchor="middle" x="661" y="-218.15" font-family="Times,serif" font-size="14.00">[aggregate]</text>
<text text-anchor="middle" x="661" y="-203.15" font-family="Times,serif" font-size="14.00">webapp</text>
</g>
<!-- webappClientHome -->
<g id="node18" class="node"><title>webappClientHome</title>
<ellipse fill="#99ccee" stroke="black" cx="824" cy="-395.831" rx="90.5193" ry="26.7407"/>
<text text-anchor="middle" x="824" y="-399.631" font-family="Times,serif" font-size="14.00">webapp&#45;client&#45;home</text>
<text text-anchor="middle" x="824" y="-384.631" font-family="Times,serif" font-size="14.00">(JS)</text>
</g>
<!-- webapp&#45;&gt;webappClientHome -->
<g id="edge55" class="edge"><title>webapp&#45;&gt;webappClientHome</title>
<path fill="none" stroke="#aaaaaa" stroke-dasharray="5,2" d="M676.467,-240.332C693.432,-266.677 722.348,-308.628 753,-339.96 761.511,-348.66 771.439,-357.16 781.128,-364.772"/>
<polygon fill="#aaaaaa" stroke="#aaaaaa" points="789.173,-370.943 778.5,-368.428 785.206,-367.9 781.238,-364.857 781.238,-364.857 781.238,-364.857 785.206,-367.9 783.977,-361.286 789.173,-370.943 789.173,-370.943"/>
</g>
<!-- webappClientWw -->
<g id="node20" class="node"><title>webappClientWw</title>
<ellipse fill="#99ccee" stroke="black" cx="633" cy="-395.831" rx="82.9636" ry="26.7407"/>
<text text-anchor="middle" x="633" y="-399.631" font-family="Times,serif" font-size="14.00">webapp&#45;client&#45;ww</text>
<text text-anchor="middle" x="633" y="-384.631" font-family="Times,serif" font-size="14.00">(JS)</text>
</g>
<!-- webapp&#45;&gt;webappClientWw -->
<g id="edge57" class="edge"><title>webapp&#45;&gt;webappClientWw</title>
<path fill="none" stroke="#aaaaaa" stroke-dasharray="5,2" d="M656.929,-241.448C652.104,-272.374 644.038,-324.076 638.621,-358.802"/>
<polygon fill="#aaaaaa" stroke="#aaaaaa" points="637.031,-368.992 634.126,-358.418 637.802,-364.052 638.572,-359.112 638.572,-359.112 638.572,-359.112 637.802,-364.052 643.019,-359.805 637.031,-368.992 637.031,-368.992"/>
</g>
<!-- webappClientProject -->
<g id="node21" class="node"><title>webappClientProject</title>
<ellipse fill="#99ccee" stroke="black" cx="437" cy="-395.831" rx="95.4188" ry="26.7407"/>
<text text-anchor="middle" x="437" y="-399.631" font-family="Times,serif" font-size="14.00">webapp&#45;client&#45;project</text>
<text text-anchor="middle" x="437" y="-384.631" font-family="Times,serif" font-size="14.00">(JS)</text>
</g>
<!-- webapp&#45;&gt;webappClientProject -->
<g id="edge54" class="edge"><title>webapp&#45;&gt;webappClientProject</title>
<path fill="none" stroke="#aaaaaa" stroke-dasharray="5,2" d="M633.083,-237.719C593.447,-269.477 520.701,-327.765 475.826,-363.721"/>
<polygon fill="#aaaaaa" stroke="#aaaaaa" points="467.785,-370.164 472.776,-360.399 471.687,-367.037 475.589,-363.911 475.589,-363.911 475.589,-363.911 471.687,-367.037 478.403,-367.422 467.785,-370.164 467.785,-370.164"/>
</g>
<!-- webappServer -->
<g id="node22" class="node"><title>webappServer</title>
<ellipse fill="#99ccee" stroke="black" cx="824" cy="-305.09" rx="62.2891" ry="18"/>
<text text-anchor="middle" x="824" y="-301.39" font-family="Times,serif" font-size="14.00">webapp&#45;server</text>
</g>
<!-- webapp&#45;&gt;webappServer -->
<g id="edge56" class="edge"><title>webapp&#45;&gt;webappServer</title>
<path fill="none" stroke="#aaaaaa" stroke-dasharray="5,2" d="M696.771,-234.825C723.63,-249.447 760.285,-269.403 787.354,-284.139"/>
<polygon fill="#aaaaaa" stroke="#aaaaaa" points="796.138,-288.922 785.203,-288.092 791.746,-286.531 787.355,-284.14 787.355,-284.14 787.355,-284.14 791.746,-286.531 789.507,-280.188 796.138,-288.922 796.138,-288.922"/>
</g>
<!-- webappMacro -->
<g id="node14" class="node"><title>webappMacro</title>
<ellipse fill="#99ccee" stroke="black" cx="851" cy="-996.271" rx="69.0935" ry="26.7407"/>
<text text-anchor="middle" x="851" y="-1000.07" font-family="Times,serif" font-size="14.00">webapp&#45;macro</text>
<text text-anchor="middle" x="851" y="-985.071" font-family="Times,serif" font-size="14.00">(Scala &amp; JS)</text>
</g>
<!-- webappMacro&#45;&gt;baseUtil -->
<g id="edge18" class="edge"><title>webappMacro&#45;&gt;baseUtil</title>
<path fill="none" stroke="#cc0000" d="M890.05,-1018.52C912,-1029.4 940.283,-1041.68 967,-1048.14 1087.43,-1077.27 1453.91,-1087.64 1609.7,-1090.8"/>
<polygon fill="#cc0000" stroke="#cc0000" points="1610.04,-1094.31 1620.1,-1091.01 1610.18,-1087.31 1610.04,-1094.31"/>
</g>
<!-- webappBase -->
<g id="node15" class="node"><title>webappBase</title>
<ellipse fill="#99ccee" stroke="black" cx="750" cy="-891.531" rx="61.5366" ry="26.7407"/>
<text text-anchor="middle" x="750" y="-895.331" font-family="Times,serif" font-size="14.00">webapp&#45;base</text>
<text text-anchor="middle" x="750" y="-880.331" font-family="Times,serif" font-size="14.00">(Scala &amp; JS)</text>
</g>
<!-- webappBase&#45;&gt;webappMacro -->
<g id="edge19" class="edge"><title>webappBase&#45;&gt;webappMacro</title>
<path fill="none" stroke="#cc0000" d="M773.68,-916.619C787.509,-930.687 805.119,-948.6 820.039,-963.776"/>
<polygon fill="#cc0000" stroke="#cc0000" points="817.612,-966.301 827.118,-970.978 822.604,-961.393 817.612,-966.301"/>
</g>
<!-- webappBaseServer -->
<g id="node16" class="node"><title>webappBaseServer</title>
<ellipse fill="#99ccee" stroke="black" cx="867" cy="-800.791" rx="88.2768" ry="26.7407"/>
<text text-anchor="middle" x="867" y="-804.591" font-family="Times,serif" font-size="14.00">webapp&#45;base&#45;server</text>
<text text-anchor="middle" x="867" y="-789.591" font-family="Times,serif" font-size="14.00">(Scala &amp; JS)</text>
</g>
<!-- webappBaseServer&#45;&gt;webappBase -->
<g id="edge20" class="edge"><title>webappBaseServer&#45;&gt;webappBase</title>
<path fill="none" stroke="#cc0000" d="M835.029,-826.04C820.529,-837.037 803.27,-850.128 788.102,-861.632"/>
<polygon fill="#cc0000" stroke="#cc0000" points="785.774,-859.005 779.922,-867.837 790.004,-864.582 785.774,-859.005"/>
</g>
<!-- webappClientBase -->
<g id="node17" class="node"><title>webappClientBase</title>
<ellipse fill="#99ccee" stroke="black" cx="740" cy="-605.311" rx="86.0347" ry="26.7407"/>
<text text-anchor="middle" x="740" y="-609.111" font-family="Times,serif" font-size="14.00">webapp&#45;client&#45;base</text>
<text text-anchor="middle" x="740" y="-594.111" font-family="Times,serif" font-size="14.00">(JS)</text>
</g>
<!-- webappClientBase&#45;&gt;webappBase -->
<g id="edge23" class="edge"><title>webappClientBase&#45;&gt;webappBase</title>
<path fill="none" stroke="#cc0000" d="M740.914,-632.287C742.702,-683.116 746.668,-795.83 748.718,-854.089"/>
<polygon fill="#cc0000" stroke="#cc0000" points="745.228,-854.436 749.077,-864.307 752.223,-854.19 745.228,-854.436"/>
</g>
<!-- webappBaseTest -->
<g id="node23" class="node"><title>webappBaseTest</title>
<ellipse fill="white" stroke="blue" cx="857" cy="-710.051" rx="77.5641" ry="26.7407"/>
<text text-anchor="middle" x="857" y="-713.851" font-family="Times,serif" font-size="14.00">webapp&#45;base&#45;test</text>
<text text-anchor="middle" x="857" y="-698.851" font-family="Times,serif" font-size="14.00">(Scala &amp; JS)</text>
</g>
<!-- webappClientBase&#45;&gt;webappBaseTest -->
<g id="edge24" class="edge"><title>webappClientBase&#45;&gt;webappBaseTest</title>
<path fill="none" stroke="#111111" stroke-dasharray="5,2" d="M768.024,-630.92C784.088,-645.025 804.405,-662.866 821.567,-677.937"/>
<polygon fill="#111111" stroke="#111111" points="819.381,-680.674 829.204,-684.643 824,-675.415 819.381,-680.674"/>
<text text-anchor="middle" x="815.5" y="-653.981" font-family="Times,serif" font-size="14.00">test</text>
</g>
<!-- webappClientHome&#45;&gt;webappClientBase -->
<g id="edge27" class="edge"><title>webappClientHome&#45;&gt;webappClientBase</title>
<path fill="none" stroke="#cc0000" d="M827.315,-422.882C829.651,-450.19 830.092,-493.73 815,-527.441 807.157,-544.958 793.495,-560.817 779.962,-573.518"/>
<polygon fill="#cc0000" stroke="#cc0000" points="777.585,-570.949 772.495,-580.24 782.269,-576.151 777.585,-570.949"/>
</g>
<!-- webappClientBaseTest -->
<g id="node24" class="node"><title>webappClientBaseTest</title>
<ellipse fill="white" stroke="blue" cx="703" cy="-500.571" rx="102.561" ry="26.7407"/>
<text text-anchor="middle" x="703" y="-504.371" font-family="Times,serif" font-size="14.00">webapp&#45;client&#45;base&#45;test</text>
<text text-anchor="middle" x="703" y="-489.371" font-family="Times,serif" font-size="14.00">(JS)</text>
</g>
<!-- webappClientHome&#45;&gt;webappClientBaseTest -->
<g id="edge28" class="edge"><title>webappClientHome&#45;&gt;webappClientBaseTest</title>
<path fill="none" stroke="#111111" stroke-dasharray="5,2" d="M795.017,-421.439C778.526,-435.442 757.7,-453.125 740.033,-468.126"/>
<polygon fill="#111111" stroke="#111111" points="737.523,-465.666 732.165,-474.807 742.054,-471.002 737.523,-465.666"/>
<text text-anchor="middle" x="780.5" y="-444.501" font-family="Times,serif" font-size="14.00">test</text>
</g>
<!-- webappClientWwApi -->
<g id="node19" class="node"><title>webappClientWwApi</title>
<ellipse fill="#99ccee" stroke="black" cx="464" cy="-500.571" rx="97.6615" ry="26.7407"/>
<text text-anchor="middle" x="464" y="-504.371" font-family="Times,serif" font-size="14.00">webapp&#45;client&#45;ww&#45;api</text>
<text text-anchor="middle" x="464" y="-489.371" font-family="Times,serif" font-size="14.00">(JS)</text>
</g>
<!-- webappClientWwApi&#45;&gt;webappBase -->
<g id="edge29" class="edge"><title>webappClientWwApi&#45;&gt;webappBase</title>
<path fill="none" stroke="#cc0000" d="M486.688,-527.041C501.839,-546.712 519,-575.379 519,-604.311 519,-604.311 519,-604.311 519,-801.791 519,-837.364 615.668,-864.049 683.935,-878.458"/>
<polygon fill="#cc0000" stroke="#cc0000" points="683.285,-881.897 693.786,-880.494 684.702,-875.042 683.285,-881.897"/>
</g>
<!-- webappClientWw&#45;&gt;webappClientWwApi -->
<g id="edge30" class="edge"><title>webappClientWw&#45;&gt;webappClientWwApi</title>
<path fill="none" stroke="#cc0000" d="M637.021,-422.8C637.319,-434.08 635.507,-446.735 628,-455.701 622.355,-462.442 586.336,-472.432 549.487,-481.176"/>
<polygon fill="#cc0000" stroke="#cc0000" points="548.549,-477.801 539.609,-483.487 550.144,-484.617 548.549,-477.801"/>
</g>
<!-- webappClientWw&#45;&gt;webappClientBaseTest -->
<g id="edge31" class="edge"><title>webappClientWw&#45;&gt;webappClientBaseTest</title>
<path fill="none" stroke="#111111" stroke-dasharray="5,2" d="M650.303,-422.227C659.155,-435.218 670.055,-451.217 679.641,-465.286"/>
<polygon fill="#111111" stroke="#111111" points="676.886,-467.459 685.409,-473.753 682.671,-463.518 676.886,-467.459"/>
<text text-anchor="middle" x="682.5" y="-444.501" font-family="Times,serif" font-size="14.00">test</text>
</g>
<!-- webappClientProject&#45;&gt;webappClientBase -->
<g id="edge32" class="edge"><title>webappClientProject&#45;&gt;webappClientBase</title>
<path fill="none" stroke="#cc0000" d="M492.319,-417.92C519.189,-430.572 550.103,-449.048 571,-473.701 587.479,-493.141 574.093,-508.372 591,-527.441 612.514,-551.704 643.52,-569.408 671.684,-581.666"/>
<polygon fill="#cc0000" stroke="#cc0000" points="670.532,-584.978 681.108,-585.615 673.238,-578.522 670.532,-584.978"/>
</g>
<!-- webappClientProject&#45;&gt;webappClientWwApi -->
<g id="edge33" class="edge"><title>webappClientProject&#45;&gt;webappClientWwApi</title>
<path fill="none" stroke="#cc0000" d="M443.813,-422.756C447.075,-435.167 451.033,-450.229 454.578,-463.716"/>
<polygon fill="#cc0000" stroke="#cc0000" points="451.262,-464.871 457.189,-473.653 458.032,-463.092 451.262,-464.871"/>
</g>
<!-- webappClientProject&#45;&gt;webappClientBaseTest -->
<g id="edge34" class="edge"><title>webappClientProject&#45;&gt;webappClientBaseTest</title>
<path fill="none" stroke="#111111" stroke-dasharray="5,2" d="M506,-414.58C531.189,-421.764 559.693,-430.726 585,-440.701 607.257,-449.473 631.005,-460.893 651.318,-471.337"/>
<polygon fill="#111111" stroke="#111111" points="649.904,-474.547 660.391,-476.054 653.133,-468.336 649.904,-474.547"/>
<text text-anchor="middle" x="628.5" y="-444.501" font-family="Times,serif" font-size="14.00">test</text>
</g>
<!-- webappServer&#45;&gt;baseDb -->
<g id="edge38" class="edge"><title>webappServer:e&#45;&gt;baseDb</title>
<path fill="none" stroke="#cc0000" d="M888,-305.09C926.379,-305.09 929.59,-331.391 967,-339.96 1098.13,-369.998 1438.02,-348.809 1572,-360.96 1674.9,-370.294 1802,-291.506 1802,-394.831 1802,-394.831 1802,-394.831 1802,-892.531 1802,-944.729 1740.49,-971.835 1694.47,-984.81"/>
<polygon fill="#cc0000" stroke="#cc0000" points="1693.37,-981.479 1684.62,-987.442 1695.18,-988.242 1693.37,-981.479"/>
</g>
<!-- webappServer&#45;&gt;taskmanApi -->
<g id="edge35" class="edge"><title>webappServer&#45;&gt;taskmanApi</title>
<path fill="none" stroke="#cc0000" d="M858.92,-320.163C887.256,-330.836 928.513,-344.702 966,-350.96 1054.36,-365.713 1281.13,-343.505 1369,-360.96 1381.67,-363.477 1394.89,-367.661 1407.12,-372.244"/>
<polygon fill="#cc0000" stroke="#cc0000" points="1406.09,-375.601 1416.68,-375.981 1408.64,-369.081 1406.09,-375.601"/>
</g>
<!-- webappServer&#45;&gt;webappBase -->
<g id="edge36" class="edge"><title>webappServer&#45;&gt;webappBase</title>
<path fill="none" stroke="#cc0000" d="M867.139,-318.262C888.214,-326.624 911.643,-340.085 924,-360.96 937.978,-384.574 929.093,-395.737 924,-422.701 902.516,-536.434 913.945,-586.56 829,-665.181 808.88,-683.803 787.354,-661.957 770,-683.181 769.329,-684.002 758.887,-795.121 753.365,-854.331"/>
<polygon fill="#cc0000" stroke="#cc0000" points="749.87,-854.118 752.427,-864.4 756.84,-854.767 749.87,-854.118"/>
</g>
<!-- webappServer&#45;&gt;webappBaseServer -->
<g id="edge37" class="edge"><title>webappServer&#45;&gt;webappBaseServer</title>
<path fill="none" stroke="#cc0000" d="M875.332,-315.381C897.489,-321.756 922.139,-332.379 939,-349.96 953.554,-365.136 954,-373.803 954,-394.831 954,-394.831 954,-394.831 954,-711.051 954,-735.687 936.691,-756.001 917.514,-770.947"/>
<polygon fill="#cc0000" stroke="#cc0000" points="915.223,-768.286 909.226,-777.021 919.361,-773.933 915.223,-768.286"/>
</g>
<!-- webappServer&#45;&gt;webappClientHome -->
<g id="edge39" class="edge"><title>webappServer&#45;&gt;webappClientHome</title>
<path fill="none" stroke="#cc0000" stroke-dasharray="5,2" d="M824,-323.2C824,-333.273 824,-346.407 824,-358.673"/>
<polygon fill="#cc0000" stroke="#cc0000" points="820.5,-358.685 824,-368.686 827.5,-358.686 820.5,-358.685"/>
</g>
<!-- webappServer&#45;&gt;webappClientWw -->
<g id="edge41" class="edge"><title>webappServer&#45;&gt;webappClientWw</title>
<path fill="none" stroke="#cc0000" stroke-dasharray="5,2" d="M807.257,-322.885C796.8,-332.463 782.587,-343.923 768,-350.96 749.938,-359.674 743.217,-355.228 724,-360.96 714.084,-363.918 703.692,-367.405 693.621,-370.997"/>
<polygon fill="#cc0000" stroke="#cc0000" points="692.295,-367.755 684.091,-374.459 694.685,-374.334 692.295,-367.755"/>
</g>
<!-- webappServer&#45;&gt;webappClientProject -->
<g id="edge40" class="edge"><title>webappServer&#45;&gt;webappClientProject</title>
<path fill="none" stroke="#cc0000" stroke-dasharray="5,2" d="M770.622,-314.42C713.398,-323.818 620.097,-340.496 541,-360.96 529.295,-363.989 516.979,-367.606 505.08,-371.332"/>
<polygon fill="#cc0000" stroke="#cc0000" points="503.672,-368.107 495.205,-374.477 505.796,-374.777 503.672,-368.107"/>
</g>
<!-- webappBaseTest&#45;&gt;baseTest -->
<g id="edge21" class="edge"><title>webappBaseTest&#45;&gt;baseTest</title>
<path fill="none" stroke="#111111" d="M920.794,-725.435C1070.1,-759.1 1440.84,-842.694 1589.68,-876.253"/>
<polygon fill="#111111" stroke="#111111" points="1589.05,-879.701 1599.58,-878.486 1590.59,-872.872 1589.05,-879.701"/>
</g>
<!-- webappBaseTest&#45;&gt;webappBaseServer -->
<g id="edge22" class="edge"><title>webappBaseTest&#45;&gt;webappBaseServer</title>
<path fill="none" stroke="#111111" d="M859.946,-737.196C860.882,-745.501 861.934,-754.836 862.934,-763.713"/>
<polygon fill="#111111" stroke="#111111" points="859.477,-764.288 864.075,-773.833 866.433,-763.504 859.477,-764.288"/>
</g>
<!-- webappClientBaseTest&#45;&gt;webappClientBase -->
<g id="edge25" class="edge"><title>webappClientBaseTest&#45;&gt;webappClientBase</title>
<path fill="none" stroke="#111111" d="M712.337,-527.496C716.85,-540.029 722.337,-555.265 727.23,-568.853"/>
<polygon fill="#111111" stroke="#111111" points="723.985,-570.171 730.666,-578.393 730.571,-567.799 723.985,-570.171"/>
</g>
<!-- webappClientBaseTest&#45;&gt;webappBaseTest -->
<g id="edge26" class="edge"><title>webappClientBaseTest&#45;&gt;webappBaseTest</title>
<path fill="none" stroke="#111111" d="M762.213,-522.537C788.508,-534.83 817.424,-553.032 835,-578.441 854.14,-606.109 858.588,-644.813 858.886,-672.901"/>
<polygon fill="#111111" stroke="#111111" points="855.385,-673.079 858.819,-683.101 862.385,-673.125 855.385,-673.079"/>
</g>
<!-- taskman -->
<g id="node25" class="node"><title>taskman</title>
<ellipse fill="#ffff80" stroke="black" cx="1167" cy="-214.35" rx="55.3091" ry="26.7407"/>
<text text-anchor="middle" x="1167" y="-218.15" font-family="Times,serif" font-size="14.00">[aggregate]</text>
<text text-anchor="middle" x="1167" y="-203.15" font-family="Times,serif" font-size="14.00">taskman</text>
</g>
<!-- taskman&#45;&gt;taskmanServer -->
<g id="edge53" class="edge"><title>taskman&#45;&gt;taskmanServer</title>
<path fill="none" stroke="#aaaaaa" stroke-dasharray="5,2" d="M1167,-241.495C1167,-249.8 1167,-259.136 1167,-268.012"/>
<polygon fill="#aaaaaa" stroke="#aaaaaa" points="1167,-278.132 1162.5,-268.132 1167,-273.132 1167,-268.132 1167,-268.132 1167,-268.132 1167,-273.132 1171.5,-268.132 1167,-278.132 1167,-278.132"/>
</g>
<!-- taskman&#45;&gt;taskmanApi -->
<g id="edge52" class="edge"><title>taskman&#45;&gt;taskmanApi</title>
<path fill="none" stroke="#aaaaaa" stroke-dasharray="5,2" d="M1220.99,-219.943C1264.31,-225.863 1324.93,-239.384 1369,-270.22 1401.56,-293.003 1426.18,-331.884 1440.98,-360.168"/>
<polygon fill="#aaaaaa" stroke="#aaaaaa" points="1445.63,-369.314 1437.09,-362.433 1443.36,-364.856 1441.1,-360.397 1441.1,-360.397 1441.1,-360.397 1443.36,-364.856 1445.11,-358.361 1445.63,-369.314 1445.63,-369.314"/>
</g>
<!-- benchmark -->
<g id="node26" class="node"><title>benchmark</title>
<ellipse fill="#ffffdd" stroke="black" cx="239" cy="-117.61" rx="55.3091" ry="26.7407"/>
<text text-anchor="middle" x="239" y="-121.41" font-family="Times,serif" font-size="14.00">[aggregate]</text>
<text text-anchor="middle" x="239" y="-106.41" font-family="Times,serif" font-size="14.00">benchmark</text>
</g>
<!-- benchmarkJvm -->
<g id="node27" class="node"><title>benchmarkJvm</title>
<ellipse fill="#ffcccc" stroke="black" cx="239" cy="-214.35" rx="70.6878" ry="18"/>
<text text-anchor="middle" x="239" y="-210.65" font-family="Times,serif" font-size="14.00">benchmark JVM</text>
</g>
<!-- benchmark&#45;&gt;benchmarkJvm -->
<g id="edge62" class="edge"><title>benchmark&#45;&gt;benchmarkJvm</title>
<path fill="none" stroke="#aaaaaa" stroke-dasharray="5,2" d="M239,-144.498C239,-157.339 239,-172.851 239,-185.899"/>
<polygon fill="#aaaaaa" stroke="#aaaaaa" points="239,-196.166 234.5,-186.166 239,-191.166 239,-186.166 239,-186.166 239,-186.166 239,-191.166 243.5,-186.166 239,-196.166 239,-196.166"/>
</g>
<!-- benchmarkJs -->
<g id="node28" class="node"><title>benchmarkJs</title>
<ellipse fill="#ffcccc" stroke="black" cx="89" cy="-214.35" rx="61.1893" ry="18"/>
<text text-anchor="middle" x="89" y="-210.65" font-family="Times,serif" font-size="14.00">benchmark JS</text>
</g>
<!-- benchmark&#45;&gt;benchmarkJs -->
<g id="edge63" class="edge"><title>benchmark&#45;&gt;benchmarkJs</title>
<path fill="none" stroke="#aaaaaa" stroke-dasharray="5,2" d="M206.082,-139.401C181.35,-155.022 147.591,-176.344 122.677,-192.08"/>
<polygon fill="#aaaaaa" stroke="#aaaaaa" points="113.931,-197.604 119.983,-188.459 118.159,-194.934 122.386,-192.264 122.386,-192.264 122.386,-192.264 118.159,-194.934 124.789,-196.068 113.931,-197.604 113.931,-197.604"/>
</g>
<!-- benchmarkJvm&#45;&gt;webappServer -->
<g id="edge44" class="edge"><title>benchmarkJvm&#45;&gt;webappServer</title>
<path fill="none" stroke="#cc0000" d="M281.723,-228.929C296.851,-233.354 314.07,-237.962 330,-241.22 479.759,-271.856 658.294,-290.164 754.421,-298.559"/>
<polygon fill="#cc0000" stroke="#cc0000" points="754.332,-302.064 764.596,-299.437 754.934,-295.09 754.332,-302.064"/>
</g>
<!-- benchmarkShared -->
<g id="node29" class="node"><title>benchmarkShared</title>
<ellipse fill="#ffcccc" stroke="black" cx="209" cy="-305.09" rx="54.3945" ry="26.7407"/>
<text text-anchor="middle" x="209" y="-308.89" font-family="Times,serif" font-size="14.00">benchmark</text>
<text text-anchor="middle" x="209" y="-293.89" font-family="Times,serif" font-size="14.00">base</text>
</g>
<!-- benchmarkJvm&#45;&gt;benchmarkShared -->
<g id="edge42" class="edge"><title>benchmarkJvm&#45;&gt;benchmarkShared</title>
<path fill="none" stroke="#cc0000" d="M233.216,-232.46C229.749,-242.713 225.211,-256.138 221.002,-268.59"/>
<polygon fill="#cc0000" stroke="#cc0000" points="217.61,-267.695 217.723,-278.289 224.241,-269.937 217.61,-267.695"/>
</g>
<!-- benchmarkJs&#45;&gt;webappClientProject -->
<g id="edge45" class="edge"><title>benchmarkJs&#45;&gt;webappClientProject</title>
<path fill="none" stroke="#cc0000" d="M91.7237,-232.529C97.0085,-259.839 111.342,-312.835 146,-339.96 175.338,-362.922 264.729,-377.472 336.771,-385.774"/>
<polygon fill="#cc0000" stroke="#cc0000" points="336.485,-389.264 346.813,-386.904 337.268,-382.308 336.485,-389.264"/>
</g>
<!-- benchmarkJs&#45;&gt;benchmarkShared -->
<g id="edge43" class="edge"><title>benchmarkJs&#45;&gt;benchmarkShared</title>
<path fill="none" stroke="#cc0000" d="M110.454,-231.215C127.399,-243.747 151.459,-261.539 171.563,-276.406"/>
<polygon fill="#cc0000" stroke="#cc0000" points="169.497,-279.231 179.618,-282.363 173.659,-273.603 169.497,-279.231"/>
</g>
<!-- utils -->
<g id="node30" class="node"><title>utils</title>
<ellipse fill="#ffffdd" stroke="black" cx="97" cy="-117.61" rx="27" ry="18"/>
<text text-anchor="middle" x="97" y="-113.91" font-family="Times,serif" font-size="14.00">utils</text>
</g>
<!-- utils&#45;&gt;webappBase -->
<g id="edge46" class="edge"><title>utils&#45;&gt;webappBase</title>
<path fill="none" stroke="#cc0000" d="M74.9892,-128.205C46.3701,-142.345 0,-171.685 0,-213.35 0,-213.35 0,-213.35 0,-801.791 0,-869.705 491.259,-885.816 678.598,-889.49"/>
<polygon fill="#cc0000" stroke="#cc0000" points="678.56,-892.99 688.624,-889.68 678.693,-885.991 678.56,-892.99"/>
</g>
<!-- root -->
<g id="node31" class="node"><title>root</title>
<ellipse fill="#cccccc" stroke="black" cx="661" cy="-26.8701" rx="55.3091" ry="26.7407"/>
<text text-anchor="middle" x="661" y="-30.6701" font-family="Times,serif" font-size="14.00">[aggregate]</text>
<text text-anchor="middle" x="661" y="-15.6701" font-family="Times,serif" font-size="14.00">root</text>
</g>
<!-- root&#45;&gt;base -->
<g id="edge64" class="edge"><title>root&#45;&gt;base</title>
<path fill="none" stroke="#aaaaaa" stroke-dasharray="5,2" d="M716.284,-29.0983C949.377,-34.634 1840,-59.5204 1840,-116.61 1840,-116.61 1840,-116.61 1840,-711.051 1840,-746.024 1806.72,-768.72 1775.07,-782.398"/>
<polygon fill="#aaaaaa" stroke="#aaaaaa" points="1765.78,-786.189 1773.34,-778.245 1770.41,-784.3 1775.04,-782.412 1775.04,-782.412 1775.04,-782.412 1770.41,-784.3 1776.74,-786.578 1765.78,-786.189 1765.78,-786.189"/>
</g>
<!-- root&#45;&gt;webapp -->
<g id="edge65" class="edge"><title>root&#45;&gt;webapp</title>
<path fill="none" stroke="#aaaaaa" stroke-dasharray="5,2" d="M661,-54.0515C661,-86.2255 661,-140.989 661,-177.17"/>
<polygon fill="#aaaaaa" stroke="#aaaaaa" points="661,-187.302 656.5,-177.302 661,-182.302 661,-177.302 661,-177.302 661,-177.302 661,-182.302 665.5,-177.302 661,-187.302 661,-187.302"/>
</g>
<!-- root&#45;&gt;taskman -->
<g id="edge66" class="edge"><title>root&#45;&gt;taskman</title>
<path fill="none" stroke="#aaaaaa" stroke-dasharray="5,2" d="M704.141,-43.684C796.542,-77.5547 1013.32,-157.019 1113.95,-193.905"/>
<polygon fill="#aaaaaa" stroke="#aaaaaa" points="1123.61,-197.445 1112.67,-198.228 1118.91,-195.724 1114.22,-194.003 1114.22,-194.003 1114.22,-194.003 1118.91,-195.724 1115.77,-189.778 1123.61,-197.445 1123.61,-197.445"/>
</g>
<!-- root&#45;&gt;benchmark -->
<g id="edge67" class="edge"><title>root&#45;&gt;benchmark</title>
<path fill="none" stroke="#aaaaaa" stroke-dasharray="5,2" d="M610.934,-38.3982C532.889,-54.8099 382.521,-86.4299 298.863,-104.022"/>
<polygon fill="#aaaaaa" stroke="#aaaaaa" points="289.001,-106.096 297.861,-99.6341 293.894,-105.067 298.787,-104.038 298.787,-104.038 298.787,-104.038 293.894,-105.067 299.713,-108.442 289.001,-106.096 289.001,-106.096"/>
</g>
<!-- root&#45;&gt;utils -->
<g id="edge68" class="edge"><title>root&#45;&gt;utils</title>
<path fill="none" stroke="#aaaaaa" stroke-dasharray="5,2" d="M605.718,-28.802C514.497,-31.5115 327.379,-42.0336 175,-82.7401 158.544,-87.1362 141.078,-94.4493 126.855,-101.157"/>
<polygon fill="#aaaaaa" stroke="#aaaaaa" points="117.578,-105.661 124.608,-97.2454 122.076,-103.477 126.574,-101.294 126.574,-101.294 126.574,-101.294 122.076,-103.477 128.539,-105.342 117.578,-105.661 117.578,-105.661"/>
</g>
</g>
</svg>
