<?xml version="1.0" encoding="UTF-8" standalone="no"?>
<!DOCTYPE svg PUBLIC "-//W3C//DTD SVG 1.1//EN"
 "http://www.w3.org/Graphics/SVG/1.1/DTD/svg11.dtd">
<!-- Generated by graphviz version 2.38.0 (20140413.2041)
 -->
<!-- Title: G Pages: 1 -->
<svg width="2186pt" height="1183pt"
 viewBox="0.00 0.00 2186.00 1182.62" xmlns="http://www.w3.org/2000/svg" xmlns:xlink="http://www.w3.org/1999/xlink">
<g id="graph0" class="graph" transform="scale(1 1) rotate(0) translate(4 1178.62)">
<title>G</title>
<polygon fill="white" stroke="none" points="-4,4 -4,-1178.62 2182,-1178.62 2182,4 -4,4"/>
<g id="clust1" class="cluster"><title>cluster_base</title>
<polygon fill="#f4fff4" stroke="black" points="156,-713.921 156,-1166.62 380,-1166.62 380,-713.921 156,-713.921"/>
</g>
<g id="clust2" class="cluster"><title>cluster_t</title>
<polygon fill="#eeeeff" stroke="black" points="388,-171.48 388,-987.141 2128,-987.141 2128,-171.48 388,-171.48"/>
</g>
<g id="clust3" class="cluster"><title>cluster_ts</title>
<polygon fill="white" stroke="black" points="396,-369.831 396,-565.311 892,-565.311 892,-369.831 396,-369.831"/>
</g>
<g id="clust4" class="cluster"><title>cluster_ta</title>
<polygon fill="white" stroke="black" points="900,-513.311 900,-670.051 1102,-670.051 1102,-513.311 900,-513.311"/>
</g>
<g id="clust5" class="cluster"><title>cluster_w</title>
<polygon fill="white" stroke="black" points="1110,-179.48 1110,-979.141 2120,-979.141 2120,-179.48 1110,-179.48"/>
</g>
<g id="clust6" class="cluster"><title>cluster_supp</title>
<polygon fill="#fff2f2" stroke="black" points="20,-82.7401 20,-339.96 380,-339.96 380,-82.7401 20,-82.7401"/>
</g>
<!-- base -->
<g id="node1" class="node"><title>base</title>
<ellipse fill="#cccccc" stroke="black" cx="235" cy="-748.791" rx="70.922" ry="26.7407"/>
<text text-anchor="middle" x="235" y="-752.591" font-family="Times,serif" font-size="14.00">[aggregate]</text>
<text text-anchor="middle" x="235" y="-737.591" font-family="Times,serif" font-size="14.00">base</text>
</g>
<!-- baseMacro -->
<g id="node2" class="node"><title>baseMacro</title>
<ellipse fill="#bbffbb" stroke="black" cx="246" cy="-1131.75" rx="73.5782" ry="26.7407"/>
<text text-anchor="middle" x="246" y="-1135.55" font-family="Times,serif" font-size="14.00">base&#45;macro</text>
<text text-anchor="middle" x="246" y="-1120.55" font-family="Times,serif" font-size="14.00">(Scala &amp; JS)</text>
</g>
<!-- base&#45;&gt;baseMacro -->
<g id="edge58" class="edge"><title>base&#45;&gt;baseMacro</title>
<path fill="none" stroke="#aaaaaa" stroke-dasharray="5,2" d="M202.868,-772.771C184.466,-788.812 165,-812.041 165,-838.531 165,-838.531 165,-838.531 165,-1042.01 165,-1066.47 181.991,-1087.14 200.41,-1102.36"/>
<polygon fill="#aaaaaa" stroke="#aaaaaa" points="208.346,-1108.54 197.692,-1105.95 204.402,-1105.47 200.458,-1102.4 200.458,-1102.4 200.458,-1102.4 204.402,-1105.47 203.224,-1098.85 208.346,-1108.54 208.346,-1108.54"/>
</g>
<!-- baseUtil -->
<g id="node3" class="node"><title>baseUtil</title>
<ellipse fill="#bbffbb" stroke="black" cx="271" cy="-1041.01" rx="73.5782" ry="26.7407"/>
<text text-anchor="middle" x="271" y="-1044.81" font-family="Times,serif" font-size="14.00">base&#45;util</text>
<text text-anchor="middle" x="271" y="-1029.81" font-family="Times,serif" font-size="14.00">(Scala &amp; JS)</text>
</g>
<!-- base&#45;&gt;baseUtil -->
<g id="edge55" class="edge"><title>base&#45;&gt;baseUtil</title>
<path fill="none" stroke="#aaaaaa" stroke-dasharray="5,2" d="M220.812,-775.498C217.757,-781.395 214.653,-787.688 212,-793.661 198.818,-823.344 200.068,-834.3 205,-866.401 213.544,-922.006 221.301,-935.237 243,-987.141 245.524,-993.178 248.501,-999.446 251.556,-1005.47"/>
<polygon fill="#aaaaaa" stroke="#aaaaaa" points="256.366,-1014.65 247.741,-1007.88 254.047,-1010.22 251.727,-1005.79 251.727,-1005.79 251.727,-1005.79 254.047,-1010.22 255.714,-1003.7 256.366,-1014.65 256.366,-1014.65"/>
</g>
<!-- baseDb -->
<g id="node4" class="node"><title>baseDb</title>
<ellipse fill="#bbffbb" stroke="black" cx="312" cy="-944.271" rx="50.8235" ry="26.7407"/>
<text text-anchor="middle" x="312" y="-948.071" font-family="Times,serif" font-size="14.00">base&#45;db</text>
<text text-anchor="middle" x="312" y="-933.071" font-family="Times,serif" font-size="14.00">(JVM)</text>
</g>
<!-- base&#45;&gt;baseDb -->
<g id="edge56" class="edge"><title>base&#45;&gt;baseDb</title>
<path fill="none" stroke="#aaaaaa" stroke-dasharray="5,2" d="M222.043,-775.595C211.666,-800.087 200.963,-837.368 215,-866.401 225.917,-888.982 247.045,-906.952 266.803,-919.822"/>
<polygon fill="#aaaaaa" stroke="#aaaaaa" points="275.446,-925.198 264.578,-923.738 271.201,-922.557 266.955,-919.916 266.955,-919.916 266.955,-919.916 271.201,-922.557 269.332,-916.095 275.446,-925.198 275.446,-925.198"/>
</g>
<!-- baseTest -->
<g id="node5" class="node"><title>baseTest</title>
<ellipse fill="white" stroke="darkgreen" cx="298" cy="-839.531" rx="73.5782" ry="26.7407"/>
<text text-anchor="middle" x="298" y="-843.331" font-family="Times,serif" font-size="14.00">base&#45;test</text>
<text text-anchor="middle" x="298" y="-828.331" font-family="Times,serif" font-size="14.00">(Scala &amp; JS)</text>
</g>
<!-- base&#45;&gt;baseTest -->
<g id="edge57" class="edge"><title>base&#45;&gt;baseTest</title>
<path fill="none" stroke="#aaaaaa" stroke-dasharray="5,2" d="M252.885,-774.983C259.535,-784.35 267.188,-795.13 274.28,-805.119"/>
<polygon fill="#aaaaaa" stroke="#aaaaaa" points="280.071,-813.276 270.612,-807.727 277.176,-809.199 274.282,-805.122 274.282,-805.122 274.282,-805.122 277.176,-809.199 277.951,-802.517 280.071,-813.276 280.071,-813.276"/>
</g>
<!-- baseUtil&#45;&gt;baseMacro -->
<g id="edge1" class="edge"><title>baseUtil&#45;&gt;baseMacro</title>
<path fill="none" stroke="#cc0000" d="M263.634,-1068.16C261.269,-1076.55 258.608,-1086 256.083,-1094.96"/>
<polygon fill="#cc0000" stroke="#cc0000" points="252.656,-1094.22 253.313,-1104.79 259.394,-1096.12 252.656,-1094.22"/>
</g>
<!-- baseDb&#45;&gt;baseUtil -->
<g id="edge2" class="edge"><title>baseDb&#45;&gt;baseUtil</title>
<path fill="none" stroke="#cc0000" d="M301.013,-970.66C296.454,-981.194 291.089,-993.591 286.165,-1004.97"/>
<polygon fill="#cc0000" stroke="#cc0000" points="282.92,-1003.66 282.16,-1014.22 289.344,-1006.44 282.92,-1003.66"/>
</g>
<!-- baseTest&#45;&gt;baseUtil -->
<g id="edge3" class="edge"><title>baseTest&#45;&gt;baseUtil</title>
<path fill="none" stroke="#111111" d="M278.26,-865.597C268.267,-879.896 257.178,-898.663 252,-917.401 243.744,-947.277 246.68,-956.606 252,-987.141 253.019,-992.989 254.627,-999.045 256.487,-1004.88"/>
<polygon fill="#111111" stroke="#111111" points="253.21,-1006.11 259.795,-1014.41 259.823,-1003.82 253.21,-1006.11"/>
</g>
<!-- baseTest&#45;&gt;baseDb -->
<g id="edge4" class="edge"><title>baseTest&#45;&gt;baseDb</title>
<path fill="none" stroke="#111111" stroke-dasharray="5,2" d="M301.533,-866.457C303.224,-878.868 305.276,-893.93 307.114,-907.417"/>
<polygon fill="#111111" stroke="#111111" points="303.65,-907.918 308.468,-917.354 310.586,-906.973 303.65,-907.918"/>
<text text-anchor="middle" x="338" y="-888.201" font-family="Times,serif" font-size="14.00">provided</text>
</g>
<!-- taskmanDb -->
<g id="node6" class="node"><title>taskmanDb</title>
<ellipse fill="#aaaaff" stroke="black" cx="526" cy="-539.311" rx="122.379" ry="18"/>
<text text-anchor="middle" x="526" y="-535.611" font-family="Times,serif" font-size="14.00">taskman&#45;server&#45;schema</text>
</g>
<!-- taskmanDb&#45;&gt;baseDb -->
<g id="edge5" class="edge"><title>taskmanDb&#45;&gt;baseDb</title>
<path fill="none" stroke="#cc0000" d="M404.402,-541.415C256.117,-546.13 25,-565.86 25,-643.051 25,-643.051 25,-643.051 25,-840.531 25,-888.59 169.449,-920.169 253.391,-934.462"/>
<polygon fill="#cc0000" stroke="#cc0000" points="252.874,-937.924 263.314,-936.12 254.028,-931.02 252.874,-937.924"/>
</g>
<!-- taskmanServerImpl -->
<g id="node7" class="node"><title>taskmanServerImpl</title>
<ellipse fill="#aaaaff" stroke="black" cx="776" cy="-395.831" rx="106.681" ry="18"/>
<text text-anchor="middle" x="776" y="-392.131" font-family="Times,serif" font-size="14.00">taskman&#45;server&#45;impl</text>
</g>
<!-- taskmanServerImpl&#45;&gt;taskmanDb -->
<g id="edge15" class="edge"><title>taskmanServerImpl&#45;&gt;taskmanDb</title>
<path fill="none" stroke="#cc0000" d="M746.833,-413.337C701.604,-438.933 614.542,-488.203 564.302,-516.635"/>
<polygon fill="#cc0000" stroke="#cc0000" points="562.347,-513.719 555.368,-521.691 565.795,-519.812 562.347,-513.719"/>
</g>
<!-- taskmanServerLogic -->
<g id="node8" class="node"><title>taskmanServerLogic</title>
<ellipse fill="#aaaaff" stroke="black" cx="775" cy="-539.311" rx="108.581" ry="18"/>
<text text-anchor="middle" x="775" y="-535.611" font-family="Times,serif" font-size="14.00">taskman&#45;server&#45;logic</text>
</g>
<!-- taskmanServerImpl&#45;&gt;taskmanServerLogic -->
<g id="edge13" class="edge"><title>taskmanServerImpl&#45;&gt;taskmanServerLogic</title>
<path fill="none" stroke="#cc0000" d="M775.879,-413.896C775.709,-438.009 775.396,-482.306 775.193,-511.018"/>
<polygon fill="#cc0000" stroke="#cc0000" points="771.692,-511.16 775.121,-521.184 778.692,-511.209 771.692,-511.16"/>
</g>
<!-- taskmanApiImpl -->
<g id="node9" class="node"><title>taskmanApiImpl</title>
<ellipse fill="#cceeff" stroke="black" cx="999" cy="-539.311" rx="90.9839" ry="18"/>
<text text-anchor="middle" x="999" y="-535.611" font-family="Times,serif" font-size="14.00">taskman&#45;api&#45;impl</text>
</g>
<!-- taskmanServerImpl&#45;&gt;taskmanApiImpl -->
<g id="edge14" class="edge"><title>taskmanServerImpl&#45;&gt;taskmanApiImpl</title>
<path fill="none" stroke="#cc0000" d="M792.763,-413.89C814.22,-434.994 853.272,-470.998 892,-494.441 908.376,-504.353 927.396,-512.967 944.819,-519.875"/>
<polygon fill="#cc0000" stroke="#cc0000" points="943.717,-523.202 954.307,-523.535 946.236,-516.67 943.717,-523.202"/>
</g>
<!-- taskmanApiLogic -->
<g id="node10" class="node"><title>taskmanApiLogic</title>
<ellipse fill="#cceeff" stroke="black" cx="1001" cy="-644.051" rx="92.8835" ry="18"/>
<text text-anchor="middle" x="1001" y="-640.351" font-family="Times,serif" font-size="14.00">taskman&#45;api&#45;logic</text>
</g>
<!-- taskmanServerLogic&#45;&gt;taskmanApiLogic -->
<g id="edge12" class="edge"><title>taskmanServerLogic&#45;&gt;taskmanApiLogic</title>
<path fill="none" stroke="#cc0000" d="M810.312,-556.364C849.9,-574.361 914.144,-603.566 956.976,-623.037"/>
<polygon fill="#cc0000" stroke="#cc0000" points="955.754,-626.327 966.306,-627.279 958.651,-619.954 955.754,-626.327"/>
</g>
<!-- taskmanApiImpl&#45;&gt;baseDb -->
<g id="edge8" class="edge"><title>taskmanApiImpl&#45;&gt;baseDb</title>
<path fill="none" stroke="#cc0000" d="M956.579,-555.242C903.647,-575.2 820,-611.698 820,-643.051 820,-643.051 820,-643.051 820,-840.531 820,-930.748 508.309,-942.668 373.224,-943.598"/>
<polygon fill="#cc0000" stroke="#cc0000" points="373.017,-940.099 363.035,-943.649 373.052,-947.099 373.017,-940.099"/>
</g>
<!-- taskmanApiImpl&#45;&gt;baseTest -->
<g id="edge11" class="edge"><title>taskmanApiImpl&#45;&gt;baseTest</title>
<path fill="none" stroke="#111111" stroke-dasharray="5,2" d="M946.455,-554.033C930.308,-558.108 912.457,-562.471 896,-566.181 856.207,-575.152 844.581,-570.932 806,-584.181 626.484,-645.829 429.799,-758.521 343.197,-810.68"/>
<polygon fill="#111111" stroke="#111111" points="341.169,-807.816 334.422,-815.985 344.791,-813.807 341.169,-807.816"/>
<text text-anchor="middle" x="574" y="-692.721" font-family="Times,serif" font-size="14.00">test</text>
</g>
<!-- taskmanApiImpl&#45;&gt;taskmanDb -->
<g id="edge10" class="edge"><title>taskmanApiImpl&#45;&gt;taskmanDb</title>
<path fill="none" stroke="#111111" stroke-dasharray="5,2" d="M965.579,-522.39C911.101,-496.889 799.626,-453.369 704,-471.071 656.053,-479.946 604.337,-501.209 569.071,-517.66"/>
<polygon fill="#111111" stroke="#111111" points="567.566,-514.5 560.026,-521.943 570.562,-520.827 567.566,-514.5"/>
<text text-anchor="middle" x="718" y="-463.871" font-family="Times,serif" font-size="14.00">test</text>
</g>
<!-- taskmanApiImpl&#45;&gt;taskmanApiLogic -->
<g id="edge7" class="edge"><title>taskmanApiImpl&#45;&gt;taskmanApiLogic</title>
<path fill="none" stroke="#cc0000" d="M995.537,-557.304C993.566,-569.057 991.723,-585.061 993,-599.181 993.493,-604.631 994.324,-610.416 995.268,-615.936"/>
<polygon fill="#cc0000" stroke="#cc0000" points="991.884,-616.88 997.165,-626.065 998.764,-615.592 991.884,-616.88"/>
</g>
<!-- taskmanApiImpl&#45;&gt;taskmanApiLogic -->
<g id="edge9" class="edge"><title>taskmanApiImpl&#45;&gt;taskmanApiLogic</title>
<path fill="none" stroke="#111111" stroke-dasharray="5,2" d="M999.339,-557.739C999.649,-573.628 1000.11,-597.358 1000.47,-615.76"/>
<polygon fill="#111111" stroke="#111111" points="996.972,-615.95 1000.67,-625.88 1003.97,-615.814 996.972,-615.95"/>
<text text-anchor="middle" x="1026.5" y="-587.981" font-family="Times,serif" font-size="14.00">test&#45;lib</text>
</g>
<!-- taskmanApiLogic&#45;&gt;baseUtil -->
<g id="edge6" class="edge"><title>taskmanApiLogic&#45;&gt;baseUtil</title>
<path fill="none" stroke="#cc0000" d="M1029.79,-661.475C1056.45,-679.065 1092,-709.667 1092,-747.791 1092,-747.791 1092,-747.791 1092,-945.271 1092,-1018.94 563.547,-1035.38 354.587,-1039.01"/>
<polygon fill="#cc0000" stroke="#cc0000" points="354.521,-1035.51 344.581,-1039.17 354.638,-1042.5 354.521,-1035.51"/>
</g>
<!-- webapp -->
<g id="node11" class="node"><title>webapp</title>
<ellipse fill="#ffff80" stroke="black" cx="1668" cy="-214.35" rx="70.922" ry="26.7407"/>
<text text-anchor="middle" x="1668" y="-218.15" font-family="Times,serif" font-size="14.00">[aggregate]</text>
<text text-anchor="middle" x="1668" y="-203.15" font-family="Times,serif" font-size="14.00">webapp</text>
</g>
<!-- webappClientHome -->
<g id="node17" class="node"><title>webappClientHome</title>
<ellipse fill="#99ccee" stroke="black" cx="1971" cy="-467.571" rx="113.689" ry="26.7407"/>
<text text-anchor="middle" x="1971" y="-471.371" font-family="Times,serif" font-size="14.00">webapp&#45;client&#45;home</text>
<text text-anchor="middle" x="1971" y="-456.371" font-family="Times,serif" font-size="14.00">(JS)</text>
</g>
<!-- webapp&#45;&gt;webappClientHome -->
<g id="edge52" class="edge"><title>webapp&#45;&gt;webappClientHome</title>
<path fill="none" stroke="#aaaaaa" stroke-dasharray="5,2" d="M1696.51,-238.984C1751.21,-284.34 1870.95,-383.615 1932.61,-434.743"/>
<polygon fill="#aaaaaa" stroke="#aaaaaa" points="1940.56,-441.329 1929.99,-438.41 1936.71,-438.137 1932.86,-434.946 1932.86,-434.946 1932.86,-434.946 1936.71,-438.137 1935.73,-431.482 1940.56,-441.329 1940.56,-441.329"/>
</g>
<!-- webappClientWw -->
<g id="node19" class="node"><title>webappClientWw</title>
<ellipse fill="#99ccee" stroke="black" cx="1715" cy="-467.571" rx="103.476" ry="26.7407"/>
<text text-anchor="middle" x="1715" y="-471.371" font-family="Times,serif" font-size="14.00">webapp&#45;client&#45;ww</text>
<text text-anchor="middle" x="1715" y="-456.371" font-family="Times,serif" font-size="14.00">(JS)</text>
</g>
<!-- webapp&#45;&gt;webappClientWw -->
<g id="edge54" class="edge"><title>webapp&#45;&gt;webappClientWw</title>
<path fill="none" stroke="#aaaaaa" stroke-dasharray="5,2" d="M1672.85,-241.289C1681.28,-286.326 1698.63,-379.074 1708.23,-430.406"/>
<polygon fill="#aaaaaa" stroke="#aaaaaa" points="1710.1,-440.397 1703.84,-431.395 1709.18,-435.482 1708.26,-430.567 1708.26,-430.567 1708.26,-430.567 1709.18,-435.482 1712.69,-429.74 1710.1,-440.397 1710.1,-440.397"/>
</g>
<!-- webappClientProject -->
<g id="node20" class="node"><title>webappClientProject</title>
<ellipse fill="#99ccee" stroke="black" cx="1570" cy="-539.311" rx="122.159" ry="26.7407"/>
<text text-anchor="middle" x="1570" y="-543.111" font-family="Times,serif" font-size="14.00">webapp&#45;client&#45;project</text>
<text text-anchor="middle" x="1570" y="-528.111" font-family="Times,serif" font-size="14.00">(JS)</text>
</g>
<!-- webapp&#45;&gt;webappClientProject -->
<g id="edge51" class="edge"><title>webapp&#45;&gt;webappClientProject</title>
<path fill="none" stroke="#aaaaaa" stroke-dasharray="5,2" d="M1668.58,-241.577C1668.52,-267.111 1666.76,-306.807 1658,-339.96 1645.38,-387.728 1631.01,-395.53 1611,-440.701 1601.87,-461.307 1592.08,-484.569 1584.36,-503.214"/>
<polygon fill="#aaaaaa" stroke="#aaaaaa" points="1580.52,-512.504 1580.18,-501.544 1582.43,-507.883 1584.34,-503.261 1584.34,-503.261 1584.34,-503.261 1582.43,-507.883 1588.5,-504.979 1580.52,-512.504 1580.52,-512.504"/>
</g>
<!-- webappServer -->
<g id="node22" class="node"><title>webappServer</title>
<ellipse fill="#99ccee" stroke="black" cx="1570" cy="-305.09" rx="79.0865" ry="18"/>
<text text-anchor="middle" x="1570" y="-301.39" font-family="Times,serif" font-size="14.00">webapp&#45;server</text>
</g>
<!-- webapp&#45;&gt;webappServer -->
<g id="edge53" class="edge"><title>webapp&#45;&gt;webappServer</title>
<path fill="none" stroke="#aaaaaa" stroke-dasharray="5,2" d="M1641.48,-239.365C1627.32,-252.184 1609.97,-267.898 1595.91,-280.632"/>
<polygon fill="#aaaaaa" stroke="#aaaaaa" points="1588.47,-287.363 1592.86,-277.315 1592.18,-284.007 1595.89,-280.651 1595.89,-280.651 1595.89,-280.651 1592.18,-284.007 1598.91,-283.987 1588.47,-287.363 1588.47,-287.363"/>
</g>
<!-- webappMacro -->
<g id="node12" class="node"><title>webappMacro</title>
<ellipse fill="#99ccee" stroke="black" cx="1333" cy="-944.271" rx="86.0347" ry="26.7407"/>
<text text-anchor="middle" x="1333" y="-948.071" font-family="Times,serif" font-size="14.00">webapp&#45;macro</text>
<text text-anchor="middle" x="1333" y="-933.071" font-family="Times,serif" font-size="14.00">(Scala &amp; JS)</text>
</g>
<!-- webappMacro&#45;&gt;baseUtil -->
<g id="edge16" class="edge"><title>webappMacro&#45;&gt;baseUtil</title>
<path fill="none" stroke="#cc0000" d="M1269.43,-962.525C1224.21,-974.06 1161.82,-988.476 1106,-996.141 832.913,-1033.64 505.542,-1039.65 354.666,-1040.25"/>
<polygon fill="#cc0000" stroke="#cc0000" points="354.537,-1036.75 344.548,-1040.28 354.56,-1043.75 354.537,-1036.75"/>
</g>
<!-- webappBase -->
<g id="node13" class="node"><title>webappBase</title>
<ellipse fill="#99ccee" stroke="black" cx="1715" cy="-839.531" rx="77.5641" ry="26.7407"/>
<text text-anchor="middle" x="1715" y="-843.331" font-family="Times,serif" font-size="14.00">webapp&#45;base</text>
<text text-anchor="middle" x="1715" y="-828.331" font-family="Times,serif" font-size="14.00">(Scala &amp; JS)</text>
</g>
<!-- webappBase&#45;&gt;webappMacro -->
<g id="edge17" class="edge"><title>webappBase&#45;&gt;webappMacro</title>
<path fill="none" stroke="#cc0000" d="M1654.89,-856.697C1587.77,-874.751 1479.08,-903.981 1406.84,-923.412"/>
<polygon fill="#cc0000" stroke="#cc0000" points="1405.64,-920.109 1396.9,-926.086 1407.46,-926.869 1405.64,-920.109"/>
</g>
<!-- webappBaseMember -->
<g id="node14" class="node"><title>webappBaseMember</title>
<ellipse fill="#99ccee" stroke="black" cx="1715" cy="-748.791" rx="122.159" ry="26.7407"/>
<text text-anchor="middle" x="1715" y="-752.591" font-family="Times,serif" font-size="14.00">webapp&#45;base&#45;member</text>
<text text-anchor="middle" x="1715" y="-737.591" font-family="Times,serif" font-size="14.00">(Scala &amp; JS)</text>
</g>
<!-- webappBaseMember&#45;&gt;webappBase -->
<g id="edge21" class="edge"><title>webappBaseMember&#45;&gt;webappBase</title>
<path fill="none" stroke="#cc0000" d="M1715,-775.936C1715,-784.241 1715,-793.576 1715,-802.453"/>
<polygon fill="#cc0000" stroke="#cc0000" points="1711.5,-802.573 1715,-812.573 1718.5,-802.573 1711.5,-802.573"/>
</g>
<!-- webappServerLogic -->
<g id="node15" class="node"><title>webappServerLogic</title>
<ellipse fill="#99ccee" stroke="black" cx="1232" cy="-539.311" rx="113.689" ry="26.7407"/>
<text text-anchor="middle" x="1232" y="-543.111" font-family="Times,serif" font-size="14.00">webapp&#45;server&#45;logic</text>
<text text-anchor="middle" x="1232" y="-528.111" font-family="Times,serif" font-size="14.00">(Scala &amp; JS)</text>
</g>
<!-- webappServerLogic&#45;&gt;taskmanApiLogic -->
<g id="edge19" class="edge"><title>webappServerLogic&#45;&gt;taskmanApiLogic</title>
<path fill="none" stroke="#cc0000" d="M1180.16,-563.368C1139.81,-581.311 1084.4,-605.958 1045.93,-623.069"/>
<polygon fill="#cc0000" stroke="#cc0000" points="1044.24,-619.987 1036.53,-627.249 1047.09,-626.383 1044.24,-619.987"/>
</g>
<!-- webappServerLogic&#45;&gt;webappBase -->
<g id="edge18" class="edge"><title>webappServerLogic&#45;&gt;webappBase</title>
<path fill="none" stroke="#cc0000" d="M1255.54,-565.663C1282.53,-593.768 1329.01,-639.297 1375,-670.921 1460.61,-729.79 1490.72,-729.906 1584,-775.661 1609.29,-788.067 1637.45,-801.614 1661.15,-812.944"/>
<polygon fill="#cc0000" stroke="#cc0000" points="1659.81,-816.181 1670.34,-817.332 1662.83,-809.864 1659.81,-816.181"/>
</g>
<!-- webappBaseTest -->
<g id="node23" class="node"><title>webappBaseTest</title>
<ellipse fill="white" stroke="blue" cx="1535" cy="-644.051" rx="100.318" ry="26.7407"/>
<text text-anchor="middle" x="1535" y="-647.851" font-family="Times,serif" font-size="14.00">webapp&#45;base&#45;test</text>
<text text-anchor="middle" x="1535" y="-632.851" font-family="Times,serif" font-size="14.00">(Scala &amp; JS)</text>
</g>
<!-- webappServerLogic&#45;&gt;webappBaseTest -->
<g id="edge20" class="edge"><title>webappServerLogic&#45;&gt;webappBaseTest</title>
<path fill="none" stroke="#111111" stroke-dasharray="5,2" d="M1289.1,-562.575C1319,-573.979 1356.3,-587.816 1390,-599.181 1412.14,-606.648 1436.38,-614.216 1458.6,-620.916"/>
<polygon fill="#111111" stroke="#111111" points="1457.73,-624.309 1468.31,-623.83 1459.74,-617.604 1457.73,-624.309"/>
<text text-anchor="middle" x="1404" y="-587.981" font-family="Times,serif" font-size="14.00">test</text>
</g>
<!-- webappClientPublic -->
<g id="node16" class="node"><title>webappClientPublic</title>
<ellipse fill="#99ccee" stroke="black" cx="1911" cy="-539.311" rx="117.26" ry="26.7407"/>
<text text-anchor="middle" x="1911" y="-543.111" font-family="Times,serif" font-size="14.00">webapp&#45;client&#45;public</text>
<text text-anchor="middle" x="1911" y="-528.111" font-family="Times,serif" font-size="14.00">(JS)</text>
</g>
<!-- webappClientPublic&#45;&gt;webappBase -->
<g id="edge26" class="edge"><title>webappClientPublic&#45;&gt;webappBase</title>
<path fill="none" stroke="#cc0000" d="M1913.61,-566.412C1915.45,-593.197 1916.07,-635.802 1906,-670.921 1891.21,-722.491 1885.29,-739.131 1846,-775.661 1827.16,-793.174 1802.55,-806.709 1779.76,-816.657"/>
<polygon fill="#cc0000" stroke="#cc0000" points="1778.32,-813.465 1770.46,-820.566 1781.03,-819.918 1778.32,-813.465"/>
</g>
<!-- webappClientPublic&#45;&gt;webappBaseTest -->
<g id="edge27" class="edge"><title>webappClientPublic&#45;&gt;webappBaseTest</title>
<path fill="none" stroke="#111111" stroke-dasharray="5,2" d="M1845.1,-561.648C1808.19,-573.315 1761.22,-587.688 1719,-599.181 1716.33,-599.907 1665.52,-612.018 1617.97,-623.33"/>
<polygon fill="#111111" stroke="#111111" points="1617.12,-619.934 1608.2,-625.653 1618.74,-626.744 1617.12,-619.934"/>
<text text-anchor="middle" x="1780" y="-587.981" font-family="Times,serif" font-size="14.00">test</text>
</g>
<!-- webappClientHome&#45;&gt;webappBaseMember -->
<g id="edge24" class="edge"><title>webappClientHome&#45;&gt;webappBaseMember</title>
<path fill="none" stroke="#cc0000" d="M2049.38,-487.169C2061.08,-493.329 2071.65,-501.528 2079,-512.441 2092.34,-532.254 2090.73,-545.373 2079,-566.181 2025.94,-660.324 1906.27,-706.808 1818.57,-728.972"/>
<polygon fill="#cc0000" stroke="#cc0000" points="1817.72,-725.576 1808.85,-731.364 1819.39,-732.374 1817.72,-725.576"/>
</g>
<!-- webappClientHome&#45;&gt;webappBaseTest -->
<g id="edge25" class="edge"><title>webappClientHome&#45;&gt;webappBaseTest</title>
<path fill="none" stroke="#111111" stroke-dasharray="5,2" d="M2019.01,-491.971C2026.24,-497.645 2032.71,-504.437 2037,-512.441 2048.28,-533.491 2052.69,-548.174 2037,-566.181 1979.14,-632.575 1730.73,-601.875 1644,-617.181 1634.83,-618.799 1625.28,-620.717 1615.81,-622.765"/>
<polygon fill="#111111" stroke="#111111" points="1615,-619.36 1605.99,-624.94 1616.51,-626.195 1615,-619.36"/>
<text text-anchor="middle" x="2061" y="-535.611" font-family="Times,serif" font-size="14.00">test</text>
</g>
<!-- webappClientWwApi -->
<g id="node18" class="node"><title>webappClientWwApi</title>
<ellipse fill="#99ccee" stroke="black" cx="1775" cy="-644.051" rx="121.745" ry="26.7407"/>
<text text-anchor="middle" x="1775" y="-647.851" font-family="Times,serif" font-size="14.00">webapp&#45;client&#45;ww&#45;api</text>
<text text-anchor="middle" x="1775" y="-632.851" font-family="Times,serif" font-size="14.00">(JS)</text>
</g>
<!-- webappClientWwApi&#45;&gt;webappBaseMember -->
<g id="edge28" class="edge"><title>webappClientWwApi&#45;&gt;webappBaseMember</title>
<path fill="none" stroke="#cc0000" d="M1759.86,-670.977C1752.4,-683.753 1743.3,-699.338 1735.25,-713.123"/>
<polygon fill="#cc0000" stroke="#cc0000" points="1732.16,-711.473 1730.14,-721.874 1738.2,-715.003 1732.16,-711.473"/>
</g>
<!-- webappClientWw&#45;&gt;webappClientWwApi -->
<g id="edge29" class="edge"><title>webappClientWw&#45;&gt;webappClientWwApi</title>
<path fill="none" stroke="#cc0000" d="M1746.29,-493.601C1751.63,-499.257 1756.55,-505.625 1760,-512.441 1774.82,-541.749 1777.72,-579.376 1777.42,-606.71"/>
<polygon fill="#cc0000" stroke="#cc0000" points="1773.91,-606.919 1777.15,-617.007 1780.91,-607.103 1773.91,-606.919"/>
</g>
<!-- webappClientWw&#45;&gt;webappBaseTest -->
<g id="edge30" class="edge"><title>webappClientWw&#45;&gt;webappBaseTest</title>
<path fill="none" stroke="#111111" stroke-dasharray="5,2" d="M1717.69,-494.748C1718.47,-516.008 1716.23,-545.718 1701,-566.181 1681.07,-592.964 1649.51,-610.713 1619.24,-622.331"/>
<polygon fill="#111111" stroke="#111111" points="1617.67,-619.178 1609.48,-625.891 1620.07,-625.755 1617.67,-619.178"/>
<text text-anchor="middle" x="1731" y="-535.611" font-family="Times,serif" font-size="14.00">test</text>
</g>
<!-- webappClientProject&#45;&gt;webappClientWwApi -->
<g id="edge31" class="edge"><title>webappClientProject&#45;&gt;webappClientWwApi</title>
<path fill="none" stroke="#cc0000" d="M1617.55,-564.14C1647.58,-579.192 1686.55,-598.724 1718.21,-614.59"/>
<polygon fill="#cc0000" stroke="#cc0000" points="1716.85,-617.822 1727.36,-619.173 1719.98,-611.564 1716.85,-617.822"/>
</g>
<!-- webappClientProject&#45;&gt;webappBaseTest -->
<g id="edge32" class="edge"><title>webappClientProject&#45;&gt;webappBaseTest</title>
<path fill="none" stroke="#111111" stroke-dasharray="5,2" d="M1561.17,-566.236C1556.9,-578.769 1551.71,-594.005 1547.08,-607.593"/>
<polygon fill="#111111" stroke="#111111" points="1543.74,-606.539 1543.83,-617.133 1550.37,-608.796 1543.74,-606.539"/>
<text text-anchor="middle" x="1569" y="-587.981" font-family="Times,serif" font-size="14.00">test</text>
</g>
<!-- webappGen -->
<g id="node21" class="node"><title>webappGen</title>
<ellipse fill="#99ccee" stroke="black" cx="1464" cy="-395.831" rx="73.5782" ry="26.7407"/>
<text text-anchor="middle" x="1464" y="-399.631" font-family="Times,serif" font-size="14.00">webapp&#45;gen</text>
<text text-anchor="middle" x="1464" y="-384.631" font-family="Times,serif" font-size="14.00">(Scala &amp; JS)</text>
</g>
<!-- webappGen&#45;&gt;webappBaseMember -->
<g id="edge33" class="edge"><title>webappGen&#45;&gt;webappBaseMember</title>
<path fill="none" stroke="#cc0000" d="M1424.71,-418.675C1416.5,-424.845 1408.63,-432.227 1403,-440.701 1363.17,-500.616 1346.59,-531.149 1370,-599.181 1400.26,-687.121 1503.86,-723.202 1589.7,-737.911"/>
<polygon fill="#cc0000" stroke="#cc0000" points="1589.38,-741.404 1599.81,-739.56 1590.51,-734.496 1589.38,-741.404"/>
</g>
<!-- webappGen&#45;&gt;webappClientProject -->
<g id="edge34" class="edge"><title>webappGen&#45;&gt;webappClientProject</title>
<path fill="none" stroke="#111111" stroke-dasharray="5,2" d="M1482.95,-422.124C1500.18,-445.118 1525.73,-479.221 1544.7,-504.539"/>
<polygon fill="#111111" stroke="#111111" points="1542.06,-506.854 1550.86,-512.759 1547.66,-502.657 1542.06,-506.854"/>
<text text-anchor="middle" x="1548.5" y="-463.871" font-family="Times,serif" font-size="14.00">run</text>
</g>
<!-- webappGen&#45;&gt;webappBaseTest -->
<g id="edge35" class="edge"><title>webappGen&#45;&gt;webappBaseTest</title>
<path fill="none" stroke="#111111" stroke-dasharray="5,2" d="M1444.19,-421.937C1419.77,-456.173 1384.55,-518.671 1411,-566.181 1423.51,-588.647 1445.59,-605.383 1467.69,-617.401"/>
<polygon fill="#111111" stroke="#111111" points="1466.31,-620.627 1476.8,-622.102 1469.52,-614.406 1466.31,-620.627"/>
<text text-anchor="middle" x="1425" y="-535.611" font-family="Times,serif" font-size="14.00">test</text>
</g>
<!-- webappServer&#45;&gt;baseDb -->
<g id="edge39" class="edge"><title>webappServer&#45;&gt;baseDb</title>
<path fill="none" stroke="#cc0000" d="M1640,-313.582C1769.53,-329.044 2038.52,-369.171 2094,-440.701 2137.84,-497.22 2120.61,-552.985 2066,-599.181 2006.5,-649.514 1980.96,-649.599 1906,-670.921 1767.13,-710.423 1726.03,-687.992 1584,-713.921 1225.8,-779.312 1145.45,-841.27 786,-899.401 638.708,-923.221 463.417,-935.263 372.878,-940.292"/>
<polygon fill="#cc0000" stroke="#cc0000" points="372.588,-936.803 362.794,-940.843 372.97,-943.792 372.588,-936.803"/>
</g>
<!-- webappServer&#45;&gt;taskmanApiImpl -->
<g id="edge36" class="edge"><title>webappServer&#45;&gt;taskmanApiImpl</title>
<path fill="none" stroke="#cc0000" d="M1537.07,-321.483C1522.07,-327.984 1503.92,-335.147 1487,-339.96 1412.44,-361.179 1386.49,-338.966 1315,-368.96 1227.41,-405.711 1227,-452.052 1142,-494.441 1118.41,-506.205 1091.04,-515.538 1066.6,-522.517"/>
<polygon fill="#cc0000" stroke="#cc0000" points="1065.39,-519.222 1056.69,-525.268 1067.26,-525.968 1065.39,-519.222"/>
</g>
<!-- webappServer&#45;&gt;webappServerLogic -->
<g id="edge37" class="edge"><title>webappServer&#45;&gt;webappServerLogic</title>
<path fill="none" stroke="#cc0000" d="M1535.22,-321.375C1520.5,-327.558 1503.06,-334.508 1487,-339.96 1440.75,-355.66 1422.43,-343.093 1381,-368.96 1325.49,-403.618 1278.96,-465.187 1253.34,-503.768"/>
<polygon fill="#cc0000" stroke="#cc0000" points="1250.13,-502.291 1247.59,-512.578 1255.99,-506.118 1250.13,-502.291"/>
</g>
<!-- webappServer&#45;&gt;webappClientPublic -->
<g id="edge40" class="edge"><title>webappServer&#45;&gt;webappClientPublic</title>
<path fill="none" stroke="#cc0000" stroke-dasharray="5,2" d="M1593.53,-322.542C1611.19,-335.021 1635.86,-352.737 1657,-368.96 1687.01,-391.99 1688.69,-406.782 1723,-422.701 1762.38,-440.969 1783.94,-415.103 1819,-440.701 1840.92,-456.704 1829.93,-474.193 1848,-494.441 1852.19,-499.139 1856.99,-503.597 1862.01,-507.744"/>
<polygon fill="#cc0000" stroke="#cc0000" points="1860.01,-510.62 1870.05,-513.995 1864.3,-505.094 1860.01,-510.62"/>
</g>
<!-- webappServer&#45;&gt;webappClientHome -->
<g id="edge41" class="edge"><title>webappServer&#45;&gt;webappClientHome</title>
<path fill="none" stroke="#cc0000" stroke-dasharray="5,2" d="M1618.56,-319.378C1650.27,-329.593 1691.48,-345.895 1723,-368.96 1748.14,-387.359 1741.33,-406.597 1768,-422.701 1777.64,-428.519 1826.17,-439.099 1873.36,-448.411"/>
<polygon fill="#cc0000" stroke="#cc0000" points="1872.91,-451.889 1883.4,-450.376 1874.25,-445.019 1872.91,-451.889"/>
</g>
<!-- webappServer&#45;&gt;webappClientWw -->
<g id="edge43" class="edge"><title>webappServer&#45;&gt;webappClientWw</title>
<path fill="none" stroke="#cc0000" stroke-dasharray="5,2" d="M1585.24,-322.961C1608.87,-349.111 1654.77,-399.914 1685.16,-433.544"/>
<polygon fill="#cc0000" stroke="#cc0000" points="1682.85,-436.206 1692.15,-441.28 1688.04,-431.513 1682.85,-436.206"/>
</g>
<!-- webappServer&#45;&gt;webappClientProject -->
<g id="edge42" class="edge"><title>webappServer&#45;&gt;webappClientProject</title>
<path fill="none" stroke="#cc0000" stroke-dasharray="5,2" d="M1570,-323.166C1570,-360.716 1570,-451.161 1570,-502.018"/>
<polygon fill="#cc0000" stroke="#cc0000" points="1566.5,-502.236 1570,-512.236 1573.5,-502.236 1566.5,-502.236"/>
</g>
<!-- webappServer&#45;&gt;webappGen -->
<g id="edge38" class="edge"><title>webappServer&#45;&gt;webappGen</title>
<path fill="none" stroke="#cc0000" d="M1550.06,-322.782C1536.15,-334.431 1517.17,-350.319 1500.57,-364.211"/>
<polygon fill="#cc0000" stroke="#cc0000" points="1498.07,-361.741 1492.65,-370.844 1502.57,-367.108 1498.07,-361.741"/>
</g>
<!-- webappBaseTest&#45;&gt;baseTest -->
<g id="edge22" class="edge"><title>webappBaseTest&#45;&gt;baseTest</title>
<path fill="none" stroke="#111111" d="M1449.98,-658.35C1221.08,-694.152 594.371,-792.176 375.037,-826.482"/>
<polygon fill="#111111" stroke="#111111" points="374.243,-823.063 364.904,-828.067 375.325,-829.979 374.243,-823.063"/>
</g>
<!-- webappBaseTest&#45;&gt;webappBaseMember -->
<g id="edge23" class="edge"><title>webappBaseTest&#45;&gt;webappBaseMember</title>
<path fill="none" stroke="#111111" d="M1576.3,-668.622C1602.24,-683.429 1635.91,-702.647 1663.58,-718.44"/>
<polygon fill="#111111" stroke="#111111" points="1661.91,-721.52 1672.33,-723.437 1665.38,-715.441 1661.91,-721.52"/>
</g>
<!-- taskman -->
<g id="node24" class="node"><title>taskman</title>
<ellipse fill="#ffff80" stroke="black" cx="999" cy="-305.09" rx="70.922" ry="26.7407"/>
<text text-anchor="middle" x="999" y="-308.89" font-family="Times,serif" font-size="14.00">[aggregate]</text>
<text text-anchor="middle" x="999" y="-293.89" font-family="Times,serif" font-size="14.00">taskman</text>
</g>
<!-- taskman&#45;&gt;taskmanServerImpl -->
<g id="edge50" class="edge"><title>taskman&#45;&gt;taskmanServerImpl</title>
<path fill="none" stroke="#aaaaaa" stroke-dasharray="5,2" d="M951.434,-325.019C914.329,-339.784 862.956,-360.227 825.392,-375.175"/>
<polygon fill="#aaaaaa" stroke="#aaaaaa" points="815.673,-379.043 823.301,-371.165 820.319,-377.194 824.965,-375.346 824.965,-375.346 824.965,-375.346 820.319,-377.194 826.628,-379.527 815.673,-379.043 815.673,-379.043"/>
</g>
<!-- taskman&#45;&gt;taskmanApiImpl -->
<g id="edge49" class="edge"><title>taskman&#45;&gt;taskmanApiImpl</title>
<path fill="none" stroke="#aaaaaa" stroke-dasharray="5,2" d="M999,-332.278C999,-376.548 999,-465.758 999,-510.865"/>
<polygon fill="#aaaaaa" stroke="#aaaaaa" points="999,-521.073 994.5,-511.073 999,-516.073 999,-511.073 999,-511.073 999,-511.073 999,-516.073 1003.5,-511.073 999,-521.073 999,-521.073"/>
</g>
<!-- benchmark -->
<g id="node25" class="node"><title>benchmark</title>
<ellipse fill="#ffffdd" stroke="black" cx="221" cy="-117.61" rx="70.922" ry="26.7407"/>
<text text-anchor="middle" x="221" y="-121.41" font-family="Times,serif" font-size="14.00">[aggregate]</text>
<text text-anchor="middle" x="221" y="-106.41" font-family="Times,serif" font-size="14.00">benchmark</text>
</g>
<!-- benchmarkJvm -->
<g id="node26" class="node"><title>benchmarkJvm</title>
<ellipse fill="#ffcccc" stroke="black" cx="286" cy="-214.35" rx="86.3847" ry="18"/>
<text text-anchor="middle" x="286" y="-210.65" font-family="Times,serif" font-size="14.00">benchmark JVM</text>
</g>
<!-- benchmark&#45;&gt;benchmarkJvm -->
<g id="edge59" class="edge"><title>benchmark&#45;&gt;benchmarkJvm</title>
<path fill="none" stroke="#aaaaaa" stroke-dasharray="5,2" d="M238.419,-143.999C247.735,-157.577 259.175,-174.252 268.503,-187.848"/>
<polygon fill="#aaaaaa" stroke="#aaaaaa" points="274.284,-196.274 264.916,-190.574 271.456,-192.151 268.627,-188.028 268.627,-188.028 268.627,-188.028 271.456,-192.151 272.337,-185.482 274.284,-196.274 274.284,-196.274"/>
</g>
<!-- benchmarkJs -->
<g id="node27" class="node"><title>benchmarkJs</title>
<ellipse fill="#ffcccc" stroke="black" cx="105" cy="-214.35" rx="76.8869" ry="18"/>
<text text-anchor="middle" x="105" y="-210.65" font-family="Times,serif" font-size="14.00">benchmark JS</text>
</g>
<!-- benchmark&#45;&gt;benchmarkJs -->
<g id="edge60" class="edge"><title>benchmark&#45;&gt;benchmarkJs</title>
<path fill="none" stroke="#aaaaaa" stroke-dasharray="5,2" d="M192.028,-142.273C173.987,-157.006 150.899,-175.863 133.038,-190.451"/>
<polygon fill="#aaaaaa" stroke="#aaaaaa" points="125.236,-196.823 130.134,-187.012 129.108,-193.66 132.981,-190.498 132.981,-190.498 132.981,-190.498 129.108,-193.66 135.827,-193.983 125.236,-196.823 125.236,-196.823"/>
</g>
<!-- benchmarkJvm&#45;&gt;webappServer -->
<g id="edge46" class="edge"><title>benchmarkJvm&#45;&gt;webappServer</title>
<path fill="none" stroke="#cc0000" d="M371.715,-217.058C609.239,-222.234 1272.49,-239.801 1487,-278.22 1497.92,-280.176 1509.41,-283.141 1520.25,-286.375"/>
<polygon fill="#cc0000" stroke="#cc0000" points="1519.39,-289.774 1529.98,-289.399 1521.47,-283.089 1519.39,-289.774"/>
</g>
<!-- benchmarkShared -->
<g id="node28" class="node"><title>benchmarkShared</title>
<ellipse fill="#ffcccc" stroke="black" cx="248" cy="-305.09" rx="69.0935" ry="26.7407"/>
<text text-anchor="middle" x="248" y="-308.89" font-family="Times,serif" font-size="14.00">benchmark</text>
<text text-anchor="middle" x="248" y="-293.89" font-family="Times,serif" font-size="14.00">base</text>
</g>
<!-- benchmarkJvm&#45;&gt;benchmarkShared -->
<g id="edge44" class="edge"><title>benchmarkJvm&#45;&gt;benchmarkShared</title>
<path fill="none" stroke="#cc0000" d="M278.673,-232.46C274.239,-242.815 268.42,-256.404 263.044,-268.959"/>
<polygon fill="#cc0000" stroke="#cc0000" points="259.768,-267.719 259.049,-278.289 266.203,-270.474 259.768,-267.719"/>
</g>
<!-- benchmarkJs&#45;&gt;webappClientProject -->
<g id="edge47" class="edge"><title>benchmarkJs&#45;&gt;webappClientProject</title>
<path fill="none" stroke="#cc0000" d="M110.954,-232.634C120.408,-258.245 140.818,-306.811 170,-339.96 249.426,-430.186 277.619,-457.482 392,-494.441 447.569,-512.396 1384.95,-506.086 1443,-512.441 1454.45,-513.694 1466.39,-515.479 1478.18,-517.535"/>
<polygon fill="#cc0000" stroke="#cc0000" points="1477.56,-520.98 1488.03,-519.319 1478.81,-514.093 1477.56,-520.98"/>
</g>
<!-- benchmarkJs&#45;&gt;benchmarkShared -->
<g id="edge45" class="edge"><title>benchmarkJs&#45;&gt;benchmarkShared</title>
<path fill="none" stroke="#cc0000" d="M130.896,-231.42C151.182,-244.009 179.874,-261.814 203.78,-276.649"/>
<polygon fill="#cc0000" stroke="#cc0000" points="202.004,-279.666 212.347,-281.965 205.695,-273.718 202.004,-279.666"/>
</g>
<!-- utils -->
<g id="node29" class="node"><title>utils</title>
<ellipse fill="#ffffdd" stroke="black" cx="341" cy="-117.61" rx="31.3957" ry="18"/>
<text text-anchor="middle" x="341" y="-113.91" font-family="Times,serif" font-size="14.00">utils</text>
</g>
<!-- utils&#45;&gt;webappBase -->
<g id="edge48" class="edge"><title>utils&#45;&gt;webappBase</title>
<path fill="none" stroke="#cc0000" d="M372.231,-118.743C567.208,-119.709 1613.4,-126.949 1748,-171.48 1968.05,-244.282 2178,-234.786 2178,-466.571 2178,-466.571 2178,-466.571 2178,-749.791 2178,-825.27 1937.66,-838.051 1803.3,-839.299"/>
<polygon fill="#cc0000" stroke="#cc0000" points="1802.99,-835.801 1793.02,-839.374 1803.04,-842.801 1802.99,-835.801"/>
</g>
<!-- root -->
<g id="node30" class="node"><title>root</title>
<ellipse fill="#cccccc" stroke="black" cx="341" cy="-26.8701" rx="70.922" ry="26.7407"/>
<text text-anchor="middle" x="341" y="-30.6701" font-family="Times,serif" font-size="14.00">[aggregate]</text>
<text text-anchor="middle" x="341" y="-15.6701" font-family="Times,serif" font-size="14.00">root</text>
</g>
<!-- root&#45;&gt;base -->
<g id="edge61" class="edge"><title>root&#45;&gt;base</title>
<path fill="none" stroke="#aaaaaa" stroke-dasharray="5,2" d="M271.295,-32.1451C188.064,-38.511 55.1677,-53.0656 16,-82.7401 2.72997,-92.7939 0,-99.9617 0,-116.61 0,-116.61 0,-116.61 0,-540.311 0,-633.874 105.977,-695.341 175.595,-725.625"/>
<polygon fill="#aaaaaa" stroke="#aaaaaa" points="185.163,-729.692 174.199,-729.922 180.561,-727.736 175.959,-725.78 175.959,-725.78 175.959,-725.78 180.561,-727.736 177.72,-721.639 185.163,-729.692 185.163,-729.692"/>
</g>
<!-- root&#45;&gt;webapp -->
<g id="edge62" class="edge"><title>root&#45;&gt;webapp</title>
<path fill="none" stroke="#aaaaaa" stroke-dasharray="5,2" d="M411.719,-28.5136C547.072,-30.4994 851.9,-38.6108 1106,-71.7401 1325.08,-100.304 1385.88,-94.5624 1593,-171.48 1603.38,-175.336 1614.05,-180.478 1623.97,-185.836"/>
<polygon fill="#aaaaaa" stroke="#aaaaaa" points="1632.84,-190.787 1621.91,-189.841 1628.47,-188.349 1624.1,-185.912 1624.1,-185.912 1624.1,-185.912 1628.47,-188.349 1626.3,-181.982 1632.84,-190.787 1632.84,-190.787"/>
</g>
<!-- root&#45;&gt;taskman -->
<g id="edge63" class="edge"><title>root&#45;&gt;taskman</title>
<path fill="none" stroke="#aaaaaa" stroke-dasharray="5,2" d="M387.269,-47.2933C505.016,-96.722 815.706,-227.146 943.197,-280.665"/>
<polygon fill="#aaaaaa" stroke="#aaaaaa" points="952.782,-284.689 941.819,-284.967 948.172,-282.753 943.561,-280.818 943.561,-280.818 943.561,-280.818 948.172,-282.753 945.303,-276.669 952.782,-284.689 952.782,-284.689"/>
</g>
<!-- root&#45;&gt;benchmark -->
<g id="edge64" class="edge"><title>root&#45;&gt;benchmark</title>
<path fill="none" stroke="#aaaaaa" stroke-dasharray="5,2" d="M309.471,-51.1855C294.451,-62.2927 276.333,-75.6916 260.414,-87.4635"/>
<polygon fill="#aaaaaa" stroke="#aaaaaa" points="252.318,-93.4505 257.683,-83.8864 256.338,-90.4775 260.358,-87.5046 260.358,-87.5046 260.358,-87.5046 256.338,-90.4775 263.034,-91.1228 252.318,-93.4505 252.318,-93.4505"/>
</g>
<!-- root&#45;&gt;utils -->
<g id="edge65" class="edge"><title>root&#45;&gt;utils</title>
<path fill="none" stroke="#aaaaaa" stroke-dasharray="5,2" d="M341,-54.0151C341,-65.1731 341,-78.1924 341,-89.4587"/>
<polygon fill="#aaaaaa" stroke="#aaaaaa" points="341,-99.6052 336.5,-89.6051 341,-94.6052 341,-89.6052 341,-89.6052 341,-89.6052 341,-94.6052 345.5,-89.6052 341,-99.6052 341,-99.6052"/>
</g>
</g>
</svg>
