<?xml version="1.0" encoding="UTF-8" standalone="no"?>
<!DOCTYPE svg PUBLIC "-//W3C//DTD SVG 1.1//EN"
 "http://www.w3.org/Graphics/SVG/1.1/DTD/svg11.dtd">
<!-- Generated by graphviz version 2.38.0 (20140413.2041)
 -->
<!-- Title: G Pages: 1 -->
<svg width="2490pt" height="1078pt"
 viewBox="0.00 0.00 2490.00 1077.88" xmlns="http://www.w3.org/2000/svg" xmlns:xlink="http://www.w3.org/1999/xlink">
<g id="graph0" class="graph" transform="scale(1 1) rotate(0) translate(4 1073.88)">
<title>G</title>
<polygon fill="white" stroke="none" points="-4,4 -4,-1073.88 2486,-1073.88 2486,4 -4,4"/>
<g id="clust1" class="cluster"><title>cluster_base</title>
<polygon fill="#f4fff4" stroke="black" points="2238,-609.181 2238,-1061.88 2462,-1061.88 2462,-609.181 2238,-609.181"/>
</g>
<g id="clust2" class="cluster"><title>cluster_t</title>
<polygon fill="#eeeeff" stroke="black" points="410,-171.48 410,-882.401 2168,-882.401 2168,-171.48 410,-171.48"/>
</g>
<g id="clust3" class="cluster"><title>cluster_ts</title>
<polygon fill="white" stroke="black" points="1436,-369.831 1436,-565.311 1932,-565.311 1932,-369.831 1436,-369.831"/>
</g>
<g id="clust4" class="cluster"><title>cluster_ta</title>
<polygon fill="white" stroke="black" points="1958,-513.311 1958,-670.051 2160,-670.051 2160,-513.311 1958,-513.311"/>
</g>
<g id="clust5" class="cluster"><title>cluster_w</title>
<polygon fill="white" stroke="black" points="418,-179.48 418,-874.401 1428,-874.401 1428,-179.48 418,-179.48"/>
</g>
<g id="clust6" class="cluster"><title>cluster_supp</title>
<polygon fill="#fff2f2" stroke="black" points="20,-82.7401 20,-339.96 380,-339.96 380,-82.7401 20,-82.7401"/>
</g>
<!-- base -->
<g id="node1" class="node"><title>base</title>
<ellipse fill="#cccccc" stroke="black" cx="2383" cy="-644.051" rx="70.922" ry="26.7407"/>
<text text-anchor="middle" x="2383" y="-647.851" font-family="Times,serif" font-size="14.00">[aggregate]</text>
<text text-anchor="middle" x="2383" y="-632.851" font-family="Times,serif" font-size="14.00">base</text>
</g>
<!-- baseMacro -->
<g id="node2" class="node"><title>baseMacro</title>
<ellipse fill="#bbffbb" stroke="black" cx="2365" cy="-1027.01" rx="73.5782" ry="26.7407"/>
<text text-anchor="middle" x="2365" y="-1030.81" font-family="Times,serif" font-size="14.00">base&#45;macro</text>
<text text-anchor="middle" x="2365" y="-1015.81" font-family="Times,serif" font-size="14.00">(Scala &amp; JS)</text>
</g>
<!-- base&#45;&gt;baseMacro -->
<g id="edge58" class="edge"><title>base&#45;&gt;baseMacro</title>
<path fill="none" stroke="#aaaaaa" stroke-dasharray="5,2" d="M2415.13,-668.031C2433.53,-684.071 2453,-707.301 2453,-733.791 2453,-733.791 2453,-733.791 2453,-937.271 2453,-962.825 2434.37,-983.648 2414.26,-998.685"/>
<polygon fill="#aaaaaa" stroke="#aaaaaa" points="2405.91,-1004.57 2411.49,-995.131 2410,-1001.69 2414.08,-998.81 2414.08,-998.81 2414.08,-998.81 2410,-1001.69 2416.68,-1002.49 2405.91,-1004.57 2405.91,-1004.57"/>
</g>
<!-- baseUtil -->
<g id="node3" class="node"><title>baseUtil</title>
<ellipse fill="#bbffbb" stroke="black" cx="2340" cy="-936.271" rx="73.5782" ry="26.7407"/>
<text text-anchor="middle" x="2340" y="-940.071" font-family="Times,serif" font-size="14.00">base&#45;util</text>
<text text-anchor="middle" x="2340" y="-925.071" font-family="Times,serif" font-size="14.00">(Scala &amp; JS)</text>
</g>
<!-- base&#45;&gt;baseUtil -->
<g id="edge55" class="edge"><title>base&#45;&gt;baseUtil</title>
<path fill="none" stroke="#aaaaaa" stroke-dasharray="5,2" d="M2399.99,-670.243C2406.54,-681.315 2413.34,-694.772 2417,-707.921 2437.82,-782.653 2459.13,-814.285 2422,-882.401 2415.92,-893.55 2406.37,-902.703 2395.91,-910.073"/>
<polygon fill="#aaaaaa" stroke="#aaaaaa" points="2387.37,-915.605 2393.31,-906.392 2391.56,-912.887 2395.76,-910.169 2395.76,-910.169 2395.76,-910.169 2391.56,-912.887 2398.21,-913.946 2387.37,-915.605 2387.37,-915.605"/>
</g>
<!-- baseDb -->
<g id="node4" class="node"><title>baseDb</title>
<ellipse fill="#bbffbb" stroke="black" cx="2362" cy="-839.531" rx="50.8235" ry="26.7407"/>
<text text-anchor="middle" x="2362" y="-843.331" font-family="Times,serif" font-size="14.00">base&#45;db</text>
<text text-anchor="middle" x="2362" y="-828.331" font-family="Times,serif" font-size="14.00">(JVM)</text>
</g>
<!-- base&#45;&gt;baseDb -->
<g id="edge56" class="edge"><title>base&#45;&gt;baseDb</title>
<path fill="none" stroke="#aaaaaa" stroke-dasharray="5,2" d="M2395.65,-670.697C2408.91,-701.344 2425.57,-753.628 2408,-794.661 2405.66,-800.12 2402.28,-805.223 2398.38,-809.877"/>
<polygon fill="#aaaaaa" stroke="#aaaaaa" points="2391.45,-817.272 2395.01,-806.899 2394.87,-813.624 2398.29,-809.976 2398.29,-809.976 2398.29,-809.976 2394.87,-813.624 2401.57,-813.054 2391.45,-817.272 2391.45,-817.272"/>
</g>
<!-- baseTest -->
<g id="node5" class="node"><title>baseTest</title>
<ellipse fill="white" stroke="darkgreen" cx="2320" cy="-734.791" rx="73.5782" ry="26.7407"/>
<text text-anchor="middle" x="2320" y="-738.591" font-family="Times,serif" font-size="14.00">base&#45;test</text>
<text text-anchor="middle" x="2320" y="-723.591" font-family="Times,serif" font-size="14.00">(Scala &amp; JS)</text>
</g>
<!-- base&#45;&gt;baseTest -->
<g id="edge57" class="edge"><title>base&#45;&gt;baseTest</title>
<path fill="none" stroke="#aaaaaa" stroke-dasharray="5,2" d="M2365.12,-670.243C2358.46,-679.61 2350.81,-690.39 2343.72,-700.379"/>
<polygon fill="#aaaaaa" stroke="#aaaaaa" points="2337.93,-708.536 2340.05,-697.777 2340.82,-704.459 2343.72,-700.382 2343.72,-700.382 2343.72,-700.382 2340.82,-704.459 2347.39,-702.987 2337.93,-708.536 2337.93,-708.536"/>
</g>
<!-- baseUtil&#45;&gt;baseMacro -->
<g id="edge1" class="edge"><title>baseUtil&#45;&gt;baseMacro</title>
<path fill="none" stroke="#cc0000" d="M2347.37,-963.416C2349.73,-971.811 2352.39,-981.26 2354.92,-990.222"/>
<polygon fill="#cc0000" stroke="#cc0000" points="2351.61,-991.377 2357.69,-1000.05 2358.34,-989.479 2351.61,-991.377"/>
</g>
<!-- baseDb&#45;&gt;baseUtil -->
<g id="edge2" class="edge"><title>baseDb&#45;&gt;baseUtil</title>
<path fill="none" stroke="#cc0000" d="M2355.99,-866.419C2353.61,-876.654 2350.84,-888.586 2348.28,-899.615"/>
<polygon fill="#cc0000" stroke="#cc0000" points="2344.86,-898.882 2346,-909.414 2351.68,-900.465 2344.86,-898.882"/>
</g>
<!-- baseTest&#45;&gt;baseUtil -->
<g id="edge3" class="edge"><title>baseTest&#45;&gt;baseUtil</title>
<path fill="none" stroke="#111111" d="M2310.31,-761.582C2300.6,-791.368 2288.83,-841.515 2302,-882.401 2304.17,-889.124 2307.54,-895.715 2311.4,-901.838"/>
<polygon fill="#111111" stroke="#111111" points="2308.77,-904.185 2317.32,-910.434 2314.53,-900.213 2308.77,-904.185"/>
</g>
<!-- baseTest&#45;&gt;baseDb -->
<g id="edge4" class="edge"><title>baseTest&#45;&gt;baseDb</title>
<path fill="none" stroke="#111111" stroke-dasharray="5,2" d="M2330.5,-761.587C2334.7,-771.878 2339.57,-783.832 2344,-794.661 2345.18,-797.54 2346.4,-800.525 2347.63,-803.521"/>
<polygon fill="#111111" stroke="#111111" points="2344.49,-805.093 2351.52,-813.018 2350.97,-802.437 2344.49,-805.093"/>
<text text-anchor="middle" x="2376" y="-783.461" font-family="Times,serif" font-size="14.00">provided</text>
</g>
<!-- taskmanDb -->
<g id="node6" class="node"><title>taskmanDb</title>
<ellipse fill="#aaaaff" stroke="black" cx="1802" cy="-539.311" rx="122.379" ry="18"/>
<text text-anchor="middle" x="1802" y="-535.611" font-family="Times,serif" font-size="14.00">taskman&#45;server&#45;schema</text>
</g>
<!-- taskmanDb&#45;&gt;baseDb -->
<g id="edge5" class="edge"><title>taskmanDb&#45;&gt;baseDb</title>
<path fill="none" stroke="#cc0000" d="M1874.11,-553.845C1899.32,-558.24 1927.85,-562.84 1954,-566.181 2000.46,-572.115 2127.9,-554.336 2164,-584.181 2227.16,-636.399 2171.04,-691.87 2214,-761.661 2234.17,-794.427 2273.27,-813.888 2306.23,-825.029"/>
<polygon fill="#cc0000" stroke="#cc0000" points="2305.19,-828.372 2315.78,-828.09 2307.32,-821.706 2305.19,-828.372"/>
</g>
<!-- taskmanServerImpl -->
<g id="node7" class="node"><title>taskmanServerImpl</title>
<ellipse fill="#aaaaff" stroke="black" cx="1802" cy="-395.831" rx="106.681" ry="18"/>
<text text-anchor="middle" x="1802" y="-392.131" font-family="Times,serif" font-size="14.00">taskman&#45;server&#45;impl</text>
</g>
<!-- taskmanServerImpl&#45;&gt;taskmanDb -->
<g id="edge15" class="edge"><title>taskmanServerImpl&#45;&gt;taskmanDb</title>
<path fill="none" stroke="#cc0000" d="M1802,-413.896C1802,-438.009 1802,-482.306 1802,-511.018"/>
<polygon fill="#cc0000" stroke="#cc0000" points="1798.5,-511.184 1802,-521.184 1805.5,-511.184 1798.5,-511.184"/>
</g>
<!-- taskmanServerLogic -->
<g id="node8" class="node"><title>taskmanServerLogic</title>
<ellipse fill="#aaaaff" stroke="black" cx="1553" cy="-539.311" rx="108.581" ry="18"/>
<text text-anchor="middle" x="1553" y="-535.611" font-family="Times,serif" font-size="14.00">taskman&#45;server&#45;logic</text>
</g>
<!-- taskmanServerImpl&#45;&gt;taskmanServerLogic -->
<g id="edge13" class="edge"><title>taskmanServerImpl&#45;&gt;taskmanServerLogic</title>
<path fill="none" stroke="#cc0000" d="M1772.95,-413.337C1727.78,-439.001 1640.72,-488.467 1590.75,-516.863"/>
<polygon fill="#cc0000" stroke="#cc0000" points="1588.83,-513.926 1581.87,-521.909 1592.29,-520.012 1588.83,-513.926"/>
</g>
<!-- taskmanApiImpl -->
<g id="node9" class="node"><title>taskmanApiImpl</title>
<ellipse fill="#cceeff" stroke="black" cx="2061" cy="-539.311" rx="90.9839" ry="18"/>
<text text-anchor="middle" x="2061" y="-535.611" font-family="Times,serif" font-size="14.00">taskman&#45;api&#45;impl</text>
</g>
<!-- taskmanServerImpl&#45;&gt;taskmanApiImpl -->
<g id="edge14" class="edge"><title>taskmanServerImpl&#45;&gt;taskmanApiImpl</title>
<path fill="none" stroke="#cc0000" d="M1826.71,-413.476C1857.47,-433.839 1911.92,-468.765 1961,-494.441 1977.57,-503.109 1996.22,-511.611 2012.88,-518.787"/>
<polygon fill="#cc0000" stroke="#cc0000" points="2011.86,-522.157 2022.43,-522.851 2014.6,-515.715 2011.86,-522.157"/>
</g>
<!-- taskmanApiLogic -->
<g id="node10" class="node"><title>taskmanApiLogic</title>
<ellipse fill="#cceeff" stroke="black" cx="2059" cy="-644.051" rx="92.8835" ry="18"/>
<text text-anchor="middle" x="2059" y="-640.351" font-family="Times,serif" font-size="14.00">taskman&#45;api&#45;logic</text>
</g>
<!-- taskmanServerLogic&#45;&gt;taskmanApiLogic -->
<g id="edge12" class="edge"><title>taskmanServerLogic&#45;&gt;taskmanApiLogic</title>
<path fill="none" stroke="#cc0000" d="M1615.11,-554.174C1633.12,-558.128 1652.83,-562.39 1671,-566.181 1780.21,-588.968 1907.06,-613.79 1985.19,-628.888"/>
<polygon fill="#cc0000" stroke="#cc0000" points="1984.93,-632.402 1995.41,-630.862 1986.25,-625.529 1984.93,-632.402"/>
</g>
<!-- taskmanApiImpl&#45;&gt;baseDb -->
<g id="edge8" class="edge"><title>taskmanApiImpl&#45;&gt;baseDb</title>
<path fill="none" stroke="#cc0000" d="M2133.72,-550.292C2155.75,-556.672 2178.26,-567.111 2194,-584.181 2249.02,-643.845 2189.28,-696.012 2237,-761.661 2255.68,-787.356 2285.82,-806.256 2311.82,-818.886"/>
<polygon fill="#cc0000" stroke="#cc0000" points="2310.64,-822.198 2321.18,-823.256 2313.6,-815.855 2310.64,-822.198"/>
</g>
<!-- taskmanApiImpl&#45;&gt;baseTest -->
<g id="edge11" class="edge"><title>taskmanApiImpl&#45;&gt;baseTest</title>
<path fill="none" stroke="#111111" stroke-dasharray="5,2" d="M2143.63,-547.037C2174.05,-553.009 2207.11,-564.021 2232,-584.181 2265.43,-611.265 2252.85,-634.031 2275,-670.921 2280.92,-680.789 2287.93,-691.1 2294.63,-700.45"/>
<polygon fill="#111111" stroke="#111111" points="2291.93,-702.701 2300.65,-708.727 2297.59,-698.582 2291.93,-702.701"/>
<text text-anchor="middle" x="2289" y="-640.351" font-family="Times,serif" font-size="14.00">test</text>
</g>
<!-- taskmanApiImpl&#45;&gt;taskmanDb -->
<g id="edge10" class="edge"><title>taskmanApiImpl&#45;&gt;taskmanDb</title>
<path fill="none" stroke="#111111" stroke-dasharray="5,2" d="M1969.81,-539.311C1958.3,-539.311 1946.35,-539.311 1934.36,-539.311"/>
<polygon fill="#111111" stroke="#111111" points="1934.29,-535.811 1924.29,-539.311 1934.29,-542.811 1934.29,-535.811"/>
<text text-anchor="middle" x="1947.1" y="-525.111" font-family="Times,serif" font-size="14.00">test</text>
</g>
<!-- taskmanApiImpl&#45;&gt;taskmanApiLogic -->
<g id="edge7" class="edge"><title>taskmanApiImpl&#45;&gt;taskmanApiLogic</title>
<path fill="none" stroke="#cc0000" d="M2057.16,-557.297C2055.53,-565.391 2053.81,-575.237 2053,-584.181 2052.06,-594.55 2052.81,-605.935 2054.05,-615.907"/>
<polygon fill="#cc0000" stroke="#cc0000" points="2050.62,-616.671 2055.54,-626.058 2057.55,-615.656 2050.62,-616.671"/>
</g>
<!-- taskmanApiImpl&#45;&gt;taskmanApiLogic -->
<g id="edge9" class="edge"><title>taskmanApiImpl&#45;&gt;taskmanApiLogic</title>
<path fill="none" stroke="#111111" stroke-dasharray="5,2" d="M2060.66,-557.739C2060.35,-573.628 2059.89,-597.358 2059.53,-615.76"/>
<polygon fill="#111111" stroke="#111111" points="2056.03,-615.814 2059.33,-625.88 2063.03,-615.95 2056.03,-615.814"/>
<text text-anchor="middle" x="2086.5" y="-587.981" font-family="Times,serif" font-size="14.00">test&#45;lib</text>
</g>
<!-- taskmanApiLogic&#45;&gt;baseUtil -->
<g id="edge6" class="edge"><title>taskmanApiLogic&#45;&gt;baseUtil</title>
<path fill="none" stroke="#cc0000" d="M2069.2,-662.329C2086.82,-691.41 2125.03,-751.213 2166,-794.661 2206.7,-837.828 2260.78,-879.543 2297.78,-906.17"/>
<polygon fill="#cc0000" stroke="#cc0000" points="2296.16,-909.315 2306.34,-912.276 2300.23,-903.618 2296.16,-909.315"/>
</g>
<!-- webapp -->
<g id="node11" class="node"><title>webapp</title>
<ellipse fill="#ffff80" stroke="black" cx="855" cy="-214.35" rx="70.922" ry="26.7407"/>
<text text-anchor="middle" x="855" y="-218.15" font-family="Times,serif" font-size="14.00">[aggregate]</text>
<text text-anchor="middle" x="855" y="-203.15" font-family="Times,serif" font-size="14.00">webapp</text>
</g>
<!-- webappClientHome -->
<g id="node16" class="node"><title>webappClientHome</title>
<ellipse fill="#99ccee" stroke="black" cx="1107" cy="-467.571" rx="113.689" ry="26.7407"/>
<text text-anchor="middle" x="1107" y="-471.371" font-family="Times,serif" font-size="14.00">webapp&#45;client&#45;home</text>
<text text-anchor="middle" x="1107" y="-456.371" font-family="Times,serif" font-size="14.00">(JS)</text>
</g>
<!-- webapp&#45;&gt;webappClientHome -->
<g id="edge52" class="edge"><title>webapp&#45;&gt;webappClientHome</title>
<path fill="none" stroke="#aaaaaa" stroke-dasharray="5,2" d="M891.206,-237.529C902.143,-244.365 914.13,-251.997 925,-259.22 937.221,-267.342 941.241,-268.243 952,-278.22 1004.25,-326.676 1054.78,-392.81 1083.28,-432.446"/>
<polygon fill="#aaaaaa" stroke="#aaaaaa" points="1089.36,-440.965 1079.88,-435.438 1086.45,-436.895 1083.55,-432.824 1083.55,-432.824 1083.55,-432.824 1086.45,-436.895 1087.21,-430.211 1089.36,-440.965 1089.36,-440.965"/>
</g>
<!-- webappClientWw -->
<g id="node18" class="node"><title>webappClientWw</title>
<ellipse fill="#99ccee" stroke="black" cx="855" cy="-467.571" rx="103.476" ry="26.7407"/>
<text text-anchor="middle" x="855" y="-471.371" font-family="Times,serif" font-size="14.00">webapp&#45;client&#45;ww</text>
<text text-anchor="middle" x="855" y="-456.371" font-family="Times,serif" font-size="14.00">(JS)</text>
</g>
<!-- webapp&#45;&gt;webappClientWw -->
<g id="edge54" class="edge"><title>webapp&#45;&gt;webappClientWw</title>
<path fill="none" stroke="#aaaaaa" stroke-dasharray="5,2" d="M898.999,-235.452C915.974,-245.665 933.55,-259.855 943,-278.22 955.555,-302.62 951.206,-313.776 943,-339.96 931.924,-375.303 907.115,-409.426 886.653,-433.324"/>
<polygon fill="#aaaaaa" stroke="#aaaaaa" points="879.907,-441.023 883.113,-430.536 883.202,-437.263 886.497,-433.502 886.497,-433.502 886.497,-433.502 883.202,-437.263 889.882,-436.468 879.907,-441.023 879.907,-441.023"/>
</g>
<!-- webappClientProject -->
<g id="node19" class="node"><title>webappClientProject</title>
<ellipse fill="#99ccee" stroke="black" cx="548" cy="-539.311" rx="122.159" ry="26.7407"/>
<text text-anchor="middle" x="548" y="-543.111" font-family="Times,serif" font-size="14.00">webapp&#45;client&#45;project</text>
<text text-anchor="middle" x="548" y="-528.111" font-family="Times,serif" font-size="14.00">(JS)</text>
</g>
<!-- webapp&#45;&gt;webappClientProject -->
<g id="edge51" class="edge"><title>webapp&#45;&gt;webappClientProject</title>
<path fill="none" stroke="#aaaaaa" stroke-dasharray="5,2" d="M807.223,-234.307C751.46,-258.451 659.336,-304.865 600,-368.96 565.91,-405.785 554.151,-464.461 550.106,-502.176"/>
<polygon fill="#aaaaaa" stroke="#aaaaaa" points="549.158,-512.223 545.618,-501.844 549.628,-507.245 550.098,-502.267 550.098,-502.267 550.098,-502.267 549.628,-507.245 554.578,-502.69 549.158,-512.223 549.158,-512.223"/>
</g>
<!-- webappServer -->
<g id="node21" class="node"><title>webappServer</title>
<ellipse fill="#99ccee" stroke="black" cx="855" cy="-305.09" rx="79.0865" ry="18"/>
<text text-anchor="middle" x="855" y="-301.39" font-family="Times,serif" font-size="14.00">webapp&#45;server</text>
</g>
<!-- webapp&#45;&gt;webappServer -->
<g id="edge53" class="edge"><title>webapp&#45;&gt;webappServer</title>
<path fill="none" stroke="#aaaaaa" stroke-dasharray="5,2" d="M855,-241.495C855,-252.653 855,-265.673 855,-276.939"/>
<polygon fill="#aaaaaa" stroke="#aaaaaa" points="855,-287.085 850.5,-277.085 855,-282.085 855,-277.085 855,-277.085 855,-277.085 855,-282.085 859.5,-277.085 855,-287.085 855,-287.085"/>
</g>
<!-- webappMacro -->
<g id="node12" class="node"><title>webappMacro</title>
<ellipse fill="#99ccee" stroke="black" cx="1182" cy="-839.531" rx="86.0347" ry="26.7407"/>
<text text-anchor="middle" x="1182" y="-843.331" font-family="Times,serif" font-size="14.00">webapp&#45;macro</text>
<text text-anchor="middle" x="1182" y="-828.331" font-family="Times,serif" font-size="14.00">(Scala &amp; JS)</text>
</g>
<!-- webappMacro&#45;&gt;baseUtil -->
<g id="edge16" class="edge"><title>webappMacro&#45;&gt;baseUtil</title>
<path fill="none" stroke="#cc0000" d="M1264.82,-847.307C1478.47,-864.787 2046.37,-911.248 2258.53,-928.606"/>
<polygon fill="#cc0000" stroke="#cc0000" points="2258.41,-932.108 2268.66,-929.435 2258.98,-925.131 2258.41,-932.108"/>
</g>
<!-- webappBase -->
<g id="node13" class="node"><title>webappBase</title>
<ellipse fill="#99ccee" stroke="black" cx="729" cy="-734.791" rx="77.5641" ry="26.7407"/>
<text text-anchor="middle" x="729" y="-738.591" font-family="Times,serif" font-size="14.00">webapp&#45;base</text>
<text text-anchor="middle" x="729" y="-723.591" font-family="Times,serif" font-size="14.00">(Scala &amp; JS)</text>
</g>
<!-- webappBase&#45;&gt;webappMacro -->
<g id="edge17" class="edge"><title>webappBase&#45;&gt;webappMacro</title>
<path fill="none" stroke="#cc0000" d="M792.943,-750.293C874.548,-768.801 1015.66,-800.804 1103.64,-820.759"/>
<polygon fill="#cc0000" stroke="#cc0000" points="1103.04,-824.212 1113.57,-823.011 1104.59,-817.386 1103.04,-824.212"/>
</g>
<!-- webappServerLogic -->
<g id="node14" class="node"><title>webappServerLogic</title>
<ellipse fill="#99ccee" stroke="black" cx="1306" cy="-539.311" rx="113.689" ry="26.7407"/>
<text text-anchor="middle" x="1306" y="-543.111" font-family="Times,serif" font-size="14.00">webapp&#45;server&#45;logic</text>
<text text-anchor="middle" x="1306" y="-528.111" font-family="Times,serif" font-size="14.00">(Scala &amp; JS)</text>
</g>
<!-- webappServerLogic&#45;&gt;taskmanApiLogic -->
<g id="edge19" class="edge"><title>webappServerLogic&#45;&gt;taskmanApiLogic</title>
<path fill="none" stroke="#cc0000" d="M1387.83,-558.109C1402.5,-561.014 1417.68,-563.836 1432,-566.181 1621.49,-597.197 1845.05,-621.743 1967.46,-634.162"/>
<polygon fill="#cc0000" stroke="#cc0000" points="1967.24,-637.657 1977.54,-635.18 1967.94,-630.692 1967.24,-637.657"/>
</g>
<!-- webappServerLogic&#45;&gt;webappBase -->
<g id="edge18" class="edge"><title>webappServerLogic&#45;&gt;webappBase</title>
<path fill="none" stroke="#cc0000" d="M1292.28,-566.274C1272.31,-601.149 1231.66,-661.969 1178,-689.921 1117.21,-721.589 929.643,-730.461 817.083,-732.905"/>
<polygon fill="#cc0000" stroke="#cc0000" points="816.693,-729.412 806.767,-733.116 816.836,-736.411 816.693,-729.412"/>
</g>
<!-- webappBaseTest -->
<g id="node22" class="node"><title>webappBaseTest</title>
<ellipse fill="white" stroke="blue" cx="880" cy="-644.051" rx="100.318" ry="26.7407"/>
<text text-anchor="middle" x="880" y="-647.851" font-family="Times,serif" font-size="14.00">webapp&#45;base&#45;test</text>
<text text-anchor="middle" x="880" y="-632.851" font-family="Times,serif" font-size="14.00">(Scala &amp; JS)</text>
</g>
<!-- webappServerLogic&#45;&gt;webappBaseTest -->
<g id="edge20" class="edge"><title>webappServerLogic&#45;&gt;webappBaseTest</title>
<path fill="none" stroke="#111111" stroke-dasharray="5,2" d="M1247.53,-562.455C1213.83,-574.591 1170.46,-589.158 1131,-599.181 1081.17,-611.839 1024.85,-622.046 978.206,-629.418"/>
<polygon fill="#111111" stroke="#111111" points="977.441,-625.995 968.101,-630.995 978.521,-632.911 977.441,-625.995"/>
<text text-anchor="middle" x="1194" y="-587.981" font-family="Times,serif" font-size="14.00">test</text>
</g>
<!-- webappClientPublic -->
<g id="node15" class="node"><title>webappClientPublic</title>
<ellipse fill="#99ccee" stroke="black" cx="973" cy="-539.311" rx="117.26" ry="26.7407"/>
<text text-anchor="middle" x="973" y="-543.111" font-family="Times,serif" font-size="14.00">webapp&#45;client&#45;public</text>
<text text-anchor="middle" x="973" y="-528.111" font-family="Times,serif" font-size="14.00">(JS)</text>
</g>
<!-- webappClientPublic&#45;&gt;webappBase -->
<g id="edge25" class="edge"><title>webappClientPublic&#45;&gt;webappBase</title>
<path fill="none" stroke="#cc0000" d="M890.436,-558.476C877.27,-561.183 863.779,-563.845 851,-566.181 825.123,-570.911 751.46,-564.504 734,-584.181 719.692,-600.306 721.829,-658.364 725.105,-697.233"/>
<polygon fill="#cc0000" stroke="#cc0000" points="721.66,-697.992 726.047,-707.636 728.631,-697.361 721.66,-697.992"/>
</g>
<!-- webappClientPublic&#45;&gt;webappBaseTest -->
<g id="edge26" class="edge"><title>webappClientPublic&#45;&gt;webappBaseTest</title>
<path fill="none" stroke="#111111" stroke-dasharray="5,2" d="M950.011,-565.707C937.939,-579.044 922.998,-595.55 910.022,-609.884"/>
<polygon fill="#111111" stroke="#111111" points="907.163,-607.828 903.047,-617.591 912.352,-612.526 907.163,-607.828"/>
<text text-anchor="middle" x="947" y="-587.981" font-family="Times,serif" font-size="14.00">test</text>
</g>
<!-- webappClientHome&#45;&gt;webappBase -->
<g id="edge23" class="edge"><title>webappClientHome&#45;&gt;webappBase</title>
<path fill="none" stroke="#cc0000" d="M1134.83,-493.835C1139.4,-499.471 1143.46,-505.773 1146,-512.441 1154.49,-534.766 1157.27,-545.121 1146,-566.181 1106.43,-640.143 1065.84,-637.271 989,-670.921 931.552,-696.08 862.361,-712.191 809.804,-721.798"/>
<polygon fill="#cc0000" stroke="#cc0000" points="809.085,-718.371 799.857,-723.575 810.316,-725.262 809.085,-718.371"/>
</g>
<!-- webappClientHome&#45;&gt;webappBaseTest -->
<g id="edge24" class="edge"><title>webappClientHome&#45;&gt;webappBaseTest</title>
<path fill="none" stroke="#111111" stroke-dasharray="5,2" d="M1112.04,-494.534C1114.65,-515.951 1114.59,-545.993 1099,-566.181 1071.24,-602.132 1025.47,-621.327 982.929,-631.551"/>
<polygon fill="#111111" stroke="#111111" points="982.04,-628.164 973.056,-633.781 983.582,-634.992 982.04,-628.164"/>
<text text-anchor="middle" x="1128" y="-535.611" font-family="Times,serif" font-size="14.00">test</text>
</g>
<!-- webappClientWwApi -->
<g id="node17" class="node"><title>webappClientWwApi</title>
<ellipse fill="#99ccee" stroke="black" cx="568" cy="-644.051" rx="121.745" ry="26.7407"/>
<text text-anchor="middle" x="568" y="-647.851" font-family="Times,serif" font-size="14.00">webapp&#45;client&#45;ww&#45;api</text>
<text text-anchor="middle" x="568" y="-632.851" font-family="Times,serif" font-size="14.00">(JS)</text>
</g>
<!-- webappClientWwApi&#45;&gt;webappBase -->
<g id="edge27" class="edge"><title>webappClientWwApi&#45;&gt;webappBase</title>
<path fill="none" stroke="#cc0000" d="M611.994,-669.299C633.012,-680.884 658.243,-694.791 679.885,-706.72"/>
<polygon fill="#cc0000" stroke="#cc0000" points="678.47,-709.936 688.918,-711.698 681.849,-703.806 678.47,-709.936"/>
</g>
<!-- webappClientWw&#45;&gt;webappClientWwApi -->
<g id="edge28" class="edge"><title>webappClientWw&#45;&gt;webappClientWwApi</title>
<path fill="none" stroke="#cc0000" d="M779.6,-486C760.472,-492.467 740.646,-501.091 724,-512.441 698.261,-529.99 702.012,-545.182 679,-566.181 660.137,-583.393 637.228,-599.877 617.132,-613.134"/>
<polygon fill="#cc0000" stroke="#cc0000" points="615.186,-610.225 608.711,-618.611 619.003,-616.093 615.186,-610.225"/>
</g>
<!-- webappClientWw&#45;&gt;webappBaseTest -->
<g id="edge29" class="edge"><title>webappClientWw&#45;&gt;webappBaseTest</title>
<path fill="none" stroke="#111111" stroke-dasharray="5,2" d="M829.645,-493.631C825.283,-499.369 821.39,-505.762 819,-512.441 810.954,-534.929 811.139,-543.627 819,-566.181 824.665,-582.434 835.36,-597.831 846.232,-610.517"/>
<polygon fill="#111111" stroke="#111111" points="843.7,-612.936 852.98,-618.048 848.913,-608.265 843.7,-612.936"/>
<text text-anchor="middle" x="833" y="-535.611" font-family="Times,serif" font-size="14.00">test</text>
</g>
<!-- webappClientProject&#45;&gt;webappBase -->
<g id="edge30" class="edge"><title>webappClientProject&#45;&gt;webappBase</title>
<path fill="none" stroke="#cc0000" d="M488.617,-562.833C468.544,-573.633 448.357,-588.769 437,-609.181 423.659,-633.159 419.759,-649.573 437,-670.921 462.569,-702.581 566.545,-719.051 643.174,-727.057"/>
<polygon fill="#cc0000" stroke="#cc0000" points="643.019,-730.56 653.321,-728.085 643.725,-723.595 643.019,-730.56"/>
</g>
<!-- webappClientProject&#45;&gt;webappClientWwApi -->
<g id="edge31" class="edge"><title>webappClientProject&#45;&gt;webappClientWwApi</title>
<path fill="none" stroke="#cc0000" d="M553.047,-566.236C555.463,-578.647 558.395,-593.709 561.02,-607.197"/>
<polygon fill="#cc0000" stroke="#cc0000" points="557.608,-607.987 562.955,-617.133 564.479,-606.649 557.608,-607.987"/>
</g>
<!-- webappClientProject&#45;&gt;webappBaseTest -->
<g id="edge32" class="edge"><title>webappClientProject&#45;&gt;webappBaseTest</title>
<path fill="none" stroke="#111111" stroke-dasharray="5,2" d="M616.791,-561.599C672.18,-578.739 749.864,-602.779 806.476,-620.298"/>
<polygon fill="#111111" stroke="#111111" points="805.493,-623.658 816.081,-623.271 807.562,-616.971 805.493,-623.658"/>
<text text-anchor="middle" x="748" y="-587.981" font-family="Times,serif" font-size="14.00">test</text>
</g>
<!-- webappGen -->
<g id="node20" class="node"><title>webappGen</title>
<ellipse fill="#99ccee" stroke="black" cx="735" cy="-395.831" rx="73.5782" ry="26.7407"/>
<text text-anchor="middle" x="735" y="-399.631" font-family="Times,serif" font-size="14.00">webapp&#45;gen</text>
<text text-anchor="middle" x="735" y="-384.631" font-family="Times,serif" font-size="14.00">(Scala &amp; JS)</text>
</g>
<!-- webappGen&#45;&gt;webappBase -->
<g id="edge33" class="edge"><title>webappGen&#45;&gt;webappBase</title>
<path fill="none" stroke="#cc0000" d="M732.396,-422.948C728.549,-462.979 721.53,-541.941 719,-609.181 717.968,-636.601 718.279,-643.49 719,-670.921 719.222,-679.374 718.925,-681.533 720,-689.921 720.34,-692.577 720.752,-695.312 721.21,-698.057"/>
<polygon fill="#cc0000" stroke="#cc0000" points="717.772,-698.715 723.023,-707.917 724.657,-697.449 717.772,-698.715"/>
</g>
<!-- webappGen&#45;&gt;webappClientProject -->
<g id="edge34" class="edge"><title>webappGen&#45;&gt;webappClientProject</title>
<path fill="none" stroke="#111111" stroke-dasharray="5,2" d="M703.615,-420.278C695.432,-426.697 686.741,-433.794 679,-440.701 653.967,-463.032 652.658,-474.077 626,-494.441 619.256,-499.593 611.838,-504.543 604.342,-509.144"/>
<polygon fill="#111111" stroke="#111111" points="602.349,-506.257 595.541,-514.375 605.926,-512.274 602.349,-506.257"/>
<text text-anchor="middle" x="691.5" y="-463.871" font-family="Times,serif" font-size="14.00">run</text>
</g>
<!-- webappGen&#45;&gt;webappBaseTest -->
<g id="edge35" class="edge"><title>webappGen&#45;&gt;webappBaseTest</title>
<path fill="none" stroke="#111111" stroke-dasharray="5,2" d="M736.225,-422.733C739.136,-458.452 748.95,-523.274 782,-566.181 795.835,-584.141 814.775,-600.284 832.318,-613.085"/>
<polygon fill="#111111" stroke="#111111" points="830.608,-616.163 840.789,-619.094 834.658,-610.453 830.608,-616.163"/>
<text text-anchor="middle" x="796" y="-535.611" font-family="Times,serif" font-size="14.00">test</text>
</g>
<!-- webappServer&#45;&gt;baseDb -->
<g id="edge39" class="edge"><title>webappServer&#45;&gt;baseDb</title>
<path fill="none" stroke="#cc0000" d="M885.682,-321.73C900.985,-328.713 920.024,-336.203 938,-339.96 982.061,-349.171 1298,-348.703 1343,-349.96 1613.69,-357.525 1685.25,-322.291 1952,-368.96 2053.31,-386.685 2076.6,-402.275 2172,-440.701 2313.97,-497.886 2482,-437.625 2482,-590.681 2482,-590.681 2482,-590.681 2482,-735.791 2482,-774.899 2444.77,-802.316 2411.78,-818.932"/>
<polygon fill="#cc0000" stroke="#cc0000" points="2410.12,-815.847 2402.63,-823.333 2413.16,-822.156 2410.12,-815.847"/>
</g>
<!-- webappServer&#45;&gt;taskmanApiImpl -->
<g id="edge36" class="edge"><title>webappServer&#45;&gt;taskmanApiImpl</title>
<path fill="none" stroke="#cc0000" d="M885.69,-321.696C900.994,-328.671 920.032,-336.164 938,-339.96 992.269,-351.428 1892.31,-334.781 1936,-368.96 1981.6,-404.637 1933.94,-449.958 1971,-494.441 1979.86,-505.08 1991.93,-513.345 2004.34,-519.685"/>
<polygon fill="#cc0000" stroke="#cc0000" points="2002.86,-522.858 2013.4,-523.967 2005.85,-516.529 2002.86,-522.858"/>
</g>
<!-- webappServer&#45;&gt;webappServerLogic -->
<g id="edge37" class="edge"><title>webappServer&#45;&gt;webappServerLogic</title>
<path fill="none" stroke="#cc0000" d="M912.327,-317.604C988.334,-334.888 1124.23,-372.969 1222,-440.701 1246.55,-457.71 1268.35,-483.548 1283.59,-504.369"/>
<polygon fill="#cc0000" stroke="#cc0000" points="1280.85,-506.548 1289.5,-512.653 1286.54,-502.481 1280.85,-506.548"/>
</g>
<!-- webappServer&#45;&gt;webappClientPublic -->
<g id="edge40" class="edge"><title>webappServer&#45;&gt;webappClientPublic</title>
<path fill="none" stroke="#cc0000" stroke-dasharray="5,2" d="M873.759,-322.617C898.954,-346.067 942.881,-391.633 963,-440.701 970.907,-459.984 973.54,-483.129 974.134,-502.042"/>
<polygon fill="#cc0000" stroke="#cc0000" points="970.635,-502.112 974.275,-512.061 977.634,-502.013 970.635,-502.112"/>
</g>
<!-- webappServer&#45;&gt;webappClientHome -->
<g id="edge41" class="edge"><title>webappServer&#45;&gt;webappClientHome</title>
<path fill="none" stroke="#cc0000" stroke-dasharray="5,2" d="M892.4,-320.976C910.552,-328.749 932.402,-338.931 951,-349.96 993.851,-375.372 1039.05,-410.158 1069.7,-435.111"/>
<polygon fill="#cc0000" stroke="#cc0000" points="1067.6,-437.919 1077.56,-441.551 1072.04,-432.505 1067.6,-437.919"/>
</g>
<!-- webappServer&#45;&gt;webappClientWw -->
<g id="edge43" class="edge"><title>webappServer&#45;&gt;webappClientWw</title>
<path fill="none" stroke="#cc0000" stroke-dasharray="5,2" d="M855,-323.265C855,-348.655 855,-396.806 855,-430.248"/>
<polygon fill="#cc0000" stroke="#cc0000" points="851.5,-430.541 855,-440.541 858.5,-430.541 851.5,-430.541"/>
</g>
<!-- webappServer&#45;&gt;webappClientProject -->
<g id="edge42" class="edge"><title>webappServer&#45;&gt;webappClientProject</title>
<path fill="none" stroke="#cc0000" stroke-dasharray="5,2" d="M787.238,-314.659C744.839,-322.837 691.05,-338.641 652,-368.96 606.969,-403.923 576.742,-464.304 560.968,-502.726"/>
<polygon fill="#cc0000" stroke="#cc0000" points="557.537,-501.881 557.085,-512.466 564.04,-504.473 557.537,-501.881"/>
</g>
<!-- webappServer&#45;&gt;webappGen -->
<g id="edge38" class="edge"><title>webappServer&#45;&gt;webappGen</title>
<path fill="none" stroke="#cc0000" d="M832.71,-322.574C816.46,-334.591 794.004,-351.197 774.717,-365.46"/>
<polygon fill="#cc0000" stroke="#cc0000" points="772.631,-362.649 766.672,-371.409 776.793,-368.277 772.631,-362.649"/>
</g>
<!-- webappBaseTest&#45;&gt;baseTest -->
<g id="edge21" class="edge"><title>webappBaseTest&#45;&gt;baseTest</title>
<path fill="none" stroke="#111111" d="M977,-651.028C1244.4,-667.507 1988.71,-713.375 2237.68,-728.718"/>
<polygon fill="#111111" stroke="#111111" points="2237.55,-732.216 2247.75,-729.338 2237.98,-725.23 2237.55,-732.216"/>
</g>
<!-- webappBaseTest&#45;&gt;webappBase -->
<g id="edge22" class="edge"><title>webappBaseTest&#45;&gt;webappBase</title>
<path fill="none" stroke="#111111" d="M839.535,-668.832C819.978,-680.325 796.39,-694.187 776.036,-706.148"/>
<polygon fill="#111111" stroke="#111111" points="774.084,-703.236 767.236,-711.32 777.631,-709.271 774.084,-703.236"/>
</g>
<!-- taskman -->
<g id="node23" class="node"><title>taskman</title>
<ellipse fill="#ffff80" stroke="black" cx="1802" cy="-305.09" rx="70.922" ry="26.7407"/>
<text text-anchor="middle" x="1802" y="-308.89" font-family="Times,serif" font-size="14.00">[aggregate]</text>
<text text-anchor="middle" x="1802" y="-293.89" font-family="Times,serif" font-size="14.00">taskman</text>
</g>
<!-- taskman&#45;&gt;taskmanServerImpl -->
<g id="edge50" class="edge"><title>taskman&#45;&gt;taskmanServerImpl</title>
<path fill="none" stroke="#aaaaaa" stroke-dasharray="5,2" d="M1802,-332.235C1802,-343.393 1802,-356.413 1802,-367.679"/>
<polygon fill="#aaaaaa" stroke="#aaaaaa" points="1802,-377.826 1797.5,-367.825 1802,-372.826 1802,-367.826 1802,-367.826 1802,-367.826 1802,-372.826 1806.5,-367.826 1802,-377.826 1802,-377.826"/>
</g>
<!-- taskman&#45;&gt;taskmanApiImpl -->
<g id="edge49" class="edge"><title>taskman&#45;&gt;taskmanApiImpl</title>
<path fill="none" stroke="#aaaaaa" stroke-dasharray="5,2" d="M1871.49,-310.619C1904.69,-315.92 1943.17,-327.013 1971,-349.96 2022.19,-392.166 2046.19,-470.325 2055.71,-511.434"/>
<polygon fill="#aaaaaa" stroke="#aaaaaa" points="2057.88,-521.28 2051.33,-512.48 2056.8,-516.396 2055.73,-511.513 2055.73,-511.513 2055.73,-511.513 2056.8,-516.396 2060.12,-510.546 2057.88,-521.28 2057.88,-521.28"/>
</g>
<!-- benchmark -->
<g id="node24" class="node"><title>benchmark</title>
<ellipse fill="#ffffdd" stroke="black" cx="286" cy="-117.61" rx="70.922" ry="26.7407"/>
<text text-anchor="middle" x="286" y="-121.41" font-family="Times,serif" font-size="14.00">[aggregate]</text>
<text text-anchor="middle" x="286" y="-106.41" font-family="Times,serif" font-size="14.00">benchmark</text>
</g>
<!-- benchmarkJvm -->
<g id="node25" class="node"><title>benchmarkJvm</title>
<ellipse fill="#ffcccc" stroke="black" cx="286" cy="-214.35" rx="86.3847" ry="18"/>
<text text-anchor="middle" x="286" y="-210.65" font-family="Times,serif" font-size="14.00">benchmark JVM</text>
</g>
<!-- benchmark&#45;&gt;benchmarkJvm -->
<g id="edge59" class="edge"><title>benchmark&#45;&gt;benchmarkJvm</title>
<path fill="none" stroke="#aaaaaa" stroke-dasharray="5,2" d="M286,-144.498C286,-157.339 286,-172.851 286,-185.899"/>
<polygon fill="#aaaaaa" stroke="#aaaaaa" points="286,-196.166 281.5,-186.166 286,-191.166 286,-186.166 286,-186.166 286,-186.166 286,-191.166 290.5,-186.166 286,-196.166 286,-196.166"/>
</g>
<!-- benchmarkJs -->
<g id="node26" class="node"><title>benchmarkJs</title>
<ellipse fill="#ffcccc" stroke="black" cx="105" cy="-214.35" rx="76.8869" ry="18"/>
<text text-anchor="middle" x="105" y="-210.65" font-family="Times,serif" font-size="14.00">benchmark JS</text>
</g>
<!-- benchmark&#45;&gt;benchmarkJs -->
<g id="edge60" class="edge"><title>benchmark&#45;&gt;benchmarkJs</title>
<path fill="none" stroke="#aaaaaa" stroke-dasharray="5,2" d="M245.38,-139.872C214.965,-155.792 173.619,-177.433 143.682,-193.103"/>
<polygon fill="#aaaaaa" stroke="#aaaaaa" points="134.782,-197.761 141.555,-189.137 139.212,-195.443 143.642,-193.124 143.642,-193.124 143.642,-193.124 139.212,-195.443 145.729,-197.111 134.782,-197.761 134.782,-197.761"/>
</g>
<!-- benchmarkJvm&#45;&gt;webappServer -->
<g id="edge46" class="edge"><title>benchmarkJvm&#45;&gt;webappServer</title>
<path fill="none" stroke="#cc0000" d="M314.822,-231.34C334.316,-241.378 360.974,-253.629 386,-260.22 514.951,-294.182 669.906,-302.678 765.423,-304.371"/>
<polygon fill="#cc0000" stroke="#cc0000" points="765.57,-307.874 775.624,-304.53 765.679,-300.874 765.57,-307.874"/>
</g>
<!-- benchmarkShared -->
<g id="node27" class="node"><title>benchmarkShared</title>
<ellipse fill="#ffcccc" stroke="black" cx="233" cy="-305.09" rx="69.0935" ry="26.7407"/>
<text text-anchor="middle" x="233" y="-308.89" font-family="Times,serif" font-size="14.00">benchmark</text>
<text text-anchor="middle" x="233" y="-293.89" font-family="Times,serif" font-size="14.00">base</text>
</g>
<!-- benchmarkJvm&#45;&gt;benchmarkShared -->
<g id="edge44" class="edge"><title>benchmarkJvm&#45;&gt;benchmarkShared</title>
<path fill="none" stroke="#cc0000" d="M275.781,-232.46C269.427,-243.1 261.033,-257.154 253.364,-269.993"/>
<polygon fill="#cc0000" stroke="#cc0000" points="250.328,-268.251 248.205,-278.631 256.338,-271.841 250.328,-268.251"/>
</g>
<!-- benchmarkJs&#45;&gt;webappClientProject -->
<g id="edge47" class="edge"><title>benchmarkJs&#45;&gt;webappClientProject</title>
<path fill="none" stroke="#cc0000" d="M107.928,-232.732C113.145,-258.907 126.316,-308.702 155,-339.96 239.049,-431.551 374.943,-486.826 462.872,-514.959"/>
<polygon fill="#cc0000" stroke="#cc0000" points="461.964,-518.342 472.553,-518.009 464.067,-511.666 461.964,-518.342"/>
</g>
<!-- benchmarkJs&#45;&gt;benchmarkShared -->
<g id="edge45" class="edge"><title>benchmarkJs&#45;&gt;benchmarkShared</title>
<path fill="none" stroke="#cc0000" d="M128.477,-231.627C146.112,-243.852 170.719,-260.912 191.628,-275.408"/>
<polygon fill="#cc0000" stroke="#cc0000" points="189.819,-278.413 200.032,-281.234 193.808,-272.66 189.819,-278.413"/>
</g>
<!-- utils -->
<g id="node28" class="node"><title>utils</title>
<ellipse fill="#ffffdd" stroke="black" cx="113" cy="-117.61" rx="31.3957" ry="18"/>
<text text-anchor="middle" x="113" y="-113.91" font-family="Times,serif" font-size="14.00">utils</text>
</g>
<!-- utils&#45;&gt;webappBase -->
<g id="edge48" class="edge"><title>utils&#45;&gt;webappBase</title>
<path fill="none" stroke="#cc0000" d="M86.7915,-127.383C53.4102,-140.41 0,-168.293 0,-213.35 0,-213.35 0,-213.35 0,-645.051 0,-708.97 447.338,-727.201 641.172,-732.101"/>
<polygon fill="#cc0000" stroke="#cc0000" points="641.246,-735.604 651.33,-732.351 641.419,-728.606 641.246,-735.604"/>
</g>
<!-- root -->
<g id="node29" class="node"><title>root</title>
<ellipse fill="#cccccc" stroke="black" cx="400" cy="-26.8701" rx="70.922" ry="26.7407"/>
<text text-anchor="middle" x="400" y="-30.6701" font-family="Times,serif" font-size="14.00">[aggregate]</text>
<text text-anchor="middle" x="400" y="-15.6701" font-family="Times,serif" font-size="14.00">root</text>
</g>
<!-- root&#45;&gt;base -->
<g id="edge61" class="edge"><title>root&#45;&gt;base</title>
<path fill="none" stroke="#aaaaaa" stroke-dasharray="5,2" d="M470.656,-29.052C830.663,-35.3006 2444,-66.1197 2444,-116.61 2444,-116.61 2444,-116.61 2444,-540.311 2444,-566.629 2429.02,-592.096 2413.9,-611.091"/>
<polygon fill="#aaaaaa" stroke="#aaaaaa" points="2407.46,-618.819 2410.41,-608.257 2410.66,-614.979 2413.86,-611.138 2413.86,-611.138 2413.86,-611.138 2410.66,-614.979 2417.32,-614.02 2407.46,-618.819 2407.46,-618.819"/>
</g>
<!-- root&#45;&gt;webapp -->
<g id="edge62" class="edge"><title>root&#45;&gt;webapp</title>
<path fill="none" stroke="#aaaaaa" stroke-dasharray="5,2" d="M446.979,-47.0211C531.298,-81.3934 707.951,-153.406 798.639,-190.375"/>
<polygon fill="#aaaaaa" stroke="#aaaaaa" points="807.936,-194.165 796.977,-194.557 803.306,-192.277 798.676,-190.39 798.676,-190.39 798.676,-190.39 803.306,-192.277 800.375,-186.223 807.936,-194.165 807.936,-194.165"/>
</g>
<!-- root&#45;&gt;taskman -->
<g id="edge63" class="edge"><title>root&#45;&gt;taskman</title>
<path fill="none" stroke="#aaaaaa" stroke-dasharray="5,2" d="M397.615,-53.7497C393.533,-104.847 387.971,-215.941 414,-241.22 454.597,-280.649 1375.49,-275.219 1432,-278.22 1532.41,-283.554 1647.99,-292.006 1722.88,-297.788"/>
<polygon fill="#aaaaaa" stroke="#aaaaaa" points="1733.17,-298.586 1722.85,-302.3 1728.18,-298.199 1723.2,-297.813 1723.2,-297.813 1723.2,-297.813 1728.18,-298.199 1723.55,-293.327 1733.17,-298.586 1733.17,-298.586"/>
</g>
<!-- root&#45;&gt;benchmark -->
<g id="edge64" class="edge"><title>root&#45;&gt;benchmark</title>
<path fill="none" stroke="#aaaaaa" stroke-dasharray="5,2" d="M369.749,-51.4178C355.724,-62.3355 338.904,-75.4284 324.03,-87.007"/>
<polygon fill="#aaaaaa" stroke="#aaaaaa" points="315.996,-93.2603 321.123,-83.5667 319.942,-90.189 323.887,-87.1177 323.887,-87.1177 323.887,-87.1177 319.942,-90.189 326.652,-90.6687 315.996,-93.2603 315.996,-93.2603"/>
</g>
<!-- root&#45;&gt;utils -->
<g id="edge65" class="edge"><title>root&#45;&gt;utils</title>
<path fill="none" stroke="#aaaaaa" stroke-dasharray="5,2" d="M342.793,-42.8612C303.982,-53.322 251.631,-68 206,-82.7401 186.59,-89.01 165.185,-96.7475 147.809,-103.244"/>
<polygon fill="#aaaaaa" stroke="#aaaaaa" points="138.088,-106.905 145.861,-99.1687 142.768,-105.142 147.447,-103.38 147.447,-103.38 147.447,-103.38 142.768,-105.142 149.033,-107.591 138.088,-106.905 138.088,-106.905"/>
</g>
</g>
</svg>
