<?xml version="1.0" encoding="UTF-8" standalone="no"?>
<!DOCTYPE svg PUBLIC "-//W3C//DTD SVG 1.1//EN"
 "http://www.w3.org/Graphics/SVG/1.1/DTD/svg11.dtd">
<!-- Generated by graphviz version 2.44.1 (0)
 -->
<!-- Title: G Pages: 1 -->
<svg width="2165pt" height="1471pt"
 viewBox="0.00 0.00 2165.00 1470.84" xmlns="http://www.w3.org/2000/svg" xmlns:xlink="http://www.w3.org/1999/xlink">
<g id="graph0" class="graph" transform="scale(1 1) rotate(0) translate(4 1466.84)">
<title>G</title>
<polygon fill="white" stroke="transparent" points="-4,4 -4,-1466.84 2161,-1466.84 2161,4 -4,4"/>
<g id="clust3" class="cluster">
<title>cluster_taskman</title>
<polygon fill="#eeeeff" stroke="black" points="1333,-393.83 1333,-754.92 1793,-754.92 1793,-393.83 1333,-393.83"/>
</g>
<g id="clust4" class="cluster">
<title>cluster_webapp</title>
<polygon fill="#eeeeff" stroke="black" points="334,-384.96 334,-1289.36 1325,-1289.36 1325,-384.96 334,-384.96"/>
</g>
<g id="clust1" class="cluster">
<title>cluster_base</title>
<polygon fill="#f4fff4" stroke="black" points="1801,-8 1801,-559.44 2149,-559.44 2149,-8 1801,-8"/>
</g>
<g id="clust5" class="cluster">
<title>cluster_supp</title>
<polygon fill="#fff2f2" stroke="black" points="20,-1128.88 20,-1380.1 326,-1380.1 326,-1128.88 20,-1128.88"/>
</g>
<!-- baseMacro -->
<g id="node1" class="node">
<title>baseMacro</title>
<ellipse fill="#bbffbb" stroke="black" cx="1986" cy="-42.87" rx="69.09" ry="26.74"/>
<text text-anchor="middle" x="1986" y="-46.67" font-family="Times,serif" font-size="14.00">base&#45;macro</text>
<text text-anchor="middle" x="1986" y="-31.67" font-family="Times,serif" font-size="14.00">(JVM &amp; JS)</text>
</g>
<!-- basePredef -->
<g id="node2" class="node">
<title>basePredef</title>
<ellipse fill="#bbffbb" stroke="black" cx="1900" cy="-224.35" rx="71.34" ry="26.74"/>
<text text-anchor="middle" x="1900" y="-228.15" font-family="Times,serif" font-size="14.00">base&#45;predef</text>
<text text-anchor="middle" x="1900" y="-213.15" font-family="Times,serif" font-size="14.00">(JVM &amp; JS)</text>
</g>
<!-- baseUtil -->
<g id="node3" class="node">
<title>baseUtil</title>
<ellipse fill="#bbffbb" stroke="black" cx="1900" cy="-133.61" rx="65.52" ry="26.74"/>
<text text-anchor="middle" x="1900" y="-137.41" font-family="Times,serif" font-size="14.00">base&#45;util</text>
<text text-anchor="middle" x="1900" y="-122.41" font-family="Times,serif" font-size="14.00">(JVM &amp; JS)</text>
</g>
<!-- basePredef&#45;&gt;baseUtil -->
<g id="edge1" class="edge">
<title>basePredef&#45;&gt;baseUtil</title>
<path fill="none" stroke="#cc0000" d="M1900,-197.21C1900,-188.9 1900,-179.56 1900,-170.69"/>
<polygon fill="#cc0000" stroke="#cc0000" points="1903.5,-170.57 1900,-160.57 1896.5,-170.57 1903.5,-170.57"/>
</g>
<!-- baseUtil&#45;&gt;baseMacro -->
<g id="edge2" class="edge">
<title>baseUtil&#45;&gt;baseMacro</title>
<path fill="none" stroke="#cc0000" d="M1923.5,-108.36C1933.28,-98.27 1944.76,-86.42 1955.2,-75.65"/>
<polygon fill="#cc0000" stroke="#cc0000" points="1957.78,-78.01 1962.23,-68.4 1952.76,-73.14 1957.78,-78.01"/>
</g>
<!-- baseDb -->
<g id="node4" class="node">
<title>baseDb</title>
<ellipse fill="#bbffbb" stroke="black" cx="2043" cy="-315.09" rx="50.82" ry="26.74"/>
<text text-anchor="middle" x="2043" y="-318.89" font-family="Times,serif" font-size="14.00">base&#45;db</text>
<text text-anchor="middle" x="2043" y="-303.89" font-family="Times,serif" font-size="14.00">(JVM)</text>
</g>
<!-- baseOps -->
<g id="node5" class="node">
<title>baseOps</title>
<ellipse fill="#bbffbb" stroke="black" cx="2065" cy="-224.35" rx="55.72" ry="26.74"/>
<text text-anchor="middle" x="2065" y="-228.15" font-family="Times,serif" font-size="14.00">base&#45;ops</text>
<text text-anchor="middle" x="2065" y="-213.15" font-family="Times,serif" font-size="14.00">(JVM)</text>
</g>
<!-- baseDb&#45;&gt;baseOps -->
<g id="edge4" class="edge">
<title>baseDb&#45;&gt;baseOps</title>
<path fill="none" stroke="#cc0000" d="M2049.36,-288.42C2051.47,-279.94 2053.84,-270.35 2056.1,-261.25"/>
<polygon fill="#cc0000" stroke="#cc0000" points="2059.57,-261.82 2058.57,-251.27 2052.77,-260.13 2059.57,-261.82"/>
</g>
<!-- baseOps&#45;&gt;baseUtil -->
<g id="edge3" class="edge">
<title>baseOps&#45;&gt;baseUtil</title>
<path fill="none" stroke="#cc0000" d="M2033.5,-201.86C2021.65,-194.12 2007.91,-185.56 1995,-178.48 1981.93,-171.32 1967.47,-164.24 1953.87,-157.92"/>
<polygon fill="#cc0000" stroke="#cc0000" points="1955.16,-154.67 1944.61,-153.68 1952.24,-161.03 1955.16,-154.67"/>
</g>
<!-- baseTest -->
<g id="node6" class="node">
<title>baseTest</title>
<ellipse fill="white" stroke="darkgreen" cx="1948" cy="-419.83" rx="65.52" ry="26.74"/>
<text text-anchor="middle" x="1948" y="-423.63" font-family="Times,serif" font-size="14.00">base&#45;test</text>
<text text-anchor="middle" x="1948" y="-408.63" font-family="Times,serif" font-size="14.00">(JVM &amp; JS)</text>
</g>
<!-- baseTest&#45;&gt;baseUtil -->
<g id="edge5" class="edge">
<title>baseTest&#45;&gt;baseUtil</title>
<path fill="none" stroke="#111111" d="M1953.23,-392.92C1961.96,-349.42 1978.69,-265.12 1980,-251.22 1982.25,-227.44 1990.44,-218.96 1980,-197.48 1972.97,-183.01 1960.82,-170.88 1948.08,-161.26"/>
<polygon fill="#111111" stroke="#111111" points="1949.86,-158.23 1939.67,-155.3 1945.81,-163.94 1949.86,-158.23"/>
</g>
<!-- baseTest&#45;&gt;baseDb -->
<g id="edge6" class="edge">
<title>baseTest&#45;&gt;baseDb</title>
<path fill="none" stroke="#111111" stroke-dasharray="5,2" d="M1955.68,-392.91C1959.85,-381.9 1965.84,-369.45 1974,-359.96 1980.66,-352.21 1989.04,-345.35 1997.63,-339.49"/>
<polygon fill="#111111" stroke="#111111" points="1999.71,-342.31 2006.24,-333.97 1995.94,-336.42 1999.71,-342.31"/>
<text text-anchor="middle" x="2006" y="-363.76" font-family="Times,serif" font-size="14.00">provided</text>
</g>
<!-- base -->
<g id="node7" class="node">
<title>base</title>
<ellipse fill="#ffffdd" stroke="darkgreen" cx="1948" cy="-524.57" rx="70.92" ry="26.74"/>
<text text-anchor="middle" x="1948" y="-528.37" font-family="Times,serif" font-size="14.00">[aggregate]</text>
<text text-anchor="middle" x="1948" y="-513.37" font-family="Times,serif" font-size="14.00">base</text>
</g>
<!-- base&#45;&gt;baseMacro -->
<g id="edge70" class="edge">
<title>base&#45;&gt;baseMacro</title>
<path fill="none" stroke="#aaaaaa" stroke-dasharray="5,2" d="M1982.38,-501.06C1991.39,-494.58 2000.85,-487.22 2009,-479.7 2093.44,-401.77 2113.44,-364.93 2130,-251.22 2133.44,-227.59 2138.78,-219.69 2130,-197.48 2109.4,-145.4 2061.88,-100.63 2027.04,-73.08"/>
<polygon fill="#aaaaaa" stroke="#aaaaaa" points="2018.92,-66.8 2029.58,-69.36 2022.88,-69.86 2026.83,-72.92 2026.83,-72.92 2026.83,-72.92 2022.88,-69.86 2024.07,-76.48 2018.92,-66.8 2018.92,-66.8"/>
</g>
<!-- base&#45;&gt;baseUtil -->
<g id="edge67" class="edge">
<title>base&#45;&gt;baseUtil</title>
<path fill="none" stroke="#aaaaaa" stroke-dasharray="5,2" d="M1918.63,-500.02C1903,-486.04 1884.65,-467.1 1873,-446.7 1828.36,-368.53 1831.88,-340.45 1820,-251.22 1816.85,-227.54 1809.56,-218.96 1820,-197.48 1827.03,-183.01 1839.18,-170.88 1851.92,-161.26"/>
<polygon fill="#aaaaaa" stroke="#aaaaaa" points="1860.33,-155.3 1854.77,-164.75 1856.25,-158.19 1852.17,-161.08 1852.17,-161.08 1852.17,-161.08 1856.25,-158.19 1849.57,-157.41 1860.33,-155.3 1860.33,-155.3"/>
</g>
<!-- base&#45;&gt;baseDb -->
<g id="edge68" class="edge">
<title>base&#45;&gt;baseDb</title>
<path fill="none" stroke="#aaaaaa" stroke-dasharray="5,2" d="M1978.21,-499.94C1993.9,-486.08 2012.04,-467.27 2023,-446.7 2038.57,-417.48 2042.94,-379.69 2043.79,-352.28"/>
<polygon fill="#aaaaaa" stroke="#aaaaaa" points="2043.96,-341.96 2048.3,-352.03 2043.88,-346.96 2043.8,-351.96 2043.8,-351.96 2043.8,-351.96 2043.88,-346.96 2039.3,-351.88 2043.96,-341.96 2043.96,-341.96"/>
</g>
<!-- base&#45;&gt;baseTest -->
<g id="edge69" class="edge">
<title>base&#45;&gt;baseTest</title>
<path fill="none" stroke="#aaaaaa" stroke-dasharray="5,2" d="M1948,-497.64C1948,-485.36 1948,-470.47 1948,-457.08"/>
<polygon fill="#aaaaaa" stroke="#aaaaaa" points="1948,-446.75 1952.5,-456.75 1948,-451.75 1948,-456.75 1948,-456.75 1948,-456.75 1948,-451.75 1943.5,-456.75 1948,-446.75 1948,-446.75"/>
</g>
<!-- taskmanDb -->
<g id="node8" class="node">
<title>taskmanDb</title>
<ellipse fill="#ffffff" stroke="black" cx="1664" cy="-419.83" rx="120.78" ry="18"/>
<text text-anchor="middle" x="1664" y="-416.13" font-family="Times,serif" font-size="14.00">taskman&#45;server&#45;schema</text>
</g>
<!-- taskmanDb&#45;&gt;baseDb -->
<g id="edge7" class="edge">
<title>taskmanDb&#45;&gt;baseDb</title>
<path fill="none" stroke="#cc0000" d="M1719.52,-403.78C1791.68,-384.22 1916.93,-350.27 1988.56,-330.85"/>
<polygon fill="#cc0000" stroke="#cc0000" points="1989.57,-334.2 1998.3,-328.21 1987.73,-327.45 1989.57,-334.2"/>
</g>
<!-- taskmanServerLogic -->
<g id="node9" class="node">
<title>taskmanServerLogic</title>
<ellipse fill="#ffffff" stroke="black" cx="1454" cy="-524.57" rx="107.78" ry="18"/>
<text text-anchor="middle" x="1454" y="-520.87" font-family="Times,serif" font-size="14.00">taskman&#45;server&#45;logic</text>
</g>
<!-- taskmanApiLogic -->
<g id="node11" class="node">
<title>taskmanApiLogic</title>
<ellipse fill="#ffffff" stroke="black" cx="1433" cy="-419.83" rx="92.08" ry="18"/>
<text text-anchor="middle" x="1433" y="-416.13" font-family="Times,serif" font-size="14.00">taskman&#45;api&#45;logic</text>
</g>
<!-- taskmanServerLogic&#45;&gt;taskmanApiLogic -->
<g id="edge14" class="edge">
<title>taskmanServerLogic&#45;&gt;taskmanApiLogic</title>
<path fill="none" stroke="#cc0000" d="M1450.44,-506.14C1447.17,-490.18 1442.29,-466.3 1438.53,-447.86"/>
<polygon fill="#cc0000" stroke="#cc0000" points="1441.94,-447.1 1436.51,-438 1435.08,-448.5 1441.94,-447.1"/>
</g>
<!-- taskmanApi -->
<g id="node10" class="node">
<title>taskmanApi</title>
<ellipse fill="#ffffff" stroke="black" cx="1647" cy="-524.57" rx="67.69" ry="18"/>
<text text-anchor="middle" x="1647" y="-520.87" font-family="Times,serif" font-size="14.00">taskman&#45;api</text>
</g>
<!-- taskmanApi&#45;&gt;baseDb -->
<g id="edge10" class="edge">
<title>taskmanApi&#45;&gt;baseDb</title>
<path fill="none" stroke="#cc0000" d="M1701.98,-513.9C1803.54,-495.82 2011.31,-457.74 2023,-446.7 2048.21,-422.89 2050.62,-381.65 2048.37,-351.88"/>
<polygon fill="#cc0000" stroke="#cc0000" points="2051.85,-351.49 2047.41,-341.87 2044.88,-352.16 2051.85,-351.49"/>
</g>
<!-- taskmanApi&#45;&gt;baseTest -->
<g id="edge13" class="edge">
<title>taskmanApi&#45;&gt;baseTest</title>
<path fill="none" stroke="#111111" stroke-dasharray="5,2" d="M1686.22,-509.73C1720.43,-497.7 1771.44,-479.87 1816,-464.7 1839.5,-456.7 1865.41,-448.06 1888,-440.57"/>
<polygon fill="#111111" stroke="#111111" points="1889.4,-443.79 1897.8,-437.33 1887.21,-437.15 1889.4,-443.79"/>
<text text-anchor="middle" x="1830" y="-468.5" font-family="Times,serif" font-size="14.00">test</text>
</g>
<!-- taskmanApi&#45;&gt;taskmanDb -->
<g id="edge12" class="edge">
<title>taskmanApi&#45;&gt;taskmanDb</title>
<path fill="none" stroke="#111111" stroke-dasharray="5,2" d="M1649.88,-506.14C1652.51,-490.25 1656.44,-466.52 1659.48,-448.12"/>
<polygon fill="#111111" stroke="#111111" points="1662.98,-448.44 1661.16,-438 1656.07,-447.3 1662.98,-448.44"/>
<text text-anchor="middle" x="1670" y="-468.5" font-family="Times,serif" font-size="14.00">test</text>
</g>
<!-- taskmanApi&#45;&gt;taskmanApiLogic -->
<g id="edge9" class="edge">
<title>taskmanApi&#45;&gt;taskmanApiLogic</title>
<path fill="none" stroke="#cc0000" d="M1607.38,-509.93C1578.62,-499.85 1542.35,-486.7 1528,-479.7 1506.27,-469.1 1483.19,-454.87 1465.22,-443.06"/>
<polygon fill="#cc0000" stroke="#cc0000" points="1467.1,-440.1 1456.83,-437.48 1463.22,-445.93 1467.1,-440.1"/>
</g>
<!-- taskmanApi&#45;&gt;taskmanApiLogic -->
<g id="edge11" class="edge">
<title>taskmanApi&#45;&gt;taskmanApiLogic</title>
<path fill="none" stroke="#111111" stroke-dasharray="5,2" d="M1615.42,-508.41C1578.32,-490.6 1516.59,-460.96 1475.36,-441.17"/>
<polygon fill="#111111" stroke="#111111" points="1476.64,-437.9 1466.11,-436.73 1473.61,-444.21 1476.64,-437.9"/>
<text text-anchor="middle" x="1577.5" y="-468.5" font-family="Times,serif" font-size="14.00">test&#45;lib</text>
</g>
<!-- taskmanApiLogic&#45;&gt;baseUtil -->
<g id="edge8" class="edge">
<title>taskmanApiLogic&#45;&gt;baseUtil</title>
<path fill="none" stroke="#cc0000" d="M1456.22,-402.17C1513.71,-361.3 1667.92,-253.93 1805,-178.48 1818.06,-171.29 1832.51,-164.2 1846.12,-157.89"/>
<polygon fill="#cc0000" stroke="#cc0000" points="1847.74,-161 1855.37,-153.65 1844.82,-154.63 1847.74,-161"/>
</g>
<!-- taskmanServer -->
<g id="node12" class="node">
<title>taskmanServer</title>
<ellipse fill="#00ccff" stroke="black" cx="1639" cy="-629.31" rx="83.39" ry="18"/>
<text text-anchor="middle" x="1639" y="-625.61" font-family="Times,serif" font-size="14.00">taskman&#45;server</text>
</g>
<!-- taskmanServer&#45;&gt;taskmanDb -->
<g id="edge17" class="edge">
<title>taskmanServer&#45;&gt;taskmanDb</title>
<path fill="none" stroke="#cc0000" d="M1670.19,-612.47C1689.59,-600.74 1712.88,-582.76 1724,-559.44 1735.81,-534.67 1732.93,-523.65 1724,-497.7 1717.12,-477.71 1702.68,-458.93 1689.68,-444.94"/>
<polygon fill="#cc0000" stroke="#cc0000" points="1692.14,-442.44 1682.67,-437.68 1687.1,-447.3 1692.14,-442.44"/>
</g>
<!-- taskmanServer&#45;&gt;taskmanServerLogic -->
<g id="edge15" class="edge">
<title>taskmanServer&#45;&gt;taskmanServerLogic</title>
<path fill="none" stroke="#cc0000" d="M1610.09,-612.26C1578.47,-594.69 1527.62,-566.46 1492.6,-547.01"/>
<polygon fill="#cc0000" stroke="#cc0000" points="1494.06,-543.82 1483.62,-542.02 1490.66,-549.94 1494.06,-543.82"/>
</g>
<!-- taskmanServer&#45;&gt;taskmanApi -->
<g id="edge16" class="edge">
<title>taskmanServer&#45;&gt;taskmanApi</title>
<path fill="none" stroke="#cc0000" d="M1640.36,-610.88C1641.59,-594.99 1643.44,-571.26 1644.87,-552.86"/>
<polygon fill="#cc0000" stroke="#cc0000" points="1648.38,-552.98 1645.66,-542.74 1641.4,-552.44 1648.38,-552.98"/>
</g>
<!-- taskman -->
<g id="node13" class="node">
<title>taskman</title>
<ellipse fill="#ffff80" stroke="black" cx="1639" cy="-720.05" rx="70.92" ry="26.74"/>
<text text-anchor="middle" x="1639" y="-723.85" font-family="Times,serif" font-size="14.00">[aggregate]</text>
<text text-anchor="middle" x="1639" y="-708.85" font-family="Times,serif" font-size="14.00">taskman</text>
</g>
<!-- taskman&#45;&gt;taskmanApi -->
<g id="edge61" class="edge">
<title>taskman&#45;&gt;taskmanApi</title>
<path fill="none" stroke="#aaaaaa" stroke-dasharray="5,2" d="M1684.95,-699.39C1702.68,-689.25 1721.07,-675 1731,-656.18 1742.15,-635.06 1740.63,-624.3 1731,-602.44 1720.91,-579.54 1700.26,-560.48 1681.95,-547.08"/>
<polygon fill="#aaaaaa" stroke="#aaaaaa" points="1673.76,-541.32 1684.53,-543.39 1677.85,-544.19 1681.94,-547.07 1681.94,-547.07 1681.94,-547.07 1677.85,-544.19 1679.35,-550.75 1673.76,-541.32 1673.76,-541.32"/>
</g>
<!-- taskman&#45;&gt;taskmanServer -->
<g id="edge62" class="edge">
<title>taskman&#45;&gt;taskmanServer</title>
<path fill="none" stroke="#aaaaaa" stroke-dasharray="5,2" d="M1639,-692.91C1639,-681.75 1639,-668.73 1639,-657.46"/>
<polygon fill="#aaaaaa" stroke="#aaaaaa" points="1639,-647.32 1643.5,-657.32 1639,-652.32 1639,-657.32 1639,-657.32 1639,-657.32 1639,-652.32 1634.5,-657.32 1639,-647.32 1639,-647.32"/>
</g>
<!-- webappMacro -->
<g id="node14" class="node">
<title>webappMacro</title>
<ellipse fill="#ffffff" stroke="black" cx="744" cy="-524.57" rx="85.62" ry="26.74"/>
<text text-anchor="middle" x="744" y="-528.37" font-family="Times,serif" font-size="14.00">webapp&#45;macro</text>
<text text-anchor="middle" x="744" y="-513.37" font-family="Times,serif" font-size="14.00">(JVM &amp; JS)</text>
</g>
<!-- webappMacro&#45;&gt;baseUtil -->
<g id="edge18" class="edge">
<title>webappMacro&#45;&gt;baseUtil</title>
<path fill="none" stroke="#cc0000" d="M753.49,-497.78C760.19,-477.23 768,-447.57 768,-420.83 768,-420.83 768,-420.83 768,-223.35 768,-170.25 1570.25,-143.66 1824.01,-136.58"/>
<polygon fill="#cc0000" stroke="#cc0000" points="1824.35,-140.07 1834.25,-136.3 1824.15,-133.08 1824.35,-140.07"/>
</g>
<!-- webappBase -->
<g id="node15" class="node">
<title>webappBase</title>
<ellipse fill="#ffffff" stroke="black" cx="898" cy="-419.83" rx="77.56" ry="26.74"/>
<text text-anchor="middle" x="898" y="-423.63" font-family="Times,serif" font-size="14.00">webapp&#45;base</text>
<text text-anchor="middle" x="898" y="-408.63" font-family="Times,serif" font-size="14.00">(JVM &amp; JS)</text>
</g>
<!-- webappMember -->
<g id="node16" class="node">
<title>webappMember</title>
<ellipse fill="#ffffff" stroke="black" cx="742" cy="-629.31" rx="96.33" ry="26.74"/>
<text text-anchor="middle" x="742" y="-633.11" font-family="Times,serif" font-size="14.00">webapp&#45;member</text>
<text text-anchor="middle" x="742" y="-618.11" font-family="Times,serif" font-size="14.00">(JVM &amp; JS)</text>
</g>
<!-- webappMember&#45;&gt;webappMacro -->
<g id="edge19" class="edge">
<title>webappMember&#45;&gt;webappMacro</title>
<path fill="none" stroke="#cc0000" d="M742.5,-602.39C742.74,-590.1 743.03,-575.21 743.29,-561.82"/>
<polygon fill="#cc0000" stroke="#cc0000" points="746.8,-561.55 743.5,-551.49 739.8,-561.42 746.8,-561.55"/>
</g>
<!-- webappMember&#45;&gt;webappBase -->
<g id="edge25" class="edge">
<title>webappMember&#45;&gt;webappBase</title>
<path fill="none" stroke="#cc0000" d="M784.8,-605.18C803.38,-593.44 824.23,-577.78 839,-559.44 863.58,-528.92 879.6,-486.64 888.66,-456.83"/>
<polygon fill="#cc0000" stroke="#cc0000" points="892.13,-457.42 891.57,-446.84 885.41,-455.46 892.13,-457.42"/>
</g>
<!-- webappSampleData -->
<g id="node17" class="node">
<title>webappSampleData</title>
<ellipse fill="#ffffff" stroke="black" cx="561" cy="-791.79" rx="112.36" ry="26.74"/>
<text text-anchor="middle" x="561" y="-795.59" font-family="Times,serif" font-size="14.00">webapp&#45;sampledata</text>
<text text-anchor="middle" x="561" y="-780.59" font-family="Times,serif" font-size="14.00">(JVM &amp; JS)</text>
</g>
<!-- webappSampleData&#45;&gt;webappMember -->
<g id="edge20" class="edge">
<title>webappSampleData&#45;&gt;webappMember</title>
<path fill="none" stroke="#cc0000" d="M589.28,-765.72C620.76,-737.8 671.71,-692.63 706.01,-662.22"/>
<polygon fill="#cc0000" stroke="#cc0000" points="708.76,-664.46 713.92,-655.21 704.11,-659.23 708.76,-664.46"/>
</g>
<!-- webappServerLogic -->
<g id="node18" class="node">
<title>webappServerLogic</title>
<ellipse fill="#ffffff" stroke="black" cx="1183" cy="-1073.01" rx="113.69" ry="26.74"/>
<text text-anchor="middle" x="1183" y="-1076.81" font-family="Times,serif" font-size="14.00">webapp&#45;server&#45;logic</text>
<text text-anchor="middle" x="1183" y="-1061.81" font-family="Times,serif" font-size="14.00">(JVM &amp; JS)</text>
</g>
<!-- webappServerLogic&#45;&gt;taskmanApiLogic -->
<g id="edge21" class="edge">
<title>webappServerLogic&#45;&gt;taskmanApiLogic</title>
<path fill="none" stroke="#cc0000" d="M1246.94,-1050.6C1281.84,-1034.45 1318,-1008.3 1318,-969.27 1318,-969.27 1318,-969.27 1318,-523.57 1318,-485.44 1353.6,-457.93 1385.19,-441.03"/>
<polygon fill="#cc0000" stroke="#cc0000" points="1387.07,-444 1394.39,-436.34 1383.89,-437.77 1387.07,-444"/>
</g>
<!-- webappSsrJvm -->
<g id="node22" class="node">
<title>webappSsrJvm</title>
<ellipse fill="#ffffff" stroke="black" cx="1148" cy="-968.27" rx="69.09" ry="26.74"/>
<text text-anchor="middle" x="1148" y="-972.07" font-family="Times,serif" font-size="14.00">webapp&#45;ssr</text>
<text text-anchor="middle" x="1148" y="-957.07" font-family="Times,serif" font-size="14.00">(JVM)</text>
</g>
<!-- webappServerLogic&#45;&gt;webappSsrJvm -->
<g id="edge23" class="edge">
<title>webappServerLogic&#45;&gt;webappSsrJvm</title>
<path fill="none" stroke="#cc0000" d="M1174.17,-1046.09C1169.9,-1033.55 1164.71,-1018.32 1160.08,-1004.73"/>
<polygon fill="#cc0000" stroke="#cc0000" points="1163.37,-1003.53 1156.83,-995.19 1156.74,-1005.78 1163.37,-1003.53"/>
</g>
<!-- webappClientPublic -->
<g id="node24" class="node">
<title>webappClientPublic</title>
<ellipse fill="#00ccff" stroke="black" cx="1148" cy="-629.31" rx="115.93" ry="26.74"/>
<text text-anchor="middle" x="1148" y="-633.11" font-family="Times,serif" font-size="14.00">webapp&#45;client&#45;public</text>
<text text-anchor="middle" x="1148" y="-618.11" font-family="Times,serif" font-size="14.00">(JVM &amp; JS)</text>
</g>
<!-- webappServerLogic&#45;&gt;webappClientPublic -->
<g id="edge22" class="edge">
<title>webappServerLogic&#45;&gt;webappClientPublic</title>
<path fill="none" stroke="#cc0000" d="M1204.86,-1046.41C1219.46,-1026.67 1236,-997.97 1236,-969.27 1236,-969.27 1236,-969.27 1236,-719.05 1236,-694.94 1219.42,-675.04 1200.65,-660.24"/>
<polygon fill="#cc0000" stroke="#cc0000" points="1202.63,-657.35 1192.52,-654.21 1198.47,-662.98 1202.63,-657.35"/>
</g>
<!-- webappMemberTest -->
<g id="node30" class="node">
<title>webappMemberTest</title>
<ellipse fill="white" stroke="blue" cx="797" cy="-968.27" rx="118.59" ry="26.74"/>
<text text-anchor="middle" x="797" y="-972.07" font-family="Times,serif" font-size="14.00">webapp&#45;member&#45;test</text>
<text text-anchor="middle" x="797" y="-957.07" font-family="Times,serif" font-size="14.00">(JVM &amp; JS)</text>
</g>
<!-- webappServerLogic&#45;&gt;webappMemberTest -->
<g id="edge24" class="edge">
<title>webappServerLogic&#45;&gt;webappMemberTest</title>
<path fill="none" stroke="#111111" stroke-dasharray="5,2" d="M1109.49,-1052.44C1044.54,-1035.16 949.84,-1009.95 881.73,-991.82"/>
<polygon fill="#111111" stroke="#111111" points="882.45,-988.39 871.88,-989.2 880.65,-995.16 882.45,-988.39"/>
<text text-anchor="middle" x="1028" y="-1016.94" font-family="Times,serif" font-size="14.00">test</text>
</g>
<!-- webappClientWwApi -->
<g id="node19" class="node">
<title>webappClientWwApi</title>
<ellipse fill="#ffffff" stroke="black" cx="463" cy="-968.27" rx="120.83" ry="26.74"/>
<text text-anchor="middle" x="463" y="-972.07" font-family="Times,serif" font-size="14.00">webapp&#45;client&#45;ww&#45;api</text>
<text text-anchor="middle" x="463" y="-957.07" font-family="Times,serif" font-size="14.00">(JS)</text>
</g>
<!-- webappClientWwApi&#45;&gt;webappMember -->
<g id="edge36" class="edge">
<title>webappClientWwApi&#45;&gt;webappMember</title>
<path fill="none" stroke="#cc0000" d="M451.91,-941.27C436.31,-900.3 413.44,-819.76 448,-764.92 491.5,-695.89 580.39,-661.85 649.09,-645.33"/>
<polygon fill="#cc0000" stroke="#cc0000" points="650.12,-648.68 659.07,-643.01 648.54,-641.86 650.12,-648.68"/>
</g>
<!-- webappClientLoaders -->
<g id="node20" class="node">
<title>webappClientLoaders</title>
<ellipse fill="#ffffff" stroke="black" cx="938" cy="-720.05" rx="122.16" ry="26.74"/>
<text text-anchor="middle" x="938" y="-723.85" font-family="Times,serif" font-size="14.00">webapp&#45;client&#45;loaders</text>
<text text-anchor="middle" x="938" y="-708.85" font-family="Times,serif" font-size="14.00">(JS)</text>
</g>
<!-- webappClientLoaders&#45;&gt;webappMember -->
<g id="edge31" class="edge">
<title>webappClientLoaders&#45;&gt;webappMember</title>
<path fill="none" stroke="#cc0000" d="M866.62,-698.15C847.82,-691.69 827.82,-683.93 810,-675.18 801.24,-670.88 792.26,-665.63 783.81,-660.26"/>
<polygon fill="#cc0000" stroke="#cc0000" points="785.53,-657.2 775.24,-654.66 781.7,-663.06 785.53,-657.2"/>
</g>
<!-- webappSsrShared -->
<g id="node21" class="node">
<title>webappSsrShared</title>
<ellipse fill="#ffffff" stroke="black" cx="1148" cy="-720.05" rx="69.09" ry="26.74"/>
<text text-anchor="middle" x="1148" y="-723.85" font-family="Times,serif" font-size="14.00">webapp&#45;ssr</text>
<text text-anchor="middle" x="1148" y="-708.85" font-family="Times,serif" font-size="14.00">(JVM &amp; JS)</text>
</g>
<!-- webappSsrShared&#45;&gt;webappMember -->
<g id="edge42" class="edge">
<title>webappSsrShared&#45;&gt;webappMember</title>
<path fill="none" stroke="#cc0000" d="M1097.71,-701.53C1088.23,-698.53 1078.36,-695.6 1069,-693.18 990.75,-672.93 900.42,-656.05 834.56,-644.89"/>
<polygon fill="#cc0000" stroke="#cc0000" points="835.06,-641.43 824.62,-643.22 833.9,-648.33 835.06,-641.43"/>
</g>
<!-- webappSsrShared&#45;&gt;webappClientPublic -->
<g id="edge43" class="edge">
<title>webappSsrShared&#45;&gt;webappClientPublic</title>
<path fill="none" stroke="#cc0000" d="M1148,-692.91C1148,-684.6 1148,-675.27 1148,-666.39"/>
<polygon fill="#cc0000" stroke="#cc0000" points="1151.5,-666.27 1148,-656.27 1144.5,-666.27 1151.5,-666.27"/>
</g>
<!-- webappSsrJvm&#45;&gt;webappSsrShared -->
<g id="edge44" class="edge">
<title>webappSsrJvm&#45;&gt;webappSsrShared</title>
<path fill="none" stroke="#cc0000" d="M1148,-941.39C1148,-897.24 1148,-807.29 1148,-757.05"/>
<polygon fill="#cc0000" stroke="#cc0000" points="1151.5,-756.96 1148,-746.96 1144.5,-756.96 1151.5,-756.96"/>
</g>
<!-- webappSsrJs -->
<g id="node23" class="node">
<title>webappSsrJs</title>
<ellipse fill="#ffffff" stroke="black" cx="1060" cy="-863.53" rx="69.09" ry="26.74"/>
<text text-anchor="middle" x="1060" y="-867.33" font-family="Times,serif" font-size="14.00">webapp&#45;ssr</text>
<text text-anchor="middle" x="1060" y="-852.33" font-family="Times,serif" font-size="14.00">(JS)</text>
</g>
<!-- webappSsrJvm&#45;&gt;webappSsrJs -->
<g id="edge47" class="edge">
<title>webappSsrJvm&#45;&gt;webappSsrJs</title>
<path fill="none" stroke="#111111" stroke-dasharray="5,2" d="M1126.92,-942.66C1115.25,-929.04 1100.6,-911.93 1087.98,-897.2"/>
<polygon fill="#111111" stroke="#111111" points="1090.37,-894.61 1081.21,-889.3 1085.06,-899.17 1090.37,-894.61"/>
<text text-anchor="middle" x="1118" y="-912.2" font-family="Times,serif" font-size="14.00">JS</text>
</g>
<!-- webappSsrJs&#45;&gt;webappClientLoaders -->
<g id="edge46" class="edge">
<title>webappSsrJs&#45;&gt;webappClientLoaders</title>
<path fill="none" stroke="#cc0000" d="M1038.75,-837.89C1018.83,-814.78 988.89,-780.06 966.82,-754.47"/>
<polygon fill="#cc0000" stroke="#cc0000" points="969.42,-752.13 960.24,-746.85 964.12,-756.71 969.42,-752.13"/>
</g>
<!-- webappSsrJs&#45;&gt;webappSsrShared -->
<g id="edge45" class="edge">
<title>webappSsrJs&#45;&gt;webappSsrShared</title>
<path fill="none" stroke="#cc0000" d="M1075.73,-837.24C1089.97,-814.34 1111.06,-780.44 1126.79,-755.15"/>
<polygon fill="#cc0000" stroke="#cc0000" points="1129.8,-756.94 1132.11,-746.6 1123.85,-753.25 1129.8,-756.94"/>
</g>
<!-- webappClientPublic&#45;&gt;webappBase -->
<g id="edge34" class="edge">
<title>webappClientPublic&#45;&gt;webappBase</title>
<path fill="none" stroke="#cc0000" d="M1080.6,-607.34C1051.87,-596.19 1019.24,-580.39 994,-559.44 959.3,-530.64 931.6,-486.3 915.04,-455.56"/>
<polygon fill="#cc0000" stroke="#cc0000" points="918.02,-453.71 910.26,-446.49 911.82,-456.97 918.02,-453.71"/>
</g>
<!-- webappBaseTest -->
<g id="node29" class="node">
<title>webappBaseTest</title>
<ellipse fill="white" stroke="blue" cx="1103" cy="-524.57" rx="100.32" ry="26.74"/>
<text text-anchor="middle" x="1103" y="-528.37" font-family="Times,serif" font-size="14.00">webapp&#45;base&#45;test</text>
<text text-anchor="middle" x="1103" y="-513.37" font-family="Times,serif" font-size="14.00">(JVM &amp; JS)</text>
</g>
<!-- webappClientPublic&#45;&gt;webappBaseTest -->
<g id="edge35" class="edge">
<title>webappClientPublic&#45;&gt;webappBaseTest</title>
<path fill="none" stroke="#111111" stroke-dasharray="5,2" d="M1136.64,-602.39C1131.16,-589.85 1124.48,-574.62 1118.53,-561.03"/>
<polygon fill="#111111" stroke="#111111" points="1121.57,-559.24 1114.35,-551.49 1115.16,-562.05 1121.57,-559.24"/>
<text text-anchor="middle" x="1143" y="-573.24" font-family="Times,serif" font-size="14.00">test</text>
</g>
<!-- webappClientHome -->
<g id="node25" class="node">
<title>webappClientHome</title>
<ellipse fill="#00ccff" stroke="black" cx="938" cy="-1073.01" rx="113.27" ry="26.74"/>
<text text-anchor="middle" x="938" y="-1076.81" font-family="Times,serif" font-size="14.00">webapp&#45;client&#45;home</text>
<text text-anchor="middle" x="938" y="-1061.81" font-family="Times,serif" font-size="14.00">(JS)</text>
</g>
<!-- webappClientHome&#45;&gt;webappClientLoaders -->
<g id="edge32" class="edge">
<title>webappClientHome&#45;&gt;webappClientLoaders</title>
<path fill="none" stroke="#cc0000" d="M938,-1045.92C938,-984.12 938,-828.68 938,-757.57"/>
<polygon fill="#cc0000" stroke="#cc0000" points="941.5,-757.31 938,-747.31 934.5,-757.32 941.5,-757.31"/>
</g>
<!-- webappClientHome&#45;&gt;webappMemberTest -->
<g id="edge33" class="edge">
<title>webappClientHome&#45;&gt;webappMemberTest</title>
<path fill="none" stroke="#111111" stroke-dasharray="5,2" d="M903.87,-1047.14C884.53,-1033.05 860.16,-1015.29 839.58,-1000.29"/>
<polygon fill="#111111" stroke="#111111" points="841.45,-997.33 831.31,-994.27 837.33,-1002.99 841.45,-997.33"/>
<text text-anchor="middle" x="890" y="-1016.94" font-family="Times,serif" font-size="14.00">test</text>
</g>
<!-- webappClientWw -->
<g id="node26" class="node">
<title>webappClientWw</title>
<ellipse fill="#00ccff" stroke="black" cx="704" cy="-1073.01" rx="102.56" ry="26.74"/>
<text text-anchor="middle" x="704" y="-1076.81" font-family="Times,serif" font-size="14.00">webapp&#45;client&#45;ww</text>
<text text-anchor="middle" x="704" y="-1061.81" font-family="Times,serif" font-size="14.00">(JS)</text>
</g>
<!-- webappClientWw&#45;&gt;webappClientWwApi -->
<g id="edge37" class="edge">
<title>webappClientWw&#45;&gt;webappClientWwApi</title>
<path fill="none" stroke="#cc0000" d="M659.52,-1048.76C637.13,-1037.42 609.41,-1023.94 584,-1013.14 568.93,-1006.73 552.57,-1000.4 536.9,-994.62"/>
<polygon fill="#cc0000" stroke="#cc0000" points="537.84,-991.24 527.24,-991.1 535.44,-997.82 537.84,-991.24"/>
</g>
<!-- webappClientWw&#45;&gt;webappMemberTest -->
<g id="edge38" class="edge">
<title>webappClientWw&#45;&gt;webappMemberTest</title>
<path fill="none" stroke="#111111" stroke-dasharray="5,2" d="M726.99,-1046.61C739.06,-1033.28 754,-1016.77 766.98,-1002.44"/>
<polygon fill="#111111" stroke="#111111" points="769.84,-1004.49 773.95,-994.73 764.65,-999.8 769.84,-1004.49"/>
<text text-anchor="middle" x="771" y="-1016.94" font-family="Times,serif" font-size="14.00">test</text>
</g>
<!-- webappClientProject -->
<g id="node27" class="node">
<title>webappClientProject</title>
<ellipse fill="#00ccff" stroke="black" cx="463" cy="-1073.01" rx="120.83" ry="26.74"/>
<text text-anchor="middle" x="463" y="-1076.81" font-family="Times,serif" font-size="14.00">webapp&#45;client&#45;project</text>
<text text-anchor="middle" x="463" y="-1061.81" font-family="Times,serif" font-size="14.00">(JS)</text>
</g>
<!-- webappClientProject&#45;&gt;webappClientWwApi -->
<g id="edge39" class="edge">
<title>webappClientProject&#45;&gt;webappClientWwApi</title>
<path fill="none" stroke="#cc0000" d="M463,-1046.09C463,-1033.8 463,-1018.91 463,-1005.52"/>
<polygon fill="#cc0000" stroke="#cc0000" points="466.5,-1005.19 463,-995.19 459.5,-1005.19 466.5,-1005.19"/>
</g>
<!-- webappClientProject&#45;&gt;webappClientLoaders -->
<g id="edge40" class="edge">
<title>webappClientProject&#45;&gt;webappClientLoaders</title>
<path fill="none" stroke="#cc0000" d="M549.94,-1054.26C598.52,-1043.97 650.1,-1032.26 654,-1028.14 680.9,-999.73 649.29,-975.2 669,-941.4 720.15,-853.67 820.24,-786.09 882.86,-750.06"/>
<polygon fill="#cc0000" stroke="#cc0000" points="884.85,-752.95 891.81,-744.97 881.39,-746.87 884.85,-752.95"/>
</g>
<!-- webappClientProject&#45;&gt;webappMemberTest -->
<g id="edge41" class="edge">
<title>webappClientProject&#45;&gt;webappMemberTest</title>
<path fill="none" stroke="#111111" stroke-dasharray="5,2" d="M531.8,-1050.85C586.23,-1034.11 662.24,-1010.72 718.94,-993.28"/>
<polygon fill="#111111" stroke="#111111" points="720.05,-996.6 728.58,-990.32 717.99,-989.91 720.05,-996.6"/>
<text text-anchor="middle" x="664" y="-1016.94" font-family="Times,serif" font-size="14.00">test</text>
</g>
<!-- webappServer -->
<g id="node28" class="node">
<title>webappServer</title>
<ellipse fill="#00ccff" stroke="black" cx="826" cy="-1163.75" rx="79.09" ry="18"/>
<text text-anchor="middle" x="826" y="-1160.05" font-family="Times,serif" font-size="14.00">webapp&#45;server</text>
</g>
<!-- webappServer&#45;&gt;taskmanApi -->
<g id="edge48" class="edge">
<title>webappServer&#45;&gt;taskmanApi</title>
<path fill="none" stroke="#cc0000" d="M903.39,-1159.54C1068.84,-1151.63 1442,-1127.83 1442,-1074.01 1442,-1074.01 1442,-1074.01 1442,-628.31 1442,-619.31 1544.28,-571.77 1604.35,-544.62"/>
<polygon fill="#cc0000" stroke="#cc0000" points="1605.93,-547.75 1613.61,-540.44 1603.05,-541.36 1605.93,-547.75"/>
</g>
<!-- webappServer&#45;&gt;webappServerLogic -->
<g id="edge49" class="edge">
<title>webappServer&#45;&gt;webappServerLogic</title>
<path fill="none" stroke="#cc0000" d="M877.53,-1149.94C934.77,-1135.72 1028.12,-1112.51 1096.58,-1095.49"/>
<polygon fill="#cc0000" stroke="#cc0000" points="1097.63,-1098.84 1106.49,-1093.03 1095.95,-1092.04 1097.63,-1098.84"/>
</g>
<!-- webappServer&#45;&gt;webappClientPublic -->
<g id="edge50" class="edge">
<title>webappServer&#45;&gt;webappClientPublic</title>
<path fill="none" stroke="#cc0000" stroke-dasharray="5,2" d="M901.53,-1158.25C1030,-1149.83 1279.77,-1129.77 1306,-1099.88 1321.75,-1081.93 1307.56,-1069.97 1306,-1046.14 1302.21,-988.33 1289,-974.84 1289,-916.9 1289,-916.9 1289,-916.9 1289,-719.05 1289,-687.73 1263.77,-667.03 1234.66,-653.57"/>
<polygon fill="#cc0000" stroke="#cc0000" points="1235.67,-650.19 1225.1,-649.45 1232.9,-656.62 1235.67,-650.19"/>
</g>
<!-- webappServer&#45;&gt;webappClientHome -->
<g id="edge51" class="edge">
<title>webappServer&#45;&gt;webappClientHome</title>
<path fill="none" stroke="#cc0000" stroke-dasharray="5,2" d="M846.8,-1146.27C861.16,-1134.9 880.7,-1119.41 898.01,-1105.7"/>
<polygon fill="#cc0000" stroke="#cc0000" points="900.63,-1108.09 906.29,-1099.13 896.28,-1102.6 900.63,-1108.09"/>
</g>
<!-- webappServer&#45;&gt;webappClientWw -->
<g id="edge53" class="edge">
<title>webappServer&#45;&gt;webappClientWw</title>
<path fill="none" stroke="#cc0000" stroke-dasharray="5,2" d="M803.62,-1146.48C787.49,-1134.74 765.24,-1118.56 745.86,-1104.46"/>
<polygon fill="#cc0000" stroke="#cc0000" points="747.9,-1101.61 737.75,-1098.56 743.78,-1107.27 747.9,-1101.61"/>
</g>
<!-- webappServer&#45;&gt;webappClientProject -->
<g id="edge52" class="edge">
<title>webappServer&#45;&gt;webappClientProject</title>
<path fill="none" stroke="#cc0000" stroke-dasharray="5,2" d="M773.99,-1150.04C716.25,-1135.92 622.04,-1112.89 552.42,-1095.87"/>
<polygon fill="#cc0000" stroke="#cc0000" points="552.87,-1092.38 542.33,-1093.4 551.21,-1099.18 552.87,-1092.38"/>
</g>
<!-- webappBaseTest&#45;&gt;baseTest -->
<g id="edge26" class="edge">
<title>webappBaseTest&#45;&gt;baseTest</title>
<path fill="none" stroke="#111111" d="M1165.57,-503.37C1210.52,-489.82 1272.85,-472.99 1329,-464.7 1534.92,-434.29 1589.97,-468.32 1797,-446.7 1824.21,-443.86 1853.92,-439.13 1879.74,-434.48"/>
<polygon fill="#111111" stroke="#111111" points="1880.6,-437.88 1889.81,-432.64 1879.34,-430.99 1880.6,-437.88"/>
</g>
<!-- webappBaseTest&#45;&gt;webappBase -->
<g id="edge27" class="edge">
<title>webappBaseTest&#45;&gt;webappBase</title>
<path fill="none" stroke="#111111" d="M1057.25,-500.64C1025.43,-484.69 982.96,-463.41 949.88,-446.83"/>
<polygon fill="#111111" stroke="#111111" points="951.32,-443.64 940.81,-442.29 948.18,-449.9 951.32,-443.64"/>
</g>
<!-- webappMemberTest&#45;&gt;webappMember -->
<g id="edge29" class="edge">
<title>webappMemberTest&#45;&gt;webappMember</title>
<path fill="none" stroke="#111111" d="M792.78,-941.39C783.04,-881.73 759,-734.45 747.85,-666.15"/>
<polygon fill="#111111" stroke="#111111" points="751.3,-665.59 746.24,-656.28 744.4,-666.71 751.3,-665.59"/>
</g>
<!-- webappMemberTest&#45;&gt;webappSampleData -->
<g id="edge30" class="edge">
<title>webappMemberTest&#45;&gt;webappSampleData</title>
<path fill="none" stroke="#111111" d="M747.49,-943.81C735.88,-937.66 723.76,-930.69 713,-923.4 669.24,-893.75 623.89,-853.29 594.24,-825.3"/>
<polygon fill="#111111" stroke="#111111" points="596.34,-822.46 586.69,-818.11 591.52,-827.54 596.34,-822.46"/>
<text text-anchor="middle" x="728" y="-912.2" font-family="Times,serif" font-size="14.00">JVM</text>
</g>
<!-- webappMemberTest&#45;&gt;webappBaseTest -->
<g id="edge28" class="edge">
<title>webappMemberTest&#45;&gt;webappBaseTest</title>
<path fill="none" stroke="#111111" d="M794.81,-941.32C790.24,-881.17 782.03,-734.28 807,-693.18 821.03,-670.1 966.18,-594.41 1047.87,-553.09"/>
<polygon fill="#111111" stroke="#111111" points="1049.68,-556.1 1057.03,-548.47 1046.52,-549.85 1049.68,-556.1"/>
</g>
<!-- webapp -->
<g id="node31" class="node">
<title>webapp</title>
<ellipse fill="#ffff80" stroke="blue" cx="735" cy="-1254.49" rx="70.92" ry="26.74"/>
<text text-anchor="middle" x="735" y="-1258.29" font-family="Times,serif" font-size="14.00">[aggregate]</text>
<text text-anchor="middle" x="735" y="-1243.29" font-family="Times,serif" font-size="14.00">webapp</text>
</g>
<!-- webapp&#45;&gt;webappClientHome -->
<g id="edge64" class="edge">
<title>webapp&#45;&gt;webappClientHome</title>
<path fill="none" stroke="#aaaaaa" stroke-dasharray="5,2" d="M802.37,-1246.14C840.46,-1238.46 885.94,-1222.75 914,-1190.62 933.16,-1168.69 938.5,-1135.59 939.43,-1110.24"/>
<polygon fill="#aaaaaa" stroke="#aaaaaa" points="939.58,-1099.91 943.93,-1109.98 939.51,-1104.91 939.43,-1109.91 939.43,-1109.91 939.43,-1109.91 939.51,-1104.91 934.93,-1109.85 939.58,-1099.91 939.58,-1099.91"/>
</g>
<!-- webapp&#45;&gt;webappClientWw -->
<g id="edge66" class="edge">
<title>webapp&#45;&gt;webappClientWw</title>
<path fill="none" stroke="#aaaaaa" stroke-dasharray="5,2" d="M730.49,-1227.39C725.17,-1196.56 716.27,-1145.06 710.27,-1110.34"/>
<polygon fill="#aaaaaa" stroke="#aaaaaa" points="708.51,-1100.14 714.65,-1109.23 709.36,-1105.07 710.22,-1109.99 710.22,-1109.99 710.22,-1109.99 709.36,-1105.07 705.78,-1110.76 708.51,-1100.14 708.51,-1100.14"/>
</g>
<!-- webapp&#45;&gt;webappClientProject -->
<g id="edge63" class="edge">
<title>webapp&#45;&gt;webappClientProject</title>
<path fill="none" stroke="#aaaaaa" stroke-dasharray="5,2" d="M700.83,-1230.94C652.2,-1198.86 562.95,-1139.97 508.69,-1104.16"/>
<polygon fill="#aaaaaa" stroke="#aaaaaa" points="500.3,-1098.62 511.12,-1100.37 504.47,-1101.38 508.64,-1104.13 508.64,-1104.13 508.64,-1104.13 504.47,-1101.38 506.17,-1107.89 500.3,-1098.62 500.3,-1098.62"/>
</g>
<!-- webapp&#45;&gt;webappServer -->
<g id="edge65" class="edge">
<title>webapp&#45;&gt;webappServer</title>
<path fill="none" stroke="#aaaaaa" stroke-dasharray="5,2" d="M759.87,-1229.24C772.89,-1216.55 788.77,-1201.06 801.7,-1188.44"/>
<polygon fill="#aaaaaa" stroke="#aaaaaa" points="808.94,-1181.39 804.92,-1191.59 805.36,-1184.88 801.78,-1188.37 801.78,-1188.37 801.78,-1188.37 805.36,-1184.88 798.64,-1185.15 808.94,-1181.39 808.94,-1181.39"/>
</g>
<!-- benchmark -->
<g id="node32" class="node">
<title>benchmark</title>
<ellipse fill="#ffffdd" stroke="black" cx="247" cy="-1345.23" rx="70.92" ry="26.74"/>
<text text-anchor="middle" x="247" y="-1349.03" font-family="Times,serif" font-size="14.00">[aggregate]</text>
<text text-anchor="middle" x="247" y="-1334.03" font-family="Times,serif" font-size="14.00">benchmark</text>
</g>
<!-- benchmarkJvm -->
<g id="node33" class="node">
<title>benchmarkJvm</title>
<ellipse fill="#ffcccc" stroke="black" cx="250" cy="-1254.49" rx="67.76" ry="26.74"/>
<text text-anchor="middle" x="250" y="-1258.29" font-family="Times,serif" font-size="14.00">benchmark</text>
<text text-anchor="middle" x="250" y="-1243.29" font-family="Times,serif" font-size="14.00">JVM</text>
</g>
<!-- benchmark&#45;&gt;benchmarkJvm -->
<g id="edge71" class="edge">
<title>benchmark&#45;&gt;benchmarkJvm</title>
<path fill="none" stroke="#aaaaaa" stroke-dasharray="5,2" d="M247.88,-1318.09C248.16,-1309.78 248.48,-1300.45 248.78,-1291.57"/>
<polygon fill="#aaaaaa" stroke="#aaaaaa" points="249.12,-1281.45 253.28,-1291.6 248.95,-1286.45 248.78,-1291.44 248.78,-1291.44 248.78,-1291.44 248.95,-1286.45 244.29,-1291.29 249.12,-1281.45 249.12,-1281.45"/>
</g>
<!-- benchmarkJs -->
<g id="node34" class="node">
<title>benchmarkJs</title>
<ellipse fill="#ffcccc" stroke="black" cx="96" cy="-1254.49" rx="67.76" ry="26.74"/>
<text text-anchor="middle" x="96" y="-1258.29" font-family="Times,serif" font-size="14.00">benchmark</text>
<text text-anchor="middle" x="96" y="-1243.29" font-family="Times,serif" font-size="14.00">JS</text>
</g>
<!-- benchmark&#45;&gt;benchmarkJs -->
<g id="edge72" class="edge">
<title>benchmark&#45;&gt;benchmarkJs</title>
<path fill="none" stroke="#aaaaaa" stroke-dasharray="5,2" d="M209.67,-1322.3C189.1,-1310.21 163.4,-1295.1 141.64,-1282.31"/>
<polygon fill="#aaaaaa" stroke="#aaaaaa" points="132.9,-1277.17 143.8,-1278.36 137.21,-1279.71 141.52,-1282.24 141.52,-1282.24 141.52,-1282.24 137.21,-1279.71 139.24,-1286.12 132.9,-1277.17 132.9,-1277.17"/>
</g>
<!-- benchmarkJvm&#45;&gt;webappServer -->
<g id="edge58" class="edge">
<title>benchmarkJvm&#45;&gt;webappServer</title>
<path fill="none" stroke="#cc0000" d="M299.53,-1235.89C309.53,-1232.79 320.03,-1229.85 330,-1227.62 472.52,-1195.84 641.91,-1178.68 741.32,-1170.65"/>
<polygon fill="#cc0000" stroke="#cc0000" points="741.61,-1174.13 751.31,-1169.85 741.06,-1167.16 741.61,-1174.13"/>
</g>
<!-- benchmarkShared -->
<g id="node35" class="node">
<title>benchmarkShared</title>
<ellipse fill="#ffcccc" stroke="black" cx="250" cy="-1163.75" rx="67.76" ry="26.74"/>
<text text-anchor="middle" x="250" y="-1167.55" font-family="Times,serif" font-size="14.00">benchmark</text>
<text text-anchor="middle" x="250" y="-1152.55" font-family="Times,serif" font-size="14.00">(shared)</text>
</g>
<!-- benchmarkJvm&#45;&gt;benchmarkShared -->
<g id="edge56" class="edge">
<title>benchmarkJvm&#45;&gt;benchmarkShared</title>
<path fill="none" stroke="#cc0000" d="M250,-1227.35C250,-1219.04 250,-1209.71 250,-1200.83"/>
<polygon fill="#cc0000" stroke="#cc0000" points="253.5,-1200.71 250,-1190.71 246.5,-1200.71 253.5,-1200.71"/>
</g>
<!-- benchmarkJs&#45;&gt;webappClientProject -->
<g id="edge59" class="edge">
<title>benchmarkJs&#45;&gt;webappClientProject</title>
<path fill="none" stroke="#cc0000" d="M145.92,-1236.01C154.89,-1233.07 164.19,-1230.15 173,-1227.62 240.65,-1208.17 264.31,-1222.64 327,-1190.62 368.09,-1169.63 407.23,-1133.81 432.88,-1107.39"/>
<polygon fill="#cc0000" stroke="#cc0000" points="435.69,-1109.51 440.07,-1099.87 430.63,-1104.68 435.69,-1109.51"/>
</g>
<!-- benchmarkJs&#45;&gt;benchmarkShared -->
<g id="edge57" class="edge">
<title>benchmarkJs&#45;&gt;benchmarkShared</title>
<path fill="none" stroke="#cc0000" d="M133.28,-1232.01C154.5,-1219.78 181.26,-1204.36 203.8,-1191.37"/>
<polygon fill="#cc0000" stroke="#cc0000" points="205.61,-1194.37 212.53,-1186.34 202.12,-1188.3 205.61,-1194.37"/>
</g>
<!-- benchmarkShared&#45;&gt;webappSampleData -->
<g id="edge54" class="edge">
<title>benchmarkShared&#45;&gt;webappSampleData</title>
<path fill="none" stroke="#cc0000" d="M255.82,-1136.88C259.28,-1119.26 263,-1095.34 263,-1074.01 263,-1074.01 263,-1074.01 263,-914.9 263,-870.02 380.23,-833.4 467.63,-812.34"/>
<polygon fill="#cc0000" stroke="#cc0000" points="468.67,-815.69 477.59,-809.97 467.06,-808.87 468.67,-815.69"/>
</g>
<!-- benchmarkShared&#45;&gt;webappMemberTest -->
<g id="edge55" class="edge">
<title>benchmarkShared&#45;&gt;webappMemberTest</title>
<path fill="none" stroke="#cc0000" d="M266.53,-1137.4C287.97,-1104.88 323.73,-1051.93 333,-1046.14 362.4,-1027.78 556.88,-999.97 684.55,-983.31"/>
<polygon fill="#cc0000" stroke="#cc0000" points="685.31,-986.74 694.77,-981.98 684.41,-979.8 685.31,-986.74"/>
</g>
<!-- utils -->
<g id="node36" class="node">
<title>utils</title>
<ellipse fill="#ffffdd" stroke="black" cx="93" cy="-1345.23" rx="31.4" ry="18"/>
<text text-anchor="middle" x="93" y="-1341.53" font-family="Times,serif" font-size="14.00">utils</text>
</g>
<!-- utils&#45;&gt;webappBase -->
<g id="edge60" class="edge">
<title>utils&#45;&gt;webappBase</title>
<path fill="none" stroke="#cc0000" d="M68.57,-1333.76C41.01,-1320.11 0,-1293.43 0,-1255.49 0,-1255.49 0,-1255.49 0,-523.57 0,-442.58 584.03,-425.4 810.1,-421.78"/>
<polygon fill="#cc0000" stroke="#cc0000" points="810.33,-425.28 820.27,-421.63 810.22,-418.28 810.33,-425.28"/>
</g>
<!-- root -->
<g id="node37" class="node">
<title>root</title>
<ellipse fill="#cccccc" stroke="black" cx="735" cy="-1435.97" rx="70.92" ry="26.74"/>
<text text-anchor="middle" x="735" y="-1439.77" font-family="Times,serif" font-size="14.00">[aggregate]</text>
<text text-anchor="middle" x="735" y="-1424.77" font-family="Times,serif" font-size="14.00">root</text>
</g>
<!-- root&#45;&gt;base -->
<g id="edge73" class="edge">
<title>root&#45;&gt;base</title>
<path fill="none" stroke="#aaaaaa" stroke-dasharray="5,2" d="M805.36,-1433.09C1050.62,-1426.05 1853,-1399.02 1853,-1346.23 1853,-1346.23 1853,-1346.23 1853,-628.31 1853,-597.02 1877.05,-571.2 1900.95,-553.28"/>
<polygon fill="#aaaaaa" stroke="#aaaaaa" points="1909.36,-547.27 1903.84,-556.75 1905.29,-550.18 1901.22,-553.09 1901.22,-553.09 1901.22,-553.09 1905.29,-550.18 1898.61,-549.42 1909.36,-547.27 1909.36,-547.27"/>
</g>
<!-- root&#45;&gt;taskman -->
<g id="edge75" class="edge">
<title>root&#45;&gt;taskman</title>
<path fill="none" stroke="#aaaaaa" stroke-dasharray="5,2" d="M806.03,-1435.12C1013.34,-1434.61 1603,-1426.14 1603,-1346.23 1603,-1346.23 1603,-1346.23 1603,-862.53 1603,-825.35 1614.82,-784.32 1624.92,-756.06"/>
<polygon fill="#aaaaaa" stroke="#aaaaaa" points="1628.39,-746.63 1629.16,-757.57 1626.66,-751.32 1624.94,-756.01 1624.94,-756.01 1624.94,-756.01 1626.66,-751.32 1620.71,-754.46 1628.39,-746.63 1628.39,-746.63"/>
</g>
<!-- root&#45;&gt;webapp -->
<g id="edge74" class="edge">
<title>root&#45;&gt;webapp</title>
<path fill="none" stroke="#aaaaaa" stroke-dasharray="5,2" d="M735,-1408.87C735,-1378.04 735,-1326.54 735,-1291.82"/>
<polygon fill="#aaaaaa" stroke="#aaaaaa" points="735,-1281.62 739.5,-1291.62 735,-1286.62 735,-1291.62 735,-1291.62 735,-1291.62 735,-1286.62 730.5,-1291.62 735,-1281.62 735,-1281.62"/>
</g>
<!-- root&#45;&gt;benchmark -->
<g id="edge76" class="edge">
<title>root&#45;&gt;benchmark</title>
<path fill="none" stroke="#aaaaaa" stroke-dasharray="5,2" d="M672.2,-1423.55C581.83,-1407.12 415.47,-1376.87 319.83,-1359.47"/>
<polygon fill="#aaaaaa" stroke="#aaaaaa" points="309.94,-1357.68 320.59,-1355.04 314.86,-1358.57 319.78,-1359.47 319.78,-1359.47 319.78,-1359.47 314.86,-1358.57 318.98,-1363.89 309.94,-1357.68 309.94,-1357.68"/>
</g>
<!-- root&#45;&gt;utils -->
<g id="edge77" class="edge">
<title>root&#45;&gt;utils</title>
<path fill="none" stroke="#aaaaaa" stroke-dasharray="5,2" d="M664.15,-1435.61C555.33,-1434.93 341.36,-1427 167,-1380.1 152.18,-1376.11 136.61,-1369.41 123.6,-1363.02"/>
<polygon fill="#aaaaaa" stroke="#aaaaaa" points="114.62,-1358.46 125.58,-1358.97 119.08,-1360.72 123.54,-1362.99 123.54,-1362.99 123.54,-1362.99 119.08,-1360.72 121.5,-1367 114.62,-1358.46 114.62,-1358.46"/>
</g>
</g>
</svg>
