<?xml version="1.0" encoding="UTF-8" standalone="no"?>
<!DOCTYPE svg PUBLIC "-//W3C//DTD SVG 1.1//EN"
 "http://www.w3.org/Graphics/SVG/1.1/DTD/svg11.dtd">
<!-- Generated by graphviz version 2.42.3 (0)
 -->
<!-- Title: G Pages: 1 -->
<svg width="1854pt" height="1576pt"
 viewBox="0.00 0.00 1854.00 1575.58" xmlns="http://www.w3.org/2000/svg" xmlns:xlink="http://www.w3.org/1999/xlink">
<g id="graph0" class="graph" transform="scale(1 1) rotate(0) translate(4 1571.58)">
<title>G</title>
<polygon fill="white" stroke="transparent" points="-4,4 -4,-1571.58 1850,-1571.58 1850,4 -4,4"/>
<g id="clust3" class="cluster">
<title>cluster_taskman</title>
<polygon fill="#eeeeff" stroke="black" points="1130,-393.83 1130,-768.92 1590,-768.92 1590,-393.83 1130,-393.83"/>
</g>
<g id="clust4" class="cluster">
<title>cluster_webapp</title>
<polygon fill="#eeeeff" stroke="black" points="334,-189.48 334,-1394.1 1122,-1394.1 1122,-189.48 334,-189.48"/>
</g>
<g id="clust1" class="cluster">
<title>cluster_base</title>
<polygon fill="#f4fff4" stroke="black" points="1630,-8 1630,-559.44 1838,-559.44 1838,-8 1630,-8"/>
</g>
<g id="clust5" class="cluster">
<title>cluster_supp</title>
<polygon fill="#fff2f2" stroke="black" points="20,-1233.62 20,-1484.84 326,-1484.84 326,-1233.62 20,-1233.62"/>
</g>
<!-- baseMacro -->
<g id="node1" class="node">
<title>baseMacro</title>
<ellipse fill="#bbffbb" stroke="black" cx="1746" cy="-42.87" rx="69.09" ry="26.74"/>
<text text-anchor="middle" x="1746" y="-46.67" font-family="Times,serif" font-size="14.00">base&#45;macro</text>
<text text-anchor="middle" x="1746" y="-31.67" font-family="Times,serif" font-size="14.00">(JVM &amp; JS)</text>
</g>
<!-- baseUtil -->
<g id="node2" class="node">
<title>baseUtil</title>
<ellipse fill="#bbffbb" stroke="black" cx="1724" cy="-133.61" rx="65.52" ry="26.74"/>
<text text-anchor="middle" x="1724" y="-137.41" font-family="Times,serif" font-size="14.00">base&#45;util</text>
<text text-anchor="middle" x="1724" y="-122.41" font-family="Times,serif" font-size="14.00">(JVM &amp; JS)</text>
</g>
<!-- baseUtil&#45;&gt;baseMacro -->
<g id="edge1" class="edge">
<title>baseUtil&#45;&gt;baseMacro</title>
<path fill="none" stroke="#cc0000" d="M1730.48,-106.47C1732.56,-98.07 1734.91,-88.62 1737.13,-79.66"/>
<polygon fill="#cc0000" stroke="#cc0000" points="1740.56,-80.38 1739.56,-69.83 1733.76,-78.69 1740.56,-80.38"/>
</g>
<!-- baseDb -->
<g id="node3" class="node">
<title>baseDb</title>
<ellipse fill="#bbffbb" stroke="black" cx="1694" cy="-315.09" rx="50.82" ry="26.74"/>
<text text-anchor="middle" x="1694" y="-318.89" font-family="Times,serif" font-size="14.00">base&#45;db</text>
<text text-anchor="middle" x="1694" y="-303.89" font-family="Times,serif" font-size="14.00">(JVM)</text>
</g>
<!-- baseOps -->
<g id="node4" class="node">
<title>baseOps</title>
<ellipse fill="#bbffbb" stroke="black" cx="1694" cy="-224.35" rx="55.72" ry="26.74"/>
<text text-anchor="middle" x="1694" y="-228.15" font-family="Times,serif" font-size="14.00">base&#45;ops</text>
<text text-anchor="middle" x="1694" y="-213.15" font-family="Times,serif" font-size="14.00">(JVM)</text>
</g>
<!-- baseDb&#45;&gt;baseOps -->
<g id="edge3" class="edge">
<title>baseDb&#45;&gt;baseOps</title>
<path fill="none" stroke="#cc0000" d="M1694,-287.95C1694,-279.64 1694,-270.31 1694,-261.43"/>
<polygon fill="#cc0000" stroke="#cc0000" points="1697.5,-261.31 1694,-251.31 1690.5,-261.31 1697.5,-261.31"/>
</g>
<!-- baseOps&#45;&gt;baseUtil -->
<g id="edge2" class="edge">
<title>baseOps&#45;&gt;baseUtil</title>
<path fill="none" stroke="#cc0000" d="M1702.68,-197.68C1705.57,-189.11 1708.86,-179.4 1711.96,-170.21"/>
<polygon fill="#cc0000" stroke="#cc0000" points="1715.35,-171.12 1715.24,-160.53 1708.72,-168.88 1715.35,-171.12"/>
</g>
<!-- baseTest -->
<g id="node5" class="node">
<title>baseTest</title>
<ellipse fill="white" stroke="darkgreen" cx="1704" cy="-419.83" rx="65.52" ry="26.74"/>
<text text-anchor="middle" x="1704" y="-423.63" font-family="Times,serif" font-size="14.00">base&#45;test</text>
<text text-anchor="middle" x="1704" y="-408.63" font-family="Times,serif" font-size="14.00">(JVM &amp; JS)</text>
</g>
<!-- baseTest&#45;&gt;baseUtil -->
<g id="edge4" class="edge">
<title>baseTest&#45;&gt;baseUtil</title>
<path fill="none" stroke="#111111" d="M1743.46,-398.19C1751.72,-391.9 1759.33,-384.17 1764,-374.96 1771.39,-360.39 1839.64,-451.51 1759,-189.48 1756.76,-182.2 1753.28,-174.96 1749.36,-168.23"/>
<polygon fill="#111111" stroke="#111111" points="1752.1,-166.02 1743.82,-159.42 1746.18,-169.75 1752.1,-166.02"/>
</g>
<!-- baseTest&#45;&gt;baseDb -->
<g id="edge5" class="edge">
<title>baseTest&#45;&gt;baseDb</title>
<path fill="none" stroke="#111111" stroke-dasharray="5,2" d="M1701.48,-392.9C1700.28,-380.62 1698.83,-365.73 1697.53,-352.34"/>
<polygon fill="#111111" stroke="#111111" points="1700.97,-351.62 1696.52,-342.01 1694.01,-352.3 1700.97,-351.62"/>
<text text-anchor="middle" x="1731" y="-363.76" font-family="Times,serif" font-size="14.00">provided</text>
</g>
<!-- base -->
<g id="node6" class="node">
<title>base</title>
<ellipse fill="#ffffdd" stroke="darkgreen" cx="1759" cy="-524.57" rx="70.92" ry="26.74"/>
<text text-anchor="middle" x="1759" y="-528.37" font-family="Times,serif" font-size="14.00">[aggregate]</text>
<text text-anchor="middle" x="1759" y="-513.37" font-family="Times,serif" font-size="14.00">base</text>
</g>
<!-- base&#45;&gt;baseMacro -->
<g id="edge67" class="edge">
<title>base&#45;&gt;baseMacro</title>
<path fill="none" stroke="#aaaaaa" stroke-dasharray="5,2" d="M1787.47,-499.63C1806.85,-480.53 1829,-451.91 1829,-420.83 1829,-420.83 1829,-420.83 1829,-132.61 1829,-107.69 1811.33,-86.88 1792.29,-71.68"/>
<polygon fill="#aaaaaa" stroke="#aaaaaa" points="1784.1,-65.52 1794.8,-67.93 1788.09,-68.52 1792.09,-71.53 1792.09,-71.53 1792.09,-71.53 1788.09,-68.52 1789.39,-75.13 1784.1,-65.52 1784.1,-65.52"/>
</g>
<!-- base&#45;&gt;baseUtil -->
<g id="edge64" class="edge">
<title>base&#45;&gt;baseUtil</title>
<path fill="none" stroke="#aaaaaa" stroke-dasharray="5,2" d="M1779.05,-498.6C1792.96,-478.73 1809,-449.59 1809,-420.83 1809,-420.83 1809,-420.83 1809,-223.35 1809,-197.85 1790.47,-176.82 1770.71,-161.64"/>
<polygon fill="#aaaaaa" stroke="#aaaaaa" points="1762.52,-155.7 1773.26,-157.93 1766.57,-158.64 1770.62,-161.57 1770.62,-161.57 1770.62,-161.57 1766.57,-158.64 1767.98,-165.21 1762.52,-155.7 1762.52,-155.7"/>
</g>
<!-- base&#45;&gt;baseDb -->
<g id="edge65" class="edge">
<title>base&#45;&gt;baseDb</title>
<path fill="none" stroke="#aaaaaa" stroke-dasharray="5,2" d="M1768.01,-497.49C1775.96,-471.09 1785.37,-429.11 1779,-392.96 1776.29,-377.59 1776.92,-372 1767,-359.96 1759.94,-351.4 1750.75,-344.09 1741.29,-338.03"/>
<polygon fill="#aaaaaa" stroke="#aaaaaa" points="1732.57,-332.82 1743.46,-334.08 1736.86,-335.38 1741.15,-337.95 1741.15,-337.95 1741.15,-337.95 1736.86,-335.38 1738.84,-341.81 1732.57,-332.82 1732.57,-332.82"/>
</g>
<!-- base&#45;&gt;baseTest -->
<g id="edge66" class="edge">
<title>base&#45;&gt;baseTest</title>
<path fill="none" stroke="#aaaaaa" stroke-dasharray="5,2" d="M1745.4,-498.17C1738.46,-485.21 1729.92,-469.25 1722.4,-455.2"/>
<polygon fill="#aaaaaa" stroke="#aaaaaa" points="1717.63,-446.29 1726.32,-452.98 1719.99,-450.7 1722.35,-455.11 1722.35,-455.11 1722.35,-455.11 1719.99,-450.7 1718.38,-457.23 1717.63,-446.29 1717.63,-446.29"/>
</g>
<!-- taskmanDb -->
<g id="node7" class="node">
<title>taskmanDb</title>
<ellipse fill="#ffffff" stroke="black" cx="1461" cy="-419.83" rx="120.78" ry="18"/>
<text text-anchor="middle" x="1461" y="-416.13" font-family="Times,serif" font-size="14.00">taskman&#45;server&#45;schema</text>
</g>
<!-- taskmanDb&#45;&gt;baseDb -->
<g id="edge6" class="edge">
<title>taskmanDb&#45;&gt;baseDb</title>
<path fill="none" stroke="#cc0000" d="M1497.66,-402.66C1537.78,-384.98 1602.23,-356.55 1646.27,-337.14"/>
<polygon fill="#cc0000" stroke="#cc0000" points="1647.88,-340.25 1655.61,-333.02 1645.05,-333.85 1647.88,-340.25"/>
</g>
<!-- taskmanServerLogic -->
<g id="node8" class="node">
<title>taskmanServerLogic</title>
<ellipse fill="#ffffff" stroke="black" cx="1246" cy="-524.57" rx="107.78" ry="18"/>
<text text-anchor="middle" x="1246" y="-520.87" font-family="Times,serif" font-size="14.00">taskman&#45;server&#45;logic</text>
</g>
<!-- taskmanApiLogic -->
<g id="node10" class="node">
<title>taskmanApiLogic</title>
<ellipse fill="#ffffff" stroke="black" cx="1230" cy="-419.83" rx="92.08" ry="18"/>
<text text-anchor="middle" x="1230" y="-416.13" font-family="Times,serif" font-size="14.00">taskman&#45;api&#45;logic</text>
</g>
<!-- taskmanServerLogic&#45;&gt;taskmanApiLogic -->
<g id="edge13" class="edge">
<title>taskmanServerLogic&#45;&gt;taskmanApiLogic</title>
<path fill="none" stroke="#cc0000" d="M1243.29,-506.14C1240.81,-490.25 1237.12,-466.52 1234.25,-448.12"/>
<polygon fill="#cc0000" stroke="#cc0000" points="1237.67,-447.34 1232.67,-438 1230.75,-448.42 1237.67,-447.34"/>
</g>
<!-- taskmanApi -->
<g id="node9" class="node">
<title>taskmanApi</title>
<ellipse fill="#ffffff" stroke="black" cx="1439" cy="-524.57" rx="67.69" ry="18"/>
<text text-anchor="middle" x="1439" y="-520.87" font-family="Times,serif" font-size="14.00">taskman&#45;api</text>
</g>
<!-- taskmanApi&#45;&gt;baseDb -->
<g id="edge9" class="edge">
<title>taskmanApi&#45;&gt;baseDb</title>
<path fill="none" stroke="#cc0000" d="M1478.32,-509.85C1511,-497.09 1557.41,-475.67 1591,-446.7 1613.15,-427.59 1611.09,-416.09 1629,-392.96 1640.8,-377.71 1654.51,-361.33 1666.28,-347.62"/>
<polygon fill="#cc0000" stroke="#cc0000" points="1669.07,-349.74 1672.96,-339.88 1663.78,-345.16 1669.07,-349.74"/>
</g>
<!-- taskmanApi&#45;&gt;baseTest -->
<g id="edge12" class="edge">
<title>taskmanApi&#45;&gt;baseTest</title>
<path fill="none" stroke="#111111" stroke-dasharray="5,2" d="M1488.25,-512.12C1516.42,-504.67 1552.01,-493.74 1582,-479.7 1593.05,-474.53 1594.28,-470.52 1605,-464.7 1618.96,-457.12 1634.49,-449.76 1649.03,-443.31"/>
<polygon fill="#111111" stroke="#111111" points="1650.66,-446.42 1658.42,-439.21 1647.85,-440.01 1650.66,-446.42"/>
<text text-anchor="middle" x="1619" y="-468.5" font-family="Times,serif" font-size="14.00">test</text>
</g>
<!-- taskmanApi&#45;&gt;taskmanDb -->
<g id="edge11" class="edge">
<title>taskmanApi&#45;&gt;taskmanDb</title>
<path fill="none" stroke="#111111" stroke-dasharray="5,2" d="M1442.73,-506.14C1446.15,-490.18 1451.26,-466.3 1455.21,-447.86"/>
<polygon fill="#111111" stroke="#111111" points="1458.65,-448.51 1457.32,-438 1451.81,-447.05 1458.65,-448.51"/>
<text text-anchor="middle" x="1465" y="-468.5" font-family="Times,serif" font-size="14.00">test</text>
</g>
<!-- taskmanApi&#45;&gt;taskmanApiLogic -->
<g id="edge8" class="edge">
<title>taskmanApi&#45;&gt;taskmanApiLogic</title>
<path fill="none" stroke="#cc0000" d="M1404.73,-508.9C1385.79,-500.62 1361.94,-489.93 1341,-479.7 1316.58,-467.78 1289.65,-453.52 1268.42,-442.02"/>
<polygon fill="#cc0000" stroke="#cc0000" points="1269.86,-438.82 1259.41,-437.11 1266.52,-444.97 1269.86,-438.82"/>
</g>
<!-- taskmanApi&#45;&gt;taskmanApiLogic -->
<g id="edge10" class="edge">
<title>taskmanApi&#45;&gt;taskmanApiLogic</title>
<path fill="none" stroke="#111111" stroke-dasharray="5,2" d="M1412.12,-507.83C1390.7,-495.53 1359.81,-478.29 1332,-464.7 1314.46,-456.13 1294.84,-447.48 1277.53,-440.15"/>
<polygon fill="#111111" stroke="#111111" points="1278.75,-436.86 1268.18,-436.22 1276.04,-443.32 1278.75,-436.86"/>
<text text-anchor="middle" x="1383.5" y="-468.5" font-family="Times,serif" font-size="14.00">test&#45;lib</text>
</g>
<!-- taskmanApiLogic&#45;&gt;baseUtil -->
<g id="edge7" class="edge">
<title>taskmanApiLogic&#45;&gt;baseUtil</title>
<path fill="none" stroke="#cc0000" d="M1258.33,-402.53C1340.23,-355.41 1577.77,-218.74 1678.25,-160.93"/>
<polygon fill="#cc0000" stroke="#cc0000" points="1680.05,-163.94 1686.97,-155.92 1676.56,-157.87 1680.05,-163.94"/>
</g>
<!-- taskmanServer -->
<g id="node11" class="node">
<title>taskmanServer</title>
<ellipse fill="#00ccff" stroke="black" cx="1439" cy="-629.31" rx="83.39" ry="18"/>
<text text-anchor="middle" x="1439" y="-625.61" font-family="Times,serif" font-size="14.00">taskman&#45;server</text>
</g>
<!-- taskmanServer&#45;&gt;taskmanDb -->
<g id="edge16" class="edge">
<title>taskmanServer&#45;&gt;taskmanDb</title>
<path fill="none" stroke="#cc0000" d="M1466.56,-612.3C1484.31,-600.28 1505.9,-582.03 1516,-559.44 1527.2,-534.39 1524.38,-523.83 1516,-497.7 1509.75,-478.24 1496.57,-459.52 1484.67,-445.42"/>
<polygon fill="#cc0000" stroke="#cc0000" points="1487.11,-442.89 1477.88,-437.69 1481.85,-447.51 1487.11,-442.89"/>
</g>
<!-- taskmanServer&#45;&gt;taskmanServerLogic -->
<g id="edge14" class="edge">
<title>taskmanServer&#45;&gt;taskmanServerLogic</title>
<path fill="none" stroke="#cc0000" d="M1409.27,-612.48C1376.12,-594.84 1322.37,-566.23 1285.67,-546.69"/>
<polygon fill="#cc0000" stroke="#cc0000" points="1287.2,-543.54 1276.72,-541.93 1283.91,-549.71 1287.2,-543.54"/>
</g>
<!-- taskmanServer&#45;&gt;taskmanApi -->
<g id="edge15" class="edge">
<title>taskmanServer&#45;&gt;taskmanApi</title>
<path fill="none" stroke="#cc0000" d="M1439,-610.88C1439,-594.99 1439,-571.26 1439,-552.86"/>
<polygon fill="#cc0000" stroke="#cc0000" points="1442.5,-552.74 1439,-542.74 1435.5,-552.74 1442.5,-552.74"/>
</g>
<!-- taskman -->
<g id="node12" class="node">
<title>taskman</title>
<ellipse fill="#ffff80" stroke="black" cx="1337" cy="-734.05" rx="70.92" ry="26.74"/>
<text text-anchor="middle" x="1337" y="-737.85" font-family="Times,serif" font-size="14.00">[aggregate]</text>
<text text-anchor="middle" x="1337" y="-722.85" font-family="Times,serif" font-size="14.00">taskman</text>
</g>
<!-- taskman&#45;&gt;taskmanApi -->
<g id="edge58" class="edge">
<title>taskman&#45;&gt;taskmanApi</title>
<path fill="none" stroke="#aaaaaa" stroke-dasharray="5,2" d="M1333.31,-707.16C1330.62,-679.61 1329.98,-635.5 1347,-602.44 1359.12,-578.91 1381.9,-559.78 1401.76,-546.5"/>
<polygon fill="#aaaaaa" stroke="#aaaaaa" points="1410.35,-540.99 1404.36,-550.18 1406.14,-543.69 1401.93,-546.39 1401.93,-546.39 1401.93,-546.39 1406.14,-543.69 1399.5,-542.6 1410.35,-540.99 1410.35,-540.99"/>
</g>
<!-- taskman&#45;&gt;taskmanServer -->
<g id="edge59" class="edge">
<title>taskman&#45;&gt;taskmanServer</title>
<path fill="none" stroke="#aaaaaa" stroke-dasharray="5,2" d="M1361.17,-708.7C1377.52,-692.24 1399.01,-670.59 1415.26,-654.22"/>
<polygon fill="#aaaaaa" stroke="#aaaaaa" points="1422.33,-647.1 1418.48,-657.37 1418.81,-650.65 1415.28,-654.2 1415.28,-654.2 1415.28,-654.2 1418.81,-650.65 1412.09,-651.03 1422.33,-647.1 1422.33,-647.1"/>
</g>
<!-- webappMacro -->
<g id="node13" class="node">
<title>webappMacro</title>
<ellipse fill="#ffffff" stroke="black" cx="728" cy="-224.35" rx="85.62" ry="26.74"/>
<text text-anchor="middle" x="728" y="-228.15" font-family="Times,serif" font-size="14.00">webapp&#45;macro</text>
<text text-anchor="middle" x="728" y="-213.15" font-family="Times,serif" font-size="14.00">(JVM &amp; JS)</text>
</g>
<!-- webappMacro&#45;&gt;baseUtil -->
<g id="edge17" class="edge">
<title>webappMacro&#45;&gt;baseUtil</title>
<path fill="none" stroke="#cc0000" d="M809.51,-216.09C999.19,-199.19 1467.87,-157.43 1649.97,-141.21"/>
<polygon fill="#cc0000" stroke="#cc0000" points="1650.34,-144.69 1659.99,-140.31 1649.72,-137.71 1650.34,-144.69"/>
</g>
<!-- webappBase -->
<g id="node14" class="node">
<title>webappBase</title>
<ellipse fill="#ffffff" stroke="black" cx="424" cy="-315.09" rx="77.56" ry="26.74"/>
<text text-anchor="middle" x="424" y="-318.89" font-family="Times,serif" font-size="14.00">webapp&#45;base</text>
<text text-anchor="middle" x="424" y="-303.89" font-family="Times,serif" font-size="14.00">(JVM &amp; JS)</text>
</g>
<!-- webappBase&#45;&gt;webappMacro -->
<g id="edge18" class="edge">
<title>webappBase&#45;&gt;webappMacro</title>
<path fill="none" stroke="#cc0000" d="M482.25,-297.09C532.08,-282.54 603.96,-261.56 657.12,-246.04"/>
<polygon fill="#cc0000" stroke="#cc0000" points="658.2,-249.37 666.81,-243.21 656.23,-242.65 658.2,-249.37"/>
</g>
<!-- webappBaseMember -->
<g id="node15" class="node">
<title>webappBaseMember</title>
<ellipse fill="#ffffff" stroke="black" cx="689" cy="-419.83" rx="122.16" ry="26.74"/>
<text text-anchor="middle" x="689" y="-423.63" font-family="Times,serif" font-size="14.00">webapp&#45;base&#45;member</text>
<text text-anchor="middle" x="689" y="-408.63" font-family="Times,serif" font-size="14.00">(JVM &amp; JS)</text>
</g>
<!-- webappBaseMember&#45;&gt;webappBase -->
<g id="edge24" class="edge">
<title>webappBaseMember&#45;&gt;webappBase</title>
<path fill="none" stroke="#cc0000" d="M630.52,-396.16C586.92,-379.26 527.59,-356.25 483.7,-339.24"/>
<polygon fill="#cc0000" stroke="#cc0000" points="484.89,-335.95 474.31,-335.59 482.36,-342.47 484.89,-335.95"/>
</g>
<!-- webappSampleData -->
<g id="node16" class="node">
<title>webappSampleData</title>
<ellipse fill="#ffffff" stroke="black" cx="548" cy="-524.57" rx="112.36" ry="26.74"/>
<text text-anchor="middle" x="548" y="-528.37" font-family="Times,serif" font-size="14.00">webapp&#45;sampledata</text>
<text text-anchor="middle" x="548" y="-513.37" font-family="Times,serif" font-size="14.00">(JVM &amp; JS)</text>
</g>
<!-- webappSampleData&#45;&gt;webappBaseMember -->
<g id="edge19" class="edge">
<title>webappSampleData&#45;&gt;webappBaseMember</title>
<path fill="none" stroke="#cc0000" d="M582.13,-498.7C601.47,-484.61 625.84,-466.85 646.42,-451.85"/>
<polygon fill="#cc0000" stroke="#cc0000" points="648.67,-454.55 654.69,-445.83 644.55,-448.89 648.67,-454.55"/>
</g>
<!-- webappServerLogic -->
<g id="node17" class="node">
<title>webappServerLogic</title>
<ellipse fill="#ffffff" stroke="black" cx="456" cy="-1177.75" rx="113.69" ry="26.74"/>
<text text-anchor="middle" x="456" y="-1181.55" font-family="Times,serif" font-size="14.00">webapp&#45;server&#45;logic</text>
<text text-anchor="middle" x="456" y="-1166.55" font-family="Times,serif" font-size="14.00">(JVM &amp; JS)</text>
</g>
<!-- webappServerLogic&#45;&gt;taskmanApiLogic -->
<g id="edge20" class="edge">
<title>webappServerLogic&#45;&gt;taskmanApiLogic</title>
<path fill="none" stroke="#cc0000" d="M414.27,-1152.7C407.51,-1147.03 401.32,-1140.41 397,-1132.88 349.89,-1050.84 333.46,-771.33 403,-707.18 433.69,-678.88 549.16,-697.84 590,-689.18 832.11,-637.87 1097.73,-496.13 1193.26,-442.12"/>
<polygon fill="#cc0000" stroke="#cc0000" points="1195.27,-445 1202.23,-437.02 1191.81,-438.92 1195.27,-445"/>
</g>
<!-- webappSsrJvm -->
<g id="node21" class="node">
<title>webappSsrJvm</title>
<ellipse fill="#ffffff" stroke="black" cx="558" cy="-1034.27" rx="69.09" ry="26.74"/>
<text text-anchor="middle" x="558" y="-1038.07" font-family="Times,serif" font-size="14.00">webapp&#45;ssr</text>
<text text-anchor="middle" x="558" y="-1023.07" font-family="Times,serif" font-size="14.00">(JVM)</text>
</g>
<!-- webappServerLogic&#45;&gt;webappSsrJvm -->
<g id="edge22" class="edge">
<title>webappServerLogic&#45;&gt;webappSsrJvm</title>
<path fill="none" stroke="#cc0000" d="M474.47,-1151.13C491.18,-1127.95 515.89,-1093.68 534.1,-1068.42"/>
<polygon fill="#cc0000" stroke="#cc0000" points="537,-1070.39 540.01,-1060.23 531.32,-1066.29 537,-1070.39"/>
</g>
<!-- webappClientPublic -->
<g id="node23" class="node">
<title>webappClientPublic</title>
<ellipse fill="#00ccff" stroke="black" cx="528" cy="-734.05" rx="115.93" ry="26.74"/>
<text text-anchor="middle" x="528" y="-737.85" font-family="Times,serif" font-size="14.00">webapp&#45;client&#45;public</text>
<text text-anchor="middle" x="528" y="-722.85" font-family="Times,serif" font-size="14.00">(JVM &amp; JS)</text>
</g>
<!-- webappServerLogic&#45;&gt;webappClientPublic -->
<g id="edge21" class="edge">
<title>webappServerLogic&#45;&gt;webappClientPublic</title>
<path fill="none" stroke="#cc0000" d="M451.37,-1150.79C438,-1072.65 402.63,-841.23 441,-778.92 444.9,-772.58 450.03,-767.13 455.86,-762.44"/>
<polygon fill="#cc0000" stroke="#cc0000" points="458.06,-765.16 464.17,-756.51 454,-759.46 458.06,-765.16"/>
</g>
<!-- webappBaseTest -->
<g id="node28" class="node">
<title>webappBaseTest</title>
<ellipse fill="white" stroke="blue" cx="580" cy="-629.31" rx="100.32" ry="26.74"/>
<text text-anchor="middle" x="580" y="-633.11" font-family="Times,serif" font-size="14.00">webapp&#45;base&#45;test</text>
<text text-anchor="middle" x="580" y="-618.11" font-family="Times,serif" font-size="14.00">(JVM &amp; JS)</text>
</g>
<!-- webappServerLogic&#45;&gt;webappBaseTest -->
<g id="edge23" class="edge">
<title>webappServerLogic&#45;&gt;webappBaseTest</title>
<path fill="none" stroke="#111111" stroke-dasharray="5,2" d="M436.76,-1151.15C418.23,-1123.92 393,-1078.83 393,-1035.27 393,-1035.27 393,-1035.27 393,-733.05 393,-686.1 438.83,-660.46 485.11,-646.53"/>
<polygon fill="#111111" stroke="#111111" points="486.32,-649.83 494.98,-643.74 484.41,-643.1 486.32,-649.83"/>
<text text-anchor="middle" x="407" y="-873.46" font-family="Times,serif" font-size="14.00">test</text>
</g>
<!-- webappClientWwApi -->
<g id="node18" class="node">
<title>webappClientWwApi</title>
<ellipse fill="#ffffff" stroke="black" cx="993" cy="-1034.27" rx="120.83" ry="26.74"/>
<text text-anchor="middle" x="993" y="-1038.07" font-family="Times,serif" font-size="14.00">webapp&#45;client&#45;ww&#45;api</text>
<text text-anchor="middle" x="993" y="-1023.07" font-family="Times,serif" font-size="14.00">(JS)</text>
</g>
<!-- webappClientWwApi&#45;&gt;webappBaseMember -->
<g id="edge33" class="edge">
<title>webappClientWwApi&#45;&gt;webappBaseMember</title>
<path fill="none" stroke="#cc0000" d="M973.2,-1007.35C959.98,-987.44 945,-958.68 945,-930.53 945,-930.53 945,-930.53 945,-778.92 945,-634.51 805.51,-508.18 732.46,-451.92"/>
<polygon fill="#cc0000" stroke="#cc0000" points="734.41,-449 724.33,-445.74 730.17,-454.57 734.41,-449"/>
</g>
<!-- webappClientLoaders -->
<g id="node19" class="node">
<title>webappClientLoaders</title>
<ellipse fill="#ffffff" stroke="black" cx="764" cy="-824.79" rx="122.16" ry="26.74"/>
<text text-anchor="middle" x="764" y="-828.59" font-family="Times,serif" font-size="14.00">webapp&#45;client&#45;loaders</text>
<text text-anchor="middle" x="764" y="-813.59" font-family="Times,serif" font-size="14.00">(JS)</text>
</g>
<!-- webappClientLoaders&#45;&gt;webappBaseMember -->
<g id="edge28" class="edge">
<title>webappClientLoaders&#45;&gt;webappBaseMember</title>
<path fill="none" stroke="#cc0000" d="M750.23,-797.77C742.34,-780.48 734,-757.01 734,-735.05 734,-735.05 734,-735.05 734,-523.57 734,-499.36 723.39,-474.44 712.47,-455.2"/>
<polygon fill="#cc0000" stroke="#cc0000" points="715.42,-453.32 707.3,-446.52 709.41,-456.9 715.42,-453.32"/>
</g>
<!-- webappSsrShared -->
<g id="node20" class="node">
<title>webappSsrShared</title>
<ellipse fill="#ffffff" stroke="black" cx="554" cy="-824.79" rx="69.09" ry="26.74"/>
<text text-anchor="middle" x="554" y="-828.59" font-family="Times,serif" font-size="14.00">webapp&#45;ssr</text>
<text text-anchor="middle" x="554" y="-813.59" font-family="Times,serif" font-size="14.00">(JVM &amp; JS)</text>
</g>
<!-- webappSsrShared&#45;&gt;webappBaseMember -->
<g id="edge39" class="edge">
<title>webappSsrShared&#45;&gt;webappBaseMember</title>
<path fill="none" stroke="#cc0000" d="M601.48,-804.98C643.77,-786.71 699,-758.37 699,-735.05 699,-735.05 699,-735.05 699,-523.57 699,-501.39 696.66,-476.65 694.25,-457"/>
<polygon fill="#cc0000" stroke="#cc0000" points="697.7,-456.41 692.95,-446.94 690.76,-457.31 697.7,-456.41"/>
</g>
<!-- webappSsrShared&#45;&gt;webappClientPublic -->
<g id="edge40" class="edge">
<title>webappSsrShared&#45;&gt;webappClientPublic</title>
<path fill="none" stroke="#cc0000" d="M546.34,-797.65C543.88,-789.25 541.11,-779.8 538.49,-770.84"/>
<polygon fill="#cc0000" stroke="#cc0000" points="541.78,-769.62 535.61,-761.01 535.06,-771.59 541.78,-769.62"/>
</g>
<!-- webappSsrJvm&#45;&gt;webappSsrShared -->
<g id="edge41" class="edge">
<title>webappSsrJvm&#45;&gt;webappSsrShared</title>
<path fill="none" stroke="#cc0000" d="M541.86,-1008.07C533.54,-993.57 524.27,-974.67 520,-956.4 514.57,-933.14 515.06,-926.03 520,-902.66 523.06,-888.19 529.03,-873.12 535.12,-860.2"/>
<polygon fill="#cc0000" stroke="#cc0000" points="538.27,-861.73 539.54,-851.21 531.99,-858.64 538.27,-861.73"/>
</g>
<!-- webappSsrJs -->
<g id="node22" class="node">
<title>webappSsrJs</title>
<ellipse fill="#ffffff" stroke="black" cx="598" cy="-929.53" rx="69.09" ry="26.74"/>
<text text-anchor="middle" x="598" y="-933.33" font-family="Times,serif" font-size="14.00">webapp&#45;ssr</text>
<text text-anchor="middle" x="598" y="-918.33" font-family="Times,serif" font-size="14.00">(JS)</text>
</g>
<!-- webappSsrJvm&#45;&gt;webappSsrJs -->
<g id="edge44" class="edge">
<title>webappSsrJvm&#45;&gt;webappSsrJs</title>
<path fill="none" stroke="#111111" stroke-dasharray="5,2" d="M567.99,-1007.61C572.91,-994.98 578.91,-979.57 584.25,-965.85"/>
<polygon fill="#111111" stroke="#111111" points="587.63,-966.81 588,-956.22 581.11,-964.27 587.63,-966.81"/>
<text text-anchor="middle" x="589" y="-978.2" font-family="Times,serif" font-size="14.00">JS</text>
</g>
<!-- webappSsrJs&#45;&gt;webappClientLoaders -->
<g id="edge43" class="edge">
<title>webappSsrJs&#45;&gt;webappClientLoaders</title>
<path fill="none" stroke="#cc0000" d="M628.88,-905.18C644.22,-893.95 663.25,-880.59 681,-869.66 689.43,-864.47 698.54,-859.28 707.52,-854.37"/>
<polygon fill="#cc0000" stroke="#cc0000" points="709.29,-857.39 716.43,-849.57 705.97,-851.23 709.29,-857.39"/>
</g>
<!-- webappSsrJs&#45;&gt;webappSsrShared -->
<g id="edge42" class="edge">
<title>webappSsrJs&#45;&gt;webappSsrShared</title>
<path fill="none" stroke="#cc0000" d="M587.01,-902.87C581.55,-890.12 574.87,-874.53 568.95,-860.71"/>
<polygon fill="#cc0000" stroke="#cc0000" points="572.16,-859.3 565,-851.48 565.72,-862.05 572.16,-859.3"/>
</g>
<!-- webappClientPublic&#45;&gt;webappBase -->
<g id="edge31" class="edge">
<title>webappClientPublic&#45;&gt;webappBase</title>
<path fill="none" stroke="#cc0000" d="M459.91,-712.18C423.47,-696.34 386,-670.32 386,-630.31 386,-630.31 386,-630.31 386,-418.83 386,-395.13 395,-370.16 404.25,-350.77"/>
<polygon fill="#cc0000" stroke="#cc0000" points="407.42,-352.24 408.76,-341.73 401.16,-349.11 407.42,-352.24"/>
</g>
<!-- webappClientPublic&#45;&gt;webappBaseTest -->
<g id="edge32" class="edge">
<title>webappClientPublic&#45;&gt;webappBaseTest</title>
<path fill="none" stroke="#111111" stroke-dasharray="5,2" d="M541.12,-707.13C547.53,-694.47 555.33,-679.06 562.25,-665.37"/>
<polygon fill="#111111" stroke="#111111" points="565.49,-666.73 566.88,-656.23 559.24,-663.57 565.49,-666.73"/>
<text text-anchor="middle" x="572" y="-677.98" font-family="Times,serif" font-size="14.00">test</text>
</g>
<!-- webappClientHome -->
<g id="node24" class="node">
<title>webappClientHome</title>
<ellipse fill="#00ccff" stroke="black" cx="805" cy="-1106.01" rx="113.27" ry="26.74"/>
<text text-anchor="middle" x="805" y="-1109.81" font-family="Times,serif" font-size="14.00">webapp&#45;client&#45;home</text>
<text text-anchor="middle" x="805" y="-1094.81" font-family="Times,serif" font-size="14.00">(JS)</text>
</g>
<!-- webappClientHome&#45;&gt;webappClientLoaders -->
<g id="edge29" class="edge">
<title>webappClientHome&#45;&gt;webappClientLoaders</title>
<path fill="none" stroke="#cc0000" d="M817,-1079.13C836.17,-1033.72 867.94,-938.01 831,-869.66 828.36,-864.77 824.9,-860.33 820.96,-856.33"/>
<polygon fill="#cc0000" stroke="#cc0000" points="823.19,-853.63 813.39,-849.6 818.53,-858.86 823.19,-853.63"/>
</g>
<!-- webappClientHome&#45;&gt;webappBaseTest -->
<g id="edge30" class="edge">
<title>webappClientHome&#45;&gt;webappBaseTest</title>
<path fill="none" stroke="#111111" stroke-dasharray="5,2" d="M809.11,-1078.88C812.24,-1059.21 816.74,-1031.58 821,-1007.4 831.82,-946.05 806.9,-917.34 847,-869.66 861.67,-852.22 882.02,-870.39 895,-851.66 908.6,-832.03 907.19,-818.46 895,-797.92 846.19,-715.72 741.76,-671.72 666.5,-649.73"/>
<polygon fill="#111111" stroke="#111111" points="667.13,-646.27 656.55,-646.9 665.21,-653 667.13,-646.27"/>
<text text-anchor="middle" x="861" y="-873.46" font-family="Times,serif" font-size="14.00">test</text>
</g>
<!-- webappClientWw -->
<g id="node25" class="node">
<title>webappClientWw</title>
<ellipse fill="#00ccff" stroke="black" cx="1011" cy="-1177.75" rx="102.56" ry="26.74"/>
<text text-anchor="middle" x="1011" y="-1181.55" font-family="Times,serif" font-size="14.00">webapp&#45;client&#45;ww</text>
<text text-anchor="middle" x="1011" y="-1166.55" font-family="Times,serif" font-size="14.00">(JS)</text>
</g>
<!-- webappClientWw&#45;&gt;webappClientWwApi -->
<g id="edge34" class="edge">
<title>webappClientWw&#45;&gt;webappClientWwApi</title>
<path fill="none" stroke="#cc0000" d="M1007.7,-1150.8C1004.87,-1128.6 1000.78,-1096.41 997.63,-1071.64"/>
<polygon fill="#cc0000" stroke="#cc0000" points="1001.08,-1071.01 996.34,-1061.54 994.13,-1071.9 1001.08,-1071.01"/>
</g>
<!-- webappClientWw&#45;&gt;webappBaseTest -->
<g id="edge35" class="edge">
<title>webappClientWw&#45;&gt;webappBaseTest</title>
<path fill="none" stroke="#111111" stroke-dasharray="5,2" d="M992.94,-1151.3C976.11,-1129.31 949.13,-1098.16 919,-1079.14 896.89,-1065.19 878.4,-1082.27 863,-1061.14 848.93,-1041.84 859.86,-1031.08 863,-1007.4 875.47,-913.27 933.03,-888.64 905,-797.92 890.58,-751.25 881.26,-737.54 843,-707.18 797.32,-670.93 735.07,-651.77 682.6,-641.64"/>
<polygon fill="#111111" stroke="#111111" points="683.06,-638.17 672.59,-639.8 681.79,-645.05 683.06,-638.17"/>
<text text-anchor="middle" x="924" y="-873.46" font-family="Times,serif" font-size="14.00">test</text>
</g>
<!-- webappClientProject -->
<g id="node26" class="node">
<title>webappClientProject</title>
<ellipse fill="#00ccff" stroke="black" cx="749" cy="-1177.75" rx="120.83" ry="26.74"/>
<text text-anchor="middle" x="749" y="-1181.55" font-family="Times,serif" font-size="14.00">webapp&#45;client&#45;project</text>
<text text-anchor="middle" x="749" y="-1166.55" font-family="Times,serif" font-size="14.00">(JS)</text>
</g>
<!-- webappClientProject&#45;&gt;webappClientWwApi -->
<g id="edge36" class="edge">
<title>webappClientProject&#45;&gt;webappClientWwApi</title>
<path fill="none" stroke="#cc0000" d="M853.78,-1164.31C879.32,-1157.8 905.46,-1147.9 927,-1132.88 949.36,-1117.29 966.33,-1091.47 977.46,-1070.31"/>
<polygon fill="#cc0000" stroke="#cc0000" points="980.64,-1071.77 982.01,-1061.27 974.39,-1068.62 980.64,-1071.77"/>
</g>
<!-- webappClientProject&#45;&gt;webappClientLoaders -->
<g id="edge37" class="edge">
<title>webappClientProject&#45;&gt;webappClientLoaders</title>
<path fill="none" stroke="#cc0000" d="M706.71,-1152.45C700.36,-1146.87 694.71,-1140.34 691,-1132.88 680.36,-1111.5 687.66,-1102.79 691,-1079.14 702.26,-999.42 732.5,-909.66 750.33,-861.28"/>
<polygon fill="#cc0000" stroke="#cc0000" points="753.62,-862.48 753.83,-851.88 747.06,-860.03 753.62,-862.48"/>
</g>
<!-- webappClientProject&#45;&gt;webappBaseTest -->
<g id="edge38" class="edge">
<title>webappClientProject&#45;&gt;webappBaseTest</title>
<path fill="none" stroke="#111111" stroke-dasharray="5,2" d="M651.19,-1161.85C591,-1147.12 518.29,-1118.09 480,-1061.14 463.68,-1036.87 457.06,-820.21 476,-797.92 527.61,-737.17 601.39,-829.67 653,-768.92 670.77,-748.01 663.17,-732.67 653,-707.18 646.16,-690.03 633.47,-674.52 620.56,-662"/>
<polygon fill="#111111" stroke="#111111" points="622.7,-659.2 612.99,-654.98 617.94,-664.34 622.7,-659.2"/>
<text text-anchor="middle" x="479" y="-873.46" font-family="Times,serif" font-size="14.00">test</text>
</g>
<!-- webappServer -->
<g id="node27" class="node">
<title>webappServer</title>
<ellipse fill="#00ccff" stroke="black" cx="643" cy="-1268.49" rx="79.09" ry="18"/>
<text text-anchor="middle" x="643" y="-1264.79" font-family="Times,serif" font-size="14.00">webapp&#45;server</text>
</g>
<!-- webappServer&#45;&gt;taskmanApi -->
<g id="edge45" class="edge">
<title>webappServer&#45;&gt;taskmanApi</title>
<path fill="none" stroke="#cc0000" d="M719.25,-1263.46C874.98,-1254.21 1215,-1228.34 1215,-1178.75 1215,-1178.75 1215,-1178.75 1215,-628.31 1215,-625.84 1331.86,-573.34 1396.77,-544.37"/>
<polygon fill="#cc0000" stroke="#cc0000" points="1398.24,-547.54 1405.95,-540.27 1395.39,-541.15 1398.24,-547.54"/>
</g>
<!-- webappServer&#45;&gt;webappServerLogic -->
<g id="edge46" class="edge">
<title>webappServer&#45;&gt;webappServerLogic</title>
<path fill="none" stroke="#cc0000" d="M610.43,-1252.03C583.95,-1239.47 545.93,-1221.43 514.24,-1206.39"/>
<polygon fill="#cc0000" stroke="#cc0000" points="515.59,-1203.16 505.06,-1202.03 512.59,-1209.48 515.59,-1203.16"/>
</g>
<!-- webappServer&#45;&gt;webappClientPublic -->
<g id="edge47" class="edge">
<title>webappServer&#45;&gt;webappClientPublic</title>
<path fill="none" stroke="#cc0000" stroke-dasharray="5,2" d="M630.87,-1250.33C625.45,-1242.36 619.14,-1232.67 614,-1223.62 613.45,-1222.65 579.9,-1151.55 579,-1150.88 538.96,-1120.97 501.67,-1169.82 468,-1132.88 442.92,-1105.37 443.88,-830.98 461,-797.92 466.96,-786.41 475.89,-775.87 485.3,-766.85"/>
<polygon fill="#cc0000" stroke="#cc0000" points="487.85,-769.26 492.91,-759.94 483.15,-764.07 487.85,-769.26"/>
</g>
<!-- webappServer&#45;&gt;webappClientHome -->
<g id="edge48" class="edge">
<title>webappServer&#45;&gt;webappClientHome</title>
<path fill="none" stroke="#cc0000" stroke-dasharray="5,2" d="M631.8,-1250.47C617.15,-1225.85 595.91,-1180.05 619,-1150.88 629.54,-1137.56 661.41,-1127.88 695.85,-1121.06"/>
<polygon fill="#cc0000" stroke="#cc0000" points="696.93,-1124.41 706.11,-1119.12 695.63,-1117.54 696.93,-1124.41"/>
</g>
<!-- webappServer&#45;&gt;webappClientWw -->
<g id="edge50" class="edge">
<title>webappServer&#45;&gt;webappClientWw</title>
<path fill="none" stroke="#cc0000" stroke-dasharray="5,2" d="M695.33,-1254.87C755.79,-1240.29 856.07,-1216.11 927.38,-1198.92"/>
<polygon fill="#cc0000" stroke="#cc0000" points="928.34,-1202.29 937.24,-1196.54 926.7,-1195.48 928.34,-1202.29"/>
</g>
<!-- webappServer&#45;&gt;webappClientProject -->
<g id="edge49" class="edge">
<title>webappServer&#45;&gt;webappClientProject</title>
<path fill="none" stroke="#cc0000" stroke-dasharray="5,2" d="M662.94,-1250.8C676.44,-1239.5 694.71,-1224.2 710.94,-1210.61"/>
<polygon fill="#cc0000" stroke="#cc0000" points="713.3,-1213.2 718.72,-1204.1 708.81,-1207.84 713.3,-1213.2"/>
</g>
<!-- webappBaseTest&#45;&gt;baseTest -->
<g id="edge25" class="edge">
<title>webappBaseTest&#45;&gt;baseTest</title>
<path fill="none" stroke="#111111" d="M678.57,-623.77C925.53,-612.1 1553.9,-580.51 1594,-559.44 1637.38,-536.64 1669.4,-488.45 1687.38,-455.35"/>
<polygon fill="#111111" stroke="#111111" points="1690.51,-456.93 1692.08,-446.45 1684.32,-453.66 1690.51,-456.93"/>
</g>
<!-- webappBaseTest&#45;&gt;webappBaseMember -->
<g id="edge26" class="edge">
<title>webappBaseTest&#45;&gt;webappBaseMember</title>
<path fill="none" stroke="#111111" d="M623.26,-604.78C640.22,-593.33 658.18,-578.01 669,-559.44 687.21,-528.2 691.01,-486.47 691,-456.99"/>
<polygon fill="#111111" stroke="#111111" points="694.5,-456.67 690.84,-446.72 687.5,-456.77 694.5,-456.67"/>
</g>
<!-- webappBaseTest&#45;&gt;webappSampleData -->
<g id="edge27" class="edge">
<title>webappBaseTest&#45;&gt;webappSampleData</title>
<path fill="none" stroke="#111111" d="M571.93,-602.39C568.06,-589.97 563.37,-574.91 559.17,-561.42"/>
<polygon fill="#111111" stroke="#111111" points="562.39,-559.99 556.07,-551.49 555.7,-562.08 562.39,-559.99"/>
<text text-anchor="middle" x="581" y="-573.24" font-family="Times,serif" font-size="14.00">JVM</text>
</g>
<!-- webapp -->
<g id="node29" class="node">
<title>webapp</title>
<ellipse fill="#ffff80" stroke="blue" cx="885" cy="-1359.23" rx="70.92" ry="26.74"/>
<text text-anchor="middle" x="885" y="-1363.03" font-family="Times,serif" font-size="14.00">[aggregate]</text>
<text text-anchor="middle" x="885" y="-1348.03" font-family="Times,serif" font-size="14.00">webapp</text>
</g>
<!-- webapp&#45;&gt;webappClientHome -->
<g id="edge61" class="edge">
<title>webapp&#45;&gt;webappClientHome</title>
<path fill="none" stroke="#aaaaaa" stroke-dasharray="5,2" d="M891.67,-1332.48C900.89,-1291.01 912.81,-1208.29 879,-1150.88 875.77,-1145.39 871.56,-1140.51 866.78,-1136.2"/>
<polygon fill="#aaaaaa" stroke="#aaaaaa" points="858.88,-1129.86 869.5,-1132.61 862.78,-1132.99 866.69,-1136.12 866.69,-1136.12 866.69,-1136.12 862.78,-1132.99 863.87,-1139.63 858.88,-1129.86 858.88,-1129.86"/>
</g>
<!-- webapp&#45;&gt;webappClientWw -->
<g id="edge63" class="edge">
<title>webapp&#45;&gt;webappClientWw</title>
<path fill="none" stroke="#aaaaaa" stroke-dasharray="5,2" d="M902.79,-1332.9C924.86,-1301.45 962.59,-1247.71 987.16,-1212.71"/>
<polygon fill="#aaaaaa" stroke="#aaaaaa" points="993.1,-1204.25 991.04,-1215.02 990.23,-1208.34 987.36,-1212.43 987.36,-1212.43 987.36,-1212.43 990.23,-1208.34 983.67,-1209.85 993.1,-1204.25 993.1,-1204.25"/>
</g>
<!-- webapp&#45;&gt;webappClientProject -->
<g id="edge60" class="edge">
<title>webapp&#45;&gt;webappClientProject</title>
<path fill="none" stroke="#aaaaaa" stroke-dasharray="5,2" d="M866.09,-1333.28C842.24,-1301.8 801.13,-1247.55 774.51,-1212.42"/>
<polygon fill="#aaaaaa" stroke="#aaaaaa" points="768.41,-1204.37 778.03,-1209.62 771.43,-1208.35 774.45,-1212.34 774.45,-1212.34 774.45,-1212.34 771.43,-1208.35 770.86,-1215.05 768.41,-1204.37 768.41,-1204.37"/>
</g>
<!-- webapp&#45;&gt;webappServer -->
<g id="edge62" class="edge">
<title>webapp&#45;&gt;webappServer</title>
<path fill="none" stroke="#aaaaaa" stroke-dasharray="5,2" d="M835.44,-1340.06C793.62,-1324.72 734.06,-1302.88 692.31,-1287.57"/>
<polygon fill="#aaaaaa" stroke="#aaaaaa" points="682.89,-1284.12 693.83,-1283.34 687.59,-1285.84 692.28,-1287.56 692.28,-1287.56 692.28,-1287.56 687.59,-1285.84 690.73,-1291.79 682.89,-1284.12 682.89,-1284.12"/>
</g>
<!-- benchmark -->
<g id="node30" class="node">
<title>benchmark</title>
<ellipse fill="#ffffdd" stroke="black" cx="247" cy="-1449.97" rx="70.92" ry="26.74"/>
<text text-anchor="middle" x="247" y="-1453.77" font-family="Times,serif" font-size="14.00">[aggregate]</text>
<text text-anchor="middle" x="247" y="-1438.77" font-family="Times,serif" font-size="14.00">benchmark</text>
</g>
<!-- benchmarkJvm -->
<g id="node31" class="node">
<title>benchmarkJvm</title>
<ellipse fill="#ffcccc" stroke="black" cx="96" cy="-1359.23" rx="67.76" ry="26.74"/>
<text text-anchor="middle" x="96" y="-1363.03" font-family="Times,serif" font-size="14.00">benchmark</text>
<text text-anchor="middle" x="96" y="-1348.03" font-family="Times,serif" font-size="14.00">JVM</text>
</g>
<!-- benchmark&#45;&gt;benchmarkJvm -->
<g id="edge68" class="edge">
<title>benchmark&#45;&gt;benchmarkJvm</title>
<path fill="none" stroke="#aaaaaa" stroke-dasharray="5,2" d="M209.67,-1427.04C189.1,-1414.95 163.4,-1399.84 141.64,-1387.05"/>
<polygon fill="#aaaaaa" stroke="#aaaaaa" points="132.9,-1381.92 143.8,-1383.1 137.21,-1384.45 141.52,-1386.98 141.52,-1386.98 141.52,-1386.98 137.21,-1384.45 139.24,-1390.86 132.9,-1381.92 132.9,-1381.92"/>
</g>
<!-- benchmarkJs -->
<g id="node32" class="node">
<title>benchmarkJs</title>
<ellipse fill="#ffcccc" stroke="black" cx="250" cy="-1359.23" rx="67.76" ry="26.74"/>
<text text-anchor="middle" x="250" y="-1363.03" font-family="Times,serif" font-size="14.00">benchmark</text>
<text text-anchor="middle" x="250" y="-1348.03" font-family="Times,serif" font-size="14.00">JS</text>
</g>
<!-- benchmark&#45;&gt;benchmarkJs -->
<g id="edge69" class="edge">
<title>benchmark&#45;&gt;benchmarkJs</title>
<path fill="none" stroke="#aaaaaa" stroke-dasharray="5,2" d="M247.88,-1422.83C248.16,-1414.52 248.48,-1405.19 248.78,-1396.31"/>
<polygon fill="#aaaaaa" stroke="#aaaaaa" points="249.12,-1386.19 253.28,-1396.34 248.95,-1391.19 248.78,-1396.18 248.78,-1396.18 248.78,-1396.18 248.95,-1391.19 244.29,-1396.03 249.12,-1386.19 249.12,-1386.19"/>
</g>
<!-- benchmarkJvm&#45;&gt;webappServer -->
<g id="edge55" class="edge">
<title>benchmarkJvm&#45;&gt;webappServer</title>
<path fill="none" stroke="#cc0000" d="M144.48,-1340.38C153.85,-1337.38 163.66,-1334.53 173,-1332.36 306.07,-1301.41 464.12,-1284.17 558.85,-1275.87"/>
<polygon fill="#cc0000" stroke="#cc0000" points="559.28,-1279.34 568.95,-1274.99 558.68,-1272.37 559.28,-1279.34"/>
</g>
<!-- benchmarkShared -->
<g id="node33" class="node">
<title>benchmarkShared</title>
<ellipse fill="#ffcccc" stroke="black" cx="250" cy="-1268.49" rx="67.76" ry="26.74"/>
<text text-anchor="middle" x="250" y="-1272.29" font-family="Times,serif" font-size="14.00">benchmark</text>
<text text-anchor="middle" x="250" y="-1257.29" font-family="Times,serif" font-size="14.00">(shared)</text>
</g>
<!-- benchmarkJvm&#45;&gt;benchmarkShared -->
<g id="edge53" class="edge">
<title>benchmarkJvm&#45;&gt;benchmarkShared</title>
<path fill="none" stroke="#cc0000" d="M133.28,-1336.75C154.5,-1324.52 181.26,-1309.1 203.8,-1296.11"/>
<polygon fill="#cc0000" stroke="#cc0000" points="205.61,-1299.11 212.53,-1291.08 202.12,-1293.04 205.61,-1299.11"/>
</g>
<!-- benchmarkJs&#45;&gt;webappClientProject -->
<g id="edge56" class="edge">
<title>benchmarkJs&#45;&gt;webappClientProject</title>
<path fill="none" stroke="#cc0000" d="M293.6,-1338.6C352.27,-1312.62 460.22,-1266.27 555,-1233.62 589.49,-1221.74 628.05,-1210.44 661.64,-1201.22"/>
<polygon fill="#cc0000" stroke="#cc0000" points="662.71,-1204.55 671.44,-1198.55 660.87,-1197.8 662.71,-1204.55"/>
</g>
<!-- benchmarkJs&#45;&gt;benchmarkShared -->
<g id="edge54" class="edge">
<title>benchmarkJs&#45;&gt;benchmarkShared</title>
<path fill="none" stroke="#cc0000" d="M250,-1332.09C250,-1323.78 250,-1314.45 250,-1305.57"/>
<polygon fill="#cc0000" stroke="#cc0000" points="253.5,-1305.45 250,-1295.45 246.5,-1305.45 253.5,-1305.45"/>
</g>
<!-- benchmarkShared&#45;&gt;webappSampleData -->
<g id="edge51" class="edge">
<title>benchmarkShared&#45;&gt;webappSampleData</title>
<path fill="none" stroke="#cc0000" d="M253.13,-1241.52C255,-1223.85 257,-1199.92 257,-1178.75 257,-1178.75 257,-1178.75 257,-628.31 257,-587.08 362.18,-558.29 446.07,-541.89"/>
<polygon fill="#cc0000" stroke="#cc0000" points="446.76,-545.32 455.93,-540 445.45,-538.44 446.76,-545.32"/>
</g>
<!-- benchmarkShared&#45;&gt;webappBaseTest -->
<g id="edge52" class="edge">
<title>benchmarkShared&#45;&gt;webappBaseTest</title>
<path fill="none" stroke="#cc0000" d="M276.62,-1243.41C291.87,-1226.92 308,-1203.6 308,-1178.75 308,-1178.75 308,-1178.75 308,-733.05 308,-693.66 409.1,-664.11 488.03,-647.05"/>
<polygon fill="#cc0000" stroke="#cc0000" points="488.97,-650.42 498.02,-644.92 487.51,-643.58 488.97,-650.42"/>
</g>
<!-- utils -->
<g id="node34" class="node">
<title>utils</title>
<ellipse fill="#ffffdd" stroke="black" cx="93" cy="-1449.97" rx="31.4" ry="18"/>
<text text-anchor="middle" x="93" y="-1446.27" font-family="Times,serif" font-size="14.00">utils</text>
</g>
<!-- utils&#45;&gt;webappBase -->
<g id="edge57" class="edge">
<title>utils&#45;&gt;webappBase</title>
<path fill="none" stroke="#cc0000" d="M68.57,-1438.5C41.01,-1424.85 0,-1398.17 0,-1360.23 0,-1360.23 0,-1360.23 0,-418.83 0,-350.23 212.32,-327.27 336.47,-319.71"/>
<polygon fill="#cc0000" stroke="#cc0000" points="336.95,-323.19 346.72,-319.11 336.54,-316.2 336.95,-323.19"/>
</g>
<!-- root -->
<g id="node35" class="node">
<title>root</title>
<ellipse fill="#cccccc" stroke="black" cx="885" cy="-1540.71" rx="70.92" ry="26.74"/>
<text text-anchor="middle" x="885" y="-1544.51" font-family="Times,serif" font-size="14.00">[aggregate]</text>
<text text-anchor="middle" x="885" y="-1529.51" font-family="Times,serif" font-size="14.00">root</text>
</g>
<!-- root&#45;&gt;base -->
<g id="edge70" class="edge">
<title>root&#45;&gt;base</title>
<path fill="none" stroke="#aaaaaa" stroke-dasharray="5,2" d="M955.82,-1539.2C1151.12,-1536.86 1683,-1523.81 1683,-1450.97 1683,-1450.97 1683,-1450.97 1683,-628.31 1683,-600.11 1701.74,-574.58 1720.61,-556.02"/>
<polygon fill="#aaaaaa" stroke="#aaaaaa" points="1728.09,-549.01 1723.87,-559.14 1724.44,-552.43 1720.79,-555.85 1720.79,-555.85 1720.79,-555.85 1724.44,-552.43 1717.71,-552.57 1728.09,-549.01 1728.09,-549.01"/>
</g>
<!-- root&#45;&gt;taskman -->
<g id="edge72" class="edge">
<title>root&#45;&gt;taskman</title>
<path fill="none" stroke="#aaaaaa" stroke-dasharray="5,2" d="M955.63,-1539.22C1075.77,-1536.45 1307,-1521.91 1307,-1450.97 1307,-1450.97 1307,-1450.97 1307,-823.79 1307,-805.47 1312.81,-786.1 1319.31,-770.14"/>
<polygon fill="#aaaaaa" stroke="#aaaaaa" points="1323.4,-760.69 1323.56,-771.65 1321.42,-765.28 1319.43,-769.86 1319.43,-769.86 1319.43,-769.86 1321.42,-765.28 1315.3,-768.08 1323.4,-760.69 1323.4,-760.69"/>
</g>
<!-- root&#45;&gt;webapp -->
<g id="edge71" class="edge">
<title>root&#45;&gt;webapp</title>
<path fill="none" stroke="#aaaaaa" stroke-dasharray="5,2" d="M885,-1513.61C885,-1482.78 885,-1431.28 885,-1396.56"/>
<polygon fill="#aaaaaa" stroke="#aaaaaa" points="885,-1386.36 889.5,-1396.36 885,-1391.36 885,-1396.36 885,-1396.36 885,-1396.36 885,-1391.36 880.5,-1396.36 885,-1386.36 885,-1386.36"/>
</g>
<!-- root&#45;&gt;benchmark -->
<g id="edge73" class="edge">
<title>root&#45;&gt;benchmark</title>
<path fill="none" stroke="#aaaaaa" stroke-dasharray="5,2" d="M819.42,-1530.59C700.23,-1514.01 448.74,-1479.03 322.56,-1461.48"/>
<polygon fill="#aaaaaa" stroke="#aaaaaa" points="312.59,-1460.09 323.11,-1457.02 317.54,-1460.78 322.49,-1461.47 322.49,-1461.47 322.49,-1461.47 317.54,-1460.78 321.87,-1465.93 312.59,-1460.09 312.59,-1460.09"/>
</g>
<!-- root&#45;&gt;utils -->
<g id="edge74" class="edge">
<title>root&#45;&gt;utils</title>
<path fill="none" stroke="#aaaaaa" stroke-dasharray="5,2" d="M814.63,-1537.48C658.65,-1532.03 288.12,-1516.12 167,-1484.84 152.03,-1480.98 136.33,-1474.22 123.27,-1467.76"/>
<polygon fill="#aaaaaa" stroke="#aaaaaa" points="114.27,-1463.15 125.22,-1463.71 118.72,-1465.43 123.17,-1467.71 123.17,-1467.71 123.17,-1467.71 118.72,-1465.43 121.12,-1471.72 114.27,-1463.15 114.27,-1463.15"/>
</g>
</g>
</svg>
