<?xml version="1.0" encoding="UTF-8" standalone="no"?>
<!DOCTYPE svg PUBLIC "-//W3C//DTD SVG 1.1//EN"
 "http://www.w3.org/Graphics/SVG/1.1/DTD/svg11.dtd">
<!-- Generated by graphviz version 2.40.1 (0)
 -->
<!-- Title: G Pages: 1 -->
<svg width="1907pt" height="2142pt"
 viewBox="0.00 0.00 1906.85 2141.80" xmlns="http://www.w3.org/2000/svg" xmlns:xlink="http://www.w3.org/1999/xlink">
<g id="graph0" class="graph" transform="scale(1 1) rotate(0) translate(4 2137.8023)">
<title>G</title>
<polygon fill="#ffffff" stroke="transparent" points="-4,4 -4,-2137.8023 1902.8495,-2137.8023 1902.8495,4 -4,4"/>
<g id="clust3" class="cluster">
<title>cluster_taskman</title>
<polygon fill="#eeeeff" stroke="#000000" points="1423,-967.9209 1423,-1534.4916 1887,-1534.4916 1887,-967.9209 1423,-967.9209"/>
</g>
<g id="clust4" class="cluster">
<title>cluster_webapp</title>
<polygon fill="#eeeeff" stroke="#000000" points="388,-173.4802 388,-1906.3221 1179,-1906.3221 1179,-173.4802 388,-173.4802"/>
</g>
<g id="clust1" class="cluster">
<title>cluster_base</title>
<polygon fill="#f4fff4" stroke="#000000" points="1195,-1187.4012 1195,-2125.8023 1405,-2125.8023 1405,-1187.4012 1195,-1187.4012"/>
</g>
<g id="clust5" class="cluster">
<title>cluster_supp</title>
<polygon fill="#fff2f2" stroke="#000000" points="20,-82.7401 20,-479.9605 380,-479.9605 380,-82.7401 20,-82.7401"/>
</g>
<!-- baseMacro -->
<g id="node1" class="node">
<title>baseMacro</title>
<ellipse fill="#bbffbb" stroke="#000000" cx="1292" cy="-2090.9322" rx="70.0071" ry="26.7407"/>
<text text-anchor="middle" x="1292" y="-2094.7322" font-family="Times,serif" font-size="14.00" fill="#000000">base&#45;macro</text>
<text text-anchor="middle" x="1292" y="-2079.7322" font-family="Times,serif" font-size="14.00" fill="#000000">(JVM &amp; JS)</text>
</g>
<!-- baseUtil -->
<g id="node2" class="node">
<title>baseUtil</title>
<ellipse fill="#bbffbb" stroke="#000000" cx="1312" cy="-1962.1921" rx="67.3507" ry="26.7407"/>
<text text-anchor="middle" x="1312" y="-1965.9921" font-family="Times,serif" font-size="14.00" fill="#000000">base&#45;util</text>
<text text-anchor="middle" x="1312" y="-1950.9921" font-family="Times,serif" font-size="14.00" fill="#000000">(JVM &amp; JS)</text>
</g>
<!-- baseUtil&#45;&gt;baseMacro -->
<g id="edge1" class="edge">
<title>baseUtil&#45;&gt;baseMacro</title>
<path fill="none" stroke="#cc0000" d="M1307.8073,-1989.1803C1304.8873,-2007.9767 1300.9562,-2033.281 1297.7448,-2053.9527"/>
<polygon fill="#cc0000" stroke="#cc0000" points="1294.2638,-2053.5608 1296.1871,-2063.9796 1301.1808,-2054.6355 1294.2638,-2053.5608"/>
</g>
<!-- baseDb -->
<g id="node3" class="node">
<title>baseDb</title>
<ellipse fill="#bbffbb" stroke="#000000" cx="1346" cy="-1599.2317" rx="50.8235" ry="26.7407"/>
<text text-anchor="middle" x="1346" y="-1603.0317" font-family="Times,serif" font-size="14.00" fill="#000000">base&#45;db</text>
<text text-anchor="middle" x="1346" y="-1588.0317" font-family="Times,serif" font-size="14.00" fill="#000000">(JVM)</text>
</g>
<!-- baseOps -->
<g id="node4" class="node">
<title>baseOps</title>
<ellipse fill="#bbffbb" stroke="#000000" cx="1341" cy="-1780.7119" rx="55.7232" ry="26.7407"/>
<text text-anchor="middle" x="1341" y="-1784.5119" font-family="Times,serif" font-size="14.00" fill="#000000">base&#45;ops</text>
<text text-anchor="middle" x="1341" y="-1769.5119" font-family="Times,serif" font-size="14.00" fill="#000000">(JVM)</text>
</g>
<!-- baseDb&#45;&gt;baseOps -->
<g id="edge3" class="edge">
<title>baseDb&#45;&gt;baseOps</title>
<path fill="none" stroke="#cc0000" d="M1345.2514,-1626.4011C1344.3947,-1657.496 1342.9866,-1708.606 1342.0276,-1743.4145"/>
<polygon fill="#cc0000" stroke="#cc0000" points="1338.5223,-1743.5609 1341.7455,-1753.6535 1345.5197,-1743.7538 1338.5223,-1743.5609"/>
</g>
<!-- baseOps&#45;&gt;baseUtil -->
<g id="edge2" class="edge">
<title>baseOps&#45;&gt;baseUtil</title>
<path fill="none" stroke="#cc0000" d="M1336.6584,-1807.8813C1331.6895,-1838.9762 1323.5223,-1890.0862 1317.96,-1924.8947"/>
<polygon fill="#cc0000" stroke="#cc0000" points="1314.4457,-1924.7067 1316.3238,-1935.1338 1321.358,-1925.8114 1314.4457,-1924.7067"/>
</g>
<!-- baseTest -->
<g id="node5" class="node">
<title>baseTest</title>
<ellipse fill="#ffffff" stroke="#006400" cx="1310" cy="-1417.7514" rx="67.3507" ry="26.7407"/>
<text text-anchor="middle" x="1310" y="-1421.5514" font-family="Times,serif" font-size="14.00" fill="#000000">base&#45;test</text>
<text text-anchor="middle" x="1310" y="-1406.5514" font-family="Times,serif" font-size="14.00" fill="#000000">(JVM &amp; JS)</text>
</g>
<!-- baseTest&#45;&gt;baseUtil -->
<g id="edge4" class="edge">
<title>baseTest&#45;&gt;baseUtil</title>
<path fill="none" stroke="#111111" d="M1289.8029,-1443.5626C1278.236,-1460.9145 1266,-1484.8559 1266,-1508.4916 1266,-1508.4916 1266,-1508.4916 1266,-1871.452 1266,-1891.5703 1275.107,-1911.7499 1285.2166,-1927.9534"/>
<polygon fill="#111111" stroke="#111111" points="1282.448,-1930.1119 1290.8848,-1936.5206 1288.286,-1926.2494 1282.448,-1930.1119"/>
</g>
<!-- baseTest&#45;&gt;baseDb -->
<g id="edge5" class="edge">
<title>baseTest&#45;&gt;baseDb</title>
<path fill="none" stroke="#111111" stroke-dasharray="5,2" d="M1311.9593,-1444.6293C1314.0559,-1468.6332 1318.0579,-1504.643 1325,-1535.3616 1327.0564,-1544.4611 1329.8756,-1554.104 1332.7808,-1563.0643"/>
<polygon fill="#111111" stroke="#111111" points="1329.5579,-1564.4614 1336.0615,-1572.8252 1336.1932,-1562.2312 1329.5579,-1564.4614"/>
<text text-anchor="middle" x="1357" y="-1504.7916" font-family="Times,serif" font-size="14.00" fill="#000000">provided</text>
</g>
<!-- base -->
<g id="node6" class="node">
<title>base</title>
<ellipse fill="#ffffdd" stroke="#006400" cx="1310" cy="-1222.2712" rx="70.922" ry="26.7407"/>
<text text-anchor="middle" x="1310" y="-1226.0712" font-family="Times,serif" font-size="14.00" fill="#000000">[aggregate]</text>
<text text-anchor="middle" x="1310" y="-1211.0712" font-family="Times,serif" font-size="14.00" fill="#000000">base</text>
</g>
<!-- base&#45;&gt;baseMacro -->
<g id="edge63" class="edge">
<title>base&#45;&gt;baseMacro</title>
<path fill="none" stroke="#aaaaaa" stroke-dasharray="5,2" d="M1278.3852,-1246.5389C1266.413,-1257.3713 1253.8032,-1271.0905 1246,-1286.1413 1204.1732,-1366.8169 1226,-1623.9814 1226,-1644.6017 1226,-1644.6017 1226,-1644.6017 1226,-2026.5622 1226,-2040.6009 1233.7477,-2052.5761 1243.934,-2062.2537"/>
<polygon fill="#aaaaaa" stroke="#aaaaaa" points="1251.7063,-2068.8911 1241.1795,-2065.819 1247.9041,-2065.6441 1244.1019,-2062.397 1244.1019,-2062.397 1244.1019,-2062.397 1247.9041,-2065.6441 1247.0242,-2058.975 1251.7063,-2068.8911 1251.7063,-2068.8911"/>
</g>
<!-- base&#45;&gt;baseUtil -->
<g id="edge60" class="edge">
<title>base&#45;&gt;baseUtil</title>
<path fill="none" stroke="#aaaaaa" stroke-dasharray="5,2" d="M1293.9157,-1248.5038C1275.2218,-1280.6725 1245.4715,-1337.5154 1234,-1390.8814 1228.9805,-1414.2325 1233.2844,-1420.7477 1234,-1444.6215 1236.6679,-1533.6215 1246,-1555.5618 1246,-1644.6017 1246,-1644.6017 1246,-1644.6017 1246,-1871.452 1246,-1894.0517 1259.5549,-1914.8037 1274.379,-1930.7412"/>
<polygon fill="#aaaaaa" stroke="#aaaaaa" points="1281.7043,-1938.1653 1271.4775,-1934.2076 1278.1925,-1934.6061 1274.6807,-1931.047 1274.6807,-1931.047 1274.6807,-1931.047 1278.1925,-1934.6061 1277.8839,-1927.8864 1281.7043,-1938.1653 1281.7043,-1938.1653"/>
</g>
<!-- base&#45;&gt;baseDb -->
<g id="edge61" class="edge">
<title>base&#45;&gt;baseDb</title>
<path fill="none" stroke="#aaaaaa" stroke-dasharray="5,2" d="M1325.7863,-1248.5705C1344.1868,-1280.8048 1373.6483,-1337.7122 1386,-1390.8814 1400.5336,-1453.4427 1407.7515,-1473.9326 1389,-1535.3616 1385.6833,-1546.2268 1379.83,-1556.917 1373.4896,-1566.3508"/>
<polygon fill="#aaaaaa" stroke="#aaaaaa" points="1367.5887,-1574.6304 1369.7281,-1563.8752 1370.4907,-1570.5587 1373.3926,-1566.487 1373.3926,-1566.487 1373.3926,-1566.487 1370.4907,-1570.5587 1377.0572,-1569.0987 1367.5887,-1574.6304 1367.5887,-1574.6304"/>
</g>
<!-- base&#45;&gt;baseTest -->
<g id="edge62" class="edge">
<title>base&#45;&gt;baseTest</title>
<path fill="none" stroke="#aaaaaa" stroke-dasharray="5,2" d="M1310,-1249.4519C1310,-1283.5894 1310,-1342.3163 1310,-1380.5871"/>
<polygon fill="#aaaaaa" stroke="#aaaaaa" points="1310,-1390.8016 1305.5001,-1380.8016 1310,-1385.8016 1310.0001,-1380.8016 1310.0001,-1380.8016 1310.0001,-1380.8016 1310,-1385.8016 1314.5001,-1380.8016 1310,-1390.8016 1310,-1390.8016"/>
</g>
<!-- taskmanDb -->
<g id="node7" class="node">
<title>taskmanDb</title>
<ellipse fill="#ffffff" stroke="#000000" cx="1757" cy="-1508.4916" rx="122.3786" ry="18"/>
<text text-anchor="middle" x="1757" y="-1504.7916" font-family="Times,serif" font-size="14.00" fill="#000000">taskman&#45;server&#45;schema</text>
</g>
<!-- taskmanDb&#45;&gt;baseDb -->
<g id="edge6" class="edge">
<title>taskmanDb&#45;&gt;baseDb</title>
<path fill="none" stroke="#cc0000" d="M1689.1317,-1523.4754C1609.3238,-1541.0953 1478.2608,-1570.0313 1403.3273,-1586.575"/>
<polygon fill="#cc0000" stroke="#cc0000" points="1402.1478,-1583.2511 1393.1375,-1588.8247 1403.657,-1590.0865 1402.1478,-1583.2511"/>
</g>
<!-- taskmanServerLogic -->
<g id="node8" class="node">
<title>taskmanServerLogic</title>
<ellipse fill="#ffffff" stroke="#000000" cx="1713" cy="-1313.0113" rx="108.5808" ry="18"/>
<text text-anchor="middle" x="1713" y="-1309.3113" font-family="Times,serif" font-size="14.00" fill="#000000">taskman&#45;server&#45;logic</text>
</g>
<!-- taskmanApiLogic -->
<g id="node10" class="node">
<title>taskmanApiLogic</title>
<ellipse fill="#ffffff" stroke="#000000" cx="1524" cy="-1508.4916" rx="92.8835" ry="18"/>
<text text-anchor="middle" x="1524" y="-1504.7916" font-family="Times,serif" font-size="14.00" fill="#000000">taskman&#45;api&#45;logic</text>
</g>
<!-- taskmanServerLogic&#45;&gt;taskmanApiLogic -->
<g id="edge13" class="edge">
<title>taskmanServerLogic&#45;&gt;taskmanApiLogic</title>
<path fill="none" stroke="#cc0000" d="M1711.5532,-1331.0656C1708.4248,-1358.7878 1698.7043,-1412.0416 1669,-1444.6215 1648.9452,-1466.6177 1619.9369,-1481.4303 1593.1277,-1491.2022"/>
<polygon fill="#cc0000" stroke="#cc0000" points="1591.6765,-1488.0006 1583.3707,-1494.5782 1593.9655,-1494.6158 1591.6765,-1488.0006"/>
</g>
<!-- taskmanApi -->
<g id="node9" class="node">
<title>taskmanApi</title>
<ellipse fill="#ffffff" stroke="#000000" cx="1519" cy="-1313.0113" rx="67.6881" ry="18"/>
<text text-anchor="middle" x="1519" y="-1309.3113" font-family="Times,serif" font-size="14.00" fill="#000000">taskman&#45;api</text>
</g>
<!-- taskmanApi&#45;&gt;baseDb -->
<g id="edge9" class="edge">
<title>taskmanApi&#45;&gt;baseDb</title>
<path fill="none" stroke="#cc0000" d="M1557.8295,-1327.9136C1648.7708,-1363.2049 1869.3149,-1451.2006 1888,-1481.6215 1900.5006,-1501.9735 1903.8699,-1517.5118 1888,-1535.3616 1856.4782,-1570.8161 1542.5339,-1589.8881 1407.3686,-1596.5105"/>
<polygon fill="#cc0000" stroke="#cc0000" points="1406.9963,-1593.0243 1397.1768,-1597.0028 1407.3341,-1600.0162 1406.9963,-1593.0243"/>
</g>
<!-- taskmanApi&#45;&gt;baseTest -->
<g id="edge12" class="edge">
<title>taskmanApi&#45;&gt;baseTest</title>
<path fill="none" stroke="#111111" stroke-dasharray="5,2" d="M1487.2574,-1328.9191C1453.8504,-1345.661 1400.7494,-1372.2725 1361.3665,-1392.0092"/>
<polygon fill="#111111" stroke="#111111" points="1359.5484,-1389.0053 1352.1764,-1396.6148 1362.6847,-1395.2635 1359.5484,-1389.0053"/>
<text text-anchor="middle" x="1441" y="-1361.6814" font-family="Times,serif" font-size="14.00" fill="#000000">test</text>
</g>
<!-- taskmanApi&#45;&gt;taskmanDb -->
<g id="edge11" class="edge">
<title>taskmanApi&#45;&gt;taskmanDb</title>
<path fill="none" stroke="#111111" stroke-dasharray="5,2" d="M1540.1209,-1330.3589C1582.6005,-1365.2493 1678.4712,-1443.9923 1727.2639,-1484.0679"/>
<polygon fill="#111111" stroke="#111111" points="1725.2908,-1486.9766 1735.2399,-1490.619 1729.7338,-1481.5673 1725.2908,-1486.9766"/>
<text text-anchor="middle" x="1691" y="-1414.0514" font-family="Times,serif" font-size="14.00" fill="#000000">test</text>
</g>
<!-- taskmanApi&#45;&gt;taskmanApiLogic -->
<g id="edge8" class="edge">
<title>taskmanApi&#45;&gt;taskmanApiLogic</title>
<path fill="none" stroke="#cc0000" d="M1530.417,-1331.0488C1539.365,-1346.3159 1551.0942,-1369.1259 1556,-1390.8814 1561.2539,-1414.1809 1561.497,-1421.3782 1556,-1444.6215 1552.9672,-1457.4453 1546.9396,-1470.6265 1540.9256,-1481.6593"/>
<polygon fill="#cc0000" stroke="#cc0000" points="1537.8719,-1479.9489 1535.943,-1490.3666 1543.9475,-1483.4255 1537.8719,-1479.9489"/>
</g>
<!-- taskmanApi&#45;&gt;taskmanApiLogic -->
<g id="edge10" class="edge">
<title>taskmanApi&#45;&gt;taskmanApiLogic</title>
<path fill="none" stroke="#111111" stroke-dasharray="5,2" d="M1513.0392,-1330.9577C1505.4006,-1356.3512 1493.9408,-1404.1832 1501,-1444.6215 1503.1414,-1456.8882 1507.4329,-1469.909 1511.7351,-1480.9719"/>
<polygon fill="#111111" stroke="#111111" points="1508.6066,-1482.569 1515.6276,-1490.5035 1515.087,-1479.9224 1508.6066,-1482.569"/>
<text text-anchor="middle" x="1526.5" y="-1414.0514" font-family="Times,serif" font-size="14.00" fill="#000000">test&#45;lib</text>
</g>
<!-- taskmanApiLogic&#45;&gt;baseUtil -->
<g id="edge7" class="edge">
<title>taskmanApiLogic&#45;&gt;baseUtil</title>
<path fill="none" stroke="#cc0000" d="M1466.3755,-1522.6167C1401.248,-1538.7915 1302.1464,-1564.119 1286,-1572.3616 1240.6246,-1595.5253 1197,-1593.6558 1197,-1644.6017 1197,-1644.6017 1197,-1644.6017 1197,-1871.452 1197,-1903.1208 1224.2095,-1925.4504 1252.158,-1940.0334"/>
<polygon fill="#cc0000" stroke="#cc0000" points="1250.7071,-1943.2202 1261.2246,-1944.498 1253.7994,-1936.9403 1250.7071,-1943.2202"/>
</g>
<!-- taskmanServer -->
<g id="node11" class="node">
<title>taskmanServer</title>
<ellipse fill="#00ccff" stroke="#000000" cx="1667" cy="-1131.5311" rx="83.3857" ry="18"/>
<text text-anchor="middle" x="1667" y="-1127.8311" font-family="Times,serif" font-size="14.00" fill="#000000">taskman&#45;server</text>
</g>
<!-- taskmanServer&#45;&gt;taskmanDb -->
<g id="edge16" class="edge">
<title>taskmanServer&#45;&gt;taskmanDb</title>
<path fill="none" stroke="#cc0000" d="M1739.0285,-1140.5402C1786.897,-1151.0272 1841,-1173.6373 1841,-1222.2712 1841,-1222.2712 1841,-1222.2712 1841,-1417.7514 1841,-1446.1143 1818.626,-1469.3704 1796.9724,-1485.2363"/>
<polygon fill="#cc0000" stroke="#cc0000" points="1794.9678,-1482.3671 1788.7568,-1490.9504 1798.9648,-1488.1138 1794.9678,-1482.3671"/>
</g>
<!-- taskmanServer&#45;&gt;taskmanServerLogic -->
<g id="edge14" class="edge">
<title>taskmanServer&#45;&gt;taskmanServerLogic</title>
<path fill="none" stroke="#cc0000" d="M1671.5788,-1149.5956C1679.6384,-1181.3923 1696.407,-1247.5482 1705.9522,-1285.2063"/>
<polygon fill="#cc0000" stroke="#cc0000" points="1702.5899,-1286.1864 1708.4397,-1295.0199 1709.3753,-1284.4664 1702.5899,-1286.1864"/>
</g>
<!-- taskmanServer&#45;&gt;taskmanApi -->
<g id="edge15" class="edge">
<title>taskmanServer&#45;&gt;taskmanApi</title>
<path fill="none" stroke="#cc0000" d="M1652.5397,-1149.2626C1626.2349,-1181.5179 1570.4646,-1249.9045 1539.9785,-1287.2871"/>
<polygon fill="#cc0000" stroke="#cc0000" points="1537.1267,-1285.2461 1533.519,-1295.2078 1542.5515,-1289.6701 1537.1267,-1285.2461"/>
</g>
<!-- taskman -->
<g id="node12" class="node">
<title>taskman</title>
<ellipse fill="#ffff80" stroke="#000000" cx="1519" cy="-1002.791" rx="70.922" ry="26.7407"/>
<text text-anchor="middle" x="1519" y="-1006.591" font-family="Times,serif" font-size="14.00" fill="#000000">[aggregate]</text>
<text text-anchor="middle" x="1519" y="-991.591" font-family="Times,serif" font-size="14.00" fill="#000000">taskman</text>
</g>
<!-- taskman&#45;&gt;taskmanApi -->
<g id="edge54" class="edge">
<title>taskman&#45;&gt;taskmanApi</title>
<path fill="none" stroke="#aaaaaa" stroke-dasharray="5,2" d="M1519,-1029.7253C1519,-1041.2547 1519,-1054.8681 1519,-1067.161 1519,-1067.161 1519,-1067.161 1519,-1222.2712 1519,-1243.243 1519,-1266.9413 1519,-1284.8592"/>
<polygon fill="#aaaaaa" stroke="#aaaaaa" points="1519,-1294.9342 1514.5001,-1284.9341 1519,-1289.9342 1519.0001,-1284.9342 1519.0001,-1284.9342 1519.0001,-1284.9342 1519,-1289.9342 1523.5001,-1284.9342 1519,-1294.9342 1519,-1294.9342"/>
</g>
<!-- taskman&#45;&gt;taskmanServer -->
<g id="edge55" class="edge">
<title>taskman&#45;&gt;taskmanServer</title>
<path fill="none" stroke="#aaaaaa" stroke-dasharray="5,2" d="M1547.5359,-1027.6134C1573.8746,-1050.5245 1612.7592,-1084.3489 1638.9441,-1107.1262"/>
<polygon fill="#aaaaaa" stroke="#aaaaaa" points="1646.6348,-1113.8161 1636.1364,-1110.6482 1642.8623,-1110.5345 1639.0898,-1107.253 1639.0898,-1107.253 1639.0898,-1107.253 1642.8623,-1110.5345 1642.0432,-1103.8577 1646.6348,-1113.8161 1646.6348,-1113.8161"/>
</g>
<!-- webappMacro -->
<g id="node13" class="node">
<title>webappMacro</title>
<ellipse fill="#ffffff" stroke="#000000" cx="1035" cy="-1871.452" rx="86.0347" ry="26.7407"/>
<text text-anchor="middle" x="1035" y="-1875.252" font-family="Times,serif" font-size="14.00" fill="#000000">webapp&#45;macro</text>
<text text-anchor="middle" x="1035" y="-1860.252" font-family="Times,serif" font-size="14.00" fill="#000000">(JVM &amp; JS)</text>
</g>
<!-- webappMacro&#45;&gt;baseUtil -->
<g id="edge17" class="edge">
<title>webappMacro&#45;&gt;baseUtil</title>
<path fill="none" stroke="#cc0000" d="M1094.7638,-1891.0296C1140.6449,-1906.0593 1203.788,-1926.7439 1250.1755,-1941.9396"/>
<polygon fill="#cc0000" stroke="#cc0000" points="1249.2148,-1945.3078 1259.8075,-1945.0948 1251.394,-1938.6556 1249.2148,-1945.3078"/>
</g>
<!-- webappBase -->
<g id="node14" class="node">
<title>webappBase</title>
<ellipse fill="#ffffff" stroke="#000000" cx="841" cy="-1689.9718" rx="77.5641" ry="26.7407"/>
<text text-anchor="middle" x="841" y="-1693.7718" font-family="Times,serif" font-size="14.00" fill="#000000">webapp&#45;base</text>
<text text-anchor="middle" x="841" y="-1678.7718" font-family="Times,serif" font-size="14.00" fill="#000000">(JVM &amp; JS)</text>
</g>
<!-- webappBase&#45;&gt;webappMacro -->
<g id="edge18" class="edge">
<title>webappBase&#45;&gt;webappMacro</title>
<path fill="none" stroke="#cc0000" d="M867.9749,-1715.2058C902.3834,-1747.3938 961.9638,-1803.1292 999.8829,-1838.6012"/>
<polygon fill="#cc0000" stroke="#cc0000" points="997.935,-1841.5717 1007.6288,-1845.8472 1002.717,-1836.4597 997.935,-1841.5717"/>
</g>
<!-- webappBaseMember -->
<g id="node15" class="node">
<title>webappBaseMember</title>
<ellipse fill="#ffffff" stroke="#000000" cx="799" cy="-1508.4916" rx="122.1592" ry="26.7407"/>
<text text-anchor="middle" x="799" y="-1512.2916" font-family="Times,serif" font-size="14.00" fill="#000000">webapp&#45;base&#45;member</text>
<text text-anchor="middle" x="799" y="-1497.2916" font-family="Times,serif" font-size="14.00" fill="#000000">(JVM &amp; JS)</text>
</g>
<!-- webappBaseMember&#45;&gt;webappBase -->
<g id="edge23" class="edge">
<title>webappBaseMember&#45;&gt;webappBase</title>
<path fill="none" stroke="#cc0000" d="M805.2878,-1535.661C812.5151,-1566.8899 824.4146,-1618.3068 832.4722,-1653.1235"/>
<polygon fill="#cc0000" stroke="#cc0000" points="829.0732,-1653.9601 834.7379,-1662.9134 835.893,-1652.3817 829.0732,-1653.9601"/>
</g>
<!-- webappServerLogic -->
<g id="node16" class="node">
<title>webappServerLogic</title>
<ellipse fill="#ffffff" stroke="#000000" cx="1057" cy="-535.8305" rx="113.6886" ry="26.7407"/>
<text text-anchor="middle" x="1057" y="-539.6305" font-family="Times,serif" font-size="14.00" fill="#000000">webapp&#45;server&#45;logic</text>
<text text-anchor="middle" x="1057" y="-524.6305" font-family="Times,serif" font-size="14.00" fill="#000000">(JVM &amp; JS)</text>
</g>
<!-- webappServerLogic&#45;&gt;taskmanApiLogic -->
<g id="edge19" class="edge">
<title>webappServerLogic&#45;&gt;taskmanApiLogic</title>
<path fill="none" stroke="#cc0000" d="M1139.3471,-554.5681C1219.4037,-575.2398 1329,-611.1675 1329,-652.9407 1329,-652.9407 1329,-652.9407 1329,-1086.161 1329,-1119.9933 1331.0277,-1132.6749 1353,-1158.4012 1371.2029,-1179.714 1391.9697,-1165.1402 1409,-1187.4012 1451.1305,-1242.4717 1419.5953,-1274.263 1442,-1339.8814 1459.8056,-1392.0303 1489.9205,-1448.9415 1508.2784,-1481.5119"/>
<polygon fill="#cc0000" stroke="#cc0000" points="1505.3592,-1483.4587 1513.3481,-1490.4177 1511.4426,-1479.9956 1505.3592,-1483.4587"/>
</g>
<!-- webappSsrJvm -->
<g id="node20" class="node">
<title>webappSsrJvm</title>
<ellipse fill="#ffffff" stroke="#000000" cx="881" cy="-717.3107" rx="69.0935" ry="26.7407"/>
<text text-anchor="middle" x="881" y="-721.1107" font-family="Times,serif" font-size="14.00" fill="#000000">webapp&#45;ssr</text>
<text text-anchor="middle" x="881" y="-706.1107" font-family="Times,serif" font-size="14.00" fill="#000000">(JVM)</text>
</g>
<!-- webappServerLogic&#45;&gt;webappSsrJvm -->
<g id="edge21" class="edge">
<title>webappServerLogic&#45;&gt;webappSsrJvm</title>
<path fill="none" stroke="#cc0000" d="M1043.9899,-562.8944C1033.0605,-583.8894 1016.0377,-612.9394 996,-634.4407 976.3007,-655.5789 950.4803,-674.7596 928.2975,-689.3317"/>
<polygon fill="#cc0000" stroke="#cc0000" points="926.1893,-686.5264 919.6788,-694.8849 929.9807,-692.4107 926.1893,-686.5264"/>
</g>
<!-- webappClientPublic -->
<g id="node22" class="node">
<title>webappClientPublic</title>
<ellipse fill="#00ccff" stroke="#000000" cx="1007" cy="-1131.5311" rx="117.2596" ry="26.7407"/>
<text text-anchor="middle" x="1007" y="-1135.3311" font-family="Times,serif" font-size="14.00" fill="#000000">webapp&#45;client&#45;public</text>
<text text-anchor="middle" x="1007" y="-1120.3311" font-family="Times,serif" font-size="14.00" fill="#000000">(JVM &amp; JS)</text>
</g>
<!-- webappServerLogic&#45;&gt;webappClientPublic -->
<g id="edge20" class="edge">
<title>webappServerLogic&#45;&gt;webappClientPublic</title>
<path fill="none" stroke="#cc0000" d="M1051.5847,-562.6838C1047.2881,-586.3401 1042,-621.7841 1042,-652.9407 1042,-652.9407 1042,-652.9407 1042,-1067.161 1042,-1077.2738 1038.6246,-1087.3134 1033.9703,-1096.3501"/>
<polygon fill="#cc0000" stroke="#cc0000" points="1030.935,-1094.6074 1028.9673,-1105.0179 1036.9976,-1098.1067 1030.935,-1094.6074"/>
</g>
<!-- webappBaseTest -->
<g id="node27" class="node">
<title>webappBaseTest</title>
<ellipse fill="#ffffff" stroke="#0000ff" cx="918" cy="-1313.0113" rx="100.3184" ry="26.7407"/>
<text text-anchor="middle" x="918" y="-1316.8113" font-family="Times,serif" font-size="14.00" fill="#000000">webapp&#45;base&#45;test</text>
<text text-anchor="middle" x="918" y="-1301.8113" font-family="Times,serif" font-size="14.00" fill="#000000">(JVM &amp; JS)</text>
</g>
<!-- webappServerLogic&#45;&gt;webappBaseTest -->
<g id="edge22" class="edge">
<title>webappServerLogic&#45;&gt;webappBaseTest</title>
<path fill="none" stroke="#111111" stroke-dasharray="5,2" d="M1090.9895,-561.7165C1115.028,-583.2005 1143,-616.1123 1143,-652.9407 1143,-652.9407 1143,-652.9407 1143,-1176.9012 1143,-1242.2293 1072.7009,-1277.0516 1010.692,-1295.0603"/>
<polygon fill="#111111" stroke="#111111" points="1009.5178,-1291.754 1000.8231,-1297.8083 1011.3955,-1298.4975 1009.5178,-1291.754"/>
<text text-anchor="middle" x="1157" y="-927.7209" font-family="Times,serif" font-size="14.00" fill="#000000">test</text>
</g>
<!-- webappClientWwApi -->
<g id="node17" class="node">
<title>webappClientWwApi</title>
<ellipse fill="#ffffff" stroke="#000000" cx="518" cy="-717.3107" rx="121.7449" ry="26.7407"/>
<text text-anchor="middle" x="518" y="-721.1107" font-family="Times,serif" font-size="14.00" fill="#000000">webapp&#45;client&#45;ww&#45;api</text>
<text text-anchor="middle" x="518" y="-706.1107" font-family="Times,serif" font-size="14.00" fill="#000000">(JS)</text>
</g>
<!-- webappClientWwApi&#45;&gt;webappBaseMember -->
<g id="edge31" class="edge">
<title>webappClientWwApi&#45;&gt;webappBaseMember</title>
<path fill="none" stroke="#cc0000" d="M501.4669,-744.0795C494.9543,-757.0581 489,-773.1664 489,-788.6808 489,-788.6808 489,-788.6808 489,-1417.7514 489,-1458.9239 590.9942,-1482.7183 677.9754,-1495.5243"/>
<polygon fill="#cc0000" stroke="#cc0000" points="677.5628,-1499.0009 687.9585,-1496.9563 678.5568,-1492.0718 677.5628,-1499.0009"/>
</g>
<!-- webappClientLoaders -->
<g id="node18" class="node">
<title>webappClientLoaders</title>
<ellipse fill="#ffffff" stroke="#000000" cx="631" cy="-1002.791" rx="123.0732" ry="26.7407"/>
<text text-anchor="middle" x="631" y="-1006.591" font-family="Times,serif" font-size="14.00" fill="#000000">webapp&#45;client&#45;loaders</text>
<text text-anchor="middle" x="631" y="-991.591" font-family="Times,serif" font-size="14.00" fill="#000000">(JS)</text>
</g>
<!-- webappClientLoaders&#45;&gt;webappBaseMember -->
<g id="edge26" class="edge">
<title>webappClientLoaders&#45;&gt;webappBaseMember</title>
<path fill="none" stroke="#cc0000" d="M671.3482,-1028.2167C682.6921,-1038.5748 692,-1051.7649 692,-1067.161 692,-1067.161 692,-1067.161 692,-1417.7514 692,-1444.2086 711.2641,-1464.5504 733.4444,-1479.2031"/>
<polygon fill="#cc0000" stroke="#cc0000" points="731.7106,-1482.2463 742.0539,-1484.5413 735.3993,-1476.297 731.7106,-1482.2463"/>
</g>
<!-- webappSsrShared -->
<g id="node19" class="node">
<title>webappSsrShared</title>
<ellipse fill="#ffffff" stroke="#000000" cx="881" cy="-1002.791" rx="69.0935" ry="26.7407"/>
<text text-anchor="middle" x="881" y="-1006.591" font-family="Times,serif" font-size="14.00" fill="#000000">webapp&#45;ssr</text>
<text text-anchor="middle" x="881" y="-991.591" font-family="Times,serif" font-size="14.00" fill="#000000">(JVM &amp; JS)</text>
</g>
<!-- webappSsrShared&#45;&gt;webappBaseMember -->
<g id="edge37" class="edge">
<title>webappSsrShared&#45;&gt;webappBaseMember</title>
<path fill="none" stroke="#cc0000" d="M839.4853,-1024.5622C825.3277,-1035.1421 813,-1049.4419 813,-1067.161 813,-1067.161 813,-1067.161 813,-1176.9012 813,-1191.3885 804.3568,-1387.8243 800.6528,-1471.3396"/>
<polygon fill="#cc0000" stroke="#cc0000" points="797.1527,-1471.2672 800.2057,-1481.4126 804.1458,-1471.5777 797.1527,-1471.2672"/>
</g>
<!-- webappSsrShared&#45;&gt;webappClientPublic -->
<g id="edge38" class="edge">
<title>webappSsrShared&#45;&gt;webappClientPublic</title>
<path fill="none" stroke="#cc0000" d="M905.5932,-1027.919C925.1538,-1047.905 952.7022,-1076.0525 974.15,-1097.9667"/>
<polygon fill="#cc0000" stroke="#cc0000" points="971.6734,-1100.4401 981.1694,-1105.1388 976.6761,-1095.5439 971.6734,-1100.4401"/>
</g>
<!-- webappSsrJvm&#45;&gt;webappSsrShared -->
<g id="edge39" class="edge">
<title>webappSsrJvm&#45;&gt;webappSsrShared</title>
<path fill="none" stroke="#cc0000" d="M898.6057,-743.5658C912.661,-766.205 931.2399,-800.3415 939,-833.1808 944.4927,-856.4251 944.4927,-863.6766 939,-886.9209 932.1796,-915.7836 917.0019,-945.6483 903.8835,-967.8285"/>
<polygon fill="#cc0000" stroke="#cc0000" points="900.796,-966.1699 898.6057,-976.5359 906.7823,-969.7983 900.796,-966.1699"/>
</g>
<!-- webappSsrJs -->
<g id="node21" class="node">
<title>webappSsrJs</title>
<ellipse fill="#ffffff" stroke="#000000" cx="861" cy="-860.0509" rx="69.0935" ry="26.7407"/>
<text text-anchor="middle" x="861" y="-863.8509" font-family="Times,serif" font-size="14.00" fill="#000000">webapp&#45;ssr</text>
<text text-anchor="middle" x="861" y="-848.8509" font-family="Times,serif" font-size="14.00" fill="#000000">(JS)</text>
</g>
<!-- webappSsrJvm&#45;&gt;webappSsrJs -->
<g id="edge42" class="edge">
<title>webappSsrJvm&#45;&gt;webappSsrJs</title>
<path fill="none" stroke="#111111" stroke-dasharray="5,2" d="M877.2382,-744.1591C874.1292,-766.3475 869.681,-798.0948 866.226,-822.7526"/>
<polygon fill="#111111" stroke="#111111" points="862.7345,-822.4487 864.813,-832.8376 869.6668,-823.42 862.7345,-822.4487"/>
<text text-anchor="middle" x="880" y="-784.9808" font-family="Times,serif" font-size="14.00" fill="#000000">JS</text>
</g>
<!-- webappSsrJs&#45;&gt;webappClientLoaders -->
<g id="edge41" class="edge">
<title>webappSsrJs&#45;&gt;webappClientLoaders</title>
<path fill="none" stroke="#cc0000" d="M850.7701,-886.7575C843.0084,-903.8103 830.7934,-925.2128 814,-938.9209 790.3452,-958.2299 760.4672,-971.8752 731.7498,-981.4458"/>
<polygon fill="#cc0000" stroke="#cc0000" points="730.5277,-978.1618 722.066,-984.5375 732.6568,-984.8302 730.5277,-978.1618"/>
</g>
<!-- webappSsrJs&#45;&gt;webappSsrShared -->
<g id="edge40" class="edge">
<title>webappSsrJs&#45;&gt;webappSsrShared</title>
<path fill="none" stroke="#cc0000" d="M864.7618,-886.8992C867.8708,-909.0876 872.319,-940.8349 875.774,-965.4927"/>
<polygon fill="#cc0000" stroke="#cc0000" points="872.3332,-966.1602 877.187,-975.5777 879.2655,-965.1888 872.3332,-966.1602"/>
</g>
<!-- webappClientPublic&#45;&gt;webappBase -->
<g id="edge29" class="edge">
<title>webappClientPublic&#45;&gt;webappBase</title>
<path fill="none" stroke="#cc0000" d="M1069.0751,-1154.449C1096.655,-1169.0073 1123,-1191.0777 1123,-1222.2712 1123,-1222.2712 1123,-1222.2712 1123,-1599.2317 1123,-1641.3017 1007.8315,-1666.6593 924.6939,-1679.4836"/>
<polygon fill="#cc0000" stroke="#cc0000" points="924.0908,-1676.0349 914.7238,-1680.9857 925.1337,-1682.9567 924.0908,-1676.0349"/>
</g>
<!-- webappClientPublic&#45;&gt;webappBaseTest -->
<g id="edge30" class="edge">
<title>webappClientPublic&#45;&gt;webappBaseTest</title>
<path fill="none" stroke="#111111" stroke-dasharray="5,2" d="M993.8677,-1158.3091C978.4869,-1189.6723 952.9338,-1241.7778 935.7847,-1276.7464"/>
<polygon fill="#111111" stroke="#111111" points="932.4469,-1275.6039 931.1861,-1286.1234 938.7318,-1278.6861 932.4469,-1275.6039"/>
<text text-anchor="middle" x="994" y="-1218.5712" font-family="Times,serif" font-size="14.00" fill="#000000">test</text>
</g>
<!-- webappClientHome -->
<g id="node23" class="node">
<title>webappClientHome</title>
<ellipse fill="#00ccff" stroke="#000000" cx="873" cy="-607.5706" rx="113.6886" ry="26.7407"/>
<text text-anchor="middle" x="873" y="-611.3706" font-family="Times,serif" font-size="14.00" fill="#000000">webapp&#45;client&#45;home</text>
<text text-anchor="middle" x="873" y="-596.3706" font-family="Times,serif" font-size="14.00" fill="#000000">(JS)</text>
</g>
<!-- webappClientHome&#45;&gt;webappClientLoaders -->
<g id="edge27" class="edge">
<title>webappClientHome&#45;&gt;webappClientLoaders</title>
<path fill="none" stroke="#cc0000" d="M801.3871,-628.4956C789.0409,-634.6404 777.2318,-642.4821 768,-652.4407 670.4963,-757.6203 730.3733,-830.782 664,-957.9209 662.2883,-961.1997 660.3514,-964.5005 658.2948,-967.7433"/>
<polygon fill="#cc0000" stroke="#cc0000" points="655.3249,-965.8876 652.6437,-976.1375 661.1317,-969.7967 655.3249,-965.8876"/>
</g>
<!-- webappClientHome&#45;&gt;webappBaseTest -->
<g id="edge28" class="edge">
<title>webappClientHome&#45;&gt;webappBaseTest</title>
<path fill="none" stroke="#111111" stroke-dasharray="5,2" d="M803.5467,-628.9617C786.4827,-638.6985 773,-652.5326 773,-671.9407 773,-671.9407 773,-671.9407 773,-814.6808 773,-898.7565 793,-918.7153 793,-1002.791 793,-1002.791 793,-1002.791 793,-1176.9012 793,-1222.3015 831.1936,-1259.0988 865.3567,-1282.9319"/>
<polygon fill="#111111" stroke="#111111" points="863.681,-1286.0231 873.9297,-1288.7091 867.5929,-1280.2182 863.681,-1286.0231"/>
<text text-anchor="middle" x="803" y="-927.7209" font-family="Times,serif" font-size="14.00" fill="#000000">test</text>
</g>
<!-- webappClientWw -->
<g id="node24" class="node">
<title>webappClientWw</title>
<ellipse fill="#00ccff" stroke="#000000" cx="762" cy="-535.8305" rx="103.4757" ry="26.7407"/>
<text text-anchor="middle" x="762" y="-539.6305" font-family="Times,serif" font-size="14.00" fill="#000000">webapp&#45;client&#45;ww</text>
<text text-anchor="middle" x="762" y="-524.6305" font-family="Times,serif" font-size="14.00" fill="#000000">(JS)</text>
</g>
<!-- webappClientWw&#45;&gt;webappClientWwApi -->
<g id="edge32" class="edge">
<title>webappClientWw&#45;&gt;webappClientWwApi</title>
<path fill="none" stroke="#cc0000" d="M727.8159,-561.2557C684.14,-593.7406 608.5209,-649.9839 560.9865,-685.3387"/>
<polygon fill="#cc0000" stroke="#cc0000" points="558.6762,-682.6949 552.7411,-691.4713 562.8538,-688.3117 558.6762,-682.6949"/>
</g>
<!-- webappClientWw&#45;&gt;webappBaseTest -->
<g id="edge33" class="edge">
<title>webappClientWw&#45;&gt;webappBaseTest</title>
<path fill="none" stroke="#111111" stroke-dasharray="5,2" d="M752.2759,-562.8913C746.3962,-584.4434 742.6629,-614.2464 758,-634.4407 814.0884,-708.2919 897.969,-620.6187 959,-690.4407 980.3315,-714.8448 969,-730.2679 969,-762.6808 969,-762.6808 969,-762.6808 969,-957.4209 969,-989.8338 973.7163,-1000.7815 959,-1029.661 937.1648,-1072.5109 899.8389,-1060.4119 881,-1104.661 856.65,-1161.8549 880.6518,-1234.463 899.7267,-1277.1239"/>
<polygon fill="#111111" stroke="#111111" points="896.5791,-1278.6563 903.947,-1286.2697 902.935,-1275.7233 896.5791,-1278.6563"/>
<text text-anchor="middle" x="983" y="-927.7209" font-family="Times,serif" font-size="14.00" fill="#000000">test</text>
</g>
<!-- webappClientProject -->
<g id="node25" class="node">
<title>webappClientProject</title>
<ellipse fill="#00ccff" stroke="#000000" cx="518" cy="-535.8305" rx="122.1592" ry="26.7407"/>
<text text-anchor="middle" x="518" y="-539.6305" font-family="Times,serif" font-size="14.00" fill="#000000">webapp&#45;client&#45;project</text>
<text text-anchor="middle" x="518" y="-524.6305" font-family="Times,serif" font-size="14.00" fill="#000000">(JS)</text>
</g>
<!-- webappClientProject&#45;&gt;webappClientWwApi -->
<g id="edge34" class="edge">
<title>webappClientProject&#45;&gt;webappClientWwApi</title>
<path fill="none" stroke="#cc0000" d="M518,-562.9999C518,-594.0948 518,-645.2048 518,-680.0133"/>
<polygon fill="#cc0000" stroke="#cc0000" points="514.5001,-680.2524 518,-690.2524 521.5001,-680.2524 514.5001,-680.2524"/>
</g>
<!-- webappClientProject&#45;&gt;webappClientLoaders -->
<g id="edge35" class="edge">
<title>webappClientProject&#45;&gt;webappClientLoaders</title>
<path fill="none" stroke="#cc0000" d="M556.1566,-561.3794C597.9144,-592.7301 659,-650.0812 659,-717.3107 659,-717.3107 659,-717.3107 659,-931.4209 659,-943.3626 655.5609,-955.7 651.0933,-966.6891"/>
<polygon fill="#cc0000" stroke="#cc0000" points="647.8375,-965.3965 646.963,-975.9552 654.2311,-968.2464 647.8375,-965.3965"/>
</g>
<!-- webappClientProject&#45;&gt;webappBaseTest -->
<g id="edge36" class="edge">
<title>webappClientProject&#45;&gt;webappBaseTest</title>
<path fill="none" stroke="#111111" stroke-dasharray="5,2" d="M602.0016,-555.459C650.1093,-572.2368 701,-602.0194 701,-652.9407 701,-652.9407 701,-652.9407 701,-762.6808 701,-844.475 730.1001,-860.6964 754,-938.9209 757.9433,-951.8273 760.1544,-954.729 763,-967.9209 770.5779,-1003.0511 773,-1012.2229 773,-1048.161 773,-1048.161 773,-1048.161 773,-1222.2712 773,-1255.9217 801.4092,-1277.5607 833.0778,-1291.2287"/>
<polygon fill="#111111" stroke="#111111" points="831.9441,-1294.5455 842.5271,-1295.0471 834.5668,-1288.0554 831.9441,-1294.5455"/>
<text text-anchor="middle" x="768" y="-927.7209" font-family="Times,serif" font-size="14.00" fill="#000000">test</text>
</g>
<!-- webappServer -->
<g id="node26" class="node">
<title>webappServer</title>
<ellipse fill="#00ccff" stroke="#000000" cx="853" cy="-363.2203" rx="79.0865" ry="18"/>
<text text-anchor="middle" x="853" y="-359.5203" font-family="Times,serif" font-size="14.00" fill="#000000">webapp&#45;server</text>
</g>
<!-- webappServer&#45;&gt;taskmanApi -->
<g id="edge43" class="edge">
<title>webappServer&#45;&gt;taskmanApi</title>
<path fill="none" stroke="#cc0000" d="M929.951,-367.6608C1073.3398,-376.9723 1367,-401.3783 1367,-445.0904 1367,-445.0904 1367,-445.0904 1367,-1086.161 1367,-1087.6512 1460.8647,-1226.8864 1501.0705,-1286.4577"/>
<polygon fill="#cc0000" stroke="#cc0000" points="1498.3224,-1288.6424 1506.8181,-1294.9727 1504.1243,-1284.726 1498.3224,-1288.6424"/>
</g>
<!-- webappServer&#45;&gt;webappServerLogic -->
<g id="edge44" class="edge">
<title>webappServer&#45;&gt;webappServerLogic</title>
<path fill="none" stroke="#cc0000" d="M885.3824,-379.6782C895.5242,-385.3641 906.533,-392.1073 916,-399.2203 957.3986,-430.3253 999.3192,-472.6238 1026.5622,-501.8755"/>
<polygon fill="#cc0000" stroke="#cc0000" points="1024.1462,-504.418 1033.5032,-509.3875 1029.2875,-499.6675 1024.1462,-504.418"/>
</g>
<!-- webappServer&#45;&gt;webappClientPublic -->
<g id="edge45" class="edge">
<title>webappServer&#45;&gt;webappClientPublic</title>
<path fill="none" stroke="#cc0000" stroke-dasharray="5,2" d="M859.8589,-381.2728C878.1048,-429.1317 926.9289,-556.0679 934,-562.7006 952.4514,-580.008 971.2124,-561.775 988,-580.7006 1029.1277,-627.0661 1016,-655.3329 1016,-717.3107 1016,-717.3107 1016,-717.3107 1016,-1067.161 1016,-1076.0014 1015.1571,-1085.4595 1013.9872,-1094.3292"/>
<polygon fill="#cc0000" stroke="#cc0000" points="1010.4988,-1093.9939 1012.4946,-1104.3991 1017.4231,-1095.0204 1010.4988,-1093.9939"/>
</g>
<!-- webappServer&#45;&gt;webappClientHome -->
<g id="edge46" class="edge">
<title>webappServer&#45;&gt;webappClientHome</title>
<path fill="none" stroke="#cc0000" stroke-dasharray="5,2" d="M856.4994,-381.5342C861.564,-409.0641 870.6921,-462.8091 874,-508.9605 875.7076,-532.7838 874.2661,-538.8176 874,-562.7006 873.9719,-565.223 873.9349,-567.8251 873.8917,-570.4463"/>
<polygon fill="#cc0000" stroke="#cc0000" points="870.391,-570.4584 873.7002,-580.5231 877.3897,-570.5914 870.391,-570.4584"/>
</g>
<!-- webappServer&#45;&gt;webappClientWw -->
<g id="edge48" class="edge">
<title>webappServer&#45;&gt;webappClientWw</title>
<path fill="none" stroke="#cc0000" stroke-dasharray="5,2" d="M849.6034,-381.3452C844.1447,-407.2454 831.6623,-455.6158 809,-490.9605 806.3969,-495.0203 803.3526,-498.9755 800.0869,-502.7477"/>
<polygon fill="#cc0000" stroke="#cc0000" points="797.3938,-500.504 793.1434,-510.2088 802.5182,-505.2728 797.3938,-500.504"/>
</g>
<!-- webappServer&#45;&gt;webappClientProject -->
<g id="edge47" class="edge">
<title>webappServer&#45;&gt;webappClientProject</title>
<path fill="none" stroke="#cc0000" stroke-dasharray="5,2" d="M828.2456,-380.4306C789.7226,-406.6924 712.5126,-457.2644 642,-490.9605 627.6309,-497.8271 611.915,-504.275 596.6453,-510.0248"/>
<polygon fill="#cc0000" stroke="#cc0000" points="595.3775,-506.7619 587.2115,-513.5122 597.8047,-513.3277 595.3775,-506.7619"/>
</g>
<!-- webappBaseTest&#45;&gt;baseTest -->
<g id="edge24" class="edge">
<title>webappBaseTest&#45;&gt;baseTest</title>
<path fill="none" stroke="#111111" d="M989.443,-1332.1005C1062.1023,-1351.5146 1173.7559,-1381.3478 1244.2803,-1400.1915"/>
<polygon fill="#111111" stroke="#111111" points="1243.3857,-1403.5752 1253.9503,-1402.7753 1245.1927,-1396.8125 1243.3857,-1403.5752"/>
</g>
<!-- webappBaseTest&#45;&gt;webappBaseMember -->
<g id="edge25" class="edge">
<title>webappBaseTest&#45;&gt;webappBaseMember</title>
<path fill="none" stroke="#111111" d="M901.7031,-1339.7821C880.665,-1374.3412 843.9924,-1434.583 820.6362,-1472.9499"/>
<polygon fill="#111111" stroke="#111111" points="817.5009,-1471.3694 815.2906,-1481.7311 823.4801,-1475.0093 817.5009,-1471.3694"/>
</g>
<!-- webapp -->
<g id="node28" class="node">
<title>webapp</title>
<ellipse fill="#ffff80" stroke="#0000ff" cx="784" cy="-208.3503" rx="70.922" ry="26.7407"/>
<text text-anchor="middle" x="784" y="-212.1503" font-family="Times,serif" font-size="14.00" fill="#000000">[aggregate]</text>
<text text-anchor="middle" x="784" y="-197.1503" font-family="Times,serif" font-size="14.00" fill="#000000">webapp</text>
</g>
<!-- webapp&#45;&gt;webappClientHome -->
<g id="edge57" class="edge">
<title>webapp&#45;&gt;webappClientHome</title>
<path fill="none" stroke="#aaaaaa" stroke-dasharray="5,2" d="M840.5386,-224.5385C888.9866,-240.1424 951,-265.0344 951,-290.2203 951,-290.2203 951,-290.2203 951,-399.7203 951,-463.5467 918.3609,-531.7724 895.3097,-571.9976"/>
<polygon fill="#aaaaaa" stroke="#aaaaaa" points="890.1174,-580.8727 891.283,-569.9689 892.6423,-576.557 895.1672,-572.2413 895.1672,-572.2413 895.1672,-572.2413 892.6423,-576.557 899.0513,-574.5136 890.1174,-580.8727 890.1174,-580.8727"/>
</g>
<!-- webapp&#45;&gt;webappClientWw -->
<g id="edge59" class="edge">
<title>webapp&#45;&gt;webappClientWw</title>
<path fill="none" stroke="#aaaaaa" stroke-dasharray="5,2" d="M769.5,-234.8096C762.25,-250.4518 755,-270.9193 755,-290.2203 755,-290.2203 755,-290.2203 755,-445.0904 755,-462.7176 756.3294,-482.2141 757.8295,-498.6029"/>
<polygon fill="#aaaaaa" stroke="#aaaaaa" points="758.8277,-508.8731 753.3813,-499.3553 758.344,-503.8965 757.8602,-498.92 757.8602,-498.92 757.8602,-498.92 758.344,-503.8965 762.3391,-498.4846 758.8277,-508.8731 758.8277,-508.8731"/>
</g>
<!-- webapp&#45;&gt;webappClientProject -->
<g id="edge56" class="edge">
<title>webapp&#45;&gt;webappClientProject</title>
<path fill="none" stroke="#aaaaaa" stroke-dasharray="5,2" d="M718.6676,-218.9174C679.4075,-229.4166 637,-250.0539 637,-290.2203 637,-290.2203 637,-290.2203 637,-445.0904 637,-473.2115 615.727,-493.7742 591.1697,-508.1429"/>
<polygon fill="#aaaaaa" stroke="#aaaaaa" points="582.376,-512.9692 588.9773,-504.2129 586.7592,-510.5635 591.1425,-508.1578 591.1425,-508.1578 591.1425,-508.1578 586.7592,-510.5635 593.3076,-512.1027 582.376,-512.9692 582.376,-512.9692"/>
</g>
<!-- webapp&#45;&gt;webappServer -->
<g id="edge58" class="edge">
<title>webapp&#45;&gt;webappServer</title>
<path fill="none" stroke="#aaaaaa" stroke-dasharray="5,2" d="M795.8615,-234.9734C808.4077,-263.1333 828.1053,-307.3445 840.7842,-335.8021"/>
<polygon fill="#aaaaaa" stroke="#aaaaaa" points="844.953,-345.1588 836.7727,-337.8558 842.9181,-340.5916 840.8832,-336.0244 840.8832,-336.0244 840.8832,-336.0244 842.9181,-340.5916 844.9937,-334.193 844.953,-345.1588 844.953,-345.1588"/>
</g>
<!-- benchmark -->
<g id="node29" class="node">
<title>benchmark</title>
<ellipse fill="#ffffdd" stroke="#000000" cx="295" cy="-117.6102" rx="70.922" ry="26.7407"/>
<text text-anchor="middle" x="295" y="-121.4102" font-family="Times,serif" font-size="14.00" fill="#000000">[aggregate]</text>
<text text-anchor="middle" x="295" y="-106.4102" font-family="Times,serif" font-size="14.00" fill="#000000">benchmark</text>
</g>
<!-- benchmarkJvm -->
<g id="node30" class="node">
<title>benchmarkJvm</title>
<ellipse fill="#ffcccc" stroke="#000000" cx="114" cy="-290.2203" rx="86.3847" ry="18"/>
<text text-anchor="middle" x="114" y="-286.5203" font-family="Times,serif" font-size="14.00" fill="#000000">benchmark JVM</text>
</g>
<!-- benchmark&#45;&gt;benchmarkJvm -->
<g id="edge64" class="edge">
<title>benchmark&#45;&gt;benchmarkJvm</title>
<path fill="none" stroke="#aaaaaa" stroke-dasharray="5,2" d="M268.681,-142.7092C234.2253,-175.5678 174.1974,-232.8133 139.9336,-265.4889"/>
<polygon fill="#aaaaaa" stroke="#aaaaaa" points="132.6237,-272.4599 136.7549,-262.3019 136.2421,-269.0092 139.8606,-265.5585 139.8606,-265.5585 139.8606,-265.5585 136.2421,-269.0092 142.9662,-268.8151 132.6237,-272.4599 132.6237,-272.4599"/>
</g>
<!-- benchmarkJs -->
<g id="node31" class="node">
<title>benchmarkJs</title>
<ellipse fill="#ffcccc" stroke="#000000" cx="295" cy="-290.2203" rx="76.8869" ry="18"/>
<text text-anchor="middle" x="295" y="-286.5203" font-family="Times,serif" font-size="14.00" fill="#000000">benchmark JS</text>
</g>
<!-- benchmark&#45;&gt;benchmarkJs -->
<g id="edge65" class="edge">
<title>benchmark&#45;&gt;benchmarkJs</title>
<path fill="none" stroke="#aaaaaa" stroke-dasharray="5,2" d="M295,-144.5805C295,-176.4407 295,-229.2101 295,-261.7218"/>
<polygon fill="#aaaaaa" stroke="#aaaaaa" points="295,-271.9114 290.5001,-261.9114 295,-266.9114 295.0001,-261.9114 295.0001,-261.9114 295.0001,-261.9114 295,-266.9114 299.5001,-261.9115 295,-271.9114 295,-271.9114"/>
</g>
<!-- benchmarkJvm&#45;&gt;webappServer -->
<g id="edge51" class="edge">
<title>benchmarkJvm&#45;&gt;webappServer</title>
<path fill="none" stroke="#cc0000" d="M175.684,-302.8538C186.7448,-304.8488 198.1899,-306.7386 209,-308.2203 406.8836,-335.3451 640.9256,-351.3394 765.1798,-358.5681"/>
<polygon fill="#cc0000" stroke="#cc0000" points="765.2106,-362.0756 775.3955,-359.157 765.6136,-355.0872 765.2106,-362.0756"/>
</g>
<!-- benchmarkShared -->
<g id="node32" class="node">
<title>benchmarkShared</title>
<ellipse fill="#ffcccc" stroke="#000000" cx="200" cy="-445.0904" rx="69.0935" ry="26.7407"/>
<text text-anchor="middle" x="200" y="-448.8904" font-family="Times,serif" font-size="14.00" fill="#000000">benchmark</text>
<text text-anchor="middle" x="200" y="-433.8904" font-family="Times,serif" font-size="14.00" fill="#000000">base</text>
</g>
<!-- benchmarkJvm&#45;&gt;benchmarkShared -->
<g id="edge49" class="edge">
<title>benchmarkJvm&#45;&gt;benchmarkShared</title>
<path fill="none" stroke="#cc0000" d="M124.0336,-308.289C137.7853,-333.0532 162.779,-378.0623 180.3324,-409.6727"/>
<polygon fill="#cc0000" stroke="#cc0000" points="177.3804,-411.5663 185.2951,-418.6096 183.5002,-408.1679 177.3804,-411.5663"/>
</g>
<!-- benchmarkJs&#45;&gt;webappClientProject -->
<g id="edge52" class="edge">
<title>benchmarkJs&#45;&gt;webappClientProject</title>
<path fill="none" stroke="#cc0000" d="M311.0376,-307.884C347.8745,-348.4558 439.0517,-448.8776 487.1537,-501.8567"/>
<polygon fill="#cc0000" stroke="#cc0000" points="484.6131,-504.2653 493.9265,-509.3162 489.7957,-499.5598 484.6131,-504.2653"/>
</g>
<!-- benchmarkJs&#45;&gt;benchmarkShared -->
<g id="edge50" class="edge">
<title>benchmarkJs&#45;&gt;benchmarkShared</title>
<path fill="none" stroke="#cc0000" d="M283.9164,-308.289C268.6156,-333.2324 240.7159,-378.7149 221.3062,-410.3568"/>
<polygon fill="#cc0000" stroke="#cc0000" points="218.3197,-408.5317 216.0743,-418.8859 224.2866,-412.1919 218.3197,-408.5317"/>
</g>
<!-- utils -->
<g id="node33" class="node">
<title>utils</title>
<ellipse fill="#ffffdd" stroke="#000000" cx="117" cy="-117.6102" rx="31.3957" ry="18"/>
<text text-anchor="middle" x="117" y="-113.9102" font-family="Times,serif" font-size="14.00" fill="#000000">utils</text>
</g>
<!-- utils&#45;&gt;webappBase -->
<g id="edge53" class="edge">
<title>utils&#45;&gt;webappBase</title>
<path fill="none" stroke="#cc0000" d="M88.9756,-125.7059C54.3622,-137.6287 0,-163.4943 0,-208.3503 0,-208.3503 0,-208.3503 0,-1599.2317 0,-1636.8624 539.2712,-1672.4112 754.1535,-1685.0826"/>
<polygon fill="#cc0000" stroke="#cc0000" points="753.9495,-1688.5766 764.1374,-1685.6686 754.3597,-1681.5886 753.9495,-1688.5766"/>
</g>
<!-- root -->
<g id="node34" class="node">
<title>root</title>
<ellipse fill="#cccccc" stroke="#000000" cx="784" cy="-26.8701" rx="70.922" ry="26.7407"/>
<text text-anchor="middle" x="784" y="-30.6701" font-family="Times,serif" font-size="14.00" fill="#000000">[aggregate]</text>
<text text-anchor="middle" x="784" y="-15.6701" font-family="Times,serif" font-size="14.00" fill="#000000">root</text>
</g>
<!-- root&#45;&gt;base -->
<g id="edge66" class="edge">
<title>root&#45;&gt;base</title>
<path fill="none" stroke="#aaaaaa" stroke-dasharray="5,2" d="M854.3305,-29.8902C1016.9163,-37.809 1405,-62.4846 1405,-117.6102 1405,-117.6102 1405,-117.6102 1405,-1131.5311 1405,-1158.7325 1384.3814,-1180.2831 1362.3554,-1195.5443"/>
<polygon fill="#aaaaaa" stroke="#aaaaaa" points="1353.8849,-1201.0841 1359.791,-1191.8445 1358.0695,-1198.3473 1362.2541,-1195.6106 1362.2541,-1195.6106 1362.2541,-1195.6106 1358.0695,-1198.3473 1364.7171,-1199.3767 1353.8849,-1201.0841 1353.8849,-1201.0841"/>
</g>
<!-- root&#45;&gt;taskman -->
<g id="edge68" class="edge">
<title>root&#45;&gt;taskman</title>
<path fill="none" stroke="#aaaaaa" stroke-dasharray="5,2" d="M854.3729,-29.7607C1008.5984,-36.3953 1366.8208,-53.5497 1419,-71.7401 1453.0765,-83.6197 1486,-81.5223 1486,-117.6102 1486,-117.6102 1486,-117.6102 1486,-931.4209 1486,-943.8988 1490.2071,-956.565 1495.617,-967.6942"/>
<polygon fill="#aaaaaa" stroke="#aaaaaa" points="1500.3783,-976.6434 1491.7085,-969.9287 1498.0298,-972.2292 1495.6813,-967.8151 1495.6813,-967.8151 1495.6813,-967.8151 1498.0298,-972.2292 1499.654,-965.7014 1500.3783,-976.6434 1500.3783,-976.6434"/>
</g>
<!-- root&#45;&gt;webapp -->
<g id="edge67" class="edge">
<title>root&#45;&gt;webapp</title>
<path fill="none" stroke="#aaaaaa" stroke-dasharray="5,2" d="M784,-54.0395C784,-85.1344 784,-136.2443 784,-171.0528"/>
<polygon fill="#aaaaaa" stroke="#aaaaaa" points="784,-181.2919 779.5001,-171.2919 784,-176.2919 784.0001,-171.2919 784.0001,-171.2919 784.0001,-171.2919 784,-176.2919 788.5001,-171.292 784,-181.2919 784,-181.2919"/>
</g>
<!-- root&#45;&gt;benchmark -->
<g id="edge69" class="edge">
<title>root&#45;&gt;benchmark</title>
<path fill="none" stroke="#aaaaaa" stroke-dasharray="5,2" d="M720.0718,-38.7327C629.4335,-55.5518 463.9927,-86.2514 368.4325,-103.9839"/>
<polygon fill="#aaaaaa" stroke="#aaaaaa" points="358.556,-105.8166 367.5671,-99.5675 363.4721,-104.9043 368.3882,-103.992 368.3882,-103.992 368.3882,-103.992 363.4721,-104.9043 369.2092,-108.4165 358.556,-105.8166 358.556,-105.8166"/>
</g>
<!-- root&#45;&gt;utils -->
<g id="edge70" class="edge">
<title>root&#45;&gt;utils</title>
<path fill="none" stroke="#aaaaaa" stroke-dasharray="5,2" d="M713.0487,-28.2999C604.5167,-31.7238 391.3041,-43.3407 215,-82.7401 193.4876,-87.5476 170.2099,-95.6981 151.7411,-102.9108"/>
<polygon fill="#aaaaaa" stroke="#aaaaaa" points="142.2874,-106.6839 149.9069,-98.7976 146.9312,-104.8304 151.575,-102.977 151.575,-102.977 151.575,-102.977 146.9312,-104.8304 153.2431,-107.1564 142.2874,-106.6839 142.2874,-106.6839"/>
</g>
</g>
</svg>
