<?xml version="1.0" encoding="UTF-8" standalone="no"?>
<!DOCTYPE svg PUBLIC "-//W3C//DTD SVG 1.1//EN"
 "http://www.w3.org/Graphics/SVG/1.1/DTD/svg11.dtd">
<!-- Generated by graphviz version 2.38.0 (20140413.2041)
 -->
<!-- Title: G Pages: 1 -->
<svg width="1779pt" height="899pt"
 viewBox="0.00 0.00 1779.00 898.92" xmlns="http://www.w3.org/2000/svg" xmlns:xlink="http://www.w3.org/1999/xlink">
<g id="graph0" class="graph" transform="scale(1 1) rotate(0) translate(4 894.921)">
<title>G</title>
<polygon fill="white" stroke="none" points="-4,4 -4,-894.921 1775,-894.921 1775,4 -4,4"/>
<g id="clust1" class="cluster"><title>cluster_base</title>
<polygon fill="#f4fff4" stroke="black" points="1611,-451.701 1611,-882.921 1751,-882.921 1751,-451.701 1611,-451.701"/>
</g>
<g id="clust2" class="cluster"><title>cluster_t</title>
<polygon fill="#eeeeff" stroke="black" points="326,-171.48 326,-721.181 1544,-721.181 1544,-171.48 326,-171.48"/>
</g>
<g id="clust3" class="cluster"><title>cluster_ts</title>
<polygon fill="white" stroke="black" points="952,-360.96 952,-617.311 1346,-617.311 1346,-360.96 952,-360.96"/>
</g>
<g id="clust4" class="cluster"><title>cluster_ta</title>
<polygon fill="white" stroke="black" points="1354,-360.96 1354,-713.181 1536,-713.181 1536,-360.96 1354,-360.96"/>
</g>
<g id="clust5" class="cluster"><title>cluster_w</title>
<polygon fill="white" stroke="black" points="334,-179.48 334,-626.181 944,-626.181 944,-179.48 334,-179.48"/>
</g>
<g id="clust6" class="cluster"><title>cluster_supp</title>
<polygon fill="#fff2f2" stroke="black" points="20,-82.7401 20,-339.96 318,-339.96 318,-82.7401 20,-82.7401"/>
</g>
<!-- base -->
<g id="node1" class="node"><title>base</title>
<ellipse fill="#cccccc" stroke="black" cx="1674" cy="-486.571" rx="55.3091" ry="26.7407"/>
<text text-anchor="middle" x="1674" y="-490.371" font-family="Times,serif" font-size="14.00">[aggregate]</text>
<text text-anchor="middle" x="1674" y="-475.371" font-family="Times,serif" font-size="14.00">base</text>
</g>
<!-- baseUtil -->
<g id="node3" class="node"><title>baseUtil</title>
<ellipse fill="#bbffbb" stroke="black" cx="1660" cy="-766.181" rx="40.8928" ry="18"/>
<text text-anchor="middle" x="1660" y="-762.481" font-family="Times,serif" font-size="14.00">base&#45;util</text>
</g>
<!-- base&#45;&gt;baseUtil -->
<g id="edge47" class="edge"><title>base&#45;&gt;baseUtil</title>
<path fill="none" stroke="#aaaaaa" stroke-dasharray="5,2" d="M1658.74,-512.495C1655.5,-518.538 1652.35,-525.091 1650,-531.441 1637.48,-565.242 1631.29,-648.237 1630,-669.181 1628.57,-692.248 1623.19,-699.097 1630,-721.181 1632.12,-728.066 1635.74,-734.838 1639.73,-740.926"/>
<polygon fill="#aaaaaa" stroke="#aaaaaa" points="1645.73,-749.291 1636.25,-743.789 1642.82,-745.228 1639.9,-741.166 1639.9,-741.166 1639.9,-741.166 1642.82,-745.228 1643.56,-738.543 1645.73,-749.291 1645.73,-749.291"/>
</g>
<!-- baseDb -->
<g id="node4" class="node"><title>baseDb</title>
<ellipse fill="#bbffbb" stroke="black" cx="1677" cy="-687.181" rx="38.1938" ry="18"/>
<text text-anchor="middle" x="1677" y="-683.481" font-family="Times,serif" font-size="14.00">base&#45;db</text>
</g>
<!-- base&#45;&gt;baseDb -->
<g id="edge48" class="edge"><title>base&#45;&gt;baseDb</title>
<path fill="none" stroke="#aaaaaa" stroke-dasharray="5,2" d="M1663.9,-513.085C1658.6,-527.832 1652.68,-546.888 1650,-564.441 1645.86,-591.567 1644.24,-599.352 1650,-626.181 1652.53,-637.981 1657.57,-650.261 1662.62,-660.615"/>
<polygon fill="#aaaaaa" stroke="#aaaaaa" points="1667.19,-669.513 1658.62,-662.67 1664.9,-665.064 1662.62,-660.616 1662.62,-660.616 1662.62,-660.616 1664.9,-665.064 1666.63,-658.561 1667.19,-669.513 1667.19,-669.513"/>
</g>
<!-- baseTest -->
<g id="node5" class="node"><title>baseTest</title>
<ellipse fill="#bbffbb" stroke="black" cx="1701" cy="-591.311" rx="41.6928" ry="18"/>
<text text-anchor="middle" x="1701" y="-587.611" font-family="Times,serif" font-size="14.00">base&#45;test</text>
</g>
<!-- base&#45;&gt;baseTest -->
<g id="edge49" class="edge"><title>base&#45;&gt;baseTest</title>
<path fill="none" stroke="#aaaaaa" stroke-dasharray="5,2" d="M1680.81,-513.496C1684.8,-528.662 1689.82,-547.787 1693.86,-563.159"/>
<polygon fill="#aaaaaa" stroke="#aaaaaa" points="1696.48,-573.107 1689.58,-564.579 1695.21,-568.271 1693.94,-563.436 1693.94,-563.436 1693.94,-563.436 1695.21,-568.271 1698.29,-562.292 1696.48,-573.107 1696.48,-573.107"/>
</g>
<!-- baseRaw -->
<g id="node2" class="node"><title>baseRaw</title>
<ellipse fill="#bbffbb" stroke="black" cx="1681" cy="-848.051" rx="60.623" ry="26.7407"/>
<text text-anchor="middle" x="1681" y="-851.851" font-family="Times,serif" font-size="14.00">base&#45;util&#45;sjs</text>
<text text-anchor="middle" x="1681" y="-836.851" font-family="Times,serif" font-size="14.00">(Scala &amp; JS)</text>
</g>
<!-- baseUtil&#45;&gt;baseRaw -->
<g id="edge1" class="edge"><title>baseUtil&#45;&gt;baseRaw</title>
<path fill="none" stroke="#cc0000" d="M1667.03,-793.925C1669.36,-802.761 1671.93,-812.568 1674.24,-821.326"/>
<polygon fill="#cc0000" stroke="#cc0000" points="1670.38,-792.9 1664.45,-784.119 1663.61,-794.681 1670.38,-792.9"/>
</g>
<!-- baseDb&#45;&gt;baseUtil -->
<g id="edge2" class="edge"><title>baseDb&#45;&gt;baseUtil</title>
<path fill="none" stroke="#cc0000" d="M1671.03,-715.219C1668.61,-726.169 1665.9,-738.479 1663.76,-748.14"/>
<polygon fill="#cc0000" stroke="#cc0000" points="1674.49,-715.789 1673.23,-705.27 1667.65,-714.28 1674.49,-715.789"/>
</g>
<!-- baseTest&#45;&gt;baseUtil -->
<g id="edge3" class="edge"><title>baseTest&#45;&gt;baseUtil</title>
<path fill="none" stroke="#cc0000" d="M1720.38,-617.38C1723.93,-623.249 1727.11,-629.692 1729,-636.181 1735.28,-657.695 1746.24,-682.324 1724,-721.181 1715.96,-735.223 1701.4,-745.769 1688.19,-753.01"/>
<polygon fill="#cc0000" stroke="#cc0000" points="1723.07,-615.103 1714.62,-608.703 1717.23,-618.972 1723.07,-615.103"/>
</g>
<!-- baseTest&#45;&gt;baseDb -->
<g id="edge4" class="edge"><title>baseTest&#45;&gt;baseDb</title>
<path fill="none" stroke="#cc0000" stroke-dasharray="5,2" d="M1686.66,-618.057C1684,-623.861 1681.57,-630.106 1680,-636.181 1677.26,-646.789 1676.49,-659.067 1676.41,-668.801"/>
<polygon fill="#cc0000" stroke="#cc0000" points="1689.93,-619.328 1691.23,-608.813 1683.66,-616.225 1689.93,-619.328"/>
<text text-anchor="middle" x="1704.5" y="-639.981" font-family="Times,serif" font-size="14.00">provided</text>
</g>
<!-- taskmanDb -->
<g id="node6" class="node"><title>taskmanDb</title>
<ellipse fill="#aaaaff" stroke="black" cx="1243" cy="-591.311" rx="94.7833" ry="18"/>
<text text-anchor="middle" x="1243" y="-587.611" font-family="Times,serif" font-size="14.00">taskman&#45;server&#45;schema</text>
</g>
<!-- taskmanDb&#45;&gt;baseDb -->
<g id="edge5" class="edge"><title>taskmanDb&#45;&gt;baseDb</title>
<path fill="none" stroke="#cc0000" d="M1292.64,-610.98C1310.47,-616.894 1330.9,-622.774 1350,-626.181 1397.09,-634.58 1518.89,-623.463 1565,-636.181 1578.61,-639.935 1580.25,-645.125 1593,-651.181 1611.12,-659.787 1631.94,-668.468 1648.31,-675.031"/>
<polygon fill="#cc0000" stroke="#cc0000" points="1293.62,-607.616 1283.02,-607.707 1291.36,-614.243 1293.62,-607.616"/>
</g>
<!-- taskmanServerImpl -->
<g id="node7" class="node"><title>taskmanServerImpl</title>
<ellipse fill="#aaaaff" stroke="black" cx="1148" cy="-486.571" rx="84.485" ry="18"/>
<text text-anchor="middle" x="1148" y="-482.871" font-family="Times,serif" font-size="14.00">taskman&#45;server&#45;impl</text>
</g>
<!-- taskmanServerImpl&#45;&gt;taskmanDb -->
<g id="edge16" class="edge"><title>taskmanServerImpl&#45;&gt;taskmanDb</title>
<path fill="none" stroke="#cc0000" d="M1170.52,-511.923C1188.01,-530.837 1211.81,-556.58 1227.29,-573.32"/>
<polygon fill="#cc0000" stroke="#cc0000" points="1173.05,-509.502 1163.69,-504.536 1167.91,-514.255 1173.05,-509.502"/>
</g>
<!-- taskmanServerLogic -->
<g id="node8" class="node"><title>taskmanServerLogic</title>
<ellipse fill="#aaaaff" stroke="black" cx="1045" cy="-591.311" rx="85.2851" ry="18"/>
<text text-anchor="middle" x="1045" y="-587.611" font-family="Times,serif" font-size="14.00">taskman&#45;server&#45;logic</text>
</g>
<!-- taskmanServerImpl&#45;&gt;taskmanServerLogic -->
<g id="edge14" class="edge"><title>taskmanServerImpl&#45;&gt;taskmanServerLogic</title>
<path fill="none" stroke="#cc0000" d="M1123.84,-511.672C1104.85,-530.608 1078.89,-556.506 1062.03,-573.32"/>
<polygon fill="#cc0000" stroke="#cc0000" points="1126.38,-514.076 1130.99,-504.536 1121.44,-509.12 1126.38,-514.076"/>
</g>
<!-- taskmanApi -->
<g id="node10" class="node"><title>taskmanApi</title>
<ellipse fill="#cccccc" stroke="black" cx="1425" cy="-395.831" rx="58.8803" ry="26.7407"/>
<text text-anchor="middle" x="1425" y="-399.631" font-family="Times,serif" font-size="14.00">[aggregate]</text>
<text text-anchor="middle" x="1425" y="-384.631" font-family="Times,serif" font-size="14.00">taskman&#45;api</text>
</g>
<!-- taskmanServerImpl&#45;&gt;taskmanApi -->
<g id="edge15" class="edge"><title>taskmanServerImpl&#45;&gt;taskmanApi</title>
<path fill="none" stroke="#cc0000" d="M1204.38,-468.526C1244.97,-456.131 1300.99,-438.775 1350,-422.701 1359.55,-419.567 1369.76,-416.117 1379.46,-412.785"/>
<polygon fill="#cc0000" stroke="#cc0000" points="1203.21,-465.224 1194.66,-471.488 1205.25,-471.92 1203.21,-465.224"/>
</g>
<!-- taskmanApiLogic -->
<g id="node12" class="node"><title>taskmanApiLogic</title>
<ellipse fill="#cceeff" stroke="black" cx="1453" cy="-687.181" rx="74.9875" ry="18"/>
<text text-anchor="middle" x="1453" y="-683.481" font-family="Times,serif" font-size="14.00">taskman&#45;api&#45;logic</text>
</g>
<!-- taskmanServerLogic&#45;&gt;taskmanApiLogic -->
<g id="edge13" class="edge"><title>taskmanServerLogic&#45;&gt;taskmanApiLogic</title>
<path fill="none" stroke="#cc0000" d="M1092.41,-611.034C1107.18,-616.42 1123.63,-621.971 1139,-626.181 1225.05,-649.747 1326.84,-667.375 1390.68,-677.231"/>
<polygon fill="#cc0000" stroke="#cc0000" points="1093.57,-607.73 1082.98,-607.533 1091.14,-614.293 1093.57,-607.73"/>
</g>
<!-- taskmanServer -->
<g id="node9" class="node"><title>taskmanServer</title>
<ellipse fill="#cccccc" stroke="black" cx="1148" cy="-395.831" rx="70.922" ry="26.7407"/>
<text text-anchor="middle" x="1148" y="-399.631" font-family="Times,serif" font-size="14.00">[aggregate]</text>
<text text-anchor="middle" x="1148" y="-384.631" font-family="Times,serif" font-size="14.00">taskman&#45;server</text>
</g>
<!-- taskmanServer&#45;&gt;taskmanDb -->
<g id="edge40" class="edge"><title>taskmanServer&#45;&gt;taskmanDb</title>
<path fill="none" stroke="#aaaaaa" stroke-dasharray="5,2" d="M1198.54,-414.81C1215.01,-423.332 1231.49,-435.327 1241,-451.701 1260.91,-485.992 1256.02,-533.561 1250.01,-563.11"/>
<polygon fill="#aaaaaa" stroke="#aaaaaa" points="1247.78,-573.124 1245.56,-562.386 1248.87,-568.243 1249.95,-563.362 1249.95,-563.362 1249.95,-563.362 1248.87,-568.243 1254.34,-564.337 1247.78,-573.124 1247.78,-573.124"/>
</g>
<!-- taskmanServer&#45;&gt;taskmanServerImpl -->
<g id="edge17" class="edge"><title>taskmanServer&#45;&gt;taskmanServerImpl</title>
<path fill="none" stroke="#cc0000" d="M1141.35,-433.017C1141.04,-445.317 1141.44,-458.487 1142.55,-468.566"/>
<polygon fill="#cc0000" stroke="#cc0000" points="1144.85,-433.116 1141.78,-422.976 1137.86,-432.816 1144.85,-433.116"/>
</g>
<!-- taskmanServer&#45;&gt;taskmanServerImpl -->
<g id="edge39" class="edge"><title>taskmanServer&#45;&gt;taskmanServerImpl</title>
<path fill="none" stroke="#aaaaaa" stroke-dasharray="5,2" d="M1154.22,-422.976C1154.91,-434.134 1154.93,-447.153 1154.28,-458.419"/>
<polygon fill="#aaaaaa" stroke="#aaaaaa" points="1153.45,-468.566 1149.78,-458.232 1153.85,-463.582 1154.26,-458.599 1154.26,-458.599 1154.26,-458.599 1153.85,-463.582 1158.75,-458.966 1153.45,-468.566 1153.45,-468.566"/>
</g>
<!-- taskmanServer&#45;&gt;taskmanServerLogic -->
<g id="edge38" class="edge"><title>taskmanServer&#45;&gt;taskmanServerLogic</title>
<path fill="none" stroke="#aaaaaa" stroke-dasharray="5,2" d="M1097.98,-415.119C1081.56,-423.672 1064.98,-435.607 1055,-451.701 1034.06,-485.489 1035.93,-533.202 1039.92,-562.919"/>
<polygon fill="#aaaaaa" stroke="#aaaaaa" points="1041.45,-572.994 1035.5,-563.782 1040.7,-568.05 1039.95,-563.107 1039.95,-563.107 1039.95,-563.107 1040.7,-568.05 1044.4,-562.431 1041.45,-572.994 1041.45,-572.994"/>
</g>
<!-- taskmanApiImpl -->
<g id="node11" class="node"><title>taskmanApiImpl</title>
<ellipse fill="#cceeff" stroke="black" cx="1435" cy="-486.571" rx="73.387" ry="18"/>
<text text-anchor="middle" x="1435" y="-482.871" font-family="Times,serif" font-size="14.00">taskman&#45;api&#45;impl</text>
</g>
<!-- taskmanApi&#45;&gt;taskmanApiImpl -->
<g id="edge12" class="edge"><title>taskmanApi&#45;&gt;taskmanApiImpl</title>
<path fill="none" stroke="#cc0000" d="M1422.43,-433.017C1423.5,-445.317 1425.39,-458.487 1427.64,-468.566"/>
<polygon fill="#cc0000" stroke="#cc0000" points="1425.92,-432.708 1421.73,-422.976 1418.93,-433.195 1425.92,-432.708"/>
</g>
<!-- taskmanApi&#45;&gt;taskmanApiImpl -->
<g id="edge37" class="edge"><title>taskmanApi&#45;&gt;taskmanApiImpl</title>
<path fill="none" stroke="#aaaaaa" stroke-dasharray="5,2" d="M1434.08,-422.498C1436.05,-433.67 1437.56,-446.778 1438.2,-458.141"/>
<polygon fill="#aaaaaa" stroke="#aaaaaa" points="1438.53,-468.382 1433.71,-458.531 1438.37,-463.384 1438.21,-458.387 1438.21,-458.387 1438.21,-458.387 1438.37,-463.384 1442.71,-458.243 1438.53,-468.382 1438.53,-468.382"/>
</g>
<!-- taskmanApi&#45;&gt;taskmanApiLogic -->
<g id="edge36" class="edge"><title>taskmanApi&#45;&gt;taskmanApiLogic</title>
<path fill="none" stroke="#aaaaaa" stroke-dasharray="5,2" d="M1470.78,-412.657C1488.49,-421.28 1506.9,-433.912 1517,-451.701 1556.46,-521.188 1502.52,-616.182 1471.77,-660.921"/>
<polygon fill="#aaaaaa" stroke="#aaaaaa" points="1465.96,-669.177 1468.03,-658.408 1468.84,-665.087 1471.71,-660.997 1471.71,-660.997 1471.71,-660.997 1468.84,-665.087 1475.39,-663.586 1465.96,-669.177 1465.96,-669.177"/>
</g>
<!-- taskmanApiImpl&#45;&gt;baseDb -->
<g id="edge8" class="edge"><title>taskmanApiImpl&#45;&gt;baseDb</title>
<path fill="none" stroke="#cc0000" d="M1463.07,-510.605C1513.17,-551.721 1616.66,-636.663 1658.68,-671.143"/>
<polygon fill="#cc0000" stroke="#cc0000" points="1465.17,-507.801 1455.22,-504.162 1460.73,-513.212 1465.17,-507.801"/>
</g>
<!-- taskmanApiImpl&#45;&gt;baseTest -->
<g id="edge11" class="edge"><title>taskmanApiImpl&#45;&gt;baseTest</title>
<path fill="none" stroke="#111111" stroke-dasharray="5,2" d="M1493.19,-503.089C1519.69,-510.717 1551.27,-520.599 1579,-531.441 1613.39,-544.884 1651.48,-563.98 1675.8,-576.739"/>
<polygon fill="#111111" stroke="#111111" points="1493.88,-499.645 1483.3,-500.278 1491.96,-506.379 1493.88,-499.645"/>
<text text-anchor="middle" x="1623.5" y="-535.241" font-family="Times,serif" font-size="14.00">test</text>
</g>
<!-- taskmanApiImpl&#45;&gt;taskmanDb -->
<g id="edge10" class="edge"><title>taskmanApiImpl&#45;&gt;taskmanDb</title>
<path fill="none" stroke="#111111" stroke-dasharray="5,2" d="M1397,-507.904C1360.64,-527.361 1306.52,-556.319 1273.07,-574.221"/>
<polygon fill="#111111" stroke="#111111" points="1398.67,-510.979 1405.84,-503.175 1395.37,-504.807 1398.67,-510.979"/>
<text text-anchor="middle" x="1360.5" y="-535.241" font-family="Times,serif" font-size="14.00">test</text>
</g>
<!-- taskmanApiImpl&#45;&gt;taskmanApiLogic -->
<g id="edge7" class="edge"><title>taskmanApiImpl&#45;&gt;taskmanApiLogic</title>
<path fill="none" stroke="#cc0000" d="M1434.56,-514.947C1434.45,-542.99 1435.19,-587.792 1440,-626.181 1441.83,-640.775 1445.46,-657.07 1448.43,-668.992"/>
<polygon fill="#cc0000" stroke="#cc0000" points="1438.06,-514.748 1434.65,-504.72 1431.06,-514.691 1438.06,-514.748"/>
</g>
<!-- taskmanApiImpl&#45;&gt;taskmanApiLogic -->
<g id="edge9" class="edge"><title>taskmanApiImpl&#45;&gt;taskmanApiLogic</title>
<path fill="none" stroke="#111111" stroke-dasharray="5,2" d="M1438.23,-514.777C1438.85,-520.289 1439.47,-526.048 1440,-531.441 1444.94,-581.341 1449.56,-640.416 1451.72,-668.992"/>
<polygon fill="#111111" stroke="#111111" points="1441.68,-514.178 1437.06,-504.642 1434.73,-514.976 1441.68,-514.178"/>
<text text-anchor="middle" x="1468" y="-587.611" font-family="Times,serif" font-size="14.00">test&#45;lib</text>
</g>
<!-- taskmanApiLogic&#45;&gt;baseUtil -->
<g id="edge6" class="edge"><title>taskmanApiLogic&#45;&gt;baseUtil</title>
<path fill="none" stroke="#cc0000" d="M1501.41,-706.189C1541.06,-720.939 1595.94,-741.352 1629.65,-753.89"/>
<polygon fill="#cc0000" stroke="#cc0000" points="1502.53,-702.87 1491.94,-702.664 1500.09,-709.431 1502.53,-702.87"/>
</g>
<!-- webapp -->
<g id="node13" class="node"><title>webapp</title>
<ellipse fill="#ffff80" stroke="black" cx="638" cy="-214.35" rx="55.3091" ry="26.7407"/>
<text text-anchor="middle" x="638" y="-218.15" font-family="Times,serif" font-size="14.00">[aggregate]</text>
<text text-anchor="middle" x="638" y="-203.15" font-family="Times,serif" font-size="14.00">webapp</text>
</g>
<!-- webappBack -->
<g id="node14" class="node"><title>webappBack</title>
<ellipse fill="#99ccee" stroke="black" cx="806" cy="-305.09" rx="62.2891" ry="18"/>
<text text-anchor="middle" x="806" y="-301.39" font-family="Times,serif" font-size="14.00">webapp&#45;server</text>
</g>
<!-- webapp&#45;&gt;webappBack -->
<g id="edge45" class="edge"><title>webapp&#45;&gt;webappBack</title>
<path fill="none" stroke="#aaaaaa" stroke-dasharray="5,2" d="M674.453,-234.606C702.198,-249.261 740.262,-269.367 768.308,-284.181"/>
<polygon fill="#aaaaaa" stroke="#aaaaaa" points="777.406,-288.987 766.462,-288.295 772.985,-286.651 768.564,-284.316 768.564,-284.316 768.564,-284.316 772.985,-286.651 770.665,-280.337 777.406,-288.987 777.406,-288.987"/>
</g>
<!-- webappClientWw -->
<g id="node16" class="node"><title>webappClientWw</title>
<ellipse fill="#99ccee" stroke="black" cx="425" cy="-395.831" rx="82.9636" ry="26.7407"/>
<text text-anchor="middle" x="425" y="-399.631" font-family="Times,serif" font-size="14.00">webapp&#45;client&#45;ww</text>
<text text-anchor="middle" x="425" y="-384.631" font-family="Times,serif" font-size="14.00">(JS)</text>
</g>
<!-- webapp&#45;&gt;webappClientWw -->
<g id="edge46" class="edge"><title>webapp&#45;&gt;webappClientWw</title>
<path fill="none" stroke="#aaaaaa" stroke-dasharray="5,2" d="M611.023,-238.082C573.164,-269.983 504.153,-328.134 461.664,-363.936"/>
<polygon fill="#aaaaaa" stroke="#aaaaaa" points="453.795,-370.567 458.543,-360.682 457.619,-367.345 461.442,-364.123 461.442,-364.123 461.442,-364.123 457.619,-367.345 464.342,-367.564 453.795,-370.567 453.795,-370.567"/>
</g>
<!-- webappClientProject -->
<g id="node17" class="node"><title>webappClientProject</title>
<ellipse fill="#99ccee" stroke="black" cx="621" cy="-395.831" rx="95.4188" ry="26.7407"/>
<text text-anchor="middle" x="621" y="-399.631" font-family="Times,serif" font-size="14.00">webapp&#45;client&#45;project</text>
<text text-anchor="middle" x="621" y="-384.631" font-family="Times,serif" font-size="14.00">(JS)</text>
</g>
<!-- webapp&#45;&gt;webappClientProject -->
<g id="edge43" class="edge"><title>webapp&#45;&gt;webappClientProject</title>
<path fill="none" stroke="#aaaaaa" stroke-dasharray="5,2" d="M635.528,-241.448C632.607,-272.286 627.73,-323.782 624.441,-358.505"/>
<polygon fill="#aaaaaa" stroke="#aaaaaa" points="623.475,-368.701 619.938,-358.321 623.946,-363.723 624.418,-358.746 624.418,-358.746 624.418,-358.746 623.946,-363.723 628.898,-359.17 623.475,-368.701 623.475,-368.701"/>
</g>
<!-- webappClientHome -->
<g id="node18" class="node"><title>webappClientHome</title>
<ellipse fill="#99ccee" stroke="black" cx="825" cy="-395.831" rx="90.5193" ry="26.7407"/>
<text text-anchor="middle" x="825" y="-399.631" font-family="Times,serif" font-size="14.00">webapp&#45;client&#45;home</text>
<text text-anchor="middle" x="825" y="-384.631" font-family="Times,serif" font-size="14.00">(JS)</text>
</g>
<!-- webapp&#45;&gt;webappClientHome -->
<g id="edge44" class="edge"><title>webapp&#45;&gt;webappClientHome</title>
<path fill="none" stroke="#aaaaaa" stroke-dasharray="5,2" d="M653.579,-240.467C671.076,-267.308 701.449,-310.03 735,-339.96 746.095,-349.858 759.214,-359.001 771.953,-366.87"/>
<polygon fill="#aaaaaa" stroke="#aaaaaa" points="780.683,-372.108 769.793,-370.821 776.395,-369.535 772.108,-366.963 772.108,-366.963 772.108,-366.963 776.395,-369.535 774.423,-363.104 780.683,-372.108 780.683,-372.108"/>
</g>
<!-- webappBack&#45;&gt;baseDb -->
<g id="edge18" class="edge"><title>webappBack:e&#45;&gt;baseDb</title>
<path fill="none" stroke="#cc0000" d="M871.611,-315.049C871.462,-324.738 870.241,-338.247 872,-339.96 878.648,-346.439 1530.75,-360.14 1540,-360.96 1643.36,-370.132 1771,-291.066 1771,-394.831 1771,-394.831 1771,-394.831 1771,-592.311 1771,-630.826 1731,-659.038 1703.18,-673.998"/>
<polygon fill="#cc0000" stroke="#cc0000" points="875.053,-314.403 870,-305.09 868.142,-315.521 875.053,-314.403"/>
</g>
<!-- webappBack&#45;&gt;taskmanApi -->
<g id="edge19" class="edge"><title>webappBack&#45;&gt;taskmanApi</title>
<path fill="none" stroke="#cc0000" d="M839.273,-326.675C849.419,-331.971 860.848,-337.005 872,-339.96 974.778,-367.194 1246.57,-336.302 1350,-360.96 1362.92,-364.042 1376.36,-369.354 1388.22,-374.87"/>
<polygon fill="#cc0000" stroke="#cc0000" points="840.812,-323.527 830.361,-321.79 837.447,-329.666 840.812,-323.527"/>
</g>
<!-- webappBack&#45;&gt;webappClientWw -->
<g id="edge29" class="edge"><title>webappBack&#45;&gt;webappClientWw</title>
<path fill="none" stroke="#cc0000" stroke-dasharray="5,2" d="M741.118,-315.268C682.081,-324.359 592.837,-339.956 517,-360.96 503.386,-364.731 488.929,-369.617 475.606,-374.499"/>
<polygon fill="#cc0000" stroke="#cc0000" points="741.693,-318.721 751.053,-313.756 740.64,-311.801 741.693,-318.721"/>
</g>
<!-- webappBack&#45;&gt;webappClientProject -->
<g id="edge28" class="edge"><title>webappBack&#45;&gt;webappClientProject</title>
<path fill="none" stroke="#cc0000" stroke-dasharray="5,2" d="M765.698,-325.423C736.954,-339.21 698.215,-357.792 668.053,-372.26"/>
<polygon fill="#cc0000" stroke="#cc0000" points="767.533,-328.424 775.035,-320.944 764.505,-322.113 767.533,-328.424"/>
</g>
<!-- webappBack&#45;&gt;webappClientHome -->
<g id="edge27" class="edge"><title>webappBack&#45;&gt;webappClientHome</title>
<path fill="none" stroke="#cc0000" stroke-dasharray="5,2" d="M811.759,-332.986C814.183,-344.311 816.995,-357.443 819.402,-368.686"/>
<polygon fill="#cc0000" stroke="#cc0000" points="815.18,-332.246 809.663,-323.2 808.335,-333.712 815.18,-332.246"/>
</g>
<!-- webappShared -->
<g id="node20" class="node"><title>webappShared</title>
<ellipse fill="#99ccee" stroke="black" cx="824" cy="-591.311" rx="61.5366" ry="26.7407"/>
<text text-anchor="middle" x="824" y="-595.111" font-family="Times,serif" font-size="14.00">webapp&#45;base</text>
<text text-anchor="middle" x="824" y="-580.111" font-family="Times,serif" font-size="14.00">(Scala &amp; JS)</text>
</g>
<!-- webappBack&#45;&gt;webappShared -->
<g id="edge26" class="edge"><title>webappBack&#45;&gt;webappShared</title>
<path fill="none" stroke="#cc0000" d="M843.039,-325.894C852.403,-330.68 862.499,-335.653 872,-339.96 895.076,-350.424 910.761,-340.003 925,-360.96 935.249,-376.046 924.286,-503.245 919,-513.441 906.502,-537.55 882.752,-556.768 862.126,-569.958"/>
<polygon fill="#cc0000" stroke="#cc0000" points="844.46,-322.689 833.969,-321.203 841.244,-328.906 844.46,-322.689"/>
</g>
<!-- webappClientWwApi -->
<g id="node15" class="node"><title>webappClientWwApi</title>
<ellipse fill="#99ccee" stroke="black" cx="621" cy="-486.571" rx="97.6615" ry="26.7407"/>
<text text-anchor="middle" x="621" y="-490.371" font-family="Times,serif" font-size="14.00">webapp&#45;client&#45;ww&#45;api</text>
<text text-anchor="middle" x="621" y="-475.371" font-family="Times,serif" font-size="14.00">(JS)</text>
</g>
<!-- webappClientWwApi&#45;&gt;webappShared -->
<g id="edge25" class="edge"><title>webappClientWwApi&#45;&gt;webappShared</title>
<path fill="none" stroke="#cc0000" d="M675.302,-515.053C709.755,-532.49 753.541,-554.651 784.657,-570.399"/>
<polygon fill="#cc0000" stroke="#cc0000" points="676.807,-511.893 666.304,-510.5 673.646,-518.138 676.807,-511.893"/>
</g>
<!-- webappClientWw&#45;&gt;webappClientWwApi -->
<g id="edge24" class="edge"><title>webappClientWw&#45;&gt;webappClientWwApi</title>
<path fill="none" stroke="#cc0000" d="M481.384,-422.359C509.917,-435.277 544.232,-450.813 571.701,-463.25"/>
<polygon fill="#cc0000" stroke="#cc0000" points="482.5,-419.022 471.947,-418.086 479.613,-425.399 482.5,-419.022"/>
</g>
<!-- webappClientProject&#45;&gt;webappClientWwApi -->
<g id="edge22" class="edge"><title>webappClientProject&#45;&gt;webappClientWwApi</title>
<path fill="none" stroke="#cc0000" d="M621,-433.109C621,-441.992 621,-451.323 621,-459.613"/>
<polygon fill="#cc0000" stroke="#cc0000" points="624.5,-432.975 621,-422.976 617.5,-432.976 624.5,-432.975"/>
</g>
<!-- webappClientBase -->
<g id="node19" class="node"><title>webappClientBase</title>
<ellipse fill="#99ccee" stroke="black" cx="824" cy="-486.571" rx="86.0347" ry="26.7407"/>
<text text-anchor="middle" x="824" y="-490.371" font-family="Times,serif" font-size="14.00">webapp&#45;client&#45;base</text>
<text text-anchor="middle" x="824" y="-475.371" font-family="Times,serif" font-size="14.00">(JS)</text>
</g>
<!-- webappClientProject&#45;&gt;webappClientBase -->
<g id="edge23" class="edge"><title>webappClientProject&#45;&gt;webappClientBase</title>
<path fill="none" stroke="#cc0000" d="M680.354,-422.777C710.593,-435.995 746.9,-451.867 775.447,-464.346"/>
<polygon fill="#cc0000" stroke="#cc0000" points="681.744,-419.565 671.18,-418.766 678.941,-425.979 681.744,-419.565"/>
</g>
<!-- webappClientHome&#45;&gt;webappClientBase -->
<g id="edge21" class="edge"><title>webappClientHome&#45;&gt;webappClientBase</title>
<path fill="none" stroke="#cc0000" d="M824.591,-433.109C824.491,-441.992 824.386,-451.323 824.293,-459.613"/>
<polygon fill="#cc0000" stroke="#cc0000" points="828.092,-433.014 824.705,-422.976 821.093,-432.935 828.092,-433.014"/>
</g>
<!-- webappClientBase&#45;&gt;webappShared -->
<g id="edge20" class="edge"><title>webappClientBase&#45;&gt;webappShared</title>
<path fill="none" stroke="#cc0000" d="M824,-523.831C824,-537.217 824,-552.105 824,-564.393"/>
<polygon fill="#cc0000" stroke="#cc0000" points="827.5,-523.496 824,-513.496 820.5,-523.496 827.5,-523.496"/>
</g>
<!-- webappShared&#45;&gt;baseRaw -->
<g id="edge30" class="edge"><title>webappShared&#45;&gt;baseRaw</title>
<path fill="none" stroke="#cc0000" d="M882.515,-610.802C903.031,-616.614 926.356,-622.475 948,-626.181 1208.02,-670.701 1287.84,-591.672 1540,-669.181 1584.16,-682.754 1587.91,-702.145 1630,-721.181 1664.19,-736.644 1688.12,-717.697 1710,-748.181 1725.86,-770.268 1712.66,-800.982 1699.32,-822.292"/>
<polygon fill="#cc0000" stroke="#cc0000" points="883.267,-607.376 872.688,-607.963 881.324,-614.101 883.267,-607.376"/>
</g>
<!-- taskman -->
<g id="node21" class="node"><title>taskman</title>
<ellipse fill="#ffff80" stroke="black" cx="1148" cy="-305.09" rx="55.3091" ry="26.7407"/>
<text text-anchor="middle" x="1148" y="-308.89" font-family="Times,serif" font-size="14.00">[aggregate]</text>
<text text-anchor="middle" x="1148" y="-293.89" font-family="Times,serif" font-size="14.00">taskman</text>
</g>
<!-- taskman&#45;&gt;taskmanServer -->
<g id="edge42" class="edge"><title>taskman&#45;&gt;taskmanServer</title>
<path fill="none" stroke="#aaaaaa" stroke-dasharray="5,2" d="M1148,-332.235C1148,-340.54 1148,-349.876 1148,-358.752"/>
<polygon fill="#aaaaaa" stroke="#aaaaaa" points="1148,-368.872 1143.5,-358.872 1148,-363.872 1148,-358.872 1148,-358.872 1148,-358.872 1148,-363.872 1152.5,-358.872 1148,-368.872 1148,-368.872"/>
</g>
<!-- taskman&#45;&gt;taskmanApi -->
<g id="edge41" class="edge"><title>taskman&#45;&gt;taskmanApi</title>
<path fill="none" stroke="#aaaaaa" stroke-dasharray="5,2" d="M1197.66,-317.245C1238.97,-327.077 1299.04,-342.663 1350,-360.96 1358.69,-364.081 1367.77,-367.784 1376.49,-371.577"/>
<polygon fill="#aaaaaa" stroke="#aaaaaa" points="1385.78,-375.705 1374.82,-375.756 1381.21,-373.674 1376.64,-371.643 1376.64,-371.643 1376.64,-371.643 1381.21,-373.674 1378.47,-367.531 1385.78,-375.705 1385.78,-375.705"/>
</g>
<!-- benchmark -->
<g id="node22" class="node"><title>benchmark</title>
<ellipse fill="#ffffdd" stroke="black" cx="239" cy="-117.61" rx="55.3091" ry="26.7407"/>
<text text-anchor="middle" x="239" y="-121.41" font-family="Times,serif" font-size="14.00">[aggregate]</text>
<text text-anchor="middle" x="239" y="-106.41" font-family="Times,serif" font-size="14.00">benchmark</text>
</g>
<!-- benchmarkJvm -->
<g id="node23" class="node"><title>benchmarkJvm</title>
<ellipse fill="#ffcccc" stroke="black" cx="239" cy="-214.35" rx="70.6878" ry="18"/>
<text text-anchor="middle" x="239" y="-210.65" font-family="Times,serif" font-size="14.00">benchmark JVM</text>
</g>
<!-- benchmark&#45;&gt;benchmarkJvm -->
<g id="edge50" class="edge"><title>benchmark&#45;&gt;benchmarkJvm</title>
<path fill="none" stroke="#aaaaaa" stroke-dasharray="5,2" d="M239,-144.498C239,-157.339 239,-172.851 239,-185.899"/>
<polygon fill="#aaaaaa" stroke="#aaaaaa" points="239,-196.166 234.5,-186.166 239,-191.166 239,-186.166 239,-186.166 239,-186.166 239,-191.166 243.5,-186.166 239,-196.166 239,-196.166"/>
</g>
<!-- benchmarkJs -->
<g id="node24" class="node"><title>benchmarkJs</title>
<ellipse fill="#ffcccc" stroke="black" cx="89" cy="-214.35" rx="61.1893" ry="18"/>
<text text-anchor="middle" x="89" y="-210.65" font-family="Times,serif" font-size="14.00">benchmark JS</text>
</g>
<!-- benchmark&#45;&gt;benchmarkJs -->
<g id="edge51" class="edge"><title>benchmark&#45;&gt;benchmarkJs</title>
<path fill="none" stroke="#aaaaaa" stroke-dasharray="5,2" d="M206.082,-139.401C181.35,-155.022 147.591,-176.344 122.677,-192.08"/>
<polygon fill="#aaaaaa" stroke="#aaaaaa" points="113.931,-197.604 119.983,-188.459 118.159,-194.934 122.386,-192.264 122.386,-192.264 122.386,-192.264 118.159,-194.934 124.789,-196.068 113.931,-197.604 113.931,-197.604"/>
</g>
<!-- benchmarkJvm&#45;&gt;webappBack -->
<g id="edge33" class="edge"><title>benchmarkJvm&#45;&gt;webappBack</title>
<path fill="none" stroke="#cc0000" d="M291.553,-231.696C304.066,-235.197 317.436,-238.619 330,-241.22 478.559,-271.977 656.471,-290.778 746.914,-299.078"/>
<polygon fill="#cc0000" stroke="#cc0000" points="292.309,-228.272 281.732,-228.886 290.383,-235.002 292.309,-228.272"/>
</g>
<!-- benchmarkShared -->
<g id="node25" class="node"><title>benchmarkShared</title>
<ellipse fill="#ffcccc" stroke="black" cx="196" cy="-305.09" rx="54.3945" ry="26.7407"/>
<text text-anchor="middle" x="196" y="-308.89" font-family="Times,serif" font-size="14.00">benchmark</text>
<text text-anchor="middle" x="196" y="-293.89" font-family="Times,serif" font-size="14.00">base</text>
</g>
<!-- benchmarkJvm&#45;&gt;benchmarkShared -->
<g id="edge31" class="edge"><title>benchmarkJvm&#45;&gt;benchmarkShared</title>
<path fill="none" stroke="#cc0000" d="M226.229,-241.706C220.572,-253.381 213.943,-267.062 208.336,-278.631"/>
<polygon fill="#cc0000" stroke="#cc0000" points="229.498,-242.986 230.709,-232.46 223.199,-239.933 229.498,-242.986"/>
</g>
<!-- benchmarkJs&#45;&gt;webappClientProject -->
<g id="edge34" class="edge"><title>benchmarkJs&#45;&gt;webappClientProject</title>
<path fill="none" stroke="#cc0000" d="M90.2075,-242.44C93.1076,-271.698 102.584,-317.172 133,-339.96 167.197,-365.581 474.997,-353.111 517,-360.96 533.053,-363.96 550.057,-368.767 565.561,-373.828"/>
<polygon fill="#cc0000" stroke="#cc0000" points="93.696,-242.156 89.4099,-232.466 86.7183,-242.714 93.696,-242.156"/>
</g>
<!-- benchmarkJs&#45;&gt;benchmarkShared -->
<g id="edge32" class="edge"><title>benchmarkJs&#45;&gt;benchmarkShared</title>
<path fill="none" stroke="#cc0000" d="M116.61,-238.249C132.679,-251.575 152.853,-268.307 168.844,-281.568"/>
<polygon fill="#cc0000" stroke="#cc0000" points="118.557,-235.316 108.625,-231.627 114.088,-240.704 118.557,-235.316"/>
</g>
<!-- utils -->
<g id="node26" class="node"><title>utils</title>
<ellipse fill="#ffffdd" stroke="black" cx="97" cy="-117.61" rx="27" ry="18"/>
<text text-anchor="middle" x="97" y="-113.91" font-family="Times,serif" font-size="14.00">utils</text>
</g>
<!-- utils&#45;&gt;webappShared -->
<g id="edge35" class="edge"><title>utils&#45;&gt;webappShared</title>
<path fill="none" stroke="#cc0000" d="M65.7872,-132.98C37.4295,-148.432 0,-175.916 0,-213.35 0,-213.35 0,-213.35 0,-487.571 0,-564.383 571.105,-584.508 762.403,-589.094"/>
<polygon fill="#cc0000" stroke="#cc0000" points="67.7256,-135.918 74.9892,-128.205 64.5011,-129.705 67.7256,-135.918"/>
</g>
<!-- root -->
<g id="node27" class="node"><title>root</title>
<ellipse fill="#cccccc" stroke="black" cx="638" cy="-26.8701" rx="55.3091" ry="26.7407"/>
<text text-anchor="middle" x="638" y="-30.6701" font-family="Times,serif" font-size="14.00">[aggregate]</text>
<text text-anchor="middle" x="638" y="-15.6701" font-family="Times,serif" font-size="14.00">root</text>
</g>
<!-- root&#45;&gt;base -->
<g id="edge52" class="edge"><title>root&#45;&gt;base</title>
<path fill="none" stroke="#aaaaaa" stroke-dasharray="5,2" d="M693.142,-29.9506C899.991,-38.1133 1618,-69.8174 1618,-116.61 1618,-116.61 1618,-116.61 1618,-396.831 1618,-418.239 1629.8,-438.692 1642.57,-454.556"/>
<polygon fill="#aaaaaa" stroke="#aaaaaa" points="1649.27,-462.414 1639.36,-457.729 1646.03,-458.611 1642.78,-454.807 1642.78,-454.807 1642.78,-454.807 1646.03,-458.611 1646.21,-451.886 1649.27,-462.414 1649.27,-462.414"/>
</g>
<!-- root&#45;&gt;webapp -->
<g id="edge53" class="edge"><title>root&#45;&gt;webapp</title>
<path fill="none" stroke="#aaaaaa" stroke-dasharray="5,2" d="M638,-54.0515C638,-86.2255 638,-140.989 638,-177.17"/>
<polygon fill="#aaaaaa" stroke="#aaaaaa" points="638,-187.302 633.5,-177.302 638,-182.302 638,-177.302 638,-177.302 638,-177.302 638,-182.302 642.5,-177.302 638,-187.302 638,-187.302"/>
</g>
<!-- root&#45;&gt;taskman -->
<g id="edge54" class="edge"><title>root&#45;&gt;taskman</title>
<path fill="none" stroke="#aaaaaa" stroke-dasharray="5,2" d="M679.353,-44.6579C739.726,-69.6923 854.933,-119.464 948,-171.48 1006.49,-204.171 1070.43,-248.129 1109.88,-276.292"/>
<polygon fill="#aaaaaa" stroke="#aaaaaa" points="1118.4,-282.399 1107.65,-280.23 1114.34,-279.486 1110.27,-276.573 1110.27,-276.573 1110.27,-276.573 1114.34,-279.486 1112.9,-272.915 1118.4,-282.399 1118.4,-282.399"/>
</g>
<!-- root&#45;&gt;benchmark -->
<g id="edge55" class="edge"><title>root&#45;&gt;benchmark</title>
<path fill="none" stroke="#aaaaaa" stroke-dasharray="5,2" d="M588.273,-38.9296C514.65,-55.3039 376.895,-85.9416 298.179,-103.448"/>
<polygon fill="#aaaaaa" stroke="#aaaaaa" points="288.412,-105.621 297.197,-99.0568 293.293,-104.535 298.174,-103.449 298.174,-103.449 298.174,-103.449 293.293,-104.535 299.151,-107.842 288.412,-105.621 288.412,-105.621"/>
</g>
<!-- root&#45;&gt;utils -->
<g id="edge56" class="edge"><title>root&#45;&gt;utils</title>
<path fill="none" stroke="#aaaaaa" stroke-dasharray="5,2" d="M582.85,-29.2333C495.066,-32.5481 318.785,-43.9028 175,-82.7401 158.556,-87.1817 141.091,-94.4993 126.866,-101.198"/>
<polygon fill="#aaaaaa" stroke="#aaaaaa" points="117.587,-105.695 124.624,-97.2842 122.087,-103.514 126.586,-101.334 126.586,-101.334 126.586,-101.334 122.087,-103.514 128.548,-105.383 117.587,-105.695 117.587,-105.695"/>
</g>
</g>
</svg>
