<?xml version="1.0" encoding="UTF-8" standalone="no"?>
<!DOCTYPE svg PUBLIC "-//W3C//DTD SVG 1.1//EN"
 "http://www.w3.org/Graphics/SVG/1.1/DTD/svg11.dtd">
<!-- Generated by graphviz version 2.38.0 (20140413.2041)
 -->
<!-- Title: G Pages: 1 -->
<svg width="2374pt" height="1169pt"
 viewBox="0.00 0.00 2374.00 1168.62" xmlns="http://www.w3.org/2000/svg" xmlns:xlink="http://www.w3.org/1999/xlink">
<g id="graph0" class="graph" transform="scale(1 1) rotate(0) translate(4 1164.62)">
<title>G</title>
<polygon fill="white" stroke="none" points="-4,4 -4,-1164.62 2370,-1164.62 2370,4 -4,4"/>
<g id="clust1" class="cluster"><title>cluster_base</title>
<polygon fill="#f4fff4" stroke="black" points="2060,-699.921 2060,-1152.62 2270,-1152.62 2270,-699.921 2060,-699.921"/>
</g>
<g id="clust2" class="cluster"><title>cluster_t</title>
<polygon fill="#eeeeff" stroke="black" points="456,-171.48 456,-973.141 2052,-973.141 2052,-171.48 456,-171.48"/>
</g>
<g id="clust3" class="cluster"><title>cluster_ts</title>
<polygon fill="white" stroke="black" points="1320,-279.09 1320,-421.831 1816,-421.831 1816,-279.09 1320,-279.09"/>
</g>
<g id="clust4" class="cluster"><title>cluster_ta</title>
<polygon fill="white" stroke="black" points="1842,-369.831 1842,-565.311 2044,-565.311 2044,-369.831 1842,-369.831"/>
</g>
<g id="clust5" class="cluster"><title>cluster_w</title>
<polygon fill="white" stroke="black" points="464,-179.48 464,-965.141 1312,-965.141 1312,-179.48 464,-179.48"/>
</g>
<g id="clust6" class="cluster"><title>cluster_supp</title>
<polygon fill="#fff2f2" stroke="black" points="58,-82.7401 58,-339.96 418,-339.96 418,-82.7401 58,-82.7401"/>
</g>
<!-- base -->
<g id="node1" class="node"><title>base</title>
<ellipse fill="#cccccc" stroke="black" cx="2139" cy="-734.791" rx="70.922" ry="26.7407"/>
<text text-anchor="middle" x="2139" y="-738.591" font-family="Times,serif" font-size="14.00">[aggregate]</text>
<text text-anchor="middle" x="2139" y="-723.591" font-family="Times,serif" font-size="14.00">base</text>
</g>
<!-- baseMacro -->
<g id="node2" class="node"><title>baseMacro</title>
<ellipse fill="#bbffbb" stroke="black" cx="2142" cy="-1117.75" rx="70.0071" ry="26.7407"/>
<text text-anchor="middle" x="2142" y="-1121.55" font-family="Times,serif" font-size="14.00">base&#45;macro</text>
<text text-anchor="middle" x="2142" y="-1106.55" font-family="Times,serif" font-size="14.00">(JVM &amp; JS)</text>
</g>
<!-- base&#45;&gt;baseMacro -->
<g id="edge59" class="edge"><title>base&#45;&gt;baseMacro</title>
<path fill="none" stroke="#aaaaaa" stroke-dasharray="5,2" d="M2106.87,-758.771C2088.47,-774.812 2069,-798.041 2069,-824.531 2069,-824.531 2069,-824.531 2069,-1028.01 2069,-1051.37 2084.27,-1071.92 2100.84,-1087.35"/>
<polygon fill="#aaaaaa" stroke="#aaaaaa" points="2108.49,-1094.07 2098.01,-1090.85 2104.73,-1090.77 2100.98,-1087.47 2100.98,-1087.47 2100.98,-1087.47 2104.73,-1090.77 2103.94,-1084.09 2108.49,-1094.07 2108.49,-1094.07"/>
</g>
<!-- baseUtil -->
<g id="node3" class="node"><title>baseUtil</title>
<ellipse fill="#bbffbb" stroke="black" cx="2155" cy="-1027.01" rx="67.3507" ry="26.7407"/>
<text text-anchor="middle" x="2155" y="-1030.81" font-family="Times,serif" font-size="14.00">base&#45;util</text>
<text text-anchor="middle" x="2155" y="-1015.81" font-family="Times,serif" font-size="14.00">(JVM &amp; JS)</text>
</g>
<!-- base&#45;&gt;baseUtil -->
<g id="edge56" class="edge"><title>base&#45;&gt;baseUtil</title>
<path fill="none" stroke="#aaaaaa" stroke-dasharray="5,2" d="M2118.48,-760.781C2110.78,-771.715 2102.94,-785.122 2099,-798.661 2079.27,-866.435 2112.07,-946.871 2135.22,-991.608"/>
<polygon fill="#aaaaaa" stroke="#aaaaaa" points="2139.99,-1000.6 2131.32,-993.872 2137.64,-996.179 2135.3,-991.762 2135.3,-991.762 2135.3,-991.762 2137.64,-996.179 2139.27,-989.653 2139.99,-1000.6 2139.99,-1000.6"/>
</g>
<!-- baseDb -->
<g id="node4" class="node"><title>baseDb</title>
<ellipse fill="#bbffbb" stroke="black" cx="2211" cy="-930.271" rx="50.8235" ry="26.7407"/>
<text text-anchor="middle" x="2211" y="-934.071" font-family="Times,serif" font-size="14.00">base&#45;db</text>
<text text-anchor="middle" x="2211" y="-919.071" font-family="Times,serif" font-size="14.00">(JVM)</text>
</g>
<!-- base&#45;&gt;baseDb -->
<g id="edge57" class="edge"><title>base&#45;&gt;baseDb</title>
<path fill="none" stroke="#aaaaaa" stroke-dasharray="5,2" d="M2191.89,-752.668C2213.91,-762.497 2237.46,-777.278 2251,-798.661 2271.66,-831.287 2271,-849.82 2256,-885.401 2253.72,-890.811 2250.41,-895.885 2246.6,-900.525"/>
<polygon fill="#aaaaaa" stroke="#aaaaaa" points="2239.82,-907.908 2243.27,-897.499 2243.2,-904.225 2246.59,-900.543 2246.59,-900.543 2246.59,-900.543 2243.2,-904.225 2249.9,-903.586 2239.82,-907.908 2239.82,-907.908"/>
</g>
<!-- baseTest -->
<g id="node5" class="node"><title>baseTest</title>
<ellipse fill="white" stroke="darkgreen" cx="2175" cy="-825.531" rx="67.3507" ry="26.7407"/>
<text text-anchor="middle" x="2175" y="-829.331" font-family="Times,serif" font-size="14.00">base&#45;test</text>
<text text-anchor="middle" x="2175" y="-814.331" font-family="Times,serif" font-size="14.00">(JVM &amp; JS)</text>
</g>
<!-- base&#45;&gt;baseTest -->
<g id="edge58" class="edge"><title>base&#45;&gt;baseTest</title>
<path fill="none" stroke="#aaaaaa" stroke-dasharray="5,2" d="M2149.41,-761.458C2152.96,-770.196 2156.98,-780.119 2160.77,-789.465"/>
<polygon fill="#aaaaaa" stroke="#aaaaaa" points="2164.61,-798.921 2156.68,-791.347 2162.73,-794.288 2160.85,-789.655 2160.85,-789.655 2160.85,-789.655 2162.73,-794.288 2165.02,-787.963 2164.61,-798.921 2164.61,-798.921"/>
</g>
<!-- baseUtil&#45;&gt;baseMacro -->
<g id="edge1" class="edge"><title>baseUtil&#45;&gt;baseMacro</title>
<path fill="none" stroke="#cc0000" d="M2151.17,-1054.16C2149.95,-1062.46 2148.59,-1071.8 2147.29,-1080.67"/>
<polygon fill="#cc0000" stroke="#cc0000" points="2143.79,-1080.39 2145.8,-1090.79 2150.72,-1081.41 2143.79,-1080.39"/>
</g>
<!-- baseDb&#45;&gt;baseUtil -->
<g id="edge2" class="edge"><title>baseDb&#45;&gt;baseUtil</title>
<path fill="none" stroke="#cc0000" d="M2196.29,-956.163C2189.83,-967.085 2182.15,-980.082 2175.17,-991.887"/>
<polygon fill="#cc0000" stroke="#cc0000" points="2172.08,-990.237 2170,-1000.63 2178.11,-993.799 2172.08,-990.237"/>
</g>
<!-- baseTest&#45;&gt;baseUtil -->
<g id="edge3" class="edge"><title>baseTest&#45;&gt;baseUtil</title>
<path fill="none" stroke="#111111" d="M2164.77,-852.395C2159.51,-867.093 2153.66,-885.987 2151,-903.401 2146.33,-934.043 2149.83,-942.168 2151,-973.141 2151.2,-978.466 2151.52,-984.087 2151.88,-989.596"/>
<polygon fill="#111111" stroke="#111111" points="2148.42,-990.229 2152.64,-999.949 2155.4,-989.721 2148.42,-990.229"/>
</g>
<!-- baseTest&#45;&gt;baseDb -->
<g id="edge4" class="edge"><title>baseTest&#45;&gt;baseDb</title>
<path fill="none" stroke="#111111" stroke-dasharray="5,2" d="M2181.74,-852.55C2184.62,-862.872 2188.19,-874.789 2192,-885.401 2193.09,-888.447 2194.3,-891.584 2195.55,-894.712"/>
<polygon fill="#111111" stroke="#111111" points="2192.33,-896.079 2199.39,-903.974 2198.79,-893.396 2192.33,-896.079"/>
<text text-anchor="middle" x="2224" y="-874.201" font-family="Times,serif" font-size="14.00">provided</text>
</g>
<!-- taskmanDb -->
<g id="node6" class="node"><title>taskmanDb</title>
<ellipse fill="#aaaaff" stroke="black" cx="1686" cy="-395.831" rx="122.379" ry="18"/>
<text text-anchor="middle" x="1686" y="-392.131" font-family="Times,serif" font-size="14.00">taskman&#45;server&#45;schema</text>
</g>
<!-- taskmanDb&#45;&gt;baseDb -->
<g id="edge5" class="edge"><title>taskmanDb&#45;&gt;baseDb</title>
<path fill="none" stroke="#cc0000" d="M1758.11,-410.365C1783.32,-414.76 1811.85,-419.36 1838,-422.701 1884.46,-428.635 2005.1,-421.897 2048,-440.701 2189.11,-502.555 2290,-534.847 2290,-688.921 2290,-688.921 2290,-688.921 2290,-826.531 2290,-856.259 2268.96,-882.667 2248.59,-901.264"/>
<polygon fill="#cc0000" stroke="#cc0000" points="2246.1,-898.791 2240.87,-908 2250.7,-904.067 2246.1,-898.791"/>
</g>
<!-- taskmanServerImpl -->
<g id="node7" class="node"><title>taskmanServerImpl</title>
<ellipse fill="#aaaaff" stroke="black" cx="1686" cy="-305.09" rx="106.681" ry="18"/>
<text text-anchor="middle" x="1686" y="-301.39" font-family="Times,serif" font-size="14.00">taskman&#45;server&#45;impl</text>
</g>
<!-- taskmanServerImpl&#45;&gt;taskmanDb -->
<g id="edge15" class="edge"><title>taskmanServerImpl&#45;&gt;taskmanDb</title>
<path fill="none" stroke="#cc0000" d="M1686,-323.2C1686,-335.722 1686,-352.974 1686,-367.409"/>
<polygon fill="#cc0000" stroke="#cc0000" points="1682.5,-367.773 1686,-377.773 1689.5,-367.773 1682.5,-367.773"/>
</g>
<!-- taskmanServerLogic -->
<g id="node8" class="node"><title>taskmanServerLogic</title>
<ellipse fill="#aaaaff" stroke="black" cx="1437" cy="-395.831" rx="108.581" ry="18"/>
<text text-anchor="middle" x="1437" y="-392.131" font-family="Times,serif" font-size="14.00">taskman&#45;server&#45;logic</text>
</g>
<!-- taskmanServerImpl&#45;&gt;taskmanServerLogic -->
<g id="edge13" class="edge"><title>taskmanServerImpl&#45;&gt;taskmanServerLogic</title>
<path fill="none" stroke="#cc0000" d="M1642.63,-321.548C1600.31,-336.629 1535.84,-359.605 1490.39,-375.802"/>
<polygon fill="#cc0000" stroke="#cc0000" points="1488.96,-372.599 1480.71,-379.253 1491.31,-379.192 1488.96,-372.599"/>
</g>
<!-- taskmanApiImpl -->
<g id="node9" class="node"><title>taskmanApiImpl</title>
<ellipse fill="#cceeff" stroke="black" cx="1945" cy="-395.831" rx="90.9839" ry="18"/>
<text text-anchor="middle" x="1945" y="-392.131" font-family="Times,serif" font-size="14.00">taskman&#45;api&#45;impl</text>
</g>
<!-- taskmanServerImpl&#45;&gt;taskmanApiImpl -->
<g id="edge14" class="edge"><title>taskmanServerImpl&#45;&gt;taskmanApiImpl</title>
<path fill="none" stroke="#cc0000" d="M1730.08,-321.544C1750.26,-328.096 1774.62,-335.284 1797,-339.96 1834.67,-347.83 1847.14,-336.006 1883,-349.96 1895.99,-355.017 1908.75,-363.469 1919.29,-371.682"/>
<polygon fill="#cc0000" stroke="#cc0000" points="1917.26,-374.542 1927.22,-378.148 1921.68,-369.117 1917.26,-374.542"/>
</g>
<!-- taskmanApiLogic -->
<g id="node10" class="node"><title>taskmanApiLogic</title>
<ellipse fill="#cceeff" stroke="black" cx="1943" cy="-539.311" rx="92.8835" ry="18"/>
<text text-anchor="middle" x="1943" y="-535.611" font-family="Times,serif" font-size="14.00">taskman&#45;api&#45;logic</text>
</g>
<!-- taskmanServerLogic&#45;&gt;taskmanApiLogic -->
<g id="edge12" class="edge"><title>taskmanServerLogic&#45;&gt;taskmanApiLogic</title>
<path fill="none" stroke="#cc0000" d="M1489.72,-411.571C1584.4,-438.044 1782.66,-493.479 1882.63,-521.431"/>
<polygon fill="#cc0000" stroke="#cc0000" points="1881.71,-524.808 1892.28,-524.13 1883.59,-518.066 1881.71,-524.808"/>
</g>
<!-- taskmanApiImpl&#45;&gt;baseDb -->
<g id="edge8" class="edge"><title>taskmanApiImpl&#45;&gt;baseDb</title>
<path fill="none" stroke="#cc0000" d="M2013.92,-407.758C2124.18,-427.212 2328,-472.122 2328,-538.311 2328,-538.311 2328,-538.311 2328,-826.531 2328,-854.786 2323.44,-864.893 2304,-885.401 2293.12,-896.881 2278.63,-905.669 2264.34,-912.254"/>
<polygon fill="#cc0000" stroke="#cc0000" points="2262.81,-909.1 2255.01,-916.269 2265.58,-915.529 2262.81,-909.1"/>
</g>
<!-- taskmanApiImpl&#45;&gt;baseTest -->
<g id="edge11" class="edge"><title>taskmanApiImpl&#45;&gt;baseTest</title>
<path fill="none" stroke="#111111" stroke-dasharray="5,2" d="M1970.56,-413.396C2029.84,-453.68 2175.01,-563.553 2219,-699.921 2227.42,-726.036 2227.25,-735.49 2219,-761.661 2215.63,-772.362 2209.71,-782.827 2203.29,-792.052"/>
<polygon fill="#111111" stroke="#111111" points="2200.44,-790.024 2197.31,-800.147 2206.07,-794.183 2200.44,-790.024"/>
<text text-anchor="middle" x="2223" y="-640.351" font-family="Times,serif" font-size="14.00">test</text>
</g>
<!-- taskmanApiImpl&#45;&gt;taskmanDb -->
<g id="edge10" class="edge"><title>taskmanApiImpl&#45;&gt;taskmanDb</title>
<path fill="none" stroke="#111111" stroke-dasharray="5,2" d="M1853.81,-395.831C1842.3,-395.831 1830.35,-395.831 1818.36,-395.831"/>
<polygon fill="#111111" stroke="#111111" points="1818.29,-392.33 1808.29,-395.831 1818.29,-399.33 1818.29,-392.33"/>
<text text-anchor="middle" x="1831.1" y="-381.631" font-family="Times,serif" font-size="14.00">test</text>
</g>
<!-- taskmanApiImpl&#45;&gt;taskmanApiLogic -->
<g id="edge7" class="edge"><title>taskmanApiImpl&#45;&gt;taskmanApiLogic</title>
<path fill="none" stroke="#cc0000" d="M1941.16,-413.816C1939.53,-421.91 1937.81,-431.756 1937,-440.701 1934.85,-464.488 1935.38,-470.611 1937,-494.441 1937.37,-499.862 1937.99,-505.634 1938.7,-511.15"/>
<polygon fill="#cc0000" stroke="#cc0000" points="1935.27,-511.866 1940.12,-521.282 1942.2,-510.893 1935.27,-511.866"/>
</g>
<!-- taskmanApiImpl&#45;&gt;taskmanApiLogic -->
<g id="edge9" class="edge"><title>taskmanApiImpl&#45;&gt;taskmanApiLogic</title>
<path fill="none" stroke="#111111" stroke-dasharray="5,2" d="M1944.76,-413.896C1944.42,-438.009 1943.79,-482.306 1943.39,-511.018"/>
<polygon fill="#111111" stroke="#111111" points="1939.88,-511.136 1943.24,-521.184 1946.88,-511.235 1939.88,-511.136"/>
<text text-anchor="middle" x="1970.5" y="-463.871" font-family="Times,serif" font-size="14.00">test&#45;lib</text>
</g>
<!-- taskmanApiLogic&#45;&gt;baseUtil -->
<g id="edge6" class="edge"><title>taskmanApiLogic&#45;&gt;baseUtil</title>
<path fill="none" stroke="#cc0000" d="M1853.99,-544.55C1732.46,-550.209 1507.79,-560.208 1316,-566.181 935.656,-578.025 839.483,-555.988 460,-584.181 357.227,-591.816 0,-539.995 0,-643.051 0,-643.051 0,-643.051 0,-931.271 0,-984.372 1692.46,-1017.76 2077.64,-1024.67"/>
<polygon fill="#cc0000" stroke="#cc0000" points="2077.78,-1028.18 2087.84,-1024.86 2077.91,-1021.18 2077.78,-1028.18"/>
</g>
<!-- webapp -->
<g id="node11" class="node"><title>webapp</title>
<ellipse fill="#ffff80" stroke="black" cx="820" cy="-214.35" rx="70.922" ry="26.7407"/>
<text text-anchor="middle" x="820" y="-218.15" font-family="Times,serif" font-size="14.00">[aggregate]</text>
<text text-anchor="middle" x="820" y="-203.15" font-family="Times,serif" font-size="14.00">webapp</text>
</g>
<!-- webappClientHome -->
<g id="node17" class="node"><title>webappClientHome</title>
<ellipse fill="#99ccee" stroke="black" cx="1059" cy="-467.571" rx="113.689" ry="26.7407"/>
<text text-anchor="middle" x="1059" y="-471.371" font-family="Times,serif" font-size="14.00">webapp&#45;client&#45;home</text>
<text text-anchor="middle" x="1059" y="-456.371" font-family="Times,serif" font-size="14.00">(JS)</text>
</g>
<!-- webapp&#45;&gt;webappClientHome -->
<g id="edge53" class="edge"><title>webapp&#45;&gt;webappClientHome</title>
<path fill="none" stroke="#aaaaaa" stroke-dasharray="5,2" d="M870.713,-233.249C878.812,-235.99 887.119,-238.733 895,-241.22 951.879,-259.173 983.888,-234.078 1024,-278.22 1061.84,-319.86 1064.95,-388.712 1062.71,-430.632"/>
<polygon fill="#aaaaaa" stroke="#aaaaaa" points="1062.04,-440.676 1058.22,-430.399 1062.38,-435.687 1062.71,-430.698 1062.71,-430.698 1062.71,-430.698 1062.38,-435.687 1067.2,-430.996 1062.04,-440.676 1062.04,-440.676"/>
</g>
<!-- webappClientWw -->
<g id="node19" class="node"><title>webappClientWw</title>
<ellipse fill="#99ccee" stroke="black" cx="837" cy="-467.571" rx="103.476" ry="26.7407"/>
<text text-anchor="middle" x="837" y="-471.371" font-family="Times,serif" font-size="14.00">webapp&#45;client&#45;ww</text>
<text text-anchor="middle" x="837" y="-456.371" font-family="Times,serif" font-size="14.00">(JS)</text>
</g>
<!-- webapp&#45;&gt;webappClientWw -->
<g id="edge55" class="edge"><title>webapp&#45;&gt;webappClientWw</title>
<path fill="none" stroke="#aaaaaa" stroke-dasharray="5,2" d="M821.755,-241.289C824.803,-286.326 831.079,-379.074 834.553,-430.406"/>
<polygon fill="#aaaaaa" stroke="#aaaaaa" points="835.229,-440.397 830.064,-430.723 834.891,-435.408 834.554,-430.419 834.554,-430.419 834.554,-430.419 834.891,-435.408 839.043,-430.116 835.229,-440.397 835.229,-440.397"/>
</g>
<!-- webappClientProject -->
<g id="node20" class="node"><title>webappClientProject</title>
<ellipse fill="#99ccee" stroke="black" cx="594" cy="-539.311" rx="122.159" ry="26.7407"/>
<text text-anchor="middle" x="594" y="-543.111" font-family="Times,serif" font-size="14.00">webapp&#45;client&#45;project</text>
<text text-anchor="middle" x="594" y="-528.111" font-family="Times,serif" font-size="14.00">(JS)</text>
</g>
<!-- webapp&#45;&gt;webappClientProject -->
<g id="edge52" class="edge"><title>webapp&#45;&gt;webappClientProject</title>
<path fill="none" stroke="#aaaaaa" stroke-dasharray="5,2" d="M775.254,-235.18C726.662,-259.283 651.042,-304.833 614,-368.96 590.279,-410.026 588.413,-466.007 590.339,-502.159"/>
<polygon fill="#aaaaaa" stroke="#aaaaaa" points="591.003,-512.251 585.857,-502.568 590.675,-507.262 590.347,-502.273 590.347,-502.273 590.347,-502.273 590.675,-507.262 594.837,-501.977 591.003,-512.251 591.003,-512.251"/>
</g>
<!-- webappServer -->
<g id="node22" class="node"><title>webappServer</title>
<ellipse fill="#99ccee" stroke="black" cx="936" cy="-305.09" rx="79.0865" ry="18"/>
<text text-anchor="middle" x="936" y="-301.39" font-family="Times,serif" font-size="14.00">webapp&#45;server</text>
</g>
<!-- webapp&#45;&gt;webappServer -->
<g id="edge54" class="edge"><title>webapp&#45;&gt;webappServer</title>
<path fill="none" stroke="#aaaaaa" stroke-dasharray="5,2" d="M850.478,-238.666C867.784,-251.905 889.346,-268.4 906.489,-281.515"/>
<polygon fill="#aaaaaa" stroke="#aaaaaa" points="914.512,-287.652 903.836,-285.151 910.541,-284.614 906.57,-281.576 906.57,-281.576 906.57,-281.576 910.541,-284.614 909.304,-278.002 914.512,-287.652 914.512,-287.652"/>
</g>
<!-- webappMacro -->
<g id="node12" class="node"><title>webappMacro</title>
<ellipse fill="#99ccee" stroke="black" cx="1218" cy="-930.271" rx="86.0347" ry="26.7407"/>
<text text-anchor="middle" x="1218" y="-934.071" font-family="Times,serif" font-size="14.00">webapp&#45;macro</text>
<text text-anchor="middle" x="1218" y="-919.071" font-family="Times,serif" font-size="14.00">(JVM &amp; JS)</text>
</g>
<!-- webappMacro&#45;&gt;baseUtil -->
<g id="edge16" class="edge"><title>webappMacro&#45;&gt;baseUtil</title>
<path fill="none" stroke="#cc0000" d="M1299.11,-939.472C1478.59,-957.619 1907.16,-1000.95 2080.42,-1018.47"/>
<polygon fill="#cc0000" stroke="#cc0000" points="2080.16,-1021.96 2090.46,-1019.49 2080.87,-1015 2080.16,-1021.96"/>
</g>
<!-- webappBase -->
<g id="node13" class="node"><title>webappBase</title>
<ellipse fill="#99ccee" stroke="black" cx="1218" cy="-825.531" rx="77.5641" ry="26.7407"/>
<text text-anchor="middle" x="1218" y="-829.331" font-family="Times,serif" font-size="14.00">webapp&#45;base</text>
<text text-anchor="middle" x="1218" y="-814.331" font-family="Times,serif" font-size="14.00">(JVM &amp; JS)</text>
</g>
<!-- webappBase&#45;&gt;webappMacro -->
<g id="edge17" class="edge"><title>webappBase&#45;&gt;webappMacro</title>
<path fill="none" stroke="#cc0000" d="M1218,-852.457C1218,-864.746 1218,-879.635 1218,-893.02"/>
<polygon fill="#cc0000" stroke="#cc0000" points="1214.5,-893.354 1218,-903.354 1221.5,-893.354 1214.5,-893.354"/>
</g>
<!-- webappBaseMember -->
<g id="node14" class="node"><title>webappBaseMember</title>
<ellipse fill="#99ccee" stroke="black" cx="894" cy="-734.791" rx="122.159" ry="26.7407"/>
<text text-anchor="middle" x="894" y="-738.591" font-family="Times,serif" font-size="14.00">webapp&#45;base&#45;member</text>
<text text-anchor="middle" x="894" y="-723.591" font-family="Times,serif" font-size="14.00">(JVM &amp; JS)</text>
</g>
<!-- webappBaseMember&#45;&gt;webappBase -->
<g id="edge22" class="edge"><title>webappBaseMember&#45;&gt;webappBase</title>
<path fill="none" stroke="#cc0000" d="M968.332,-756.15C1022.59,-771.011 1095.63,-791.014 1148.68,-805.545"/>
<polygon fill="#cc0000" stroke="#cc0000" points="1147.77,-808.926 1158.34,-808.192 1149.62,-802.175 1147.77,-808.926"/>
</g>
<!-- webappServerLogic -->
<g id="node15" class="node"><title>webappServerLogic</title>
<ellipse fill="#99ccee" stroke="black" cx="1190" cy="-395.831" rx="113.689" ry="26.7407"/>
<text text-anchor="middle" x="1190" y="-399.631" font-family="Times,serif" font-size="14.00">webapp&#45;server&#45;logic</text>
<text text-anchor="middle" x="1190" y="-384.631" font-family="Times,serif" font-size="14.00">(JVM &amp; JS)</text>
</g>
<!-- webappServerLogic&#45;&gt;taskmanApiLogic -->
<g id="edge19" class="edge"><title>webappServerLogic&#45;&gt;taskmanApiLogic</title>
<path fill="none" stroke="#cc0000" d="M1262.28,-416.696C1343.26,-438.36 1478.7,-472.822 1597,-494.441 1682.73,-510.107 1781.42,-522.024 1851.41,-529.456"/>
<polygon fill="#cc0000" stroke="#cc0000" points="1851.21,-532.954 1861.52,-530.519 1851.94,-525.992 1851.21,-532.954"/>
</g>
<!-- webappServerLogic&#45;&gt;webappBase -->
<g id="edge18" class="edge"><title>webappServerLogic&#45;&gt;webappBase</title>
<path fill="none" stroke="#cc0000" d="M1227,-421.321C1259.96,-446.391 1303,-488.643 1303,-538.311 1303,-538.311 1303,-538.311 1303,-735.791 1303,-760.618 1285.43,-781.211 1266.27,-796.289"/>
<polygon fill="#cc0000" stroke="#cc0000" points="1263.96,-793.645 1258.01,-802.41 1268.13,-799.27 1263.96,-793.645"/>
</g>
<!-- webappClientPublic -->
<g id="node16" class="node"><title>webappClientPublic</title>
<ellipse fill="#99ccee" stroke="black" cx="1103" cy="-539.311" rx="117.26" ry="26.7407"/>
<text text-anchor="middle" x="1103" y="-543.111" font-family="Times,serif" font-size="14.00">webapp&#45;client&#45;public</text>
<text text-anchor="middle" x="1103" y="-528.111" font-family="Times,serif" font-size="14.00">(JVM &amp; JS)</text>
</g>
<!-- webappServerLogic&#45;&gt;webappClientPublic -->
<g id="edge20" class="edge"><title>webappServerLogic&#45;&gt;webappClientPublic</title>
<path fill="none" stroke="#cc0000" d="M1194.21,-422.999C1196.18,-443.973 1195.64,-473.293 1182,-494.441 1178.29,-500.198 1173.54,-505.268 1168.22,-509.718"/>
<polygon fill="#cc0000" stroke="#cc0000" points="1166,-507.013 1160.08,-515.8 1170.18,-512.622 1166,-507.013"/>
</g>
<!-- webappBaseTest -->
<g id="node23" class="node"><title>webappBaseTest</title>
<ellipse fill="white" stroke="blue" cx="1013" cy="-644.051" rx="100.318" ry="26.7407"/>
<text text-anchor="middle" x="1013" y="-647.851" font-family="Times,serif" font-size="14.00">webapp&#45;base&#45;test</text>
<text text-anchor="middle" x="1013" y="-632.851" font-family="Times,serif" font-size="14.00">(JVM &amp; JS)</text>
</g>
<!-- webappServerLogic&#45;&gt;webappBaseTest -->
<g id="edge21" class="edge"><title>webappServerLogic&#45;&gt;webappBaseTest</title>
<path fill="none" stroke="#111111" stroke-dasharray="5,2" d="M1207.46,-422.493C1229.19,-457.93 1259.87,-522.423 1229,-566.181 1203.24,-602.69 1158.54,-621.962 1116.46,-632.093"/>
<polygon fill="#111111" stroke="#111111" points="1115.67,-628.683 1106.69,-634.298 1117.21,-635.511 1115.67,-628.683"/>
<text text-anchor="middle" x="1257" y="-535.611" font-family="Times,serif" font-size="14.00">test</text>
</g>
<!-- webappClientPublic&#45;&gt;webappBase -->
<g id="edge27" class="edge"><title>webappClientPublic&#45;&gt;webappBase</title>
<path fill="none" stroke="#cc0000" d="M1113.51,-566.287C1134.21,-617.456 1180.29,-731.343 1203.73,-789.253"/>
<polygon fill="#cc0000" stroke="#cc0000" points="1200.56,-790.761 1207.56,-798.718 1207.05,-788.135 1200.56,-790.761"/>
</g>
<!-- webappClientPublic&#45;&gt;webappBaseTest -->
<g id="edge28" class="edge"><title>webappClientPublic&#45;&gt;webappBaseTest</title>
<path fill="none" stroke="#111111" stroke-dasharray="5,2" d="M1080.75,-565.707C1069.07,-579.044 1054.61,-595.55 1042.05,-609.884"/>
<polygon fill="#111111" stroke="#111111" points="1039.26,-607.762 1035.3,-617.591 1044.53,-612.375 1039.26,-607.762"/>
<text text-anchor="middle" x="1078" y="-587.981" font-family="Times,serif" font-size="14.00">test</text>
</g>
<!-- webappClientHome&#45;&gt;webappBaseMember -->
<g id="edge25" class="edge"><title>webappClientHome&#45;&gt;webappBaseMember</title>
<path fill="none" stroke="#cc0000" d="M977.867,-486.437C924.161,-498.31 863.485,-511.835 863,-512.441 833.32,-549.498 872.803,-571.042 884,-617.181 890.399,-643.551 892.844,-674.142 893.717,-697.374"/>
<polygon fill="#cc0000" stroke="#cc0000" points="890.222,-697.597 894.017,-707.489 897.219,-697.39 890.222,-697.597"/>
</g>
<!-- webappClientHome&#45;&gt;webappBaseTest -->
<g id="edge26" class="edge"><title>webappClientHome&#45;&gt;webappBaseTest</title>
<path fill="none" stroke="#111111" stroke-dasharray="5,2" d="M979.195,-486.918C967.28,-493.105 956.498,-501.378 949,-512.441 927.762,-543.775 953.342,-583.198 978.192,-610.492"/>
<polygon fill="#111111" stroke="#111111" points="975.731,-612.984 985.142,-617.852 980.821,-608.178 975.731,-612.984"/>
<text text-anchor="middle" x="963" y="-535.611" font-family="Times,serif" font-size="14.00">test</text>
</g>
<!-- webappClientWwApi -->
<g id="node18" class="node"><title>webappClientWwApi</title>
<ellipse fill="#99ccee" stroke="black" cx="753" cy="-644.051" rx="121.745" ry="26.7407"/>
<text text-anchor="middle" x="753" y="-647.851" font-family="Times,serif" font-size="14.00">webapp&#45;client&#45;ww&#45;api</text>
<text text-anchor="middle" x="753" y="-632.851" font-family="Times,serif" font-size="14.00">(JS)</text>
</g>
<!-- webappClientWwApi&#45;&gt;webappBaseMember -->
<g id="edge29" class="edge"><title>webappClientWwApi&#45;&gt;webappBaseMember</title>
<path fill="none" stroke="#cc0000" d="M791.902,-669.534C808.714,-680.115 828.549,-692.599 846.244,-703.735"/>
<polygon fill="#cc0000" stroke="#cc0000" points="844.408,-706.715 854.735,-709.079 848.136,-700.791 844.408,-706.715"/>
</g>
<!-- webappClientWw&#45;&gt;webappClientWwApi -->
<g id="edge30" class="edge"><title>webappClientWw&#45;&gt;webappClientWwApi</title>
<path fill="none" stroke="#cc0000" d="M830.421,-494.545C822.727,-521.983 808.274,-565.808 787,-599.181 784.904,-602.469 782.621,-605.814 780.262,-609.116"/>
<polygon fill="#cc0000" stroke="#cc0000" points="777.435,-607.053 774.308,-617.176 783.065,-611.212 777.435,-607.053"/>
</g>
<!-- webappClientWw&#45;&gt;webappBaseTest -->
<g id="edge31" class="edge"><title>webappClientWw&#45;&gt;webappBaseTest</title>
<path fill="none" stroke="#111111" stroke-dasharray="5,2" d="M853.185,-494.212C866.907,-514.881 887.843,-544.046 910,-566.181 927.248,-583.412 948.537,-599.937 967.274,-613.221"/>
<polygon fill="#111111" stroke="#111111" points="965.477,-616.234 975.68,-619.087 969.482,-610.494 965.477,-616.234"/>
<text text-anchor="middle" x="924" y="-535.611" font-family="Times,serif" font-size="14.00">test</text>
</g>
<!-- webappClientProject&#45;&gt;webappClientWwApi -->
<g id="edge32" class="edge"><title>webappClientProject&#45;&gt;webappClientWwApi</title>
<path fill="none" stroke="#cc0000" d="M632.084,-564.92C654.422,-579.354 682.813,-597.698 706.47,-612.985"/>
<polygon fill="#cc0000" stroke="#cc0000" points="704.652,-615.977 714.951,-618.465 708.451,-610.098 704.652,-615.977"/>
</g>
<!-- webappClientProject&#45;&gt;webappBaseTest -->
<g id="edge33" class="edge"><title>webappClientProject&#45;&gt;webappBaseTest</title>
<path fill="none" stroke="#111111" stroke-dasharray="5,2" d="M652.136,-563.106C685.107,-575.297 727.377,-589.706 766,-599.181 817.523,-611.821 831.756,-607.963 884,-617.181 897.395,-619.544 911.538,-622.208 925.356,-624.904"/>
<polygon fill="#111111" stroke="#111111" points="924.857,-628.373 935.345,-626.869 926.209,-621.505 924.857,-628.373"/>
<text text-anchor="middle" x="780" y="-587.981" font-family="Times,serif" font-size="14.00">test</text>
</g>
<!-- webappGen -->
<g id="node21" class="node"><title>webappGen</title>
<ellipse fill="#99ccee" stroke="black" cx="728" cy="-395.831" rx="72.6644" ry="26.7407"/>
<text text-anchor="middle" x="728" y="-399.631" font-family="Times,serif" font-size="14.00">webapp&#45;gen</text>
<text text-anchor="middle" x="728" y="-384.631" font-family="Times,serif" font-size="14.00">(JVM &amp; JS)</text>
</g>
<!-- webappGen&#45;&gt;webappBaseMember -->
<g id="edge34" class="edge"><title>webappGen&#45;&gt;webappBaseMember</title>
<path fill="none" stroke="#cc0000" d="M726.654,-422.806C726.394,-428.689 726.155,-434.908 726,-440.701 725.953,-442.443 725.925,-564.704 725,-566.181 697.887,-609.474 648.94,-573.78 622,-617.181 609.404,-637.474 607.134,-652.227 622,-670.921 641.543,-695.497 710.98,-711.301 774.8,-720.917"/>
<polygon fill="#cc0000" stroke="#cc0000" points="774.584,-724.422 784.986,-722.407 775.598,-717.496 774.584,-724.422"/>
</g>
<!-- webappGen&#45;&gt;webappClientProject -->
<g id="edge35" class="edge"><title>webappGen&#45;&gt;webappClientProject</title>
<path fill="none" stroke="#111111" stroke-dasharray="5,2" d="M706.799,-421.869C689.547,-441.933 664.323,-470.575 641,-494.441 637.387,-498.138 633.543,-501.933 629.67,-505.67"/>
<polygon fill="#111111" stroke="#111111" points="627.069,-503.313 622.239,-512.743 631.895,-508.384 627.069,-503.313"/>
<text text-anchor="middle" x="702.5" y="-463.871" font-family="Times,serif" font-size="14.00">run</text>
</g>
<!-- webappGen&#45;&gt;webappBaseTest -->
<g id="edge36" class="edge"><title>webappGen&#45;&gt;webappBaseTest</title>
<path fill="none" stroke="#111111" stroke-dasharray="5,2" d="M726.814,-422.702C726.126,-447.399 726.438,-482.557 733,-494.441 772.3,-565.615 859.489,-604.133 926.207,-623.983"/>
<polygon fill="#111111" stroke="#111111" points="925.316,-627.369 935.894,-626.778 927.256,-620.643 925.316,-627.369"/>
<text text-anchor="middle" x="814" y="-535.611" font-family="Times,serif" font-size="14.00">test</text>
</g>
<!-- webappServer&#45;&gt;baseDb -->
<g id="edge40" class="edge"><title>webappServer&#45;&gt;baseDb</title>
<path fill="none" stroke="#cc0000" d="M1006.66,-313.438C1082.9,-321.12 1207.93,-333.008 1316,-339.96 1640.92,-360.864 1723,-349.312 2048,-368.96 2118.77,-373.239 2366,-323.93 2366,-394.831 2366,-394.831 2366,-394.831 2366,-826.531 2366,-875.455 2311.69,-902.458 2267.36,-916.35"/>
<polygon fill="#cc0000" stroke="#cc0000" points="2266.09,-913.076 2257.51,-919.281 2268.09,-919.786 2266.09,-913.076"/>
</g>
<!-- webappServer&#45;&gt;taskmanApiImpl -->
<g id="edge37" class="edge"><title>webappServer&#45;&gt;taskmanApiImpl</title>
<path fill="none" stroke="#cc0000" d="M1007.03,-313.093C1083.33,-320.458 1208.16,-332.054 1316,-339.96 1539.77,-356.367 1597.55,-339.701 1820,-368.96 1839.55,-371.532 1860.62,-375.442 1879.78,-379.449"/>
<polygon fill="#cc0000" stroke="#cc0000" points="1879.1,-382.882 1889.61,-381.546 1880.56,-376.036 1879.1,-382.882"/>
</g>
<!-- webappServer&#45;&gt;webappServerLogic -->
<g id="edge38" class="edge"><title>webappServer&#45;&gt;webappServerLogic</title>
<path fill="none" stroke="#cc0000" d="M977.375,-320.546C1015.57,-333.888 1073.09,-353.986 1118.68,-369.914"/>
<polygon fill="#cc0000" stroke="#cc0000" points="1117.62,-373.252 1128.22,-373.246 1119.93,-366.643 1117.62,-373.252"/>
</g>
<!-- webappServer&#45;&gt;webappClientPublic -->
<g id="edge41" class="edge"><title>webappServer&#45;&gt;webappClientPublic</title>
<path fill="none" stroke="#cc0000" stroke-dasharray="5,2" d="M956.027,-322.627C971.053,-335.149 992.038,-352.882 1010,-368.96 1035.94,-392.182 1035.82,-407.202 1067,-422.701 1110.18,-444.166 1142.86,-403.881 1174,-440.701 1181.71,-449.819 1179.82,-484.01 1174,-494.441 1171.11,-499.629 1167.32,-504.281 1163,-508.435"/>
<polygon fill="#cc0000" stroke="#cc0000" points="1160.66,-505.831 1155.29,-514.963 1165.18,-511.174 1160.66,-505.831"/>
</g>
<!-- webappServer&#45;&gt;webappClientHome -->
<g id="edge42" class="edge"><title>webappServer&#45;&gt;webappClientHome</title>
<path fill="none" stroke="#cc0000" stroke-dasharray="5,2" d="M948.931,-322.961C968.832,-348.927 1007.36,-399.199 1033.14,-432.83"/>
<polygon fill="#cc0000" stroke="#cc0000" points="1030.54,-435.189 1039.4,-440.997 1036.09,-430.93 1030.54,-435.189"/>
</g>
<!-- webappServer&#45;&gt;webappClientWw -->
<g id="edge44" class="edge"><title>webappServer&#45;&gt;webappClientWw</title>
<path fill="none" stroke="#cc0000" stroke-dasharray="5,2" d="M925.592,-322.961C909.642,-348.817 878.824,-398.773 858.079,-432.401"/>
<polygon fill="#cc0000" stroke="#cc0000" points="855.048,-430.648 852.777,-440.997 861.006,-434.323 855.048,-430.648"/>
</g>
<!-- webappServer&#45;&gt;webappClientProject -->
<g id="edge43" class="edge"><title>webappServer&#45;&gt;webappClientProject</title>
<path fill="none" stroke="#cc0000" stroke-dasharray="5,2" d="M864.986,-313.229C789.696,-322.193 677.381,-340.011 646,-368.96 603.171,-408.471 625.303,-438.799 608,-494.441 607.154,-497.16 606.273,-499.973 605.382,-502.799"/>
<polygon fill="#cc0000" stroke="#cc0000" points="602.04,-501.759 602.355,-512.35 608.713,-503.874 602.04,-501.759"/>
</g>
<!-- webappServer&#45;&gt;webappGen -->
<g id="edge39" class="edge"><title>webappServer&#45;&gt;webappGen</title>
<path fill="none" stroke="#cc0000" d="M900.889,-321.323C880.745,-330.041 854.971,-341.161 832,-350.96 816.551,-357.551 799.789,-364.647 784.325,-371.17"/>
<polygon fill="#cc0000" stroke="#cc0000" points="782.743,-368.038 774.887,-375.148 785.462,-374.489 782.743,-368.038"/>
</g>
<!-- webappBaseTest&#45;&gt;baseTest -->
<g id="edge23" class="edge"><title>webappBaseTest&#45;&gt;baseTest</title>
<path fill="none" stroke="#111111" d="M1098.44,-658.248C1318.01,-692.163 1899.01,-781.901 2102.98,-813.407"/>
<polygon fill="#111111" stroke="#111111" points="2102.56,-816.884 2112.98,-814.952 2103.63,-809.966 2102.56,-816.884"/>
</g>
<!-- webappBaseTest&#45;&gt;webappBaseMember -->
<g id="edge24" class="edge"><title>webappBaseTest&#45;&gt;webappBaseMember</title>
<path fill="none" stroke="#111111" d="M980.168,-669.534C966.481,-679.741 950.42,-691.718 935.897,-702.548"/>
<polygon fill="#111111" stroke="#111111" points="933.477,-699.986 927.553,-708.77 937.662,-705.598 933.477,-699.986"/>
</g>
<!-- taskman -->
<g id="node24" class="node"><title>taskman</title>
<ellipse fill="#ffff80" stroke="black" cx="1686" cy="-214.35" rx="70.922" ry="26.7407"/>
<text text-anchor="middle" x="1686" y="-218.15" font-family="Times,serif" font-size="14.00">[aggregate]</text>
<text text-anchor="middle" x="1686" y="-203.15" font-family="Times,serif" font-size="14.00">taskman</text>
</g>
<!-- taskman&#45;&gt;taskmanServerImpl -->
<g id="edge51" class="edge"><title>taskman&#45;&gt;taskmanServerImpl</title>
<path fill="none" stroke="#aaaaaa" stroke-dasharray="5,2" d="M1686,-241.495C1686,-252.653 1686,-265.673 1686,-276.939"/>
<polygon fill="#aaaaaa" stroke="#aaaaaa" points="1686,-287.085 1681.5,-277.085 1686,-282.085 1686,-277.085 1686,-277.085 1686,-277.085 1686,-282.085 1690.5,-277.085 1686,-287.085 1686,-287.085"/>
</g>
<!-- taskman&#45;&gt;taskmanApiImpl -->
<g id="edge50" class="edge"><title>taskman&#45;&gt;taskmanApiImpl</title>
<path fill="none" stroke="#aaaaaa" stroke-dasharray="5,2" d="M1734.77,-233.886C1761.08,-244.936 1793.5,-260.296 1820,-278.22 1860.1,-305.344 1899.85,-345.248 1923.41,-370.632"/>
<polygon fill="#aaaaaa" stroke="#aaaaaa" points="1930.19,-378.014 1920.11,-373.69 1926.81,-374.33 1923.43,-370.647 1923.43,-370.647 1923.43,-370.647 1926.81,-374.33 1926.74,-367.604 1930.19,-378.014 1930.19,-378.014"/>
</g>
<!-- benchmark -->
<g id="node25" class="node"><title>benchmark</title>
<ellipse fill="#ffffdd" stroke="black" cx="324" cy="-117.61" rx="70.922" ry="26.7407"/>
<text text-anchor="middle" x="324" y="-121.41" font-family="Times,serif" font-size="14.00">[aggregate]</text>
<text text-anchor="middle" x="324" y="-106.41" font-family="Times,serif" font-size="14.00">benchmark</text>
</g>
<!-- benchmarkJvm -->
<g id="node26" class="node"><title>benchmarkJvm</title>
<ellipse fill="#ffcccc" stroke="black" cx="324" cy="-214.35" rx="86.3847" ry="18"/>
<text text-anchor="middle" x="324" y="-210.65" font-family="Times,serif" font-size="14.00">benchmark JVM</text>
</g>
<!-- benchmark&#45;&gt;benchmarkJvm -->
<g id="edge60" class="edge"><title>benchmark&#45;&gt;benchmarkJvm</title>
<path fill="none" stroke="#aaaaaa" stroke-dasharray="5,2" d="M324,-144.498C324,-157.339 324,-172.851 324,-185.899"/>
<polygon fill="#aaaaaa" stroke="#aaaaaa" points="324,-196.166 319.5,-186.166 324,-191.166 324,-186.166 324,-186.166 324,-186.166 324,-191.166 328.5,-186.166 324,-196.166 324,-196.166"/>
</g>
<!-- benchmarkJs -->
<g id="node27" class="node"><title>benchmarkJs</title>
<ellipse fill="#ffcccc" stroke="black" cx="143" cy="-214.35" rx="76.8869" ry="18"/>
<text text-anchor="middle" x="143" y="-210.65" font-family="Times,serif" font-size="14.00">benchmark JS</text>
</g>
<!-- benchmark&#45;&gt;benchmarkJs -->
<g id="edge61" class="edge"><title>benchmark&#45;&gt;benchmarkJs</title>
<path fill="none" stroke="#aaaaaa" stroke-dasharray="5,2" d="M283.38,-139.872C252.965,-155.792 211.619,-177.433 181.682,-193.103"/>
<polygon fill="#aaaaaa" stroke="#aaaaaa" points="172.782,-197.761 179.555,-189.137 177.212,-195.443 181.642,-193.124 181.642,-193.124 181.642,-193.124 177.212,-195.443 183.729,-197.111 172.782,-197.761 172.782,-197.761"/>
</g>
<!-- benchmarkJvm&#45;&gt;webappServer -->
<g id="edge47" class="edge"><title>benchmarkJvm&#45;&gt;webappServer</title>
<path fill="none" stroke="#cc0000" d="M383.789,-227.481C407.468,-232.087 434.966,-237.189 460,-241.22 599.154,-263.627 762.147,-283.862 856.779,-295.019"/>
<polygon fill="#cc0000" stroke="#cc0000" points="856.507,-298.511 866.847,-296.202 857.324,-291.559 856.507,-298.511"/>
</g>
<!-- benchmarkShared -->
<g id="node28" class="node"><title>benchmarkShared</title>
<ellipse fill="#ffcccc" stroke="black" cx="233" cy="-305.09" rx="69.0935" ry="26.7407"/>
<text text-anchor="middle" x="233" y="-308.89" font-family="Times,serif" font-size="14.00">benchmark</text>
<text text-anchor="middle" x="233" y="-293.89" font-family="Times,serif" font-size="14.00">base</text>
</g>
<!-- benchmarkJvm&#45;&gt;benchmarkShared -->
<g id="edge45" class="edge"><title>benchmarkJvm&#45;&gt;benchmarkShared</title>
<path fill="none" stroke="#cc0000" d="M306.884,-232.042C295.241,-243.395 279.471,-258.773 265.491,-272.407"/>
<polygon fill="#cc0000" stroke="#cc0000" points="262.661,-270.277 257.945,-279.765 267.548,-275.289 262.661,-270.277"/>
</g>
<!-- benchmarkJs&#45;&gt;webappClientProject -->
<g id="edge48" class="edge"><title>benchmarkJs&#45;&gt;webappClientProject</title>
<path fill="none" stroke="#cc0000" d="M189.904,-228.775C232.89,-241.8 292.563,-261.93 311,-278.22 392.256,-350.015 339.07,-427.032 424,-494.441 440.004,-507.143 459.282,-516.201 479.022,-522.652"/>
<polygon fill="#cc0000" stroke="#cc0000" points="478.152,-526.046 488.738,-525.614 480.193,-519.35 478.152,-526.046"/>
</g>
<!-- benchmarkJs&#45;&gt;benchmarkShared -->
<g id="edge46" class="edge"><title>benchmarkJs&#45;&gt;benchmarkShared</title>
<path fill="none" stroke="#cc0000" d="M159.928,-232.042C171.442,-243.395 187.039,-258.773 200.866,-272.407"/>
<polygon fill="#cc0000" stroke="#cc0000" points="198.751,-275.236 208.329,-279.765 203.666,-270.251 198.751,-275.236"/>
</g>
<!-- utils -->
<g id="node29" class="node"><title>utils</title>
<ellipse fill="#ffffdd" stroke="black" cx="151" cy="-117.61" rx="31.3957" ry="18"/>
<text text-anchor="middle" x="151" y="-113.91" font-family="Times,serif" font-size="14.00">utils</text>
</g>
<!-- utils&#45;&gt;webappBase -->
<g id="edge49" class="edge"><title>utils&#45;&gt;webappBase</title>
<path fill="none" stroke="#cc0000" d="M124.792,-127.383C91.4102,-140.41 38,-168.293 38,-213.35 38,-213.35 38,-213.35 38,-735.791 38,-790.555 856.864,-815.66 1130.3,-822.516"/>
<polygon fill="#cc0000" stroke="#cc0000" points="1130.49,-826.022 1140.58,-822.771 1130.67,-819.024 1130.49,-826.022"/>
</g>
<!-- root -->
<g id="node30" class="node"><title>root</title>
<ellipse fill="#cccccc" stroke="black" cx="438" cy="-26.8701" rx="70.922" ry="26.7407"/>
<text text-anchor="middle" x="438" y="-30.6701" font-family="Times,serif" font-size="14.00">[aggregate]</text>
<text text-anchor="middle" x="438" y="-15.6701" font-family="Times,serif" font-size="14.00">root</text>
</g>
<!-- root&#45;&gt;base -->
<g id="edge62" class="edge"><title>root&#45;&gt;base</title>
<path fill="none" stroke="#aaaaaa" stroke-dasharray="5,2" d="M438,-53.8861C438,-71.5732 438,-95.5036 438,-116.61 438,-116.61 438,-116.61 438,-396.831 438,-441.301 425.427,-466.47 460,-494.441 494.296,-522.187 2011.49,-487.676 2048,-512.441 2109.76,-554.338 2129.66,-646.417 2136.03,-697.629"/>
<polygon fill="#aaaaaa" stroke="#aaaaaa" points="2137.16,-707.602 2131.56,-698.174 2136.6,-702.634 2136.03,-697.666 2136.03,-697.666 2136.03,-697.666 2136.6,-702.634 2140.5,-697.158 2137.16,-707.602 2137.16,-707.602"/>
</g>
<!-- root&#45;&gt;webapp -->
<g id="edge63" class="edge"><title>root&#45;&gt;webapp</title>
<path fill="none" stroke="#aaaaaa" stroke-dasharray="5,2" d="M480.34,-48.4284C550.757,-82.6192 691.723,-151.065 768.043,-188.122"/>
<polygon fill="#aaaaaa" stroke="#aaaaaa" points="777.47,-192.7 766.509,-192.38 772.972,-190.516 768.474,-188.332 768.474,-188.332 768.474,-188.332 772.972,-190.516 770.44,-184.284 777.47,-192.7 777.47,-192.7"/>
</g>
<!-- root&#45;&gt;taskman -->
<g id="edge64" class="edge"><title>root&#45;&gt;taskman</title>
<path fill="none" stroke="#aaaaaa" stroke-dasharray="5,2" d="M503.341,-37.5811C715.612,-69.1294 1385.11,-168.631 1610.84,-202.18"/>
<polygon fill="#aaaaaa" stroke="#aaaaaa" points="1620.93,-203.68 1610.38,-206.661 1615.99,-202.945 1611.04,-202.209 1611.04,-202.209 1611.04,-202.209 1615.99,-202.945 1611.7,-197.758 1620.93,-203.68 1620.93,-203.68"/>
</g>
<!-- root&#45;&gt;benchmark -->
<g id="edge65" class="edge"><title>root&#45;&gt;benchmark</title>
<path fill="none" stroke="#aaaaaa" stroke-dasharray="5,2" d="M407.749,-51.4178C393.724,-62.3355 376.904,-75.4284 362.03,-87.007"/>
<polygon fill="#aaaaaa" stroke="#aaaaaa" points="353.996,-93.2603 359.123,-83.5667 357.942,-90.189 361.887,-87.1177 361.887,-87.1177 361.887,-87.1177 357.942,-90.189 364.652,-90.6687 353.996,-93.2603 353.996,-93.2603"/>
</g>
<!-- root&#45;&gt;utils -->
<g id="edge66" class="edge"><title>root&#45;&gt;utils</title>
<path fill="none" stroke="#aaaaaa" stroke-dasharray="5,2" d="M380.793,-42.8612C341.982,-53.322 289.631,-68 244,-82.7401 224.59,-89.01 203.185,-96.7475 185.809,-103.244"/>
<polygon fill="#aaaaaa" stroke="#aaaaaa" points="176.088,-106.905 183.861,-99.1687 180.768,-105.142 185.447,-103.38 185.447,-103.38 185.447,-103.38 180.768,-105.142 187.033,-107.591 176.088,-106.905 176.088,-106.905"/>
</g>
</g>
</svg>
