<?xml version="1.0" encoding="UTF-8" standalone="no"?>
<!DOCTYPE svg PUBLIC "-//W3C//DTD SVG 1.1//EN"
 "http://www.w3.org/Graphics/SVG/1.1/DTD/svg11.dtd">
<!-- Generated by graphviz version 2.38.0 (20140413.2041)
 -->
<!-- Title: G Pages: 1 -->
<svg width="1512pt" height="899pt"
 viewBox="0.00 0.00 1512.00 898.92" xmlns="http://www.w3.org/2000/svg" xmlns:xlink="http://www.w3.org/1999/xlink">
<g id="graph0" class="graph" transform="scale(1 1) rotate(0) translate(4 894.921)">
<title>G</title>
<polygon fill="white" stroke="none" points="-4,4 -4,-894.921 1508,-894.921 1508,4 -4,4"/>
<g id="clust1" class="cluster"><title>cluster_base</title>
<polygon fill="#f4fff4" stroke="black" points="1344,-451.701 1344,-882.921 1484,-882.921 1484,-451.701 1344,-451.701"/>
</g>
<g id="clust2" class="cluster"><title>cluster_t</title>
<polygon fill="#eeeeff" stroke="black" points="326,-171.48 326,-721.181 1285,-721.181 1285,-171.48 326,-171.48"/>
</g>
<g id="clust3" class="cluster"><title>cluster_ts</title>
<polygon fill="white" stroke="black" points="693,-360.96 693,-617.311 1087,-617.311 1087,-360.96 693,-360.96"/>
</g>
<g id="clust4" class="cluster"><title>cluster_ta</title>
<polygon fill="white" stroke="black" points="1095,-360.96 1095,-713.181 1277,-713.181 1277,-360.96 1095,-360.96"/>
</g>
<g id="clust5" class="cluster"><title>cluster_w</title>
<polygon fill="white" stroke="black" points="334,-179.48 334,-626.181 685,-626.181 685,-179.48 334,-179.48"/>
</g>
<g id="clust6" class="cluster"><title>cluster_supp</title>
<polygon fill="#fff2f2" stroke="black" points="20,-82.7401 20,-339.96 318,-339.96 318,-82.7401 20,-82.7401"/>
</g>
<!-- base -->
<g id="node1" class="node"><title>base</title>
<ellipse fill="#cccccc" stroke="black" cx="1409" cy="-486.571" rx="55.3091" ry="26.7407"/>
<text text-anchor="middle" x="1409" y="-490.371" font-family="Times,serif" font-size="14.00">[aggregate]</text>
<text text-anchor="middle" x="1409" y="-475.371" font-family="Times,serif" font-size="14.00">base</text>
</g>
<!-- baseUtil -->
<g id="node3" class="node"><title>baseUtil</title>
<ellipse fill="#bbffbb" stroke="black" cx="1393" cy="-766.181" rx="40.8928" ry="18"/>
<text text-anchor="middle" x="1393" y="-762.481" font-family="Times,serif" font-size="14.00">base&#45;util</text>
</g>
<!-- base&#45;&gt;baseUtil -->
<g id="edge43" class="edge"><title>base&#45;&gt;baseUtil</title>
<path fill="none" stroke="#aaaaaa" stroke-dasharray="5,2" d="M1389.74,-511.954C1379.62,-526.335 1368.26,-545.403 1363,-564.441 1346.11,-625.55 1367.78,-699.919 1382.15,-738.723"/>
<polygon fill="#aaaaaa" stroke="#aaaaaa" points="1385.8,-748.239 1378.02,-740.511 1384.01,-743.57 1382.22,-738.901 1382.22,-738.901 1382.22,-738.901 1384.01,-743.57 1386.42,-737.291 1385.8,-748.239 1385.8,-748.239"/>
</g>
<!-- baseDb -->
<g id="node4" class="node"><title>baseDb</title>
<ellipse fill="#bbffbb" stroke="black" cx="1438" cy="-687.181" rx="38.1938" ry="18"/>
<text text-anchor="middle" x="1438" y="-683.481" font-family="Times,serif" font-size="14.00">base&#45;db</text>
</g>
<!-- base&#45;&gt;baseDb -->
<g id="edge44" class="edge"><title>base&#45;&gt;baseDb</title>
<path fill="none" stroke="#aaaaaa" stroke-dasharray="5,2" d="M1431.57,-511.114C1443.76,-525.367 1457.76,-544.585 1465,-564.441 1478.23,-600.72 1483.98,-615.183 1470,-651.181 1468.31,-655.529 1465.8,-659.667 1462.92,-663.475"/>
<polygon fill="#aaaaaa" stroke="#aaaaaa" points="1456.18,-671.237 1459.34,-660.735 1459.46,-667.46 1462.74,-663.684 1462.74,-663.684 1462.74,-663.684 1459.46,-667.46 1466.14,-666.633 1456.18,-671.237 1456.18,-671.237"/>
</g>
<!-- baseTest -->
<g id="node5" class="node"><title>baseTest</title>
<ellipse fill="#bbffbb" stroke="black" cx="1414" cy="-591.311" rx="41.6928" ry="18"/>
<text text-anchor="middle" x="1414" y="-587.611" font-family="Times,serif" font-size="14.00">base&#45;test</text>
</g>
<!-- base&#45;&gt;baseTest -->
<g id="edge45" class="edge"><title>base&#45;&gt;baseTest</title>
<path fill="none" stroke="#aaaaaa" stroke-dasharray="5,2" d="M1410.26,-513.496C1410.99,-528.516 1411.91,-547.419 1412.66,-562.714"/>
<polygon fill="#aaaaaa" stroke="#aaaaaa" points="1413.16,-573.107 1408.18,-563.338 1412.92,-568.113 1412.68,-563.119 1412.68,-563.119 1412.68,-563.119 1412.92,-568.113 1417.17,-562.9 1413.16,-573.107 1413.16,-573.107"/>
</g>
<!-- baseRaw -->
<g id="node2" class="node"><title>baseRaw</title>
<ellipse fill="#bbffbb" stroke="black" cx="1414" cy="-848.051" rx="60.623" ry="26.7407"/>
<text text-anchor="middle" x="1414" y="-851.851" font-family="Times,serif" font-size="14.00">base&#45;util&#45;sjs</text>
<text text-anchor="middle" x="1414" y="-836.851" font-family="Times,serif" font-size="14.00">(Scala &amp; JS)</text>
</g>
<!-- baseUtil&#45;&gt;baseRaw -->
<g id="edge1" class="edge"><title>baseUtil&#45;&gt;baseRaw</title>
<path fill="none" stroke="#cc0000" d="M1400.03,-793.925C1402.36,-802.761 1404.93,-812.568 1407.24,-821.326"/>
<polygon fill="#cc0000" stroke="#cc0000" points="1403.38,-792.9 1397.45,-784.119 1396.61,-794.681 1403.38,-792.9"/>
</g>
<!-- baseDb&#45;&gt;baseUtil -->
<g id="edge2" class="edge"><title>baseDb&#45;&gt;baseUtil</title>
<path fill="none" stroke="#cc0000" d="M1423.13,-713.621C1416.43,-725.094 1408.7,-738.321 1402.75,-748.506"/>
<polygon fill="#cc0000" stroke="#cc0000" points="1426.21,-715.288 1428.24,-704.889 1420.17,-711.756 1426.21,-715.288"/>
</g>
<!-- baseTest&#45;&gt;baseUtil -->
<g id="edge3" class="edge"><title>baseTest&#45;&gt;baseUtil</title>
<path fill="none" stroke="#cc0000" d="M1404.09,-618.518C1399.08,-633.183 1393.52,-651.935 1391,-669.181 1387.65,-692.048 1390.48,-698.076 1391,-721.181 1391.2,-730.049 1391.63,-739.914 1392.04,-748.053"/>
<polygon fill="#cc0000" stroke="#cc0000" points="1407.39,-619.682 1407.44,-609.087 1400.8,-617.343 1407.39,-619.682"/>
</g>
<!-- baseTest&#45;&gt;baseDb -->
<g id="edge4" class="edge"><title>baseTest&#45;&gt;baseDb</title>
<path fill="none" stroke="#cc0000" stroke-dasharray="5,2" d="M1415.34,-619.631C1416.33,-629.697 1418.04,-641.099 1421,-651.181 1422.82,-657.404 1425.67,-663.881 1428.52,-669.548"/>
<polygon fill="#cc0000" stroke="#cc0000" points="1418.81,-619.05 1414.53,-609.358 1411.83,-619.604 1418.81,-619.05"/>
<text text-anchor="middle" x="1445.5" y="-639.981" font-family="Times,serif" font-size="14.00">provided</text>
</g>
<!-- taskmanDb -->
<g id="node6" class="node"><title>taskmanDb</title>
<ellipse fill="#aaaaff" stroke="black" cx="984" cy="-591.311" rx="94.7833" ry="18"/>
<text text-anchor="middle" x="984" y="-587.611" font-family="Times,serif" font-size="14.00">taskman&#45;server&#45;schema</text>
</g>
<!-- taskmanDb&#45;&gt;baseDb -->
<g id="edge5" class="edge"><title>taskmanDb&#45;&gt;baseDb</title>
<path fill="none" stroke="#cc0000" d="M1033.64,-610.98C1051.47,-616.894 1071.9,-622.774 1091,-626.181 1138.09,-634.58 1259.89,-623.463 1306,-636.181 1319.61,-639.935 1321.04,-645.576 1334,-651.181 1357.61,-661.39 1385.24,-670.565 1406.08,-676.958"/>
<polygon fill="#cc0000" stroke="#cc0000" points="1034.62,-607.616 1024.02,-607.707 1032.36,-614.243 1034.62,-607.616"/>
</g>
<!-- taskmanServerImpl -->
<g id="node7" class="node"><title>taskmanServerImpl</title>
<ellipse fill="#aaaaff" stroke="black" cx="889" cy="-486.571" rx="84.485" ry="18"/>
<text text-anchor="middle" x="889" y="-482.871" font-family="Times,serif" font-size="14.00">taskman&#45;server&#45;impl</text>
</g>
<!-- taskmanServerImpl&#45;&gt;taskmanDb -->
<g id="edge16" class="edge"><title>taskmanServerImpl&#45;&gt;taskmanDb</title>
<path fill="none" stroke="#cc0000" d="M911.518,-511.923C929.007,-530.837 952.811,-556.58 968.289,-573.32"/>
<polygon fill="#cc0000" stroke="#cc0000" points="914.046,-509.502 904.687,-504.536 908.907,-514.255 914.046,-509.502"/>
</g>
<!-- taskmanServerLogic -->
<g id="node8" class="node"><title>taskmanServerLogic</title>
<ellipse fill="#aaaaff" stroke="black" cx="786" cy="-591.311" rx="85.2851" ry="18"/>
<text text-anchor="middle" x="786" y="-587.611" font-family="Times,serif" font-size="14.00">taskman&#45;server&#45;logic</text>
</g>
<!-- taskmanServerImpl&#45;&gt;taskmanServerLogic -->
<g id="edge14" class="edge"><title>taskmanServerImpl&#45;&gt;taskmanServerLogic</title>
<path fill="none" stroke="#cc0000" d="M864.838,-511.672C845.854,-530.608 819.891,-556.506 803.034,-573.32"/>
<polygon fill="#cc0000" stroke="#cc0000" points="867.383,-514.076 871.992,-504.536 862.44,-509.12 867.383,-514.076"/>
</g>
<!-- taskmanApi -->
<g id="node10" class="node"><title>taskmanApi</title>
<ellipse fill="#cccccc" stroke="black" cx="1162" cy="-395.831" rx="58.8803" ry="26.7407"/>
<text text-anchor="middle" x="1162" y="-399.631" font-family="Times,serif" font-size="14.00">[aggregate]</text>
<text text-anchor="middle" x="1162" y="-384.631" font-family="Times,serif" font-size="14.00">taskman&#45;api</text>
</g>
<!-- taskmanServerImpl&#45;&gt;taskmanApi -->
<g id="edge15" class="edge"><title>taskmanServerImpl&#45;&gt;taskmanApi</title>
<path fill="none" stroke="#cc0000" d="M945.864,-468.663C986.468,-456.398 1042.29,-439.143 1091,-422.701 1099.58,-419.805 1108.69,-416.591 1117.42,-413.441"/>
<polygon fill="#cc0000" stroke="#cc0000" points="944.709,-465.356 936.143,-471.592 946.728,-472.059 944.709,-465.356"/>
</g>
<!-- taskmanApiLogic -->
<g id="node12" class="node"><title>taskmanApiLogic</title>
<ellipse fill="#cceeff" stroke="black" cx="1178" cy="-687.181" rx="74.9875" ry="18"/>
<text text-anchor="middle" x="1178" y="-683.481" font-family="Times,serif" font-size="14.00">taskman&#45;api&#45;logic</text>
</g>
<!-- taskmanServerLogic&#45;&gt;taskmanApiLogic -->
<g id="edge13" class="edge"><title>taskmanServerLogic&#45;&gt;taskmanApiLogic</title>
<path fill="none" stroke="#cc0000" d="M833.441,-610.94C848.211,-616.323 864.65,-621.895 880,-626.181 960.947,-648.781 1056.5,-666.482 1117.17,-676.633"/>
<polygon fill="#cc0000" stroke="#cc0000" points="834.598,-607.636 824.004,-607.445 832.166,-614.201 834.598,-607.636"/>
</g>
<!-- taskmanServer -->
<g id="node9" class="node"><title>taskmanServer</title>
<ellipse fill="#cccccc" stroke="black" cx="889" cy="-395.831" rx="70.922" ry="26.7407"/>
<text text-anchor="middle" x="889" y="-399.631" font-family="Times,serif" font-size="14.00">[aggregate]</text>
<text text-anchor="middle" x="889" y="-384.631" font-family="Times,serif" font-size="14.00">taskman&#45;server</text>
</g>
<!-- taskmanServer&#45;&gt;taskmanDb -->
<g id="edge37" class="edge"><title>taskmanServer&#45;&gt;taskmanDb</title>
<path fill="none" stroke="#aaaaaa" stroke-dasharray="5,2" d="M939.538,-414.81C956.011,-423.332 972.492,-435.327 982,-451.701 1001.91,-485.992 997.022,-533.561 991.006,-563.11"/>
<polygon fill="#aaaaaa" stroke="#aaaaaa" points="988.783,-573.124 986.558,-562.386 989.867,-568.243 990.951,-563.362 990.951,-563.362 990.951,-563.362 989.867,-568.243 995.344,-564.337 988.783,-573.124 988.783,-573.124"/>
</g>
<!-- taskmanServer&#45;&gt;taskmanServerImpl -->
<g id="edge17" class="edge"><title>taskmanServer&#45;&gt;taskmanServerImpl</title>
<path fill="none" stroke="#cc0000" d="M882.353,-433.017C882.04,-445.317 882.44,-458.487 883.554,-468.566"/>
<polygon fill="#cc0000" stroke="#cc0000" points="885.852,-433.116 882.784,-422.976 878.858,-432.816 885.852,-433.116"/>
</g>
<!-- taskmanServer&#45;&gt;taskmanServerImpl -->
<g id="edge36" class="edge"><title>taskmanServer&#45;&gt;taskmanServerImpl</title>
<path fill="none" stroke="#aaaaaa" stroke-dasharray="5,2" d="M895.216,-422.976C895.907,-434.134 895.927,-447.153 895.276,-458.419"/>
<polygon fill="#aaaaaa" stroke="#aaaaaa" points="894.446,-468.566 890.777,-458.232 894.854,-463.582 895.262,-458.599 895.262,-458.599 895.262,-458.599 894.854,-463.582 899.747,-458.966 894.446,-468.566 894.446,-468.566"/>
</g>
<!-- taskmanServer&#45;&gt;taskmanServerLogic -->
<g id="edge35" class="edge"><title>taskmanServer&#45;&gt;taskmanServerLogic</title>
<path fill="none" stroke="#aaaaaa" stroke-dasharray="5,2" d="M838.976,-415.119C822.555,-423.672 805.975,-435.607 796,-451.701 775.056,-485.489 776.93,-533.202 780.925,-562.919"/>
<polygon fill="#aaaaaa" stroke="#aaaaaa" points="782.454,-572.994 776.504,-563.782 781.704,-568.05 780.953,-563.107 780.953,-563.107 780.953,-563.107 781.704,-568.05 785.402,-562.431 782.454,-572.994 782.454,-572.994"/>
</g>
<!-- taskmanApiImpl -->
<g id="node11" class="node"><title>taskmanApiImpl</title>
<ellipse fill="#cceeff" stroke="black" cx="1196" cy="-486.571" rx="73.387" ry="18"/>
<text text-anchor="middle" x="1196" y="-482.871" font-family="Times,serif" font-size="14.00">taskman&#45;api&#45;impl</text>
</g>
<!-- taskmanApi&#45;&gt;taskmanApiImpl -->
<g id="edge12" class="edge"><title>taskmanApi&#45;&gt;taskmanApiImpl</title>
<path fill="none" stroke="#cc0000" d="M1169.09,-432.648C1173.51,-445.053 1179.01,-458.386 1184.04,-468.566"/>
<polygon fill="#cc0000" stroke="#cc0000" points="1172.33,-431.319 1165.8,-422.976 1165.7,-433.57 1172.33,-431.319"/>
</g>
<!-- taskmanApi&#45;&gt;taskmanApiImpl -->
<g id="edge34" class="edge"><title>taskmanApi&#45;&gt;taskmanApiImpl</title>
<path fill="none" stroke="#aaaaaa" stroke-dasharray="5,2" d="M1177.81,-422.023C1182.97,-433.516 1188.22,-447.135 1192,-458.811"/>
<polygon fill="#aaaaaa" stroke="#aaaaaa" points="1194.91,-468.471 1187.72,-460.19 1193.47,-463.682 1192.03,-458.894 1192.03,-458.894 1192.03,-458.894 1193.47,-463.682 1196.33,-457.598 1194.91,-468.471 1194.91,-468.471"/>
</g>
<!-- taskmanApi&#45;&gt;taskmanApiLogic -->
<g id="edge33" class="edge"><title>taskmanApi&#45;&gt;taskmanApiLogic</title>
<path fill="none" stroke="#aaaaaa" stroke-dasharray="5,2" d="M1135.21,-419.925C1126.75,-428.888 1118.45,-439.852 1114,-451.701 1104.35,-477.388 1109.86,-486.314 1114,-513.441 1123.67,-576.84 1130.76,-592.662 1157,-651.181 1158.36,-654.22 1159.93,-657.323 1161.59,-660.364"/>
<polygon fill="#aaaaaa" stroke="#aaaaaa" points="1166.69,-669.174 1157.78,-662.774 1164.18,-664.847 1161.68,-660.52 1161.68,-660.52 1161.68,-660.52 1164.18,-664.847 1165.57,-658.265 1166.69,-669.174 1166.69,-669.174"/>
</g>
<!-- taskmanApiImpl&#45;&gt;baseDb -->
<g id="edge8" class="edge"><title>taskmanApiImpl&#45;&gt;baseDb</title>
<path fill="none" stroke="#cc0000" d="M1223.55,-510.698C1256.56,-538.341 1313.59,-585.916 1363,-626.181 1382,-641.665 1403.91,-659.15 1419.12,-671.233"/>
<polygon fill="#cc0000" stroke="#cc0000" points="1225.61,-507.856 1215.7,-504.116 1221.12,-513.222 1225.61,-507.856"/>
</g>
<!-- taskmanApiImpl&#45;&gt;baseTest -->
<g id="edge11" class="edge"><title>taskmanApiImpl&#45;&gt;baseTest</title>
<path fill="none" stroke="#111111" stroke-dasharray="5,2" d="M1250.67,-504.029C1272.66,-511.385 1297.97,-520.803 1320,-531.441 1346.53,-544.25 1374.93,-562.776 1393.48,-575.61"/>
<polygon fill="#111111" stroke="#111111" points="1251.74,-500.698 1241.15,-500.902 1249.56,-507.348 1251.74,-500.698"/>
<text text-anchor="middle" x="1356.5" y="-535.241" font-family="Times,serif" font-size="14.00">test</text>
</g>
<!-- taskmanApiImpl&#45;&gt;taskmanDb -->
<g id="edge10" class="edge"><title>taskmanApiImpl&#45;&gt;taskmanDb</title>
<path fill="none" stroke="#111111" stroke-dasharray="5,2" d="M1155.26,-507.316C1115.04,-526.807 1054.3,-556.241 1017,-574.316"/>
<polygon fill="#111111" stroke="#111111" points="1156.79,-510.463 1164.26,-502.952 1153.74,-504.163 1156.79,-510.463"/>
<text text-anchor="middle" x="1112.5" y="-535.241" font-family="Times,serif" font-size="14.00">test</text>
</g>
<!-- taskmanApiImpl&#45;&gt;taskmanApiLogic -->
<g id="edge7" class="edge"><title>taskmanApiImpl&#45;&gt;taskmanApiLogic</title>
<path fill="none" stroke="#cc0000" d="M1200.44,-514.718C1204.24,-542.85 1208.07,-587.969 1201,-626.181 1198.22,-641.209 1191.83,-657.336 1186.49,-669.081"/>
<polygon fill="#cc0000" stroke="#cc0000" points="1203.91,-514.214 1199.01,-504.818 1196.98,-515.216 1203.91,-514.214"/>
</g>
<!-- taskmanApiImpl&#45;&gt;taskmanApiLogic -->
<g id="edge9" class="edge"><title>taskmanApiImpl&#45;&gt;taskmanApiLogic</title>
<path fill="none" stroke="#111111" stroke-dasharray="5,2" d="M1180.02,-513.286C1171.99,-527.734 1163.11,-546.436 1159,-564.441 1152.9,-591.193 1154.81,-599.063 1159,-626.181 1161.3,-641.082 1166.64,-657.354 1171.08,-669.187"/>
<polygon fill="#111111" stroke="#111111" points="1183.15,-514.866 1185.12,-504.455 1177.09,-511.366 1183.15,-514.866"/>
<text text-anchor="middle" x="1178" y="-587.611" font-family="Times,serif" font-size="14.00">test&#45;lib</text>
</g>
<!-- taskmanApiLogic&#45;&gt;baseUtil -->
<g id="edge6" class="edge"><title>taskmanApiLogic&#45;&gt;baseUtil</title>
<path fill="none" stroke="#cc0000" d="M1227.6,-705.943C1269.16,-720.83 1327.19,-741.613 1362.32,-754.192"/>
<polygon fill="#cc0000" stroke="#cc0000" points="1228.53,-702.56 1217.94,-702.483 1226.17,-709.15 1228.53,-702.56"/>
</g>
<!-- webapp -->
<g id="node13" class="node"><title>webapp</title>
<ellipse fill="#ffff80" stroke="black" cx="514" cy="-214.35" rx="55.3091" ry="26.7407"/>
<text text-anchor="middle" x="514" y="-218.15" font-family="Times,serif" font-size="14.00">[aggregate]</text>
<text text-anchor="middle" x="514" y="-203.15" font-family="Times,serif" font-size="14.00">webapp</text>
</g>
<!-- webappBack -->
<g id="node14" class="node"><title>webappBack</title>
<ellipse fill="#99ccee" stroke="black" cx="595" cy="-305.09" rx="62.2891" ry="18"/>
<text text-anchor="middle" x="595" y="-301.39" font-family="Times,serif" font-size="14.00">webapp&#45;server</text>
</g>
<!-- webapp&#45;&gt;webappBack -->
<g id="edge41" class="edge"><title>webapp&#45;&gt;webappBack</title>
<path fill="none" stroke="#aaaaaa" stroke-dasharray="5,2" d="M535.707,-239.131C547.271,-251.801 561.463,-267.348 573.062,-280.056"/>
<polygon fill="#aaaaaa" stroke="#aaaaaa" points="579.903,-287.55 569.837,-283.198 576.532,-283.857 573.161,-280.164 573.161,-280.164 573.161,-280.164 576.532,-283.857 576.485,-277.131 579.903,-287.55 579.903,-287.55"/>
</g>
<!-- webappClientWw -->
<g id="node16" class="node"><title>webappClientWw</title>
<ellipse fill="#99ccee" stroke="black" cx="574" cy="-395.831" rx="82.9636" ry="26.7407"/>
<text text-anchor="middle" x="574" y="-399.631" font-family="Times,serif" font-size="14.00">webapp&#45;client&#45;ww</text>
<text text-anchor="middle" x="574" y="-384.631" font-family="Times,serif" font-size="14.00">(JS)</text>
</g>
<!-- webapp&#45;&gt;webappClientWw -->
<g id="edge42" class="edge"><title>webapp&#45;&gt;webappClientWw</title>
<path fill="none" stroke="#aaaaaa" stroke-dasharray="5,2" d="M511.331,-241.339C509.723,-267.394 510.173,-308.107 524,-339.96 527.504,-348.033 532.696,-355.702 538.426,-362.61"/>
<polygon fill="#aaaaaa" stroke="#aaaaaa" points="545.331,-370.347 535.315,-365.883 542.002,-366.617 538.673,-362.886 538.673,-362.886 538.673,-362.886 542.002,-366.617 542.03,-359.89 545.331,-370.347 545.331,-370.347"/>
</g>
<!-- webappFront -->
<g id="node17" class="node"><title>webappFront</title>
<ellipse fill="#99ccee" stroke="black" cx="408" cy="-395.831" rx="65.5227" ry="26.7407"/>
<text text-anchor="middle" x="408" y="-399.631" font-family="Times,serif" font-size="14.00">webapp&#45;client</text>
<text text-anchor="middle" x="408" y="-384.631" font-family="Times,serif" font-size="14.00">(JS)</text>
</g>
<!-- webapp&#45;&gt;webappFront -->
<g id="edge40" class="edge"><title>webapp&#45;&gt;webappFront</title>
<path fill="none" stroke="#aaaaaa" stroke-dasharray="5,2" d="M499.261,-240.306C480.775,-271.607 448.992,-325.422 428.238,-360.564"/>
<polygon fill="#aaaaaa" stroke="#aaaaaa" points="422.955,-369.508 424.166,-358.609 425.498,-365.203 428.041,-360.897 428.041,-360.897 428.041,-360.897 425.498,-365.203 431.915,-363.186 422.955,-369.508 422.955,-369.508"/>
</g>
<!-- webappBack&#45;&gt;baseDb -->
<g id="edge18" class="edge"><title>webappBack:e&#45;&gt;baseDb</title>
<path fill="none" stroke="#cc0000" d="M660.612,-315.048C660.463,-324.736 659.243,-338.244 661,-339.96 667.163,-345.981 1272.42,-360.166 1281,-360.96 1380.82,-370.2 1504,-294.583 1504,-394.831 1504,-394.831 1504,-394.831 1504,-592.311 1504,-620.913 1494.94,-628.135 1478,-651.181 1472.43,-658.764 1464.94,-665.861 1457.96,-671.655"/>
<polygon fill="#cc0000" stroke="#cc0000" points="664.053,-314.402 659,-305.09 657.143,-315.521 664.053,-314.402"/>
</g>
<!-- webappBack&#45;&gt;taskmanApi -->
<g id="edge19" class="edge"><title>webappBack&#45;&gt;taskmanApi</title>
<path fill="none" stroke="#cc0000" d="M628.283,-326.641C638.429,-331.936 649.855,-336.978 661,-339.96 753.418,-364.691 998.233,-337.574 1091,-360.96 1102.92,-363.965 1115.23,-369.043 1126.19,-374.366"/>
<polygon fill="#cc0000" stroke="#cc0000" points="629.821,-323.493 619.369,-321.758 626.458,-329.632 629.821,-323.493"/>
</g>
<!-- webappBack&#45;&gt;webappClientWw -->
<g id="edge26" class="edge"><title>webappBack&#45;&gt;webappClientWw</title>
<path fill="none" stroke="#cc0000" stroke-dasharray="5,2" d="M588.616,-333.068C585.913,-344.489 582.778,-357.738 580.106,-369.029"/>
<polygon fill="#cc0000" stroke="#cc0000" points="592.054,-333.738 590.951,-323.2 585.242,-332.126 592.054,-333.738"/>
</g>
<!-- webappBack&#45;&gt;webappFront -->
<g id="edge25" class="edge"><title>webappBack&#45;&gt;webappFront</title>
<path fill="none" stroke="#cc0000" stroke-dasharray="5,2" d="M554.91,-325.115C523.93,-339.817 481.179,-360.104 449.781,-375.004"/>
<polygon fill="#cc0000" stroke="#cc0000" points="556.587,-328.193 564.121,-320.744 553.586,-321.869 556.587,-328.193"/>
</g>
<!-- webappShared -->
<g id="node18" class="node"><title>webappShared</title>
<ellipse fill="#99ccee" stroke="black" cx="542" cy="-591.311" rx="61.5366" ry="26.7407"/>
<text text-anchor="middle" x="542" y="-595.111" font-family="Times,serif" font-size="14.00">webapp&#45;base</text>
<text text-anchor="middle" x="542" y="-580.111" font-family="Times,serif" font-size="14.00">(Scala &amp; JS)</text>
</g>
<!-- webappBack&#45;&gt;webappShared -->
<g id="edge24" class="edge"><title>webappBack&#45;&gt;webappShared</title>
<path fill="none" stroke="#cc0000" d="M634.033,-326.61C646.613,-335.374 659.082,-346.872 666,-360.96 696.054,-422.169 685.596,-455.904 649,-513.441 633.041,-538.531 605.698,-557.961 582.648,-571.01"/>
<polygon fill="#cc0000" stroke="#cc0000" points="635.665,-323.496 625.373,-320.981 631.85,-329.365 635.665,-323.496"/>
</g>
<!-- webappClientWwApi -->
<g id="node15" class="node"><title>webappClientWwApi</title>
<ellipse fill="#99ccee" stroke="black" cx="542" cy="-486.571" rx="97.6615" ry="26.7407"/>
<text text-anchor="middle" x="542" y="-490.371" font-family="Times,serif" font-size="14.00">webapp&#45;client&#45;ww&#45;api</text>
<text text-anchor="middle" x="542" y="-475.371" font-family="Times,serif" font-size="14.00">(JS)</text>
</g>
<!-- webappClientWwApi&#45;&gt;webappShared -->
<g id="edge23" class="edge"><title>webappClientWwApi&#45;&gt;webappShared</title>
<path fill="none" stroke="#cc0000" d="M542,-523.831C542,-537.217 542,-552.105 542,-564.393"/>
<polygon fill="#cc0000" stroke="#cc0000" points="545.5,-523.496 542,-513.496 538.5,-523.496 545.5,-523.496"/>
</g>
<!-- webappClientWw&#45;&gt;webappClientWwApi -->
<g id="edge22" class="edge"><title>webappClientWw&#45;&gt;webappClientWwApi</title>
<path fill="none" stroke="#cc0000" d="M561.127,-432.53C557.861,-441.586 554.415,-451.143 551.361,-459.613"/>
<polygon fill="#cc0000" stroke="#cc0000" points="564.472,-433.57 564.572,-422.976 557.887,-431.195 564.472,-433.57"/>
</g>
<!-- webappFront&#45;&gt;webappClientWwApi -->
<g id="edge21" class="edge"><title>webappFront&#45;&gt;webappClientWwApi</title>
<path fill="none" stroke="#cc0000" d="M449.986,-424.635C467.846,-436.463 488.475,-450.125 505.669,-461.511"/>
<polygon fill="#cc0000" stroke="#cc0000" points="451.738,-421.598 441.468,-418.994 447.873,-427.434 451.738,-421.598"/>
</g>
<!-- webappFront&#45;&gt;webappShared -->
<g id="edge20" class="edge"><title>webappFront&#45;&gt;webappShared</title>
<path fill="none" stroke="#cc0000" d="M409.772,-432.972C412.473,-457.438 419.072,-489.532 435,-513.441 451.486,-538.187 478.821,-557.623 501.735,-570.761"/>
<polygon fill="#cc0000" stroke="#cc0000" points="413.256,-432.63 408.838,-423 406.286,-433.283 413.256,-432.63"/>
</g>
<!-- webappShared&#45;&gt;baseRaw -->
<g id="edge27" class="edge"><title>webappShared&#45;&gt;baseRaw</title>
<path fill="none" stroke="#cc0000" d="M603.138,-608.616C629.393,-615.04 660.525,-621.892 689,-626.181 949.862,-665.468 1026.27,-600.568 1281,-669.181 1285.83,-670.483 1440.35,-743.935 1443,-748.181 1457.31,-771.087 1444.65,-801.369 1431.86,-822.357"/>
<polygon fill="#cc0000" stroke="#cc0000" points="603.879,-605.194 593.331,-606.182 602.193,-611.988 603.879,-605.194"/>
</g>
<!-- taskman -->
<g id="node19" class="node"><title>taskman</title>
<ellipse fill="#ffff80" stroke="black" cx="889" cy="-305.09" rx="55.3091" ry="26.7407"/>
<text text-anchor="middle" x="889" y="-308.89" font-family="Times,serif" font-size="14.00">[aggregate]</text>
<text text-anchor="middle" x="889" y="-293.89" font-family="Times,serif" font-size="14.00">taskman</text>
</g>
<!-- taskman&#45;&gt;taskmanServer -->
<g id="edge39" class="edge"><title>taskman&#45;&gt;taskmanServer</title>
<path fill="none" stroke="#aaaaaa" stroke-dasharray="5,2" d="M889,-332.235C889,-340.54 889,-349.876 889,-358.752"/>
<polygon fill="#aaaaaa" stroke="#aaaaaa" points="889,-368.872 884.5,-358.872 889,-363.872 889,-358.872 889,-358.872 889,-358.872 889,-363.872 893.5,-358.872 889,-368.872 889,-368.872"/>
</g>
<!-- taskman&#45;&gt;taskmanApi -->
<g id="edge38" class="edge"><title>taskman&#45;&gt;taskmanApi</title>
<path fill="none" stroke="#aaaaaa" stroke-dasharray="5,2" d="M938.761,-316.966C980.132,-326.632 1040.23,-342.131 1091,-360.96 1098.91,-363.896 1107.15,-367.389 1115.08,-370.998"/>
<polygon fill="#aaaaaa" stroke="#aaaaaa" points="1124.22,-375.263 1113.26,-375.113 1119.69,-373.149 1115.16,-371.035 1115.16,-371.035 1115.16,-371.035 1119.69,-373.149 1117.06,-366.957 1124.22,-375.263 1124.22,-375.263"/>
</g>
<!-- benchmark -->
<g id="node20" class="node"><title>benchmark</title>
<ellipse fill="#ffffdd" stroke="black" cx="239" cy="-117.61" rx="55.3091" ry="26.7407"/>
<text text-anchor="middle" x="239" y="-121.41" font-family="Times,serif" font-size="14.00">[aggregate]</text>
<text text-anchor="middle" x="239" y="-106.41" font-family="Times,serif" font-size="14.00">benchmark</text>
</g>
<!-- benchmarkJvm -->
<g id="node21" class="node"><title>benchmarkJvm</title>
<ellipse fill="#ffcccc" stroke="black" cx="239" cy="-214.35" rx="70.6878" ry="18"/>
<text text-anchor="middle" x="239" y="-210.65" font-family="Times,serif" font-size="14.00">benchmark JVM</text>
</g>
<!-- benchmark&#45;&gt;benchmarkJvm -->
<g id="edge46" class="edge"><title>benchmark&#45;&gt;benchmarkJvm</title>
<path fill="none" stroke="#aaaaaa" stroke-dasharray="5,2" d="M239,-144.498C239,-157.339 239,-172.851 239,-185.899"/>
<polygon fill="#aaaaaa" stroke="#aaaaaa" points="239,-196.166 234.5,-186.166 239,-191.166 239,-186.166 239,-186.166 239,-186.166 239,-191.166 243.5,-186.166 239,-196.166 239,-196.166"/>
</g>
<!-- benchmarkJs -->
<g id="node22" class="node"><title>benchmarkJs</title>
<ellipse fill="#ffcccc" stroke="black" cx="89" cy="-214.35" rx="61.1893" ry="18"/>
<text text-anchor="middle" x="89" y="-210.65" font-family="Times,serif" font-size="14.00">benchmark JS</text>
</g>
<!-- benchmark&#45;&gt;benchmarkJs -->
<g id="edge47" class="edge"><title>benchmark&#45;&gt;benchmarkJs</title>
<path fill="none" stroke="#aaaaaa" stroke-dasharray="5,2" d="M206.082,-139.401C181.35,-155.022 147.591,-176.344 122.677,-192.08"/>
<polygon fill="#aaaaaa" stroke="#aaaaaa" points="113.931,-197.604 119.983,-188.459 118.159,-194.934 122.386,-192.264 122.386,-192.264 122.386,-192.264 118.159,-194.934 124.789,-196.068 113.931,-197.604 113.931,-197.604"/>
</g>
<!-- benchmarkJvm&#45;&gt;webappBack -->
<g id="edge30" class="edge"><title>benchmarkJvm&#45;&gt;webappBack</title>
<path fill="none" stroke="#cc0000" d="M293.645,-231.307C305.599,-234.68 318.204,-238.146 330,-241.22 405.497,-260.897 493.76,-281.327 546.97,-293.365"/>
<polygon fill="#cc0000" stroke="#cc0000" points="294.366,-227.874 283.79,-228.507 292.453,-234.607 294.366,-227.874"/>
</g>
<!-- benchmarkShared -->
<g id="node23" class="node"><title>benchmarkShared</title>
<ellipse fill="#ffcccc" stroke="black" cx="206" cy="-305.09" rx="54.3945" ry="26.7407"/>
<text text-anchor="middle" x="206" y="-308.89" font-family="Times,serif" font-size="14.00">benchmark</text>
<text text-anchor="middle" x="206" y="-293.89" font-family="Times,serif" font-size="14.00">base</text>
</g>
<!-- benchmarkJvm&#45;&gt;benchmarkShared -->
<g id="edge28" class="edge"><title>benchmarkJvm&#45;&gt;benchmarkShared</title>
<path fill="none" stroke="#cc0000" d="M229.098,-241.978C224.821,-253.479 219.837,-266.883 215.595,-278.289"/>
<polygon fill="#cc0000" stroke="#cc0000" points="232.432,-243.053 232.637,-232.46 225.871,-240.613 232.432,-243.053"/>
</g>
<!-- benchmarkJs&#45;&gt;webappFront -->
<g id="edge31" class="edge"><title>benchmarkJs&#45;&gt;webappFront</title>
<path fill="none" stroke="#cc0000" d="M93.2841,-242.585C99.2736,-271.256 112.999,-315.549 143,-339.96 173.339,-364.646 276.311,-380.432 344.602,-388.452"/>
<polygon fill="#cc0000" stroke="#cc0000" points="96.6601,-241.604 91.3496,-232.436 89.7839,-242.914 96.6601,-241.604"/>
</g>
<!-- benchmarkJs&#45;&gt;benchmarkShared -->
<g id="edge29" class="edge"><title>benchmarkJs&#45;&gt;benchmarkShared</title>
<path fill="none" stroke="#cc0000" d="M118.553,-237.765C136.473,-251.357 159.238,-268.623 177.048,-282.131"/>
<polygon fill="#cc0000" stroke="#cc0000" points="120.27,-234.675 110.188,-231.42 116.04,-240.252 120.27,-234.675"/>
</g>
<!-- utils -->
<g id="node24" class="node"><title>utils</title>
<ellipse fill="#ffffdd" stroke="black" cx="97" cy="-117.61" rx="27" ry="18"/>
<text text-anchor="middle" x="97" y="-113.91" font-family="Times,serif" font-size="14.00">utils</text>
</g>
<!-- utils&#45;&gt;webappShared -->
<g id="edge32" class="edge"><title>utils&#45;&gt;webappShared</title>
<path fill="none" stroke="#cc0000" d="M65.7872,-132.98C37.4295,-148.432 0,-175.916 0,-213.35 0,-213.35 0,-213.35 0,-487.571 0,-536.175 340.809,-572.299 481.926,-585.173"/>
<polygon fill="#cc0000" stroke="#cc0000" points="67.7256,-135.918 74.9892,-128.205 64.5011,-129.705 67.7256,-135.918"/>
</g>
<!-- root -->
<g id="node25" class="node"><title>root</title>
<ellipse fill="#cccccc" stroke="black" cx="514" cy="-26.8701" rx="55.3091" ry="26.7407"/>
<text text-anchor="middle" x="514" y="-30.6701" font-family="Times,serif" font-size="14.00">[aggregate]</text>
<text text-anchor="middle" x="514" y="-15.6701" font-family="Times,serif" font-size="14.00">root</text>
</g>
<!-- root&#45;&gt;base -->
<g id="edge48" class="edge"><title>root&#45;&gt;base</title>
<path fill="none" stroke="#aaaaaa" stroke-dasharray="5,2" d="M569.377,-27.8653C757.145,-28.572 1358,-37.049 1358,-116.61 1358,-116.61 1358,-116.61 1358,-396.831 1358,-417.712 1368.75,-438.122 1380.37,-454.093"/>
<polygon fill="#aaaaaa" stroke="#aaaaaa" points="1386.48,-462.019 1376.81,-456.845 1383.43,-458.059 1380.38,-454.099 1380.38,-454.099 1380.38,-454.099 1383.43,-458.059 1383.94,-451.352 1386.48,-462.019 1386.48,-462.019"/>
</g>
<!-- root&#45;&gt;webapp -->
<g id="edge49" class="edge"><title>root&#45;&gt;webapp</title>
<path fill="none" stroke="#aaaaaa" stroke-dasharray="5,2" d="M514,-54.0515C514,-86.2255 514,-140.989 514,-177.17"/>
<polygon fill="#aaaaaa" stroke="#aaaaaa" points="514,-187.302 509.5,-177.302 514,-182.302 514,-177.302 514,-177.302 514,-177.302 514,-182.302 518.5,-177.302 514,-187.302 514,-187.302"/>
</g>
<!-- root&#45;&gt;taskman -->
<g id="edge50" class="edge"><title>root&#45;&gt;taskman</title>
<path fill="none" stroke="#aaaaaa" stroke-dasharray="5,2" d="M543.739,-49.7755C611.378,-99.5978 776.644,-221.331 851.3,-276.321"/>
<polygon fill="#aaaaaa" stroke="#aaaaaa" points="859.517,-282.374 848.797,-280.066 855.491,-279.408 851.466,-276.443 851.466,-276.443 851.466,-276.443 855.491,-279.408 854.135,-272.82 859.517,-282.374 859.517,-282.374"/>
</g>
<!-- root&#45;&gt;benchmark -->
<g id="edge51" class="edge"><title>root&#45;&gt;benchmark</title>
<path fill="none" stroke="#aaaaaa" stroke-dasharray="5,2" d="M468.897,-42.4243C420.942,-57.8991 345.078,-82.3796 293.735,-98.9477"/>
<polygon fill="#aaaaaa" stroke="#aaaaaa" points="284.127,-102.048 292.262,-94.6944 288.886,-100.512 293.644,-98.9769 293.644,-98.9769 293.644,-98.9769 288.886,-100.512 295.026,-103.259 284.127,-102.048 284.127,-102.048"/>
</g>
<!-- root&#45;&gt;utils -->
<g id="edge52" class="edge"><title>root&#45;&gt;utils</title>
<path fill="none" stroke="#aaaaaa" stroke-dasharray="5,2" d="M459.946,-32.4304C392.264,-39.0891 273.265,-53.9439 175,-82.7401 158.654,-87.5302 141.199,-94.8822 126.954,-101.514"/>
<polygon fill="#aaaaaa" stroke="#aaaaaa" points="117.659,-105.95 124.746,-97.5817 122.171,-103.796 126.684,-101.643 126.684,-101.643 126.684,-101.643 122.171,-103.796 128.622,-105.704 117.659,-105.95 117.659,-105.95"/>
</g>
</g>
</svg>
