<?xml version="1.0" encoding="UTF-8" standalone="no"?>
<!DOCTYPE svg PUBLIC "-//W3C//DTD SVG 1.1//EN"
 "http://www.w3.org/Graphics/SVG/1.1/DTD/svg11.dtd">
<!-- Generated by graphviz version 2.38.0 (20140413.2041)
 -->
<!-- Title: G Pages: 1 -->
<svg width="2128pt" height="1392pt"
 viewBox="0.00 0.00 2128.00 1392.10" xmlns="http://www.w3.org/2000/svg" xmlns:xlink="http://www.w3.org/1999/xlink">
<g id="graph0" class="graph" transform="scale(1 1) rotate(0) translate(4 1388.1)">
<title>G</title>
<polygon fill="white" stroke="none" points="-4,4 -4,-1388.1 2124,-1388.1 2124,4 -4,4"/>
<g id="clust1" class="cluster"><title>cluster_base</title>
<polygon fill="#f4fff4" stroke="black" points="20,-909.401 20,-1376.1 244,-1376.1 244,-909.401 20,-909.401"/>
</g>
<g id="clust2" class="cluster"><title>cluster_t</title>
<polygon fill="#eeeeff" stroke="black" points="252,-171.48 252,-1091.88 1694,-1091.88 1694,-171.48 252,-171.48"/>
</g>
<g id="clust3" class="cluster"><title>cluster_ts</title>
<polygon fill="white" stroke="black" points="1190,-699.921 1190,-970.271 1686,-970.271 1686,-699.921 1190,-699.921"/>
</g>
<g id="clust4" class="cluster"><title>cluster_ta</title>
<polygon fill="white" stroke="black" points="260,-804.661 260,-1075.01 478,-1075.01 478,-804.661 260,-804.661"/>
</g>
<g id="clust5" class="cluster"><title>cluster_w</title>
<polygon fill="white" stroke="black" points="486,-179.48 486,-1083.88 1172,-1083.88 1172,-179.48 486,-179.48"/>
</g>
<g id="clust6" class="cluster"><title>cluster_supp</title>
<polygon fill="#fff2f2" stroke="black" points="1702,-82.7401 1702,-339.96 2062,-339.96 2062,-82.7401 1702,-82.7401"/>
</g>
<!-- base -->
<g id="node1" class="node"><title>base</title>
<ellipse fill="#cccccc" stroke="black" cx="99" cy="-944.271" rx="70.922" ry="26.7407"/>
<text text-anchor="middle" x="99" y="-948.071" font-family="Times,serif" font-size="14.00">[aggregate]</text>
<text text-anchor="middle" x="99" y="-933.071" font-family="Times,serif" font-size="14.00">base</text>
</g>
<!-- baseMacro -->
<g id="node2" class="node"><title>baseMacro</title>
<ellipse fill="#bbffbb" stroke="black" cx="107" cy="-1341.23" rx="73.5782" ry="26.7407"/>
<text text-anchor="middle" x="107" y="-1345.03" font-family="Times,serif" font-size="14.00">base&#45;macro</text>
<text text-anchor="middle" x="107" y="-1330.03" font-family="Times,serif" font-size="14.00">(Scala &amp; JS)</text>
</g>
<!-- base&#45;&gt;baseMacro -->
<g id="edge66" class="edge"><title>base&#45;&gt;baseMacro</title>
<path fill="none" stroke="#aaaaaa" stroke-dasharray="5,2" d="M70.5283,-969.213C51.1484,-988.309 29,-1016.93 29,-1048.01 29,-1048.01 29,-1048.01 29,-1251.49 29,-1275.33 45.0713,-1295.81 62.6237,-1311.07"/>
<polygon fill="#aaaaaa" stroke="#aaaaaa" points="70.7402,-1317.71 60.1503,-1314.86 66.8697,-1314.54 62.9991,-1311.38 62.9991,-1311.38 62.9991,-1311.38 66.8697,-1314.54 65.8479,-1307.89 70.7402,-1317.71 70.7402,-1317.71"/>
</g>
<!-- baseUtil -->
<g id="node3" class="node"><title>baseUtil</title>
<ellipse fill="#bbffbb" stroke="black" cx="122" cy="-1250.49" rx="73.5782" ry="26.7407"/>
<text text-anchor="middle" x="122" y="-1254.29" font-family="Times,serif" font-size="14.00">base&#45;util</text>
<text text-anchor="middle" x="122" y="-1239.29" font-family="Times,serif" font-size="14.00">(Scala &amp; JS)</text>
</g>
<!-- base&#45;&gt;baseUtil -->
<g id="edge63" class="edge"><title>base&#45;&gt;baseUtil</title>
<path fill="none" stroke="#aaaaaa" stroke-dasharray="5,2" d="M84.7081,-970.728C81.8237,-976.638 79.0514,-982.999 77,-989.141 49.0805,-1072.73 25.231,-1105.21 59,-1186.62 64.0455,-1198.78 72.713,-1209.82 82.0321,-1219.12"/>
<polygon fill="#aaaaaa" stroke="#aaaaaa" points="89.5887,-1226.2 79.215,-1222.65 85.9404,-1222.79 82.2922,-1219.37 82.2922,-1219.37 82.2922,-1219.37 85.9404,-1222.79 85.3694,-1216.08 89.5887,-1226.2 89.5887,-1226.2"/>
</g>
<!-- baseDb -->
<g id="node4" class="node"><title>baseDb</title>
<ellipse fill="#bbffbb" stroke="black" cx="119" cy="-1159.75" rx="50.8235" ry="26.7407"/>
<text text-anchor="middle" x="119" y="-1163.55" font-family="Times,serif" font-size="14.00">base&#45;db</text>
<text text-anchor="middle" x="119" y="-1148.55" font-family="Times,serif" font-size="14.00">(JVM)</text>
</g>
<!-- base&#45;&gt;baseDb -->
<g id="edge64" class="edge"><title>base&#45;&gt;baseDb</title>
<path fill="none" stroke="#aaaaaa" stroke-dasharray="5,2" d="M89.2867,-971.116C79.5679,-1000.74 67.5762,-1050.53 79,-1091.88 82.2598,-1103.68 88.2131,-1115.49 94.5483,-1125.84"/>
<polygon fill="#aaaaaa" stroke="#aaaaaa" points="100.156,-1134.51 90.9474,-1128.56 97.4411,-1130.31 94.7264,-1126.11 94.7264,-1126.11 94.7264,-1126.11 97.4411,-1130.31 98.5054,-1123.67 100.156,-1134.51 100.156,-1134.51"/>
</g>
<!-- baseTest -->
<g id="node5" class="node"><title>baseTest</title>
<ellipse fill="white" stroke="darkgreen" cx="162" cy="-1049.01" rx="73.5782" ry="26.7407"/>
<text text-anchor="middle" x="162" y="-1052.81" font-family="Times,serif" font-size="14.00">base&#45;test</text>
<text text-anchor="middle" x="162" y="-1037.81" font-family="Times,serif" font-size="14.00">(Scala &amp; JS)</text>
</g>
<!-- base&#45;&gt;baseTest -->
<g id="edge65" class="edge"><title>base&#45;&gt;baseTest</title>
<path fill="none" stroke="#aaaaaa" stroke-dasharray="5,2" d="M114.573,-970.668C122.524,-983.634 132.312,-999.596 140.927,-1013.65"/>
<polygon fill="#aaaaaa" stroke="#aaaaaa" points="146.388,-1022.55 137.324,-1016.38 143.774,-1018.29 141.16,-1014.03 141.16,-1014.03 141.16,-1014.03 143.774,-1018.29 144.996,-1011.67 146.388,-1022.55 146.388,-1022.55"/>
</g>
<!-- baseUtil&#45;&gt;baseMacro -->
<g id="edge1" class="edge"><title>baseUtil&#45;&gt;baseMacro</title>
<path fill="none" stroke="#cc0000" d="M117.581,-1277.64C116.177,-1285.94 114.599,-1295.28 113.098,-1304.15"/>
<polygon fill="#cc0000" stroke="#cc0000" points="109.603,-1303.83 111.388,-1314.27 116.506,-1305 109.603,-1303.83"/>
</g>
<!-- baseDb&#45;&gt;baseUtil -->
<g id="edge2" class="edge"><title>baseDb&#45;&gt;baseUtil</title>
<path fill="none" stroke="#cc0000" d="M119.884,-1186.9C120.165,-1195.2 120.48,-1204.54 120.78,-1213.41"/>
<polygon fill="#cc0000" stroke="#cc0000" points="117.286,-1213.66 121.122,-1223.53 124.282,-1213.42 117.286,-1213.66"/>
</g>
<!-- baseTest&#45;&gt;baseUtil -->
<g id="edge3" class="edge"><title>baseTest&#45;&gt;baseUtil</title>
<path fill="none" stroke="#111111" d="M175.654,-1075.47C179.075,-1083.1 182.263,-1091.64 184,-1099.88 188.811,-1122.71 194.936,-1149.24 179,-1186.62 174.079,-1198.16 166.125,-1208.98 157.7,-1218.28"/>
<polygon fill="#111111" stroke="#111111" points="154.963,-1216.08 150.569,-1225.72 160.016,-1220.93 154.963,-1216.08"/>
</g>
<!-- baseTest&#45;&gt;baseDb -->
<g id="edge4" class="edge"><title>baseTest&#45;&gt;baseDb</title>
<path fill="none" stroke="#111111" stroke-dasharray="5,2" d="M135.992,-1074.2C129.55,-1081.75 123.495,-1090.55 120,-1099.88 117.337,-1106.99 116.135,-1114.93 115.77,-1122.61"/>
<polygon fill="#111111" stroke="#111111" points="112.269,-1122.83 115.733,-1132.84 119.269,-1122.85 112.269,-1122.83"/>
<text text-anchor="middle" x="152" y="-1103.68" font-family="Times,serif" font-size="14.00">provided</text>
</g>
<!-- taskmanDb -->
<g id="node6" class="node"><title>taskmanDb</title>
<ellipse fill="#aaaaff" stroke="black" cx="1556" cy="-944.271" rx="122.379" ry="18"/>
<text text-anchor="middle" x="1556" y="-940.571" font-family="Times,serif" font-size="14.00">taskman&#45;server&#45;schema</text>
</g>
<!-- taskmanDb&#45;&gt;baseDb -->
<g id="edge5" class="edge"><title>taskmanDb&#45;&gt;baseDb</title>
<path fill="none" stroke="#cc0000" d="M1519.58,-961.478C1455.34,-989.774 1317.38,-1049.23 1198,-1091.88 1165.17,-1103.61 1157.36,-1108.96 1123,-1114.88 940.239,-1146.37 368.653,-1155.81 180.055,-1158.11"/>
<polygon fill="#cc0000" stroke="#cc0000" points="179.996,-1154.61 170.039,-1158.23 180.08,-1161.61 179.996,-1154.61"/>
</g>
<!-- taskmanServerImpl -->
<g id="node7" class="node"><title>taskmanServerImpl</title>
<ellipse fill="#aaaaff" stroke="black" cx="1430" cy="-839.531" rx="106.681" ry="18"/>
<text text-anchor="middle" x="1430" y="-835.831" font-family="Times,serif" font-size="14.00">taskman&#45;server&#45;impl</text>
</g>
<!-- taskmanServerImpl&#45;&gt;taskmanDb -->
<g id="edge16" class="edge"><title>taskmanServerImpl&#45;&gt;taskmanDb</title>
<path fill="none" stroke="#cc0000" d="M1450.52,-857.267C1471.36,-874.255 1503.79,-900.703 1527.2,-919.785"/>
<polygon fill="#cc0000" stroke="#cc0000" points="1525.1,-922.593 1535.06,-926.2 1529.53,-917.168 1525.1,-922.593"/>
</g>
<!-- taskmanServerLogic -->
<g id="node8" class="node"><title>taskmanServerLogic</title>
<ellipse fill="#aaaaff" stroke="black" cx="1307" cy="-944.271" rx="108.581" ry="18"/>
<text text-anchor="middle" x="1307" y="-940.571" font-family="Times,serif" font-size="14.00">taskman&#45;server&#45;logic</text>
</g>
<!-- taskmanServerImpl&#45;&gt;taskmanServerLogic -->
<g id="edge14" class="edge"><title>taskmanServerImpl&#45;&gt;taskmanServerLogic</title>
<path fill="none" stroke="#cc0000" d="M1409.96,-857.267C1389.5,-874.357 1357.58,-901.02 1334.71,-920.127"/>
<polygon fill="#cc0000" stroke="#cc0000" points="1332.46,-917.446 1327.03,-926.543 1336.95,-922.818 1332.46,-917.446"/>
</g>
<!-- taskmanApi -->
<g id="node10" class="node"><title>taskmanApi</title>
<ellipse fill="#cccccc" stroke="black" cx="396" cy="-839.531" rx="73.5782" ry="26.7407"/>
<text text-anchor="middle" x="396" y="-843.331" font-family="Times,serif" font-size="14.00">[aggregate]</text>
<text text-anchor="middle" x="396" y="-828.331" font-family="Times,serif" font-size="14.00">taskman&#45;api</text>
</g>
<!-- taskmanServerImpl&#45;&gt;taskmanApi -->
<g id="edge15" class="edge"><title>taskmanServerImpl&#45;&gt;taskmanApi</title>
<path fill="none" stroke="#cc0000" d="M1374.63,-824.094C1321.78,-810.214 1239.67,-790.862 1167,-783.161 1092.31,-775.246 563.435,-763.288 491,-783.161 471.65,-788.47 452.249,-798.855 436.07,-809.28"/>
<polygon fill="#cc0000" stroke="#cc0000" points="433.809,-806.581 427.434,-815.044 437.695,-812.403 433.809,-806.581"/>
</g>
<!-- taskmanApiLogic -->
<g id="node12" class="node"><title>taskmanApiLogic</title>
<ellipse fill="#cceeff" stroke="black" cx="377" cy="-1049.01" rx="92.8835" ry="18"/>
<text text-anchor="middle" x="377" y="-1045.31" font-family="Times,serif" font-size="14.00">taskman&#45;api&#45;logic</text>
</g>
<!-- taskmanServerLogic&#45;&gt;taskmanApiLogic -->
<g id="edge13" class="edge"><title>taskmanServerLogic&#45;&gt;taskmanApiLogic</title>
<path fill="none" stroke="#cc0000" d="M1244.95,-959.13C1223.24,-963.553 1198.63,-968.087 1176,-971.141 869.503,-1012.51 787.45,-973.643 482,-1022.14 467.311,-1024.47 451.659,-1027.84 437.045,-1031.38"/>
<polygon fill="#cc0000" stroke="#cc0000" points="435.981,-1028.03 427.119,-1033.84 437.668,-1034.83 435.981,-1028.03"/>
</g>
<!-- taskmanServer -->
<g id="node9" class="node"><title>taskmanServer</title>
<ellipse fill="#cccccc" stroke="black" cx="1430" cy="-734.791" rx="90.5193" ry="26.7407"/>
<text text-anchor="middle" x="1430" y="-738.591" font-family="Times,serif" font-size="14.00">[aggregate]</text>
<text text-anchor="middle" x="1430" y="-723.591" font-family="Times,serif" font-size="14.00">taskman&#45;server</text>
</g>
<!-- taskmanServer&#45;&gt;taskmanDb -->
<g id="edge56" class="edge"><title>taskmanServer&#45;&gt;taskmanDb</title>
<path fill="none" stroke="#aaaaaa" stroke-dasharray="5,2" d="M1486.64,-755.909C1508.92,-766.804 1532.4,-782.645 1546,-804.661 1566.9,-838.478 1565.04,-886.183 1561.06,-915.89"/>
<polygon fill="#aaaaaa" stroke="#aaaaaa" points="1559.53,-925.962 1556.58,-915.401 1560.28,-921.018 1561.03,-916.074 1561.03,-916.074 1561.03,-916.074 1560.28,-921.018 1565.48,-916.747 1559.53,-925.962 1559.53,-925.962"/>
</g>
<!-- taskmanServer&#45;&gt;taskmanServerImpl -->
<g id="edge17" class="edge"><title>taskmanServer&#45;&gt;taskmanServerImpl</title>
<path fill="none" stroke="#cc0000" d="M1424.05,-761.717C1423.02,-776.737 1422.99,-795.64 1423.94,-810.935"/>
<polygon fill="#cc0000" stroke="#cc0000" points="1420.49,-811.654 1424.81,-821.327 1427.46,-811.071 1420.49,-811.654"/>
</g>
<!-- taskmanServer&#45;&gt;taskmanServerImpl -->
<g id="edge55" class="edge"><title>taskmanServer&#45;&gt;taskmanServerImpl</title>
<path fill="none" stroke="#aaaaaa" stroke-dasharray="5,2" d="M1435.95,-761.717C1436.98,-776.737 1437.01,-795.64 1436.06,-810.935"/>
<polygon fill="#aaaaaa" stroke="#aaaaaa" points="1435.19,-821.327 1431.54,-810.987 1435.61,-816.345 1436.03,-811.362 1436.03,-811.362 1436.03,-811.362 1435.61,-816.345 1440.51,-811.737 1435.19,-821.327 1435.19,-821.327"/>
</g>
<!-- taskmanServer&#45;&gt;taskmanServerLogic -->
<g id="edge54" class="edge"><title>taskmanServer&#45;&gt;taskmanServerLogic</title>
<path fill="none" stroke="#aaaaaa" stroke-dasharray="5,2" d="M1373.13,-755.768C1350.81,-766.639 1327.37,-782.5 1314,-804.661 1293.5,-838.656 1296.49,-886.31 1301.22,-915.958"/>
<polygon fill="#aaaaaa" stroke="#aaaaaa" points="1303,-926.008 1296.83,-916.948 1302.13,-921.085 1301.26,-916.162 1301.26,-916.162 1301.26,-916.162 1302.13,-921.085 1305.69,-915.375 1303,-926.008 1303,-926.008"/>
</g>
<!-- taskmanApiImpl -->
<g id="node11" class="node"><title>taskmanApiImpl</title>
<ellipse fill="#cceeff" stroke="black" cx="359" cy="-944.271" rx="90.9839" ry="18"/>
<text text-anchor="middle" x="359" y="-940.571" font-family="Times,serif" font-size="14.00">taskman&#45;api&#45;impl</text>
</g>
<!-- taskmanApi&#45;&gt;taskmanApiImpl -->
<g id="edge12" class="edge"><title>taskmanApi&#45;&gt;taskmanApiImpl</title>
<path fill="none" stroke="#cc0000" d="M380.938,-865.928C374.372,-881.184 367.345,-900.589 362.737,-916.145"/>
<polygon fill="#cc0000" stroke="#cc0000" points="359.249,-915.631 359.97,-926.201 365.998,-917.489 359.249,-915.631"/>
</g>
<!-- taskmanApi&#45;&gt;taskmanApiImpl -->
<g id="edge53" class="edge"><title>taskmanApi&#45;&gt;taskmanApiImpl</title>
<path fill="none" stroke="#aaaaaa" stroke-dasharray="5,2" d="M392.616,-866.457C388.119,-881.866 381.109,-901.362 374.498,-916.856"/>
<polygon fill="#aaaaaa" stroke="#aaaaaa" points="370.242,-926.378 370.215,-915.412 372.283,-921.813 374.323,-917.248 374.323,-917.248 374.323,-917.248 372.283,-921.813 378.431,-919.085 370.242,-926.378 370.242,-926.378"/>
</g>
<!-- taskmanApi&#45;&gt;taskmanApiLogic -->
<g id="edge52" class="edge"><title>taskmanApi&#45;&gt;taskmanApiLogic</title>
<path fill="none" stroke="#aaaaaa" stroke-dasharray="5,2" d="M426.142,-864.385C438.855,-876.368 452.253,-892.03 459,-909.401 468.934,-934.98 469.69,-945.869 459,-971.141 449.593,-993.381 430.119,-1012.08 412.51,-1025.47"/>
<polygon fill="#aaaaaa" stroke="#aaaaaa" points="404.067,-1031.61 409.51,-1022.09 408.111,-1028.67 412.156,-1025.73 412.156,-1025.73 412.156,-1025.73 408.111,-1028.67 414.802,-1029.37 404.067,-1031.61 404.067,-1031.61"/>
</g>
<!-- taskmanApiImpl&#45;&gt;baseDb -->
<g id="edge8" class="edge"><title>taskmanApiImpl&#45;&gt;baseDb</title>
<path fill="none" stroke="#cc0000" d="M414.44,-958.579C435.487,-963.196 459.745,-967.998 482,-971.141 558.559,-981.956 1123.37,-965.5 1176,-1022.14 1197.1,-1044.85 1197.21,-1069.28 1176,-1091.88 1141.72,-1128.4 399.898,-1151.2 179.942,-1157.18"/>
<polygon fill="#cc0000" stroke="#cc0000" points="179.769,-1153.68 169.867,-1157.45 179.958,-1160.68 179.769,-1153.68"/>
</g>
<!-- taskmanApiImpl&#45;&gt;baseTest -->
<g id="edge11" class="edge"><title>taskmanApiImpl&#45;&gt;baseTest</title>
<path fill="none" stroke="#111111" stroke-dasharray="5,2" d="M328.219,-961.324C297.193,-977.505 248.794,-1002.75 212.207,-1021.83"/>
<polygon fill="#111111" stroke="#111111" points="210.426,-1018.81 203.178,-1026.54 213.663,-1025.02 210.426,-1018.81"/>
<text text-anchor="middle" x="287" y="-992.941" font-family="Times,serif" font-size="14.00">test</text>
</g>
<!-- taskmanApiImpl&#45;&gt;taskmanDb -->
<g id="edge10" class="edge"><title>taskmanApiImpl&#45;&gt;taskmanDb</title>
<path fill="none" stroke="#111111" stroke-dasharray="5,2" d="M399.179,-927.892C418.447,-920.828 442.063,-913.303 464,-909.401 464,-909.401 1425,-909.401 1425,-909.401 1448.32,-912.843 1473.45,-918.93 1495.39,-925.065"/>
<polygon fill="#111111" stroke="#111111" points="1494.66,-928.495 1505.24,-927.877 1496.58,-921.764 1494.66,-928.495"/>
<text text-anchor="middle" x="956" y="-888.201" font-family="Times,serif" font-size="14.00">test</text>
</g>
<!-- taskmanApiImpl&#45;&gt;taskmanApiLogic -->
<g id="edge7" class="edge"><title>taskmanApiImpl&#45;&gt;taskmanApiLogic</title>
<path fill="none" stroke="#cc0000" d="M358.168,-962.434C357.938,-974.263 358.309,-990.288 361,-1004.14 362.101,-1009.81 363.829,-1015.72 365.749,-1021.3"/>
<polygon fill="#cc0000" stroke="#cc0000" points="362.542,-1022.72 369.319,-1030.87 369.1,-1020.27 362.542,-1022.72"/>
</g>
<!-- taskmanApiImpl&#45;&gt;taskmanApiLogic -->
<g id="edge9" class="edge"><title>taskmanApiImpl&#45;&gt;taskmanApiLogic</title>
<path fill="none" stroke="#111111" stroke-dasharray="5,2" d="M362.053,-962.7C364.85,-978.663 369.034,-1002.54 372.264,-1020.98"/>
<polygon fill="#111111" stroke="#111111" points="368.818,-1021.59 373.992,-1030.84 375.713,-1020.39 368.818,-1021.59"/>
<text text-anchor="middle" x="395.5" y="-992.941" font-family="Times,serif" font-size="14.00">test&#45;lib</text>
</g>
<!-- taskmanApiLogic&#45;&gt;baseUtil -->
<g id="edge6" class="edge"><title>taskmanApiLogic&#45;&gt;baseUtil</title>
<path fill="none" stroke="#cc0000" d="M338.909,-1065.51C301.187,-1080.28 241.479,-1102.1 188,-1114.88 159.849,-1121.61 78,-1111.05 59,-1132.88 43.3215,-1150.9 49.8484,-1164.56 59,-1186.62 64.0455,-1198.78 72.713,-1209.82 82.0321,-1219.12"/>
<polygon fill="#cc0000" stroke="#cc0000" points="79.8988,-1221.92 89.5887,-1226.2 84.6856,-1216.81 79.8988,-1221.92"/>
</g>
<!-- webapp -->
<g id="node13" class="node"><title>webapp</title>
<ellipse fill="#ffff80" stroke="black" cx="1051" cy="-214.35" rx="70.922" ry="26.7407"/>
<text text-anchor="middle" x="1051" y="-218.15" font-family="Times,serif" font-size="14.00">[aggregate]</text>
<text text-anchor="middle" x="1051" y="-203.15" font-family="Times,serif" font-size="14.00">webapp</text>
</g>
<!-- webappClientHome -->
<g id="node18" class="node"><title>webappClientHome</title>
<ellipse fill="#99ccee" stroke="black" cx="615" cy="-467.571" rx="113.689" ry="26.7407"/>
<text text-anchor="middle" x="615" y="-471.371" font-family="Times,serif" font-size="14.00">webapp&#45;client&#45;home</text>
<text text-anchor="middle" x="615" y="-456.371" font-family="Times,serif" font-size="14.00">(JS)</text>
</g>
<!-- webapp&#45;&gt;webappClientHome -->
<g id="edge60" class="edge"><title>webapp&#45;&gt;webappClientHome</title>
<path fill="none" stroke="#aaaaaa" stroke-dasharray="5,2" d="M982.702,-221.413C896.492,-230.169 754.216,-248.632 711,-278.22 658.852,-313.924 633.423,-386.814 622.363,-430.71"/>
<polygon fill="#aaaaaa" stroke="#aaaaaa" points="619.973,-440.675 617.929,-429.901 621.139,-435.813 622.305,-430.95 622.305,-430.95 622.305,-430.95 621.139,-435.813 626.681,-432 619.973,-440.675 619.973,-440.675"/>
</g>
<!-- webappClientWw -->
<g id="node20" class="node"><title>webappClientWw</title>
<ellipse fill="#99ccee" stroke="black" cx="1051" cy="-467.571" rx="103.476" ry="26.7407"/>
<text text-anchor="middle" x="1051" y="-471.371" font-family="Times,serif" font-size="14.00">webapp&#45;client&#45;ww</text>
<text text-anchor="middle" x="1051" y="-456.371" font-family="Times,serif" font-size="14.00">(JS)</text>
</g>
<!-- webapp&#45;&gt;webappClientWw -->
<g id="edge62" class="edge"><title>webapp&#45;&gt;webappClientWw</title>
<path fill="none" stroke="#aaaaaa" stroke-dasharray="5,2" d="M1051,-241.289C1051,-286.232 1051,-378.687 1051,-430.084"/>
<polygon fill="#aaaaaa" stroke="#aaaaaa" points="1051,-440.397 1046.5,-430.397 1051,-435.397 1051,-430.397 1051,-430.397 1051,-430.397 1051,-435.397 1055.5,-430.397 1051,-440.397 1051,-440.397"/>
</g>
<!-- webappClientProject -->
<g id="node21" class="node"><title>webappClientProject</title>
<ellipse fill="#99ccee" stroke="black" cx="892" cy="-539.311" rx="122.159" ry="26.7407"/>
<text text-anchor="middle" x="892" y="-543.111" font-family="Times,serif" font-size="14.00">webapp&#45;client&#45;project</text>
<text text-anchor="middle" x="892" y="-528.111" font-family="Times,serif" font-size="14.00">(JS)</text>
</g>
<!-- webapp&#45;&gt;webappClientProject -->
<g id="edge59" class="edge"><title>webapp&#45;&gt;webappClientProject</title>
<path fill="none" stroke="#aaaaaa" stroke-dasharray="5,2" d="M1074.79,-239.806C1122.77,-292.087 1221.17,-416.317 1155,-494.441 1137.15,-515.517 1078.79,-526.476 1021.57,-532.171"/>
<polygon fill="#aaaaaa" stroke="#aaaaaa" points="1011.28,-533.141 1020.82,-527.722 1016.26,-532.672 1021.24,-532.202 1021.24,-532.202 1021.24,-532.202 1016.26,-532.672 1021.66,-536.683 1011.28,-533.141 1011.28,-533.141"/>
</g>
<!-- webappServer -->
<g id="node23" class="node"><title>webappServer</title>
<ellipse fill="#99ccee" stroke="black" cx="799" cy="-305.09" rx="79.0865" ry="18"/>
<text text-anchor="middle" x="799" y="-301.39" font-family="Times,serif" font-size="14.00">webapp&#45;server</text>
</g>
<!-- webapp&#45;&gt;webappServer -->
<g id="edge61" class="edge"><title>webapp&#45;&gt;webappServer</title>
<path fill="none" stroke="#aaaaaa" stroke-dasharray="5,2" d="M1000.31,-233.201C956.479,-248.635 893.451,-270.83 849.639,-286.258"/>
<polygon fill="#aaaaaa" stroke="#aaaaaa" points="840.045,-289.637 847.982,-282.071 844.761,-287.976 849.477,-286.315 849.477,-286.315 849.477,-286.315 844.761,-287.976 850.972,-290.56 840.045,-289.637 840.045,-289.637"/>
</g>
<!-- webappMacro -->
<g id="node14" class="node"><title>webappMacro</title>
<ellipse fill="#99ccee" stroke="black" cx="1063" cy="-1049.01" rx="86.0347" ry="26.7407"/>
<text text-anchor="middle" x="1063" y="-1052.81" font-family="Times,serif" font-size="14.00">webapp&#45;macro</text>
<text text-anchor="middle" x="1063" y="-1037.81" font-family="Times,serif" font-size="14.00">(Scala &amp; JS)</text>
</g>
<!-- webappMacro&#45;&gt;baseUtil -->
<g id="edge18" class="edge"><title>webappMacro&#45;&gt;baseUtil</title>
<path fill="none" stroke="#cc0000" d="M993.041,-1064.84C819.539,-1101.62 370.772,-1196.75 194.557,-1234.11"/>
<polygon fill="#cc0000" stroke="#cc0000" points="193.664,-1230.72 184.607,-1236.22 195.116,-1237.57 193.664,-1230.72"/>
</g>
<!-- webappBase -->
<g id="node15" class="node"><title>webappBase</title>
<ellipse fill="#99ccee" stroke="black" cx="1022" cy="-944.271" rx="77.5641" ry="26.7407"/>
<text text-anchor="middle" x="1022" y="-948.071" font-family="Times,serif" font-size="14.00">webapp&#45;base</text>
<text text-anchor="middle" x="1022" y="-933.071" font-family="Times,serif" font-size="14.00">(Scala &amp; JS)</text>
</g>
<!-- webappBase&#45;&gt;webappMacro -->
<g id="edge19" class="edge"><title>webappBase&#45;&gt;webappMacro</title>
<path fill="none" stroke="#cc0000" d="M1032.24,-970.932C1037.28,-983.558 1043.43,-998.976 1048.91,-1012.7"/>
<polygon fill="#cc0000" stroke="#cc0000" points="1045.79,-1014.33 1052.75,-1022.32 1052.29,-1011.74 1045.79,-1014.33"/>
</g>
<!-- webappServerLogic -->
<g id="node16" class="node"><title>webappServerLogic</title>
<ellipse fill="#99ccee" stroke="black" cx="608" cy="-734.791" rx="113.689" ry="26.7407"/>
<text text-anchor="middle" x="608" y="-738.591" font-family="Times,serif" font-size="14.00">webapp&#45;server&#45;logic</text>
<text text-anchor="middle" x="608" y="-723.591" font-family="Times,serif" font-size="14.00">(Scala &amp; JS)</text>
</g>
<!-- webappServerLogic&#45;&gt;taskmanApi -->
<g id="edge21" class="edge"><title>webappServerLogic&#45;&gt;taskmanApi</title>
<path fill="none" stroke="#cc0000" d="M513.063,-749.694C488.56,-756.191 463.153,-765.713 442,-779.661 432.217,-786.112 423.61,-795.341 416.568,-804.585"/>
<polygon fill="#cc0000" stroke="#cc0000" points="413.521,-802.828 410.551,-812.999 419.215,-806.9 413.521,-802.828"/>
</g>
<!-- webappServerLogic&#45;&gt;webappBase -->
<g id="edge20" class="edge"><title>webappServerLogic&#45;&gt;webappBase</title>
<path fill="none" stroke="#cc0000" d="M607.156,-761.889C607.701,-791.55 613.41,-839.343 642,-866.401 683.592,-905.763 837.774,-926.76 936.5,-936.415"/>
<polygon fill="#cc0000" stroke="#cc0000" points="936.181,-939.901 946.469,-937.37 936.848,-932.933 936.181,-939.901"/>
</g>
<!-- webappBaseTest -->
<g id="node24" class="node"><title>webappBaseTest</title>
<ellipse fill="white" stroke="blue" cx="751" cy="-839.531" rx="100.318" ry="26.7407"/>
<text text-anchor="middle" x="751" y="-843.331" font-family="Times,serif" font-size="14.00">webapp&#45;base&#45;test</text>
<text text-anchor="middle" x="751" y="-828.331" font-family="Times,serif" font-size="14.00">(Scala &amp; JS)</text>
</g>
<!-- webappServerLogic&#45;&gt;webappBaseTest -->
<g id="edge22" class="edge"><title>webappServerLogic&#45;&gt;webappBaseTest</title>
<path fill="none" stroke="#111111" stroke-dasharray="5,2" d="M642.616,-760.661C662.465,-774.922 687.535,-792.934 708.564,-808.042"/>
<polygon fill="#111111" stroke="#111111" points="706.539,-810.897 716.702,-813.89 710.623,-805.212 706.539,-810.897"/>
<text text-anchor="middle" x="703" y="-783.461" font-family="Times,serif" font-size="14.00">test</text>
</g>
<!-- webappClientBase -->
<g id="node17" class="node"><title>webappClientBase</title>
<ellipse fill="#99ccee" stroke="black" cx="890" cy="-734.791" rx="109.703" ry="26.7407"/>
<text text-anchor="middle" x="890" y="-738.591" font-family="Times,serif" font-size="14.00">webapp&#45;client&#45;base</text>
<text text-anchor="middle" x="890" y="-723.591" font-family="Times,serif" font-size="14.00">(JS)</text>
</g>
<!-- webappClientBase&#45;&gt;webappBase -->
<g id="edge25" class="edge"><title>webappClientBase&#45;&gt;webappBase</title>
<path fill="none" stroke="#cc0000" d="M891.447,-761.941C894.65,-796.903 904.94,-859.135 938,-899.401 944.342,-907.126 952.405,-913.655 961.014,-919.121"/>
<polygon fill="#cc0000" stroke="#cc0000" points="959.363,-922.21 969.762,-924.237 962.897,-916.167 959.363,-922.21"/>
</g>
<!-- webappClientBase&#45;&gt;webappBaseTest -->
<g id="edge26" class="edge"><title>webappClientBase&#45;&gt;webappBaseTest</title>
<path fill="none" stroke="#111111" stroke-dasharray="5,2" d="M856.706,-760.4C837.364,-774.696 812.832,-792.829 792.271,-808.026"/>
<polygon fill="#111111" stroke="#111111" points="789.984,-805.364 784.022,-814.123 794.144,-810.994 789.984,-805.364"/>
<text text-anchor="middle" x="843" y="-783.461" font-family="Times,serif" font-size="14.00">test</text>
</g>
<!-- webappClientHome&#45;&gt;webappClientBase -->
<g id="edge29" class="edge"><title>webappClientHome&#45;&gt;webappClientBase</title>
<path fill="none" stroke="#cc0000" d="M588.683,-494.001C549.143,-535.247 483.726,-617.491 530,-670.921 559.545,-705.035 686.573,-691.993 731,-699.921 753.872,-704.002 778.475,-708.961 801.331,-713.811"/>
<polygon fill="#cc0000" stroke="#cc0000" points="800.841,-717.285 811.352,-715.953 802.304,-710.44 800.841,-717.285"/>
</g>
<!-- webappClientBaseTest -->
<g id="node25" class="node"><title>webappClientBaseTest</title>
<ellipse fill="white" stroke="blue" cx="730" cy="-644.051" rx="132.458" ry="26.7407"/>
<text text-anchor="middle" x="730" y="-647.851" font-family="Times,serif" font-size="14.00">webapp&#45;client&#45;base&#45;test</text>
<text text-anchor="middle" x="730" y="-632.851" font-family="Times,serif" font-size="14.00">(JS)</text>
</g>
<!-- webappClientHome&#45;&gt;webappClientBaseTest -->
<g id="edge30" class="edge"><title>webappClientHome&#45;&gt;webappClientBaseTest</title>
<path fill="none" stroke="#111111" stroke-dasharray="5,2" d="M629.693,-494.224C641.289,-514.13 658.106,-542.269 674,-566.181 683.522,-580.506 694.568,-595.903 704.321,-609.126"/>
<polygon fill="#111111" stroke="#111111" points="701.743,-611.525 710.514,-617.468 707.364,-607.353 701.743,-611.525"/>
<text text-anchor="middle" x="688" y="-535.611" font-family="Times,serif" font-size="14.00">test</text>
</g>
<!-- webappClientWwApi -->
<g id="node19" class="node"><title>webappClientWwApi</title>
<ellipse fill="#99ccee" stroke="black" cx="1022" cy="-644.051" rx="121.745" ry="26.7407"/>
<text text-anchor="middle" x="1022" y="-647.851" font-family="Times,serif" font-size="14.00">webapp&#45;client&#45;ww&#45;api</text>
<text text-anchor="middle" x="1022" y="-632.851" font-family="Times,serif" font-size="14.00">(JS)</text>
</g>
<!-- webappClientWwApi&#45;&gt;webappBase -->
<g id="edge31" class="edge"><title>webappClientWwApi&#45;&gt;webappBase</title>
<path fill="none" stroke="#cc0000" d="M1022,-670.994C1022,-724.2 1022,-845.79 1022,-906.858"/>
<polygon fill="#cc0000" stroke="#cc0000" points="1018.5,-907.175 1022,-917.175 1025.5,-907.175 1018.5,-907.175"/>
</g>
<!-- webappClientWw&#45;&gt;webappClientWwApi -->
<g id="edge32" class="edge"><title>webappClientWw&#45;&gt;webappClientWwApi</title>
<path fill="none" stroke="#cc0000" d="M1046.66,-494.692C1041.71,-524.459 1033.59,-573.303 1028.03,-606.758"/>
<polygon fill="#cc0000" stroke="#cc0000" points="1024.51,-606.598 1026.32,-617.036 1031.42,-607.745 1024.51,-606.598"/>
</g>
<!-- webappClientWw&#45;&gt;webappClientBaseTest -->
<g id="edge33" class="edge"><title>webappClientWw&#45;&gt;webappClientBaseTest</title>
<path fill="none" stroke="#111111" stroke-dasharray="5,2" d="M966.414,-483.007C942.102,-486.949 915.53,-491.062 891,-494.441 855.992,-499.262 756.832,-486.348 733,-512.441 710.081,-537.533 712.962,-577.995 719.295,-607.24"/>
<polygon fill="#111111" stroke="#111111" points="715.915,-608.158 721.642,-617.073 722.724,-606.533 715.915,-608.158"/>
<text text-anchor="middle" x="747" y="-535.611" font-family="Times,serif" font-size="14.00">test</text>
</g>
<!-- webappClientProject&#45;&gt;webappClientBase -->
<g id="edge34" class="edge"><title>webappClientProject&#45;&gt;webappClientBase</title>
<path fill="none" stroke="#cc0000" d="M891.633,-566.285C891.43,-581.181 891.183,-600.232 891,-617.181 890.708,-644.217 890.449,-674.779 890.267,-697.831"/>
<polygon fill="#cc0000" stroke="#cc0000" points="886.767,-697.827 890.19,-707.854 893.767,-697.882 886.767,-697.827"/>
</g>
<!-- webappClientProject&#45;&gt;webappClientWwApi -->
<g id="edge35" class="edge"><title>webappClientProject&#45;&gt;webappClientWwApi</title>
<path fill="none" stroke="#cc0000" d="M923.802,-565.444C941.35,-579.312 963.311,-596.669 982.013,-611.449"/>
<polygon fill="#cc0000" stroke="#cc0000" points="980.06,-614.367 990.076,-617.821 984.401,-608.875 980.06,-614.367"/>
</g>
<!-- webappClientProject&#45;&gt;webappClientBaseTest -->
<g id="edge36" class="edge"><title>webappClientProject&#45;&gt;webappClientBaseTest</title>
<path fill="none" stroke="#111111" stroke-dasharray="5,2" d="M853.197,-564.92C830.521,-579.301 801.723,-597.564 777.673,-612.816"/>
<polygon fill="#111111" stroke="#111111" points="775.618,-609.975 769.048,-618.287 779.367,-615.887 775.618,-609.975"/>
<text text-anchor="middle" x="835" y="-587.981" font-family="Times,serif" font-size="14.00">test</text>
</g>
<!-- webappGen -->
<g id="node22" class="node"><title>webappGen</title>
<ellipse fill="#99ccee" stroke="black" cx="799" cy="-395.831" rx="73.5782" ry="26.7407"/>
<text text-anchor="middle" x="799" y="-399.631" font-family="Times,serif" font-size="14.00">webapp&#45;gen</text>
<text text-anchor="middle" x="799" y="-384.631" font-family="Times,serif" font-size="14.00">(Scala &amp; JS)</text>
</g>
<!-- webappGen&#45;&gt;webappBase -->
<g id="edge37" class="edge"><title>webappGen&#45;&gt;webappBase</title>
<path fill="none" stroke="#cc0000" d="M847.407,-416.377C861.961,-423.173 877.609,-431.443 891,-440.701 919.375,-460.317 916.706,-477.943 947,-494.441 977.485,-511.042 991.825,-497.174 1023,-512.441 1089.64,-545.073 1120.97,-550.251 1153,-617.181 1203.28,-722.257 1105.69,-851.982 1052.84,-911.142"/>
<polygon fill="#cc0000" stroke="#cc0000" points="1050.13,-908.916 1046,-918.675 1055.31,-913.619 1050.13,-908.916"/>
</g>
<!-- webappGen&#45;&gt;webappClientProject -->
<g id="edge38" class="edge"><title>webappGen&#45;&gt;webappClientProject</title>
<path fill="none" stroke="#111111" stroke-dasharray="5,2" d="M815.133,-422.231C827.753,-442.002 845.815,-470.082 862,-494.441 864.062,-497.544 866.219,-500.759 868.391,-503.974"/>
<polygon fill="#111111" stroke="#111111" points="865.605,-506.101 874.118,-512.407 871.396,-502.168 865.605,-506.101"/>
<text text-anchor="middle" x="874.5" y="-463.871" font-family="Times,serif" font-size="14.00">run</text>
</g>
<!-- webappGen&#45;&gt;webappBaseTest -->
<g id="edge39" class="edge"><title>webappGen&#45;&gt;webappBaseTest</title>
<path fill="none" stroke="#111111" stroke-dasharray="5,2" d="M782.989,-422.308C769.761,-442.621 749.975,-471.383 730,-494.441 722.384,-503.233 718.875,-503.879 711,-512.441 690.292,-534.955 691.969,-547.176 668,-566.181 626.72,-598.911 589.118,-572.631 561,-617.181 548.252,-637.379 545.596,-652.667 561,-670.921 610.431,-729.498 677.502,-645.032 731,-699.921 738.058,-707.162 744.389,-763.526 747.957,-802.111"/>
<polygon fill="#111111" stroke="#111111" points="744.506,-802.821 748.888,-812.467 751.478,-802.194 744.506,-802.821"/>
<text text-anchor="middle" x="575" y="-640.351" font-family="Times,serif" font-size="14.00">test</text>
</g>
<!-- webappServer&#45;&gt;baseDb -->
<g id="edge43" class="edge"><title>webappServer&#45;&gt;baseDb</title>
<path fill="none" stroke="#cc0000" d="M720.25,-307.638C532.864,-312.367 76,-330.493 76,-394.831 76,-394.831 76,-394.831 76,-592.681 76,-685.068 0,-693.774 0,-786.161 0,-786.161 0,-786.161 0,-1050.01 0,-1090.3 37.634,-1119.67 70.574,-1137.65"/>
<polygon fill="#cc0000" stroke="#cc0000" points="69.2211,-1140.89 79.7052,-1142.42 72.4626,-1134.69 69.2211,-1140.89"/>
</g>
<!-- webappServer&#45;&gt;taskmanApi -->
<g id="edge40" class="edge"><title>webappServer&#45;&gt;taskmanApi</title>
<path fill="none" stroke="#cc0000" d="M720.887,-308.363C608.097,-313.803 413,-332.257 413,-394.831 413,-394.831 413,-394.831 413,-735.791 413,-758.166 409.027,-782.918 404.922,-802.52"/>
<polygon fill="#cc0000" stroke="#cc0000" points="401.447,-802.028 402.719,-812.546 408.284,-803.53 401.447,-802.028"/>
</g>
<!-- webappServer&#45;&gt;webappServerLogic -->
<g id="edge41" class="edge"><title>webappServer&#45;&gt;webappServerLogic</title>
<path fill="none" stroke="#cc0000" d="M726.956,-312.672C637.059,-322.919 495,-346.723 495,-394.831 495,-394.831 495,-394.831 495,-645.051 495,-672.488 515.86,-692.73 539.656,-706.894"/>
<polygon fill="#cc0000" stroke="#cc0000" points="538.083,-710.025 548.522,-711.84 541.494,-703.912 538.083,-710.025"/>
</g>
<!-- webappServer&#45;&gt;webappClientHome -->
<g id="edge44" class="edge"><title>webappServer&#45;&gt;webappClientHome</title>
<path fill="none" stroke="#cc0000" stroke-dasharray="5,2" d="M775.879,-322.454C758.9,-334.744 735.495,-352.262 716,-368.96 691.86,-389.638 666.118,-414.565 646.664,-434.053"/>
<polygon fill="#cc0000" stroke="#cc0000" points="644.094,-431.673 639.532,-441.235 649.062,-436.605 644.094,-431.673"/>
</g>
<!-- webappServer&#45;&gt;webappClientWw -->
<g id="edge46" class="edge"><title>webappServer&#45;&gt;webappClientWw</title>
<path fill="none" stroke="#cc0000" stroke-dasharray="5,2" d="M837.702,-321.02C856.149,-328.732 878.232,-338.85 897,-349.96 939.651,-375.209 984.383,-410.17 1014.58,-435.214"/>
<polygon fill="#cc0000" stroke="#cc0000" points="1012.39,-437.951 1022.31,-441.677 1016.88,-432.579 1012.39,-437.951"/>
</g>
<!-- webappServer&#45;&gt;webappClientProject -->
<g id="edge45" class="edge"><title>webappServer&#45;&gt;webappClientProject</title>
<path fill="none" stroke="#cc0000" stroke-dasharray="5,2" d="M831.399,-321.769C849.586,-332.403 870.815,-348.293 882,-368.96 904.455,-410.453 902.724,-466.326 898.283,-502.338"/>
<polygon fill="#cc0000" stroke="#cc0000" points="894.795,-502.007 896.909,-512.389 901.731,-502.955 894.795,-502.007"/>
</g>
<!-- webappServer&#45;&gt;webappGen -->
<g id="edge42" class="edge"><title>webappServer&#45;&gt;webappGen</title>
<path fill="none" stroke="#cc0000" d="M799,-323.2C799,-333.273 799,-346.407 799,-358.673"/>
<polygon fill="#cc0000" stroke="#cc0000" points="795.5,-358.685 799,-368.686 802.5,-358.686 795.5,-358.685"/>
</g>
<!-- webappBaseTest&#45;&gt;baseTest -->
<g id="edge23" class="edge"><title>webappBaseTest&#45;&gt;baseTest</title>
<path fill="none" stroke="#111111" d="M657.574,-849.405C523.626,-862.749 289.382,-888.632 256,-909.401 217.127,-933.586 190.512,-980.458 175.782,-1012.96"/>
<polygon fill="#111111" stroke="#111111" points="172.572,-1011.56 171.767,-1022.13 178.985,-1014.37 172.572,-1011.56"/>
</g>
<!-- webappBaseTest&#45;&gt;webappBase -->
<g id="edge24" class="edge"><title>webappBaseTest&#45;&gt;webappBase</title>
<path fill="none" stroke="#111111" d="M807.151,-861.819C852.165,-878.884 915.218,-902.789 961.375,-920.287"/>
<polygon fill="#111111" stroke="#111111" points="960.364,-923.647 970.955,-923.919 962.845,-917.102 960.364,-923.647"/>
</g>
<!-- webappClientBaseTest&#45;&gt;webappClientBase -->
<g id="edge27" class="edge"><title>webappClientBaseTest&#45;&gt;webappClientBase</title>
<path fill="none" stroke="#111111" d="M774.144,-669.534C793.966,-680.528 817.49,-693.575 838.145,-705.031"/>
<polygon fill="#111111" stroke="#111111" points="836.662,-708.211 847.105,-710 840.057,-702.089 836.662,-708.211"/>
</g>
<!-- webappClientBaseTest&#45;&gt;webappBaseTest -->
<g id="edge28" class="edge"><title>webappClientBaseTest&#45;&gt;webappBaseTest</title>
<path fill="none" stroke="#111111" d="M738.992,-670.984C741.744,-680.03 744.452,-690.321 746,-699.921 751.558,-734.386 752.425,-774.27 752.131,-802.381"/>
<polygon fill="#111111" stroke="#111111" points="748.629,-802.488 751.969,-812.543 755.628,-802.6 748.629,-802.488"/>
</g>
<!-- taskman -->
<g id="node26" class="node"><title>taskman</title>
<ellipse fill="#ffff80" stroke="black" cx="1430" cy="-644.051" rx="70.922" ry="26.7407"/>
<text text-anchor="middle" x="1430" y="-647.851" font-family="Times,serif" font-size="14.00">[aggregate]</text>
<text text-anchor="middle" x="1430" y="-632.851" font-family="Times,serif" font-size="14.00">taskman</text>
</g>
<!-- taskman&#45;&gt;taskmanServer -->
<g id="edge58" class="edge"><title>taskman&#45;&gt;taskmanServer</title>
<path fill="none" stroke="#aaaaaa" stroke-dasharray="5,2" d="M1430,-671.196C1430,-679.501 1430,-688.836 1430,-697.713"/>
<polygon fill="#aaaaaa" stroke="#aaaaaa" points="1430,-707.833 1425.5,-697.833 1430,-702.833 1430,-697.833 1430,-697.833 1430,-697.833 1430,-702.833 1434.5,-697.833 1430,-707.833 1430,-707.833"/>
</g>
<!-- taskman&#45;&gt;taskmanApi -->
<g id="edge57" class="edge"><title>taskman&#45;&gt;taskmanApi</title>
<path fill="none" stroke="#aaaaaa" stroke-dasharray="5,2" d="M1362.24,-651.814C1298.61,-659.611 1209.73,-674.705 1186,-699.921 1166.95,-720.164 1196.93,-743.372 1176,-761.661 1146.96,-787.037 518.693,-767.782 482,-779.661 463.409,-785.68 445.198,-797.098 430.355,-808.288"/>
<polygon fill="#aaaaaa" stroke="#aaaaaa" points="422.475,-814.446 427.584,-804.743 426.414,-811.368 430.354,-808.289 430.354,-808.289 430.354,-808.289 426.414,-811.368 433.125,-811.835 422.475,-814.446 422.475,-814.446"/>
</g>
<!-- benchmark -->
<g id="node27" class="node"><title>benchmark</title>
<ellipse fill="#ffffdd" stroke="black" cx="1836" cy="-117.61" rx="70.922" ry="26.7407"/>
<text text-anchor="middle" x="1836" y="-121.41" font-family="Times,serif" font-size="14.00">[aggregate]</text>
<text text-anchor="middle" x="1836" y="-106.41" font-family="Times,serif" font-size="14.00">benchmark</text>
</g>
<!-- benchmarkJvm -->
<g id="node28" class="node"><title>benchmarkJvm</title>
<ellipse fill="#ffcccc" stroke="black" cx="1796" cy="-214.35" rx="86.3847" ry="18"/>
<text text-anchor="middle" x="1796" y="-210.65" font-family="Times,serif" font-size="14.00">benchmark JVM</text>
</g>
<!-- benchmark&#45;&gt;benchmarkJvm -->
<g id="edge67" class="edge"><title>benchmark&#45;&gt;benchmarkJvm</title>
<path fill="none" stroke="#aaaaaa" stroke-dasharray="5,2" d="M1825.07,-144.498C1819.54,-157.596 1812.84,-173.473 1807.26,-186.679"/>
<polygon fill="#aaaaaa" stroke="#aaaaaa" points="1803.26,-196.166 1803,-185.203 1805.2,-191.56 1807.14,-186.954 1807.14,-186.954 1807.14,-186.954 1805.2,-191.56 1811.29,-188.704 1803.26,-196.166 1803.26,-196.166"/>
</g>
<!-- benchmarkJs -->
<g id="node29" class="node"><title>benchmarkJs</title>
<ellipse fill="#ffcccc" stroke="black" cx="1977" cy="-214.35" rx="76.8869" ry="18"/>
<text text-anchor="middle" x="1977" y="-210.65" font-family="Times,serif" font-size="14.00">benchmark JS</text>
</g>
<!-- benchmark&#45;&gt;benchmarkJs -->
<g id="edge68" class="edge"><title>benchmark&#45;&gt;benchmarkJs</title>
<path fill="none" stroke="#aaaaaa" stroke-dasharray="5,2" d="M1869.77,-141.303C1892.36,-156.478 1921.92,-176.34 1944.28,-191.366"/>
<polygon fill="#aaaaaa" stroke="#aaaaaa" points="1952.77,-197.071 1941.96,-195.229 1948.62,-194.283 1944.47,-191.494 1944.47,-191.494 1944.47,-191.494 1948.62,-194.283 1946.98,-187.759 1952.77,-197.071 1952.77,-197.071"/>
</g>
<!-- benchmarkJvm&#45;&gt;webappServer -->
<g id="edge49" class="edge"><title>benchmarkJvm&#45;&gt;webappServer</title>
<path fill="none" stroke="#cc0000" d="M1718.18,-222.277C1533.68,-238.699 1071.01,-279.88 881.703,-296.729"/>
<polygon fill="#cc0000" stroke="#cc0000" points="881.185,-293.261 871.535,-297.634 881.806,-300.234 881.185,-293.261"/>
</g>
<!-- benchmarkShared -->
<g id="node30" class="node"><title>benchmarkShared</title>
<ellipse fill="#ffcccc" stroke="black" cx="1859" cy="-305.09" rx="69.0935" ry="26.7407"/>
<text text-anchor="middle" x="1859" y="-308.89" font-family="Times,serif" font-size="14.00">benchmark</text>
<text text-anchor="middle" x="1859" y="-293.89" font-family="Times,serif" font-size="14.00">base</text>
</g>
<!-- benchmarkJvm&#45;&gt;benchmarkShared -->
<g id="edge47" class="edge"><title>benchmarkJvm&#45;&gt;benchmarkShared</title>
<path fill="none" stroke="#cc0000" d="M1808.15,-232.46C1815.83,-243.285 1826.03,-257.643 1835.27,-270.662"/>
<polygon fill="#cc0000" stroke="#cc0000" points="1832.52,-272.845 1841.17,-278.972 1838.23,-268.792 1832.52,-272.845"/>
</g>
<!-- benchmarkJs&#45;&gt;webappClientProject -->
<g id="edge50" class="edge"><title>benchmarkJs&#45;&gt;webappClientProject</title>
<path fill="none" stroke="#cc0000" d="M1976.68,-232.763C1975.19,-259.912 1968.16,-312.094 1937,-339.96 1678.11,-571.458 1512.84,-433.124 1171,-494.441 1115.46,-504.403 1053.48,-514.273 1002.06,-522.122"/>
<polygon fill="#cc0000" stroke="#cc0000" points="1001.29,-518.7 991.927,-523.664 1002.34,-525.62 1001.29,-518.7"/>
</g>
<!-- benchmarkJs&#45;&gt;benchmarkShared -->
<g id="edge48" class="edge"><title>benchmarkJs&#45;&gt;benchmarkShared</title>
<path fill="none" stroke="#cc0000" d="M1955.36,-231.627C1939.36,-243.656 1917.14,-260.367 1898.07,-274.709"/>
<polygon fill="#cc0000" stroke="#cc0000" points="1895.73,-272.09 1889.84,-280.898 1899.94,-277.685 1895.73,-272.09"/>
</g>
<!-- utils -->
<g id="node31" class="node"><title>utils</title>
<ellipse fill="#ffffdd" stroke="black" cx="1970" cy="-117.61" rx="31.3957" ry="18"/>
<text text-anchor="middle" x="1970" y="-113.91" font-family="Times,serif" font-size="14.00">utils</text>
</g>
<!-- utils&#45;&gt;webappBase -->
<g id="edge51" class="edge"><title>utils&#45;&gt;webappBase</title>
<path fill="none" stroke="#cc0000" d="M1996.26,-127.564C2029.36,-140.715 2082,-168.654 2082,-213.35 2082,-213.35 2082,-213.35 2082,-840.531 2082,-940.38 1284.87,-895.449 1186,-909.401 1155.87,-913.653 1122.97,-920.089 1094.59,-926.213"/>
<polygon fill="#cc0000" stroke="#cc0000" points="1093.78,-922.808 1084.75,-928.362 1095.27,-929.647 1093.78,-922.808"/>
</g>
<!-- root -->
<g id="node32" class="node"><title>root</title>
<ellipse fill="#cccccc" stroke="black" cx="1836" cy="-26.8701" rx="70.922" ry="26.7407"/>
<text text-anchor="middle" x="1836" y="-30.6701" font-family="Times,serif" font-size="14.00">[aggregate]</text>
<text text-anchor="middle" x="1836" y="-15.6701" font-family="Times,serif" font-size="14.00">root</text>
</g>
<!-- root&#45;&gt;base -->
<g id="edge69" class="edge"><title>root&#45;&gt;base</title>
<path fill="none" stroke="#aaaaaa" stroke-dasharray="5,2" d="M1765.24,-27.5967C1432.32,-26.7651 38,-28.5394 38,-116.61 38,-116.61 38,-116.61 38,-840.531 38,-866.85 52.9831,-892.317 68.0979,-911.311"/>
<polygon fill="#aaaaaa" stroke="#aaaaaa" points="74.5404,-919.039 64.6806,-914.24 71.3388,-915.199 68.1371,-911.358 68.1371,-911.358 68.1371,-911.358 71.3388,-915.199 71.5935,-908.477 74.5404,-919.039 74.5404,-919.039"/>
</g>
<!-- root&#45;&gt;webapp -->
<g id="edge70" class="edge"><title>root&#45;&gt;webapp</title>
<path fill="none" stroke="#aaaaaa" stroke-dasharray="5,2" d="M1777,-41.8112C1634.53,-75.4746 1272.27,-161.069 1120.04,-197.038"/>
<polygon fill="#aaaaaa" stroke="#aaaaaa" points="1109.88,-199.437 1118.58,-192.758 1114.75,-198.288 1119.62,-197.138 1119.62,-197.138 1119.62,-197.138 1114.75,-198.288 1120.65,-201.517 1109.88,-199.437 1109.88,-199.437"/>
</g>
<!-- root&#45;&gt;taskman -->
<g id="edge71" class="edge"><title>root&#45;&gt;taskman</title>
<path fill="none" stroke="#aaaaaa" stroke-dasharray="5,2" d="M1903.3,-35.3251C1987.29,-46.5391 2120,-71.4108 2120,-116.61 2120,-116.61 2120,-116.61 2120,-260.22 2120,-537.192 1689.64,-615.461 1508.67,-636.129"/>
<polygon fill="#aaaaaa" stroke="#aaaaaa" points="1498.68,-637.24 1508.12,-631.662 1503.65,-636.687 1508.62,-636.135 1508.62,-636.135 1508.62,-636.135 1503.65,-636.687 1509.12,-640.607 1498.68,-637.24 1498.68,-637.24"/>
</g>
<!-- root&#45;&gt;benchmark -->
<g id="edge72" class="edge"><title>root&#45;&gt;benchmark</title>
<path fill="none" stroke="#aaaaaa" stroke-dasharray="5,2" d="M1836,-54.0151C1836,-62.3197 1836,-71.6554 1836,-80.5319"/>
<polygon fill="#aaaaaa" stroke="#aaaaaa" points="1836,-90.652 1831.5,-80.652 1836,-85.652 1836,-80.652 1836,-80.652 1836,-80.652 1836,-85.652 1840.5,-80.6521 1836,-90.652 1836,-90.652"/>
</g>
<!-- root&#45;&gt;utils -->
<g id="edge73" class="edge"><title>root&#45;&gt;utils</title>
<path fill="none" stroke="#aaaaaa" stroke-dasharray="5,2" d="M1870.16,-50.4925C1892.28,-65.1403 1920.74,-83.9891 1941.61,-97.8113"/>
<polygon fill="#aaaaaa" stroke="#aaaaaa" points="1950.05,-103.401 1939.23,-101.631 1945.88,-100.64 1941.72,-97.879 1941.72,-97.879 1941.72,-97.879 1945.88,-100.64 1944.2,-94.1272 1950.05,-103.401 1950.05,-103.401"/>
</g>
</g>
</svg>
