<?xml version="1.0" encoding="UTF-8" standalone="no"?>
<!DOCTYPE svg PUBLIC "-//W3C//DTD SVG 1.1//EN"
 "http://www.w3.org/Graphics/SVG/1.1/DTD/svg11.dtd">
<!-- Generated by graphviz version 2.38.0 (20140413.2041)
 -->
<!-- Title: G Pages: 1 -->
<svg width="1982pt" height="1171pt"
 viewBox="0.00 0.00 1981.80 1170.62" xmlns="http://www.w3.org/2000/svg" xmlns:xlink="http://www.w3.org/1999/xlink">
<g id="graph0" class="graph" transform="scale(1 1) rotate(0) translate(4 1166.62)">
<title>G</title>
<polygon fill="white" stroke="none" points="-4,4 -4,-1166.62 1977.8,-1166.62 1977.8,4 -4,4"/>
<g id="clust3" class="cluster"><title>cluster_taskman</title>
<polygon fill="#eeeeff" stroke="black" points="1492,-498.441 1492,-859.531 1956,-859.531 1956,-498.441 1492,-498.441"/>
</g>
<g id="clust4" class="cluster"><title>cluster_webapp</title>
<polygon fill="#eeeeff" stroke="black" points="418,-173.48 418,-973.141 1266,-973.141 1266,-173.48 418,-173.48"/>
</g>
<g id="clust1" class="cluster"><title>cluster_base</title>
<polygon fill="#f4fff4" stroke="black" points="1274,-693.921 1274,-1154.62 1484,-1154.62 1484,-693.921 1274,-693.921"/>
</g>
<g id="clust5" class="cluster"><title>cluster_supp</title>
<polygon fill="#fff2f2" stroke="black" points="20,-82.7401 20,-333.96 380,-333.96 380,-82.7401 20,-82.7401"/>
</g>
<!-- baseMacro -->
<g id="node1" class="node"><title>baseMacro</title>
<ellipse fill="#bbffbb" stroke="black" cx="1358" cy="-1119.75" rx="70.0071" ry="26.7407"/>
<text text-anchor="middle" x="1358" y="-1123.55" font-family="Times,serif" font-size="14.00">base&#45;macro</text>
<text text-anchor="middle" x="1358" y="-1108.55" font-family="Times,serif" font-size="14.00">(JVM &amp; JS)</text>
</g>
<!-- baseUtil -->
<g id="node2" class="node"><title>baseUtil</title>
<ellipse fill="#bbffbb" stroke="black" cx="1378" cy="-1029.01" rx="67.3507" ry="26.7407"/>
<text text-anchor="middle" x="1378" y="-1032.81" font-family="Times,serif" font-size="14.00">base&#45;util</text>
<text text-anchor="middle" x="1378" y="-1017.81" font-family="Times,serif" font-size="14.00">(JVM &amp; JS)</text>
</g>
<!-- baseUtil&#45;&gt;baseMacro -->
<g id="edge1" class="edge"><title>baseUtil&#45;&gt;baseMacro</title>
<path fill="none" stroke="#cc0000" d="M1372.11,-1056.16C1370.22,-1064.55 1368.09,-1074 1366.07,-1082.96"/>
<polygon fill="#cc0000" stroke="#cc0000" points="1362.63,-1082.27 1363.85,-1092.79 1369.46,-1083.81 1362.63,-1082.27"/>
</g>
<!-- baseDb -->
<g id="node3" class="node"><title>baseDb</title>
<ellipse fill="#bbffbb" stroke="black" cx="1405" cy="-938.271" rx="50.8235" ry="26.7407"/>
<text text-anchor="middle" x="1405" y="-942.071" font-family="Times,serif" font-size="14.00">base&#45;db</text>
<text text-anchor="middle" x="1405" y="-927.071" font-family="Times,serif" font-size="14.00">(JVM)</text>
</g>
<!-- baseDb&#45;&gt;baseUtil -->
<g id="edge2" class="edge"><title>baseDb&#45;&gt;baseUtil</title>
<path fill="none" stroke="#cc0000" d="M1397.19,-964.939C1394.58,-973.509 1391.63,-983.22 1388.83,-992.408"/>
<polygon fill="#cc0000" stroke="#cc0000" points="1385.45,-991.508 1385.89,-1002.09 1392.14,-993.546 1385.45,-991.508"/>
</g>
<!-- baseTest -->
<g id="node4" class="node"><title>baseTest</title>
<ellipse fill="white" stroke="darkgreen" cx="1369" cy="-833.531" rx="67.3507" ry="26.7407"/>
<text text-anchor="middle" x="1369" y="-837.331" font-family="Times,serif" font-size="14.00">base&#45;test</text>
<text text-anchor="middle" x="1369" y="-822.331" font-family="Times,serif" font-size="14.00">(JVM &amp; JS)</text>
</g>
<!-- baseTest&#45;&gt;baseUtil -->
<g id="edge3" class="edge"><title>baseTest&#45;&gt;baseUtil</title>
<path fill="none" stroke="#111111" d="M1357.88,-860.159C1347.23,-888.236 1334.26,-934.43 1345,-973.141 1347,-980.358 1350.24,-987.577 1353.92,-994.296"/>
<polygon fill="#111111" stroke="#111111" points="1351.03,-996.284 1359.13,-1003.1 1357.05,-992.716 1351.03,-996.284"/>
</g>
<!-- baseTest&#45;&gt;baseDb -->
<g id="edge4" class="edge"><title>baseTest&#45;&gt;baseDb</title>
<path fill="none" stroke="#111111" stroke-dasharray="5,2" d="M1375.74,-860.55C1378.62,-870.872 1382.19,-882.789 1386,-893.401 1387.09,-896.447 1388.3,-899.584 1389.55,-902.712"/>
<polygon fill="#111111" stroke="#111111" points="1386.33,-904.079 1393.39,-911.974 1392.79,-901.396 1386.33,-904.079"/>
<text text-anchor="middle" x="1418" y="-882.201" font-family="Times,serif" font-size="14.00">provided</text>
</g>
<!-- base -->
<g id="node5" class="node"><title>base</title>
<ellipse fill="#ffffdd" stroke="darkgreen" cx="1369" cy="-728.791" rx="70.922" ry="26.7407"/>
<text text-anchor="middle" x="1369" y="-732.591" font-family="Times,serif" font-size="14.00">[aggregate]</text>
<text text-anchor="middle" x="1369" y="-717.591" font-family="Times,serif" font-size="14.00">base</text>
</g>
<!-- base&#45;&gt;baseMacro -->
<g id="edge58" class="edge"><title>base&#45;&gt;baseMacro</title>
<path fill="none" stroke="#aaaaaa" stroke-dasharray="5,2" d="M1334.02,-752.345C1310.21,-770.715 1283,-799.035 1283,-832.531 1283,-832.531 1283,-832.531 1283,-1030.01 1283,-1053.63 1298.68,-1074.2 1315.71,-1089.58"/>
<polygon fill="#aaaaaa" stroke="#aaaaaa" points="1323.57,-1096.27 1313.04,-1093.22 1319.76,-1093.03 1315.96,-1089.79 1315.96,-1089.79 1315.96,-1089.79 1319.76,-1093.03 1318.87,-1086.36 1323.57,-1096.27 1323.57,-1096.27"/>
</g>
<!-- base&#45;&gt;baseUtil -->
<g id="edge55" class="edge"><title>base&#45;&gt;baseUtil</title>
<path fill="none" stroke="#aaaaaa" stroke-dasharray="5,2" d="M1408.7,-751.043C1428.22,-764.081 1449.37,-782.86 1458,-806.661 1473.9,-850.523 1463.44,-864.772 1465,-911.401 1465.92,-938.826 1478.25,-949.114 1465,-973.141 1457.85,-986.1 1446.21,-996.419 1433.74,-1004.45"/>
<polygon fill="#aaaaaa" stroke="#aaaaaa" points="1425.02,-1009.65 1431.31,-1000.66 1429.32,-1007.09 1433.61,-1004.53 1433.61,-1004.53 1433.61,-1004.53 1429.32,-1007.09 1435.92,-1008.39 1425.02,-1009.65 1425.02,-1009.65"/>
</g>
<!-- base&#45;&gt;baseDb -->
<g id="edge56" class="edge"><title>base&#45;&gt;baseDb</title>
<path fill="none" stroke="#aaaaaa" stroke-dasharray="5,2" d="M1401.13,-753.115C1417.28,-766.759 1435.41,-785.457 1445,-806.661 1460.91,-841.847 1465,-857.82 1450,-893.401 1447.72,-898.811 1444.41,-903.885 1440.6,-908.525"/>
<polygon fill="#aaaaaa" stroke="#aaaaaa" points="1433.82,-915.908 1437.27,-905.499 1437.2,-912.225 1440.59,-908.543 1440.59,-908.543 1440.59,-908.543 1437.2,-912.225 1443.9,-911.586 1433.82,-915.908 1433.82,-915.908"/>
</g>
<!-- base&#45;&gt;baseTest -->
<g id="edge57" class="edge"><title>base&#45;&gt;baseTest</title>
<path fill="none" stroke="#aaaaaa" stroke-dasharray="5,2" d="M1369,-755.717C1369,-768.006 1369,-782.895 1369,-796.28"/>
<polygon fill="#aaaaaa" stroke="#aaaaaa" points="1369,-806.614 1364.5,-796.614 1369,-801.614 1369,-796.614 1369,-796.614 1369,-796.614 1369,-801.614 1373.5,-796.614 1369,-806.614 1369,-806.614"/>
</g>
<!-- taskmanDb -->
<g id="node6" class="node"><title>taskmanDb</title>
<ellipse fill="#ffffff" stroke="black" cx="1622" cy="-833.531" rx="122.379" ry="18"/>
<text text-anchor="middle" x="1622" y="-829.831" font-family="Times,serif" font-size="14.00">taskman&#45;server&#45;schema</text>
</g>
<!-- taskmanDb&#45;&gt;baseDb -->
<g id="edge5" class="edge"><title>taskmanDb&#45;&gt;baseDb</title>
<path fill="none" stroke="#cc0000" d="M1587.62,-850.811C1550.81,-868.238 1492.2,-895.987 1451.34,-915.333"/>
<polygon fill="#cc0000" stroke="#cc0000" points="1449.67,-912.249 1442.13,-919.692 1452.67,-918.576 1449.67,-912.249"/>
</g>
<!-- taskmanServerLogic -->
<g id="node7" class="node"><title>taskmanServerLogic</title>
<ellipse fill="#ffffff" stroke="black" cx="1839" cy="-728.791" rx="108.581" ry="18"/>
<text text-anchor="middle" x="1839" y="-725.091" font-family="Times,serif" font-size="14.00">taskman&#45;server&#45;logic</text>
</g>
<!-- taskmanApiLogic -->
<g id="node9" class="node"><title>taskmanApiLogic</title>
<ellipse fill="#ffffff" stroke="black" cx="1855" cy="-833.531" rx="92.8835" ry="18"/>
<text text-anchor="middle" x="1855" y="-829.831" font-family="Times,serif" font-size="14.00">taskman&#45;api&#45;logic</text>
</g>
<!-- taskmanServerLogic&#45;&gt;taskmanApiLogic -->
<g id="edge12" class="edge"><title>taskmanServerLogic&#45;&gt;taskmanApiLogic</title>
<path fill="none" stroke="#cc0000" d="M1841.71,-747.219C1844.19,-763.108 1847.88,-786.838 1850.75,-805.24"/>
<polygon fill="#cc0000" stroke="#cc0000" points="1847.33,-806.018 1852.33,-815.36 1854.25,-804.941 1847.33,-806.018"/>
</g>
<!-- taskmanApi -->
<g id="node8" class="node"><title>taskmanApi</title>
<ellipse fill="#ffffff" stroke="black" cx="1645" cy="-728.791" rx="67.6881" ry="18"/>
<text text-anchor="middle" x="1645" y="-725.091" font-family="Times,serif" font-size="14.00">taskman&#45;api</text>
</g>
<!-- taskmanApi&#45;&gt;baseDb -->
<g id="edge8" class="edge"><title>taskmanApi&#45;&gt;baseDb</title>
<path fill="none" stroke="#cc0000" d="M1682.56,-743.762C1694.71,-747.963 1708.33,-752.334 1721,-755.661 1831.99,-784.798 2032.34,-773.842 1957,-860.401 1925.08,-897.078 1602.95,-923.551 1466.04,-933.232"/>
<polygon fill="#cc0000" stroke="#cc0000" points="1465.46,-929.764 1455.73,-933.954 1465.95,-936.747 1465.46,-929.764"/>
</g>
<!-- taskmanApi&#45;&gt;baseTest -->
<g id="edge11" class="edge"><title>taskmanApi&#45;&gt;baseTest</title>
<path fill="none" stroke="#111111" stroke-dasharray="5,2" d="M1607.2,-743.861C1560.55,-761.229 1480.73,-790.938 1426.47,-811.137"/>
<polygon fill="#111111" stroke="#111111" points="1425.14,-807.899 1416.99,-814.668 1427.58,-814.459 1425.14,-807.899"/>
<text text-anchor="middle" x="1538" y="-777.461" font-family="Times,serif" font-size="14.00">test</text>
</g>
<!-- taskmanApi&#45;&gt;taskmanDb -->
<g id="edge10" class="edge"><title>taskmanApi&#45;&gt;taskmanDb</title>
<path fill="none" stroke="#111111" stroke-dasharray="5,2" d="M1641.1,-747.219C1637.52,-763.182 1632.18,-787.06 1628.05,-805.498"/>
<polygon fill="#111111" stroke="#111111" points="1624.61,-804.837 1625.84,-815.36 1631.44,-806.366 1624.61,-804.837"/>
<text text-anchor="middle" x="1649" y="-777.461" font-family="Times,serif" font-size="14.00">test</text>
</g>
<!-- taskmanApi&#45;&gt;taskmanApiLogic -->
<g id="edge7" class="edge"><title>taskmanApi&#45;&gt;taskmanApiLogic</title>
<path fill="none" stroke="#cc0000" d="M1668.93,-745.716C1688.39,-758.284 1716.82,-775.783 1743,-788.661 1761.92,-797.965 1783.33,-806.753 1802.33,-813.985"/>
<polygon fill="#cc0000" stroke="#cc0000" points="1801.13,-817.276 1811.73,-817.512 1803.59,-810.722 1801.13,-817.276"/>
</g>
<!-- taskmanApi&#45;&gt;taskmanApiLogic -->
<g id="edge9" class="edge"><title>taskmanApi&#45;&gt;taskmanApiLogic</title>
<path fill="none" stroke="#111111" stroke-dasharray="5,2" d="M1675.99,-744.951C1712.4,-762.764 1772.97,-792.398 1813.43,-812.196"/>
<polygon fill="#111111" stroke="#111111" points="1811.98,-815.382 1822.5,-816.633 1815.06,-809.094 1811.98,-815.382"/>
<text text-anchor="middle" x="1787.5" y="-777.461" font-family="Times,serif" font-size="14.00">test&#45;lib</text>
</g>
<!-- taskmanApiLogic&#45;&gt;baseUtil -->
<g id="edge6" class="edge"><title>taskmanApiLogic&#45;&gt;baseUtil</title>
<path fill="none" stroke="#cc0000" d="M1816.77,-850.037C1732.69,-884.143 1531.41,-965.787 1433.44,-1005.52"/>
<polygon fill="#cc0000" stroke="#cc0000" points="1431.96,-1002.35 1424.01,-1009.35 1434.59,-1008.83 1431.96,-1002.35"/>
</g>
<!-- taskmanServer -->
<g id="node10" class="node"><title>taskmanServer</title>
<ellipse fill="#00ccff" stroke="black" cx="1651" cy="-638.051" rx="83.3857" ry="18"/>
<text text-anchor="middle" x="1651" y="-634.351" font-family="Times,serif" font-size="14.00">taskman&#45;server</text>
</g>
<!-- taskmanServer&#45;&gt;taskmanDb -->
<g id="edge15" class="edge"><title>taskmanServer&#45;&gt;taskmanDb</title>
<path fill="none" stroke="#cc0000" d="M1612.63,-654.27C1595.73,-663.13 1577.57,-676.12 1568,-693.921 1555.01,-718.089 1559.73,-729.497 1568,-755.661 1574.12,-775.03 1587.07,-793.748 1598.75,-807.864"/>
<polygon fill="#cc0000" stroke="#cc0000" points="1596.25,-810.318 1605.42,-815.613 1601.55,-805.751 1596.25,-810.318"/>
</g>
<!-- taskmanServer&#45;&gt;taskmanServerLogic -->
<g id="edge13" class="edge"><title>taskmanServer&#45;&gt;taskmanServerLogic</title>
<path fill="none" stroke="#cc0000" d="M1684.18,-654.712C1715.2,-669.356 1761.72,-691.314 1795.67,-707.337"/>
<polygon fill="#cc0000" stroke="#cc0000" points="1794.35,-710.584 1804.88,-711.688 1797.34,-704.254 1794.35,-710.584"/>
</g>
<!-- taskmanServer&#45;&gt;taskmanApi -->
<g id="edge14" class="edge"><title>taskmanServer&#45;&gt;taskmanApi</title>
<path fill="none" stroke="#cc0000" d="M1649.84,-656.161C1649,-668.683 1647.83,-685.934 1646.85,-700.369"/>
<polygon fill="#cc0000" stroke="#cc0000" points="1643.34,-700.52 1646.15,-710.734 1650.32,-700.992 1643.34,-700.52"/>
</g>
<!-- taskman -->
<g id="node11" class="node"><title>taskman</title>
<ellipse fill="#ffff80" stroke="black" cx="1651" cy="-533.311" rx="70.922" ry="26.7407"/>
<text text-anchor="middle" x="1651" y="-537.111" font-family="Times,serif" font-size="14.00">[aggregate]</text>
<text text-anchor="middle" x="1651" y="-522.111" font-family="Times,serif" font-size="14.00">taskman</text>
</g>
<!-- taskman&#45;&gt;taskmanApi -->
<g id="edge49" class="edge"><title>taskman&#45;&gt;taskmanApi</title>
<path fill="none" stroke="#aaaaaa" stroke-dasharray="5,2" d="M1690.44,-555.899C1710.14,-569.035 1732.07,-587.801 1743,-611.181 1753.12,-632.817 1754.46,-643.963 1743,-664.921 1732.12,-684.827 1711.95,-699.363 1692.72,-709.411"/>
<polygon fill="#aaaaaa" stroke="#aaaaaa" points="1683.69,-713.851 1690.68,-705.398 1688.18,-711.643 1692.67,-709.436 1692.67,-709.436 1692.67,-709.436 1688.18,-711.643 1694.65,-713.474 1683.69,-713.851 1683.69,-713.851"/>
</g>
<!-- taskman&#45;&gt;taskmanServer -->
<g id="edge50" class="edge"><title>taskman&#45;&gt;taskmanServer</title>
<path fill="none" stroke="#aaaaaa" stroke-dasharray="5,2" d="M1651,-560.236C1651,-575.257 1651,-594.159 1651,-609.455"/>
<polygon fill="#aaaaaa" stroke="#aaaaaa" points="1651,-619.847 1646.5,-609.847 1651,-614.847 1651,-609.847 1651,-609.847 1651,-609.847 1651,-614.847 1655.5,-609.847 1651,-619.847 1651,-619.847"/>
</g>
<!-- webappMacro -->
<g id="node12" class="node"><title>webappMacro</title>
<ellipse fill="#ffffff" stroke="black" cx="1130" cy="-938.271" rx="86.0347" ry="26.7407"/>
<text text-anchor="middle" x="1130" y="-942.071" font-family="Times,serif" font-size="14.00">webapp&#45;macro</text>
<text text-anchor="middle" x="1130" y="-927.071" font-family="Times,serif" font-size="14.00">(JVM &amp; JS)</text>
</g>
<!-- webappMacro&#45;&gt;baseUtil -->
<g id="edge16" class="edge"><title>webappMacro&#45;&gt;baseUtil</title>
<path fill="none" stroke="#cc0000" d="M1185.04,-958.966C1224.94,-973.242 1278.8,-992.515 1319.48,-1007.07"/>
<polygon fill="#cc0000" stroke="#cc0000" points="1318.4,-1010.4 1328.99,-1010.48 1320.76,-1003.81 1318.4,-1010.4"/>
</g>
<!-- webappBase -->
<g id="node13" class="node"><title>webappBase</title>
<ellipse fill="#ffffff" stroke="black" cx="1005" cy="-833.531" rx="77.5641" ry="26.7407"/>
<text text-anchor="middle" x="1005" y="-837.331" font-family="Times,serif" font-size="14.00">webapp&#45;base</text>
<text text-anchor="middle" x="1005" y="-822.331" font-family="Times,serif" font-size="14.00">(JVM &amp; JS)</text>
</g>
<!-- webappBase&#45;&gt;webappMacro -->
<g id="edge17" class="edge"><title>webappBase&#45;&gt;webappMacro</title>
<path fill="none" stroke="#cc0000" d="M1034.31,-858.619C1051.73,-872.943 1074.01,-891.252 1092.69,-906.602"/>
<polygon fill="#cc0000" stroke="#cc0000" points="1090.5,-909.332 1100.44,-912.978 1094.94,-903.925 1090.5,-909.332"/>
</g>
<!-- webappBaseMember -->
<g id="node14" class="node"><title>webappBaseMember</title>
<ellipse fill="#ffffff" stroke="black" cx="864" cy="-728.791" rx="122.159" ry="26.7407"/>
<text text-anchor="middle" x="864" y="-732.591" font-family="Times,serif" font-size="14.00">webapp&#45;base&#45;member</text>
<text text-anchor="middle" x="864" y="-717.591" font-family="Times,serif" font-size="14.00">(JVM &amp; JS)</text>
</g>
<!-- webappBaseMember&#45;&gt;webappBase -->
<g id="edge22" class="edge"><title>webappBaseMember&#45;&gt;webappBase</title>
<path fill="none" stroke="#cc0000" d="M898.132,-754.661C918.135,-769.236 943.516,-787.73 964.523,-803.038"/>
<polygon fill="#cc0000" stroke="#cc0000" points="962.492,-805.888 972.635,-808.948 966.614,-800.231 962.492,-805.888"/>
</g>
<!-- webappServerLogic -->
<g id="node15" class="node"><title>webappServerLogic</title>
<ellipse fill="#ffffff" stroke="black" cx="1040" cy="-389.831" rx="113.689" ry="26.7407"/>
<text text-anchor="middle" x="1040" y="-393.631" font-family="Times,serif" font-size="14.00">webapp&#45;server&#45;logic</text>
<text text-anchor="middle" x="1040" y="-378.631" font-family="Times,serif" font-size="14.00">(JVM &amp; JS)</text>
</g>
<!-- webappServerLogic&#45;&gt;taskmanApiLogic -->
<g id="edge19" class="edge"><title>webappServerLogic&#45;&gt;taskmanApiLogic</title>
<path fill="none" stroke="#cc0000" d="M1108.57,-411.384C1163.07,-429.514 1239.88,-459.167 1300,-498.441 1438.22,-588.73 1434.64,-658.344 1568,-755.661 1592.9,-773.83 1599.74,-778.964 1629,-788.661 1681.86,-806.18 1698.38,-795.801 1753,-806.661 1766.28,-809.301 1780.42,-812.581 1793.81,-815.909"/>
<polygon fill="#cc0000" stroke="#cc0000" points="1793.32,-819.395 1803.87,-818.453 1795.03,-812.609 1793.32,-819.395"/>
</g>
<!-- webappServerLogic&#45;&gt;webappBase -->
<g id="edge18" class="edge"><title>webappServerLogic&#45;&gt;webappBase</title>
<path fill="none" stroke="#cc0000" d="M1057.87,-416.74C1070.19,-438.124 1081.64,-468.148 1065,-488.441 1050.63,-505.966 1030.35,-481.773 1015,-498.441 988.856,-526.82 1005,-546.095 1005,-584.681 1005,-584.681 1005,-584.681 1005,-729.791 1005,-751.865 1005,-776.608 1005,-796.28"/>
<polygon fill="#cc0000" stroke="#cc0000" points="1001.5,-796.35 1005,-806.35 1008.5,-796.35 1001.5,-796.35"/>
</g>
<!-- webappClientPublic -->
<g id="node18" class="node"><title>webappClientPublic</title>
<ellipse fill="#00ccff" stroke="black" cx="1141" cy="-533.311" rx="117.26" ry="26.7407"/>
<text text-anchor="middle" x="1141" y="-537.111" font-family="Times,serif" font-size="14.00">webapp&#45;client&#45;public</text>
<text text-anchor="middle" x="1141" y="-522.111" font-family="Times,serif" font-size="14.00">(JVM &amp; JS)</text>
</g>
<!-- webappServerLogic&#45;&gt;webappClientPublic -->
<g id="edge20" class="edge"><title>webappServerLogic&#45;&gt;webappClientPublic</title>
<path fill="none" stroke="#cc0000" d="M1061.07,-416.548C1065.75,-422.444 1070.61,-428.735 1075,-434.701 1090.17,-455.331 1106.28,-479.124 1118.79,-498.054"/>
<polygon fill="#cc0000" stroke="#cc0000" points="1116.03,-500.219 1124.45,-506.65 1121.87,-496.372 1116.03,-500.219"/>
</g>
<!-- webappBaseTest -->
<g id="node23" class="node"><title>webappBaseTest</title>
<ellipse fill="white" stroke="blue" cx="866" cy="-638.051" rx="100.318" ry="26.7407"/>
<text text-anchor="middle" x="866" y="-641.851" font-family="Times,serif" font-size="14.00">webapp&#45;base&#45;test</text>
<text text-anchor="middle" x="866" y="-626.851" font-family="Times,serif" font-size="14.00">(JVM &amp; JS)</text>
</g>
<!-- webappServerLogic&#45;&gt;webappBaseTest -->
<g id="edge21" class="edge"><title>webappServerLogic&#45;&gt;webappBaseTest</title>
<path fill="none" stroke="#111111" stroke-dasharray="5,2" d="M936.16,-400.943C892.358,-407.558 848.388,-418.145 835,-434.701 819.982,-453.273 823.142,-467.708 835,-488.441 839.352,-496.05 847.271,-491.06 852,-498.441 871.552,-528.954 873.013,-571.232 870.862,-601.05"/>
<polygon fill="#111111" stroke="#111111" points="867.373,-600.767 869.974,-611.038 874.346,-601.387 867.373,-600.767"/>
<text text-anchor="middle" x="885" y="-529.611" font-family="Times,serif" font-size="14.00">test</text>
</g>
<!-- webappClientWwApi -->
<g id="node16" class="node"><title>webappClientWwApi</title>
<ellipse fill="#ffffff" stroke="black" cx="626" cy="-638.051" rx="121.745" ry="26.7407"/>
<text text-anchor="middle" x="626" y="-641.851" font-family="Times,serif" font-size="14.00">webapp&#45;client&#45;ww&#45;api</text>
<text text-anchor="middle" x="626" y="-626.851" font-family="Times,serif" font-size="14.00">(JS)</text>
</g>
<!-- webappClientWwApi&#45;&gt;webappBaseMember -->
<g id="edge29" class="edge"><title>webappClientWwApi&#45;&gt;webappBaseMember</title>
<path fill="none" stroke="#cc0000" d="M686.057,-661.444C718.91,-673.693 759.781,-688.932 794.065,-701.715"/>
<polygon fill="#cc0000" stroke="#cc0000" points="792.956,-705.037 803.548,-705.251 795.401,-698.478 792.956,-705.037"/>
</g>
<!-- webappGen -->
<g id="node17" class="node"><title>webappGen</title>
<ellipse fill="#ffffff" stroke="black" cx="731" cy="-389.831" rx="72.6644" ry="26.7407"/>
<text text-anchor="middle" x="731" y="-393.631" font-family="Times,serif" font-size="14.00">webapp&#45;gen</text>
<text text-anchor="middle" x="731" y="-378.631" font-family="Times,serif" font-size="14.00">(JVM &amp; JS)</text>
</g>
<!-- webappGen&#45;&gt;webappBaseMember -->
<g id="edge34" class="edge"><title>webappGen&#45;&gt;webappBaseMember</title>
<path fill="none" stroke="#cc0000" d="M697.812,-414.025C689.67,-420.336 681.225,-427.445 674,-434.701 652.802,-455.988 659.306,-473.931 633,-488.441 611.12,-500.509 539.842,-482.028 521,-498.441 519.788,-499.496 495.182,-609.584 495,-611.181 492.299,-634.912 479.595,-646.669 495,-664.921 525.433,-700.977 640.064,-716.357 733.583,-722.917"/>
<polygon fill="#cc0000" stroke="#cc0000" points="733.504,-726.419 743.717,-723.599 733.975,-719.435 733.504,-726.419"/>
</g>
<!-- webappClientProject -->
<g id="node21" class="node"><title>webappClientProject</title>
<ellipse fill="#00ccff" stroke="black" cx="652" cy="-533.311" rx="122.159" ry="26.7407"/>
<text text-anchor="middle" x="652" y="-537.111" font-family="Times,serif" font-size="14.00">webapp&#45;client&#45;project</text>
<text text-anchor="middle" x="652" y="-522.111" font-family="Times,serif" font-size="14.00">(JS)</text>
</g>
<!-- webappGen&#45;&gt;webappClientProject -->
<g id="edge35" class="edge"><title>webappGen&#45;&gt;webappClientProject</title>
<path fill="none" stroke="#111111" stroke-dasharray="5,2" d="M716.694,-416.452C704.021,-439.146 685.412,-472.474 671.401,-497.566"/>
<polygon fill="#111111" stroke="#111111" points="668.286,-495.965 666.467,-506.402 674.398,-499.378 668.286,-495.965"/>
<text text-anchor="middle" x="718.5" y="-457.871" font-family="Times,serif" font-size="14.00">run</text>
</g>
<!-- webappGen&#45;&gt;webappBaseTest -->
<g id="edge36" class="edge"><title>webappGen&#45;&gt;webappBaseTest</title>
<path fill="none" stroke="#111111" stroke-dasharray="5,2" d="M744.939,-416.253C769.292,-460.67 819.607,-552.436 847.082,-602.547"/>
<polygon fill="#111111" stroke="#111111" points="844.058,-604.312 851.935,-611.398 850.196,-600.947 844.058,-604.312"/>
<text text-anchor="middle" x="837" y="-529.611" font-family="Times,serif" font-size="14.00">test</text>
</g>
<!-- webappClientPublic&#45;&gt;webappBase -->
<g id="edge27" class="edge"><title>webappClientPublic&#45;&gt;webappBase</title>
<path fill="none" stroke="#cc0000" d="M1129.17,-560.254C1104.69,-613.925 1048.48,-737.18 1020.88,-797.705"/>
<polygon fill="#cc0000" stroke="#cc0000" points="1017.67,-796.309 1016.71,-806.86 1024.04,-799.214 1017.67,-796.309"/>
</g>
<!-- webappClientPublic&#45;&gt;webappBaseTest -->
<g id="edge28" class="edge"><title>webappClientPublic&#45;&gt;webappBaseTest</title>
<path fill="none" stroke="#111111" stroke-dasharray="5,2" d="M1081.33,-556.604C1037.38,-573.023 977.615,-595.351 932.198,-612.319"/>
<polygon fill="#111111" stroke="#111111" points="930.878,-609.076 922.735,-615.855 933.328,-615.633 930.878,-609.076"/>
<text text-anchor="middle" x="1034" y="-581.981" font-family="Times,serif" font-size="14.00">test</text>
</g>
<!-- webappClientHome -->
<g id="node19" class="node"><title>webappClientHome</title>
<ellipse fill="#00ccff" stroke="black" cx="950" cy="-461.571" rx="113.689" ry="26.7407"/>
<text text-anchor="middle" x="950" y="-465.371" font-family="Times,serif" font-size="14.00">webapp&#45;client&#45;home</text>
<text text-anchor="middle" x="950" y="-450.371" font-family="Times,serif" font-size="14.00">(JS)</text>
</g>
<!-- webappClientHome&#45;&gt;webappBaseMember -->
<g id="edge25" class="edge"><title>webappClientHome&#45;&gt;webappBaseMember</title>
<path fill="none" stroke="#cc0000" d="M963.608,-488.396C964.944,-491.709 966.125,-495.108 967,-498.441 985.808,-570.09 1012.3,-600.922 975,-664.921 966.19,-680.036 952.247,-691.81 937.179,-700.864"/>
<polygon fill="#cc0000" stroke="#cc0000" points="935.224,-697.947 928.207,-705.886 938.643,-704.056 935.224,-697.947"/>
</g>
<!-- webappClientHome&#45;&gt;webappBaseTest -->
<g id="edge26" class="edge"><title>webappClientHome&#45;&gt;webappBaseTest</title>
<path fill="none" stroke="#111111" stroke-dasharray="5,2" d="M938.812,-488.443C930.144,-508.224 917.683,-536.098 906,-560.181 899.29,-574.014 891.563,-589.052 884.7,-602.13"/>
<polygon fill="#111111" stroke="#111111" points="881.453,-600.783 879.882,-611.26 887.644,-604.049 881.453,-600.783"/>
<text text-anchor="middle" x="949" y="-529.611" font-family="Times,serif" font-size="14.00">test</text>
</g>
<!-- webappClientWw -->
<g id="node20" class="node"><title>webappClientWw</title>
<ellipse fill="#00ccff" stroke="black" cx="529" cy="-461.571" rx="103.476" ry="26.7407"/>
<text text-anchor="middle" x="529" y="-465.371" font-family="Times,serif" font-size="14.00">webapp&#45;client&#45;ww</text>
<text text-anchor="middle" x="529" y="-450.371" font-family="Times,serif" font-size="14.00">(JS)</text>
</g>
<!-- webappClientWw&#45;&gt;webappClientWwApi -->
<g id="edge30" class="edge"><title>webappClientWw&#45;&gt;webappClientWwApi</title>
<path fill="none" stroke="#cc0000" d="M459.487,-481.683C452.632,-486.147 446.544,-491.652 442,-498.441 426.736,-521.244 434.617,-533.753 442,-560.181 450.864,-591.909 478.561,-610.671 509.865,-621.722"/>
<polygon fill="#cc0000" stroke="#cc0000" points="509.087,-625.149 519.679,-624.91 511.25,-618.492 509.087,-625.149"/>
</g>
<!-- webappClientWw&#45;&gt;webappBaseTest -->
<g id="edge31" class="edge"><title>webappClientWw&#45;&gt;webappBaseTest</title>
<path fill="none" stroke="#111111" stroke-dasharray="5,2" d="M499.539,-487.384C496.905,-490.824 494.624,-494.53 493,-498.441 482.476,-523.782 475.534,-539.017 493,-560.181 569.066,-652.348 640.171,-586.044 757,-611.181 765.565,-613.024 774.491,-615.019 783.386,-617.056"/>
<polygon fill="#111111" stroke="#111111" points="782.862,-620.527 793.393,-619.368 784.438,-613.707 782.862,-620.527"/>
<text text-anchor="middle" x="507" y="-529.611" font-family="Times,serif" font-size="14.00">test</text>
</g>
<!-- webappClientProject&#45;&gt;webappClientWwApi -->
<g id="edge32" class="edge"><title>webappClientProject&#45;&gt;webappClientWwApi</title>
<path fill="none" stroke="#cc0000" d="M645.439,-560.236C642.298,-572.647 638.487,-587.709 635.073,-601.197"/>
<polygon fill="#cc0000" stroke="#cc0000" points="631.619,-600.58 632.559,-611.133 638.405,-602.298 631.619,-600.58"/>
</g>
<!-- webappClientProject&#45;&gt;webappBaseTest -->
<g id="edge33" class="edge"><title>webappClientProject&#45;&gt;webappBaseTest</title>
<path fill="none" stroke="#111111" stroke-dasharray="5,2" d="M701.365,-558.01C733.521,-573.448 775.576,-593.639 809.132,-609.749"/>
<polygon fill="#111111" stroke="#111111" points="807.826,-613.004 818.355,-614.177 810.855,-606.694 807.826,-613.004"/>
<text text-anchor="middle" x="786" y="-581.981" font-family="Times,serif" font-size="14.00">test</text>
</g>
<!-- webappServer -->
<g id="node22" class="node"><title>webappServer</title>
<ellipse fill="#00ccff" stroke="black" cx="809" cy="-299.09" rx="79.0865" ry="18"/>
<text text-anchor="middle" x="809" y="-295.39" font-family="Times,serif" font-size="14.00">webapp&#45;server</text>
</g>
<!-- webappServer&#45;&gt;taskmanApi -->
<g id="edge37" class="edge"><title>webappServer&#45;&gt;taskmanApi</title>
<path fill="none" stroke="#cc0000" d="M887.577,-301.525C1076.38,-306.014 1540,-323.671 1540,-388.831 1540,-388.831 1540,-388.831 1540,-639.051 1540,-671.645 1569.88,-694.717 1597.76,-709.151"/>
<polygon fill="#cc0000" stroke="#cc0000" points="1596.57,-712.466 1607.09,-713.716 1599.65,-706.178 1596.57,-712.466"/>
</g>
<!-- webappServer&#45;&gt;webappServerLogic -->
<g id="edge38" class="edge"><title>webappServer&#45;&gt;webappServerLogic</title>
<path fill="none" stroke="#cc0000" d="M836.645,-316.204C853.205,-325.425 874.885,-336.755 895,-344.96 914.551,-352.936 936.101,-360.224 956.472,-366.471"/>
<polygon fill="#cc0000" stroke="#cc0000" points="955.465,-369.823 966.049,-369.36 957.486,-363.121 955.465,-369.823"/>
</g>
<!-- webappServer&#45;&gt;webappGen -->
<g id="edge39" class="edge"><title>webappServer&#45;&gt;webappGen</title>
<path fill="none" stroke="#cc0000" d="M794.329,-316.782C784.516,-327.946 771.282,-343.002 759.449,-356.464"/>
<polygon fill="#cc0000" stroke="#cc0000" points="756.654,-354.343 752.68,-364.165 761.911,-358.965 756.654,-354.343"/>
</g>
<!-- webappServer&#45;&gt;webappClientPublic -->
<g id="edge40" class="edge"><title>webappServer&#45;&gt;webappClientPublic</title>
<path fill="none" stroke="#cc0000" stroke-dasharray="5,2" d="M886.785,-302.645C980.141,-307.538 1128.47,-321.757 1163,-362.96 1194.29,-400.299 1176.35,-459.475 1159.48,-497.072"/>
<polygon fill="#cc0000" stroke="#cc0000" points="1156.09,-496.063 1155.03,-506.604 1162.43,-499.029 1156.09,-496.063"/>
</g>
<!-- webappServer&#45;&gt;webappClientHome -->
<g id="edge41" class="edge"><title>webappServer&#45;&gt;webappClientHome</title>
<path fill="none" stroke="#cc0000" stroke-dasharray="5,2" d="M821.161,-316.986C838.223,-340.292 870.698,-383.22 902,-416.701 905.71,-420.669 909.722,-424.696 913.791,-428.619"/>
<polygon fill="#cc0000" stroke="#cc0000" points="911.446,-431.219 921.123,-435.533 916.249,-426.126 911.446,-431.219"/>
</g>
<!-- webappServer&#45;&gt;webappClientWw -->
<g id="edge43" class="edge"><title>webappServer&#45;&gt;webappClientWw</title>
<path fill="none" stroke="#cc0000" stroke-dasharray="5,2" d="M763.144,-313.904C730.185,-324.82 685.337,-341.736 649,-362.96 617.332,-381.457 585.303,-407.996 562.309,-428.734"/>
<polygon fill="#cc0000" stroke="#cc0000" points="559.896,-426.197 554.871,-435.524 564.616,-431.367 559.896,-426.197"/>
</g>
<!-- webappServer&#45;&gt;webappClientProject -->
<g id="edge42" class="edge"><title>webappServer&#45;&gt;webappClientProject</title>
<path fill="none" stroke="#cc0000" stroke-dasharray="5,2" d="M814.024,-317.171C819.981,-340.693 827.41,-383.869 813,-416.701 795.215,-457.223 754.669,-486.207 718.719,-505.02"/>
<polygon fill="#cc0000" stroke="#cc0000" points="717.038,-501.948 709.694,-509.584 720.197,-508.194 717.038,-501.948"/>
</g>
<!-- webappBaseTest&#45;&gt;baseTest -->
<g id="edge23" class="edge"><title>webappBaseTest&#45;&gt;baseTest</title>
<path fill="none" stroke="#111111" d="M921.752,-660.496C1018.17,-697.583 1215.04,-773.309 1312.19,-810.678"/>
<polygon fill="#111111" stroke="#111111" points="1310.96,-813.957 1321.55,-814.281 1313.48,-807.424 1310.96,-813.957"/>
</g>
<!-- webappBaseTest&#45;&gt;webappBaseMember -->
<g id="edge24" class="edge"><title>webappBaseTest&#45;&gt;webappBaseMember</title>
<path fill="none" stroke="#111111" d="M865.411,-665.196C865.224,-673.501 865.013,-682.836 864.813,-691.713"/>
<polygon fill="#111111" stroke="#111111" points="861.311,-691.756 864.585,-701.833 868.31,-691.914 861.311,-691.756"/>
</g>
<!-- webapp -->
<g id="node24" class="node"><title>webapp</title>
<ellipse fill="#ffff80" stroke="blue" cx="639" cy="-208.35" rx="70.922" ry="26.7407"/>
<text text-anchor="middle" x="639" y="-212.15" font-family="Times,serif" font-size="14.00">[aggregate]</text>
<text text-anchor="middle" x="639" y="-197.15" font-family="Times,serif" font-size="14.00">webapp</text>
</g>
<!-- webapp&#45;&gt;webappClientHome -->
<g id="edge52" class="edge"><title>webapp&#45;&gt;webappClientHome</title>
<path fill="none" stroke="#aaaaaa" stroke-dasharray="5,2" d="M706.125,-217.132C773.804,-226.42 871.775,-244.296 897,-272.22 940.455,-320.325 892.28,-356.773 917,-416.701 918.349,-419.971 920.001,-423.216 921.84,-426.374"/>
<polygon fill="#aaaaaa" stroke="#aaaaaa" points="927.418,-434.99 918.206,-429.042 924.701,-430.793 921.983,-426.596 921.983,-426.596 921.983,-426.596 924.701,-430.793 925.761,-424.15 927.418,-434.99 927.418,-434.99"/>
</g>
<!-- webapp&#45;&gt;webappClientWw -->
<g id="edge54" class="edge"><title>webapp&#45;&gt;webappClientWw</title>
<path fill="none" stroke="#aaaaaa" stroke-dasharray="5,2" d="M627.642,-235.289C607.788,-280.632 566.759,-374.336 544.38,-425.446"/>
<polygon fill="#aaaaaa" stroke="#aaaaaa" points="540.296,-434.773 540.185,-423.808 542.301,-430.193 544.307,-425.613 544.307,-425.613 544.307,-425.613 542.301,-430.193 548.429,-427.418 540.296,-434.773 540.296,-434.773"/>
</g>
<!-- webapp&#45;&gt;webappClientProject -->
<g id="edge51" class="edge"><title>webapp&#45;&gt;webappClientProject</title>
<path fill="none" stroke="#aaaaaa" stroke-dasharray="5,2" d="M640.042,-235.234C642.348,-292.516 647.887,-430.139 650.538,-495.998"/>
<polygon fill="#aaaaaa" stroke="#aaaaaa" points="650.953,-506.304 646.055,-496.493 650.752,-501.308 650.551,-496.312 650.551,-496.312 650.551,-496.312 650.752,-501.308 655.047,-496.131 650.953,-506.304 650.953,-506.304"/>
</g>
<!-- webapp&#45;&gt;webappServer -->
<g id="edge53" class="edge"><title>webapp&#45;&gt;webappServer</title>
<path fill="none" stroke="#aaaaaa" stroke-dasharray="5,2" d="M679.719,-230.606C707.046,-244.871 742.845,-263.558 769.841,-277.65"/>
<polygon fill="#aaaaaa" stroke="#aaaaaa" points="778.995,-282.428 768.048,-281.789 774.562,-280.114 770.13,-277.8 770.13,-277.8 770.13,-277.8 774.562,-280.114 772.212,-273.811 778.995,-282.428 778.995,-282.428"/>
</g>
<!-- benchmark -->
<g id="node25" class="node"><title>benchmark</title>
<ellipse fill="#ffffdd" stroke="black" cx="286" cy="-117.61" rx="70.922" ry="26.7407"/>
<text text-anchor="middle" x="286" y="-121.41" font-family="Times,serif" font-size="14.00">[aggregate]</text>
<text text-anchor="middle" x="286" y="-106.41" font-family="Times,serif" font-size="14.00">benchmark</text>
</g>
<!-- benchmarkJvm -->
<g id="node26" class="node"><title>benchmarkJvm</title>
<ellipse fill="#ffcccc" stroke="black" cx="286" cy="-208.35" rx="86.3847" ry="18"/>
<text text-anchor="middle" x="286" y="-204.65" font-family="Times,serif" font-size="14.00">benchmark JVM</text>
</g>
<!-- benchmark&#45;&gt;benchmarkJvm -->
<g id="edge59" class="edge"><title>benchmark&#45;&gt;benchmarkJvm</title>
<path fill="none" stroke="#aaaaaa" stroke-dasharray="5,2" d="M286,-144.755C286,-155.913 286,-168.933 286,-180.199"/>
<polygon fill="#aaaaaa" stroke="#aaaaaa" points="286,-190.345 281.5,-180.345 286,-185.345 286,-180.345 286,-180.345 286,-180.345 286,-185.345 290.5,-180.345 286,-190.345 286,-190.345"/>
</g>
<!-- benchmarkJs -->
<g id="node27" class="node"><title>benchmarkJs</title>
<ellipse fill="#ffcccc" stroke="black" cx="105" cy="-208.35" rx="76.8869" ry="18"/>
<text text-anchor="middle" x="105" y="-204.65" font-family="Times,serif" font-size="14.00">benchmark JS</text>
</g>
<!-- benchmark&#45;&gt;benchmarkJs -->
<g id="edge60" class="edge"><title>benchmark&#45;&gt;benchmarkJs</title>
<path fill="none" stroke="#aaaaaa" stroke-dasharray="5,2" d="M243.564,-139.416C214.052,-153.884 174.936,-173.062 145.791,-187.352"/>
<polygon fill="#aaaaaa" stroke="#aaaaaa" points="136.703,-191.807 143.701,-183.364 141.193,-189.606 145.682,-187.405 145.682,-187.405 145.682,-187.405 141.193,-189.606 147.663,-191.445 136.703,-191.807 136.703,-191.807"/>
</g>
<!-- benchmarkJvm&#45;&gt;webappServer -->
<g id="edge46" class="edge"><title>benchmarkJvm&#45;&gt;webappServer</title>
<path fill="none" stroke="#cc0000" d="M344.526,-221.711C366.3,-226.17 391.243,-231.111 414,-235.22 525.24,-255.306 654.728,-275.269 734.276,-287.143"/>
<polygon fill="#cc0000" stroke="#cc0000" points="733.796,-290.611 744.203,-288.622 734.828,-283.687 733.796,-290.611"/>
</g>
<!-- benchmarkShared -->
<g id="node28" class="node"><title>benchmarkShared</title>
<ellipse fill="#ffcccc" stroke="black" cx="207" cy="-299.09" rx="69.0935" ry="26.7407"/>
<text text-anchor="middle" x="207" y="-302.89" font-family="Times,serif" font-size="14.00">benchmark</text>
<text text-anchor="middle" x="207" y="-287.89" font-family="Times,serif" font-size="14.00">base</text>
</g>
<!-- benchmarkJvm&#45;&gt;benchmarkShared -->
<g id="edge44" class="edge"><title>benchmarkJvm&#45;&gt;benchmarkShared</title>
<path fill="none" stroke="#cc0000" d="M270.768,-226.46C260.873,-237.575 247.661,-252.416 235.829,-265.706"/>
<polygon fill="#cc0000" stroke="#cc0000" points="233.094,-263.516 229.058,-273.312 238.322,-268.171 233.094,-263.516"/>
</g>
<!-- benchmarkJs&#45;&gt;webappClientProject -->
<g id="edge47" class="edge"><title>benchmarkJs&#45;&gt;webappClientProject</title>
<path fill="none" stroke="#cc0000" d="M150.085,-223.087C199.947,-238.592 274.655,-262.871 285,-272.22 363.688,-343.34 298.629,-428.306 386,-488.441 411.51,-505.999 494.458,-493.317 525,-498.441 540.415,-501.027 556.673,-504.654 572.219,-508.58"/>
<polygon fill="#cc0000" stroke="#cc0000" points="571.758,-512.076 582.316,-511.195 573.513,-505.299 571.758,-512.076"/>
</g>
<!-- benchmarkJs&#45;&gt;benchmarkShared -->
<g id="edge45" class="edge"><title>benchmarkJs&#45;&gt;benchmarkShared</title>
<path fill="none" stroke="#cc0000" d="M124.185,-226.042C137.576,-237.691 155.838,-253.579 171.806,-267.471"/>
<polygon fill="#cc0000" stroke="#cc0000" points="169.587,-270.18 179.429,-274.103 174.182,-264.899 169.587,-270.18"/>
</g>
<!-- utils -->
<g id="node29" class="node"><title>utils</title>
<ellipse fill="#ffffdd" stroke="black" cx="113" cy="-117.61" rx="31.3957" ry="18"/>
<text text-anchor="middle" x="113" y="-113.91" font-family="Times,serif" font-size="14.00">utils</text>
</g>
<!-- utils&#45;&gt;webappBase -->
<g id="edge48" class="edge"><title>utils&#45;&gt;webappBase</title>
<path fill="none" stroke="#cc0000" d="M85.9337,-126.631C52.5036,-138.404 0,-163.822 0,-207.35 0,-207.35 0,-207.35 0,-729.791 0,-821.539 671.42,-831.943 916.674,-832.683"/>
<polygon fill="#cc0000" stroke="#cc0000" points="916.967,-836.184 926.976,-832.709 916.985,-829.184 916.967,-836.184"/>
</g>
<!-- root -->
<g id="node30" class="node"><title>root</title>
<ellipse fill="#cccccc" stroke="black" cx="400" cy="-26.8701" rx="70.922" ry="26.7407"/>
<text text-anchor="middle" x="400" y="-30.6701" font-family="Times,serif" font-size="14.00">[aggregate]</text>
<text text-anchor="middle" x="400" y="-15.6701" font-family="Times,serif" font-size="14.00">root</text>
</g>
<!-- root&#45;&gt;base -->
<g id="edge61" class="edge"><title>root&#45;&gt;base</title>
<path fill="none" stroke="#aaaaaa" stroke-dasharray="5,2" d="M400,-53.8861C400,-71.5732 400,-95.5036 400,-116.61 400,-116.61 400,-116.61 400,-390.831 400,-434.657 381.051,-459.542 414,-488.441 431.877,-504.121 1250.21,-485.26 1270,-498.441 1274.33,-501.327 1327.93,-629.074 1354.4,-692.632"/>
<polygon fill="#aaaaaa" stroke="#aaaaaa" points="1358.25,-701.887 1350.25,-694.383 1356.33,-697.271 1354.41,-692.654 1354.41,-692.654 1354.41,-692.654 1356.33,-697.271 1358.56,-690.925 1358.25,-701.887 1358.25,-701.887"/>
</g>
<!-- root&#45;&gt;taskman -->
<g id="edge63" class="edge"><title>root&#45;&gt;taskman</title>
<path fill="none" stroke="#aaaaaa" stroke-dasharray="5,2" d="M470.517,-29.3092C729.614,-35.0543 1614,-58.8917 1614,-116.61 1614,-116.61 1614,-116.61 1614,-390.831 1614,-428.076 1626.15,-469.096 1636.53,-497.332"/>
<polygon fill="#aaaaaa" stroke="#aaaaaa" points="1640.1,-506.76 1632.35,-499.004 1638.33,-502.084 1636.55,-497.409 1636.55,-497.409 1636.55,-497.409 1638.33,-502.084 1640.76,-495.814 1640.1,-506.76 1640.1,-506.76"/>
</g>
<!-- root&#45;&gt;webapp -->
<g id="edge62" class="edge"><title>root&#45;&gt;webapp</title>
<path fill="none" stroke="#aaaaaa" stroke-dasharray="5,2" d="M431.245,-51.334C474.574,-83.8726 552.879,-142.676 599.992,-178.056"/>
<polygon fill="#aaaaaa" stroke="#aaaaaa" points="608.126,-184.165 597.427,-181.758 604.128,-181.163 600.13,-178.16 600.13,-178.16 600.13,-178.16 604.128,-181.163 602.832,-174.562 608.126,-184.165 608.126,-184.165"/>
</g>
<!-- root&#45;&gt;benchmark -->
<g id="edge64" class="edge"><title>root&#45;&gt;benchmark</title>
<path fill="none" stroke="#aaaaaa" stroke-dasharray="5,2" d="M369.749,-51.4178C355.724,-62.3355 338.904,-75.4284 324.03,-87.007"/>
<polygon fill="#aaaaaa" stroke="#aaaaaa" points="315.996,-93.2603 321.123,-83.5667 319.942,-90.189 323.887,-87.1177 323.887,-87.1177 323.887,-87.1177 319.942,-90.189 326.652,-90.6687 315.996,-93.2603 315.996,-93.2603"/>
</g>
<!-- root&#45;&gt;utils -->
<g id="edge65" class="edge"><title>root&#45;&gt;utils</title>
<path fill="none" stroke="#aaaaaa" stroke-dasharray="5,2" d="M342.793,-42.8612C303.982,-53.322 251.631,-68 206,-82.7401 186.59,-89.01 165.185,-96.7475 147.809,-103.244"/>
<polygon fill="#aaaaaa" stroke="#aaaaaa" points="138.088,-106.905 145.861,-99.1687 142.768,-105.142 147.447,-103.38 147.447,-103.38 147.447,-103.38 142.768,-105.142 149.033,-107.591 138.088,-106.905 138.088,-106.905"/>
</g>
</g>
</svg>
