<?xml version="1.0" encoding="UTF-8" standalone="no"?>
<!DOCTYPE svg PUBLIC "-//W3C//DTD SVG 1.1//EN"
 "http://www.w3.org/Graphics/SVG/1.1/DTD/svg11.dtd">
<!-- Generated by graphviz version 2.40.1 (20161225.0304)
 -->
<!-- Title: G Pages: 1 -->
<svg width="720pt" height="462pt"
 viewBox="0.00 0.00 720.49 461.58" xmlns="http://www.w3.org/2000/svg" xmlns:xlink="http://www.w3.org/1999/xlink">
<g id="graph0" class="graph" transform="scale(1 1) rotate(0) translate(4 457.5807)">
<title>G</title>
<polygon fill="#ffffff" stroke="transparent" points="-4,4 -4,-457.5807 716.4937,-457.5807 716.4937,4 -4,4"/>
<g id="clust1" class="cluster">
<title>cluster_publicTemplate</title>
<polygon fill="none" stroke="#000000" points="238,-8 238,-445.5807 560,-445.5807 560,-8 238,-8"/>
</g>
<g id="clust3" class="cluster">
<title>cluster_memberTemplate</title>
<polygon fill="none" stroke="#000000" points="8,-152 8,-364.7107 230,-364.7107 230,-152 8,-152"/>
</g>
<!-- Start -->
<g id="node1" class="node">
<title>Start</title>
<ellipse fill="#000000" stroke="#000000" cx="579" cy="-253.9203" rx="11" ry="11"/>
<text text-anchor="middle" x="579" y="-253.6203" font-family="Times,serif" font-size="1.00" fill="#000000">Start</text>
</g>
<!-- LandingPage -->
<g id="node2" class="node">
<title>LandingPage</title>
<ellipse fill="#99ddff" stroke="#000000" cx="641" cy="-178" rx="71.4873" ry="18"/>
<text text-anchor="middle" x="641" y="-174.3" font-family="Times,serif" font-size="14.00" fill="#000000">LandingPage</text>
</g>
<!-- Start&#45;&gt;LandingPage -->
<g id="edge12" class="edge">
<title>Start&#45;&gt;LandingPage</title>
<path fill="none" stroke="#000000" d="M586.1122,-245.2113C594.3016,-235.1832 608.1345,-218.2445 619.8641,-203.8814"/>
<polygon fill="#000000" stroke="#000000" points="626.4686,-195.7939 623.6288,-206.3857 623.306,-199.6667 620.1434,-203.5394 620.1434,-203.5394 620.1434,-203.5394 623.306,-199.6667 616.6579,-200.693 626.4686,-195.7939 626.4686,-195.7939"/>
</g>
<!-- Login -->
<g id="node3" class="node">
<title>Login</title>
<ellipse fill="#99ddff" stroke="#000000" cx="463" cy="-338.7107" rx="89.191" ry="26.7407"/>
<text text-anchor="middle" x="463" y="-342.5107" font-family="Times,serif" font-size="14.00" fill="#000000">Login</text>
<text text-anchor="middle" x="463" y="-327.5107" font-family="Times,serif" font-size="14.00" fill="#000000">ResetPassword</text>
</g>
<!-- LandingPage&#45;&gt;Login -->
<g id="edge13" class="edge">
<title>LandingPage&#45;&gt;Login</title>
<path fill="none" stroke="#000000" d="M637.3838,-196.0805C632.2436,-217.5613 620.9126,-253.3162 599,-275.8406 581.9387,-293.3783 559.0543,-306.516 536.9294,-316.1195"/>
<polygon fill="#000000" stroke="#000000" points="527.513,-320.0214 535.0286,-312.036 532.1321,-318.1073 536.7513,-316.1932 536.7513,-316.1932 536.7513,-316.1932 532.1321,-318.1073 538.4739,-320.3504 527.513,-320.0214 527.513,-320.0214"/>
</g>
<!-- Footer -->
<g id="node13" class="node">
<title>Footer</title>
<ellipse fill="none" stroke="#3388ff" stroke-dasharray="5,2" cx="447" cy="-106" rx="53.8905" ry="18"/>
<text text-anchor="middle" x="447" y="-102.3" font-family="Times,serif" font-size="14.00" fill="#000000">&lt;footer&gt;</text>
</g>
<!-- LandingPage&#45;&gt;Footer -->
<g id="edge11" class="edge">
<title>LandingPage&#45;&gt;Footer</title>
<path fill="none" stroke="#88ccff" stroke-dasharray="5,2" d="M600.8031,-163.0816C569.4224,-151.4351 525.7952,-135.2436 493.018,-123.0789"/>
<polygon fill="#88ccff" stroke="#88ccff" points="483.2197,-119.4424 494.1607,-118.7031 487.9073,-121.1821 492.5949,-122.9219 492.5949,-122.9219 492.5949,-122.9219 487.9073,-121.1821 491.0291,-127.1407 483.2197,-119.4424 483.2197,-119.4424"/>
</g>
<!-- EmailB -->
<g id="node8" class="node">
<title>EmailB</title>
<ellipse fill="none" stroke="#ff0000" stroke-width="2" cx="463" cy="-253.9203" rx="27" ry="21.8409"/>
<text text-anchor="middle" x="463" y="-247.0203" font-family="Times,serif" font-size="28.00" fill="#000000">✉</text>
</g>
<!-- Login&#45;&gt;EmailB -->
<g id="edge17" class="edge">
<title>Login&#45;&gt;EmailB</title>
<path fill="none" stroke="#000000" d="M463,-311.4157C463,-303.3824 463,-294.517 463,-286.2026"/>
<polygon fill="#000000" stroke="#000000" points="463,-276.0699 467.5001,-286.0699 463,-281.0699 463.0001,-286.0699 463.0001,-286.0699 463.0001,-286.0699 463,-281.0699 458.5001,-286.07 463,-276.0699 463,-276.0699"/>
</g>
<!-- Home -->
<g id="node14" class="node">
<title>Home</title>
<ellipse fill="#ffcc88" stroke="#000000" cx="54" cy="-253.9203" rx="38.1938" ry="18"/>
<text text-anchor="middle" x="54" y="-250.2203" font-family="Times,serif" font-size="14.00" fill="#000000">Home</text>
</g>
<!-- Login&#45;&gt;Home -->
<g id="edge19" class="edge">
<title>Login&#45;&gt;Home</title>
<path fill="none" stroke="#000000" d="M398.8503,-320.0085C387.3099,-317.0137 375.3441,-314.1465 364,-311.8406 248.3854,-288.3402 214.1793,-309.1492 101,-275.8406 97.1267,-274.7007 93.1682,-273.2876 89.2732,-271.7318"/>
<polygon fill="#000000" stroke="#000000" points="79.8067,-267.6455 90.7713,-267.4772 84.3973,-269.6271 88.9879,-271.6087 88.9879,-271.6087 88.9879,-271.6087 84.3973,-269.6271 87.2044,-275.7402 79.8067,-267.6455 79.8067,-267.6455"/>
</g>
<!-- Register -->
<g id="node4" class="node">
<title>Register</title>
<ellipse fill="#99ddff" stroke="#000000" cx="305" cy="-338.7107" rx="50.0912" ry="18"/>
<text text-anchor="middle" x="305" y="-335.0107" font-family="Times,serif" font-size="14.00" fill="#000000">Register</text>
</g>
<!-- EmailA -->
<g id="node7" class="node">
<title>EmailA</title>
<ellipse fill="none" stroke="#ff0000" stroke-width="2" cx="303" cy="-253.9203" rx="27" ry="21.8409"/>
<text text-anchor="middle" x="303" y="-247.0203" font-family="Times,serif" font-size="28.00" fill="#000000">✉</text>
</g>
<!-- Register&#45;&gt;EmailA -->
<g id="edge14" class="edge">
<title>Register&#45;&gt;EmailA</title>
<path fill="none" stroke="#000000" d="M304.566,-320.3124C304.3303,-310.3185 304.032,-297.6719 303.7591,-286.1038"/>
<polygon fill="#000000" stroke="#000000" points="303.5182,-275.8903 308.2529,-285.7814 303.6362,-280.889 303.7541,-285.8876 303.7541,-285.8876 303.7541,-285.8876 303.6362,-280.889 299.2554,-285.9937 303.5182,-275.8903 303.5182,-275.8903"/>
</g>
<!-- Register2 -->
<g id="node5" class="node">
<title>Register2</title>
<ellipse fill="#99ddff" stroke="#000000" cx="302" cy="-178" rx="55.7903" ry="18"/>
<text text-anchor="middle" x="302" y="-174.3" font-family="Times,serif" font-size="14.00" fill="#000000">Register2</text>
</g>
<!-- Register2&#45;&gt;Footer -->
<!-- Register2&#45;&gt;Home -->
<g id="edge16" class="edge">
<title>Register2&#45;&gt;Home</title>
<path fill="none" stroke="#000000" d="M258.4435,-189.6011C200.4769,-205.0545 104.7769,-230.6238 101,-232 97.299,-233.3486 93.4903,-234.8764 89.7188,-236.4829"/>
<polygon fill="#000000" stroke="#000000" points="80.5029,-240.5807 87.812,-232.4059 85.0717,-238.5492 89.6404,-236.5177 89.6404,-236.5177 89.6404,-236.5177 85.0717,-238.5492 91.4687,-240.6295 80.5029,-240.5807 80.5029,-240.5807"/>
</g>
<!-- ResetPassword2 -->
<g id="node6" class="node">
<title>ResetPassword2</title>
<ellipse fill="#99ddff" stroke="#000000" cx="464" cy="-178" rx="87.9851" ry="18"/>
<text text-anchor="middle" x="464" y="-174.3" font-family="Times,serif" font-size="14.00" fill="#000000">ResetPassword2</text>
</g>
<!-- ResetPassword2&#45;&gt;Footer -->
<!-- EmailA&#45;&gt;Register2 -->
<g id="edge15" class="edge">
<title>EmailA&#45;&gt;Register2</title>
<path fill="none" stroke="#000000" d="M302.7108,-231.961C302.6053,-223.9551 302.4845,-214.7868 302.3729,-206.307"/>
<polygon fill="#000000" stroke="#000000" points="302.2381,-196.0733 306.8695,-206.0131 302.304,-201.0729 302.3699,-206.0724 302.3699,-206.0724 302.3699,-206.0724 302.304,-201.0729 297.8702,-206.1317 302.2381,-196.0733 302.2381,-196.0733"/>
</g>
<!-- EmailB&#45;&gt;ResetPassword2 -->
<g id="edge18" class="edge">
<title>EmailB&#45;&gt;ResetPassword2</title>
<path fill="none" stroke="#000000" d="M463.2892,-231.961C463.3947,-223.9551 463.5155,-214.7868 463.6271,-206.307"/>
<polygon fill="#000000" stroke="#000000" points="463.7619,-196.0733 468.1298,-206.1317 463.696,-201.0729 463.6301,-206.0724 463.6301,-206.0724 463.6301,-206.0724 463.696,-201.0729 459.1305,-206.0131 463.7619,-196.0733 463.7619,-196.0733"/>
</g>
<!-- About -->
<g id="node9" class="node">
<title>About</title>
<ellipse fill="#99ddff" stroke="#000000" cx="328" cy="-34" rx="38.1938" ry="18"/>
<text text-anchor="middle" x="328" y="-30.3" font-family="Times,serif" font-size="14.00" fill="#000000">About</text>
</g>
<!-- Privacy -->
<g id="node10" class="node">
<title>Privacy</title>
<ellipse fill="#99ddff" stroke="#000000" cx="430" cy="-34" rx="46.2923" ry="18"/>
<text text-anchor="middle" x="430" y="-30.3" font-family="Times,serif" font-size="14.00" fill="#000000">Privacy</text>
</g>
<!-- ToS -->
<g id="node11" class="node">
<title>ToS</title>
<ellipse fill="#99ddff" stroke="#000000" cx="523" cy="-34" rx="28.6953" ry="18"/>
<text text-anchor="middle" x="523" y="-30.3" font-family="Times,serif" font-size="14.00" fill="#000000">ToS</text>
</g>
<!-- Header -->
<g id="node12" class="node">
<title>Header</title>
<ellipse fill="none" stroke="#3388ff" stroke-dasharray="5,2" cx="463" cy="-419.5807" rx="58.4896" ry="18"/>
<text text-anchor="middle" x="463" y="-415.8807" font-family="Times,serif" font-size="14.00" fill="#000000">&lt;header&gt;</text>
</g>
<!-- Header&#45;&gt;LandingPage -->
<g id="edge10" class="edge">
<title>Header&#45;&gt;LandingPage</title>
<path fill="none" stroke="#88ccff" stroke-dasharray="5,2" d="M498.0263,-404.9304C517.8684,-395.547 542.3684,-382.047 561,-365.5807 597.9017,-332.9677 607.2997,-321.3998 626,-275.8406 635.1266,-253.6057 638.758,-226.4622 640.1746,-206.4105"/>
<polygon fill="#88ccff" stroke="#88ccff" points="640.7428,-196.3561 644.6713,-206.5941 640.4606,-201.3481 640.1785,-206.3401 640.1785,-206.3401 640.1785,-206.3401 640.4606,-201.3481 635.6857,-206.0862 640.7428,-196.3561 640.7428,-196.3561"/>
</g>
<!-- Header&#45;&gt;Login -->
<g id="edge1" class="edge">
<title>Header&#45;&gt;Login</title>
<path fill="none" stroke="#88ccff" stroke-dasharray="5,2" d="M463,-401.2301C463,-393.6602 463,-384.6007 463,-375.7588"/>
<polygon fill="#88ccff" stroke="#88ccff" points="463,-365.5813 467.5001,-375.5813 463,-370.5813 463.0001,-375.5813 463.0001,-375.5813 463.0001,-375.5813 463,-370.5813 458.5001,-375.5813 463,-365.5813 463,-365.5813"/>
</g>
<!-- Header&#45;&gt;Register -->
<g id="edge2" class="edge">
<title>Header&#45;&gt;Register</title>
<path fill="none" stroke="#88ccff" stroke-dasharray="5,2" d="M432.536,-403.9882C406.9965,-390.9161 370.4074,-372.1885 342.9642,-358.1421"/>
<polygon fill="#88ccff" stroke="#88ccff" points="334.0371,-353.5729 344.9892,-354.1234 338.488,-355.8511 342.9389,-358.1292 342.9389,-358.1292 342.9389,-358.1292 338.488,-355.8511 340.8885,-362.135 334.0371,-353.5729 334.0371,-353.5729"/>
</g>
<!-- Footer&#45;&gt;About -->
<g id="edge3" class="edge">
<title>Footer&#45;&gt;About</title>
<path fill="none" stroke="#88ccff" stroke-dasharray="5,2" d="M420.8849,-90.1993C403.0478,-79.4071 379.2923,-65.034 360.2707,-53.5251"/>
<polygon fill="#88ccff" stroke="#88ccff" points="351.6317,-48.2982 362.5171,-49.6247 355.9096,-50.8865 360.1876,-53.4749 360.1876,-53.4749 360.1876,-53.4749 355.9096,-50.8865 357.8581,-57.325 351.6317,-48.2982 351.6317,-48.2982"/>
</g>
<!-- Footer&#45;&gt;Privacy -->
<g id="edge4" class="edge">
<title>Footer&#45;&gt;Privacy</title>
<path fill="none" stroke="#88ccff" stroke-dasharray="5,2" d="M442.7102,-87.8314C440.892,-80.131 438.7301,-70.9743 436.7095,-62.4166"/>
<polygon fill="#88ccff" stroke="#88ccff" points="434.3476,-52.4133 441.0252,-61.1116 435.4966,-57.2795 436.6456,-62.1457 436.6456,-62.1457 436.6456,-62.1457 435.4966,-57.2795 432.266,-63.1798 434.3476,-52.4133 434.3476,-52.4133"/>
</g>
<!-- Footer&#45;&gt;ToS -->
<g id="edge5" class="edge">
<title>Footer&#45;&gt;ToS</title>
<path fill="none" stroke="#88ccff" stroke-dasharray="5,2" d="M465.0109,-88.937C475.3537,-79.1386 488.4583,-66.7237 499.5922,-56.1758"/>
<polygon fill="#88ccff" stroke="#88ccff" points="506.9274,-49.2267 502.7627,-59.371 503.2976,-52.6655 499.6678,-56.1042 499.6678,-56.1042 499.6678,-56.1042 503.2976,-52.6655 496.5729,-52.8374 506.9274,-49.2267 506.9274,-49.2267"/>
</g>
<!-- Project -->
<g id="node15" class="node">
<title>Project</title>
<ellipse fill="#ffcc88" stroke="#000000" cx="60" cy="-178" rx="44.393" ry="18"/>
<text text-anchor="middle" x="60" y="-174.3" font-family="Times,serif" font-size="14.00" fill="#000000">Project</text>
</g>
<!-- Home&#45;&gt;Project -->
<g id="edge20" class="edge">
<title>Home&#45;&gt;Project</title>
<path fill="none" stroke="#000000" d="M55.4219,-235.9283C56.1192,-227.105 56.9755,-216.2697 57.7582,-206.3667"/>
<polygon fill="#000000" stroke="#000000" points="58.5675,-196.126 62.2656,-206.4495 58.1735,-201.1105 57.7796,-206.0949 57.7796,-206.0949 57.7796,-206.0949 58.1735,-201.1105 53.2935,-205.7404 58.5675,-196.126 58.5675,-196.126"/>
</g>
<!-- HeaderM -->
<g id="node16" class="node">
<title>HeaderM</title>
<ellipse fill="none" stroke="#ff8833" stroke-dasharray="5,2" cx="119" cy="-338.7107" rx="58.4896" ry="18"/>
<text text-anchor="middle" x="119" y="-335.0107" font-family="Times,serif" font-size="14.00" fill="#000000">&lt;header&gt;</text>
</g>
<!-- HeaderM&#45;&gt;Home -->
<g id="edge8" class="edge">
<title>HeaderM&#45;&gt;Home</title>
<path fill="none" stroke="#ffbb55" stroke-dasharray="5,2" d="M105.532,-321.1421C96.1705,-308.9304 83.5563,-292.4756 73.1514,-278.9027"/>
<polygon fill="#ffbb55" stroke="#ffbb55" points="67.0072,-270.8878 76.6626,-276.0864 70.0492,-274.856 73.0912,-278.8242 73.0912,-278.8242 73.0912,-278.8242 70.0492,-274.856 69.5199,-281.562 67.0072,-270.8878 67.0072,-270.8878"/>
</g>
<!-- Logout -->
<g id="node17" class="node">
<title>Logout</title>
<ellipse fill="none" stroke="#ff8833" stroke-dasharray="5,2" cx="166" cy="-253.9203" rx="55.7903" ry="18"/>
<text text-anchor="middle" x="166" y="-250.2203" font-family="Times,serif" font-size="14.00" fill="#000000">&lt;logout&gt;</text>
</g>
<!-- HeaderM&#45;&gt;Logout -->
<g id="edge9" class="edge">
<title>HeaderM&#45;&gt;Logout</title>
<path fill="none" stroke="#ffbb55" stroke-dasharray="5,2" d="M128.9675,-320.7288C135.3857,-309.15 143.8469,-293.8856 151.0612,-280.8707"/>
<polygon fill="#ffbb55" stroke="#ffbb55" points="156.0469,-271.8762 155.1345,-282.8041 153.6228,-276.2494 151.1987,-280.6225 151.1987,-280.6225 151.1987,-280.6225 153.6228,-276.2494 147.2629,-278.4408 156.0469,-271.8762 156.0469,-271.8762"/>
</g>
<!-- Logout&#45;&gt;LandingPage -->
<g id="edge21" class="edge">
<title>Logout&#45;&gt;LandingPage</title>
<path fill="none" stroke="#000000" d="M203.3969,-240.3622C213.2439,-237.2082 223.9316,-234.1486 234,-232 378.2879,-201.2083 418.5688,-220.8373 564,-196 569.3284,-195.09 574.8393,-194.0341 580.3505,-192.8987"/>
<polygon fill="#000000" stroke="#000000" points="590.2317,-190.7835 581.3952,-197.2771 585.3424,-191.8302 580.4532,-192.8768 580.4532,-192.8768 580.4532,-192.8768 585.3424,-191.8302 579.5112,-188.4765 590.2317,-190.7835 590.2317,-190.7835"/>
</g>
</g>
</svg>
