<?xml version="1.0" encoding="UTF-8" standalone="no"?>
<!DOCTYPE svg PUBLIC "-//W3C//DTD SVG 1.1//EN"
 "http://www.w3.org/Graphics/SVG/1.1/DTD/svg11.dtd">
<!-- Generated by graphviz version 2.40.1 (20161225.0304)
 -->
<!-- Title: G Pages: 1 -->
<svg width="718pt" height="516pt"
 viewBox="0.00 0.00 718.49 515.84" xmlns="http://www.w3.org/2000/svg" xmlns:xlink="http://www.w3.org/1999/xlink">
<g id="graph0" class="graph" transform="scale(1 1) rotate(0) translate(4 511.8406)">
<title>G</title>
<polygon fill="#ffffff" stroke="transparent" points="-4,4 -4,-511.8406 714.4937,-511.8406 714.4937,4 -4,4"/>
<g id="clust1" class="cluster">
<title>cluster_publicTemplate</title>
<polygon fill="none" stroke="#000000" points="380.4937,-8 380.4937,-499.8406 702.4937,-499.8406 702.4937,-8 380.4937,-8"/>
</g>
<g id="clust3" class="cluster">
<title>cluster_memberTemplate</title>
<polygon fill="none" stroke="#000000" points="150.4937,-227.9203 150.4937,-427.8406 372.4937,-427.8406 372.4937,-227.9203 150.4937,-227.9203"/>
</g>
<!-- Start -->
<g id="node1" class="node">
<title>Start</title>
<ellipse fill="#000000" stroke="#000000" cx="71.4937" cy="-473.8406" rx="11" ry="11"/>
<text text-anchor="middle" x="71.4937" y="-473.5406" font-family="Times,serif" font-size="1.00" fill="#000000">Start</text>
</g>
<!-- LandingPage -->
<g id="node2" class="node">
<title>LandingPage</title>
<ellipse fill="#99ddff" stroke="#000000" cx="71.4937" cy="-401.8406" rx="71.4873" ry="18"/>
<text text-anchor="middle" x="71.4937" y="-398.1406" font-family="Times,serif" font-size="14.00" fill="#000000">LandingPage</text>
</g>
<!-- Start&#45;&gt;LandingPage -->
<g id="edge11" class="edge">
<title>Start&#45;&gt;LandingPage</title>
<path fill="none" stroke="#000000" d="M71.4937,-462.5906C71.4937,-453.8697 71.4937,-441.3929 71.4937,-430.0128"/>
<polygon fill="#000000" stroke="#000000" points="71.4937,-420.0093 75.9938,-430.0092 71.4937,-425.0093 71.4938,-430.0093 71.4938,-430.0093 71.4938,-430.0093 71.4937,-425.0093 66.9938,-430.0093 71.4937,-420.0093 71.4937,-420.0093"/>
</g>
<!-- Login -->
<g id="node3" class="node">
<title>Login</title>
<ellipse fill="#99ddff" stroke="#000000" cx="435.4937" cy="-401.8406" rx="37.0935" ry="18"/>
<text text-anchor="middle" x="435.4937" y="-398.1406" font-family="Times,serif" font-size="14.00" fill="#000000">Login</text>
</g>
<!-- LandingPage&#45;&gt;Login -->
<g id="edge12" class="edge">
<title>LandingPage&#45;&gt;Login</title>
<path fill="none" stroke="#000000" d="M98.7436,-418.6311C114.655,-427.4401 135.4845,-437.3197 155.4937,-441.8406 201.4464,-452.2232 322.0377,-454.2186 367.4937,-441.8406 381.6052,-437.9979 395.7754,-430.4015 407.5002,-422.8515"/>
<polygon fill="#000000" stroke="#000000" points="415.948,-417.1499 410.1767,-426.4741 411.8036,-419.947 407.6592,-422.7442 407.6592,-422.7442 407.6592,-422.7442 411.8036,-419.947 405.1418,-419.0142 415.948,-417.1499 415.948,-417.1499"/>
</g>
<!-- ResetPassword -->
<g id="node6" class="node">
<title>ResetPassword</title>
<ellipse fill="#99ddff" stroke="#000000" cx="470.4937" cy="-329.8406" rx="81.7856" ry="18"/>
<text text-anchor="middle" x="470.4937" y="-326.1406" font-family="Times,serif" font-size="14.00" fill="#000000">ResetPassword</text>
</g>
<!-- Login&#45;&gt;ResetPassword -->
<g id="edge16" class="edge">
<title>Login&#45;&gt;ResetPassword</title>
<path fill="none" stroke="#000000" d="M444.1453,-384.0429C448.1117,-375.8834 452.9011,-366.031 457.3026,-356.9764"/>
<polygon fill="#000000" stroke="#000000" points="461.6984,-347.9337 461.3736,-358.8948 459.5124,-352.4306 457.3264,-356.9274 457.3264,-356.9274 457.3264,-356.9274 459.5124,-352.4306 453.2792,-354.96 461.6984,-347.9337 461.6984,-347.9337"/>
</g>
<!-- Home -->
<g id="node15" class="node">
<title>Home</title>
<ellipse fill="#ffcc88" stroke="#000000" cx="326.4937" cy="-329.8406" rx="38.1938" ry="18"/>
<text text-anchor="middle" x="326.4937" y="-326.1406" font-family="Times,serif" font-size="14.00" fill="#000000">Home</text>
</g>
<!-- Login&#45;&gt;Home -->
<g id="edge19" class="edge">
<title>Login&#45;&gt;Home</title>
<path fill="none" stroke="#000000" d="M413.4359,-387.2703C397.2911,-376.6059 375.1745,-361.9968 357.2886,-350.1822"/>
<polygon fill="#000000" stroke="#000000" points="348.8927,-344.6363 359.717,-346.3932 353.0647,-347.3922 357.2367,-350.148 357.2367,-350.148 357.2367,-350.148 353.0647,-347.3922 354.7565,-353.9028 348.8927,-344.6363 348.8927,-344.6363"/>
</g>
<!-- Register -->
<g id="node4" class="node">
<title>Register</title>
<ellipse fill="#99ddff" stroke="#000000" cx="620.4937" cy="-329.8406" rx="50.0912" ry="18"/>
<text text-anchor="middle" x="620.4937" y="-326.1406" font-family="Times,serif" font-size="14.00" fill="#000000">Register</text>
</g>
<!-- EmailA -->
<g id="node8" class="node">
<title>EmailA</title>
<ellipse fill="none" stroke="#ff0000" stroke-width="2" cx="600.4937" cy="-253.9203" rx="27" ry="21.8409"/>
<text text-anchor="middle" x="600.4937" y="-247.0203" font-family="Times,serif" font-size="28.00" fill="#000000">✉</text>
</g>
<!-- Register&#45;&gt;EmailA -->
<g id="edge13" class="edge">
<title>Register&#45;&gt;EmailA</title>
<path fill="none" stroke="#000000" d="M615.7539,-311.8486C613.6725,-303.9475 611.1661,-294.4331 608.7916,-285.4194"/>
<polygon fill="#000000" stroke="#000000" points="606.1964,-275.5681 613.0955,-284.0918 607.4702,-280.4031 608.7439,-285.2382 608.7439,-285.2382 608.7439,-285.2382 607.4702,-280.4031 604.3924,-286.3845 606.1964,-275.5681 606.1964,-275.5681"/>
</g>
<!-- Register2 -->
<g id="node5" class="node">
<title>Register2</title>
<ellipse fill="#99ddff" stroke="#000000" cx="444.4937" cy="-178" rx="55.7903" ry="18"/>
<text text-anchor="middle" x="444.4937" y="-174.3" font-family="Times,serif" font-size="14.00" fill="#000000">Register2</text>
</g>
<!-- Footer -->
<g id="node14" class="node">
<title>Footer</title>
<ellipse fill="none" stroke="#3388ff" stroke-dasharray="5,2" cx="550.4937" cy="-106" rx="53.8905" ry="18"/>
<text text-anchor="middle" x="550.4937" y="-102.3" font-family="Times,serif" font-size="14.00" fill="#000000">&lt;footer&gt;</text>
</g>
<!-- Register2&#45;&gt;Footer -->
<!-- Register2&#45;&gt;Home -->
<g id="edge15" class="edge">
<title>Register2&#45;&gt;Home</title>
<path fill="none" stroke="#000000" d="M432.3797,-195.666C418.5968,-215.5308 395.1821,-248.5757 373.4937,-275.8406 365.5944,-285.7709 356.5206,-296.3691 348.4653,-305.5231"/>
<polygon fill="#000000" stroke="#000000" points="341.7038,-313.1427 344.9753,-302.6762 345.0225,-309.4029 348.3412,-305.663 348.3412,-305.663 348.3412,-305.663 345.0225,-309.4029 351.7071,-308.6498 341.7038,-313.1427 341.7038,-313.1427"/>
</g>
<!-- EmailB -->
<g id="node9" class="node">
<title>EmailB</title>
<ellipse fill="none" stroke="#ff0000" stroke-width="2" cx="489.4937" cy="-253.9203" rx="27" ry="21.8409"/>
<text text-anchor="middle" x="489.4937" y="-247.0203" font-family="Times,serif" font-size="28.00" fill="#000000">✉</text>
</g>
<!-- ResetPassword&#45;&gt;EmailB -->
<g id="edge17" class="edge">
<title>ResetPassword&#45;&gt;EmailB</title>
<path fill="none" stroke="#000000" d="M474.9964,-311.8486C476.9737,-303.9475 479.3548,-294.4331 481.6106,-285.4194"/>
<polygon fill="#000000" stroke="#000000" points="484.076,-275.5681 486.0136,-286.3614 482.8621,-280.4185 481.6482,-285.2689 481.6482,-285.2689 481.6482,-285.2689 482.8621,-280.4185 477.2828,-284.1764 484.076,-275.5681 484.076,-275.5681"/>
</g>
<!-- ResetPassword2 -->
<g id="node7" class="node">
<title>ResetPassword2</title>
<ellipse fill="#99ddff" stroke="#000000" cx="606.4937" cy="-178" rx="87.9851" ry="18"/>
<text text-anchor="middle" x="606.4937" y="-174.3" font-family="Times,serif" font-size="14.00" fill="#000000">ResetPassword2</text>
</g>
<!-- ResetPassword2&#45;&gt;Footer -->
<!-- EmailA&#45;&gt;Register2 -->
<g id="edge14" class="edge">
<title>EmailA&#45;&gt;Register2</title>
<path fill="none" stroke="#000000" d="M577.1389,-242.5543C552.7492,-230.6846 514.0345,-211.8433 484.712,-197.573"/>
<polygon fill="#000000" stroke="#000000" points="475.5518,-193.115 486.5128,-193.4448 480.0477,-195.3031 484.5435,-197.4911 484.5435,-197.4911 484.5435,-197.4911 480.0477,-195.3031 482.5743,-201.5373 475.5518,-193.115 475.5518,-193.115"/>
</g>
<!-- EmailB&#45;&gt;ResetPassword2 -->
<g id="edge18" class="edge">
<title>EmailB&#45;&gt;ResetPassword2</title>
<path fill="none" stroke="#000000" d="M510.6815,-240.1717C527.5463,-229.2283 551.5116,-213.6774 571.2546,-200.8663"/>
<polygon fill="#000000" stroke="#000000" points="579.7054,-195.3827 573.7662,-204.601 575.511,-198.1044 571.3167,-200.8261 571.3167,-200.8261 571.3167,-200.8261 575.511,-198.1044 568.8671,-197.0512 579.7054,-195.3827 579.7054,-195.3827"/>
</g>
<!-- About -->
<g id="node10" class="node">
<title>About</title>
<ellipse fill="#99ddff" stroke="#000000" cx="448.4937" cy="-34" rx="38.1938" ry="18"/>
<text text-anchor="middle" x="448.4937" y="-30.3" font-family="Times,serif" font-size="14.00" fill="#000000">About</text>
</g>
<!-- Privacy -->
<g id="node11" class="node">
<title>Privacy</title>
<ellipse fill="#99ddff" stroke="#000000" cx="550.4937" cy="-34" rx="46.2923" ry="18"/>
<text text-anchor="middle" x="550.4937" y="-30.3" font-family="Times,serif" font-size="14.00" fill="#000000">Privacy</text>
</g>
<!-- ToS -->
<g id="node12" class="node">
<title>ToS</title>
<ellipse fill="#99ddff" stroke="#000000" cx="643.4937" cy="-34" rx="28.6953" ry="18"/>
<text text-anchor="middle" x="643.4937" y="-30.3" font-family="Times,serif" font-size="14.00" fill="#000000">ToS</text>
</g>
<!-- Header -->
<g id="node13" class="node">
<title>Header</title>
<ellipse fill="none" stroke="#3388ff" stroke-dasharray="5,2" cx="446.4937" cy="-473.8406" rx="58.4896" ry="18"/>
<text text-anchor="middle" x="446.4937" y="-470.1406" font-family="Times,serif" font-size="14.00" fill="#000000">&lt;header&gt;</text>
</g>
<!-- Header&#45;&gt;LandingPage -->
<g id="edge10" class="edge">
<title>Header&#45;&gt;LandingPage</title>
<path fill="none" stroke="#88ccff" stroke-dasharray="5,2" d="M390.6049,-468.3417C329.9009,-461.6593 230.3713,-448.6271 146.4937,-427.8406 137.9411,-425.7211 128.9823,-423.0385 120.3537,-420.2063"/>
<polygon fill="#88ccff" stroke="#88ccff" points="110.7912,-416.9671 121.7064,-415.9134 115.5269,-418.5713 120.2626,-420.1755 120.2626,-420.1755 120.2626,-420.1755 115.5269,-418.5713 118.8188,-424.4376 110.7912,-416.9671 110.7912,-416.9671"/>
</g>
<!-- Header&#45;&gt;Login -->
<g id="edge1" class="edge">
<title>Header&#45;&gt;Login</title>
<path fill="none" stroke="#88ccff" stroke-dasharray="5,2" d="M443.7179,-455.672C442.5414,-447.9716 441.1425,-438.815 439.8351,-430.2573"/>
<polygon fill="#88ccff" stroke="#88ccff" points="438.3068,-420.2539 444.2655,-429.4595 439.062,-425.1965 439.8171,-430.1392 439.8171,-430.1392 439.8171,-430.1392 439.062,-425.1965 435.3687,-430.8188 438.3068,-420.2539 438.3068,-420.2539"/>
</g>
<!-- Header&#45;&gt;Register -->
<g id="edge2" class="edge">
<title>Header&#45;&gt;Register</title>
<path fill="none" stroke="#88ccff" stroke-dasharray="5,2" d="M467.137,-456.7565C498.3061,-430.9613 557.4518,-382.0132 592.4812,-353.0233"/>
<polygon fill="#88ccff" stroke="#88ccff" points="600.4142,-346.4581 595.5793,-356.3006 596.5622,-349.646 592.7102,-352.8338 592.7102,-352.8338 592.7102,-352.8338 596.5622,-349.646 589.8411,-349.367 600.4142,-346.4581 600.4142,-346.4581"/>
</g>
<!-- Footer&#45;&gt;About -->
<g id="edge3" class="edge">
<title>Footer&#45;&gt;About</title>
<path fill="none" stroke="#88ccff" stroke-dasharray="5,2" d="M527.3483,-89.6621C512.7677,-79.3699 493.8055,-65.9848 478.13,-54.9198"/>
<polygon fill="#88ccff" stroke="#88ccff" points="469.8083,-49.0456 480.5731,-51.1361 473.8931,-51.929 477.978,-54.8125 477.978,-54.8125 477.978,-54.8125 473.8931,-51.929 475.3829,-58.4888 469.8083,-49.0456 469.8083,-49.0456"/>
</g>
<!-- Footer&#45;&gt;Privacy -->
<g id="edge4" class="edge">
<title>Footer&#45;&gt;Privacy</title>
<path fill="none" stroke="#88ccff" stroke-dasharray="5,2" d="M550.4937,-87.8314C550.4937,-80.131 550.4937,-70.9743 550.4937,-62.4166"/>
<polygon fill="#88ccff" stroke="#88ccff" points="550.4937,-52.4133 554.9938,-62.4132 550.4937,-57.4133 550.4938,-62.4133 550.4938,-62.4133 550.4938,-62.4133 550.4937,-57.4133 545.9938,-62.4133 550.4937,-52.4133 550.4937,-52.4133"/>
</g>
<!-- Footer&#45;&gt;ToS -->
<g id="edge5" class="edge">
<title>Footer&#45;&gt;ToS</title>
<path fill="none" stroke="#88ccff" stroke-dasharray="5,2" d="M572.0635,-89.3008C585.52,-78.8828 602.9312,-65.4032 617.1947,-54.3605"/>
<polygon fill="#88ccff" stroke="#88ccff" points="625.1754,-48.1819 620.0229,-57.8619 621.2217,-51.2428 617.2681,-54.3037 617.2681,-54.3037 617.2681,-54.3037 621.2217,-51.2428 614.5133,-50.7454 625.1754,-48.1819 625.1754,-48.1819"/>
</g>
<!-- Project -->
<g id="node16" class="node">
<title>Project</title>
<ellipse fill="#ffcc88" stroke="#000000" cx="320.4937" cy="-253.9203" rx="44.393" ry="18"/>
<text text-anchor="middle" x="320.4937" y="-250.2203" font-family="Times,serif" font-size="14.00" fill="#000000">Project</text>
</g>
<!-- Home&#45;&gt;Project -->
<g id="edge20" class="edge">
<title>Home&#45;&gt;Project</title>
<path fill="none" stroke="#000000" d="M325.0717,-311.8486C324.3744,-303.0253 323.5181,-292.1901 322.7355,-282.287"/>
<polygon fill="#000000" stroke="#000000" points="321.9262,-272.0463 327.2001,-281.6607 322.3201,-277.0308 322.7141,-282.0152 322.7141,-282.0152 322.7141,-282.0152 322.3201,-277.0308 318.2281,-282.3698 321.9262,-272.0463 321.9262,-272.0463"/>
</g>
<!-- HeaderM -->
<g id="node17" class="node">
<title>HeaderM</title>
<ellipse fill="none" stroke="#ff8833" stroke-dasharray="5,2" cx="262.4937" cy="-401.8406" rx="58.4896" ry="18"/>
<text text-anchor="middle" x="262.4937" y="-398.1406" font-family="Times,serif" font-size="14.00" fill="#000000">&lt;header&gt;</text>
</g>
<!-- HeaderM&#45;&gt;Home -->
<g id="edge8" class="edge">
<title>HeaderM&#45;&gt;Home</title>
<path fill="none" stroke="#ffbb55" stroke-dasharray="5,2" d="M277.9863,-384.4114C286.0429,-375.3477 296.0219,-364.1213 304.8303,-354.2119"/>
<polygon fill="#ffbb55" stroke="#ffbb55" points="311.5844,-346.6135 308.3041,-357.0773 308.2626,-350.3506 304.9407,-354.0877 304.9407,-354.0877 304.9407,-354.0877 308.2626,-350.3506 301.5774,-351.098 311.5844,-346.6135 311.5844,-346.6135"/>
</g>
<!-- Logout -->
<g id="node18" class="node">
<title>Logout</title>
<ellipse fill="none" stroke="#ff8833" stroke-dasharray="5,2" cx="214.4937" cy="-329.8406" rx="55.7903" ry="18"/>
<text text-anchor="middle" x="214.4937" y="-326.1406" font-family="Times,serif" font-size="14.00" fill="#000000">&lt;logout&gt;</text>
</g>
<!-- HeaderM&#45;&gt;Logout -->
<g id="edge9" class="edge">
<title>HeaderM&#45;&gt;Logout</title>
<path fill="none" stroke="#ffbb55" stroke-dasharray="5,2" d="M250.6285,-384.0429C245.0323,-375.6485 238.2415,-365.4624 232.0642,-356.1965"/>
<polygon fill="#ffbb55" stroke="#ffbb55" points="226.3887,-347.6832 235.68,-353.5075 229.1622,-351.8434 231.9357,-356.0037 231.9357,-356.0037 231.9357,-356.0037 229.1622,-351.8434 228.1915,-358.4999 226.3887,-347.6832 226.3887,-347.6832"/>
</g>
<!-- Logout&#45;&gt;LandingPage -->
<g id="edge21" class="edge">
<title>Logout&#45;&gt;LandingPage</title>
<path fill="none" stroke="#000000" d="M183.9783,-345.205C163.1874,-355.6731 135.4158,-369.656 112.6698,-381.1086"/>
<polygon fill="#000000" stroke="#000000" points="103.5856,-385.6824 110.4937,-377.166 108.0515,-383.4338 112.5174,-381.1853 112.5174,-381.1853 112.5174,-381.1853 108.0515,-383.4338 114.5411,-385.2045 103.5856,-385.6824 103.5856,-385.6824"/>
</g>
</g>
</svg>
