<?xml version="1.0" encoding="UTF-8" standalone="no"?>
<!DOCTYPE svg PUBLIC "-//W3C//DTD SVG 1.1//EN"
 "http://www.w3.org/Graphics/SVG/1.1/DTD/svg11.dtd">
<!-- Generated by graphviz version 2.38.0 (20140413.2041)
 -->
<!-- Title: G Pages: 1 -->
<svg width="973pt" height="1195pt"
 viewBox="0.00 0.00 972.51 1195.00" xmlns="http://www.w3.org/2000/svg" xmlns:xlink="http://www.w3.org/1999/xlink">
<g id="graph0" class="graph" transform="scale(1 1) rotate(0) translate(4 1191)">
<title>G</title>
<polygon fill="white" stroke="none" points="-4,4 -4,-1191 968.51,-1191 968.51,4 -4,4"/>
<text text-anchor="middle" x="482.255" y="-1171.8" font-family="Times,serif" font-size="14.00">ShipReq System Diagram: Emails &amp; Comms</text>
<text text-anchor="middle" x="482.255" y="-1156.8" font-family="Times,serif" font-size="14.00">(arrows denote flow of data from one component to another)</text>
<text text-anchor="middle" x="482.255" y="-1141.8" font-family="Times,serif" font-size="14.00">(ignores which component instigates the data transfer)</text>
<text text-anchor="middle" x="482.255" y="-1126.8" font-family="Times,serif" font-size="14.00">(red = comm from user, blue = comm to user)</text>
<g id="clust1" class="cluster"><title>cluster_staff</title>
<polygon fill="#e6ffe6" stroke="black" points="282.51,-8 282.51,-308 424.51,-308 424.51,-8 282.51,-8"/>
<text text-anchor="middle" x="353.51" y="-292.8" font-family="Times,serif" font-size="14.00">Staff</text>
</g>
<g id="clust2" class="cluster"><title>cluster_usr</title>
<polygon fill="#eeeeaa" stroke="black" points="400.51,-809 400.51,-1111 526.51,-1111 526.51,-809 400.51,-809"/>
<text text-anchor="middle" x="463.51" y="-1095.8" font-family="Times,serif" font-size="14.00">Userland</text>
</g>
<g id="clust3" class="cluster"><title>cluster_gsuite</title>
<polygon fill="#ebebeb" stroke="black" points="368.51,-345 368.51,-660 740.51,-660 740.51,-345 368.51,-345"/>
<text text-anchor="middle" x="554.51" y="-644.8" font-family="Times,serif" font-size="14.00">G&#45;Suite</text>
</g>
<g id="clust4" class="cluster"><title>cluster_gcp</title>
<polygon fill="#ebebeb" stroke="black" points="19.51,-584 19.51,-885 198.51,-885 198.51,-584 19.51,-584"/>
<text text-anchor="middle" x="109.01" y="-869.8" font-family="Times,serif" font-size="14.00">Google Cloud Platform</text>
</g>
<g id="clust5" class="cluster"><title>cluster_mailgun</title>
<polygon fill="#ebebeb" stroke="black" points="206.51,-697 206.51,-772 431.51,-772 431.51,-697 206.51,-697"/>
<text text-anchor="middle" x="319.01" y="-756.8" font-family="Times,serif" font-size="14.00">MailGun</text>
</g>
<g id="clust6" class="cluster"><title>cluster_mailchimp</title>
<polygon fill="#ebebeb" stroke="black" points="748.51,-345 748.51,-420 956.51,-420 956.51,-345 748.51,-345"/>
<text text-anchor="middle" x="852.51" y="-404.8" font-family="Times,serif" font-size="14.00">MailChimp</text>
</g>
<g id="clust7" class="cluster"><title>cluster_freshdesk</title>
<polygon fill="#ebebeb" stroke="black" points="20.51,-345 20.51,-541.5 290.51,-541.5 290.51,-345 20.51,-345"/>
<text text-anchor="middle" x="155.51" y="-526.3" font-family="Times,serif" font-size="14.00">FreshDesk</text>
</g>
<!-- staff_web -->
<g id="node1" class="node"><title>staff_web</title>
<polygon fill="burlywood" stroke="black" points="416.51,-166 302.51,-166 302.51,-170 290.51,-170 290.51,-128 416.51,-128 416.51,-166"/>
<polyline fill="none" stroke="black" points="290.51,-166 302.51,-166 "/>
<text text-anchor="middle" x="353.51" y="-150.8" font-family="Times,serif" font-size="14.00">Staff member&#39;s</text>
<text text-anchor="middle" x="353.51" y="-135.8" font-family="Times,serif" font-size="14.00">web browser</text>
</g>
<!-- staff -->
<g id="node3" class="node"><title>staff</title>
<polygon fill="#aabbff" stroke="black" points="355.01,-41.5 356.51,-43 356.51,-46 355.01,-47.5 352.01,-47.5 350.51,-46 350.51,-43 352.01,-41.5 355.01,-41.5"/>
<polyline fill="none" stroke="black" points="353.51,-41.5 353.51,-35.5 "/>
<polyline fill="none" stroke="black" points="326.51,-35.5 380.51,-35.5 "/>
<text text-anchor="middle" x="353.51" y="-23.8" font-family="Times,serif" font-size="14.00">Staff</text>
</g>
<!-- staff_web&#45;&gt;staff -->
<g id="edge14" class="edge"><title>staff_web&#45;&gt;staff</title>
<path fill="none" stroke="red" d="M343.177,-127.918C339.642,-110.927 339.066,-85.214 341.45,-65.3817"/>
<polygon fill="red" stroke="red" points="343.022,-55.3432 345.921,-65.919 342.248,-60.283 341.475,-65.2228 341.475,-65.2228 341.475,-65.2228 342.248,-60.283 337.029,-64.5265 343.022,-55.3432 343.022,-55.3432"/>
</g>
<!-- staff_web&#45;&gt;staff -->
<g id="edge26" class="edge"><title>staff_web&#45;&gt;staff</title>
<path fill="none" stroke="#000099" d="M353.51,-117.724C353.51,-98.1046 353.51,-72.5109 353.51,-55.3432"/>
<polygon fill="#000099" stroke="#000099" points="353.51,-127.918 349.01,-117.918 353.51,-122.918 353.51,-117.918 353.51,-117.918 353.51,-117.918 353.51,-122.918 358.01,-117.918 353.51,-127.918 353.51,-127.918"/>
</g>
<!-- staff_web&#45;&gt;staff -->
<g id="edge43" class="edge"><title>staff_web&#45;&gt;staff</title>
<path fill="none" stroke="#22bbdd" d="M363.843,-127.918C367.378,-110.927 367.954,-85.214 365.57,-65.3817"/>
<polygon fill="#22bbdd" stroke="#22bbdd" points="363.998,-55.3432 369.991,-64.5265 364.772,-60.283 365.545,-65.2228 365.545,-65.2228 365.545,-65.2228 364.772,-60.283 361.099,-65.919 363.998,-55.3432 363.998,-55.3432"/>
</g>
<!-- staff_mail -->
<g id="node2" class="node"><title>staff_mail</title>
<polygon fill="#aabbff" stroke="black" points="416.51,-277 413.51,-281 392.51,-281 389.51,-277 290.51,-277 290.51,-239 416.51,-239 416.51,-277"/>
<text text-anchor="middle" x="353.51" y="-261.8" font-family="Times,serif" font-size="14.00">Staff member&#39;s</text>
<text text-anchor="middle" x="353.51" y="-246.8" font-family="Times,serif" font-size="14.00">email address</text>
</g>
<!-- staff_mail&#45;&gt;staff_web -->
<g id="edge16" class="edge"><title>staff_mail&#45;&gt;staff_web</title>
<path fill="none" stroke="red" d="M348.293,-238.51C346.56,-221.495 346.296,-196.006 347.501,-176.408"/>
<polygon fill="red" stroke="red" points="348.321,-166.217 352.004,-176.546 347.92,-171.201 347.519,-176.185 347.519,-176.185 347.519,-176.185 347.92,-171.201 343.033,-175.824 348.321,-166.217 348.321,-166.217"/>
</g>
<!-- staff_mail&#45;&gt;staff_web -->
<g id="edge28" class="edge"><title>staff_mail&#45;&gt;staff_web</title>
<path fill="none" stroke="#000099" d="M359.538,-228.276C360.727,-208.616 360.447,-183.14 358.699,-166.217"/>
<polygon fill="#000099" stroke="#000099" points="358.727,-238.51 355.032,-228.185 359.122,-233.525 359.517,-228.541 359.517,-228.541 359.517,-228.541 359.122,-233.525 364.003,-228.897 358.727,-238.51 358.727,-238.51"/>
</g>
<!-- usr_web -->
<g id="node4" class="node"><title>usr_web</title>
<polygon fill="burlywood" stroke="black" points="518.01,-968 421.01,-968 421.01,-972 409.01,-972 409.01,-930 518.01,-930 518.01,-968"/>
<polyline fill="none" stroke="black" points="409.01,-968 421.01,-968 "/>
<text text-anchor="middle" x="463.51" y="-952.8" font-family="Times,serif" font-size="14.00">User&#39;s</text>
<text text-anchor="middle" x="463.51" y="-937.8" font-family="Times,serif" font-size="14.00">web browser</text>
</g>
<!-- usr_mail -->
<g id="node5" class="node"><title>usr_mail</title>
<polygon fill="#aabbff" stroke="black" points="494.51,-855 491.51,-859 470.51,-859 467.51,-855 432.51,-855 432.51,-817 494.51,-817 494.51,-855"/>
<text text-anchor="middle" x="463.51" y="-839.8" font-family="Times,serif" font-size="14.00">User&#39;s</text>
<text text-anchor="middle" x="463.51" y="-824.8" font-family="Times,serif" font-size="14.00">email</text>
</g>
<!-- usr_web&#45;&gt;usr_mail -->
<g id="edge7" class="edge"><title>usr_web&#45;&gt;usr_mail</title>
<path fill="none" stroke="red" d="M453.177,-929.671C449.583,-912.157 449.048,-885.504 451.573,-865.27"/>
<polygon fill="red" stroke="red" points="453.172,-855.357 456.022,-865.946 452.375,-860.293 451.579,-865.229 451.579,-865.229 451.579,-865.229 452.375,-860.293 447.136,-864.512 453.172,-855.357 453.172,-855.357"/>
</g>
<!-- usr_web&#45;&gt;usr_mail -->
<g id="edge22" class="edge"><title>usr_web&#45;&gt;usr_mail</title>
<path fill="none" stroke="#000099" d="M463.51,-919.483C463.51,-899.29 463.51,-872.799 463.51,-855.357"/>
<polygon fill="#000099" stroke="#000099" points="463.51,-929.671 459.01,-919.671 463.51,-924.671 463.51,-919.671 463.51,-919.671 463.51,-919.671 463.51,-924.671 468.01,-919.671 463.51,-929.671 463.51,-929.671"/>
</g>
<!-- usr_web&#45;&gt;usr_mail -->
<g id="edge37" class="edge"><title>usr_web&#45;&gt;usr_mail</title>
<path fill="none" stroke="#22bbdd" d="M475.443,-919.761C477.971,-899.534 477.44,-872.88 473.848,-855.357"/>
<polygon fill="#22bbdd" stroke="#22bbdd" points="473.843,-929.671 470.995,-919.081 474.64,-924.735 475.438,-919.799 475.438,-919.799 475.438,-919.799 474.64,-924.735 479.88,-920.516 473.843,-929.671 473.843,-929.671"/>
</g>
<!-- webapp -->
<g id="node12" class="node"><title>webapp</title>
<ellipse fill="#ffff99" stroke="black" cx="137.51" cy="-836" rx="46.5926" ry="18"/>
<text text-anchor="middle" x="137.51" y="-832.3" font-family="Times,serif" font-size="14.00">webapp</text>
</g>
<!-- usr_web&#45;&gt;webapp -->
<g id="edge2" class="edge"><title>usr_web&#45;&gt;webapp</title>
<path fill="none" stroke="red" d="M410.407,-929.919C346.619,-908.2 240.802,-872.17 181.416,-851.95"/>
<polygon fill="red" stroke="red" points="171.592,-848.605 182.509,-847.568 176.325,-850.216 181.059,-851.828 181.059,-851.828 181.059,-851.828 176.325,-850.216 179.608,-856.088 171.592,-848.605 171.592,-848.605"/>
</g>
<!-- fd_web -->
<g id="node19" class="node"><title>fd_web</title>
<polygon fill="burlywood" stroke="black" points="282.51,-389 176.51,-389 176.51,-393 164.51,-393 164.51,-353 282.51,-353 282.51,-389"/>
<polyline fill="none" stroke="black" points="164.51,-389 176.51,-389 "/>
<text text-anchor="middle" x="223.51" y="-367.3" font-family="Times,serif" font-size="14.00">Web interface</text>
</g>
<!-- usr_web&#45;&gt;fd_web -->
<g id="edge12" class="edge"><title>usr_web&#45;&gt;fd_web</title>
<path fill="none" stroke="red" d="M408.859,-947.406C302.682,-945.143 73.8179,-934.493 15.51,-885 -1.52985,-870.536 0.509951,-859.351 0.509951,-837 0.509951,-837 0.509951,-837 0.509951,-490.5 0.509951,-419.816 88.9568,-391.163 154.446,-379.635"/>
<polygon fill="red" stroke="red" points="164.336,-377.992 155.208,-384.071 159.403,-378.812 154.471,-379.631 154.471,-379.631 154.471,-379.631 159.403,-378.812 153.733,-375.192 164.336,-377.992 164.336,-377.992"/>
</g>
<!-- ea_contact -->
<g id="node7" class="node"><title>ea_contact</title>
<polygon fill="#c0c8e0" stroke="black" points="550.01,-629 547.01,-633 526.01,-633 523.01,-629 377.01,-629 377.01,-591 550.01,-591 550.01,-629"/>
<text text-anchor="middle" x="463.51" y="-613.8" font-family="Times,serif" font-size="14.00">contact@shipreq.com</text>
<text text-anchor="middle" x="463.51" y="-598.8" font-family="Times,serif" font-size="14.00">(Routing rule)</text>
</g>
<!-- usr_mail&#45;&gt;ea_contact -->
<g id="edge8" class="edge"><title>usr_mail&#45;&gt;ea_contact</title>
<path fill="none" stroke="red" d="M459.598,-816.669C456.086,-777.604 455.833,-685.922 458.841,-639.299"/>
<polygon fill="red" stroke="red" points="459.604,-629.27 463.333,-639.582 459.225,-634.256 458.846,-639.241 458.846,-639.241 458.846,-639.241 459.225,-634.256 454.359,-638.9 459.604,-629.27 459.604,-629.27"/>
</g>
<!-- usr_mail&#45;&gt;ea_contact -->
<g id="edge23" class="edge"><title>usr_mail&#45;&gt;ea_contact</title>
<path fill="none" stroke="#000099" d="M468.183,-806.629C471.188,-759.959 470.932,-668.281 467.416,-629.27"/>
<polygon fill="#000099" stroke="#000099" points="467.422,-816.669 463.691,-806.357 467.8,-811.683 468.178,-806.698 468.178,-806.698 468.178,-806.698 467.8,-811.683 472.665,-807.038 467.422,-816.669 467.422,-816.669"/>
</g>
<!-- ea_broadcast -->
<g id="node8" class="node"><title>ea_broadcast</title>
<polygon fill="#c0c8e0" stroke="black" points="732.51,-518 729.51,-522 708.51,-522 705.51,-518 568.51,-518 568.51,-465 732.51,-465 732.51,-518"/>
<text text-anchor="end" x="724.51" y="-502.8" font-family="Times,serif" font-size="14.00">news@shipreq.com</text>
<text text-anchor="end" x="724.51" y="-487.8" font-family="Times,serif" font-size="14.00">notice@shipreq.com</text>
<text text-anchor="middle" x="650.51" y="-472.8" font-family="Times,serif" font-size="14.00">(Group)</text>
</g>
<!-- usr_mail&#45;&gt;ea_broadcast -->
<g id="edge9" class="edge"><title>usr_mail&#45;&gt;ea_broadcast</title>
<path fill="none" stroke="red" d="M494.669,-820.026C528.854,-802.824 578.51,-770.807 578.51,-724 578.51,-724 578.51,-724 578.51,-609 578.51,-578.282 595.667,-547.898 613.353,-525.865"/>
<polygon fill="red" stroke="red" points="619.862,-518.14 616.859,-528.687 616.64,-521.964 613.418,-525.788 613.418,-525.788 613.418,-525.788 616.64,-521.964 609.977,-522.888 619.862,-518.14 619.862,-518.14"/>
</g>
<!-- usr_mail&#45;&gt;ea_broadcast -->
<g id="edge29" class="edge"><title>usr_mail&#45;&gt;ea_broadcast</title>
<path fill="none" stroke="#000099" d="M504.327,-821.672C543.539,-804.911 596.51,-772.344 596.51,-724 596.51,-724 596.51,-724 596.51,-609 596.51,-574.51 618.139,-540.44 634.241,-518.14"/>
<polygon fill="#000099" stroke="#000099" points="494.695,-825.593 502.26,-817.655 499.326,-823.708 503.957,-821.823 503.957,-821.823 503.957,-821.823 499.326,-823.708 505.654,-825.991 494.695,-825.593 494.695,-825.593"/>
</g>
<!-- mg_api -->
<g id="node14" class="node"><title>mg_api</title>
<ellipse fill="#55cc55" stroke="black" cx="395.51" cy="-723" rx="27.8951" ry="18"/>
<text text-anchor="middle" x="395.51" y="-719.3" font-family="Times,serif" font-size="14.00">API</text>
</g>
<!-- usr_mail&#45;&gt;mg_api -->
<g id="edge38" class="edge"><title>usr_mail&#45;&gt;mg_api</title>
<path fill="none" stroke="#22bbdd" d="M447.032,-808.102C434.033,-786.884 416.333,-757.991 405.427,-740.189"/>
<polygon fill="#22bbdd" stroke="#22bbdd" points="452.281,-816.671 443.22,-810.494 449.669,-812.407 447.057,-808.143 447.057,-808.143 447.057,-808.143 449.669,-812.407 450.894,-805.793 452.281,-816.671 452.281,-816.671"/>
</g>
<!-- usr -->
<g id="node6" class="node"><title>usr</title>
<polygon fill="#55cc55" stroke="black" points="465.01,-1066.5 466.51,-1068 466.51,-1071 465.01,-1072.5 462.01,-1072.5 460.51,-1071 460.51,-1068 462.01,-1066.5 465.01,-1066.5"/>
<polyline fill="none" stroke="black" points="463.51,-1066.5 463.51,-1060.5 "/>
<polyline fill="none" stroke="black" points="436.51,-1060.5 490.51,-1060.5 "/>
<text text-anchor="middle" x="463.51" y="-1048.8" font-family="Times,serif" font-size="14.00">User</text>
</g>
<!-- usr&#45;&gt;usr_web -->
<g id="edge1" class="edge"><title>usr&#45;&gt;usr_web</title>
<path fill="none" stroke="red" d="M453.076,-1040.92C449.595,-1023.75 449.078,-997.988 451.525,-978.265"/>
<polygon fill="red" stroke="red" points="453.132,-968.301 455.983,-978.89 452.336,-973.237 451.54,-978.173 451.54,-978.173 451.54,-978.173 452.336,-973.237 447.097,-977.457 453.132,-968.301 453.132,-968.301"/>
</g>
<!-- usr&#45;&gt;usr_web -->
<g id="edge21" class="edge"><title>usr&#45;&gt;usr_web</title>
<path fill="none" stroke="#000099" d="M463.51,-1030.92C463.51,-1011.13 463.51,-985.38 463.51,-968.301"/>
<polygon fill="#000099" stroke="#000099" points="463.51,-1040.92 459.01,-1030.92 463.51,-1035.92 463.51,-1030.92 463.51,-1030.92 463.51,-1030.92 463.51,-1035.92 468.01,-1030.92 463.51,-1040.92 463.51,-1040.92"/>
</g>
<!-- usr&#45;&gt;usr_web -->
<g id="edge36" class="edge"><title>usr&#45;&gt;usr_web</title>
<path fill="none" stroke="#22bbdd" d="M475.534,-1030.92C477.949,-1011.13 477.401,-985.38 473.888,-968.301"/>
<polygon fill="#22bbdd" stroke="#22bbdd" points="473.944,-1040.92 471.069,-1030.34 474.728,-1035.99 475.513,-1031.05 475.513,-1031.05 475.513,-1031.05 474.728,-1035.99 479.957,-1031.75 473.944,-1040.92 473.944,-1040.92"/>
</g>
<!-- ea_contact&#45;&gt;staff_mail -->
<g id="edge27" class="edge"><title>ea_contact&#45;&gt;staff_mail</title>
<path fill="none" stroke="#000099" stroke-dasharray="5,2" d="M415.832,-585.889C397.965,-574.874 379.185,-560.013 367.51,-541.5 340.461,-498.609 348.51,-479.708 348.51,-429 348.51,-429 348.51,-429 348.51,-370 348.51,-337.206 350.715,-299.018 352.196,-277.061"/>
<polygon fill="#000099" stroke="#000099" points="424.495,-590.986 413.594,-589.793 420.185,-588.45 415.876,-585.915 415.876,-585.915 415.876,-585.915 420.185,-588.45 418.158,-582.036 424.495,-590.986 424.495,-590.986"/>
</g>
<!-- ea_archive -->
<g id="node9" class="node"><title>ea_archive</title>
<polygon fill="#c0c8e0" stroke="black" points="550.01,-510.5 547.01,-514.5 526.01,-514.5 523.01,-510.5 377.01,-510.5 377.01,-472.5 550.01,-472.5 550.01,-510.5"/>
<text text-anchor="middle" x="463.51" y="-495.3" font-family="Times,serif" font-size="14.00">archive@shipreq.com</text>
<text text-anchor="middle" x="463.51" y="-480.3" font-family="Times,serif" font-size="14.00">(Group)</text>
</g>
<!-- ea_contact&#45;&gt;ea_archive -->
<g id="edge19" class="edge"><title>ea_contact&#45;&gt;ea_archive</title>
<path fill="none" stroke="red" d="M463.51,-590.797C463.51,-572.074 463.51,-542.652 463.51,-520.872"/>
<polygon fill="red" stroke="red" points="463.51,-510.575 468.01,-520.575 463.51,-515.575 463.51,-520.575 463.51,-520.575 463.51,-520.575 463.51,-515.575 459.01,-520.575 463.51,-510.575 463.51,-510.575"/>
</g>
<!-- fd_mail -->
<g id="node18" class="node"><title>fd_mail</title>
<polygon fill="#aabbff" stroke="black" points="282.51,-510.5 279.51,-514.5 258.51,-514.5 255.51,-510.5 102.51,-510.5 102.51,-472.5 282.51,-472.5 282.51,-510.5"/>
<text text-anchor="middle" x="192.51" y="-495.3" font-family="Times,serif" font-size="14.00">shipreqcomcontact@</text>
<text text-anchor="middle" x="192.51" y="-480.3" font-family="Times,serif" font-size="14.00">shipreq.freshdesk.com</text>
</g>
<!-- ea_contact&#45;&gt;fd_mail -->
<g id="edge10" class="edge"><title>ea_contact&#45;&gt;fd_mail</title>
<path fill="none" stroke="red" d="M395.956,-590.986C365.025,-581.773 328.268,-569.447 296.51,-555 272.566,-544.108 247.235,-528.97 227.568,-516.321"/>
<polygon fill="red" stroke="red" points="218.956,-510.709 229.791,-512.398 223.145,-513.438 227.334,-516.168 227.334,-516.168 227.334,-516.168 223.145,-513.438 224.877,-519.938 218.956,-510.709 218.956,-510.709"/>
</g>
<!-- ea_contact&#45;&gt;fd_web -->
<g id="edge24" class="edge"><title>ea_contact&#45;&gt;fd_web</title>
<path fill="none" stroke="#000099" d="M404.33,-586.779C380.616,-575.78 354.287,-560.692 334.51,-541.5 306.52,-514.337 312.613,-497.801 291.51,-465 273.87,-437.582 251.125,-407.376 236.928,-389.048"/>
<polygon fill="#000099" stroke="#000099" points="413.614,-590.942 402.648,-590.956 409.051,-588.896 404.489,-586.85 404.489,-586.85 404.489,-586.85 409.051,-588.896 406.331,-582.744 413.614,-590.942 413.614,-590.942"/>
</g>
<!-- gsuite_web -->
<g id="node10" class="node"><title>gsuite_web</title>
<polygon fill="burlywood" stroke="black" points="522.51,-389 416.51,-389 416.51,-393 404.51,-393 404.51,-353 522.51,-353 522.51,-389"/>
<polyline fill="none" stroke="black" points="404.51,-389 416.51,-389 "/>
<text text-anchor="middle" x="463.51" y="-367.3" font-family="Times,serif" font-size="14.00">Web interface</text>
</g>
<!-- ea_broadcast&#45;&gt;gsuite_web -->
<g id="edge17" class="edge"><title>ea_broadcast&#45;&gt;gsuite_web</title>
<path fill="none" stroke="red" d="M604.255,-464.787C569.806,-443.909 523.862,-414.746 493.912,-394.717"/>
<polygon fill="red" stroke="red" points="485.537,-389.07 496.344,-390.93 489.682,-391.865 493.828,-394.661 493.828,-394.661 493.828,-394.661 489.682,-391.865 491.312,-398.392 485.537,-389.07 485.537,-389.07"/>
</g>
<!-- ea_broadcast&#45;&gt;gsuite_web -->
<g id="edge32" class="edge"><title>ea_broadcast&#45;&gt;gsuite_web</title>
<path fill="none" stroke="#000099" d="M607.208,-459.239C573.015,-436.781 526.21,-407.358 495.358,-389.07"/>
<polygon fill="#000099" stroke="#000099" points="615.612,-464.787 604.788,-463.033 611.44,-462.032 607.267,-459.277 607.267,-459.277 607.267,-459.277 611.44,-462.032 609.746,-455.522 615.612,-464.787 615.612,-464.787"/>
</g>
<!-- mc_web -->
<g id="node17" class="node"><title>mc_web</title>
<polygon fill="burlywood" stroke="black" points="874.51,-389 768.51,-389 768.51,-393 756.51,-393 756.51,-353 874.51,-353 874.51,-389"/>
<polyline fill="none" stroke="black" points="756.51,-389 768.51,-389 "/>
<text text-anchor="middle" x="815.51" y="-367.3" font-family="Times,serif" font-size="14.00">Web interface</text>
</g>
<!-- ea_broadcast&#45;&gt;mc_web -->
<g id="edge30" class="edge"><title>ea_broadcast&#45;&gt;mc_web</title>
<path fill="none" stroke="#000099" stroke-dasharray="5,2" d="M694.809,-458.685C725.878,-436.372 766.224,-407.397 791.495,-389.247"/>
<polygon fill="#000099" stroke="#000099" points="686.312,-464.787 691.81,-455.299 690.374,-461.871 694.435,-458.954 694.435,-458.954 694.435,-458.954 690.374,-461.871 697.06,-462.609 686.312,-464.787 686.312,-464.787"/>
</g>
<!-- ea_archive&#45;&gt;gsuite_web -->
<g id="edge20" class="edge"><title>ea_archive&#45;&gt;gsuite_web</title>
<path fill="none" stroke="red" d="M453.438,-472.244C449.436,-452.74 448.938,-421.611 451.944,-399.215"/>
<polygon fill="red" stroke="red" points="453.636,-389.312 456.388,-399.927 452.794,-394.241 451.952,-399.169 451.952,-399.169 451.952,-399.169 452.794,-394.241 447.516,-398.411 453.636,-389.312 453.636,-389.312"/>
</g>
<!-- ea_archive&#45;&gt;gsuite_web -->
<g id="edge41" class="edge"><title>ea_archive&#45;&gt;gsuite_web</title>
<path fill="none" stroke="#22bbdd" d="M473.582,-472.244C477.584,-452.74 478.082,-421.611 475.076,-399.215"/>
<polygon fill="#22bbdd" stroke="#22bbdd" points="473.384,-389.312 479.504,-398.411 474.226,-394.241 475.068,-399.169 475.068,-399.169 475.068,-399.169 474.226,-394.241 470.632,-399.927 473.384,-389.312 473.384,-389.312"/>
</g>
<!-- ea_archive&#45;&gt;fd_web -->
<g id="edge35" class="edge"><title>ea_archive&#45;&gt;fd_web</title>
<path fill="none" stroke="#000099" d="M417.556,-467.81C371.077,-444.861 300.27,-409.901 258.268,-389.162"/>
<polygon fill="#000099" stroke="#000099" points="426.798,-472.373 415.839,-471.981 422.315,-470.16 417.831,-467.946 417.831,-467.946 417.831,-467.946 422.315,-470.16 419.824,-463.911 426.798,-472.373 426.798,-472.373"/>
</g>
<!-- gsuite_web&#45;&gt;staff_web -->
<g id="edge18" class="edge"><title>gsuite_web&#45;&gt;staff_web</title>
<path fill="none" stroke="red" d="M449.054,-352.667C438.01,-326.81 427.144,-277.1 407.51,-239 395.251,-215.211 376.326,-191.607 363.471,-174.401"/>
<polygon fill="red" stroke="red" points="357.369,-166.02 366.893,-171.456 360.312,-170.063 363.255,-174.105 363.255,-174.105 363.255,-174.105 360.312,-170.063 359.617,-176.753 357.369,-166.02 357.369,-166.02"/>
</g>
<!-- gsuite_web&#45;&gt;staff_web -->
<g id="edge33" class="edge"><title>gsuite_web&#45;&gt;staff_web</title>
<path fill="none" stroke="#000099" d="M458.787,-342.651C453.343,-315.319 442.844,-272.635 425.51,-239 411.114,-211.064 387.526,-183.383 371.296,-166.02"/>
<polygon fill="#000099" stroke="#000099" points="460.692,-352.667 454.403,-343.684 459.758,-347.755 458.824,-342.843 458.824,-342.843 458.824,-342.843 459.758,-347.755 463.244,-342.003 460.692,-352.667 460.692,-352.667"/>
</g>
<!-- gsuite_web&#45;&gt;staff_web -->
<g id="edge42" class="edge"><title>gsuite_web&#45;&gt;staff_web</title>
<path fill="none" stroke="#22bbdd" d="M472.33,-352.667C474.01,-326.81 463.144,-277.1 443.51,-239 430.913,-214.556 411.28,-190.308 392.966,-172.996"/>
<polygon fill="#22bbdd" stroke="#22bbdd" points="385.223,-166.02 395.665,-169.37 388.938,-169.367 392.653,-172.713 392.653,-172.713 392.653,-172.713 388.938,-169.367 389.641,-176.057 385.223,-166.02 385.223,-166.02"/>
</g>
<!-- gsuite_web&#45;&gt;ea_archive -->
<g id="edge34" class="edge"><title>gsuite_web&#45;&gt;ea_archive</title>
<path fill="none" stroke="#000099" d="M463.51,-399.52C463.51,-421.893 463.51,-452.828 463.51,-472.244"/>
<polygon fill="#000099" stroke="#000099" points="463.51,-389.312 468.01,-399.312 463.51,-394.312 463.51,-399.312 463.51,-399.312 463.51,-399.312 463.51,-394.312 459.01,-399.312 463.51,-389.312 463.51,-389.312"/>
</g>
<!-- cloud_sql -->
<g id="node11" class="node"><title>cloud_sql</title>
<ellipse fill="#55cc55" stroke="black" cx="122.51" cy="-723" rx="67.6881" ry="18"/>
<text text-anchor="middle" x="122.51" y="-719.3" font-family="Times,serif" font-size="14.00">PostgreSQL</text>
</g>
<!-- taskman -->
<g id="node13" class="node"><title>taskman</title>
<ellipse fill="#ffff99" stroke="black" cx="122.51" cy="-610" rx="50.8918" ry="18"/>
<text text-anchor="middle" x="122.51" y="-606.3" font-family="Times,serif" font-size="14.00">taskman</text>
</g>
<!-- cloud_sql&#45;&gt;taskman -->
<g id="edge4" class="edge"><title>cloud_sql&#45;&gt;taskman</title>
<path fill="none" stroke="red" d="M122.51,-704.656C122.51,-686.898 122.51,-659.04 122.51,-638.317"/>
<polygon fill="red" stroke="red" points="122.51,-628.222 127.01,-638.222 122.51,-633.222 122.51,-638.222 122.51,-638.222 122.51,-638.222 122.51,-633.222 118.01,-638.222 122.51,-628.222 122.51,-628.222"/>
</g>
<!-- webapp&#45;&gt;cloud_sql -->
<g id="edge3" class="edge"><title>webapp&#45;&gt;cloud_sql</title>
<path fill="none" stroke="red" d="M135.166,-817.656C132.767,-799.898 129.002,-772.04 126.201,-751.317"/>
<polygon fill="red" stroke="red" points="124.837,-741.222 130.636,-750.529 125.507,-746.177 126.177,-751.132 126.177,-751.132 126.177,-751.132 125.507,-746.177 121.717,-751.735 124.837,-741.222 124.837,-741.222"/>
</g>
<!-- fd_api -->
<g id="node20" class="node"><title>fd_api</title>
<ellipse fill="#55cc55" stroke="black" cx="56.51" cy="-491.5" rx="27.8951" ry="18"/>
<text text-anchor="middle" x="56.51" y="-487.8" font-family="Times,serif" font-size="14.00">API</text>
</g>
<!-- taskman&#45;&gt;fd_api -->
<g id="edge5" class="edge"><title>taskman&#45;&gt;fd_api</title>
<path fill="none" stroke="red" d="M113.054,-592.308C101.964,-572.733 83.4719,-540.092 70.6693,-517.493"/>
<polygon fill="red" stroke="red" points="65.7358,-508.785 74.5804,-515.268 68.2004,-513.135 70.665,-517.486 70.665,-517.486 70.665,-517.486 68.2004,-513.135 66.7497,-519.704 65.7358,-508.785 65.7358,-508.785"/>
</g>
<!-- mg_api&#45;&gt;ea_archive -->
<g id="edge40" class="edge"><title>mg_api&#45;&gt;ea_archive</title>
<path fill="none" stroke="#22bbdd" d="M386.134,-705.637C372.255,-679.128 349.703,-625.573 367.51,-584 379.435,-556.16 404.451,-532.773 425.956,-516.612"/>
<polygon fill="#22bbdd" stroke="#22bbdd" points="434.296,-510.565 428.842,-520.078 430.248,-513.5 426.2,-516.435 426.2,-516.435 426.2,-516.435 430.248,-513.5 423.558,-512.792 434.296,-510.565 434.296,-510.565"/>
</g>
<!-- mg_api&#45;&gt;taskman -->
<g id="edge39" class="edge"><title>mg_api&#45;&gt;taskman</title>
<path fill="none" stroke="#22bbdd" d="M364.655,-707.332C357.122,-703.857 349.058,-700.226 341.51,-697 276.53,-669.229 199.361,-639.717 156.153,-623.501"/>
<polygon fill="#22bbdd" stroke="#22bbdd" points="373.834,-711.607 362.869,-711.464 369.302,-709.496 364.769,-707.385 364.769,-707.385 364.769,-707.385 369.302,-709.496 366.669,-703.306 373.834,-711.607 373.834,-711.607"/>
</g>
<!-- mg_web -->
<g id="node15" class="node"><title>mg_web</title>
<polygon fill="burlywood" stroke="black" points="332.51,-741 226.51,-741 226.51,-745 214.51,-745 214.51,-705 332.51,-705 332.51,-741"/>
<polyline fill="none" stroke="black" points="214.51,-741 226.51,-741 "/>
<text text-anchor="middle" x="273.51" y="-719.3" font-family="Times,serif" font-size="14.00">Web interface</text>
</g>
<!-- mg_api&#45;&gt;mg_web -->
<g id="edge44" class="edge"><title>mg_api&#45;&gt;mg_web</title>
<path fill="none" stroke="#22bbdd" stroke-dasharray="5,2" d="M367.497,-723C359.228,-723 350.959,-723 342.69,-723"/>
<polygon fill="#22bbdd" stroke="#22bbdd" points="332.604,-723 342.604,-718.5 337.604,-723 342.604,-723 342.604,-723 342.604,-723 337.604,-723 342.604,-727.5 332.604,-723 332.604,-723"/>
</g>
<!-- mc_api -->
<g id="node16" class="node"><title>mc_api</title>
<ellipse fill="#55cc55" stroke="black" cx="920.51" cy="-371" rx="27.8951" ry="18"/>
<text text-anchor="middle" x="920.51" y="-367.3" font-family="Times,serif" font-size="14.00">API</text>
</g>
<!-- mc_web&#45;&gt;staff_web -->
<g id="edge31" class="edge"><title>mc_web&#45;&gt;staff_web:e</title>
<path fill="none" stroke="#000099" d="M792.385,-345.599C734.914,-287.733 578.587,-147 417.51,-147"/>
<polygon fill="#000099" stroke="#000099" points="799.519,-352.872 789.304,-348.884 796.018,-349.303 792.516,-345.733 792.516,-345.733 792.516,-345.733 796.018,-349.303 795.729,-342.582 799.519,-352.872 799.519,-352.872"/>
</g>
<!-- fd_mail&#45;&gt;fd_web -->
<g id="edge11" class="edge"><title>fd_mail&#45;&gt;fd_web</title>
<path fill="none" stroke="red" d="M197.286,-472.244C202.388,-452.74 210.531,-421.611 216.39,-399.215"/>
<polygon fill="red" stroke="red" points="218.981,-389.312 220.804,-400.126 217.716,-394.149 216.45,-398.987 216.45,-398.987 216.45,-398.987 217.716,-394.149 212.097,-397.848 218.981,-389.312 218.981,-389.312"/>
</g>
<!-- fd_web&#45;&gt;staff_web -->
<g id="edge13" class="edge"><title>fd_web&#45;&gt;staff_web:w</title>
<path fill="none" stroke="red" d="M221.147,-352.872C215.133,-302.795 204.62,-159.434 279.435,-147.758"/>
<polygon fill="red" stroke="red" points="289.51,-147 279.876,-152.238 284.524,-147.375 279.538,-147.75 279.538,-147.75 279.538,-147.75 284.524,-147.375 279.201,-143.263 289.51,-147 289.51,-147"/>
</g>
<!-- fd_web&#45;&gt;staff_web -->
<g id="edge25" class="edge"><title>fd_web&#45;&gt;staff_web</title>
<path fill="none" stroke="#000099" d="M233.09,-343.177C243.321,-315.989 260.881,-273.176 281.51,-239 297.855,-211.922 321.232,-183.831 336.868,-166.153"/>
<polygon fill="#000099" stroke="#000099" points="229.537,-352.781 228.786,-341.841 231.272,-348.092 233.007,-343.402 233.007,-343.402 233.007,-343.402 231.272,-348.092 237.227,-344.964 229.537,-352.781 229.537,-352.781"/>
</g>
<!-- fd_web&#45;&gt;staff_mail -->
<g id="edge15" class="edge"><title>fd_web&#45;&gt;staff_mail</title>
<path fill="none" stroke="red" d="M243.538,-352.9C265.26,-334.352 300.126,-304.582 324.768,-283.541"/>
<polygon fill="red" stroke="red" points="332.38,-277.041 327.697,-286.957 328.578,-280.288 324.775,-283.535 324.775,-283.535 324.775,-283.535 328.578,-280.288 321.853,-280.113 332.38,-277.041 332.38,-277.041"/>
</g>
<!-- fd_api&#45;&gt;fd_web -->
<g id="edge6" class="edge"><title>fd_api&#45;&gt;fd_web</title>
<path fill="none" stroke="red" d="M74.6998,-477.593C102.6,-457.796 156.362,-419.647 191.053,-395.031"/>
<polygon fill="red" stroke="red" points="199.434,-389.084 193.883,-398.541 195.357,-391.977 191.279,-394.871 191.279,-394.871 191.279,-394.871 195.357,-391.977 188.675,-391.201 199.434,-389.084 199.434,-389.084"/>
</g>
</g>
</svg>
