<?xml version="1.0" encoding="UTF-8" standalone="no"?>
<!DOCTYPE svg PUBLIC "-//W3C//DTD SVG 1.1//EN"
 "http://www.w3.org/Graphics/SVG/1.1/DTD/svg11.dtd">
<!-- Generated by graphviz version 2.38.0 (20140413.2041)
 -->
<!-- Title: G Pages: 1 -->
<svg width="1168pt" height="1053pt"
 viewBox="0.00 0.00 1167.66 1053.14" xmlns="http://www.w3.org/2000/svg" xmlns:xlink="http://www.w3.org/1999/xlink">
<g id="graph0" class="graph" transform="scale(1 1) rotate(0) translate(4 1049.14)">
<title>G</title>
<polygon fill="white" stroke="none" points="-4,4 -4,-1049.14 1163.66,-1049.14 1163.66,4 -4,4"/>
<text text-anchor="middle" x="579.83" y="-1029.94" font-family="Times,serif" font-size="14.00">ShipReq System Diagram</text>
<text text-anchor="middle" x="579.83" y="-1014.94" font-family="Times,serif" font-size="14.00">(arrows denote a component&#39;s knowledge of another)</text>
<g id="clust1" class="cluster"><title>cluster_gandi</title>
<polygon fill="#ccddcc" stroke="black" points="8,-589.14 8,-682.14 192.291,-682.14 192.291,-589.14 8,-589.14"/>
<text text-anchor="middle" x="100.146" y="-666.94" font-family="Times,serif" font-size="14.00">gandi.net</text>
</g>
<g id="clust2" class="cluster"><title>cluster_gcp</title>
<polygon fill="#ccddcc" stroke="black" points="213.291,-594.14 213.291,-762.14 1120.53,-762.14 1120.53,-594.14 213.291,-594.14"/>
<text text-anchor="middle" x="666.912" y="-746.94" font-family="Times,serif" font-size="14.00">Google Cloud Platform</text>
</g>
<g id="clust3" class="cluster"><title>cluster_gke</title>
<polygon fill="#aabbaa" stroke="black" points="428.38,-602.14 428.38,-731.14 829.357,-731.14 829.357,-602.14 428.38,-602.14"/>
<text text-anchor="middle" x="628.869" y="-715.94" font-family="Times,serif" font-size="14.00">GKE Cluster</text>
</g>
<g id="clust4" class="cluster"><title>cluster_gsuite</title>
<polygon fill="#ccddcc" stroke="black" points="675.064,-216.14 675.064,-449.14 1139.86,-449.14 1139.86,-216.14 675.064,-216.14"/>
<text text-anchor="middle" x="907.461" y="-433.94" font-family="Times,serif" font-size="14.00">G&#45;Suite</text>
</g>
<g id="clust6" class="cluster"><title>cluster_mailgun</title>
<polygon fill="#ccddcc" stroke="black" points="675.064,-25.1404 675.064,-208.14 809.064,-208.14 809.064,-25.1404 675.064,-25.1404"/>
<text text-anchor="middle" x="742.064" y="-192.94" font-family="Times,serif" font-size="14.00">MailGun</text>
</g>
<g id="clust7" class="cluster"><title>cluster_mailchimp</title>
<polygon fill="#ccddcc" stroke="black" points="675.064,-457.14 675.064,-586.14 809.064,-586.14 809.064,-457.14 675.064,-457.14"/>
<text text-anchor="middle" x="742.064" y="-570.94" font-family="Times,serif" font-size="14.00">MailChimp</text>
</g>
<g id="clust8" class="cluster"><title>cluster_freshdesk</title>
<polygon fill="#ccddcc" stroke="black" points="675.064,-816.14 675.064,-999.14 1143.36,-999.14 1143.36,-816.14 675.064,-816.14"/>
<text text-anchor="middle" x="909.211" y="-983.94" font-family="Times,serif" font-size="14.00">FreshDesk</text>
</g>
<!-- staff_mail -->
<g id="node1" class="node"><title>staff_mail</title>
<polygon fill="#aabbff" stroke="black" points="1106.36,-808.14 1103.36,-812.14 1082.36,-812.14 1079.36,-808.14 984.357,-808.14 984.357,-770.14 1106.36,-770.14 1106.36,-808.14"/>
<text text-anchor="middle" x="1045.36" y="-792.94" font-family="Times,serif" font-size="14.00">Staff&#39;s</text>
<text text-anchor="middle" x="1045.36" y="-777.94" font-family="Times,serif" font-size="14.00">personal email</text>
</g>
<!-- gandi_dns -->
<g id="node2" class="node"><title>gandi_dns</title>
<ellipse fill="#55cc55" stroke="black" cx="100.146" cy="-624.14" rx="84.2917" ry="26.7407"/>
<text text-anchor="middle" x="100.146" y="-627.94" font-family="Times,serif" font-size="14.00">shipreq.com</text>
<text text-anchor="middle" x="100.146" y="-612.94" font-family="Times,serif" font-size="14.00">Name Servers</text>
</g>
<!-- cloud_dns -->
<g id="node3" class="node"><title>cloud_dns</title>
<ellipse fill="#55cc55" stroke="black" cx="284.336" cy="-624.14" rx="63.0888" ry="18"/>
<text text-anchor="middle" x="284.336" y="-620.44" font-family="Times,serif" font-size="14.00">Cloud DNS</text>
</g>
<!-- gandi_dns&#45;&gt;cloud_dns -->
<g id="edge10" class="edge"><title>gandi_dns&#45;&gt;cloud_dns</title>
<path fill="none" stroke="black" d="M184.51,-624.14C193.399,-624.14 202.387,-624.14 211.133,-624.14"/>
<polygon fill="black" stroke="black" points="221.267,-624.14 211.267,-628.64 216.267,-624.14 211.267,-624.14 211.267,-624.14 211.267,-624.14 216.267,-624.14 211.267,-619.64 221.267,-624.14 221.267,-624.14"/>
</g>
<!-- cloud_dns&#45;&gt;cloud_dns -->
<g id="edge5" class="edge"><title>cloud_dns:n&#45;&gt;cloud_dns:n</title>
<path fill="none" stroke="black" d="M274.906,-646.209C265.099,-652.37 268.242,-660.14 284.336,-660.14 304.336,-660.14 304.336,-648.14 284.336,-642.14"/>
<polygon fill="black" stroke="black" points="284.336,-642.14 276.936,-650.234 279.745,-644.121 275.154,-646.102 275.154,-646.102 275.154,-646.102 279.745,-644.121 273.371,-641.97 284.336,-642.14 284.336,-642.14"/>
<text text-anchor="middle" x="284.336" y="-663.94" font-family="Times,serif" font-size="14.00">CNAME:www </text>
</g>
<!-- webapp -->
<g id="node5" class="node"><title>webapp</title>
<ellipse fill="hotpink" stroke="black" cx="487.076" cy="-628.14" rx="46.5926" ry="18"/>
<text text-anchor="middle" x="487.076" y="-624.44" font-family="Times,serif" font-size="14.00">webapp</text>
</g>
<!-- cloud_dns&#45;&gt;webapp -->
<g id="edge4" class="edge"><title>cloud_dns&#45;&gt;webapp</title>
<path fill="none" stroke="black" d="M347.476,-625.379C373.789,-625.903 404.223,-626.509 429.858,-627.02"/>
<polygon fill="black" stroke="black" points="440.158,-627.225 430.07,-631.525 435.159,-627.126 430.16,-627.026 430.16,-627.026 430.16,-627.026 435.159,-627.126 430.249,-622.527 440.158,-627.225 440.158,-627.225"/>
<text text-anchor="middle" x="391.88" y="-630.94" font-family="Times,serif" font-size="14.00">A:&lt;ip&gt;</text>
</g>
<!-- gsuite_mail -->
<g id="node8" class="node"><title>gsuite_mail</title>
<ellipse fill="#55cc55" stroke="black" cx="1045.36" cy="-242.14" rx="38.1938" ry="18"/>
<text text-anchor="middle" x="1045.36" y="-238.44" font-family="Times,serif" font-size="14.00">GMail</text>
</g>
<!-- cloud_dns&#45;&gt;gsuite_mail -->
<g id="edge1" class="edge"><title>cloud_dns&#45;&gt;gsuite_mail</title>
<path fill="none" stroke="black" d="M288.859,-606.077C307.392,-516.969 402.783,-124.381 662.771,-21.1404 731.583,6.18439 761.151,7.66278 829.357,-21.1404 924.558,-61.3436 998.445,-166.596 1029.02,-215.922"/>
<polygon fill="black" stroke="black" points="1034.39,-224.729 1025.34,-218.531 1031.79,-220.459 1029.19,-216.19 1029.19,-216.19 1029.19,-216.19 1031.79,-220.459 1033.03,-213.848 1034.39,-224.729 1034.39,-224.729"/>
<text text-anchor="middle" x="600.271" y="-87.9404" font-family="Times,serif" font-size="14.00">MX &amp; DKIM</text>
</g>
<!-- mg_mx -->
<g id="node12" class="node"><title>mg_mx</title>
<ellipse fill="#55cc55" stroke="black" cx="742.064" cy="-105.14" rx="27" ry="18"/>
<text text-anchor="middle" x="742.064" y="-101.44" font-family="Times,serif" font-size="14.00">MX</text>
</g>
<!-- cloud_dns&#45;&gt;mg_mx -->
<g id="edge2" class="edge"><title>cloud_dns&#45;&gt;mg_mx</title>
<path fill="none" stroke="black" d="M294.227,-605.901C329.976,-534.429 470.596,-270.572 662.771,-132.14 675.445,-123.011 691.461,-116.768 705.7,-112.605"/>
<polygon fill="black" stroke="black" points="715.681,-109.93 707.187,-116.866 710.852,-111.225 706.022,-112.519 706.022,-112.519 706.022,-112.519 710.852,-111.225 704.857,-108.172 715.681,-109.93 715.681,-109.93"/>
<text text-anchor="middle" x="487.076" y="-378.94" font-family="Times,serif" font-size="14.00">MX &amp; DKIM</text>
</g>
<!-- fd_dkim -->
<g id="node17" class="node"><title>fd_dkim</title>
<ellipse fill="#55cc55" stroke="black" cx="742.064" cy="-950.14" rx="38.1938" ry="18"/>
<text text-anchor="middle" x="742.064" y="-946.44" font-family="Times,serif" font-size="14.00">DKIM</text>
</g>
<!-- cloud_dns&#45;&gt;fd_dkim -->
<g id="edge3" class="edge"><title>cloud_dns&#45;&gt;fd_dkim</title>
<path fill="none" stroke="black" d="M302.601,-641.465C353.455,-691.636 508.795,-838.818 662.771,-923.14 673.806,-929.183 686.444,-934.25 698.3,-938.301"/>
<polygon fill="black" stroke="black" points="708.023,-941.464 697.121,-942.649 703.268,-939.917 698.514,-938.37 698.514,-938.37 698.514,-938.37 703.268,-939.917 699.906,-934.091 708.023,-941.464 708.023,-941.464"/>
<text text-anchor="middle" x="487.076" y="-842.94" font-family="Times,serif" font-size="14.00">DKIM</text>
</g>
<!-- cloud_sql -->
<g id="node4" class="node"><title>cloud_sql</title>
<ellipse fill="#55cc55" stroke="black" cx="1045.36" cy="-647.14" rx="67.3507" ry="26.7407"/>
<text text-anchor="middle" x="1045.36" y="-650.94" font-family="Times,serif" font-size="14.00">Cloud SQL</text>
<text text-anchor="middle" x="1045.36" y="-635.94" font-family="Times,serif" font-size="14.00">Postgres</text>
</g>
<!-- cloudsqlproxy -->
<g id="node7" class="node"><title>cloudsqlproxy</title>
<ellipse fill="#55cc55" stroke="black" cx="742.064" cy="-647.14" rx="79.0865" ry="18"/>
<text text-anchor="middle" x="742.064" y="-643.44" font-family="Times,serif" font-size="14.00">cloudsql&#45;proxy</text>
</g>
<!-- webapp&#45;&gt;cloudsqlproxy -->
<g id="edge21" class="edge"><title>webapp&#45;&gt;cloudsqlproxy</title>
<path fill="none" stroke="hotpink" stroke-width="2" d="M533.305,-631.537C567.443,-634.101 615.275,-637.693 656.439,-640.785"/>
<polygon fill="hotpink" stroke="hotpink" stroke-width="2" points="666.474,-641.538 656.165,-645.277 661.451,-641.663 656.465,-641.288 656.502,-640.789 656.54,-640.291 661.526,-640.665 656.839,-636.302 666.474,-641.538 666.474,-641.538"/>
</g>
<!-- gsuite_route -->
<g id="node9" class="node"><title>gsuite_route</title>
<ellipse fill="#55cc55" stroke="black" cx="1045.36" cy="-305.14" rx="51.7379" ry="26.7407"/>
<text text-anchor="middle" x="1045.36" y="-308.94" font-family="Times,serif" font-size="14.00">Mail</text>
<text text-anchor="middle" x="1045.36" y="-293.94" font-family="Times,serif" font-size="14.00">Routing</text>
</g>
<!-- webapp&#45;&gt;gsuite_route -->
<g id="edge22" class="edge"><title>webapp&#45;&gt;gsuite_route</title>
<path fill="none" stroke="hotpink" stroke-width="2" d="M491.046,-609.925C501.609,-552.108 543.337,-373.083 662.771,-314.14 767.981,-262.218 910.183,-277.81 987.885,-292.366"/>
<polygon fill="hotpink" stroke="hotpink" stroke-width="2" points="997.952,-294.314 987.279,-296.832 992.948,-293.855 988.039,-292.905 988.134,-292.414 988.229,-291.923 993.138,-292.873 988.989,-287.996 997.952,-294.314 997.952,-294.314"/>
<text text-anchor="middle" x="742.064" y="-317.94" font-family="Times,serif" font-size="14.00">mailto:contact@</text>
</g>
<!-- taskman -->
<g id="node6" class="node"><title>taskman</title>
<ellipse fill="#ff9900" stroke="black" cx="487.076" cy="-682.14" rx="50.8918" ry="18"/>
<text text-anchor="middle" x="487.076" y="-678.44" font-family="Times,serif" font-size="14.00">taskman</text>
</g>
<!-- taskman&#45;&gt;cloudsqlproxy -->
<g id="edge16" class="edge"><title>taskman&#45;&gt;cloudsqlproxy</title>
<path fill="none" stroke="#ff9900" stroke-width="2" d="M534.478,-675.721C570.662,-670.715 621.701,-663.654 663.993,-657.803"/>
<polygon fill="#ff9900" stroke="#ff9900" stroke-width="2" points="673.984,-656.421 664.695,-662.249 669.1,-657.601 664.147,-658.286 664.078,-657.791 664.01,-657.296 668.963,-656.611 663.462,-653.334 673.984,-656.421 673.984,-656.421"/>
</g>
<!-- gsuite_groups -->
<g id="node11" class="node"><title>gsuite_groups</title>
<polygon fill="#c0c8e0" stroke="black" points="1131.86,-418.14 1128.86,-422.14 1107.86,-422.14 1104.86,-418.14 958.857,-418.14 958.857,-350.14 1131.86,-350.14 1131.86,-418.14"/>
<text text-anchor="start" x="966.857" y="-402.94" font-family="Times,serif" font-size="14.00">Google groups:</text>
<text text-anchor="end" x="1123.86" y="-387.94" font-family="Times,serif" font-size="14.00">archive@shipreq.com</text>
<text text-anchor="end" x="1123.86" y="-372.94" font-family="Times,serif" font-size="14.00">news@shipreq.com</text>
<text text-anchor="end" x="1123.86" y="-357.94" font-family="Times,serif" font-size="14.00">notice@shipreq.com</text>
</g>
<!-- taskman&#45;&gt;gsuite_groups -->
<g id="edge18" class="edge"><title>taskman&#45;&gt;gsuite_groups</title>
<path fill="none" stroke="#ff9900" stroke-width="2" d="M521.61,-668.755C527.663,-665.092 533.422,-660.589 537.771,-655.14 556.204,-632.047 543.126,-617.846 555.771,-591.14 591.282,-516.144 592.053,-481.551 662.771,-438.14 749.033,-385.188 866.596,-375.962 948.344,-377.274"/>
<polygon fill="#ff9900" stroke="#ff9900" stroke-width="2" points="958.631,-377.497 948.535,-381.779 953.621,-377.889 948.622,-377.78 948.633,-377.28 948.644,-376.78 953.643,-376.889 948.731,-372.781 958.631,-377.497 958.631,-377.497"/>
<text text-anchor="middle" x="742.064" y="-441.94" font-family="Times,serif" font-size="14.00">bcc:archive@</text>
</g>
<!-- mg_api -->
<g id="node13" class="node"><title>mg_api</title>
<ellipse fill="#55cc55" stroke="black" cx="742.064" cy="-159.14" rx="27.8951" ry="18"/>
<text text-anchor="middle" x="742.064" y="-155.44" font-family="Times,serif" font-size="14.00">API</text>
</g>
<!-- taskman&#45;&gt;mg_api -->
<g id="edge19" class="edge"><title>taskman&#45;&gt;mg_api</title>
<path fill="none" stroke="#ff9900" stroke-width="2" d="M522.757,-669.24C528.643,-665.553 534.046,-660.917 537.771,-655.14 567.718,-608.703 540.121,-460.134 555.771,-407.14 583.77,-312.332 596.202,-285.224 662.771,-212.14 676.354,-197.229 694.936,-184.421 710.589,-175.133"/>
<polygon fill="#ff9900" stroke="#ff9900" stroke-width="2" points="719.407,-170.082 712.966,-178.957 715.317,-173.001 710.978,-175.486 710.73,-175.052 710.481,-174.619 714.82,-172.133 708.493,-171.148 719.407,-170.082 719.407,-170.082"/>
</g>
<!-- mc_api -->
<g id="node15" class="node"><title>mc_api</title>
<ellipse fill="#55cc55" stroke="black" cx="742.064" cy="-537.14" rx="27.8951" ry="18"/>
<text text-anchor="middle" x="742.064" y="-533.44" font-family="Times,serif" font-size="14.00">API</text>
</g>
<!-- taskman&#45;&gt;mc_api -->
<g id="edge20" class="edge"><title>taskman&#45;&gt;mc_api</title>
<path fill="none" stroke="#ff9900" stroke-width="2" d="M515.752,-667.283C522.944,-663.373 530.666,-659.132 537.771,-655.14 600.355,-619.985 672.913,-577.431 712.191,-554.243"/>
<polygon fill="#ff9900" stroke="#ff9900" stroke-width="2" points="720.974,-549.054 714.654,-558.015 716.924,-552.028 712.619,-554.571 712.365,-554.141 712.111,-553.71 716.415,-551.167 710.076,-550.267 720.974,-549.054 720.974,-549.054"/>
</g>
<!-- fd_api -->
<g id="node20" class="node"><title>fd_api</title>
<ellipse fill="#55cc55" stroke="black" cx="742.064" cy="-842.14" rx="27.8951" ry="18"/>
<text text-anchor="middle" x="742.064" y="-838.44" font-family="Times,serif" font-size="14.00">API</text>
</g>
<!-- taskman&#45;&gt;fd_api -->
<g id="edge17" class="edge"><title>taskman&#45;&gt;fd_api</title>
<path fill="none" stroke="#ff9900" stroke-width="2" d="M512.794,-697.773C560.081,-727.68 663.074,-792.816 712.92,-824.341"/>
<polygon fill="#ff9900" stroke="#ff9900" stroke-width="2" points="721.584,-829.82 710.727,-828.278 717.091,-827.57 712.865,-824.897 713.132,-824.475 713.399,-824.052 717.625,-826.725 715.537,-820.672 721.584,-829.82 721.584,-829.82"/>
</g>
<!-- cloudsqlproxy&#45;&gt;cloud_sql -->
<g id="edge6" class="edge"><title>cloudsqlproxy&#45;&gt;cloud_sql</title>
<path fill="none" stroke="black" d="M821.439,-647.14C866.57,-647.14 923.041,-647.14 967.853,-647.14"/>
<polygon fill="black" stroke="black" points="978.102,-647.14 968.102,-651.64 973.102,-647.14 968.102,-647.14 968.102,-647.14 968.102,-647.14 973.102,-647.14 968.102,-642.64 978.102,-647.14 978.102,-647.14"/>
</g>
<!-- fd_mail -->
<g id="node18" class="node"><title>fd_mail</title>
<polygon fill="#aabbff" stroke="black" points="1135.36,-915.14 1132.36,-919.14 1111.36,-919.14 1108.36,-915.14 955.357,-915.14 955.357,-877.14 1135.36,-877.14 1135.36,-915.14"/>
<text text-anchor="middle" x="1045.36" y="-899.94" font-family="Times,serif" font-size="14.00">shipreqcomcontact@</text>
<text text-anchor="middle" x="1045.36" y="-884.94" font-family="Times,serif" font-size="14.00">shipreq.freshdesk.com</text>
</g>
<!-- gsuite_route&#45;&gt;fd_mail -->
<g id="edge11" class="edge"><title>gsuite_route:e&#45;&gt;fd_mail</title>
<path fill="none" stroke="black" d="M1098.36,-305.14C1129.6,-305.14 1140.4,-321.277 1152.36,-350.14 1162.09,-373.648 1162.09,-784.633 1152.36,-808.14 1141.05,-835.43 1115.97,-856.789 1092.93,-871.627"/>
<polygon fill="black" stroke="black" points="1084.23,-876.993 1090.38,-867.912 1088.49,-874.367 1092.74,-871.742 1092.74,-871.742 1092.74,-871.742 1088.49,-874.367 1095.11,-875.572 1084.23,-876.993 1084.23,-876.993"/>
</g>
<!-- gsuite_web -->
<g id="node10" class="node"><title>gsuite_web</title>
<polygon fill="burlywood" stroke="black" points="801.064,-374.14 695.064,-374.14 695.064,-378.14 683.064,-378.14 683.064,-338.14 801.064,-338.14 801.064,-374.14"/>
<polyline fill="none" stroke="black" points="683.064,-374.14 695.064,-374.14 "/>
<text text-anchor="middle" x="742.064" y="-352.44" font-family="Times,serif" font-size="14.00">Web interface</text>
</g>
<!-- gsuite_web&#45;&gt;gsuite_mail -->
<g id="edge12" class="edge"><title>gsuite_web&#45;&gt;gsuite_mail</title>
<path fill="none" stroke="black" d="M793.442,-338.003C805.273,-333.593 817.799,-328.802 829.357,-324.14 886.025,-301.287 898.023,-290.268 955.357,-269.14 970.375,-263.606 987.107,-258.31 1001.97,-253.896"/>
<polygon fill="black" stroke="black" points="1011.92,-250.99 1003.59,-258.113 1007.12,-252.392 1002.32,-253.794 1002.32,-253.794 1002.32,-253.794 1007.12,-252.392 1001.06,-249.474 1011.92,-250.99 1011.92,-250.99"/>
</g>
<!-- gsuite_web&#45;&gt;gsuite_route -->
<g id="edge14" class="edge"><title>gsuite_web&#45;&gt;gsuite_route</title>
<path fill="none" stroke="black" d="M801.194,-351.375C839.969,-347.678 891.966,-341.723 937.357,-333.14 954.785,-329.845 973.567,-325.282 990.457,-320.796"/>
<polygon fill="black" stroke="black" points="1000.16,-318.173 991.679,-325.127 995.331,-319.478 990.505,-320.783 990.505,-320.783 990.505,-320.783 995.331,-319.478 989.33,-316.439 1000.16,-318.173 1000.16,-318.173"/>
</g>
<!-- gsuite_web&#45;&gt;gsuite_groups -->
<g id="edge13" class="edge"><title>gsuite_web&#45;&gt;gsuite_groups</title>
<path fill="none" stroke="black" d="M801.157,-361.539C842.904,-365.419 900.133,-370.737 948.589,-375.24"/>
<polygon fill="black" stroke="black" points="958.787,-376.188 948.413,-379.743 953.808,-375.725 948.83,-375.263 948.83,-375.263 948.83,-375.263 953.808,-375.725 949.246,-370.782 958.787,-376.188 958.787,-376.188"/>
</g>
<!-- mg_web -->
<g id="node14" class="node"><title>mg_web</title>
<polygon fill="burlywood" stroke="black" points="801.064,-69.1404 695.064,-69.1404 695.064,-73.1404 683.064,-73.1404 683.064,-33.1404 801.064,-33.1404 801.064,-69.1404"/>
<polyline fill="none" stroke="black" points="683.064,-69.1404 695.064,-69.1404 "/>
<text text-anchor="middle" x="742.064" y="-47.4404" font-family="Times,serif" font-size="14.00">Web interface</text>
</g>
<!-- mc_web -->
<g id="node16" class="node"><title>mc_web</title>
<polygon fill="burlywood" stroke="black" points="801.064,-501.14 695.064,-501.14 695.064,-505.14 683.064,-505.14 683.064,-465.14 801.064,-465.14 801.064,-501.14"/>
<polyline fill="none" stroke="black" points="683.064,-501.14 695.064,-501.14 "/>
<text text-anchor="middle" x="742.064" y="-479.44" font-family="Times,serif" font-size="14.00">Web interface</text>
</g>
<!-- mc_web&#45;&gt;gsuite_groups -->
<g id="edge15" class="edge"><title>mc_web&#45;&gt;gsuite_groups</title>
<path fill="none" stroke="black" stroke-dasharray="5,2" d="M801.356,-471.969C840.427,-463.699 892.7,-451.113 937.357,-435.14 947.773,-431.415 958.532,-427.006 969.031,-422.363"/>
<polygon fill="black" stroke="black" points="978.176,-418.236 970.913,-426.451 973.619,-420.293 969.061,-422.35 969.061,-422.35 969.061,-422.35 973.619,-420.293 967.21,-418.248 978.176,-418.236 978.176,-418.236"/>
<text text-anchor="start" x="839.857" y="-481.94" font-family="Times,serif" font-size="14.00">from:notice@</text>
<text text-anchor="start" x="839.857" y="-466.94" font-family="Times,serif" font-size="14.00">from:news@</text>
</g>
<!-- fd_web -->
<g id="node19" class="node"><title>fd_web</title>
<polygon fill="burlywood" stroke="black" points="801.064,-914.14 695.064,-914.14 695.064,-918.14 683.064,-918.14 683.064,-878.14 801.064,-878.14 801.064,-914.14"/>
<polyline fill="none" stroke="black" points="683.064,-914.14 695.064,-914.14 "/>
<text text-anchor="middle" x="742.064" y="-892.44" font-family="Times,serif" font-size="14.00">Web interface</text>
</g>
<!-- fd_web&#45;&gt;staff_mail -->
<g id="edge9" class="edge"><title>fd_web&#45;&gt;staff_mail</title>
<path fill="none" stroke="black" d="M801.418,-878.943C810.826,-875.867 820.409,-872.55 829.357,-869.14 886.793,-847.256 897.389,-832.572 955.357,-812.14 961.382,-810.017 967.7,-807.995 974.07,-806.095"/>
<polygon fill="black" stroke="black" points="984.09,-803.212 975.724,-810.302 979.285,-804.595 974.48,-805.977 974.48,-805.977 974.48,-805.977 979.285,-804.595 973.236,-801.652 984.09,-803.212 984.09,-803.212"/>
</g>
<!-- fd_web&#45;&gt;gsuite_groups -->
<g id="edge8" class="edge"><title>fd_web&#45;&gt;gsuite_groups</title>
<path fill="none" stroke="black" d="M801.344,-887.667C811.981,-883.631 822.018,-877.735 829.357,-869.14 849.194,-845.911 830.287,-830.31 839.357,-801.14 884.24,-656.794 973.251,-500.343 1017.74,-426.845"/>
<polygon fill="black" stroke="black" points="1022.94,-418.3 1021.59,-429.182 1020.34,-422.571 1017.74,-426.843 1017.74,-426.843 1017.74,-426.843 1020.34,-422.571 1013.9,-424.504 1022.94,-418.3 1022.94,-418.3"/>
<text text-anchor="middle" x="888.357" y="-804.94" font-family="Times,serif" font-size="14.00">bcc:archive@</text>
</g>
<!-- fd_web&#45;&gt;fd_mail -->
<g id="edge7" class="edge"><title>fd_web&#45;&gt;fd_mail</title>
<path fill="none" stroke="black" d="M801.157,-896.14C841.946,-896.14 897.515,-896.14 945.24,-896.14"/>
<polygon fill="black" stroke="black" points="955.297,-896.14 945.297,-900.64 950.297,-896.14 945.297,-896.14 945.297,-896.14 945.297,-896.14 950.297,-896.14 945.297,-891.64 955.297,-896.14 955.297,-896.14"/>
</g>
</g>
</svg>
