<?xml version="1.0" encoding="UTF-8" standalone="no"?>
<!DOCTYPE svg PUBLIC "-//W3C//DTD SVG 1.1//EN"
 "http://www.w3.org/Graphics/SVG/1.1/DTD/svg11.dtd">
<!-- Generated by graphviz version 2.43.20190912.0211 (20190912.0211)
 -->
<!-- Title: G Pages: 1 -->
<svg width="1104pt" height="852pt"
 viewBox="0.00 0.00 1104.29 852.00" xmlns="http://www.w3.org/2000/svg" xmlns:xlink="http://www.w3.org/1999/xlink">
<g id="graph0" class="graph" transform="scale(1 1) rotate(0) translate(4 848)">
<title>G</title>
<polygon fill="white" stroke="transparent" points="-4,4 -4,-848 1100.29,-848 1100.29,4 -4,4"/>
<text text-anchor="middle" x="548.15" y="-828.8" font-family="Times,serif" font-size="14.00">ShipReq System Diagram</text>
<text text-anchor="middle" x="548.15" y="-813.8" font-family="Times,serif" font-size="14.00">(arrows denote a component&#39;s knowledge of another)</text>
<g id="clust1" class="cluster">
<title>cluster_gandi</title>
<polygon fill="#ccddcc" stroke="black" points="8,-243 8,-336 192.29,-336 192.29,-243 8,-243"/>
<text text-anchor="middle" x="100.15" y="-320.8" font-family="Times,serif" font-size="14.00">gandi.net</text>
</g>
<g id="clust2" class="cluster">
<title>cluster_aws</title>
<polygon fill="#ccddcc" stroke="black" points="220.75,-237 220.75,-366 842.65,-366 842.65,-237 220.75,-237"/>
<text text-anchor="middle" x="531.7" y="-350.8" font-family="Times,serif" font-size="14.00">AWS</text>
</g>
<g id="clust3" class="cluster">
<title>cluster_gsuite</title>
<polygon fill="#ccddcc" stroke="black" points="417.29,-565 417.29,-798 872.29,-798 872.29,-565 417.29,-565"/>
<text text-anchor="middle" x="644.79" y="-782.8" font-family="Times,serif" font-size="14.00">G&#45;Suite</text>
</g>
<g id="clust5" class="cluster">
<title>cluster_ga</title>
<polygon fill="#ccddcc" stroke="black" points="211.29,-46 211.29,-229 347.29,-229 347.29,-46 211.29,-46"/>
<text text-anchor="middle" x="279.29" y="-213.8" font-family="Times,serif" font-size="14.00">Google Analytics</text>
</g>
<g id="clust6" class="cluster">
<title>cluster_mailgun</title>
<polygon fill="#ccddcc" stroke="black" points="713.29,-374 713.29,-557 844.29,-557 844.29,-374 713.29,-374"/>
<text text-anchor="middle" x="778.79" y="-541.8" font-family="Times,serif" font-size="14.00">MailGun</text>
</g>
<g id="clust7" class="cluster">
<title>cluster_mailchimp</title>
<polygon fill="#ccddcc" stroke="black" points="213.29,-510 213.29,-639 344.29,-639 344.29,-510 213.29,-510"/>
<text text-anchor="middle" x="278.79" y="-623.8" font-family="Times,serif" font-size="14.00">MailChimp</text>
</g>
<g id="clust8" class="cluster">
<title>cluster_freshdesk</title>
<polygon fill="#ccddcc" stroke="black" points="713.29,-46 713.29,-229 1088.29,-229 1088.29,-46 713.29,-46"/>
<text text-anchor="middle" x="900.79" y="-213.8" font-family="Times,serif" font-size="14.00">FreshDesk</text>
</g>
<!-- staff_mail -->
<g id="node1" class="node">
<title>staff_mail</title>
<polygon fill="#aabbff" stroke="black" points="1051.79,-38 1048.79,-42 1027.79,-42 1024.79,-38 929.79,-38 929.79,0 1051.79,0 1051.79,-38"/>
<text text-anchor="middle" x="990.79" y="-22.8" font-family="Times,serif" font-size="14.00">Staff&#39;s</text>
<text text-anchor="middle" x="990.79" y="-7.8" font-family="Times,serif" font-size="14.00">personal email</text>
</g>
<!-- gandi_dns -->
<g id="node2" class="node">
<title>gandi_dns</title>
<ellipse fill="#55cc55" stroke="black" cx="100.15" cy="-278" rx="84.29" ry="26.74"/>
<text text-anchor="middle" x="100.15" y="-281.8" font-family="Times,serif" font-size="14.00">shipreq.com</text>
<text text-anchor="middle" x="100.15" y="-266.8" font-family="Times,serif" font-size="14.00">Name Servers</text>
</g>
<!-- route53 -->
<g id="node3" class="node">
<title>route53</title>
<ellipse fill="#55cc55" stroke="black" cx="278.79" cy="-278" rx="50.09" ry="18"/>
<text text-anchor="middle" x="278.79" y="-274.3" font-family="Times,serif" font-size="14.00">Route53</text>
</g>
<!-- gandi_dns&#45;&gt;route53 -->
<g id="edge10" class="edge">
<title>gandi_dns&#45;&gt;route53</title>
<path fill="none" stroke="black" d="M184.3,-278C195.82,-278 207.47,-278 218.45,-278"/>
<polygon fill="black" stroke="black" points="228.74,-278 218.74,-282.5 223.74,-278 218.74,-278 218.74,-278 218.74,-278 223.74,-278 218.74,-273.5 228.74,-278 228.74,-278"/>
</g>
<!-- route53&#45;&gt;route53 -->
<g id="edge6" class="edge">
<title>route53:n&#45;&gt;route53:n</title>
<path fill="none" stroke="black" d="M269.57,-300.25C260.58,-306.38 263.65,-314 278.79,-314 297.79,-314 297.79,-302 278.79,-296"/>
<polygon fill="black" stroke="black" points="278.79,-296 271.59,-304.27 274.25,-298.09 269.71,-300.18 269.71,-300.18 269.71,-300.18 274.25,-298.09 267.83,-296.09 278.79,-296 278.79,-296"/>
<text text-anchor="middle" x="278.79" y="-317.8" font-family="Times,serif" font-size="14.00">CNAME:www </text>
</g>
<!-- webapp -->
<g id="node5" class="node">
<title>webapp</title>
<ellipse fill="#ff00ff" stroke="black" cx="482.79" cy="-263" rx="46.59" ry="18"/>
<text text-anchor="middle" x="482.79" y="-259.3" font-family="Times,serif" font-size="14.00">webapp</text>
</g>
<!-- route53&#45;&gt;webapp -->
<g id="edge5" class="edge">
<title>route53&#45;&gt;webapp</title>
<path fill="none" stroke="black" d="M327.92,-274.43C357.59,-272.22 395.74,-269.39 426.63,-267.1"/>
<polygon fill="black" stroke="black" points="436.8,-266.34 427.16,-271.57 431.81,-266.71 426.83,-267.08 426.83,-267.08 426.83,-267.08 431.81,-266.71 426.5,-262.59 436.8,-266.34 436.8,-266.34"/>
<text text-anchor="middle" x="381.29" y="-275.8" font-family="Times,serif" font-size="14.00">A:&lt;ip&gt;</text>
</g>
<!-- gsuite_mail -->
<g id="node7" class="node">
<title>gsuite_mail</title>
<ellipse fill="#55cc55" stroke="black" cx="778.79" cy="-663" rx="38.19" ry="18"/>
<text text-anchor="middle" x="778.79" y="-659.3" font-family="Times,serif" font-size="14.00">GMail</text>
</g>
<!-- route53&#45;&gt;gsuite_mail -->
<g id="edge2" class="edge">
<title>route53&#45;&gt;gsuite_mail</title>
<path fill="none" stroke="black" d="M290.95,-295.48C312.8,-328.96 363.78,-403.56 417.29,-457 473.15,-512.78 488.41,-528.28 558.29,-565 606.69,-590.43 633.22,-568.08 675.29,-603 688.15,-613.67 680.41,-625.36 693.29,-636 704.38,-645.15 718.61,-651.22 732.23,-655.24"/>
<polygon fill="black" stroke="black" points="741.98,-657.81 731.16,-659.61 737.14,-656.54 732.31,-655.26 732.31,-655.26 732.31,-655.26 737.14,-656.54 733.46,-650.91 741.98,-657.81 741.98,-657.81"/>
<text text-anchor="middle" x="482.79" y="-557.8" font-family="Times,serif" font-size="14.00">MX &amp; DKIM</text>
</g>
<!-- mg_mx -->
<g id="node14" class="node">
<title>mg_mx</title>
<ellipse fill="#55cc55" stroke="black" cx="778.79" cy="-508" rx="27" ry="18"/>
<text text-anchor="middle" x="778.79" y="-504.3" font-family="Times,serif" font-size="14.00">MX</text>
</g>
<!-- route53&#45;&gt;mg_mx -->
<g id="edge3" class="edge">
<title>route53&#45;&gt;mg_mx</title>
<path fill="none" stroke="black" d="M301.34,-294.27C346.61,-327.75 455.89,-404.91 558.29,-449 620.53,-475.8 698.04,-493.2 742.33,-501.74"/>
<polygon fill="black" stroke="black" points="752.32,-503.63 741.65,-506.19 747.4,-502.7 742.49,-501.77 742.49,-501.77 742.49,-501.77 747.4,-502.7 743.32,-497.35 752.32,-503.63 752.32,-503.63"/>
<text text-anchor="middle" x="482.79" y="-441.8" font-family="Times,serif" font-size="14.00">MX &amp; DKIM</text>
</g>
<!-- fd_dkim -->
<g id="node19" class="node">
<title>fd_dkim</title>
<ellipse fill="#55cc55" stroke="black" cx="778.79" cy="-72" rx="37.89" ry="18"/>
<text text-anchor="middle" x="778.79" y="-68.3" font-family="Times,serif" font-size="14.00">DKIM</text>
</g>
<!-- route53&#45;&gt;fd_dkim -->
<g id="edge4" class="edge">
<title>route53&#45;&gt;fd_dkim</title>
<path fill="none" stroke="black" d="M309.72,-263.82C377.25,-232.1 546.99,-153.88 693.29,-99 707.22,-93.78 722.66,-88.65 736.49,-84.3"/>
<polygon fill="black" stroke="black" points="746.24,-81.27 738.02,-88.53 741.46,-82.75 736.69,-84.23 736.69,-84.23 736.69,-84.23 741.46,-82.75 735.35,-79.94 746.24,-81.27 746.24,-81.27"/>
<text text-anchor="middle" x="482.79" y="-215.8" font-family="Times,serif" font-size="14.00">DKIM</text>
</g>
<!-- rds -->
<g id="node4" class="node">
<title>rds</title>
<ellipse fill="#55cc55" stroke="black" cx="778.79" cy="-290" rx="55.72" ry="26.74"/>
<text text-anchor="middle" x="778.79" y="-293.8" font-family="Times,serif" font-size="14.00">RDS</text>
<text text-anchor="middle" x="778.79" y="-278.8" font-family="Times,serif" font-size="14.00">Postgres</text>
</g>
<!-- webapp&#45;&gt;rds -->
<g id="edge17" class="edge">
<title>webapp&#45;&gt;rds</title>
<path fill="none" stroke="black" d="M528.44,-267.1C577.74,-271.63 657.53,-278.96 713.54,-284.1"/>
<polygon fill="black" stroke="black" points="723.71,-285.03 713.34,-288.6 718.73,-284.58 713.75,-284.12 713.75,-284.12 713.75,-284.12 718.73,-284.58 714.17,-279.64 723.71,-285.03 723.71,-285.03"/>
</g>
<!-- gsuite_route -->
<g id="node8" class="node">
<title>gsuite_route</title>
<ellipse fill="#55cc55" stroke="black" cx="778.79" cy="-600" rx="51.74" ry="26.74"/>
<text text-anchor="middle" x="778.79" y="-603.8" font-family="Times,serif" font-size="14.00">Mail</text>
<text text-anchor="middle" x="778.79" y="-588.8" font-family="Times,serif" font-size="14.00">Routing</text>
</g>
<!-- webapp&#45;&gt;gsuite_route -->
<g id="edge22" class="edge">
<title>webapp&#45;&gt;gsuite_route</title>
<path fill="none" stroke="#ff00ff" stroke-width="2" d="M520.19,-273.94C527.89,-277.85 535.22,-283.07 540.29,-290 574.25,-336.34 533.4,-366.22 558.29,-418 596.16,-496.77 622.32,-509.98 693.29,-561 703.54,-568.37 715.4,-574.87 726.94,-580.35"/>
<polygon fill="#ff00ff" stroke="#ff00ff" stroke-width="2" points="736.08,-584.52 725.12,-584.47 731.33,-582.9 726.78,-580.83 726.99,-580.37 727.19,-579.92 731.74,-581.99 728.85,-576.28 736.08,-584.52 736.08,-584.52"/>
<text text-anchor="middle" x="616.79" y="-549.8" font-family="Times,serif" font-size="14.00">mailto:contact@</text>
</g>
<!-- taskman -->
<g id="node6" class="node">
<title>taskman</title>
<ellipse fill="#faca11" stroke="black" cx="482.79" cy="-317" rx="50.09" ry="18"/>
<text text-anchor="middle" x="482.79" y="-313.3" font-family="Times,serif" font-size="14.00">taskman</text>
</g>
<!-- taskman&#45;&gt;rds -->
<g id="edge16" class="edge">
<title>taskman&#45;&gt;rds</title>
<path fill="none" stroke="black" d="M531.35,-312.63C580.92,-308.08 658.89,-300.92 713.83,-295.87"/>
<polygon fill="black" stroke="black" points="723.81,-294.96 714.26,-300.35 718.83,-295.41 713.85,-295.87 713.85,-295.87 713.85,-295.87 718.83,-295.41 713.44,-291.39 723.81,-294.96 723.81,-294.96"/>
</g>
<!-- gsuite_groups -->
<g id="node10" class="node">
<title>gsuite_groups</title>
<polygon fill="#c0c8e0" stroke="black" points="864.29,-767 861.29,-771 840.29,-771 837.29,-767 693.29,-767 693.29,-699 864.29,-699 864.29,-767"/>
<text text-anchor="start" x="701.29" y="-751.8" font-family="Times,serif" font-size="14.00">Google groups:</text>
<text text-anchor="end" x="856.29" y="-736.8" font-family="Times,serif" font-size="14.00">archive@shipreq.com</text>
<text text-anchor="end" x="856.29" y="-721.8" font-family="Times,serif" font-size="14.00">news@shipreq.com</text>
<text text-anchor="end" x="856.29" y="-706.8" font-family="Times,serif" font-size="14.00">notice@shipreq.com</text>
</g>
<!-- taskman&#45;&gt;gsuite_groups -->
<g id="edge19" class="edge">
<title>taskman&#45;&gt;gsuite_groups</title>
<path fill="none" stroke="#faca11" stroke-width="2" d="M491.86,-334.86C503.98,-362.32 526.87,-416.78 540.29,-465 552.4,-508.51 535.53,-526 558.29,-565 592.34,-623.34 630.5,-611.44 675.29,-662 685.1,-673.07 682.32,-680.08 693.29,-690 694.25,-690.87 695.24,-691.73 696.24,-692.57"/>
<polygon fill="#faca11" stroke="#faca11" stroke-width="2" points="704.24,-698.79 693.58,-696.2 699.98,-696.11 696.03,-693.05 696.34,-692.65 696.65,-692.26 700.6,-695.32 699.1,-689.1 704.24,-698.79 704.24,-698.79"/>
<text text-anchor="middle" x="616.79" y="-665.8" font-family="Times,serif" font-size="14.00">bcc:archive@</text>
</g>
<!-- mg_api -->
<g id="node15" class="node">
<title>mg_api</title>
<ellipse fill="#55cc55" stroke="black" cx="778.79" cy="-454" rx="27" ry="18"/>
<text text-anchor="middle" x="778.79" y="-450.3" font-family="Times,serif" font-size="14.00">API</text>
</g>
<!-- taskman&#45;&gt;mg_api -->
<g id="edge20" class="edge">
<title>taskman&#45;&gt;mg_api</title>
<path fill="none" stroke="#faca11" stroke-width="2" d="M491.68,-334.96C502.89,-358.21 525.76,-398.11 558.29,-418 615.29,-452.86 695.51,-457.04 741.52,-456.09"/>
<polygon fill="#faca11" stroke="#faca11" stroke-width="2" points="751.63,-455.79 741.77,-460.59 746.64,-456.44 741.65,-456.59 741.63,-456.09 741.62,-455.59 746.61,-455.44 741.5,-451.59 751.63,-455.79 751.63,-455.79"/>
</g>
<!-- fd_api -->
<g id="node22" class="node">
<title>fd_api</title>
<ellipse fill="#55cc55" stroke="black" cx="778.79" cy="-180" rx="27" ry="18"/>
<text text-anchor="middle" x="778.79" y="-176.3" font-family="Times,serif" font-size="14.00">API</text>
</g>
<!-- taskman&#45;&gt;fd_api -->
<g id="edge18" class="edge">
<title>taskman&#45;&gt;fd_api</title>
<path fill="none" stroke="#faca11" stroke-width="2" d="M514.15,-302.85C570.45,-276.62 690.49,-220.68 747.07,-194.32"/>
<polygon fill="#faca11" stroke="#faca11" stroke-width="2" points="756.23,-190.05 749.07,-198.35 751.91,-192.61 747.38,-194.72 747.16,-194.27 746.95,-193.82 751.49,-191.71 745.26,-190.19 756.23,-190.05 756.23,-190.05"/>
</g>
<!-- fd_mail -->
<g id="node20" class="node">
<title>fd_mail</title>
<polygon fill="#aabbff" stroke="black" points="1080.29,-171 1077.29,-175 1056.29,-175 1053.29,-171 901.29,-171 901.29,-133 1080.29,-133 1080.29,-171"/>
<text text-anchor="middle" x="990.79" y="-155.8" font-family="Times,serif" font-size="14.00">shipreqcomcontact@</text>
<text text-anchor="middle" x="990.79" y="-140.8" font-family="Times,serif" font-size="14.00">shipreq.freshdesk.com</text>
</g>
<!-- gsuite_route&#45;&gt;fd_mail -->
<g id="edge11" class="edge">
<title>gsuite_route:e&#45;&gt;fd_mail</title>
<path fill="none" stroke="black" d="M831.79,-600C920.91,-600 972.17,-280.69 985.97,-181.22"/>
<polygon fill="black" stroke="black" points="987.33,-171.25 990.44,-181.77 986.66,-176.2 985.98,-181.16 985.98,-181.16 985.98,-181.16 986.66,-176.2 981.52,-180.55 987.33,-171.25 987.33,-171.25"/>
</g>
<!-- gsuite_web -->
<g id="node9" class="node">
<title>gsuite_web</title>
<polygon fill="burlywood" stroke="black" points="540.29,-681 437.29,-681 437.29,-685 425.29,-685 425.29,-645 540.29,-645 540.29,-681"/>
<polyline fill="none" stroke="black" points="425.29,-681 437.29,-681 "/>
<text text-anchor="middle" x="482.79" y="-659.3" font-family="Times,serif" font-size="14.00">Web interface</text>
</g>
<!-- gsuite_web&#45;&gt;gsuite_mail -->
<g id="edge12" class="edge">
<title>gsuite_web&#45;&gt;gsuite_mail</title>
<path fill="none" stroke="black" d="M540.48,-663C595.58,-663 678.33,-663 730.14,-663"/>
<polygon fill="black" stroke="black" points="740.39,-663 730.39,-667.5 735.39,-663 730.39,-663 730.39,-663 730.39,-663 735.39,-663 730.39,-658.5 740.39,-663 740.39,-663"/>
</g>
<!-- gsuite_web&#45;&gt;gsuite_route -->
<g id="edge14" class="edge">
<title>gsuite_web&#45;&gt;gsuite_route</title>
<path fill="none" stroke="black" d="M540.5,-659.59C592.31,-656.26 662.73,-651.11 675.29,-647 684.2,-644.09 684.96,-640.29 693.29,-636 704.14,-630.41 716.06,-624.94 727.44,-620.03"/>
<polygon fill="black" stroke="black" points="736.84,-616.03 729.39,-624.09 732.23,-617.99 727.63,-619.95 727.63,-619.95 727.63,-619.95 732.23,-617.99 725.87,-615.8 736.84,-616.03 736.84,-616.03"/>
</g>
<!-- gsuite_web&#45;&gt;gsuite_groups -->
<g id="edge13" class="edge">
<title>gsuite_web&#45;&gt;gsuite_groups</title>
<path fill="none" stroke="black" d="M540.48,-676.5C580.9,-686.12 636.21,-699.29 683.25,-710.49"/>
<polygon fill="black" stroke="black" points="693.16,-712.85 682.39,-714.91 688.3,-711.69 683.43,-710.53 683.43,-710.53 683.43,-710.53 688.3,-711.69 684.48,-706.16 693.16,-712.85 693.16,-712.85"/>
</g>
<!-- ga_api -->
<g id="node11" class="node">
<title>ga_api</title>
<ellipse fill="#55cc55" stroke="black" cx="278.79" cy="-126" rx="27" ry="18"/>
<text text-anchor="middle" x="278.79" y="-122.3" font-family="Times,serif" font-size="14.00">API</text>
</g>
<!-- ga_api&#45;&gt;webapp -->
<g id="edge24" class="edge">
<title>ga_api&#45;&gt;webapp</title>
<path fill="none" stroke="#ff00ff" stroke-width="2" d="M312.94,-136.95C324.19,-141.26 336.61,-146.7 347.29,-153 393.54,-180.28 440.5,-222.81 464.82,-246.19"/>
<polygon fill="#ff00ff" stroke="#ff00ff" stroke-width="2" points="303.42,-133.45 314.36,-132.67 308.29,-134.71 312.98,-136.43 312.81,-136.9 312.64,-137.37 307.94,-135.65 311.26,-141.12 303.42,-133.45 303.42,-133.45"/>
</g>
<!-- ga_api&#45;&gt;fd_dkim -->
<!-- ga_acct -->
<g id="node12" class="node">
<title>ga_acct</title>
<polygon fill="#aabbff" stroke="black" points="329.29,-198 326.29,-202 305.29,-202 302.29,-198 228.29,-198 228.29,-162 329.29,-162 329.29,-198"/>
<text text-anchor="middle" x="278.79" y="-176.3" font-family="Times,serif" font-size="14.00">Property ID</text>
</g>
<!-- ga_acct&#45;&gt;webapp -->
<g id="edge23" class="edge">
<title>ga_acct&#45;&gt;webapp</title>
<path fill="none" stroke="#ff00ff" stroke-width="2" d="M333.32,-202C370.59,-217.31 419.01,-237.2 450.25,-250.04"/>
<polygon fill="#ff00ff" stroke="#ff00ff" stroke-width="2" points="323.62,-198.01 334.58,-197.65 328.44,-199.45 333.06,-201.35 332.87,-201.81 332.68,-202.27 328.06,-200.37 331.16,-205.97 323.62,-198.01 323.62,-198.01"/>
</g>
<!-- ga_web -->
<g id="node13" class="node">
<title>ga_web</title>
<polygon fill="burlywood" stroke="black" points="336.29,-90 233.29,-90 233.29,-94 221.29,-94 221.29,-54 336.29,-54 336.29,-90"/>
<polyline fill="none" stroke="black" points="221.29,-90 233.29,-90 "/>
<text text-anchor="middle" x="278.79" y="-68.3" font-family="Times,serif" font-size="14.00">Web interface</text>
</g>
<!-- mg_web -->
<g id="node16" class="node">
<title>mg_web</title>
<polygon fill="burlywood" stroke="black" points="836.29,-418 733.29,-418 733.29,-422 721.29,-422 721.29,-382 836.29,-382 836.29,-418"/>
<polyline fill="none" stroke="black" points="721.29,-418 733.29,-418 "/>
<text text-anchor="middle" x="778.79" y="-396.3" font-family="Times,serif" font-size="14.00">Web interface</text>
</g>
<!-- mc_api -->
<g id="node17" class="node">
<title>mc_api</title>
<ellipse fill="#55cc55" stroke="black" cx="278.79" cy="-536" rx="27" ry="18"/>
<text text-anchor="middle" x="278.79" y="-532.3" font-family="Times,serif" font-size="14.00">API</text>
</g>
<!-- mc_api&#45;&gt;taskman -->
<g id="edge21" class="edge">
<title>mc_api&#45;&gt;taskman</title>
<path fill="none" stroke="#faca11" stroke-width="2" d="M300.66,-513.38C341.17,-469.45 429.68,-373.5 465.88,-334.25"/>
<polygon fill="#faca11" stroke="#faca11" stroke-width="2" points="293.68,-520.95 297.15,-510.55 296.7,-516.93 300.09,-513.26 300.46,-513.6 300.82,-513.94 297.43,-517.61 303.76,-516.65 293.68,-520.95 293.68,-520.95"/>
</g>
<!-- mc_web -->
<g id="node18" class="node">
<title>mc_web</title>
<polygon fill="burlywood" stroke="black" points="336.29,-608 233.29,-608 233.29,-612 221.29,-612 221.29,-572 336.29,-572 336.29,-608"/>
<polyline fill="none" stroke="black" points="221.29,-608 233.29,-608 "/>
<text text-anchor="middle" x="278.79" y="-586.3" font-family="Times,serif" font-size="14.00">Web interface</text>
</g>
<!-- mc_web&#45;&gt;gsuite_groups -->
<g id="edge15" class="edge">
<title>mc_web&#45;&gt;gsuite_groups</title>
<path fill="none" stroke="black" stroke-dasharray="5,2" d="M297.93,-608.03C322.61,-631.34 369.2,-671.14 417.29,-690 503.04,-723.63 608.35,-732.88 682.96,-734.62"/>
<polygon fill="black" stroke="black" points="693.28,-734.82 683.19,-739.13 688.28,-734.72 683.28,-734.63 683.28,-734.63 683.28,-734.63 688.28,-734.72 683.37,-730.13 693.28,-734.82 693.28,-734.82"/>
<text text-anchor="start" x="434.29" y="-740.8" font-family="Times,serif" font-size="14.00">from:notice@</text>
<text text-anchor="start" x="434.29" y="-725.8" font-family="Times,serif" font-size="14.00">from:news@</text>
</g>
<!-- fd_web -->
<g id="node21" class="node">
<title>fd_web</title>
<polygon fill="burlywood" stroke="black" points="836.29,-144 733.29,-144 733.29,-148 721.29,-148 721.29,-108 836.29,-108 836.29,-144"/>
<polyline fill="none" stroke="black" points="721.29,-144 733.29,-144 "/>
<text text-anchor="middle" x="778.79" y="-122.3" font-family="Times,serif" font-size="14.00">Web interface</text>
</g>
<!-- fd_web&#45;&gt;staff_mail -->
<g id="edge9" class="edge">
<title>fd_web&#45;&gt;staff_mail</title>
<path fill="none" stroke="black" d="M836.71,-117.22C849.41,-113.23 862.12,-107.43 872.29,-99 894.18,-80.86 879.14,-59.81 901.29,-42 906.91,-37.49 913.31,-33.85 920.05,-30.92"/>
<polygon fill="black" stroke="black" points="929.4,-27.35 921.66,-35.12 924.73,-29.14 920.06,-30.92 920.06,-30.92 920.06,-30.92 924.73,-29.14 918.45,-26.71 929.4,-27.35 929.4,-27.35"/>
</g>
<!-- fd_web&#45;&gt;gsuite_groups -->
<g id="edge8" class="edge">
<title>fd_web&#45;&gt;gsuite_groups</title>
<path fill="none" stroke="black" d="M721.21,-136.51C711.03,-140.39 701.18,-145.71 693.29,-153 602.26,-237.1 572.49,-291.41 593.79,-413.5 616.24,-542.16 606.67,-592.25 693.29,-690 693.81,-690.58 694.33,-691.16 694.87,-691.73"/>
<polygon fill="black" stroke="black" points="702.31,-698.74 691.95,-695.16 698.67,-695.31 695.03,-691.88 695.03,-691.88 695.03,-691.88 698.67,-695.31 698.12,-688.61 702.31,-698.74 702.31,-698.74"/>
<text text-anchor="middle" x="616.79" y="-402.3" font-family="Times,serif" font-size="14.00">bcc:archive@</text>
</g>
<!-- fd_web&#45;&gt;fd_mail -->
<g id="edge7" class="edge">
<title>fd_web&#45;&gt;fd_mail</title>
<path fill="none" stroke="black" d="M836.34,-133C853.23,-135.09 872.26,-137.45 891.02,-139.77"/>
<polygon fill="black" stroke="black" points="901.1,-141.02 890.62,-144.26 896.14,-140.4 891.18,-139.79 891.18,-139.79 891.18,-139.79 896.14,-140.4 891.73,-135.32 901.1,-141.02 901.1,-141.02"/>
</g>
</g>
</svg>
