<?xml version="1.0" encoding="UTF-8" standalone="no"?>
<!DOCTYPE svg PUBLIC "-//W3C//DTD SVG 1.1//EN"
 "http://www.w3.org/Graphics/SVG/1.1/DTD/svg11.dtd">
<!-- Generated by graphviz version 2.36.0 (20140111.2315)
 -->
<!-- Title: G Pages: 1 -->
<svg width="873pt" height="851pt"
 viewBox="0.00 0.00 873.00 851.00" xmlns="http://www.w3.org/2000/svg" xmlns:xlink="http://www.w3.org/1999/xlink">
<g id="graph0" class="graph" transform="scale(1 1) rotate(0) translate(4 847)">
<title>G</title>
<polygon fill="white" stroke="none" points="-4,4 -4,-847 869,-847 869,4 -4,4"/>
<text text-anchor="middle" x="432.5" y="-827.8" font-family="Times,serif" font-size="14.00">ShipReq System Diagram: Emails &amp; Comms</text>
<text text-anchor="middle" x="432.5" y="-812.8" font-family="Times,serif" font-size="14.00">(arrows denote flow of data from one component to another)</text>
<text text-anchor="middle" x="432.5" y="-797.8" font-family="Times,serif" font-size="14.00">(ignores which component instigates the data transfer)</text>
<text text-anchor="middle" x="432.5" y="-782.8" font-family="Times,serif" font-size="14.00">(red = comm from user, blue = comm to user)</text>
<g id="clust1" class="cluster"><title>cluster_staff</title>
<polygon fill="#e6ffe6" stroke="black" points="439,-8 439,-200 551,-200 551,-8 439,-8"/>
<text text-anchor="middle" x="495" y="-184.8" font-family="Times,serif" font-size="14.00">Staff</text>
</g>
<g id="clust2" class="cluster"><title>cluster_usr</title>
<polygon fill="#eeeeaa" stroke="black" points="737,-122 737,-427 839,-427 839,-122 737,-122"/>
<text text-anchor="middle" x="788" y="-411.8" font-family="Times,serif" font-size="14.00">Userland</text>
</g>
<g id="clust3" class="cluster"><title>cluster_gandi</title>
<polygon fill="#ebebeb" stroke="black" points="8,-465 8,-654 414,-654 414,-465 8,-465"/>
<text text-anchor="middle" x="211" y="-638.8" font-family="Times,serif" font-size="14.00">gandi.net</text>
</g>
<g id="clust4" class="cluster"><title>cluster_aws</title>
<polygon fill="#ebebeb" stroke="black" points="587,-466 587,-767 730,-767 730,-466 587,-466"/>
<text text-anchor="middle" x="658.5" y="-751.8" font-family="Times,serif" font-size="14.00">Amazon Web Services</text>
</g>
<g id="clust6" class="cluster"><title>cluster_mc</title>
<polygon fill="#ebebeb" stroke="black" points="603,-239 603,-426 713,-426 713,-239 603,-239"/>
<text text-anchor="middle" x="658" y="-410.8" font-family="Times,serif" font-size="14.00">MailChimp</text>
</g>
<g id="clust7" class="cluster"><title>cluster_fd</title>
<polygon fill="#ebebeb" stroke="black" points="443,-239 443,-426 595,-426 595,-239 443,-239"/>
<text text-anchor="middle" x="519" y="-410.8" font-family="Times,serif" font-size="14.00">Freshdesk</text>
</g>
<!-- mail_archive -->
<g id="node1" class="node"><title>mail_archive</title>
<polygon fill="#aabbff" stroke="black" points="561,-623 558,-627 537,-627 534,-623 433,-623 433,-585 561,-585 561,-623"/>
<text text-anchor="middle" x="497" y="-607.8" font-family="Times,serif" font-size="14.00">Archive.</text>
<text text-anchor="middle" x="497" y="-592.8" font-family="Times,serif" font-size="14.00">shipreq@gmail.com</text>
</g>
<!-- ea_contact -->
<g id="node7" class="node"><title>ea_contact</title>
<polygon fill="#c0c8e0" stroke="black" points="403.5,-511 400.5,-515 379.5,-515 376.5,-511 320.5,-511 320.5,-473 403.5,-473 403.5,-511"/>
<text text-anchor="middle" x="362" y="-495.8" font-family="Times,serif" font-size="14.00">contact@</text>
<text text-anchor="middle" x="362" y="-480.8" font-family="Times,serif" font-size="14.00">shipreq.com</text>
</g>
<!-- mail_archive&#45;&gt;ea_contact -->
<g id="edge8" class="edge"><title>mail_archive&#45;&gt;ea_contact</title>
<path fill="none" stroke="red" d="M459.35,-579.339C445.905,-570.357 430.901,-559.702 418,-549 403.82,-537.237 389.141,-522.445 378.371,-511.018"/>
<polygon fill="red" stroke="red" points="467.922,-584.983 457.095,-583.242 463.746,-582.233 459.57,-579.483 459.57,-579.483 459.57,-579.483 463.746,-582.233 462.045,-575.725 467.922,-584.983 467.922,-584.983"/>
</g>
<!-- taskman -->
<g id="node14" class="node"><title>taskman</title>
<ellipse fill="pink" stroke="black" cx="658" cy="-492" rx="39.9464" ry="18"/>
<text text-anchor="middle" x="658" y="-488.3" font-family="Times,serif" font-size="14.00">taskman</text>
</g>
<!-- mail_archive&#45;&gt;taskman -->
<g id="edge18" class="edge"><title>mail_archive&#45;&gt;taskman</title>
<path fill="none" stroke="red" d="M526.642,-578.853C557.459,-556.638 604.865,-524.496 633.619,-506.504"/>
<polygon fill="red" stroke="red" points="518.42,-584.836 523.858,-575.314 522.463,-581.894 526.506,-578.952 526.506,-578.952 526.506,-578.952 522.463,-581.894 529.153,-582.591 518.42,-584.836 518.42,-584.836"/>
</g>
<!-- mail_archive&#45;&gt;taskman -->
<g id="edge33" class="edge"><title>mail_archive&#45;&gt;taskman</title>
<path fill="none" stroke="#000099" d="M537.325,-579.319C570.465,-557.825 615.662,-526.76 640.386,-508.349"/>
<polygon fill="#000099" stroke="#000099" points="528.752,-584.836 534.726,-575.64 532.957,-582.13 537.161,-579.424 537.161,-579.424 537.161,-579.424 532.957,-582.13 539.597,-583.208 528.752,-584.836 528.752,-584.836"/>
</g>
<!-- fd_web -->
<g id="node18" class="node"><title>fd_web</title>
<polygon fill="#55cc55" stroke="black" points="587,-283 505,-283 505,-287 493,-287 493,-247 587,-247 587,-283"/>
<polyline fill="none" stroke="black" points="493,-283 505,-283 "/>
<text text-anchor="middle" x="540" y="-261.3" font-family="Times,serif" font-size="14.00">Web interface</text>
</g>
<!-- mail_archive&#45;&gt;fd_web -->
<g id="edge27" class="edge"><title>mail_archive&#45;&gt;fd_web</title>
<path fill="none" stroke="#000099" d="M480.352,-575.932C454.166,-529.651 409.519,-433.043 442,-358 456.09,-325.447 487.997,-299.117 511.596,-283.097"/>
<polygon fill="#000099" stroke="#000099" points="485.47,-584.758 476.561,-578.365 482.962,-580.432 480.453,-576.107 480.453,-576.107 480.453,-576.107 482.962,-580.432 484.346,-573.849 485.47,-584.758 485.47,-584.758"/>
</g>
<!-- staff -->
<g id="node2" class="node"><title>staff</title>
<polygon fill="#aabbff" stroke="black" points="517.5,-42 519,-43.5 519,-46.5 517.5,-48 514.5,-48 513,-46.5 513,-43.5 514.5,-42 517.5,-42"/>
<polyline fill="none" stroke="black" points="516,-42 516,-36 "/>
<polyline fill="none" stroke="black" points="489,-36 543,-36 "/>
<text text-anchor="middle" x="516" y="-24.3" font-family="Times,serif" font-size="14.00">Staff</text>
</g>
<!-- staff_mail -->
<g id="node3" class="node"><title>staff_mail</title>
<polygon fill="#aabbff" stroke="black" points="543.25,-169 540.25,-173 519.25,-173 516.25,-169 446.75,-169 446.75,-131 543.25,-131 543.25,-169"/>
<text text-anchor="middle" x="495" y="-153.8" font-family="Times,serif" font-size="14.00">Staff&#39;s</text>
<text text-anchor="middle" x="495" y="-138.8" font-family="Times,serif" font-size="14.00">personal email</text>
</g>
<!-- staff_mail&#45;&gt;staff -->
<g id="edge16" class="edge"><title>staff_mail&#45;&gt;staff</title>
<path fill="none" stroke="red" d="M498.468,-130.505C501.781,-112.834 506.824,-85.9408 510.652,-65.5247"/>
<polygon fill="red" stroke="red" points="512.527,-55.522 515.107,-66.1801 511.606,-60.4364 510.684,-65.3507 510.684,-65.3507 510.684,-65.3507 511.606,-60.4364 506.261,-64.5214 512.527,-55.522 512.527,-55.522"/>
</g>
<!-- usr_web -->
<g id="node4" class="node"><title>usr_web</title>
<polygon fill="#ccaa66" stroke="black" points="831,-284 757,-284 757,-288 745,-288 745,-246 831,-246 831,-284"/>
<polyline fill="none" stroke="black" points="745,-284 757,-284 "/>
<text text-anchor="middle" x="788" y="-268.8" font-family="Times,serif" font-size="14.00">User&#39;s</text>
<text text-anchor="middle" x="788" y="-253.8" font-family="Times,serif" font-size="14.00">web browser</text>
</g>
<!-- usr -->
<g id="node6" class="node"><title>usr</title>
<polygon fill="#ccaa66" stroke="black" points="789.5,-156 791,-157.5 791,-160.5 789.5,-162 786.5,-162 785,-160.5 785,-157.5 786.5,-156 789.5,-156"/>
<polyline fill="none" stroke="black" points="788,-156 788,-150 "/>
<polyline fill="none" stroke="black" points="761,-150 815,-150 "/>
<text text-anchor="middle" x="788" y="-138.3" font-family="Times,serif" font-size="14.00">User</text>
</g>
<!-- usr_web&#45;&gt;usr -->
<g id="edge21" class="edge"><title>usr_web&#45;&gt;usr</title>
<path fill="none" stroke="red" d="M782.066,-235.78C780.769,-215.194 781.018,-187.858 782.813,-169.864"/>
<polygon fill="red" stroke="red" points="782.885,-245.845 777.589,-236.243 782.48,-240.861 782.074,-235.878 782.074,-235.878 782.074,-235.878 782.48,-240.861 786.559,-235.512 782.885,-245.845 782.885,-245.845"/>
</g>
<!-- usr_web&#45;&gt;usr -->
<g id="edge35" class="edge"><title>usr_web&#45;&gt;usr</title>
<path fill="none" stroke="#000099" d="M793.115,-245.845C794.951,-228.1 795.241,-200.802 793.985,-180.04"/>
<polygon fill="#000099" stroke="#000099" points="793.187,-169.864 798.455,-179.482 793.578,-174.849 793.968,-179.833 793.968,-179.833 793.968,-179.833 793.578,-174.849 789.482,-180.185 793.187,-169.864 793.187,-169.864"/>
</g>
<!-- wb -->
<g id="node13" class="node"><title>wb</title>
<ellipse fill="pink" stroke="black" cx="658" cy="-718" rx="38.0212" ry="18"/>
<text text-anchor="middle" x="658" y="-714.3" font-family="Times,serif" font-size="14.00">webapp</text>
</g>
<!-- usr_web&#45;&gt;wb -->
<g id="edge22" class="edge"><title>usr_web&#45;&gt;wb</title>
<path fill="none" stroke="red" d="M811.521,-284.327C834.165,-304.217 865,-338.236 865,-376 865,-605 865,-605 865,-605 865,-677.038 766.825,-702.973 705.697,-712.139"/>
<polygon fill="red" stroke="red" points="695.486,-713.567 704.766,-707.726 700.438,-712.875 705.39,-712.182 705.39,-712.182 705.39,-712.182 700.438,-712.875 706.013,-716.639 695.486,-713.567 695.486,-713.567"/>
</g>
<!-- usr_mail -->
<g id="node5" class="node"><title>usr_mail</title>
<polygon fill="#aabbff" stroke="black" points="799,-396 796,-400 775,-400 772,-396 745,-396 745,-358 799,-358 799,-396"/>
<text text-anchor="middle" x="772" y="-380.8" font-family="Times,serif" font-size="14.00">User&#39;s</text>
<text text-anchor="middle" x="772" y="-365.8" font-family="Times,serif" font-size="14.00">email</text>
</g>
<!-- usr_mail&#45;&gt;usr_web -->
<g id="edge20" class="edge"><title>usr_mail&#45;&gt;usr_web</title>
<path fill="none" stroke="red" d="M769.761,-347.685C771.081,-339.437 772.775,-330.387 774,-322 775.834,-309.444 777.094,-295.199 779.07,-284.219"/>
<polygon fill="red" stroke="red" points="768.354,-357.595 765.305,-347.062 769.057,-352.645 769.76,-347.695 769.76,-347.695 769.76,-347.695 769.057,-352.645 774.215,-348.327 768.354,-357.595 768.354,-357.595"/>
</g>
<!-- usr_mail&#45;&gt;usr_web -->
<g id="edge34" class="edge"><title>usr_mail&#45;&gt;usr_web</title>
<path fill="none" stroke="#000099" d="M784.208,-357.595C787.566,-347.196 790.258,-333.929 792,-322 793.304,-313.073 794.318,-303.293 794.658,-294.44"/>
<polygon fill="#000099" stroke="#000099" points="794.713,-284.219 799.159,-294.243 794.686,-289.219 794.659,-294.219 794.659,-294.219 794.659,-294.219 794.686,-289.219 790.159,-294.194 794.713,-284.219 794.713,-284.219"/>
</g>
<!-- usr_mail&#45;&gt;ea_contact -->
<g id="edge19" class="edge"><title>usr_mail&#45;&gt;ea_contact</title>
<path fill="none" stroke="red" d="M756.472,-396.151C746.326,-406.814 732.178,-419.611 717,-427 664.245,-452.683 498.521,-475.058 413.471,-485.206"/>
<polygon fill="red" stroke="red" points="403.512,-486.383 412.915,-480.741 408.477,-485.796 413.443,-485.21 413.443,-485.21 413.443,-485.21 408.477,-485.796 413.971,-489.679 403.512,-486.383 403.512,-486.383"/>
</g>
<!-- fd_mail -->
<g id="node17" class="node"><title>fd_mail</title>
<polygon fill="#aabbff" stroke="black" points="514.25,-395 511.25,-399 490.25,-399 487.25,-395 451.75,-395 451.75,-359 514.25,-359 514.25,-395"/>
<text text-anchor="middle" x="483" y="-373.3" font-family="Times,serif" font-size="14.00">Mailbox</text>
</g>
<!-- ea_contact&#45;&gt;fd_mail -->
<g id="edge7" class="edge"><title>ea_contact&#45;&gt;fd_mail</title>
<path fill="none" stroke="red" d="M381.441,-472.845C401.998,-453.647 434.53,-423.266 457.217,-402.079"/>
<polygon fill="red" stroke="red" points="464.795,-395.001 460.558,-405.116 461.141,-398.414 457.486,-401.827 457.486,-401.827 457.486,-401.827 461.141,-398.414 454.415,-398.538 464.795,-395.001 464.795,-395.001"/>
</g>
<!-- ea_news -->
<g id="node8" class="node"><title>ea_news</title>
<polygon fill="#c0c8e0" stroke="black" points="405.5,-623 402.5,-627 381.5,-627 378.5,-623 322.5,-623 322.5,-585 405.5,-585 405.5,-623"/>
<text text-anchor="middle" x="364" y="-607.8" font-family="Times,serif" font-size="14.00">news@</text>
<text text-anchor="middle" x="364" y="-592.8" font-family="Times,serif" font-size="14.00">shipreq.com</text>
</g>
<!-- ea_news&#45;&gt;ea_contact -->
<g id="edge10" class="edge"><title>ea_news&#45;&gt;ea_contact</title>
<path fill="none" stroke="red" d="M363.67,-584.836C363.356,-567.559 362.878,-541.309 362.514,-521.292"/>
<polygon fill="red" stroke="red" points="362.331,-511.191 367.012,-521.108 362.422,-516.19 362.513,-521.19 362.513,-521.19 362.513,-521.19 362.422,-516.19 358.013,-521.271 362.331,-511.191 362.331,-511.191"/>
</g>
<!-- ea_notice -->
<g id="node9" class="node"><title>ea_notice</title>
<polygon fill="#c0c8e0" stroke="black" points="303.5,-623 300.5,-627 279.5,-627 276.5,-623 220.5,-623 220.5,-585 303.5,-585 303.5,-623"/>
<text text-anchor="middle" x="262" y="-607.8" font-family="Times,serif" font-size="14.00">notice@</text>
<text text-anchor="middle" x="262" y="-592.8" font-family="Times,serif" font-size="14.00">shipreq.com</text>
</g>
<!-- ea_notice&#45;&gt;ea_contact -->
<g id="edge11" class="edge"><title>ea_notice&#45;&gt;ea_contact</title>
<path fill="none" stroke="red" d="M278.513,-584.836C294.87,-566.843 320.076,-539.116 338.514,-518.834"/>
<polygon fill="red" stroke="red" points="345.463,-511.191 342.065,-521.618 342.099,-514.891 338.736,-518.591 338.736,-518.591 338.736,-518.591 342.099,-514.891 335.406,-515.564 345.463,-511.191 345.463,-511.191"/>
</g>
<!-- ea_support -->
<g id="node10" class="node"><title>ea_support</title>
<polygon fill="#c0c8e0" stroke="black" points="201.5,-623 198.5,-627 177.5,-627 174.5,-623 118.5,-623 118.5,-585 201.5,-585 201.5,-623"/>
<text text-anchor="middle" x="160" y="-607.8" font-family="Times,serif" font-size="14.00">support@</text>
<text text-anchor="middle" x="160" y="-592.8" font-family="Times,serif" font-size="14.00">shipreq.com</text>
</g>
<!-- ea_support&#45;&gt;ea_contact -->
<g id="edge12" class="edge"><title>ea_support&#45;&gt;ea_contact</title>
<path fill="none" stroke="red" d="M193.356,-584.836C227.963,-565.991 282.178,-536.467 319.757,-516.004"/>
<polygon fill="red" stroke="red" points="328.93,-511.008 322.3,-519.743 324.539,-513.4 320.148,-515.791 320.148,-515.791 320.148,-515.791 324.539,-513.4 317.996,-511.839 328.93,-511.008 328.93,-511.008"/>
</g>
<!-- ea_noreply -->
<g id="node11" class="node"><title>ea_noreply</title>
<polygon fill="#c0c8e0" stroke="black" points="99.5,-623 96.5,-627 75.5,-627 72.5,-623 16.5,-623 16.5,-585 99.5,-585 99.5,-623"/>
<text text-anchor="middle" x="58" y="-607.8" font-family="Times,serif" font-size="14.00">no&#45;reply@</text>
<text text-anchor="middle" x="58" y="-592.8" font-family="Times,serif" font-size="14.00">shipreq.com</text>
</g>
<!-- ea_noreply&#45;&gt;ea_contact -->
<g id="edge9" class="edge"><title>ea_noreply&#45;&gt;ea_contact</title>
<path fill="none" stroke="red" d="M99.6325,-587.936C154.624,-568.037 251.431,-533.008 310.826,-511.517"/>
<polygon fill="red" stroke="red" points="320.384,-508.059 312.511,-515.693 315.682,-509.76 310.98,-511.461 310.98,-511.461 310.98,-511.461 315.682,-509.76 309.449,-507.23 320.384,-508.059 320.384,-508.059"/>
</g>
<!-- aws_rds -->
<g id="node12" class="node"><title>aws_rds</title>
<ellipse fill="#55cc55" stroke="black" cx="658" cy="-604" rx="27.4223" ry="18"/>
<text text-anchor="middle" x="658" y="-600.3" font-family="Times,serif" font-size="14.00">RDS</text>
</g>
<!-- aws_rds&#45;&gt;taskman -->
<g id="edge24" class="edge"><title>aws_rds&#45;&gt;taskman</title>
<path fill="none" stroke="red" d="M648.089,-586.769C644.023,-569.08 643.412,-540.505 646.255,-519.542"/>
<polygon fill="red" stroke="red" points="647.992,-509.658 650.693,-520.286 647.127,-514.583 646.261,-519.507 646.261,-519.507 646.261,-519.507 647.127,-514.583 641.829,-518.728 647.992,-509.658 647.992,-509.658"/>
</g>
<!-- aws_rds&#45;&gt;taskman -->
<g id="edge37" class="edge"><title>aws_rds&#45;&gt;taskman</title>
<path fill="none" stroke="#000099" d="M667.911,-586.769C671.977,-569.08 672.588,-540.505 669.745,-519.542"/>
<polygon fill="#000099" stroke="#000099" points="668.008,-509.658 674.171,-518.728 668.873,-514.583 669.739,-519.507 669.739,-519.507 669.739,-519.507 668.873,-514.583 665.307,-520.286 668.008,-509.658 668.008,-509.658"/>
</g>
<!-- wb&#45;&gt;usr_web -->
<g id="edge6" class="edge"><title>wb&#45;&gt;usr_web</title>
<path fill="none" stroke="black" d="M702.578,-707.786C752.648,-694.524 827,-664.768 827,-605 827,-605 827,-605 827,-376 827,-346.524 814.406,-315.028 803.532,-293.325"/>
<polygon fill="black" stroke="black" points="692.607,-710.296 701.206,-703.491 697.456,-709.075 702.305,-707.854 702.305,-707.854 702.305,-707.854 697.456,-709.075 703.404,-712.218 692.607,-710.296 692.607,-710.296"/>
<polygon fill="black" stroke="black" points="798.864,-284.372 807.477,-291.158 801.175,-288.805 803.487,-293.239 803.487,-293.239 803.487,-293.239 801.175,-288.805 799.497,-295.319 798.864,-284.372 798.864,-284.372"/>
</g>
<!-- wb&#45;&gt;aws_rds -->
<g id="edge5" class="edge"><title>wb&#45;&gt;aws_rds</title>
<path fill="none" stroke="black" d="M646.339,-690.596C643.864,-672.577 643.887,-648.82 646.408,-630.907"/>
<polygon fill="black" stroke="black" points="648.089,-700.474 641.914,-691.412 647.217,-695.551 646.345,-690.627 646.345,-690.627 646.345,-690.627 647.217,-695.551 650.776,-689.842 648.089,-700.474 648.089,-700.474"/>
<polygon fill="black" stroke="black" points="648.24,-620.869 650.872,-631.514 647.343,-625.787 646.445,-630.706 646.445,-630.706 646.445,-630.706 647.343,-625.787 642.018,-629.898 648.24,-620.869 648.24,-620.869"/>
</g>
<!-- wb&#45;&gt;aws_rds -->
<g id="edge23" class="edge"><title>wb&#45;&gt;aws_rds</title>
<path fill="none" stroke="red" d="M658,-699.99C658,-682.063 658,-653.555 658,-632.442"/>
<polygon fill="red" stroke="red" points="658,-622.17 662.5,-632.17 658,-627.17 658,-632.17 658,-632.17 658,-632.17 658,-627.17 653.5,-632.171 658,-622.17 658,-622.17"/>
</g>
<!-- wb&#45;&gt;aws_rds -->
<g id="edge36" class="edge"><title>wb&#45;&gt;aws_rds</title>
<path fill="none" stroke="#000099" d="M667.911,-700.474C672.047,-682.151 672.608,-652.356 669.594,-630.921"/>
<polygon fill="#000099" stroke="#000099" points="667.76,-620.869 673.982,-629.898 668.657,-625.787 669.555,-630.706 669.555,-630.706 669.555,-630.706 668.657,-625.787 665.128,-631.514 667.76,-620.869 667.76,-620.869"/>
</g>
<!-- taskman&#45;&gt;usr_mail -->
<g id="edge32" class="edge"><title>taskman:e&#45;&gt;usr_mail:n</title>
<path fill="none" stroke="#000099" d="M700,-492C749.564,-492 769.407,-455.221 771.759,-407.099"/>
<polygon fill="#000099" stroke="#000099" points="772,-397 776.26,-407.105 771.881,-401.999 771.761,-406.997 771.761,-406.997 771.761,-406.997 771.881,-401.999 767.263,-406.89 772,-397 772,-397"/>
</g>
<!-- taskman&#45;&gt;aws_rds -->
<g id="edge3" class="edge"><title>taskman&#45;&gt;aws_rds</title>
<path fill="none" stroke="black" d="M658,-520.403C658,-537.311 658,-558.915 658,-575.788"/>
<polygon fill="black" stroke="black" points="658,-510.067 662.5,-520.067 658,-515.067 658,-520.067 658,-520.067 658,-520.067 658,-515.067 653.5,-520.067 658,-510.067 658,-510.067"/>
<polygon fill="black" stroke="black" points="658,-585.812 653.5,-575.812 658,-580.812 658,-575.812 658,-575.812 658,-575.812 658,-580.812 662.5,-575.813 658,-585.812 658,-585.812"/>
</g>
<!-- mc_api -->
<g id="node15" class="node"><title>mc_api</title>
<ellipse fill="#55cc55" stroke="black" cx="658" cy="-377" rx="27" ry="18"/>
<text text-anchor="middle" x="658" y="-373.3" font-family="Times,serif" font-size="14.00">API</text>
</g>
<!-- taskman&#45;&gt;mc_api -->
<g id="edge4" class="edge"><title>taskman&#45;&gt;mc_api</title>
<path fill="none" stroke="black" d="M652.991,-473.838C650.999,-455.563 650.716,-426.388 652.144,-405.023"/>
<polygon fill="black" stroke="black" points="653.014,-394.954 656.636,-405.304 652.583,-399.935 652.153,-404.916 652.153,-404.916 652.153,-404.916 652.583,-399.935 647.67,-404.529 653.014,-394.954 653.014,-394.954"/>
</g>
<!-- taskman&#45;&gt;mc_api -->
<g id="edge30" class="edge"><title>taskman&#45;&gt;mc_api</title>
<path fill="none" stroke="#000099" d="M663.873,-463.732C665.287,-442.308 664.991,-413.145 662.986,-394.954"/>
<polygon fill="#000099" stroke="#000099" points="663.009,-473.838 659.377,-463.491 663.435,-468.856 663.861,-463.874 663.861,-463.874 663.861,-463.874 663.435,-468.856 668.344,-464.257 663.009,-473.838 663.009,-473.838"/>
</g>
<!-- fd_api -->
<g id="node19" class="node"><title>fd_api</title>
<ellipse fill="#55cc55" stroke="black" cx="560" cy="-377" rx="27" ry="18"/>
<text text-anchor="middle" x="560" y="-373.3" font-family="Times,serif" font-size="14.00">API</text>
</g>
<!-- taskman&#45;&gt;fd_api -->
<g id="edge17" class="edge"><title>taskman&#45;&gt;fd_api</title>
<path fill="none" stroke="red" d="M642.882,-475.247C630.763,-462.467 613.455,-443.868 599,-427 591.964,-418.789 584.509,-409.563 578.022,-401.349"/>
<polygon fill="red" stroke="red" points="571.671,-393.241 581.38,-398.338 574.754,-397.177 577.837,-401.113 577.837,-401.113 577.837,-401.113 574.754,-397.177 574.295,-403.888 571.671,-393.241 571.671,-393.241"/>
</g>
<!-- mc_web -->
<g id="node16" class="node"><title>mc_web</title>
<polygon fill="#55cc55" stroke="black" points="705,-283 623,-283 623,-287 611,-287 611,-247 705,-247 705,-283"/>
<polyline fill="none" stroke="black" points="611,-283 623,-283 "/>
<text text-anchor="middle" x="658" y="-261.3" font-family="Times,serif" font-size="14.00">Web interface</text>
</g>
<!-- mc_api&#45;&gt;mc_web -->
<g id="edge2" class="edge"><title>mc_api&#45;&gt;mc_web</title>
<path fill="none" stroke="black" d="M652.991,-359.293C651.031,-341.79 650.726,-314.013 652.076,-293.314"/>
<polygon fill="black" stroke="black" points="652.933,-283.227 656.57,-293.572 652.51,-288.209 652.087,-293.191 652.087,-293.191 652.087,-293.191 652.51,-288.209 647.603,-292.81 652.933,-283.227 652.933,-283.227"/>
</g>
<!-- mc_api&#45;&gt;mc_web -->
<g id="edge31" class="edge"><title>mc_api&#45;&gt;mc_web</title>
<path fill="none" stroke="#000099" d="M663.883,-349.296C665.266,-328.738 664.994,-300.932 663.067,-283.227"/>
<polygon fill="#000099" stroke="#000099" points="663.009,-359.293 659.397,-348.939 663.445,-354.312 663.88,-349.331 663.88,-349.331 663.88,-349.331 663.445,-354.312 668.363,-349.723 663.009,-359.293 663.009,-359.293"/>
</g>
<!-- mc_web&#45;&gt;staff -->
<g id="edge28" class="edge"><title>mc_web&#45;&gt;staff</title>
<path fill="none" stroke="#000099" d="M646.522,-237.297C630.934,-202.381 601.076,-140.02 567,-92 557.806,-79.0439 545.792,-65.9454 535.735,-55.7827"/>
<polygon fill="#000099" stroke="#000099" points="650.711,-246.794 642.558,-239.461 648.693,-242.219 646.675,-237.644 646.675,-237.644 646.675,-237.644 648.693,-242.219 650.792,-235.828 650.711,-246.794 650.711,-246.794"/>
</g>
<!-- mc_web&#45;&gt;usr_mail -->
<g id="edge29" class="edge"><title>mc_web&#45;&gt;usr_mail</title>
<path fill="none" stroke="#000099" d="M695.229,-283.027C712.058,-292.14 731.213,-304.665 745,-320 752.36,-328.187 758.142,-338.74 762.434,-348.474"/>
<polygon fill="#000099" stroke="#000099" points="766.233,-357.817 758.298,-350.249 764.35,-353.185 762.466,-348.554 762.466,-348.554 762.466,-348.554 764.35,-353.185 766.635,-346.859 766.233,-357.817 766.233,-357.817"/>
</g>
<!-- fd_mail&#45;&gt;fd_web -->
<g id="edge13" class="edge"><title>fd_mail&#45;&gt;fd_web</title>
<path fill="none" stroke="red" d="M491.906,-358.812C501.192,-340.892 515.858,-312.591 526.554,-291.948"/>
<polygon fill="red" stroke="red" points="531.156,-283.067 530.551,-294.016 528.856,-287.506 526.555,-291.946 526.555,-291.946 526.555,-291.946 528.856,-287.506 522.56,-289.875 531.156,-283.067 531.156,-283.067"/>
</g>
<!-- fd_web&#45;&gt;staff -->
<g id="edge14" class="edge"><title>fd_web&#45;&gt;staff</title>
<path fill="none" stroke="red" d="M538.856,-246.769C542.006,-219.867 552.009,-166.37 543,-122 538.96,-102.101 530.1,-81.0775 523.273,-64.9174"/>
<polygon fill="red" stroke="red" points="519.346,-55.5375 527.359,-63.0237 521.277,-60.1496 523.208,-64.7617 523.208,-64.7617 523.208,-64.7617 521.277,-60.1496 519.057,-66.4996 519.346,-55.5375 519.346,-55.5375"/>
</g>
<!-- fd_web&#45;&gt;staff -->
<g id="edge25" class="edge"><title>fd_web&#45;&gt;staff</title>
<path fill="none" stroke="#000099" d="M553.457,-237.034C561.966,-208.274 569.023,-161.517 561,-122 556.121,-97.9706 544.215,-72.3025 533.503,-55.5375"/>
<polygon fill="#000099" stroke="#000099" points="550.281,-246.769 549.104,-235.867 551.832,-242.016 553.382,-237.262 553.382,-237.262 553.382,-237.262 551.832,-242.016 557.66,-238.658 550.281,-246.769 550.281,-246.769"/>
</g>
<!-- fd_web&#45;&gt;staff_mail -->
<g id="edge15" class="edge"><title>fd_web&#45;&gt;staff_mail</title>
<path fill="none" stroke="red" d="M533.165,-246.838C525.949,-228.716 514.464,-199.875 505.976,-178.561"/>
<polygon fill="red" stroke="red" points="502.197,-169.073 510.078,-176.699 504.047,-173.718 505.897,-178.364 505.897,-178.364 505.897,-178.364 504.047,-173.718 501.716,-180.028 502.197,-169.073 502.197,-169.073"/>
</g>
<!-- fd_web&#45;&gt;usr_mail -->
<g id="edge26" class="edge"><title>fd_web&#45;&gt;usr_mail</title>
<path fill="none" stroke="#000099" d="M576.001,-283.07C619.502,-303.695 692.262,-338.193 735.835,-358.853"/>
<polygon fill="#000099" stroke="#000099" points="744.933,-363.166 733.969,-362.948 740.415,-361.024 735.897,-358.882 735.897,-358.882 735.897,-358.882 740.415,-361.024 737.825,-354.816 744.933,-363.166 744.933,-363.166"/>
</g>
<!-- fd_api&#45;&gt;fd_web -->
<g id="edge1" class="edge"><title>fd_api&#45;&gt;fd_web</title>
<path fill="none" stroke="black" d="M556.875,-358.812C553.675,-341.215 548.656,-313.607 544.922,-293.071"/>
<polygon fill="black" stroke="black" points="543.103,-283.067 549.319,-292.1 543.998,-287.986 544.892,-292.906 544.892,-292.906 544.892,-292.906 543.998,-287.986 540.465,-293.711 543.103,-283.067 543.103,-283.067"/>
</g>
</g>
</svg>
