<?xml version="1.0" encoding="UTF-8" standalone="no"?>
<!DOCTYPE svg PUBLIC "-//W3C//DTD SVG 1.1//EN"
 "http://www.w3.org/Graphics/SVG/1.1/DTD/svg11.dtd">
<!-- Generated by graphviz version 2.43.20190912.0211 (20190912.0211)
 -->
<!-- Title: G Pages: 1 -->
<svg width="750pt" height="1224pt"
 viewBox="0.00 0.00 750.00 1224.00" xmlns="http://www.w3.org/2000/svg" xmlns:xlink="http://www.w3.org/1999/xlink">
<g id="graph0" class="graph" transform="scale(1 1) rotate(0) translate(4 1220)">
<title>G</title>
<polygon fill="white" stroke="transparent" points="-4,4 -4,-1220 746,-1220 746,4 -4,4"/>
<text text-anchor="middle" x="371" y="-1200.8" font-family="Times,serif" font-size="14.00">ShipReq System Diagram: Emails &amp; Comms</text>
<text text-anchor="middle" x="371" y="-1169.8" font-family="Times,serif" font-size="14.00">(arrows denote flow of data from one component to another)</text>
<text text-anchor="middle" x="371" y="-1154.8" font-family="Times,serif" font-size="14.00">(ignores which component instigates the data transfer)</text>
<text text-anchor="middle" x="371" y="-1139.8" font-family="Times,serif" font-size="14.00">(red = comm from user, blue = comm to user)</text>
<g id="clust1" class="cluster">
<title>cluster_staff</title>
<polygon fill="#e6ffe6" stroke="black" points="280,-8 280,-308 422,-308 422,-8 280,-8"/>
<text text-anchor="middle" x="351" y="-292.8" font-family="Times,serif" font-size="14.00">Staff</text>
</g>
<g id="clust2" class="cluster">
<title>cluster_usr</title>
<polygon fill="#eeeeaa" stroke="black" points="397,-806 397,-1108 523,-1108 523,-806 397,-806"/>
<text text-anchor="middle" x="460" y="-1092.8" font-family="Times,serif" font-size="14.00">Userland</text>
</g>
<g id="clust3" class="cluster">
<title>cluster_gsuite</title>
<polygon fill="#ebebeb" stroke="black" points="366,-345 366,-657 734,-657 734,-345 366,-345"/>
<text text-anchor="middle" x="550" y="-641.8" font-family="Times,serif" font-size="14.00">G&#45;Suite</text>
</g>
<g id="clust4" class="cluster">
<title>cluster_aws</title>
<polygon fill="#ebebeb" stroke="black" points="37,-581 37,-882 185,-882 185,-581 37,-581"/>
<text text-anchor="middle" x="111" y="-866.8" font-family="Times,serif" font-size="14.00">AWS</text>
</g>
<g id="clust5" class="cluster">
<title>cluster_mailgun</title>
<polygon fill="#ebebeb" stroke="black" points="193,-694 193,-769 414,-769 414,-694 193,-694"/>
<text text-anchor="middle" x="303.5" y="-753.8" font-family="Times,serif" font-size="14.00">MailGun</text>
</g>
<g id="clust6" class="cluster">
<title>cluster_mailchimp</title>
<polygon fill="#ebebeb" stroke="black" points="514,-232 514,-307 718,-307 718,-232 514,-232"/>
<text text-anchor="middle" x="616" y="-291.8" font-family="Times,serif" font-size="14.00">MailChimp</text>
</g>
<g id="clust7" class="cluster">
<title>cluster_freshdesk</title>
<polygon fill="#ebebeb" stroke="black" points="20,-345 20,-538.5 288,-538.5 288,-345 20,-345"/>
<text text-anchor="middle" x="154" y="-523.3" font-family="Times,serif" font-size="14.00">FreshDesk</text>
</g>
<!-- staff_web -->
<g id="node1" class="node">
<title>staff_web</title>
<polygon fill="burlywood" stroke="black" points="414,-166 300,-166 300,-170 288,-170 288,-128 414,-128 414,-166"/>
<polyline fill="none" stroke="black" points="288,-166 300,-166 "/>
<text text-anchor="middle" x="351" y="-150.8" font-family="Times,serif" font-size="14.00">Staff member&#39;s</text>
<text text-anchor="middle" x="351" y="-135.8" font-family="Times,serif" font-size="14.00">web browser</text>
</g>
<!-- staff -->
<g id="node3" class="node">
<title>staff</title>
<polygon fill="#aabbff" stroke="black" points="352.5,-41.5 354,-43 354,-46 352.5,-47.5 349.5,-47.5 348,-46 348,-43 349.5,-41.5 352.5,-41.5"/>
<polyline fill="none" stroke="black" points="351,-41.5 351,-35.5 "/>
<polyline fill="none" stroke="black" points="324,-35.5 378,-35.5 "/>
<text text-anchor="middle" x="351" y="-23.8" font-family="Times,serif" font-size="14.00">Staff</text>
</g>
<!-- staff_web&#45;&gt;staff -->
<g id="edge14" class="edge">
<title>staff_web&#45;&gt;staff</title>
<path fill="none" stroke="red" d="M340.67,-127.92C337.13,-110.93 336.56,-85.21 338.94,-65.38"/>
<polygon fill="red" stroke="red" points="340.51,-55.34 343.41,-65.92 339.74,-60.28 338.96,-65.22 338.96,-65.22 338.96,-65.22 339.74,-60.28 334.52,-64.53 340.51,-55.34 340.51,-55.34"/>
</g>
<!-- staff_web&#45;&gt;staff -->
<g id="edge26" class="edge">
<title>staff_web&#45;&gt;staff</title>
<path fill="none" stroke="#000099" d="M351,-117.72C351,-98.1 351,-72.51 351,-55.34"/>
<polygon fill="#000099" stroke="#000099" points="351,-127.92 346.5,-117.92 351,-122.92 351,-117.92 351,-117.92 351,-117.92 351,-122.92 355.5,-117.92 351,-127.92 351,-127.92"/>
</g>
<!-- staff_web&#45;&gt;staff -->
<g id="edge43" class="edge">
<title>staff_web&#45;&gt;staff</title>
<path fill="none" stroke="#22bbdd" d="M361.33,-127.92C364.87,-110.93 365.44,-85.21 363.06,-65.38"/>
<polygon fill="#22bbdd" stroke="#22bbdd" points="361.49,-55.34 367.48,-64.53 362.26,-60.28 363.04,-65.22 363.04,-65.22 363.04,-65.22 362.26,-60.28 358.59,-65.92 361.49,-55.34 361.49,-55.34"/>
</g>
<!-- staff_mail -->
<g id="node2" class="node">
<title>staff_mail</title>
<polygon fill="#aabbff" stroke="black" points="414,-277 411,-281 390,-281 387,-277 288,-277 288,-239 414,-239 414,-277"/>
<text text-anchor="middle" x="351" y="-261.8" font-family="Times,serif" font-size="14.00">Staff member&#39;s</text>
<text text-anchor="middle" x="351" y="-246.8" font-family="Times,serif" font-size="14.00">email address</text>
</g>
<!-- staff_mail&#45;&gt;staff_web -->
<g id="edge16" class="edge">
<title>staff_mail&#45;&gt;staff_web</title>
<path fill="none" stroke="red" d="M345.78,-238.51C344.05,-221.5 343.79,-196.01 344.99,-176.41"/>
<polygon fill="red" stroke="red" points="345.81,-166.22 349.49,-176.55 345.41,-171.2 345.01,-176.19 345.01,-176.19 345.01,-176.19 345.41,-171.2 340.52,-175.82 345.81,-166.22 345.81,-166.22"/>
</g>
<!-- staff_mail&#45;&gt;staff_web -->
<g id="edge28" class="edge">
<title>staff_mail&#45;&gt;staff_web</title>
<path fill="none" stroke="#000099" d="M357.03,-228.28C358.22,-208.62 357.94,-183.14 356.19,-166.22"/>
<polygon fill="#000099" stroke="#000099" points="356.22,-238.51 352.52,-228.19 356.61,-233.53 357.01,-228.54 357.01,-228.54 357.01,-228.54 356.61,-233.53 361.49,-228.9 356.22,-238.51 356.22,-238.51"/>
</g>
<!-- usr_web -->
<g id="node4" class="node">
<title>usr_web</title>
<polygon fill="burlywood" stroke="black" points="514.5,-965 417.5,-965 417.5,-969 405.5,-969 405.5,-927 514.5,-927 514.5,-965"/>
<polyline fill="none" stroke="black" points="405.5,-965 417.5,-965 "/>
<text text-anchor="middle" x="460" y="-949.8" font-family="Times,serif" font-size="14.00">User&#39;s</text>
<text text-anchor="middle" x="460" y="-934.8" font-family="Times,serif" font-size="14.00">web browser</text>
</g>
<!-- usr_mail -->
<g id="node5" class="node">
<title>usr_mail</title>
<polygon fill="#aabbff" stroke="black" points="491,-852 488,-856 467,-856 464,-852 429,-852 429,-814 491,-814 491,-852"/>
<text text-anchor="middle" x="460" y="-836.8" font-family="Times,serif" font-size="14.00">User&#39;s</text>
<text text-anchor="middle" x="460" y="-821.8" font-family="Times,serif" font-size="14.00">email</text>
</g>
<!-- usr_web&#45;&gt;usr_mail -->
<g id="edge7" class="edge">
<title>usr_web&#45;&gt;usr_mail</title>
<path fill="none" stroke="red" d="M449.67,-926.67C446.07,-909.16 445.54,-882.5 448.06,-862.27"/>
<polygon fill="red" stroke="red" points="449.66,-852.36 452.51,-862.95 448.87,-857.29 448.07,-862.23 448.07,-862.23 448.07,-862.23 448.87,-857.29 443.63,-861.51 449.66,-852.36 449.66,-852.36"/>
</g>
<!-- usr_web&#45;&gt;usr_mail -->
<g id="edge22" class="edge">
<title>usr_web&#45;&gt;usr_mail</title>
<path fill="none" stroke="#000099" d="M460,-916.48C460,-896.29 460,-869.8 460,-852.36"/>
<polygon fill="#000099" stroke="#000099" points="460,-926.67 455.5,-916.67 460,-921.67 460,-916.67 460,-916.67 460,-916.67 460,-921.67 464.5,-916.67 460,-926.67 460,-926.67"/>
</g>
<!-- usr_web&#45;&gt;usr_mail -->
<g id="edge37" class="edge">
<title>usr_web&#45;&gt;usr_mail</title>
<path fill="none" stroke="#22bbdd" d="M471.93,-916.76C474.46,-896.53 473.93,-869.88 470.34,-852.36"/>
<polygon fill="#22bbdd" stroke="#22bbdd" points="470.33,-926.67 467.49,-916.08 471.13,-921.73 471.93,-916.8 471.93,-916.8 471.93,-916.8 471.13,-921.73 476.37,-917.52 470.33,-926.67 470.33,-926.67"/>
</g>
<!-- webapp -->
<g id="node12" class="node">
<title>webapp</title>
<ellipse fill="#ffff99" stroke="black" cx="125" cy="-833" rx="46.59" ry="18"/>
<text text-anchor="middle" x="125" y="-829.3" font-family="Times,serif" font-size="14.00">webapp</text>
</g>
<!-- usr_web&#45;&gt;webapp -->
<g id="edge2" class="edge">
<title>usr_web&#45;&gt;webapp</title>
<path fill="none" stroke="red" d="M405.43,-926.92C339.57,-905.1 230.11,-868.83 169.25,-848.66"/>
<polygon fill="red" stroke="red" points="159.56,-845.45 170.46,-844.32 164.3,-847.02 169.05,-848.6 169.05,-848.6 169.05,-848.6 164.3,-847.02 167.63,-852.87 159.56,-845.45 159.56,-845.45"/>
</g>
<!-- fd_web -->
<g id="node19" class="node">
<title>fd_web</title>
<polygon fill="burlywood" stroke="black" points="279.5,-389 176.5,-389 176.5,-393 164.5,-393 164.5,-353 279.5,-353 279.5,-389"/>
<polyline fill="none" stroke="black" points="164.5,-389 176.5,-389 "/>
<text text-anchor="middle" x="222" y="-367.3" font-family="Times,serif" font-size="14.00">Web interface</text>
</g>
<!-- usr_web&#45;&gt;fd_web -->
<g id="edge12" class="edge">
<title>usr_web&#45;&gt;fd_web</title>
<path fill="none" stroke="red" d="M405.12,-942.32C304.26,-936.51 94.12,-920.11 33,-882 11.03,-868.3 0,-859.89 0,-834 0,-834 0,-834 0,-487.5 0,-417.19 88.73,-389.61 154,-378.84"/>
<polygon fill="red" stroke="red" points="164.25,-377.26 155.06,-383.23 159.31,-378.02 154.37,-378.79 154.37,-378.79 154.37,-378.79 159.31,-378.02 153.68,-374.34 164.25,-377.26 164.25,-377.26"/>
</g>
<!-- ea_contact -->
<g id="node7" class="node">
<title>ea_contact</title>
<polygon fill="#c0c8e0" stroke="black" points="545.5,-626 542.5,-630 521.5,-630 518.5,-626 374.5,-626 374.5,-588 545.5,-588 545.5,-626"/>
<text text-anchor="middle" x="460" y="-610.8" font-family="Times,serif" font-size="14.00">contact@shipreq.com</text>
<text text-anchor="middle" x="460" y="-595.8" font-family="Times,serif" font-size="14.00">(Routing rule)</text>
</g>
<!-- usr_mail&#45;&gt;ea_contact -->
<g id="edge8" class="edge">
<title>usr_mail&#45;&gt;ea_contact</title>
<path fill="none" stroke="red" d="M456.09,-813.67C452.58,-774.6 452.32,-682.92 455.33,-636.3"/>
<polygon fill="red" stroke="red" points="456.09,-626.27 459.82,-636.58 455.71,-631.26 455.34,-636.24 455.34,-636.24 455.34,-636.24 455.71,-631.26 450.85,-635.9 456.09,-626.27 456.09,-626.27"/>
</g>
<!-- usr_mail&#45;&gt;ea_contact -->
<g id="edge23" class="edge">
<title>usr_mail&#45;&gt;ea_contact</title>
<path fill="none" stroke="#000099" d="M464.67,-803.63C467.68,-756.96 467.42,-665.28 463.91,-626.27"/>
<polygon fill="#000099" stroke="#000099" points="463.91,-813.67 460.18,-803.36 464.29,-808.68 464.67,-803.7 464.67,-803.7 464.67,-803.7 464.29,-808.68 469.16,-804.04 463.91,-813.67 463.91,-813.67"/>
</g>
<!-- ea_broadcast -->
<g id="node8" class="node">
<title>ea_broadcast</title>
<polygon fill="#c0c8e0" stroke="black" points="726,-515 723,-519 702,-519 699,-515 564,-515 564,-462 726,-462 726,-515"/>
<text text-anchor="end" x="718" y="-499.8" font-family="Times,serif" font-size="14.00">news@shipreq.com</text>
<text text-anchor="end" x="718" y="-484.8" font-family="Times,serif" font-size="14.00">notice@shipreq.com</text>
<text text-anchor="middle" x="645" y="-469.8" font-family="Times,serif" font-size="14.00">(Group)</text>
</g>
<!-- usr_mail&#45;&gt;ea_broadcast -->
<g id="edge9" class="edge">
<title>usr_mail&#45;&gt;ea_broadcast</title>
<path fill="none" stroke="red" d="M491.17,-816.78C525.05,-799.47 574,-767.45 574,-721 574,-721 574,-721 574,-606 574,-575.39 590.88,-545 608.31,-522.94"/>
<polygon fill="red" stroke="red" points="614.72,-515.2 611.81,-525.77 611.53,-519.05 608.34,-522.9 608.34,-522.9 608.34,-522.9 611.53,-519.05 604.88,-520.03 614.72,-515.2 614.72,-515.2"/>
</g>
<!-- usr_mail&#45;&gt;ea_broadcast -->
<g id="edge29" class="edge">
<title>usr_mail&#45;&gt;ea_broadcast</title>
<path fill="none" stroke="#000099" d="M500.86,-818.46C539.75,-801.58 592,-769 592,-721 592,-721 592,-721 592,-606 592,-571.63 613.29,-537.54 629.1,-515.2"/>
<polygon fill="#000099" stroke="#000099" points="491.3,-822.41 498.83,-814.43 495.93,-820.5 500.55,-818.59 500.55,-818.59 500.55,-818.59 495.93,-820.5 502.27,-822.74 491.3,-822.41 491.3,-822.41"/>
</g>
<!-- mg_api -->
<g id="node14" class="node">
<title>mg_api</title>
<ellipse fill="#55cc55" stroke="black" cx="379" cy="-720" rx="27" ry="18"/>
<text text-anchor="middle" x="379" y="-716.3" font-family="Times,serif" font-size="14.00">API</text>
</g>
<!-- usr_mail&#45;&gt;mg_api -->
<g id="edge38" class="edge">
<title>usr_mail&#45;&gt;mg_api</title>
<path fill="none" stroke="#22bbdd" d="M440.71,-805.57C425,-784.03 403.34,-754.36 390.3,-736.49"/>
<polygon fill="#22bbdd" stroke="#22bbdd" points="446.62,-813.67 437.09,-808.25 443.68,-809.63 440.73,-805.59 440.73,-805.59 440.73,-805.59 443.68,-809.63 444.36,-802.94 446.62,-813.67 446.62,-813.67"/>
</g>
<!-- usr -->
<g id="node6" class="node">
<title>usr</title>
<polygon fill="#55cc55" stroke="black" points="461.5,-1063.5 463,-1065 463,-1068 461.5,-1069.5 458.5,-1069.5 457,-1068 457,-1065 458.5,-1063.5 461.5,-1063.5"/>
<polyline fill="none" stroke="black" points="460,-1063.5 460,-1057.5 "/>
<polyline fill="none" stroke="black" points="433,-1057.5 487,-1057.5 "/>
<text text-anchor="middle" x="460" y="-1045.8" font-family="Times,serif" font-size="14.00">User</text>
</g>
<!-- usr&#45;&gt;usr_web -->
<g id="edge1" class="edge">
<title>usr&#45;&gt;usr_web</title>
<path fill="none" stroke="red" d="M449.57,-1037.92C446.09,-1020.75 445.57,-994.99 448.02,-975.26"/>
<polygon fill="red" stroke="red" points="449.62,-965.3 452.47,-975.89 448.83,-970.24 448.03,-975.17 448.03,-975.17 448.03,-975.17 448.83,-970.24 443.59,-974.46 449.62,-965.3 449.62,-965.3"/>
</g>
<!-- usr&#45;&gt;usr_web -->
<g id="edge21" class="edge">
<title>usr&#45;&gt;usr_web</title>
<path fill="none" stroke="#000099" d="M460,-1027.92C460,-1008.13 460,-982.38 460,-965.3"/>
<polygon fill="#000099" stroke="#000099" points="460,-1037.92 455.5,-1027.92 460,-1032.92 460,-1027.92 460,-1027.92 460,-1027.92 460,-1032.92 464.5,-1027.92 460,-1037.92 460,-1037.92"/>
</g>
<!-- usr&#45;&gt;usr_web -->
<g id="edge36" class="edge">
<title>usr&#45;&gt;usr_web</title>
<path fill="none" stroke="#22bbdd" d="M472.02,-1027.92C474.44,-1008.13 473.89,-982.38 470.38,-965.3"/>
<polygon fill="#22bbdd" stroke="#22bbdd" points="470.43,-1037.92 467.56,-1027.34 471.22,-1032.99 472,-1028.05 472,-1028.05 472,-1028.05 471.22,-1032.99 476.45,-1028.75 470.43,-1037.92 470.43,-1037.92"/>
</g>
<!-- ea_contact&#45;&gt;staff_mail -->
<g id="edge27" class="edge">
<title>ea_contact&#45;&gt;staff_mail</title>
<path fill="none" stroke="#000099" stroke-dasharray="5,2" d="M412.91,-582.33C395.57,-571.31 377.4,-556.6 366,-538.5 338.94,-495.53 346,-476.78 346,-426 346,-426 346,-426 346,-370 346,-337.21 348.2,-299.02 349.69,-277.06"/>
<polygon fill="#000099" stroke="#000099" points="421.86,-587.76 410.98,-586.43 417.58,-585.17 413.31,-582.58 413.31,-582.58 413.31,-582.58 417.58,-585.17 415.64,-578.73 421.86,-587.76 421.86,-587.76"/>
</g>
<!-- ea_archive -->
<g id="node9" class="node">
<title>ea_archive</title>
<polygon fill="#c0c8e0" stroke="black" points="545.5,-507.5 542.5,-511.5 521.5,-511.5 518.5,-507.5 374.5,-507.5 374.5,-469.5 545.5,-469.5 545.5,-507.5"/>
<text text-anchor="middle" x="460" y="-492.3" font-family="Times,serif" font-size="14.00">archive@shipreq.com</text>
<text text-anchor="middle" x="460" y="-477.3" font-family="Times,serif" font-size="14.00">(Group)</text>
</g>
<!-- ea_contact&#45;&gt;ea_archive -->
<g id="edge19" class="edge">
<title>ea_contact&#45;&gt;ea_archive</title>
<path fill="none" stroke="red" d="M460,-587.8C460,-569.07 460,-539.65 460,-517.87"/>
<polygon fill="red" stroke="red" points="460,-507.58 464.5,-517.58 460,-512.58 460,-517.58 460,-517.58 460,-517.58 460,-512.58 455.5,-517.58 460,-507.58 460,-507.58"/>
</g>
<!-- fd_mail -->
<g id="node18" class="node">
<title>fd_mail</title>
<polygon fill="#aabbff" stroke="black" points="279.5,-507.5 276.5,-511.5 255.5,-511.5 252.5,-507.5 100.5,-507.5 100.5,-469.5 279.5,-469.5 279.5,-507.5"/>
<text text-anchor="middle" x="190" y="-492.3" font-family="Times,serif" font-size="14.00">shipreqcomcontact@</text>
<text text-anchor="middle" x="190" y="-477.3" font-family="Times,serif" font-size="14.00">shipreq.freshdesk.com</text>
</g>
<!-- ea_contact&#45;&gt;fd_mail -->
<g id="edge10" class="edge">
<title>ea_contact&#45;&gt;fd_mail</title>
<path fill="none" stroke="red" d="M392.86,-587.94C362.11,-578.72 325.57,-566.4 294,-552 270.07,-541.09 244.74,-525.95 225.07,-513.3"/>
<polygon fill="red" stroke="red" points="216.45,-507.69 227.29,-509.38 220.64,-510.42 224.83,-513.15 224.83,-513.15 224.83,-513.15 220.64,-510.42 222.38,-516.92 216.45,-507.69 216.45,-507.69"/>
</g>
<!-- ea_contact&#45;&gt;fd_web -->
<g id="edge24" class="edge">
<title>ea_contact&#45;&gt;fd_web</title>
<path fill="none" stroke="#000099" d="M401.28,-583.69C377.75,-572.68 351.63,-557.61 332,-538.5 304.05,-511.29 310.24,-494.71 289,-462 271.92,-435.7 249.82,-406.88 235.77,-389.12"/>
<polygon fill="#000099" stroke="#000099" points="410.49,-587.86 399.53,-587.84 405.94,-585.8 401.38,-583.74 401.38,-583.74 401.38,-583.74 405.94,-585.8 403.24,-579.64 410.49,-587.86 410.49,-587.86"/>
</g>
<!-- gsuite_web -->
<g id="node10" class="node">
<title>gsuite_web</title>
<polygon fill="burlywood" stroke="black" points="517.5,-389 414.5,-389 414.5,-393 402.5,-393 402.5,-353 517.5,-353 517.5,-389"/>
<polyline fill="none" stroke="black" points="402.5,-389 414.5,-389 "/>
<text text-anchor="middle" x="460" y="-367.3" font-family="Times,serif" font-size="14.00">Web interface</text>
</g>
<!-- ea_broadcast&#45;&gt;gsuite_web -->
<g id="edge17" class="edge">
<title>ea_broadcast&#45;&gt;gsuite_web</title>
<path fill="none" stroke="red" d="M598.22,-461.87C564.66,-441.81 520.47,-414.18 491.12,-394.87"/>
<polygon fill="red" stroke="red" points="482.51,-389.16 493.33,-390.94 486.68,-391.92 490.85,-394.69 490.85,-394.69 490.85,-394.69 486.68,-391.92 488.36,-398.44 482.51,-389.16 482.51,-389.16"/>
</g>
<!-- ea_broadcast&#45;&gt;gsuite_web -->
<g id="edge32" class="edge">
<title>ea_broadcast&#45;&gt;gsuite_web</title>
<path fill="none" stroke="#000099" d="M601.01,-456.25C567.64,-434.67 522.63,-406.8 492.45,-389.16"/>
<polygon fill="#000099" stroke="#000099" points="609.66,-461.87 598.83,-460.19 605.47,-459.14 601.28,-456.42 601.28,-456.42 601.28,-456.42 605.47,-459.14 603.73,-452.64 609.66,-461.87 609.66,-461.87"/>
</g>
<!-- mc_web -->
<g id="node17" class="node">
<title>mc_web</title>
<polygon fill="burlywood" stroke="black" points="637.5,-276 534.5,-276 534.5,-280 522.5,-280 522.5,-240 637.5,-240 637.5,-276"/>
<polyline fill="none" stroke="black" points="522.5,-276 534.5,-276 "/>
<text text-anchor="middle" x="580" y="-254.3" font-family="Times,serif" font-size="14.00">Web interface</text>
</g>
<!-- ea_broadcast&#45;&gt;mc_web -->
<g id="edge30" class="edge">
<title>ea_broadcast&#45;&gt;mc_web</title>
<path fill="none" stroke="#000099" stroke-dasharray="5,2" d="M634.91,-452.02C620.74,-402.23 595.51,-313.54 584.91,-276.26"/>
<polygon fill="#000099" stroke="#000099" points="637.67,-461.73 630.61,-453.35 636.3,-456.92 634.93,-452.11 634.93,-452.11 634.93,-452.11 636.3,-456.92 639.26,-450.88 637.67,-461.73 637.67,-461.73"/>
</g>
<!-- ea_archive&#45;&gt;gsuite_web -->
<g id="edge20" class="edge">
<title>ea_archive&#45;&gt;gsuite_web</title>
<path fill="none" stroke="red" d="M449.88,-469.45C445.95,-450.59 445.45,-420.77 448.36,-399.08"/>
<polygon fill="red" stroke="red" points="450.06,-389.17 452.8,-399.78 449.22,-394.09 448.37,-399.02 448.37,-399.02 448.37,-399.02 449.22,-394.09 443.93,-398.26 450.06,-389.17 450.06,-389.17"/>
</g>
<!-- ea_archive&#45;&gt;gsuite_web -->
<g id="edge41" class="edge">
<title>ea_archive&#45;&gt;gsuite_web</title>
<path fill="none" stroke="#22bbdd" d="M470.12,-469.45C474.05,-450.59 474.55,-420.77 471.64,-399.08"/>
<polygon fill="#22bbdd" stroke="#22bbdd" points="469.94,-389.17 476.07,-398.26 470.78,-394.09 471.63,-399.02 471.63,-399.02 471.63,-399.02 470.78,-394.09 467.2,-399.78 469.94,-389.17 469.94,-389.17"/>
</g>
<!-- ea_archive&#45;&gt;fd_web -->
<g id="edge35" class="edge">
<title>ea_archive&#45;&gt;fd_web</title>
<path fill="none" stroke="#000099" d="M413.7,-465.03C367.94,-442.82 298.91,-409.32 257.37,-389.17"/>
<polygon fill="#000099" stroke="#000099" points="422.81,-469.45 411.85,-469.14 418.31,-467.27 413.82,-465.09 413.82,-465.09 413.82,-465.09 418.31,-467.27 415.78,-461.04 422.81,-469.45 422.81,-469.45"/>
</g>
<!-- gsuite_web&#45;&gt;staff_web -->
<g id="edge18" class="edge">
<title>gsuite_web&#45;&gt;staff_web</title>
<path fill="none" stroke="red" d="M446.6,-352.97C436.09,-326 426.29,-272.37 405,-232 393.66,-210.5 375.94,-189.72 363.08,-174.22"/>
<polygon fill="red" stroke="red" points="356.52,-166.17 366.33,-171.07 359.68,-170.04 362.84,-173.92 362.84,-173.92 362.84,-173.92 359.68,-170.04 359.36,-176.76 356.52,-166.17 356.52,-166.17"/>
</g>
<!-- gsuite_web&#45;&gt;staff_web -->
<g id="edge33" class="edge">
<title>gsuite_web&#45;&gt;staff_web</title>
<path fill="none" stroke="#000099" d="M456.38,-342.84C451.72,-314.02 441.88,-267.8 423,-232 409.56,-206.52 387.15,-182.06 370.9,-166.17"/>
<polygon fill="#000099" stroke="#000099" points="457.92,-352.97 451.97,-343.76 457.17,-348.03 456.42,-343.09 456.42,-343.09 456.42,-343.09 457.17,-348.03 460.87,-342.41 457.92,-352.97 457.92,-352.97"/>
</g>
<!-- gsuite_web&#45;&gt;staff_web -->
<g id="edge42" class="edge">
<title>gsuite_web&#45;&gt;staff_web</title>
<path fill="none" stroke="#22bbdd" d="M469.23,-352.97C472.09,-326 462.29,-272.37 441,-232 429.35,-209.9 410.95,-188.57 393.3,-172.94"/>
<polygon fill="#22bbdd" stroke="#22bbdd" points="385.28,-166.17 395.82,-169.18 389.1,-169.39 392.92,-172.62 392.92,-172.62 392.92,-172.62 389.1,-169.39 390.02,-176.06 385.28,-166.17 385.28,-166.17"/>
</g>
<!-- gsuite_web&#45;&gt;ea_archive -->
<g id="edge34" class="edge">
<title>gsuite_web&#45;&gt;ea_archive</title>
<path fill="none" stroke="#000099" d="M460,-399.37C460,-421.04 460,-450.67 460,-469.45"/>
<polygon fill="#000099" stroke="#000099" points="460,-389.17 464.5,-399.17 460,-394.17 460,-399.17 460,-399.17 460,-399.17 460,-394.17 455.5,-399.17 460,-389.17 460,-389.17"/>
</g>
<!-- cloud_sql -->
<g id="node11" class="node">
<title>cloud_sql</title>
<ellipse fill="#55cc55" stroke="black" cx="111" cy="-720" rx="65.79" ry="18"/>
<text text-anchor="middle" x="111" y="-716.3" font-family="Times,serif" font-size="14.00">PostgreSQL</text>
</g>
<!-- taskman -->
<g id="node13" class="node">
<title>taskman</title>
<ellipse fill="#ffff99" stroke="black" cx="111" cy="-607" rx="50.09" ry="18"/>
<text text-anchor="middle" x="111" y="-603.3" font-family="Times,serif" font-size="14.00">taskman</text>
</g>
<!-- cloud_sql&#45;&gt;taskman -->
<g id="edge4" class="edge">
<title>cloud_sql&#45;&gt;taskman</title>
<path fill="none" stroke="red" d="M111,-701.66C111,-683.9 111,-656.04 111,-635.32"/>
<polygon fill="red" stroke="red" points="111,-625.22 115.5,-635.22 111,-630.22 111,-635.22 111,-635.22 111,-635.22 111,-630.22 106.5,-635.22 111,-625.22 111,-625.22"/>
</g>
<!-- webapp&#45;&gt;cloud_sql -->
<g id="edge3" class="edge">
<title>webapp&#45;&gt;cloud_sql</title>
<path fill="none" stroke="red" d="M122.81,-814.66C120.57,-796.9 117.06,-769.04 114.45,-748.32"/>
<polygon fill="red" stroke="red" points="113.17,-738.22 118.89,-747.58 113.8,-743.18 114.42,-748.14 114.42,-748.14 114.42,-748.14 113.8,-743.18 109.96,-748.71 113.17,-738.22 113.17,-738.22"/>
</g>
<!-- fd_api -->
<g id="node20" class="node">
<title>fd_api</title>
<ellipse fill="#55cc55" stroke="black" cx="55" cy="-488.5" rx="27" ry="18"/>
<text text-anchor="middle" x="55" y="-484.8" font-family="Times,serif" font-size="14.00">API</text>
</g>
<!-- taskman&#45;&gt;fd_api -->
<g id="edge5" class="edge">
<title>taskman&#45;&gt;fd_api</title>
<path fill="none" stroke="red" d="M102.74,-588.81C93.41,-569.4 78.13,-537.62 67.38,-515.25"/>
<polygon fill="red" stroke="red" points="62.93,-506.01 71.32,-513.07 65.1,-510.51 67.27,-515.02 67.27,-515.02 67.27,-515.02 65.1,-510.51 63.21,-516.97 62.93,-506.01 62.93,-506.01"/>
</g>
<!-- mg_api&#45;&gt;ea_archive -->
<g id="edge40" class="edge">
<title>mg_api&#45;&gt;ea_archive</title>
<path fill="none" stroke="#22bbdd" d="M372.56,-702.51C363.19,-675.82 348.69,-622.01 366,-581 377.65,-553.4 402.15,-530.01 423.21,-513.78"/>
<polygon fill="#22bbdd" stroke="#22bbdd" points="431.38,-507.71 426.04,-517.29 427.37,-510.69 423.35,-513.68 423.35,-513.68 423.35,-513.68 427.37,-510.69 420.67,-510.06 431.38,-507.71 431.38,-507.71"/>
</g>
<!-- mg_api&#45;&gt;taskman -->
<g id="edge39" class="edge">
<title>mg_api&#45;&gt;taskman</title>
<path fill="none" stroke="#22bbdd" d="M348.23,-704.1C340.98,-700.7 333.25,-697.16 326,-694 262.42,-666.32 186.9,-636.89 144.41,-620.64"/>
<polygon fill="#22bbdd" stroke="#22bbdd" points="357.73,-708.61 346.77,-708.39 353.21,-706.47 348.69,-704.32 348.69,-704.32 348.69,-704.32 353.21,-706.47 350.62,-700.26 357.73,-708.61 357.73,-708.61"/>
</g>
<!-- mg_web -->
<g id="node15" class="node">
<title>mg_web</title>
<polygon fill="burlywood" stroke="black" points="316.5,-738 213.5,-738 213.5,-742 201.5,-742 201.5,-702 316.5,-702 316.5,-738"/>
<polyline fill="none" stroke="black" points="201.5,-738 213.5,-738 "/>
<text text-anchor="middle" x="259" y="-716.3" font-family="Times,serif" font-size="14.00">Web interface</text>
</g>
<!-- mg_api&#45;&gt;mg_web -->
<g id="edge44" class="edge">
<title>mg_api&#45;&gt;mg_web</title>
<path fill="none" stroke="#22bbdd" stroke-dasharray="5,2" d="M351.72,-720C343.41,-720 335.1,-720 326.79,-720"/>
<polygon fill="#22bbdd" stroke="#22bbdd" points="316.66,-720 326.66,-715.5 321.66,-720 326.66,-720 326.66,-720 326.66,-720 321.66,-720 326.66,-724.5 316.66,-720 316.66,-720"/>
</g>
<!-- mc_api -->
<g id="node16" class="node">
<title>mc_api</title>
<ellipse fill="#55cc55" stroke="black" cx="683" cy="-258" rx="27" ry="18"/>
<text text-anchor="middle" x="683" y="-254.3" font-family="Times,serif" font-size="14.00">API</text>
</g>
<!-- mc_web&#45;&gt;staff_web -->
<g id="edge31" class="edge">
<title>mc_web&#45;&gt;staff_web:e</title>
<path fill="none" stroke="#000099" d="M559.97,-232.04C531.49,-199.58 475.94,-147 415,-147"/>
<polygon fill="#000099" stroke="#000099" points="566.61,-239.81 556.69,-235.14 563.36,-236.01 560.12,-232.21 560.12,-232.21 560.12,-232.21 563.36,-236.01 563.54,-229.29 566.61,-239.81 566.61,-239.81"/>
</g>
<!-- fd_mail&#45;&gt;fd_web -->
<g id="edge11" class="edge">
<title>fd_mail&#45;&gt;fd_web</title>
<path fill="none" stroke="red" d="M195,-469.45C200.23,-450.59 208.49,-420.77 214.5,-399.08"/>
<polygon fill="red" stroke="red" points="217.24,-389.17 218.91,-400.01 215.91,-393.99 214.57,-398.8 214.57,-398.8 214.57,-398.8 215.91,-393.99 210.24,-397.6 217.24,-389.17 217.24,-389.17"/>
</g>
<!-- fd_web&#45;&gt;staff_web -->
<g id="edge13" class="edge">
<title>fd_web&#45;&gt;staff_web:w</title>
<path fill="none" stroke="red" d="M219.57,-352.87C213.36,-302.8 202.26,-159.43 276.94,-147.76"/>
<polygon fill="red" stroke="red" points="287,-147 277.37,-152.24 282.01,-147.38 277.03,-147.75 277.03,-147.75 277.03,-147.75 282.01,-147.38 276.69,-143.26 287,-147 287,-147"/>
</g>
<!-- fd_web&#45;&gt;staff_web -->
<g id="edge25" class="edge">
<title>fd_web&#45;&gt;staff_web</title>
<path fill="none" stroke="#000099" d="M230.36,-342.85C239.84,-314.11 256.91,-268.01 279,-232 294.26,-207.11 316.78,-182.17 332.56,-166"/>
<polygon fill="#000099" stroke="#000099" points="227.21,-352.6 226,-341.7 228.75,-347.84 230.28,-343.08 230.28,-343.08 230.28,-343.08 228.75,-347.84 234.56,-344.47 227.21,-352.6 227.21,-352.6"/>
</g>
<!-- fd_web&#45;&gt;staff_mail -->
<g id="edge15" class="edge">
<title>fd_web&#45;&gt;staff_mail</title>
<path fill="none" stroke="red" d="M241.87,-352.9C263.34,-334.43 297.73,-304.84 322.16,-283.81"/>
<polygon fill="red" stroke="red" points="330.03,-277.04 325.39,-286.97 326.24,-280.3 322.45,-283.56 322.45,-283.56 322.45,-283.56 326.24,-280.3 319.52,-280.15 330.03,-277.04 330.03,-277.04"/>
</g>
<!-- fd_api&#45;&gt;fd_web -->
<g id="edge6" class="edge">
<title>fd_api&#45;&gt;fd_web</title>
<path fill="none" stroke="red" d="M73.19,-474.92C100.93,-455.73 154.25,-418.86 188.96,-394.85"/>
<polygon fill="red" stroke="red" points="197.36,-389.04 191.69,-398.43 193.24,-391.89 189.13,-394.73 189.13,-394.73 189.13,-394.73 193.24,-391.89 186.57,-391.03 197.36,-389.04 197.36,-389.04"/>
</g>
</g>
</svg>
