<?xml version="1.0" encoding="UTF-8" standalone="no"?>
<!DOCTYPE svg PUBLIC "-//W3C//DTD SVG 1.1//EN"
 "http://www.w3.org/Graphics/SVG/1.1/DTD/svg11.dtd">
<!-- Generated by graphviz version 2.36.0 (20140111.2315)
 -->
<!-- Title: G Pages: 1 -->
<svg width="1003pt" height="417pt"
 viewBox="0.00 0.00 1003.00 417.00" xmlns="http://www.w3.org/2000/svg" xmlns:xlink="http://www.w3.org/1999/xlink">
<g id="graph0" class="graph" transform="scale(1 1) rotate(0) translate(4 413)">
<title>G</title>
<polygon fill="white" stroke="none" points="-4,4 -4,-413 999,-413 999,4 -4,4"/>
<text text-anchor="middle" x="497.5" y="-393.8" font-family="Times,serif" font-size="14.00">ShipReq System Diagram</text>
<text text-anchor="middle" x="497.5" y="-378.8" font-family="Times,serif" font-size="14.00">(arrows denote a component&#39;s knowledge of another)</text>
<g id="clust1" class="cluster"><title>cluster_gandi</title>
<polygon fill="#ccddcc" stroke="black" points="280,-68 280,-253 788,-253 788,-68 280,-68"/>
<text text-anchor="middle" x="534" y="-237.8" font-family="Times,serif" font-size="14.00">gandi.net</text>
</g>
<g id="clust3" class="cluster"><title>cluster_aws</title>
<polygon fill="#ccddcc" stroke="black" points="796,-69 796,-363 987,-363 987,-69 796,-69"/>
<text text-anchor="middle" x="891.5" y="-347.8" font-family="Times,serif" font-size="14.00">Amazon Web Services</text>
</g>
<g id="clust5" class="cluster"><title>cluster_mc</title>
<polygon fill="#ccddcc" stroke="black" points="90,-178 90,-253 272,-253 272,-178 90,-178"/>
<text text-anchor="middle" x="181" y="-237.8" font-family="Times,serif" font-size="14.00">MailChimp</text>
</g>
<g id="clust6" class="cluster"><title>cluster_fd</title>
<polygon fill="#ccddcc" stroke="black" points="8,-69 8,-144 272,-144 272,-69 8,-69"/>
<text text-anchor="middle" x="140" y="-128.8" font-family="Times,serif" font-size="14.00">Freshdesk</text>
</g>
<!-- mail_archive -->
<g id="node1" class="node"><title>mail_archive</title>
<polygon fill="#aabbff" stroke="black" points="598,-333 595,-337 574,-337 571,-333 470,-333 470,-295 598,-295 598,-333"/>
<text text-anchor="middle" x="534" y="-317.8" font-family="Times,serif" font-size="14.00">Archive.</text>
<text text-anchor="middle" x="534" y="-302.8" font-family="Times,serif" font-size="14.00">shipreq@gmail.com</text>
</g>
<!-- gandi_mx -->
<g id="node4" class="node"><title>gandi_mx</title>
<ellipse fill="#55cc55" stroke="black" cx="534" cy="-204" rx="44.2946" ry="18"/>
<text text-anchor="middle" x="534" y="-200.3" font-family="Times,serif" font-size="14.00">Mail fwd</text>
</g>
<!-- mail_archive&#45;&gt;gandi_mx -->
<g id="edge11" class="edge"><title>mail_archive&#45;&gt;gandi_mx</title>
<path fill="none" stroke="black" d="M534,-284.41C534,-264.669 534,-239.059 534,-222.337"/>
<polygon fill="black" stroke="black" points="534,-294.679 529.5,-284.679 534,-289.679 534,-284.679 534,-284.679 534,-284.679 534,-289.679 538.5,-284.679 534,-294.679 534,-294.679"/>
<text text-anchor="middle" x="546.5" y="-265.3" font-family="Times,serif" font-size="14.00">Fwd</text>
</g>
<!-- taskman -->
<g id="node14" class="node"><title>taskman</title>
<ellipse fill="pink" stroke="black" cx="844" cy="-204" rx="39.9464" ry="18"/>
<text text-anchor="middle" x="844" y="-200.3" font-family="Times,serif" font-size="14.00">taskman</text>
</g>
<!-- mail_archive&#45;&gt;taskman -->
<g id="edge19" class="edge"><title>mail_archive&#45;&gt;taskman</title>
<path fill="none" stroke="black" d="M570.135,-289.631C588.743,-278.86 612.252,-267.129 635,-261 668.731,-251.912 759.799,-266.545 792,-253 807.855,-246.331 821.92,-232.601 831.412,-221.527"/>
<polygon fill="black" stroke="black" points="561.419,-294.812 567.716,-285.834 565.717,-292.257 570.015,-289.702 570.015,-289.702 570.015,-289.702 565.717,-292.257 572.315,-293.57 561.419,-294.812 561.419,-294.812"/>
</g>
<!-- fd_web -->
<g id="node18" class="node"><title>fd_web</title>
<polygon fill="#55cc55" stroke="black" points="110,-113 28,-113 28,-117 16,-117 16,-77 110,-77 110,-113"/>
<polyline fill="none" stroke="black" points="16,-113 28,-113 "/>
<text text-anchor="middle" x="63" y="-91.3" font-family="Times,serif" font-size="14.00">Web interface</text>
</g>
<!-- mail_archive&#45;&gt;fd_web -->
<g id="edge23" class="edge"><title>mail_archive&#45;&gt;fd_web</title>
<path fill="none" stroke="black" d="M459.822,-308.898C333.314,-301.137 86.9084,-282.402 61,-253 26.3986,-213.732 44.8243,-145.054 56.1997,-113.169"/>
<polygon fill="black" stroke="black" points="469.829,-309.504 459.575,-313.391 464.838,-309.202 459.847,-308.899 459.847,-308.899 459.847,-308.899 464.838,-309.202 460.119,-304.407 469.829,-309.504 469.829,-309.504"/>
<text text-anchor="middle" x="73.5" y="-200.3" font-family="Times,serif" font-size="14.00">Fwd</text>
</g>
<!-- staff_mail -->
<g id="node2" class="node"><title>staff_mail</title>
<polygon fill="#aabbff" stroke="black" points="111.25,-38 108.25,-42 87.25,-42 84.25,-38 14.75,-38 14.75,-0 111.25,-0 111.25,-38"/>
<text text-anchor="middle" x="63" y="-22.8" font-family="Times,serif" font-size="14.00">Staff&#39;s</text>
<text text-anchor="middle" x="63" y="-7.8" font-family="Times,serif" font-size="14.00">personal email</text>
</g>
<!-- gandi_dns -->
<g id="node3" class="node"><title>gandi_dns</title>
<ellipse fill="#55cc55" stroke="black" cx="751" cy="-204" rx="28.3955" ry="18"/>
<text text-anchor="middle" x="751" y="-200.3" font-family="Times,serif" font-size="14.00">DNS</text>
</g>
<!-- aws_r53 -->
<g id="node10" class="node"><title>aws_r53</title>
<ellipse fill="#55cc55" stroke="black" cx="847" cy="-314" rx="42.3456" ry="18"/>
<text text-anchor="middle" x="847" y="-310.3" font-family="Times,serif" font-size="14.00">Route 53</text>
</g>
<!-- gandi_dns&#45;&gt;aws_r53 -->
<g id="edge1" class="edge"><title>gandi_dns&#45;&gt;aws_r53</title>
<path fill="none" stroke="black" d="M757.43,-221.628C764.078,-237.254 775.643,-260.624 791,-277 797.08,-283.484 804.561,-289.321 812.053,-294.315"/>
<polygon fill="black" stroke="black" points="820.768,-299.778 809.905,-298.28 816.532,-297.122 812.295,-294.467 812.295,-294.467 812.295,-294.467 816.532,-297.122 814.685,-290.654 820.768,-299.778 820.768,-299.778"/>
<text text-anchor="middle" x="833.5" y="-265.3" font-family="Times,serif" font-size="14.00">Delegates DNS</text>
</g>
<!-- ea_contact -->
<g id="node5" class="node"><title>ea_contact</title>
<polygon fill="#c0c8e0" stroke="black" points="779.5,-114 776.5,-118 755.5,-118 752.5,-114 696.5,-114 696.5,-76 779.5,-76 779.5,-114"/>
<text text-anchor="middle" x="738" y="-98.8" font-family="Times,serif" font-size="14.00">contact@</text>
<text text-anchor="middle" x="738" y="-83.8" font-family="Times,serif" font-size="14.00">shipreq.com</text>
</g>
<!-- gandi_mx&#45;&gt;ea_contact -->
<g id="edge7" class="edge"><title>gandi_mx&#45;&gt;ea_contact</title>
<path fill="none" stroke="black" d="M569.86,-193.261C601.831,-183.631 649.136,-167.001 686,-144 696.055,-137.726 705.916,-129.364 714.302,-121.38"/>
<polygon fill="black" stroke="black" points="721.551,-114.223 717.596,-124.451 717.993,-117.736 714.435,-121.248 714.435,-121.248 714.435,-121.248 717.993,-117.736 711.273,-118.046 721.551,-114.223 721.551,-114.223"/>
<text text-anchor="middle" x="687" y="-156.3" font-family="Times,serif" font-size="14.00">Catch</text>
</g>
<!-- ea_news -->
<g id="node6" class="node"><title>ea_news</title>
<polygon fill="#c0c8e0" stroke="black" points="473.5,-114 470.5,-118 449.5,-118 446.5,-114 390.5,-114 390.5,-76 473.5,-76 473.5,-114"/>
<text text-anchor="middle" x="432" y="-98.8" font-family="Times,serif" font-size="14.00">news@</text>
<text text-anchor="middle" x="432" y="-83.8" font-family="Times,serif" font-size="14.00">shipreq.com</text>
</g>
<!-- gandi_mx&#45;&gt;ea_news -->
<g id="edge8" class="edge"><title>gandi_mx&#45;&gt;ea_news</title>
<path fill="none" stroke="black" d="M517.316,-187.166C511.167,-181.231 504.194,-174.379 498,-168 483.385,-152.949 467.481,-135.63 454.948,-121.75"/>
<polygon fill="black" stroke="black" points="447.994,-114.018 458.027,-118.443 451.337,-117.735 454.681,-121.453 454.681,-121.453 454.681,-121.453 451.337,-117.735 451.335,-124.462 447.994,-114.018 447.994,-114.018"/>
<text text-anchor="middle" x="514" y="-156.3" font-family="Times,serif" font-size="14.00">Catch</text>
</g>
<!-- ea_notice -->
<g id="node7" class="node"><title>ea_notice</title>
<polygon fill="#c0c8e0" stroke="black" points="371.5,-114 368.5,-118 347.5,-118 344.5,-114 288.5,-114 288.5,-76 371.5,-76 371.5,-114"/>
<text text-anchor="middle" x="330" y="-98.8" font-family="Times,serif" font-size="14.00">notice@</text>
<text text-anchor="middle" x="330" y="-83.8" font-family="Times,serif" font-size="14.00">shipreq.com</text>
</g>
<!-- gandi_mx&#45;&gt;ea_notice -->
<g id="edge9" class="edge"><title>gandi_mx&#45;&gt;ea_notice</title>
<path fill="none" stroke="black" d="M498.161,-193.484C465.938,-183.955 418.109,-167.347 381,-144 371.072,-137.754 361.384,-129.399 353.165,-121.412"/>
<polygon fill="black" stroke="black" points="346.066,-114.251 356.302,-118.184 349.586,-117.802 353.106,-121.352 353.106,-121.352 353.106,-121.352 349.586,-117.802 349.911,-124.521 346.066,-114.251 346.066,-114.251"/>
<text text-anchor="middle" x="441" y="-156.3" font-family="Times,serif" font-size="14.00">Catch</text>
</g>
<!-- ea_support -->
<g id="node8" class="node"><title>ea_support</title>
<polygon fill="#c0c8e0" stroke="black" points="575.5,-114 572.5,-118 551.5,-118 548.5,-114 492.5,-114 492.5,-76 575.5,-76 575.5,-114"/>
<text text-anchor="middle" x="534" y="-98.8" font-family="Times,serif" font-size="14.00">support@</text>
<text text-anchor="middle" x="534" y="-83.8" font-family="Times,serif" font-size="14.00">shipreq.com</text>
</g>
<!-- gandi_mx&#45;&gt;ea_support -->
<g id="edge5" class="edge"><title>gandi_mx&#45;&gt;ea_support</title>
<path fill="none" stroke="black" d="M534,-185.809C534,-169.26 534,-143.936 534,-124.393"/>
<polygon fill="black" stroke="black" points="534,-114.223 538.5,-124.223 534,-119.223 534,-124.223 534,-124.223 534,-124.223 534,-119.223 529.5,-124.223 534,-114.223 534,-114.223"/>
<text text-anchor="middle" x="550" y="-156.3" font-family="Times,serif" font-size="14.00">Catch</text>
</g>
<!-- ea_noreply -->
<g id="node9" class="node"><title>ea_noreply</title>
<polygon fill="#c0c8e0" stroke="black" points="677.5,-114 674.5,-118 653.5,-118 650.5,-114 594.5,-114 594.5,-76 677.5,-76 677.5,-114"/>
<text text-anchor="middle" x="636" y="-98.8" font-family="Times,serif" font-size="14.00">no&#45;reply@</text>
<text text-anchor="middle" x="636" y="-83.8" font-family="Times,serif" font-size="14.00">shipreq.com</text>
</g>
<!-- gandi_mx&#45;&gt;ea_noreply -->
<g id="edge6" class="edge"><title>gandi_mx&#45;&gt;ea_noreply</title>
<path fill="none" stroke="black" d="M550.684,-187.166C556.833,-181.231 563.806,-174.379 570,-168 584.615,-152.949 600.519,-135.63 613.052,-121.75"/>
<polygon fill="black" stroke="black" points="620.006,-114.018 616.665,-124.462 616.663,-117.735 613.319,-121.453 613.319,-121.453 613.319,-121.453 616.663,-117.735 609.973,-118.443 620.006,-114.018 620.006,-114.018"/>
<text text-anchor="middle" x="601" y="-156.3" font-family="Times,serif" font-size="14.00">Catch</text>
</g>
<!-- fd_mail -->
<g id="node17" class="node"><title>fd_mail</title>
<polygon fill="#aabbff" stroke="black" points="191.25,-113 188.25,-117 167.25,-117 164.25,-113 128.75,-113 128.75,-77 191.25,-77 191.25,-113"/>
<text text-anchor="middle" x="160" y="-91.3" font-family="Times,serif" font-size="14.00">Mailbox</text>
</g>
<!-- gandi_mx&#45;&gt;fd_mail -->
<g id="edge10" class="edge"><title>gandi_mx&#45;&gt;fd_mail</title>
<path fill="none" stroke="black" d="M491.477,-199.083C408.663,-191.338 232.777,-174.276 221,-168 201.36,-157.533 185.387,-137.901 174.72,-121.778"/>
<polygon fill="black" stroke="black" points="169.35,-113.262 178.49,-119.32 172.017,-117.491 174.684,-121.72 174.684,-121.72 174.684,-121.72 172.017,-117.491 170.877,-124.121 169.35,-113.262 169.35,-113.262"/>
<text text-anchor="middle" x="233.5" y="-156.3" font-family="Times,serif" font-size="14.00">Fwd</text>
</g>
<!-- aws_r53&#45;&gt;gandi_mx -->
<g id="edge4" class="edge"><title>aws_r53&#45;&gt;gandi_mx</title>
<path fill="none" stroke="black" d="M811.71,-303.823C786.305,-296.996 751.312,-287.143 721,-277 669.365,-259.722 610.969,-236.658 573.38,-221.341"/>
<polygon fill="black" stroke="black" points="563.821,-217.431 574.78,-217.052 568.449,-219.324 573.076,-221.217 573.076,-221.217 573.076,-221.217 568.449,-219.324 571.372,-225.382 563.821,-217.431 563.821,-217.431"/>
<text text-anchor="middle" x="748" y="-265.3" font-family="Times,serif" font-size="14.00">DNS:MX</text>
</g>
<!-- aws_r53&#45;&gt;aws_r53 -->
<g id="edge2" class="edge"><title>aws_r53:w&#45;&gt;aws_r53:w</title>
<path fill="none" stroke="black" d="M796.864,-321.275C791.521,-323.816 786.104,-321.391 786.104,-314 786.104,-303 798.104,-303 804,-314"/>
<polygon fill="black" stroke="black" points="804,-314 800.21,-324.29 800.499,-317.57 796.997,-321.139 796.997,-321.139 796.997,-321.139 800.499,-317.57 793.785,-317.988 804,-314 804,-314"/>
<text text-anchor="middle" x="754.104" y="-310.3" font-family="Times,serif" font-size="14.00">DNS:www </text>
</g>
<!-- webapp -->
<g id="node13" class="node"><title>webapp</title>
<ellipse fill="pink" stroke="black" cx="941" cy="-204" rx="38.0212" ry="18"/>
<text text-anchor="middle" x="941" y="-200.3" font-family="Times,serif" font-size="14.00">webapp</text>
</g>
<!-- aws_r53&#45;&gt;webapp -->
<g id="edge3" class="edge"><title>aws_r53&#45;&gt;webapp</title>
<path fill="none" stroke="black" d="M861.277,-296.597C877.055,-278.468 902.602,-249.116 920.514,-228.537"/>
<polygon fill="black" stroke="black" points="927.203,-220.852 924.032,-231.35 923.92,-224.624 920.637,-228.395 920.637,-228.395 920.637,-228.395 923.92,-224.624 917.243,-225.441 927.203,-220.852 927.203,-220.852"/>
<text text-anchor="middle" x="924.5" y="-265.3" font-family="Times,serif" font-size="14.00">DNS:APEX</text>
</g>
<!-- aws_rds -->
<g id="node11" class="node"><title>aws_rds</title>
<ellipse fill="#55cc55" stroke="black" cx="923" cy="-95" rx="27.4223" ry="18"/>
<text text-anchor="middle" x="923" y="-91.3" font-family="Times,serif" font-size="14.00">RDS</text>
</g>
<!-- aws_ses -->
<g id="node12" class="node"><title>aws_ses</title>
<ellipse fill="#55cc55" stroke="black" cx="844" cy="-95" rx="27" ry="18"/>
<text text-anchor="middle" x="844" y="-91.3" font-family="Times,serif" font-size="14.00">SES</text>
</g>
<!-- webapp&#45;&gt;ea_contact -->
<g id="edge13" class="edge"><title>webapp&#45;&gt;ea_contact</title>
<path fill="none" stroke="black" stroke-dasharray="5,2" d="M917.425,-189.792C909.757,-185.749 901.126,-181.459 893,-178 849.42,-159.449 832.969,-167.767 792,-144 781.427,-137.866 771.078,-129.446 762.315,-121.37"/>
<polygon fill="black" stroke="black" points="755.057,-114.427 765.394,-118.088 758.67,-117.883 762.283,-121.339 762.283,-121.339 762.283,-121.339 758.67,-117.883 759.173,-124.591 755.057,-114.427 755.057,-114.427"/>
</g>
<!-- webapp&#45;&gt;aws_rds -->
<g id="edge12" class="edge"><title>webapp&#45;&gt;aws_rds</title>
<path fill="none" stroke="black" d="M938.108,-185.809C935.261,-168.883 930.869,-142.778 927.553,-123.067"/>
<polygon fill="black" stroke="black" points="925.885,-113.149 931.981,-122.264 926.714,-118.079 927.544,-123.01 927.544,-123.01 927.544,-123.01 926.714,-118.079 923.106,-123.757 925.885,-113.149 925.885,-113.149"/>
</g>
<!-- taskman&#45;&gt;ea_noreply -->
<g id="edge18" class="edge"><title>taskman&#45;&gt;ea_noreply</title>
<path fill="none" stroke="black" stroke-dasharray="5,2" d="M818.651,-189.968C810.274,-185.89 800.835,-181.535 792,-178 780.615,-173.444 697.555,-150.243 687,-144 676.744,-137.934 666.866,-129.478 658.58,-121.351"/>
<polygon fill="black" stroke="black" points="651.453,-114.058 661.661,-118.064 654.948,-117.634 658.442,-121.21 658.442,-121.21 658.442,-121.21 654.948,-117.634 655.224,-124.355 651.453,-114.058 651.453,-114.058"/>
</g>
<!-- taskman&#45;&gt;aws_rds -->
<g id="edge15" class="edge"><title>taskman&#45;&gt;aws_rds</title>
<path fill="none" stroke="black" d="M855.998,-186.749C869.142,-168.947 890.35,-140.222 905.382,-119.863"/>
<polygon fill="black" stroke="black" points="911.404,-111.706 909.085,-122.423 908.434,-115.728 905.465,-119.751 905.465,-119.751 905.465,-119.751 908.434,-115.728 901.844,-117.078 911.404,-111.706 911.404,-111.706"/>
</g>
<!-- taskman&#45;&gt;aws_ses -->
<g id="edge14" class="edge"><title>taskman&#45;&gt;aws_ses</title>
<path fill="none" stroke="black" d="M844,-185.809C844,-168.961 844,-143.018 844,-123.339"/>
<polygon fill="black" stroke="black" points="844,-113.149 848.5,-123.149 844,-118.149 844,-123.149 844,-123.149 844,-123.149 844,-118.149 839.5,-123.149 844,-113.149 844,-113.149"/>
</g>
<!-- mc_api -->
<g id="node15" class="node"><title>mc_api</title>
<ellipse fill="#55cc55" stroke="black" cx="237" cy="-204" rx="27" ry="18"/>
<text text-anchor="middle" x="237" y="-200.3" font-family="Times,serif" font-size="14.00">API</text>
</g>
<!-- taskman&#45;&gt;mc_api -->
<g id="edge16" class="edge"><title>taskman&#45;&gt;mc_api</title>
<path fill="none" stroke="black" d="M834.603,-221.642C824.435,-238.645 806.476,-263.319 783,-274 732.635,-296.916 333.956,-299.79 285,-274 267.726,-264.9 255.475,-246.468 247.674,-230.801"/>
<polygon fill="black" stroke="black" points="243.387,-221.513 251.664,-228.707 245.483,-226.052 247.578,-230.592 247.578,-230.592 247.578,-230.592 245.483,-226.052 243.492,-232.478 243.387,-221.513 243.387,-221.513"/>
</g>
<!-- fd_api -->
<g id="node19" class="node"><title>fd_api</title>
<ellipse fill="#55cc55" stroke="black" cx="237" cy="-95" rx="27" ry="18"/>
<text text-anchor="middle" x="237" y="-91.3" font-family="Times,serif" font-size="14.00">API</text>
</g>
<!-- taskman&#45;&gt;fd_api -->
<g id="edge17" class="edge"><title>taskman&#45;&gt;fd_api</title>
<path fill="none" stroke="black" d="M820.719,-189.181C812.012,-184.729 801.842,-180.344 792,-178 764.108,-171.358 300.49,-182.91 276,-168 259.609,-158.021 249.661,-138.548 243.917,-122.367"/>
<polygon fill="black" stroke="black" points="240.865,-112.832 248.2,-120.983 242.39,-117.594 243.914,-122.355 243.914,-122.355 243.914,-122.355 242.39,-117.594 239.628,-123.727 240.865,-112.832 240.865,-112.832"/>
</g>
<!-- mc_web -->
<g id="node16" class="node"><title>mc_web</title>
<polygon fill="#55cc55" stroke="black" points="192,-222 110,-222 110,-226 98,-226 98,-186 192,-186 192,-222"/>
<polyline fill="none" stroke="black" points="98,-222 110,-222 "/>
<text text-anchor="middle" x="145" y="-200.3" font-family="Times,serif" font-size="14.00">Web interface</text>
</g>
<!-- mc_web&#45;&gt;ea_news -->
<g id="edge20" class="edge"><title>mc_web&#45;&gt;ea_news</title>
<path fill="none" stroke="black" stroke-dasharray="5,2" d="M156.651,-185.926C165.813,-174.068 179.724,-159.16 196,-152 233.463,-135.52 342.215,-159.728 380,-144 391.756,-139.107 402.516,-130.308 411.159,-121.569"/>
<polygon fill="black" stroke="black" points="418.182,-114.003 414.677,-124.394 414.781,-117.668 411.379,-121.332 411.379,-121.332 411.379,-121.332 414.781,-117.668 408.081,-118.271 418.182,-114.003 418.182,-114.003"/>
</g>
<!-- mc_web&#45;&gt;ea_notice -->
<g id="edge21" class="edge"><title>mc_web&#45;&gt;ea_notice</title>
<path fill="none" stroke="black" stroke-dasharray="5,2" d="M147.338,-185.916C149.877,-174.375 155.14,-159.859 166,-152 185.856,-137.632 253.422,-153.536 276,-144 287.916,-138.967 298.995,-130.2 307.977,-121.524"/>
<polygon fill="black" stroke="black" points="315.001,-114.341 311.226,-124.637 311.505,-117.916 308.009,-121.491 308.009,-121.491 308.009,-121.491 311.505,-117.916 304.792,-118.344 315.001,-114.341 315.001,-114.341"/>
</g>
<!-- fd_web&#45;&gt;staff_mail -->
<g id="edge22" class="edge"><title>fd_web&#45;&gt;staff_mail</title>
<path fill="none" stroke="black" d="M63,-76.8369C63,-68.3084 63,-57.7835 63,-48.118"/>
<polygon fill="black" stroke="black" points="63,-38.1024 67.5001,-48.1024 63,-43.1024 63.0001,-48.1024 63.0001,-48.1024 63.0001,-48.1024 63,-43.1024 58.5001,-48.1025 63,-38.1024 63,-38.1024"/>
</g>
</g>
</svg>
