<?xml version="1.0" encoding="UTF-8" standalone="no"?>
<!DOCTYPE svg PUBLIC "-//W3C//DTD SVG 1.1//EN"
 "http://www.w3.org/Graphics/SVG/1.1/DTD/svg11.dtd">
<!-- Generated by graphviz version 2.38.0 (20140413.2041)
 -->
<!-- Title: G Pages: 1 -->
<svg width="1220pt" height="991pt"
 viewBox="0.00 0.00 1219.97 991.00" xmlns="http://www.w3.org/2000/svg" xmlns:xlink="http://www.w3.org/1999/xlink">
<g id="graph0" class="graph" transform="scale(1 1) rotate(0) translate(4 987)">
<title>G</title>
<polygon fill="white" stroke="none" points="-4,4 -4,-987 1215.97,-987 1215.97,4 -4,4"/>
<text text-anchor="middle" x="605.983" y="-967.8" font-family="Times,serif" font-size="14.00">ShipReq System Diagram</text>
<text text-anchor="middle" x="605.983" y="-952.8" font-family="Times,serif" font-size="14.00">(arrows denote a component&#39;s knowledge of another)</text>
<g id="clust1" class="cluster"><title>cluster_gandi</title>
<polygon fill="#ccddcc" stroke="black" points="8,-561 8,-654 192.291,-654 192.291,-561 8,-561"/>
<text text-anchor="middle" x="100.146" y="-638.8" font-family="Times,serif" font-size="14.00">gandi.net</text>
</g>
<g id="clust2" class="cluster"><title>cluster_gcp</title>
<polygon fill="#ccddcc" stroke="black" points="213.291,-540 213.291,-708 1173.14,-708 1173.14,-540 213.291,-540"/>
<text text-anchor="middle" x="693.216" y="-692.8" font-family="Times,serif" font-size="14.00">Google Cloud Platform</text>
</g>
<g id="clust3" class="cluster"><title>cluster_gke</title>
<polygon fill="#aabbaa" stroke="black" points="472.685,-548 472.685,-677 881.966,-677 881.966,-548 472.685,-548"/>
<text text-anchor="middle" x="677.325" y="-661.8" font-family="Times,serif" font-size="14.00">GKE Cluster</text>
</g>
<g id="clust4" class="cluster"><title>cluster_gsuite</title>
<polygon fill="#ccddcc" stroke="black" points="727.673,-130 727.673,-363 1192.47,-363 1192.47,-130 727.673,-130"/>
<text text-anchor="middle" x="960.07" y="-347.8" font-family="Times,serif" font-size="14.00">G&#45;Suite</text>
</g>
<g id="clust6" class="cluster"><title>cluster_ga</title>
<polygon fill="#ccddcc" stroke="black" points="32.1457,-262 32.1457,-445 169.146,-445 169.146,-262 32.1457,-262"/>
<text text-anchor="middle" x="100.646" y="-429.8" font-family="Times,serif" font-size="14.00">Google Analytics</text>
</g>
<g id="clust7" class="cluster"><title>cluster_mailgun</title>
<polygon fill="#ccddcc" stroke="black" points="464.38,-8 464.38,-191 598.38,-191 598.38,-8 464.38,-8"/>
<text text-anchor="middle" x="531.38" y="-175.8" font-family="Times,serif" font-size="14.00">MailGun</text>
</g>
<g id="clust8" class="cluster"><title>cluster_mailchimp</title>
<polygon fill="#ccddcc" stroke="black" points="727.673,-371 727.673,-500 861.673,-500 861.673,-371 727.673,-371"/>
<text text-anchor="middle" x="794.673" y="-484.8" font-family="Times,serif" font-size="14.00">MailChimp</text>
</g>
<g id="clust9" class="cluster"><title>cluster_freshdesk</title>
<polygon fill="#ccddcc" stroke="black" points="727.673,-716 727.673,-899 1195.97,-899 1195.97,-716 727.673,-716"/>
<text text-anchor="middle" x="961.82" y="-883.8" font-family="Times,serif" font-size="14.00">FreshDesk</text>
</g>
<!-- staff_mail -->
<g id="node1" class="node"><title>staff_mail</title>
<polygon fill="#aabbff" stroke="black" points="1158.97,-945 1155.97,-949 1134.97,-949 1131.97,-945 1036.97,-945 1036.97,-907 1158.97,-907 1158.97,-945"/>
<text text-anchor="middle" x="1097.97" y="-929.8" font-family="Times,serif" font-size="14.00">Staff&#39;s</text>
<text text-anchor="middle" x="1097.97" y="-914.8" font-family="Times,serif" font-size="14.00">personal email</text>
</g>
<!-- gandi_dns -->
<g id="node2" class="node"><title>gandi_dns</title>
<ellipse fill="#55cc55" stroke="black" cx="100.146" cy="-596" rx="84.2917" ry="26.7407"/>
<text text-anchor="middle" x="100.146" y="-599.8" font-family="Times,serif" font-size="14.00">shipreq.com</text>
<text text-anchor="middle" x="100.146" y="-584.8" font-family="Times,serif" font-size="14.00">Name Servers</text>
</g>
<!-- cloud_dns -->
<g id="node3" class="node"><title>cloud_dns</title>
<ellipse fill="#55cc55" stroke="black" cx="284.336" cy="-596" rx="63.0888" ry="18"/>
<text text-anchor="middle" x="284.336" y="-592.3" font-family="Times,serif" font-size="14.00">Cloud DNS</text>
</g>
<!-- gandi_dns&#45;&gt;cloud_dns -->
<g id="edge10" class="edge"><title>gandi_dns&#45;&gt;cloud_dns</title>
<path fill="none" stroke="black" d="M184.51,-596C193.399,-596 202.387,-596 211.133,-596"/>
<polygon fill="black" stroke="black" points="221.267,-596 211.267,-600.5 216.267,-596 211.267,-596 211.267,-596 211.267,-596 216.267,-596 211.267,-591.5 221.267,-596 221.267,-596"/>
</g>
<!-- cloud_dns&#45;&gt;cloud_dns -->
<g id="edge5" class="edge"><title>cloud_dns:n&#45;&gt;cloud_dns:n</title>
<path fill="none" stroke="black" d="M274.906,-618.068C265.099,-624.23 268.242,-632 284.336,-632 304.336,-632 304.336,-620 284.336,-614"/>
<polygon fill="black" stroke="black" points="284.336,-614 276.936,-622.093 279.745,-615.981 275.154,-617.961 275.154,-617.961 275.154,-617.961 279.745,-615.981 273.371,-613.829 284.336,-614 284.336,-614"/>
<text text-anchor="middle" x="284.336" y="-635.8" font-family="Times,serif" font-size="14.00">CNAME:www </text>
</g>
<!-- webapp -->
<g id="node5" class="node"><title>webapp</title>
<ellipse fill="#ff00ff" stroke="black" cx="531.38" cy="-628" rx="46.5926" ry="18"/>
<text text-anchor="middle" x="531.38" y="-624.3" font-family="Times,serif" font-size="14.00">webapp</text>
</g>
<!-- cloud_dns&#45;&gt;webapp -->
<g id="edge4" class="edge"><title>cloud_dns&#45;&gt;webapp</title>
<path fill="none" stroke="black" d="M341.862,-603.382C382.429,-608.679 436.756,-615.774 476.667,-620.986"/>
<polygon fill="black" stroke="black" points="486.743,-622.302 476.245,-625.469 481.785,-621.654 476.828,-621.007 476.828,-621.007 476.828,-621.007 481.785,-621.654 477.41,-616.544 486.743,-622.302 486.743,-622.302"/>
<text text-anchor="middle" x="409.88" y="-621.8" font-family="Times,serif" font-size="14.00">A:&lt;ip&gt;</text>
</g>
<!-- gsuite_mail -->
<g id="node8" class="node"><title>gsuite_mail</title>
<ellipse fill="#55cc55" stroke="black" cx="1097.97" cy="-156" rx="38.1938" ry="18"/>
<text text-anchor="middle" x="1097.97" y="-152.3" font-family="Times,serif" font-size="14.00">GMail</text>
</g>
<!-- cloud_dns&#45;&gt;gsuite_mail -->
<g id="edge1" class="edge"><title>cloud_dns&#45;&gt;gsuite_mail</title>
<path fill="none" stroke="black" d="M299.883,-578.158C350.226,-517.745 524.439,-319.565 715.38,-228 826.996,-174.475 974.802,-160.691 1049.47,-157.176"/>
<polygon fill="black" stroke="black" points="1059.5,-156.745 1049.71,-161.67 1054.51,-156.959 1049.51,-157.174 1049.51,-157.174 1049.51,-157.174 1054.51,-156.959 1049.32,-152.678 1059.5,-156.745 1059.5,-156.745"/>
<text text-anchor="middle" x="652.88" y="-291.8" font-family="Times,serif" font-size="14.00">MX &amp; DKIM</text>
</g>
<!-- mg_mx -->
<g id="node15" class="node"><title>mg_mx</title>
<ellipse fill="#55cc55" stroke="black" cx="531.38" cy="-88" rx="27" ry="18"/>
<text text-anchor="middle" x="531.38" y="-84.3" font-family="Times,serif" font-size="14.00">MX</text>
</g>
<!-- cloud_dns&#45;&gt;mg_mx -->
<g id="edge2" class="edge"><title>cloud_dns&#45;&gt;mg_mx</title>
<path fill="none" stroke="black" d="M286.969,-577.622C293.607,-506.134 320.373,-247.227 365.38,-180 396.032,-134.217 457.506,-108.904 496.152,-96.911"/>
<polygon fill="black" stroke="black" points="505.927,-94.0097 497.621,-101.169 501.134,-95.4324 496.34,-96.8551 496.34,-96.8551 496.34,-96.8551 501.134,-95.4324 495.06,-92.5411 505.927,-94.0097 505.927,-94.0097"/>
<text text-anchor="middle" x="409.88" y="-183.8" font-family="Times,serif" font-size="14.00">MX &amp; DKIM</text>
</g>
<!-- fd_dkim -->
<g id="node20" class="node"><title>fd_dkim</title>
<ellipse fill="#55cc55" stroke="black" cx="794.673" cy="-850" rx="38.1938" ry="18"/>
<text text-anchor="middle" x="794.673" y="-846.3" font-family="Times,serif" font-size="14.00">DKIM</text>
</g>
<!-- cloud_dns&#45;&gt;fd_dkim -->
<g id="edge3" class="edge"><title>cloud_dns&#45;&gt;fd_dkim</title>
<path fill="none" stroke="black" d="M312.781,-612.399C379.856,-652.049 558.128,-754.862 715.38,-823 727.13,-828.091 740.181,-832.908 752.205,-837.025"/>
<polygon fill="black" stroke="black" points="762.012,-840.309 751.101,-841.401 757.271,-838.722 752.53,-837.134 752.53,-837.134 752.53,-837.134 757.271,-838.722 753.959,-832.867 762.012,-840.309 762.012,-840.309"/>
<text text-anchor="middle" x="531.38" y="-770.8" font-family="Times,serif" font-size="14.00">DKIM</text>
</g>
<!-- cloud_sql -->
<g id="node4" class="node"><title>cloud_sql</title>
<ellipse fill="#55cc55" stroke="black" cx="1097.97" cy="-628" rx="67.3507" ry="26.7407"/>
<text text-anchor="middle" x="1097.97" y="-631.8" font-family="Times,serif" font-size="14.00">Cloud SQL</text>
<text text-anchor="middle" x="1097.97" y="-616.8" font-family="Times,serif" font-size="14.00">Postgres</text>
</g>
<!-- cloudsqlproxy -->
<g id="node7" class="node"><title>cloudsqlproxy</title>
<ellipse fill="#55cc55" stroke="black" cx="794.673" cy="-628" rx="79.0865" ry="18"/>
<text text-anchor="middle" x="794.673" y="-624.3" font-family="Times,serif" font-size="14.00">cloudsql&#45;proxy</text>
</g>
<!-- webapp&#45;&gt;cloudsqlproxy -->
<g id="edge17" class="edge"><title>webapp&#45;&gt;cloudsqlproxy</title>
<path fill="none" stroke="black" d="M578.193,-628C613.22,-628 662.579,-628 705.221,-628"/>
<polygon fill="black" stroke="black" points="715.336,-628 705.336,-632.5 710.336,-628 705.336,-628 705.336,-628 705.336,-628 710.336,-628 705.336,-623.5 715.336,-628 715.336,-628"/>
</g>
<!-- gsuite_route -->
<g id="node9" class="node"><title>gsuite_route</title>
<ellipse fill="#55cc55" stroke="black" cx="1097.97" cy="-219" rx="51.7379" ry="26.7407"/>
<text text-anchor="middle" x="1097.97" y="-222.8" font-family="Times,serif" font-size="14.00">Mail</text>
<text text-anchor="middle" x="1097.97" y="-207.8" font-family="Times,serif" font-size="14.00">Routing</text>
</g>
<!-- webapp&#45;&gt;gsuite_route -->
<g id="edge22" class="edge"><title>webapp&#45;&gt;gsuite_route</title>
<path fill="none" stroke="#ff00ff" stroke-width="2" d="M565.814,-615.693C576.412,-611.431 588.054,-606.365 598.38,-601 653.19,-572.522 657.373,-547.219 715.38,-526 785.516,-500.345 814.762,-536.572 881.966,-504 942.209,-474.802 960.131,-458.93 989.966,-399 1018.71,-341.261 968.657,-306.135 1007.97,-255 1015.98,-244.575 1027.51,-237.157 1039.62,-231.882"/>
<polygon fill="#ff00ff" stroke="#ff00ff" stroke-width="2" points="1048.95,-228.251 1041.26,-236.072 1044.47,-230.531 1039.81,-232.344 1039.63,-231.878 1039.45,-231.412 1044.11,-229.599 1038,-227.684 1048.95,-228.251 1048.95,-228.251"/>
<text text-anchor="middle" x="794.673" y="-529.8" font-family="Times,serif" font-size="14.00">mailto:contact@</text>
</g>
<!-- ga_api -->
<g id="node12" class="node"><title>ga_api</title>
<ellipse fill="#55cc55" stroke="black" cx="100.146" cy="-396" rx="27.8951" ry="18"/>
<text text-anchor="middle" x="100.146" y="-392.3" font-family="Times,serif" font-size="14.00">API</text>
</g>
<!-- webapp&#45;&gt;ga_api -->
<g id="edge24" class="edge"><title>webapp&#45;&gt;ga_api</title>
<path fill="none" stroke="#ff00ff" stroke-width="2" d="M490.441,-619.155C480.583,-615.152 470.971,-609.361 464.38,-601 446.285,-578.046 472.601,-558.855 454.38,-536 374.228,-435.462 211.357,-406.861 138.194,-398.936"/>
<polygon fill="#ff00ff" stroke="#ff00ff" stroke-width="2" points="128.07,-397.911 138.473,-394.442 133.095,-397.918 138.07,-398.421 138.02,-398.919 137.969,-399.416 132.995,-398.913 137.566,-403.396 128.07,-397.911 128.07,-397.911"/>
</g>
<!-- ga_acct -->
<g id="node13" class="node"><title>ga_acct</title>
<polygon fill="#aabbff" stroke="black" points="150.646,-360 147.646,-364 126.646,-364 123.646,-360 49.6457,-360 49.6457,-324 150.646,-324 150.646,-360"/>
<text text-anchor="middle" x="100.146" y="-338.3" font-family="Times,serif" font-size="14.00">Property ID</text>
</g>
<!-- webapp&#45;&gt;ga_acct -->
<g id="edge23" class="edge"><title>webapp&#45;&gt;ga_acct</title>
<path fill="none" stroke="#ff00ff" stroke-width="2" d="M489.984,-619.501C480.124,-615.499 470.626,-609.622 464.38,-601 446.083,-575.74 471.665,-486.963 454.38,-461 390.263,-364.691 243.407,-344.863 160.658,-341.663"/>
<polygon fill="#ff00ff" stroke="#ff00ff" stroke-width="2" points="150.649,-341.345 160.787,-337.165 155.662,-341.004 160.66,-341.163 160.644,-341.662 160.628,-342.162 155.63,-342.003 160.501,-346.16 150.649,-341.345 150.649,-341.345"/>
</g>
<!-- taskman -->
<g id="node6" class="node"><title>taskman</title>
<ellipse fill="#faca11" stroke="black" cx="531.38" cy="-574" rx="50.8918" ry="18"/>
<text text-anchor="middle" x="531.38" y="-570.3" font-family="Times,serif" font-size="14.00">taskman</text>
</g>
<!-- taskman&#45;&gt;cloudsqlproxy -->
<g id="edge16" class="edge"><title>taskman&#45;&gt;cloudsqlproxy</title>
<path fill="none" stroke="black" d="M575.527,-582.917C616.26,-591.335 677.994,-604.093 725.406,-613.892"/>
<polygon fill="black" stroke="black" points="735.293,-615.935 724.589,-618.318 730.397,-614.923 725.5,-613.911 725.5,-613.911 725.5,-613.911 730.397,-614.923 726.411,-609.504 735.293,-615.935 735.293,-615.935"/>
</g>
<!-- gsuite_groups -->
<g id="node11" class="node"><title>gsuite_groups</title>
<polygon fill="#c0c8e0" stroke="black" points="1184.47,-332 1181.47,-336 1160.47,-336 1157.47,-332 1011.47,-332 1011.47,-264 1184.47,-264 1184.47,-332"/>
<text text-anchor="start" x="1019.47" y="-316.8" font-family="Times,serif" font-size="14.00">Google groups:</text>
<text text-anchor="end" x="1176.47" y="-301.8" font-family="Times,serif" font-size="14.00">archive@shipreq.com</text>
<text text-anchor="end" x="1176.47" y="-286.8" font-family="Times,serif" font-size="14.00">news@shipreq.com</text>
<text text-anchor="end" x="1176.47" y="-271.8" font-family="Times,serif" font-size="14.00">notice@shipreq.com</text>
</g>
<!-- taskman&#45;&gt;gsuite_groups -->
<g id="edge19" class="edge"><title>taskman&#45;&gt;gsuite_groups</title>
<path fill="none" stroke="#faca11" stroke-width="2" d="M578.624,-580.714C648.476,-588.619 783.214,-594.996 881.966,-545 971.758,-499.54 1040.18,-398.837 1073.84,-341.034"/>
<polygon fill="#faca11" stroke="#faca11" stroke-width="2" points="1078.95,-332.14 1077.87,-343.054 1076.89,-336.726 1074.4,-341.063 1073.97,-340.814 1073.54,-340.565 1076.03,-336.228 1070.07,-338.575 1078.95,-332.14 1078.95,-332.14"/>
<text text-anchor="middle" x="794.673" y="-588.8" font-family="Times,serif" font-size="14.00">bcc:archive@</text>
</g>
<!-- mg_api -->
<g id="node16" class="node"><title>mg_api</title>
<ellipse fill="#55cc55" stroke="black" cx="531.38" cy="-142" rx="27.8951" ry="18"/>
<text text-anchor="middle" x="531.38" y="-138.3" font-family="Times,serif" font-size="14.00">API</text>
</g>
<!-- taskman&#45;&gt;mg_api -->
<g id="edge20" class="edge"><title>taskman&#45;&gt;mg_api</title>
<path fill="none" stroke="#faca11" stroke-width="2" d="M531.38,-555.813C531.38,-427.271 531.38,-298.729 531.38,-170.187"/>
<polygon fill="#faca11" stroke="#faca11" stroke-width="2" points="531.38,-160.141 535.88,-170.141 531.88,-165.141 531.88,-170.141 531.38,-170.141 530.88,-170.141 530.88,-165.141 526.88,-170.141 531.38,-160.141 531.38,-160.141"/>
</g>
<!-- mc_api -->
<g id="node18" class="node"><title>mc_api</title>
<ellipse fill="#55cc55" stroke="black" cx="794.673" cy="-451" rx="27.8951" ry="18"/>
<text text-anchor="middle" x="794.673" y="-447.3" font-family="Times,serif" font-size="14.00">API</text>
</g>
<!-- taskman&#45;&gt;mc_api -->
<g id="edge21" class="edge"><title>taskman&#45;&gt;mc_api</title>
<path fill="none" stroke="#faca11" stroke-width="2" d="M562.609,-559.77C612.586,-536.244 711.928,-489.48 762.511,-465.669"/>
<polygon fill="#faca11" stroke="#faca11" stroke-width="2" points="771.658,-461.364 764.526,-469.694 767.347,-463.946 762.823,-466.075 762.61,-465.623 762.397,-465.17 766.921,-463.041 760.693,-461.551 771.658,-461.364 771.658,-461.364"/>
</g>
<!-- fd_api -->
<g id="node23" class="node"><title>fd_api</title>
<ellipse fill="#55cc55" stroke="black" cx="794.673" cy="-742" rx="27.8951" ry="18"/>
<text text-anchor="middle" x="794.673" y="-738.3" font-family="Times,serif" font-size="14.00">API</text>
</g>
<!-- taskman&#45;&gt;fd_api -->
<g id="edge18" class="edge"><title>taskman&#45;&gt;fd_api</title>
<path fill="none" stroke="#faca11" stroke-width="2" d="M567.697,-586.651C577.835,-590.759 588.747,-595.652 598.38,-601 632.986,-620.213 723.197,-688.109 767.857,-722.185"/>
<polygon fill="#faca11" stroke="#faca11" stroke-width="2" points="775.897,-728.33 765.219,-725.833 771.621,-725.691 767.648,-722.655 767.952,-722.258 768.255,-721.861 772.228,-724.897 770.684,-718.682 775.897,-728.33 775.897,-728.33"/>
</g>
<!-- cloudsqlproxy&#45;&gt;cloud_sql -->
<g id="edge6" class="edge"><title>cloudsqlproxy&#45;&gt;cloud_sql</title>
<path fill="none" stroke="black" d="M874.048,-628C919.179,-628 975.65,-628 1020.46,-628"/>
<polygon fill="black" stroke="black" points="1030.71,-628 1020.71,-632.5 1025.71,-628 1020.71,-628 1020.71,-628 1020.71,-628 1025.71,-628 1020.71,-623.5 1030.71,-628 1030.71,-628"/>
</g>
<!-- fd_mail -->
<g id="node21" class="node"><title>fd_mail</title>
<polygon fill="#aabbff" stroke="black" points="1187.97,-815 1184.97,-819 1163.97,-819 1160.97,-815 1007.97,-815 1007.97,-777 1187.97,-777 1187.97,-815"/>
<text text-anchor="middle" x="1097.97" y="-799.8" font-family="Times,serif" font-size="14.00">shipreqcomcontact@</text>
<text text-anchor="middle" x="1097.97" y="-784.8" font-family="Times,serif" font-size="14.00">shipreq.freshdesk.com</text>
</g>
<!-- gsuite_route&#45;&gt;fd_mail -->
<g id="edge11" class="edge"><title>gsuite_route:e&#45;&gt;fd_mail</title>
<path fill="none" stroke="black" d="M1150.97,-219C1182.21,-219 1193.01,-235.137 1204.97,-264 1214.3,-286.532 1214.3,-680.468 1204.97,-703 1192.89,-732.163 1166.06,-755.447 1142.29,-771.423"/>
<polygon fill="black" stroke="black" points="1133.7,-776.976 1139.65,-767.766 1137.9,-774.26 1142.1,-771.545 1142.1,-771.545 1142.1,-771.545 1137.9,-774.26 1144.54,-775.324 1133.7,-776.976 1133.7,-776.976"/>
</g>
<!-- gsuite_web -->
<g id="node10" class="node"><title>gsuite_web</title>
<polygon fill="burlywood" stroke="black" points="853.673,-273 747.673,-273 747.673,-277 735.673,-277 735.673,-237 853.673,-237 853.673,-273"/>
<polyline fill="none" stroke="black" points="735.673,-273 747.673,-273 "/>
<text text-anchor="middle" x="794.673" y="-251.3" font-family="Times,serif" font-size="14.00">Web interface</text>
</g>
<!-- gsuite_web&#45;&gt;gsuite_mail -->
<g id="edge12" class="edge"><title>gsuite_web&#45;&gt;gsuite_mail</title>
<path fill="none" stroke="black" d="M853.907,-243.699C866.443,-241.382 879.632,-239.033 891.966,-237 913.672,-233.423 972.386,-236.224 989.966,-223 1005.55,-211.281 993.326,-195.873 1007.97,-183 1019.69,-172.691 1035.25,-166.318 1050.08,-162.378"/>
<polygon fill="black" stroke="black" points="1060.18,-160.02 1051.46,-166.677 1055.31,-161.158 1050.44,-162.295 1050.44,-162.295 1050.44,-162.295 1055.31,-161.158 1049.42,-157.913 1060.18,-160.02 1060.18,-160.02"/>
</g>
<!-- gsuite_web&#45;&gt;gsuite_route -->
<g id="edge14" class="edge"><title>gsuite_web&#45;&gt;gsuite_route</title>
<path fill="none" stroke="black" d="M854.037,-250.731C892.684,-247.624 944.449,-242.929 989.966,-237 1005.9,-234.924 1023.1,-232.233 1038.95,-229.567"/>
<polygon fill="black" stroke="black" points="1049.14,-227.825 1040.04,-233.945 1044.21,-228.668 1039.28,-229.51 1039.28,-229.51 1039.28,-229.51 1044.21,-228.668 1038.53,-225.074 1049.14,-227.825 1049.14,-227.825"/>
</g>
<!-- gsuite_web&#45;&gt;gsuite_groups -->
<g id="edge13" class="edge"><title>gsuite_web&#45;&gt;gsuite_groups</title>
<path fill="none" stroke="black" d="M853.766,-263.291C895.513,-269.249 952.742,-277.417 1001.2,-284.332"/>
<polygon fill="black" stroke="black" points="1011.4,-285.788 1000.86,-288.829 1006.45,-285.081 1001.5,-284.375 1001.5,-284.375 1001.5,-284.375 1006.45,-285.081 1002.13,-279.92 1011.4,-285.788 1011.4,-285.788"/>
</g>
<!-- ga_web -->
<g id="node14" class="node"><title>ga_web</title>
<polygon fill="burlywood" stroke="black" points="159.146,-306 53.1457,-306 53.1457,-310 41.1457,-310 41.1457,-270 159.146,-270 159.146,-306"/>
<polyline fill="none" stroke="black" points="41.1457,-306 53.1457,-306 "/>
<text text-anchor="middle" x="100.146" y="-284.3" font-family="Times,serif" font-size="14.00">Web interface</text>
</g>
<!-- mg_web -->
<g id="node17" class="node"><title>mg_web</title>
<polygon fill="burlywood" stroke="black" points="590.38,-52 484.38,-52 484.38,-56 472.38,-56 472.38,-16 590.38,-16 590.38,-52"/>
<polyline fill="none" stroke="black" points="472.38,-52 484.38,-52 "/>
<text text-anchor="middle" x="531.38" y="-30.3" font-family="Times,serif" font-size="14.00">Web interface</text>
</g>
<!-- mc_web -->
<g id="node19" class="node"><title>mc_web</title>
<polygon fill="burlywood" stroke="black" points="853.673,-415 747.673,-415 747.673,-419 735.673,-419 735.673,-379 853.673,-379 853.673,-415"/>
<polyline fill="none" stroke="black" points="735.673,-415 747.673,-415 "/>
<text text-anchor="middle" x="794.673" y="-393.3" font-family="Times,serif" font-size="14.00">Web interface</text>
</g>
<!-- mc_web&#45;&gt;gsuite_groups -->
<g id="edge15" class="edge"><title>mc_web&#45;&gt;gsuite_groups</title>
<path fill="none" stroke="black" stroke-dasharray="5,2" d="M850.585,-378.957C892.761,-365.099 952.031,-345.623 1001.87,-329.247"/>
<polygon fill="black" stroke="black" points="1011.38,-326.122 1003.29,-333.519 1006.63,-327.683 1001.88,-329.244 1001.88,-329.244 1001.88,-329.244 1006.63,-327.683 1000.48,-324.969 1011.38,-326.122 1011.38,-326.122"/>
<text text-anchor="start" x="892.466" y="-383.8" font-family="Times,serif" font-size="14.00">from:notice@</text>
<text text-anchor="start" x="892.466" y="-368.8" font-family="Times,serif" font-size="14.00">from:news@</text>
</g>
<!-- fd_web -->
<g id="node22" class="node"><title>fd_web</title>
<polygon fill="burlywood" stroke="black" points="853.673,-814 747.673,-814 747.673,-818 735.673,-818 735.673,-778 853.673,-778 853.673,-814"/>
<polyline fill="none" stroke="black" points="735.673,-814 747.673,-814 "/>
<text text-anchor="middle" x="794.673" y="-792.3" font-family="Times,serif" font-size="14.00">Web interface</text>
</g>
<!-- fd_web&#45;&gt;staff_mail -->
<g id="edge9" class="edge"><title>fd_web&#45;&gt;staff_mail</title>
<path fill="none" stroke="black" d="M854.024,-811.958C863.524,-815.207 873.138,-818.903 881.966,-823 942.137,-850.922 947.111,-876.601 1007.97,-903 1014.06,-905.646 1020.54,-908.039 1027.1,-910.193"/>
<polygon fill="black" stroke="black" points="1036.74,-913.178 1025.85,-914.519 1031.96,-911.699 1027.18,-910.22 1027.18,-910.22 1027.18,-910.22 1031.96,-911.699 1028.52,-905.922 1036.74,-913.178 1036.74,-913.178"/>
</g>
<!-- fd_web&#45;&gt;gsuite_groups -->
<g id="edge8" class="edge"><title>fd_web&#45;&gt;gsuite_groups</title>
<path fill="none" stroke="black" d="M853.787,-784.183C863.828,-780.424 873.686,-775.484 881.966,-769 974.656,-696.417 969.031,-647.103 1007.97,-536 1031.92,-467.646 1061.76,-389.071 1080.08,-341.503"/>
<polygon fill="black" stroke="black" points="1083.69,-332.127 1084.29,-343.076 1081.9,-336.792 1080.1,-341.457 1080.1,-341.457 1080.1,-341.457 1081.9,-336.792 1075.9,-339.837 1083.69,-332.127 1083.69,-332.127"/>
<text text-anchor="middle" x="940.966" y="-764.8" font-family="Times,serif" font-size="14.00">bcc:archive@</text>
</g>
<!-- fd_web&#45;&gt;fd_mail -->
<g id="edge7" class="edge"><title>fd_web&#45;&gt;fd_mail</title>
<path fill="none" stroke="black" d="M853.766,-796C894.555,-796 950.124,-796 997.849,-796"/>
<polygon fill="black" stroke="black" points="1007.91,-796 997.906,-800.5 1002.91,-796 997.906,-796 997.906,-796 997.906,-796 1002.91,-796 997.906,-791.5 1007.91,-796 1007.91,-796"/>
</g>
</g>
</svg>
