<?xml version="1.0" encoding="UTF-8" standalone="no"?>
<!DOCTYPE svg PUBLIC "-//W3C//DTD SVG 1.1//EN"
 "http://www.w3.org/Graphics/SVG/1.1/DTD/svg11.dtd">
<!-- Generated by graphviz version 2.38.0 (20140413.2041)
 -->
<!-- Title: D Pages: 1 -->
<svg width="732pt" height="1107pt"
 viewBox="0.00 0.00 732.15 1106.67" xmlns="http://www.w3.org/2000/svg" xmlns:xlink="http://www.w3.org/1999/xlink">
<g id="graph0" class="graph" transform="scale(1 1) rotate(0) translate(4 1102.67)">
<title>D</title>
<polygon fill="white" stroke="none" points="-4,4 -4,-1102.67 728.146,-1102.67 728.146,4 -4,4"/>
<!-- FieldSpec -->
<g id="node1" class="node"><title>FieldSpec</title>
<ellipse fill="none" stroke="black" cx="191.146" cy="-984.798" rx="64.1938" ry="26.7407"/>
<text text-anchor="middle" x="191.146" y="-988.598" font-family="Times,serif" font-size="14.00">FieldSpec</text>
<text text-anchor="middle" x="191.146" y="-973.598" font-family="Times,serif" font-size="14.00">[P,V,I,C,O]</text>
</g>
<!-- TableSpecBuilder -->
<g id="node2" class="node"><title>TableSpecBuilder</title>
<ellipse fill="none" stroke="black" cx="175.146" cy="-880.058" rx="105.218" ry="26.7407"/>
<text text-anchor="middle" x="175.146" y="-883.858" font-family="Times,serif" font-size="14.00">TableSpecBuilderⁿ</text>
<text text-anchor="middle" x="175.146" y="-868.858" font-family="Times,serif" font-size="14.00">[P,U,V,Iₙ,Cₙ,Oₙ]</text>
</g>
<!-- FieldSpec&#45;&gt;TableSpecBuilder -->
<g id="edge1" class="edge"><title>FieldSpec&#45;&gt;TableSpecBuilder</title>
<path fill="none" stroke="black" d="M187.108,-957.872C185.175,-945.461 182.83,-930.399 180.729,-916.912"/>
<polygon fill="black" stroke="black" points="184.179,-916.318 179.182,-906.975 177.262,-917.395 184.179,-916.318"/>
<text text-anchor="middle" x="221.646" y="-928.728" font-family="Times,serif" font-size="14.00">U⁺ = ΣOₙ⁻</text>
<text text-anchor="middle" x="158.682" y="-910.775" font-family="Times,serif" font-size="14.00">1 &#160;&#160;&#160;&#160;&#160;&#160;</text>
<text text-anchor="middle" x="182.108" y="-946.672" font-family="Times,serif" font-size="14.00">n</text>
</g>
<!-- TableSpecBuilder&#45;&gt;TableSpecBuilder -->
<g id="edge17" class="edge"><title>TableSpecBuilder&#45;&gt;TableSpecBuilder</title>
<path fill="none" stroke="red" d="M276.774,-887.288C289.86,-886.035 298.505,-883.624 298.505,-880.058 298.505,-877.55 294.231,-875.614 287.144,-874.25"/>
<polygon fill="red" stroke="red" points="287.157,-870.719 276.774,-872.828 286.206,-877.654 287.157,-870.719"/>
<text text-anchor="middle" x="333.005" y="-876.358" font-family="Times,serif" font-size="14.00" fill="#550000"> U⁺ = arb</text>
</g>
<!-- TablePreSpec -->
<g id="node3" class="node"><title>TablePreSpec</title>
<ellipse fill="none" stroke="black" cx="312.146" cy="-768.105" rx="169.912" ry="48.1667"/>
<text text-anchor="middle" x="312.146" y="-786.905" font-family="Times,serif" font-size="14.00">TablePreSpecⁿ</text>
<text text-anchor="middle" x="312.146" y="-771.905" font-family="Times,serif" font-size="14.00">[P,U,V,Iₙ,Cₙ,Oₙ]</text>
<text text-anchor="middle" x="312.146" y="-756.905" font-family="Times,serif" font-size="14.00">[D]</text>
<text text-anchor="middle" x="312.146" y="-741.905" font-family="Times,serif" font-size="14.00">S = SavedAndUnsaved[D,P,ΣIₙ]</text>
</g>
<!-- TableSpecBuilder&#45;&gt;TablePreSpec -->
<g id="edge2" class="edge"><title>TableSpecBuilder&#45;&gt;TablePreSpec</title>
<path fill="none" stroke="black" d="M206.233,-854.108C218.823,-844.004 233.844,-831.948 248.562,-820.136"/>
<polygon fill="black" stroke="black" points="251.081,-822.602 256.689,-813.613 246.7,-817.142 251.081,-822.602"/>
</g>
<!-- FieldSpecR -->
<g id="node4" class="node"><title>FieldSpecR</title>
<ellipse fill="none" stroke="black" cx="84.1457" cy="-642.151" rx="84.2917" ry="26.7407"/>
<text text-anchor="middle" x="84.1457" y="-645.951" font-family="Times,serif" font-size="14.00">FieldSpecR</text>
<text text-anchor="middle" x="84.1457" y="-630.951" font-family="Times,serif" font-size="14.00">[S,R,P,V,I,C,O]</text>
</g>
<!-- TablePreSpec&#45;&gt;FieldSpecR -->
<g id="edge3" class="edge"><title>TablePreSpec&#45;&gt;FieldSpecR</title>
<path fill="none" stroke="black" d="M234.303,-725.376C219.939,-717.635 205.079,-709.602 191.146,-702.021 172.51,-691.883 152.096,-680.677 134.141,-670.786"/>
<polygon fill="black" stroke="black" points="135.445,-667.508 124.998,-665.746 132.066,-673.639 135.445,-667.508"/>
<text text-anchor="middle" x="249.646" y="-690.821" font-family="Times,serif" font-size="14.00">R⁺ = Option[D⁻]</text>
<text text-anchor="middle" x="115.498" y="-669.546" font-family="Times,serif" font-size="14.00">n &#160;</text>
<text text-anchor="middle" x="224.803" y="-714.176" font-family="Times,serif" font-size="14.00">1 &#160;</text>
</g>
<!-- RowSpec -->
<g id="node5" class="node"><title>RowSpec</title>
<ellipse fill="none" stroke="black" cx="312.146" cy="-642.151" rx="108.375" ry="26.7407"/>
<text text-anchor="middle" x="312.146" y="-645.951" font-family="Times,serif" font-size="14.00">RowSpecⁿ</text>
<text text-anchor="middle" x="312.146" y="-630.951" font-family="Times,serif" font-size="14.00">[S,R,U,P,V,Iₙ,Cₙ,Oₙ]</text>
</g>
<!-- TablePreSpec&#45;&gt;RowSpec -->
<g id="edge4" class="edge"><title>TablePreSpec&#45;&gt;RowSpec</title>
<path fill="none" stroke="black" d="M312.146,-719.89C312.146,-706.42 312.146,-691.963 312.146,-679.269"/>
<polygon fill="black" stroke="black" points="315.646,-679.082 312.146,-669.082 308.646,-679.082 315.646,-679.082"/>
</g>
<!-- TableSpecB -->
<g id="node6" class="node"><title>TableSpecB</title>
<ellipse fill="none" stroke="black" cx="499.146" cy="-342.011" rx="86.0347" ry="26.7407"/>
<text text-anchor="middle" x="499.146" y="-345.811" font-family="Times,serif" font-size="14.00">TableSpecB</text>
<text text-anchor="middle" x="499.146" y="-330.811" font-family="Times,serif" font-size="14.00">[S,D,U,P,II,VV]</text>
</g>
<!-- TablePreSpec&#45;&gt;TableSpecB -->
<g id="edge5" class="edge"><title>TablePreSpec&#45;&gt;TableSpecB</title>
<path fill="none" stroke="black" d="M379.281,-723.696C398.016,-708.514 416.643,-689.958 429.146,-669.021 452.818,-629.381 440.551,-612.444 450.146,-567.281 464.292,-500.693 481.374,-423.123 491.178,-378.868"/>
<polygon fill="black" stroke="black" points="494.642,-379.411 493.39,-368.89 487.808,-377.895 494.642,-379.411"/>
<text text-anchor="middle" x="492.646" y="-586.081" font-family="Times,serif" font-size="14.00">II⁺ = ΣIₙ⁻</text>
<text text-anchor="middle" x="492.646" y="-571.081" font-family="Times,serif" font-size="14.00">VV⁺ = (V⁻)ⁿ</text>
</g>
<!-- FieldSpecR&#45;&gt;RowSpec -->
<g id="edge6" class="edge"><title>FieldSpecR&#45;&gt;RowSpec</title>
<path fill="none" stroke="black" d="M168.31,-642.151C176.698,-642.151 185.087,-642.151 193.475,-642.151"/>
<polygon fill="black" stroke="black" points="193.707,-645.651 203.707,-642.151 193.707,-638.651 193.707,-645.651"/>
<text text-anchor="middle" x="198.707" y="-645.951" font-family="Times,serif" font-size="14.00">1</text>
<text text-anchor="middle" x="173.31" y="-645.951" font-family="Times,serif" font-size="14.00">n</text>
</g>
<!-- MultiFieldRenderer -->
<g id="node7" class="node"><title>MultiFieldRenderer</title>
<ellipse fill="none" stroke="black" cx="309.146" cy="-522.411" rx="111.946" ry="26.7407"/>
<text text-anchor="middle" x="309.146" y="-526.211" font-family="Times,serif" font-size="14.00">MultiFieldRenderer</text>
<text text-anchor="middle" x="309.146" y="-511.211" font-family="Times,serif" font-size="14.00">[S,U,P,II,VV]</text>
</g>
<!-- RowSpec&#45;&gt;MultiFieldRenderer -->
<g id="edge7" class="edge"><title>RowSpec&#45;&gt;MultiFieldRenderer</title>
<path fill="none" stroke="black" d="M311.48,-615.021C311.064,-598.711 310.523,-577.484 310.067,-559.571"/>
<polygon fill="black" stroke="black" points="313.563,-559.376 309.81,-549.469 306.566,-559.554 313.563,-559.376"/>
<text text-anchor="middle" x="353.646" y="-586.081" font-family="Times,serif" font-size="14.00">II⁺ = ΣIₙ⁻</text>
<text text-anchor="middle" x="353.646" y="-571.081" font-family="Times,serif" font-size="14.00">VV⁺ = (V⁻)ⁿ</text>
</g>
<!-- TableSpecU -->
<g id="node9" class="node"><title>TableSpecU</title>
<ellipse fill="none" stroke="black" cx="499.146" cy="-146.61" rx="96.7474" ry="26.7407"/>
<text text-anchor="middle" x="499.146" y="-150.41" font-family="Times,serif" font-size="14.00">TableSpecU</text>
<text text-anchor="middle" x="499.146" y="-135.41" font-family="Times,serif" font-size="14.00">[α,S,D,U,P,II,VV]</text>
</g>
<!-- TableSpecB&#45;&gt;TableSpecU -->
<g id="edge10" class="edge"><title>TableSpecB&#45;&gt;TableSpecU</title>
<path fill="none" stroke="black" stroke-dasharray="5,2" d="M499.146,-314.928C499.146,-281.094 499.146,-221.9 499.146,-183.751"/>
<polygon fill="black" stroke="black" points="502.646,-183.588 499.146,-173.588 495.646,-183.588 502.646,-183.588"/>
<text text-anchor="middle" x="573.646" y="-210.28" font-family="Times,serif" font-size="14.00">(U,P) ⇒ SaveNeed</text>
<text text-anchor="middle" x="573.646" y="-195.28" font-family="Times,serif" font-size="14.00">UpdateIO[α,S,D,U,P]</text>
</g>
<!-- MultiFieldRenderer&#45;&gt;TableSpecB -->
<g id="edge8" class="edge"><title>MultiFieldRenderer&#45;&gt;TableSpecB</title>
<path fill="none" stroke="black" d="M342.177,-496.509C360.886,-481.959 384.421,-462.897 404.146,-444.541 427.65,-422.668 452.376,-396.116 470.708,-375.652"/>
<polygon fill="black" stroke="black" points="473.37,-377.926 477.405,-368.129 468.142,-373.271 473.37,-377.926"/>
</g>
<!-- MultiFieldRenderer2 -->
<g id="node8" class="node"><title>MultiFieldRenderer2</title>
<ellipse fill="none" stroke="black" cx="207.146" cy="-342.011" rx="188.181" ry="102.561"/>
<text text-anchor="middle" x="207.146" y="-399.311" font-family="Times,serif" font-size="14.00">MultiFieldRenderer2</text>
<text text-anchor="middle" x="207.146" y="-384.311" font-family="Times,serif" font-size="14.00">[M[_],S,U,P,VV]</text>
<text text-anchor="middle" x="207.146" y="-353.311" font-family="Times,serif" font-size="14.00">render:</text>
<text text-anchor="middle" x="207.146" y="-338.311" font-family="Times,serif" font-size="14.00">(S ⇒ M[P], ReactST[IO,S,Unit]) ⇒</text>
<text text-anchor="middle" x="207.146" y="-323.311" font-family="Times,serif" font-size="14.00">ComponentStateFocus[S] ⇒ M[VV]</text>
<text text-anchor="middle" x="207.146" y="-292.311" font-family="Times,serif" font-size="14.00">savableU:</text>
<text text-anchor="middle" x="207.146" y="-277.311" font-family="Times,serif" font-size="14.00">S ⇒ Option[U]</text>
</g>
<!-- MultiFieldRenderer&#45;&gt;MultiFieldRenderer2 -->
<g id="edge9" class="edge"><title>MultiFieldRenderer&#45;&gt;MultiFieldRenderer2</title>
<path fill="none" stroke="black" d="M294.314,-495.47C287.021,-482.715 277.695,-466.404 267.869,-449.218"/>
<polygon fill="black" stroke="black" points="270.695,-447.109 262.693,-440.165 264.618,-450.583 270.695,-447.109"/>
<text text-anchor="middle" x="312.646" y="-466.341" font-family="Times,serif" font-size="14.00">.prepare</text>
</g>
<!-- TableSpecC -->
<g id="node10" class="node"><title>TableSpecC</title>
<ellipse fill="none" stroke="black" cx="406.146" cy="-26.8701" rx="96.7474" ry="26.7407"/>
<text text-anchor="middle" x="406.146" y="-30.6701" font-family="Times,serif" font-size="14.00">TableSpecC</text>
<text text-anchor="middle" x="406.146" y="-15.6701" font-family="Times,serif" font-size="14.00">[α,S,D,U,P,II,VV]</text>
</g>
<!-- TableSpecU&#45;&gt;TableSpecC -->
<g id="edge11" class="edge"><title>TableSpecU&#45;&gt;TableSpecC</title>
<path fill="none" stroke="black" stroke-dasharray="5,2" d="M471.491,-120.551C465.509,-114.621 459.406,-108.15 454.146,-101.74 444.056,-89.444 434.242,-74.947 426.145,-62.0667"/>
<polygon fill="black" stroke="black" points="429.061,-60.1275 420.832,-53.4548 423.104,-63.8032 429.061,-60.1275"/>
<text text-anchor="middle" x="512.146" y="-83.0401" font-family="Times,serif" font-size="14.00">CreateIO[α,S,U]</text>
</g>
<!-- TableSpecD -->
<g id="node11" class="node"><title>TableSpecD</title>
<ellipse fill="none" stroke="black" cx="592.146" cy="-26.8701" rx="71.3357" ry="26.7407"/>
<text text-anchor="middle" x="592.146" y="-30.6701" font-family="Times,serif" font-size="14.00">TableSpecD</text>
<text text-anchor="middle" x="592.146" y="-15.6701" font-family="Times,serif" font-size="14.00">[α,S,P,D]</text>
</g>
<!-- TableSpecU&#45;&gt;TableSpecD -->
<g id="edge12" class="edge"><title>TableSpecU&#45;&gt;TableSpecD</title>
<path fill="none" stroke="black" stroke-dasharray="5,2" d="M546.628,-123.037C555.413,-117.118 563.804,-110.024 570.146,-101.74 578.49,-90.841 583.679,-76.816 586.902,-63.9201"/>
<polygon fill="black" stroke="black" points="590.376,-64.4175 589.089,-53.9012 583.537,-62.9251 590.376,-64.4175"/>
<text text-anchor="middle" x="623.146" y="-90.5401" font-family="Times,serif" font-size="14.00">P ⇒ Alive</text>
<text text-anchor="middle" x="623.146" y="-75.5401" font-family="Times,serif" font-size="14.00">DelIO[α,D]</text>
</g>
<!-- Client -->
<g id="node12" class="node"><title>Client</title>
<ellipse fill="none" stroke="black" cx="346.146" cy="-1080.67" rx="38.9931" ry="18"/>
<text text-anchor="middle" x="346.146" y="-1076.97" font-family="Times,serif" font-size="14.00" fill="red">Client</text>
</g>
<!-- Client&#45;&gt;FieldSpec -->
<g id="edge13" class="edge"><title>Client&#45;&gt;FieldSpec</title>
<path fill="none" stroke="red" d="M307.257,-1078.06C278.968,-1074.96 241.359,-1066.61 216.146,-1044.67 209.01,-1038.46 203.855,-1029.86 200.153,-1021.16"/>
<polygon fill="red" stroke="red" points="203.434,-1019.94 196.68,-1011.77 196.869,-1022.37 203.434,-1019.94"/>
<text text-anchor="middle" x="249.646" y="-1033.47" font-family="Times,serif" font-size="14.00" fill="#550000">1. Create</text>
</g>
<!-- Client&#45;&gt;TableSpecBuilder -->
<g id="edge14" class="edge"><title>Client&#45;&gt;TableSpecBuilder</title>
<path fill="none" stroke="red" d="M337.96,-1063.07C319.26,-1025.35 274.166,-935.624 263.146,-924.928 256.579,-918.554 248.903,-912.926 240.871,-908.011"/>
<polygon fill="red" stroke="red" points="242.467,-904.892 232.051,-902.955 238.986,-910.965 242.467,-904.892"/>
<text text-anchor="middle" x="345.646" y="-988.598" font-family="Times,serif" font-size="14.00" fill="#550000">2. Create</text>
<text text-anchor="middle" x="345.646" y="-973.598" font-family="Times,serif" font-size="14.00" fill="#550000">3. dataId</text>
</g>
<!-- Client&#45;&gt;TablePreSpec -->
<g id="edge15" class="edge"><title>Client&#45;&gt;TablePreSpec</title>
<path fill="none" stroke="red" d="M357.451,-1063.23C365.839,-1049.98 376.582,-1030.51 381.146,-1011.67 387.756,-984.379 381.239,-867.178 376.146,-853.188 372.398,-842.893 366.916,-832.826 360.713,-823.44"/>
<polygon fill="red" stroke="red" points="363.434,-821.224 354.842,-815.025 357.693,-825.229 363.434,-821.224"/>
<text text-anchor="middle" x="453.646" y="-928.728" font-family="Times,serif" font-size="14.00" fill="#550000">4. tableConstraints</text>
</g>
<!-- Client&#45;&gt;TableSpecB -->
<g id="edge16" class="edge"><title>Client&#45;&gt;TableSpecB</title>
<path fill="none" stroke="red" d="M385.286,-1078.52C444.276,-1074.48 549.146,-1057.24 549.146,-985.798 549.146,-985.798 549.146,-985.798 549.146,-521.411 549.146,-470.106 529.735,-413.477 515.102,-378.076"/>
<polygon fill="red" stroke="red" points="518.244,-376.519 511.122,-368.676 511.798,-379.249 518.244,-376.519"/>
<text text-anchor="middle" x="636.646" y="-771.905" font-family="Times,serif" font-size="14.00" fill="#550000">5. saveNotNeededWhen</text>
<text text-anchor="middle" x="636.646" y="-756.905" font-family="Times,serif" font-size="14.00" fill="#550000">6. asyncSave</text>
</g>
</g>
</svg>
