<?xml version="1.0" encoding="UTF-8" standalone="no"?>
<!DOCTYPE svg PUBLIC "-//W3C//DTD SVG 1.1//EN"
 "http://www.w3.org/Graphics/SVG/1.1/DTD/svg11.dtd">
<!-- Generated by graphviz version 2.43.20190912.0211 (20190912.0211)
 -->
<!-- Title: G Pages: 1 -->
<svg width="1209pt" height="580pt"
 viewBox="0.00 0.00 1209.00 580.31" xmlns="http://www.w3.org/2000/svg" xmlns:xlink="http://www.w3.org/1999/xlink">
<g id="graph0" class="graph" transform="scale(1 1) rotate(0) translate(4 576.31)">
<title>G</title>
<polygon fill="white" stroke="transparent" points="-4,4 -4,-576.31 1205,-576.31 1205,4 -4,4"/>
<text text-anchor="middle" x="600.5" y="-557.11" font-family="Times,serif" font-size="14.00">Taskman dist gets everything visible.</text>
<text text-anchor="middle" x="600.5" y="-542.11" font-family="Times,serif" font-size="14.00">(A→B means B knows about A)</text>
<g id="clust1" class="cluster">
<title>cluster_abs</title>
<polygon fill="#eeeeee" stroke="black" points="471,-209.09 471,-402.57 1165,-402.57 1165,-209.09 471,-209.09"/>
<text text-anchor="middle" x="818" y="-387.37" font-family="Times,serif" font-size="14.00" fill="#007000">Abstraction &amp; logic. 100% pure FP.</text>
</g>
<g id="clust2" class="cluster">
<title>cluster_real</title>
<polygon fill="#eeeeee" stroke="black" points="471,-8 471,-201.09 1193,-201.09 1193,-8 471,-8"/>
<text text-anchor="middle" x="832" y="-185.89" font-family="Times,serif" font-size="14.00" fill="red">Real implementations. Wiring.</text>
</g>
<g id="clust3" class="cluster">
<title>cluster_public</title>
<polygon fill="#cccccc" stroke="black" points="8,-89.74 8,-526.31 463,-526.31 463,-89.74 8,-89.74"/>
<text text-anchor="middle" x="235.5" y="-511.11" font-family="Times,serif" font-size="14.00">Webapp gets this.</text>
</g>
<g id="clust4" class="cluster">
<title>cluster_api</title>
<polygon fill="#eeeeee" stroke="black" points="16,-309.83 16,-495.31 455,-495.31 455,-309.83 16,-309.83"/>
<text text-anchor="middle" x="235.5" y="-480.11" font-family="Times,serif" font-size="14.00" fill="#000080">API</text>
</g>
<g id="clust5" class="cluster">
<title>cluster_realp</title>
<polygon fill="#eeeeee" stroke="black" points="212,-97.74 212,-301.83 455,-301.83 455,-97.74 212,-97.74"/>
<text text-anchor="middle" x="333.5" y="-286.63" font-family="Times,serif" font-size="14.00" fill="red">Real implementations for API</text>
</g>
<!-- dbv -->
<g id="node1" class="node">
<title>dbv</title>
<ellipse fill="#bbffbb" stroke="black" cx="659" cy="-243.96" rx="82.05" ry="26.74"/>
<text text-anchor="middle" x="659" y="-247.76" font-family="Times,serif" font-size="14.00">ShipReq</text>
<text text-anchor="middle" x="659" y="-232.76" font-family="Times,serif" font-size="14.00">data interface</text>
</g>
<!-- _dbv -->
<g id="node8" class="node">
<title>_dbv</title>
<ellipse fill="#ffbbbb" stroke="black" cx="616" cy="-143.22" rx="54.39" ry="26.74"/>
<text text-anchor="middle" x="616" y="-147.02" font-family="Times,serif" font-size="14.00">ShipReq</text>
<text text-anchor="middle" x="616" y="-132.02" font-family="Times,serif" font-size="14.00">Views</text>
</g>
<!-- dbv&#45;&gt;_dbv -->
<g id="edge1" class="edge">
<title>dbv&#45;&gt;_dbv</title>
<path fill="none" stroke="#222222" d="M647.81,-217.27C642.74,-205.62 636.66,-191.65 631.18,-179.07"/>
<polygon fill="#222222" stroke="#222222" points="634.33,-177.54 627.13,-169.77 627.91,-180.34 634.33,-177.54"/>
</g>
<!-- mail -->
<g id="node2" class="node">
<title>mail</title>
<ellipse fill="#bbffbb" stroke="black" cx="816" cy="-243.96" rx="56.64" ry="26.74"/>
<text text-anchor="middle" x="816" y="-247.76" font-family="Times,serif" font-size="14.00">Mail</text>
<text text-anchor="middle" x="816" y="-232.76" font-family="Times,serif" font-size="14.00">interface</text>
</g>
<!-- _smtp -->
<g id="node9" class="node">
<title>_smtp</title>
<ellipse fill="#ffbbbb" stroke="black" cx="844" cy="-143.22" rx="38.19" ry="18"/>
<text text-anchor="middle" x="844" y="-139.52" font-family="Times,serif" font-size="14.00">SMTP</text>
</g>
<!-- mail&#45;&gt;_smtp -->
<g id="edge2" class="edge">
<title>mail&#45;&gt;_smtp</title>
<path fill="none" stroke="#222222" d="M823.28,-217.27C827.33,-203.02 832.35,-185.31 836.43,-170.9"/>
<polygon fill="#222222" stroke="#222222" points="839.86,-171.66 839.22,-161.09 833.12,-169.75 839.86,-171.66"/>
</g>
<!-- _mg -->
<g id="node10" class="node">
<title>_mg</title>
<ellipse fill="#ffbbbb" stroke="black" cx="738" cy="-143.22" rx="50.09" ry="18"/>
<text text-anchor="middle" x="738" y="-139.52" font-family="Times,serif" font-size="14.00">MailGun</text>
</g>
<!-- mail&#45;&gt;_mg -->
<g id="edge3" class="edge">
<title>mail&#45;&gt;_mg</title>
<path fill="none" stroke="#222222" d="M796.72,-218.55C784.69,-203.32 769.27,-183.8 757.24,-168.58"/>
<polygon fill="#222222" stroke="#222222" points="759.9,-166.3 750.96,-160.62 754.41,-170.64 759.9,-166.3"/>
</g>
<!-- mc -->
<g id="node3" class="node">
<title>mc</title>
<ellipse fill="#bbffbb" stroke="black" cx="958" cy="-243.96" rx="67.35" ry="26.74"/>
<text text-anchor="middle" x="958" y="-247.76" font-family="Times,serif" font-size="14.00">MailChimp</text>
<text text-anchor="middle" x="958" y="-232.76" font-family="Times,serif" font-size="14.00">interface</text>
</g>
<!-- _mc -->
<g id="node11" class="node">
<title>_mc</title>
<ellipse fill="#ffbbbb" stroke="black" cx="968" cy="-143.22" rx="67.35" ry="26.74"/>
<text text-anchor="middle" x="968" y="-147.02" font-family="Times,serif" font-size="14.00">MailChimp</text>
<text text-anchor="middle" x="968" y="-132.02" font-family="Times,serif" font-size="14.00">API</text>
</g>
<!-- mc&#45;&gt;_mc -->
<g id="edge4" class="edge">
<title>mc&#45;&gt;_mc</title>
<path fill="none" stroke="#222222" d="M960.63,-217.01C961.76,-205.88 963.09,-192.67 964.32,-180.58"/>
<polygon fill="#222222" stroke="#222222" points="967.83,-180.63 965.36,-170.33 960.87,-179.93 967.83,-180.63"/>
</g>
<!-- support -->
<g id="node4" class="node">
<title>support</title>
<ellipse fill="#bbffbb" stroke="black" cx="1100" cy="-243.96" rx="56.64" ry="26.74"/>
<text text-anchor="middle" x="1100" y="-247.76" font-family="Times,serif" font-size="14.00">Support</text>
<text text-anchor="middle" x="1100" y="-232.76" font-family="Times,serif" font-size="14.00">interface</text>
</g>
<!-- _fd -->
<g id="node12" class="node">
<title>_fd</title>
<ellipse fill="#ffbbbb" stroke="black" cx="1119" cy="-143.22" rx="65.52" ry="26.74"/>
<text text-anchor="middle" x="1119" y="-147.02" font-family="Times,serif" font-size="14.00">FreshDesk</text>
<text text-anchor="middle" x="1119" y="-132.02" font-family="Times,serif" font-size="14.00">API</text>
</g>
<!-- support&#45;&gt;_fd -->
<g id="edge5" class="edge">
<title>support&#45;&gt;_fd</title>
<path fill="none" stroke="#222222" d="M1104.99,-217.01C1107.16,-205.76 1109.73,-192.4 1112.07,-180.22"/>
<polygon fill="#222222" stroke="#222222" points="1115.52,-180.81 1113.98,-170.33 1108.65,-179.49 1115.52,-180.81"/>
</g>
<!-- actors -->
<g id="node5" class="node">
<title>actors</title>
<ellipse fill="#bbffbb" stroke="black" cx="519" cy="-243.96" rx="39.79" ry="18"/>
<text text-anchor="middle" x="519" y="-240.26" font-family="Times,serif" font-size="14.00">actors</text>
</g>
<!-- akka -->
<g id="node13" class="node">
<title>akka</title>
<ellipse fill="#ffbbbb" stroke="black" cx="511" cy="-143.22" rx="32.49" ry="18"/>
<text text-anchor="middle" x="511" y="-139.52" font-family="Times,serif" font-size="14.00">akka</text>
</g>
<!-- actors&#45;&gt;akka -->
<g id="edge6" class="edge">
<title>actors&#45;&gt;akka</title>
<path fill="none" stroke="#222222" d="M517.61,-225.76C516.39,-210.75 514.61,-188.72 513.2,-171.34"/>
<polygon fill="#222222" stroke="#222222" points="516.67,-170.9 512.38,-161.22 509.7,-171.47 516.67,-170.9"/>
</g>
<!-- bl -->
<g id="node6" class="node">
<title>bl</title>
<ellipse fill="#bbffbb" stroke="black" cx="778" cy="-344.7" rx="77.19" ry="18"/>
<text text-anchor="middle" x="778" y="-341" font-family="Times,serif" font-size="14.00">Business logic</text>
</g>
<!-- bl&#45;&gt;dbv -->
<g id="edge9" class="edge">
<title>bl&#45;&gt;dbv</title>
<path fill="none" stroke="#222222" d="M750.26,-320.68C731.68,-305.26 707.26,-285 688.36,-269.32"/>
<polygon fill="#222222" stroke="#222222" points="748.15,-323.48 758.08,-327.17 752.62,-318.09 748.15,-323.48"/>
</g>
<!-- bl&#45;&gt;mail -->
<g id="edge10" class="edge">
<title>bl&#45;&gt;mail</title>
<path fill="none" stroke="#222222" d="M788.24,-317.09C793.81,-302.61 800.67,-284.79 806.18,-270.48"/>
<polygon fill="#222222" stroke="#222222" points="784.94,-315.91 784.62,-326.5 791.48,-318.42 784.94,-315.91"/>
</g>
<!-- bl&#45;&gt;mc -->
<g id="edge11" class="edge">
<title>bl&#45;&gt;mc</title>
<path fill="none" stroke="#222222" d="M829.94,-325.84C846.97,-319.19 865.69,-311 882,-301.83 898.8,-292.37 916.12,-279.68 929.98,-268.69"/>
<polygon fill="#222222" stroke="#222222" points="828.24,-322.74 820.14,-329.57 830.73,-329.28 828.24,-322.74"/>
</g>
<!-- bl&#45;&gt;support -->
<g id="edge8" class="edge">
<title>bl&#45;&gt;support</title>
<path fill="none" stroke="#222222" d="M864.63,-341.23C915.92,-336.97 981.01,-326.56 1034,-301.83 1050.72,-294.02 1066.49,-280.74 1078.43,-268.98"/>
<polygon fill="#222222" stroke="#222222" points="864.27,-337.75 854.56,-342 864.8,-344.73 864.27,-337.75"/>
</g>
<!-- bl&#45;&gt;actors -->
<g id="edge12" class="edge">
<title>bl&#45;&gt;actors</title>
<path fill="none" stroke="#222222" d="M730.61,-325.62C713.07,-319.63 692.86,-313.55 674,-309.83 650.83,-305.25 589.09,-312.47 568,-301.83 550.55,-293.02 536.73,-275.01 528.27,-261.6"/>
<polygon fill="#222222" stroke="#222222" points="729.46,-328.92 740.06,-328.92 731.77,-322.31 729.46,-328.92"/>
</g>
<!-- tl -->
<g id="node7" class="node">
<title>tl</title>
<ellipse fill="#bbffbb" stroke="black" cx="572" cy="-344.7" rx="93.18" ry="26.74"/>
<text text-anchor="middle" x="572" y="-348.5" font-family="Times,serif" font-size="14.00">Taskman</text>
<text text-anchor="middle" x="572" y="-333.5" font-family="Times,serif" font-size="14.00">processing logic</text>
</g>
<!-- tl&#45;&gt;actors -->
<g id="edge7" class="edge">
<title>tl&#45;&gt;actors</title>
<path fill="none" stroke="#222222" d="M553.3,-308.86C544.67,-292.77 534.82,-274.42 527.9,-261.53"/>
<polygon fill="#222222" stroke="#222222" points="550.4,-310.86 558.21,-318.01 556.57,-307.55 550.4,-310.86"/>
</g>
<!-- tl&#45;&gt;bl -->
<g id="edge13" class="edge">
<title>tl&#45;&gt;bl</title>
<path fill="none" stroke="#222222" d="M665.34,-344.7C673.69,-344.7 682.03,-344.7 690.37,-344.7"/>
<polygon fill="#222222" stroke="#222222" points="690.55,-348.2 700.55,-344.7 690.55,-341.2 690.55,-348.2"/>
</g>
<!-- postgres -->
<g id="node20" class="node">
<title>postgres</title>
<ellipse fill="#ffbbbb" stroke="black" cx="376" cy="-143.22" rx="71.34" ry="37.45"/>
<text text-anchor="middle" x="376" y="-154.52" font-family="Times,serif" font-size="14.00">Doobie</text>
<text text-anchor="middle" x="376" y="-139.52" font-family="Times,serif" font-size="14.00">HikariCP</text>
<text text-anchor="middle" x="376" y="-124.52" font-family="Times,serif" font-size="14.00">PostgreSQL</text>
</g>
<!-- _dbv&#45;&gt;postgres -->
<g id="edge24" class="edge">
<title>_dbv&#45;&gt;postgres</title>
<path fill="none" stroke="#222222" d="M585.22,-174.65C575.18,-183.89 563.61,-193.54 552,-201.09 548.33,-203.47 547.28,-204.18 543,-205.09 528.44,-208.18 490.56,-208.18 476,-205.09 453.43,-200.3 431.3,-187.68 413.62,-175.08"/>
<polygon fill="#222222" stroke="#222222" points="587.71,-177.12 592.58,-167.71 582.91,-172.03 587.71,-177.12"/>
</g>
<!-- http -->
<g id="node14" class="node">
<title>http</title>
<ellipse fill="#ffbbbb" stroke="black" cx="968" cy="-42.87" rx="41.02" ry="26.74"/>
<text text-anchor="middle" x="968" y="-46.67" font-family="Times,serif" font-size="14.00">HTTP</text>
<text text-anchor="middle" x="968" y="-31.67" font-family="Times,serif" font-size="14.00">client</text>
</g>
<!-- _mg&#45;&gt;http -->
<g id="edge21" class="edge">
<title>_mg&#45;&gt;http</title>
<path fill="none" stroke="#222222" d="M752.49,-125.76C763.59,-114.11 779.87,-98.98 797,-89.74 834.92,-69.29 882.58,-57.49 917.94,-50.99"/>
<polygon fill="#222222" stroke="#222222" points="918.79,-54.39 928.04,-49.21 917.58,-47.5 918.79,-54.39"/>
</g>
<!-- _mc&#45;&gt;http -->
<g id="edge20" class="edge">
<title>_mc&#45;&gt;http</title>
<path fill="none" stroke="#222222" d="M968,-116.12C968,-105.03 968,-91.91 968,-79.92"/>
<polygon fill="#222222" stroke="#222222" points="971.5,-79.75 968,-69.75 964.5,-79.75 971.5,-79.75"/>
</g>
<!-- _fd&#45;&gt;http -->
<g id="edge22" class="edge">
<title>_fd&#45;&gt;http</title>
<path fill="none" stroke="#222222" d="M1087.57,-119.52C1074.27,-110.1 1058.52,-99.19 1044,-89.74 1032.06,-81.97 1018.83,-73.83 1006.81,-66.6"/>
<polygon fill="#222222" stroke="#222222" points="1008.26,-63.4 997.88,-61.27 1004.67,-69.41 1008.26,-63.4"/>
</g>
<!-- bla -->
<g id="node15" class="node">
<title>bla</title>
<ellipse fill="#bbbbff" stroke="black" cx="342" cy="-437.44" rx="104.8" ry="26.74"/>
<text text-anchor="middle" x="342" y="-441.24" font-family="Times,serif" font-size="14.00">Business logic API</text>
<text text-anchor="middle" x="342" y="-426.24" font-family="Times,serif" font-size="14.00">(event/job defns)</text>
</g>
<!-- bla&#45;&gt;bl -->
<g id="edge17" class="edge">
<title>bla&#45;&gt;bl</title>
<path fill="none" stroke="#222222" d="M443.47,-430.51C524.94,-424.93 632.36,-415.49 674,-402.57 699.74,-394.58 726.35,-379.88 746.22,-367.43"/>
<polygon fill="#222222" stroke="#222222" points="748.31,-370.24 754.84,-361.9 744.53,-364.35 748.31,-370.24"/>
</g>
<!-- tla -->
<g id="node16" class="node">
<title>tla</title>
<ellipse fill="#bbbbff" stroke="black" cx="113" cy="-437.44" rx="89.19" ry="26.74"/>
<text text-anchor="middle" x="113" y="-441.24" font-family="Times,serif" font-size="14.00">Taskman</text>
<text text-anchor="middle" x="113" y="-426.24" font-family="Times,serif" font-size="14.00">submission API</text>
</g>
<!-- tla&#45;&gt;bl -->
<g id="edge16" class="edge">
<title>tla&#45;&gt;bl</title>
<path fill="none" stroke="#222222" d="M178.89,-419.2C194.85,-415.7 211.95,-412.5 228,-410.57 277.21,-404.65 626.09,-415.27 674,-402.57 700.51,-395.54 727.61,-380.41 747.49,-367.53"/>
<polygon fill="#222222" stroke="#222222" points="749.43,-370.44 755.82,-361.99 745.56,-364.61 749.43,-370.44"/>
</g>
<!-- tla&#45;&gt;bla -->
<g id="edge15" class="edge">
<title>tla&#45;&gt;bla</title>
<path fill="none" stroke="#222222" d="M202.45,-437.44C210.72,-437.44 218.99,-437.44 227.26,-437.44"/>
<polygon fill="#222222" stroke="#222222" points="227.34,-440.94 237.34,-437.44 227.34,-433.94 227.34,-440.94"/>
</g>
<!-- tsl -->
<g id="node17" class="node">
<title>tsl</title>
<ellipse fill="#bbffbb" stroke="black" cx="333" cy="-344.7" rx="95.42" ry="26.74"/>
<text text-anchor="middle" x="333" y="-348.5" font-family="Times,serif" font-size="14.00">Taskman</text>
<text text-anchor="middle" x="333" y="-333.5" font-family="Times,serif" font-size="14.00">submission logic</text>
</g>
<!-- tla&#45;&gt;tsl -->
<g id="edge18" class="edge">
<title>tla&#45;&gt;tsl</title>
<path fill="none" stroke="#222222" d="M164.03,-415.39C196.05,-402.18 237.54,-385.07 271.39,-371.11"/>
<polygon fill="#222222" stroke="#222222" points="272.81,-374.31 280.72,-367.26 270.14,-367.84 272.81,-374.31"/>
</g>
<!-- tsl&#45;&gt;tl -->
<g id="edge19" class="edge">
<title>tsl&#45;&gt;tl</title>
<path fill="none" stroke="#222222" d="M428.69,-344.7C441.93,-344.7 455.16,-344.7 468.39,-344.7"/>
<polygon fill="#222222" stroke="#222222" points="468.51,-348.2 478.51,-344.7 468.51,-341.2 468.51,-348.2"/>
</g>
<!-- _tsl -->
<g id="node18" class="node">
<title>_tsl</title>
<ellipse fill="#ffbbbb" stroke="black" cx="333" cy="-243.96" rx="94.09" ry="26.74"/>
<text text-anchor="middle" x="333" y="-247.76" font-family="Times,serif" font-size="14.00">Taskman</text>
<text text-anchor="middle" x="333" y="-232.76" font-family="Times,serif" font-size="14.00">submission impl</text>
</g>
<!-- tsl&#45;&gt;_tsl -->
<g id="edge14" class="edge">
<title>tsl&#45;&gt;_tsl</title>
<path fill="none" stroke="#222222" d="M333,-317.75C333,-306.62 333,-293.41 333,-281.32"/>
<polygon fill="#222222" stroke="#222222" points="336.5,-281.07 333,-271.07 329.5,-281.07 336.5,-281.07"/>
</g>
<!-- circe -->
<g id="node19" class="node">
<title>circe</title>
<ellipse fill="#ffbbbb" stroke="black" cx="253" cy="-143.22" rx="33.29" ry="18"/>
<text text-anchor="middle" x="253" y="-139.52" font-family="Times,serif" font-size="14.00">circe</text>
</g>
<!-- _tsl&#45;&gt;circe -->
<g id="edge25" class="edge">
<title>_tsl&#45;&gt;circe</title>
<path fill="none" stroke="#222222" d="M303.33,-209.85C300.82,-206.91 298.35,-203.96 296,-201.09 285.03,-187.67 273.2,-171.92 264.73,-160.4"/>
<polygon fill="#222222" stroke="#222222" points="300.8,-212.27 309.99,-217.54 306.09,-207.69 300.8,-212.27"/>
</g>
<!-- _tsl&#45;&gt;postgres -->
<g id="edge23" class="edge">
<title>_tsl&#45;&gt;postgres</title>
<path fill="none" stroke="#222222" d="M348.2,-208.05C352.19,-198.89 356.5,-189 360.5,-179.81"/>
<polygon fill="#222222" stroke="#222222" points="344.97,-206.71 344.19,-217.27 351.39,-209.5 344.97,-206.71"/>
</g>
</g>
</svg>
