<?xml version="1.0" encoding="UTF-8" standalone="no"?>
<!DOCTYPE svg PUBLIC "-//W3C//DTD SVG 1.1//EN"
 "http://www.w3.org/Graphics/SVG/1.1/DTD/svg11.dtd">
<!-- Generated by graphviz version 2.36.0 (20140111.2315)
 -->
<!-- Title: G Pages: 1 -->
<svg width="590pt" height="580pt"
 viewBox="0.00 0.00 590.00 580.00" xmlns="http://www.w3.org/2000/svg" xmlns:xlink="http://www.w3.org/1999/xlink">
<g id="graph0" class="graph" transform="scale(1 1) rotate(0) translate(4 576)">
<title>G</title>
<polygon fill="white" stroke="none" points="-4,4 -4,-576 586,-576 586,4 -4,4"/>
<text text-anchor="middle" x="291" y="-556.8" font-family="Times,serif" font-size="14.00">Arrows indicate data flow.</text>
<text text-anchor="middle" x="291" y="-541.8" font-family="Times,serif" font-size="14.00">Boxes indicate instigation.</text>
<g id="clust1" class="cluster"><title>cluster_db</title>
<polygon fill="#eeeeee" stroke="black" points="317,-253 317,-454 574,-454 574,-253 317,-253"/>
<text text-anchor="middle" x="445.5" y="-438.8" font-family="Times,serif" font-size="14.00">DB</text>
</g>
<g id="clust2" class="cluster"><title>cluster_taskman</title>
<polygon fill="#eeeeee" stroke="black" points="103,-121 103,-337 203,-337 203,-121 103,-121"/>
<text text-anchor="middle" x="153" y="-321.8" font-family="Times,serif" font-size="14.00">TaskMan</text>
</g>
<g id="clust3" class="cluster"><title>cluster_world</title>
<polygon fill="#eeeeee" stroke="black" points="8,-8 8,-101 334,-101 334,-8 8,-8"/>
<text text-anchor="middle" x="171" y="-85.8" font-family="Times,serif" font-size="14.00">Outside world</text>
</g>
<!-- workq_sp -->
<g id="node1" class="node"><title>workq_sp</title>
<polygon fill="#ffffbb" stroke="red" points="458.38,-381.918 458.38,-406.082 419.496,-423.168 364.504,-423.168 325.62,-406.082 325.62,-381.918 364.504,-364.832 419.496,-364.832 458.38,-381.918"/>
<text text-anchor="middle" x="392" y="-397.8" font-family="Times,serif" font-size="14.00">Work Queue</text>
<text text-anchor="middle" x="392" y="-382.8" font-family="Times,serif" font-size="14.00">stored proc</text>
</g>
<!-- workq -->
<g id="node3" class="node"><title>workq</title>
<ellipse fill="#ffffbb" stroke="black" cx="400" cy="-288" rx="61.2774" ry="26.7407"/>
<text text-anchor="middle" x="400" y="-291.8" font-family="Times,serif" font-size="14.00">Work Queue</text>
<text text-anchor="middle" x="400" y="-276.8" font-family="Times,serif" font-size="14.00">table</text>
</g>
<!-- workq_sp&#45;&gt;workq -->
<g id="edge2" class="edge"><title>workq_sp&#45;&gt;workq</title>
<path fill="none" stroke="black" d="M394.952,-354.623C395.697,-344.94 396.494,-334.579 397.229,-325.017"/>
<polygon fill="black" stroke="black" points="398.153,-365.163 390.177,-364.549 390.79,-356.573 398.767,-357.186 398.153,-365.163"/>
<polyline fill="none" stroke="black" points="394.779,-356.88 394.932,-354.886 "/>
<polygon fill="black" stroke="black" points="397.998,-315.025 401.718,-325.34 397.615,-320.01 397.231,-324.995 397.231,-324.995 397.231,-324.995 397.615,-320.01 392.744,-324.65 397.998,-315.025 397.998,-315.025"/>
</g>
<!-- dbv -->
<g id="node2" class="node"><title>dbv</title>
<polygon fill="#bbddff" stroke="red" points="553.319,-280.544 553.319,-295.456 532.63,-306 503.37,-306 482.681,-295.456 482.681,-280.544 503.37,-270 532.63,-270 553.319,-280.544"/>
<text text-anchor="middle" x="518" y="-284.3" font-family="Times,serif" font-size="14.00">Views</text>
</g>
<!-- worker -->
<g id="node6" class="node"><title>worker</title>
<ellipse fill="#ffffbb" stroke="black" cx="159" cy="-147" rx="35.6194" ry="18"/>
<text text-anchor="middle" x="159" y="-143.3" font-family="Times,serif" font-size="14.00">worker</text>
</g>
<!-- dbv&#45;&gt;worker -->
<g id="edge7" class="edge"><title>dbv&#45;&gt;worker</title>
<path fill="none" stroke="black" d="M505.035,-269.986C485.826,-246.153 447.372,-203.457 404,-183 371.324,-167.588 275.85,-157.321 214.186,-152.09"/>
<polygon fill="black" stroke="black" points="193.621,-154.436 194.267,-146.463 202.241,-147.109 201.594,-155.083 193.621,-154.436"/>
<polyline fill="none" stroke="black" points="201.917,-151.096 203.911,-151.257 "/>
<polygon fill="black" stroke="black" points="203.911,-151.257 214.242,-147.58 208.895,-151.661 213.878,-152.065 213.878,-152.065 213.878,-152.065 208.895,-151.661 213.515,-156.55 203.911,-151.257 203.911,-151.257"/>
</g>
<!-- manager -->
<g id="node5" class="node"><title>manager</title>
<ellipse fill="#ffffbb" stroke="black" cx="153" cy="-288" rx="41.394" ry="18"/>
<text text-anchor="middle" x="153" y="-284.3" font-family="Times,serif" font-size="14.00">manager</text>
</g>
<!-- workq&#45;&gt;manager -->
<g id="edge11" class="edge"><title>workq&#45;&gt;manager</title>
<path fill="none" stroke="black" d="M328.146,-288C292.11,-288 248.918,-288 214.443,-288"/>
<polygon fill="black" stroke="black" points="338.593,-288 328.593,-292.5 333.593,-288 328.593,-288 328.593,-288 328.593,-288 333.593,-288 328.593,-283.5 338.593,-288 338.593,-288"/>
<polygon fill="black" stroke="black" points="194.342,-292 194.342,-284 202.342,-284 202.342,-292 194.342,-292"/>
<polyline fill="none" stroke="black" points="202.342,-288 204.342,-288 "/>
<polygon fill="black" stroke="black" points="204.342,-288 214.342,-283.5 209.342,-288 214.342,-288 214.342,-288 214.342,-288 209.342,-288 214.342,-292.5 204.342,-288 204.342,-288"/>
<text text-anchor="middle" x="266.241" y="-309.8" font-family="Times,serif" font-size="14.00">get work</text>
<text text-anchor="middle" x="266.241" y="-294.8" font-family="Times,serif" font-size="14.00">assign node</text>
</g>
<!-- db -->
<g id="node4" class="node"><title>db</title>
<ellipse fill="#bbddff" stroke="black" cx="521" cy="-394" rx="44.3213" ry="26.7407"/>
<text text-anchor="middle" x="521" y="-397.8" font-family="Times,serif" font-size="14.00">ShipReq</text>
<text text-anchor="middle" x="521" y="-382.8" font-family="Times,serif" font-size="14.00">tables</text>
</g>
<!-- db&#45;&gt;dbv -->
<g id="edge6" class="edge"><title>db&#45;&gt;dbv</title>
<path fill="none" stroke="black" d="M520.251,-367.025C519.895,-354.697 519.464,-339.739 519.074,-326.232"/>
<polygon fill="black" stroke="black" points="514.498,-306.305 522.494,-306.075 522.725,-314.071 514.728,-314.302 514.498,-306.305"/>
<polyline fill="none" stroke="black" points="518.727,-314.187 518.784,-316.186 "/>
<polygon fill="black" stroke="black" points="518.784,-316.186 523.571,-326.052 518.928,-321.184 519.073,-326.182 519.073,-326.182 519.073,-326.182 518.928,-321.184 514.575,-326.311 518.784,-316.186 518.784,-316.186"/>
</g>
<!-- manager&#45;&gt;worker -->
<g id="edge3" class="edge"><title>manager&#45;&gt;worker</title>
<path fill="none" stroke="black" d="M154.181,-259.64C155.236,-235.201 156.773,-199.594 157.826,-175.203"/>
<polygon fill="black" stroke="black" points="157.732,-270.128 149.739,-269.783 150.085,-261.791 158.077,-262.136 157.732,-270.128"/>
<polyline fill="none" stroke="black" points="154.081,-261.963 154.167,-259.965 "/>
<polygon fill="black" stroke="black" points="158.258,-165.184 162.323,-175.368 158.043,-170.179 157.827,-175.174 157.827,-175.174 157.827,-175.174 158.043,-170.179 153.331,-174.98 158.258,-165.184 158.258,-165.184"/>
</g>
<!-- worker&#45;&gt;workq -->
<g id="edge9" class="edge"><title>worker&#45;&gt;workq</title>
<path fill="none" stroke="black" d="M199.11,-171.134C242.101,-195.93 310.194,-235.203 354.986,-261.038"/>
<polygon fill="black" stroke="black" points="179.566,-164.479 183.563,-157.549 190.493,-161.546 186.496,-168.476 179.566,-164.479"/>
<polyline fill="none" stroke="black" points="188.494,-165.011 190.227,-166.011 "/>
<polygon fill="black" stroke="black" points="190.227,-166.011 201.138,-167.109 194.558,-168.509 198.889,-171.007 198.889,-171.007 198.889,-171.007 194.558,-168.509 196.641,-174.905 190.227,-166.011 190.227,-166.011"/>
<polygon fill="black" stroke="black" points="363.92,-266.19 353.009,-265.092 359.589,-263.692 355.257,-261.194 355.257,-261.194 355.257,-261.194 359.589,-263.692 357.506,-257.296 363.92,-266.19 363.92,-266.19"/>
<text text-anchor="middle" x="361.5" y="-231.8" font-family="Times,serif" font-size="14.00">get job details</text>
<text text-anchor="middle" x="361.5" y="-216.8" font-family="Times,serif" font-size="14.00">assign worker</text>
<text text-anchor="middle" x="361.5" y="-201.8" font-family="Times,serif" font-size="14.00">done</text>
<text text-anchor="middle" x="361.5" y="-186.8" font-family="Times,serif" font-size="14.00">fail</text>
</g>
<!-- smtp -->
<g id="node7" class="node"><title>smtp</title>
<ellipse fill="#ffbbbb" stroke="black" cx="50" cy="-43" rx="34.1708" ry="18"/>
<text text-anchor="middle" x="50" y="-39.3" font-family="Times,serif" font-size="14.00">SMTP</text>
</g>
<!-- worker&#45;&gt;smtp -->
<g id="edge4" class="edge"><title>worker&#45;&gt;smtp</title>
<path fill="none" stroke="black" d="M127.733,-127.683C116.19,-120.172 103.399,-110.913 93,-101 82.976,-91.4448 73.5118,-79.374 66.0278,-68.803"/>
<polygon fill="black" stroke="black" points="138.394,-129.686 134.121,-136.449 127.357,-132.177 131.63,-125.413 138.394,-129.686"/>
<polyline fill="none" stroke="black" points="129.494,-128.795 127.803,-127.727 "/>
<polygon fill="black" stroke="black" points="60.2382,-60.3642 69.6062,-66.0643 63.0669,-64.4871 65.8955,-68.6101 65.8955,-68.6101 65.8955,-68.6101 63.0669,-64.4871 62.1849,-71.1559 60.2382,-60.3642 60.2382,-60.3642"/>
</g>
<!-- mc -->
<g id="node8" class="node"><title>mc</title>
<ellipse fill="#ffbbbb" stroke="black" cx="159" cy="-43" rx="56.3526" ry="26.7407"/>
<text text-anchor="middle" x="159" y="-46.8" font-family="Times,serif" font-size="14.00">MailChimp</text>
<text text-anchor="middle" x="159" y="-31.8" font-family="Times,serif" font-size="14.00">API</text>
</g>
<!-- worker&#45;&gt;mc -->
<g id="edge10" class="edge"><title>worker&#45;&gt;mc</title>
<path fill="none" stroke="black" d="M159,-108.469C159,-99.3352 159,-89.5805 159,-80.4956"/>
<polygon fill="black" stroke="black" points="163,-128.697 155,-128.697 155,-120.697 163,-120.697 163,-128.697"/>
<polyline fill="none" stroke="black" points="159,-120.697 159,-118.697 "/>
<polygon fill="black" stroke="black" points="159,-118.697 154.5,-108.697 159,-113.697 159,-108.697 159,-108.697 159,-108.697 159,-113.697 163.5,-108.697 159,-118.697 159,-118.697"/>
<polygon fill="black" stroke="black" points="159,-70.2158 163.5,-80.2157 159,-75.2158 159,-80.2158 159,-80.2158 159,-80.2158 159,-75.2158 154.5,-80.2158 159,-70.2158 159,-70.2158"/>
</g>
<!-- crm -->
<g id="node9" class="node"><title>crm</title>
<ellipse fill="#ffbbbb" stroke="black" cx="280" cy="-43" rx="45.4433" ry="26.7407"/>
<text text-anchor="middle" x="280" y="-46.8" font-family="Times,serif" font-size="14.00">Insightly</text>
<text text-anchor="middle" x="280" y="-31.8" font-family="Times,serif" font-size="14.00">API</text>
</g>
<!-- worker&#45;&gt;crm -->
<g id="edge5" class="edge"><title>worker&#45;&gt;crm</title>
<path fill="none" stroke="black" d="M189.193,-126.831C200.462,-119.234 213.148,-110.139 224,-101 233.616,-92.9019 243.442,-83.3941 252.124,-74.4896"/>
<polygon fill="black" stroke="black" points="182.729,-135.91 178.312,-129.24 184.982,-124.822 189.399,-131.492 182.729,-135.91"/>
<polyline fill="none" stroke="black" points="187.19,-128.157 188.858,-127.053 "/>
<polygon fill="black" stroke="black" points="259.118,-67.1959 255.445,-77.5283 255.657,-70.8048 252.197,-74.4138 252.197,-74.4138 252.197,-74.4138 255.657,-70.8048 248.949,-71.2992 259.118,-67.1959 259.118,-67.1959"/>
</g>
<!-- webapp -->
<g id="node10" class="node"><title>webapp</title>
<ellipse fill="#bbddff" stroke="black" cx="469" cy="-500" rx="38.0212" ry="18"/>
<text text-anchor="middle" x="469" y="-496.3" font-family="Times,serif" font-size="14.00">webapp</text>
</g>
<!-- webapp&#45;&gt;workq_sp -->
<g id="edge1" class="edge"><title>webapp&#45;&gt;workq_sp</title>
<path fill="none" stroke="black" d="M450.712,-474.299C441.226,-461.488 429.457,-445.591 418.951,-431.402"/>
<polygon fill="black" stroke="black" points="460.184,-480.37 453.754,-485.13 448.994,-478.701 455.423,-473.94 460.184,-480.37"/>
<polyline fill="none" stroke="black" points="452.208,-476.32 451.018,-474.713 "/>
<polygon fill="black" stroke="black" points="412.939,-423.281 422.506,-428.64 415.914,-427.3 418.889,-431.318 418.889,-431.318 418.889,-431.318 415.914,-427.3 415.273,-433.996 412.939,-423.281 412.939,-423.281"/>
</g>
<!-- webapp&#45;&gt;db -->
<g id="edge8" class="edge"><title>webapp&#45;&gt;db</title>
<path fill="none" stroke="black" d="M486.394,-464.211C492.076,-452.848 498.375,-440.249 504.026,-428.949"/>
<polygon fill="black" stroke="black" points="480.932,-484.079 473.777,-480.502 477.355,-473.346 484.51,-476.924 480.932,-484.079"/>
<polyline fill="none" stroke="black" points="480.932,-475.135 481.827,-473.346 "/>
<polygon fill="black" stroke="black" points="481.827,-473.346 482.274,-462.39 484.063,-468.874 486.299,-464.402 486.299,-464.402 486.299,-464.402 484.063,-468.874 490.324,-466.415 481.827,-473.346 481.827,-473.346"/>
<polygon fill="black" stroke="black" points="508.591,-419.818 508.144,-430.774 506.355,-424.29 504.119,-428.762 504.119,-428.762 504.119,-428.762 506.355,-424.29 500.094,-426.749 508.591,-419.818 508.591,-419.818"/>
</g>
</g>
</svg>
