<?xml version="1.0" encoding="UTF-8" standalone="no"?>
<!DOCTYPE svg PUBLIC "-//W3C//DTD SVG 1.1//EN"
 "http://www.w3.org/Graphics/SVG/1.1/DTD/svg11.dtd">
<!-- Generated by graphviz version 2.43.20190912.0211 (20190912.0211)
 -->
<!-- Title: G Pages: 1 -->
<svg width="734pt" height="577pt"
 viewBox="0.00 0.00 734.00 576.78" xmlns="http://www.w3.org/2000/svg" xmlns:xlink="http://www.w3.org/1999/xlink">
<g id="graph0" class="graph" transform="scale(1 1) rotate(0) translate(4 572.78)">
<title>G</title>
<polygon fill="white" stroke="transparent" points="-4,4 -4,-572.78 730,-572.78 730,4 -4,4"/>
<text text-anchor="middle" x="363" y="-553.58" font-family="Times,serif" font-size="14.00">Arrows indicate data flow.</text>
<text text-anchor="middle" x="363" y="-538.58" font-family="Times,serif" font-size="14.00">Boxes indicate instigation.</text>
<g id="clust1" class="cluster">
<title>cluster_db</title>
<polygon fill="#eeeeee" stroke="black" points="416,-251.74 416,-451.78 718,-451.78 718,-251.74 416,-251.74"/>
<text text-anchor="middle" x="567" y="-436.58" font-family="Times,serif" font-size="14.00">DB</text>
</g>
<g id="clust2" class="cluster">
<title>cluster_taskman</title>
<polygon fill="#eeeeee" stroke="black" points="185,-119.74 185,-335.61 305,-335.61 305,-119.74 185,-119.74"/>
<text text-anchor="middle" x="245" y="-320.41" font-family="Times,serif" font-size="14.00">TaskMan</text>
</g>
<g id="clust3" class="cluster">
<title>cluster_world</title>
<polygon fill="#eeeeee" stroke="black" points="8,-8 8,-100.74 478,-100.74 478,-8 8,-8"/>
<text text-anchor="middle" x="243" y="-85.54" font-family="Times,serif" font-size="14.00">Outside world</text>
</g>
<!-- workq_sp -->
<g id="node1" class="node">
<title>workq_sp</title>
<polygon fill="#ffffbb" stroke="red" points="583.7,-379.61 583.7,-403.78 537.01,-420.86 470.99,-420.86 424.3,-403.78 424.3,-379.61 470.99,-362.53 537.01,-362.53 583.7,-379.61"/>
<text text-anchor="middle" x="504" y="-395.49" font-family="Times,serif" font-size="14.00">Work Queue</text>
<text text-anchor="middle" x="504" y="-380.49" font-family="Times,serif" font-size="14.00">stored proc</text>
</g>
<!-- workq -->
<g id="node3" class="node">
<title>workq</title>
<ellipse fill="#ffffbb" stroke="black" cx="514" cy="-286.61" rx="73.58" ry="26.74"/>
<text text-anchor="middle" x="514" y="-290.41" font-family="Times,serif" font-size="14.00">Work Queue</text>
<text text-anchor="middle" x="514" y="-275.41" font-family="Times,serif" font-size="14.00">table</text>
</g>
<!-- workq_sp&#45;&gt;workq -->
<g id="edge2" class="edge">
<title>workq_sp&#45;&gt;workq</title>
<path fill="none" stroke="black" d="M507.71,-352.47C508.62,-343.07 509.59,-333.04 510.5,-323.74"/>
<polygon fill="black" stroke="black" points="510.71,-362.91 502.75,-362.14 503.52,-354.18 511.49,-354.95 510.71,-362.91"/>
<polyline fill="none" stroke="black" points="507.51,-354.56 507.7,-352.57 "/>
<polygon fill="black" stroke="black" points="511.48,-313.62 514.99,-324.01 510.99,-318.6 510.51,-323.58 510.51,-323.58 510.51,-323.58 510.99,-318.6 506.03,-323.14 511.48,-313.62 511.48,-313.62"/>
</g>
<!-- dbv -->
<g id="node2" class="node">
<title>dbv</title>
<polygon fill="#bbddff" stroke="red" points="693.51,-279.15 693.51,-294.07 669.19,-304.61 634.81,-304.61 610.49,-294.07 610.49,-279.15 634.81,-268.61 669.19,-268.61 693.51,-279.15"/>
<text text-anchor="middle" x="652" y="-282.91" font-family="Times,serif" font-size="14.00">Views</text>
</g>
<!-- worker -->
<g id="node6" class="node">
<title>worker</title>
<ellipse fill="#ffffbb" stroke="black" cx="253" cy="-145.74" rx="43.59" ry="18"/>
<text text-anchor="middle" x="253" y="-142.04" font-family="Times,serif" font-size="14.00">worker</text>
</g>
<!-- dbv&#45;&gt;worker -->
<g id="edge7" class="edge">
<title>dbv&#45;&gt;worker</title>
<path fill="none" stroke="black" d="M638.93,-268.5C619.57,-244.56 580.8,-201.75 537,-181.74 498.89,-164.32 387.68,-154.66 316.26,-150.1"/>
<polygon fill="black" stroke="black" points="295.7,-152.86 296.18,-144.88 304.17,-145.36 303.68,-153.34 295.7,-152.86"/>
<polyline fill="none" stroke="black" points="303.93,-149.35 305.92,-149.47 "/>
<polygon fill="black" stroke="black" points="305.92,-149.47 316.18,-145.59 310.91,-149.78 315.9,-150.08 315.9,-150.08 315.9,-150.08 310.91,-149.78 315.63,-154.57 305.92,-149.47 305.92,-149.47"/>
</g>
<!-- manager -->
<g id="node5" class="node">
<title>manager</title>
<ellipse fill="#ffffbb" stroke="black" cx="245" cy="-286.61" rx="51.99" ry="18"/>
<text text-anchor="middle" x="245" y="-282.91" font-family="Times,serif" font-size="14.00">manager</text>
</g>
<!-- workq&#45;&gt;manager -->
<g id="edge11" class="edge">
<title>workq&#45;&gt;manager</title>
<path fill="none" stroke="black" d="M430.3,-286.61C394.11,-286.61 352.18,-286.61 317.36,-286.61"/>
<polygon fill="black" stroke="black" points="440.34,-286.61 430.34,-291.11 435.34,-286.61 430.34,-286.61 430.34,-286.61 430.34,-286.61 435.34,-286.61 430.34,-282.11 440.34,-286.61 440.34,-286.61"/>
<polygon fill="black" stroke="black" points="297.18,-290.61 297.18,-282.61 305.18,-282.61 305.18,-290.61 297.18,-290.61"/>
<polyline fill="none" stroke="black" points="305.18,-286.61 307.18,-286.61 "/>
<polygon fill="black" stroke="black" points="307.18,-286.61 317.18,-282.11 312.18,-286.61 317.18,-286.61 317.18,-286.61 317.18,-286.61 312.18,-286.61 317.18,-291.11 307.18,-286.61 307.18,-286.61"/>
<text text-anchor="middle" x="368.73" y="-308.41" font-family="Times,serif" font-size="14.00">get work</text>
<text text-anchor="middle" x="368.73" y="-293.41" font-family="Times,serif" font-size="14.00">assign node</text>
</g>
<!-- db -->
<g id="node4" class="node">
<title>db</title>
<ellipse fill="#bbddff" stroke="black" cx="656" cy="-391.69" rx="54.39" ry="26.74"/>
<text text-anchor="middle" x="656" y="-395.49" font-family="Times,serif" font-size="14.00">ShipReq</text>
<text text-anchor="middle" x="656" y="-380.49" font-family="Times,serif" font-size="14.00">tables</text>
</g>
<!-- db&#45;&gt;dbv -->
<g id="edge6" class="edge">
<title>db&#45;&gt;dbv</title>
<path fill="none" stroke="black" d="M654.99,-364.68C654.53,-352.68 653.96,-338.22 653.45,-325.07"/>
<polygon fill="black" stroke="black" points="648.67,-305.03 656.67,-304.72 656.98,-312.71 648.98,-313.02 648.67,-305.03"/>
<polyline fill="none" stroke="black" points="652.98,-312.87 653.06,-314.86 "/>
<polygon fill="black" stroke="black" points="653.06,-314.86 657.94,-324.68 653.25,-319.86 653.45,-324.86 653.45,-324.86 653.45,-324.86 653.25,-319.86 648.95,-325.03 653.06,-314.86 653.06,-314.86"/>
</g>
<!-- manager&#45;&gt;worker -->
<g id="edge3" class="edge">
<title>manager&#45;&gt;worker</title>
<path fill="none" stroke="black" d="M246.57,-258.28C247.98,-233.86 250.03,-198.29 251.43,-173.92"/>
<polygon fill="black" stroke="black" points="249.97,-268.81 241.99,-268.35 242.45,-260.37 250.43,-260.83 249.97,-268.81"/>
<polyline fill="none" stroke="black" points="246.44,-260.6 246.56,-258.6 "/>
<polygon fill="black" stroke="black" points="252.01,-163.91 255.93,-174.15 251.72,-168.9 251.44,-173.89 251.44,-173.89 251.44,-173.89 251.72,-168.9 246.94,-173.63 252.01,-163.91 252.01,-163.91"/>
</g>
<!-- worker&#45;&gt;workq -->
<g id="edge9" class="edge">
<title>worker&#45;&gt;workq</title>
<path fill="none" stroke="black" d="M296.33,-169.79C342.66,-194.45 416.02,-233.48 464.57,-259.31"/>
<polygon fill="black" stroke="black" points="276.68,-163.87 280.44,-156.81 287.5,-160.57 283.75,-167.63 276.68,-163.87"/>
<polyline fill="none" stroke="black" points="285.63,-164.1 287.39,-165.04 "/>
<polygon fill="black" stroke="black" points="287.39,-165.04 298.33,-165.76 291.8,-167.39 296.22,-169.74 296.22,-169.74 296.22,-169.74 291.8,-167.39 294.11,-173.71 287.39,-165.04 287.39,-165.04"/>
<polygon fill="black" stroke="black" points="473.51,-264.06 462.56,-263.34 469.09,-261.72 464.68,-259.37 464.68,-259.37 464.68,-259.37 469.09,-261.72 466.79,-255.39 473.51,-264.06 473.51,-264.06"/>
<text text-anchor="middle" x="481.5" y="-230.54" font-family="Times,serif" font-size="14.00">get job details</text>
<text text-anchor="middle" x="481.5" y="-215.54" font-family="Times,serif" font-size="14.00">assign worker</text>
<text text-anchor="middle" x="481.5" y="-200.54" font-family="Times,serif" font-size="14.00">done</text>
<text text-anchor="middle" x="481.5" y="-185.54" font-family="Times,serif" font-size="14.00">fail</text>
</g>
<!-- mail -->
<g id="node7" class="node">
<title>mail</title>
<ellipse fill="#ffbbbb" stroke="black" cx="92" cy="-42.87" rx="75.82" ry="26.74"/>
<text text-anchor="middle" x="92" y="-46.67" font-family="Times,serif" font-size="14.00">SMTP or</text>
<text text-anchor="middle" x="92" y="-31.67" font-family="Times,serif" font-size="14.00">MailGun API</text>
</g>
<!-- worker&#45;&gt;mail -->
<g id="edge4" class="edge">
<title>worker&#45;&gt;mail</title>
<path fill="none" stroke="black" d="M219.29,-125.85C205.99,-118.24 190.67,-109.26 177,-100.74 162.91,-91.96 147.77,-82 134.23,-72.91"/>
<polygon fill="black" stroke="black" points="230.09,-127.4 226.14,-134.35 219.18,-130.39 223.14,-123.44 230.09,-127.4"/>
<polyline fill="none" stroke="black" points="221.16,-126.91 219.43,-125.93 "/>
<polygon fill="black" stroke="black" points="125.59,-67.07 136.39,-68.94 129.73,-69.87 133.88,-72.67 133.88,-72.67 133.88,-72.67 129.73,-69.87 131.36,-76.4 125.59,-67.07 125.59,-67.07"/>
</g>
<!-- mc -->
<g id="node8" class="node">
<title>mc</title>
<ellipse fill="#ffbbbb" stroke="black" cx="253" cy="-42.87" rx="67.35" ry="26.74"/>
<text text-anchor="middle" x="253" y="-46.67" font-family="Times,serif" font-size="14.00">MailChimp</text>
<text text-anchor="middle" x="253" y="-31.67" font-family="Times,serif" font-size="14.00">API</text>
</g>
<!-- worker&#45;&gt;mc -->
<g id="edge10" class="edge">
<title>worker&#45;&gt;mc</title>
<path fill="none" stroke="black" d="M253,-107.62C253,-98.59 253,-88.95 253,-79.96"/>
<polygon fill="black" stroke="black" points="257,-127.63 249,-127.63 249,-119.63 257,-119.63 257,-127.63"/>
<polyline fill="none" stroke="black" points="253,-119.63 253,-117.63 "/>
<polygon fill="black" stroke="black" points="253,-117.63 248.5,-107.63 253,-112.63 253,-107.63 253,-107.63 253,-107.63 253,-112.63 257.5,-107.63 253,-117.63 253,-117.63"/>
<polygon fill="black" stroke="black" points="253,-69.8 257.5,-79.8 253,-74.8 253,-79.8 253,-79.8 253,-79.8 253,-74.8 248.5,-79.8 253,-69.8 253,-69.8"/>
</g>
<!-- fd -->
<g id="node9" class="node">
<title>fd</title>
<ellipse fill="#ffbbbb" stroke="black" cx="404" cy="-42.87" rx="65.52" ry="26.74"/>
<text text-anchor="middle" x="404" y="-46.67" font-family="Times,serif" font-size="14.00">FreshDesk</text>
<text text-anchor="middle" x="404" y="-31.67" font-family="Times,serif" font-size="14.00">API</text>
</g>
<!-- worker&#45;&gt;fd -->
<g id="edge5" class="edge">
<title>worker&#45;&gt;fd</title>
<path fill="none" stroke="black" d="M287.29,-126.09C300.54,-118.57 315.69,-109.59 329,-100.74 341.71,-92.29 355.14,-82.43 367.06,-73.32"/>
<polygon fill="black" stroke="black" points="280.42,-134.53 276.51,-127.55 283.48,-123.63 287.4,-130.61 280.42,-134.53"/>
<polyline fill="none" stroke="black" points="285.44,-127.12 287.18,-126.14 "/>
<polygon fill="black" stroke="black" points="375.05,-67.15 369.88,-76.82 371.09,-70.21 367.13,-73.26 367.13,-73.26 367.13,-73.26 371.09,-70.21 364.38,-69.7 375.05,-67.15 375.05,-67.15"/>
</g>
<!-- webapp -->
<g id="node10" class="node">
<title>webapp</title>
<ellipse fill="#bbddff" stroke="black" cx="579" cy="-496.78" rx="46.59" ry="18"/>
<text text-anchor="middle" x="579" y="-493.08" font-family="Times,serif" font-size="14.00">webapp</text>
</g>
<!-- webapp&#45;&gt;workq_sp -->
<g id="edge1" class="edge">
<title>webapp&#45;&gt;workq_sp</title>
<path fill="none" stroke="black" d="M560.89,-470.88C551.8,-458.39 540.62,-443.03 530.58,-429.23"/>
<polygon fill="black" stroke="black" points="570.18,-476.86 563.72,-481.57 559.01,-475.1 565.48,-470.39 570.18,-476.86"/>
<polyline fill="none" stroke="black" points="562.24,-472.75 561.07,-471.13 "/>
<polygon fill="black" stroke="black" points="524.51,-420.88 534.03,-426.32 527.45,-424.93 530.39,-428.97 530.39,-428.97 530.39,-428.97 527.45,-424.93 526.75,-431.62 524.51,-420.88 524.51,-420.88"/>
</g>
<!-- webapp&#45;&gt;db -->
<g id="edge8" class="edge">
<title>webapp&#45;&gt;db</title>
<path fill="none" stroke="black" d="M603.66,-462.76C612.53,-450.89 622.54,-437.49 631.4,-425.62"/>
<polygon fill="black" stroke="black" points="594.58,-481.61 588.17,-476.82 592.95,-470.41 599.36,-475.2 594.58,-481.61"/>
<polyline fill="none" stroke="black" points="596.16,-472.81 597.36,-471.2 "/>
<polygon fill="black" stroke="black" points="597.36,-471.2 599.74,-460.5 600.35,-467.2 603.34,-463.19 603.34,-463.19 603.34,-463.19 600.35,-467.2 606.95,-465.89 597.36,-471.2 597.36,-471.2"/>
<polygon fill="black" stroke="black" points="637.63,-417.29 635.25,-428 634.63,-421.3 631.64,-425.3 631.64,-425.3 631.64,-425.3 634.63,-421.3 628.04,-422.61 637.63,-417.29 637.63,-417.29"/>
</g>
</g>
</svg>
