<?xml version="1.0" encoding="UTF-8" standalone="no"?>
<!DOCTYPE svg PUBLIC "-//W3C//DTD SVG 1.1//EN"
 "http://www.w3.org/Graphics/SVG/1.1/DTD/svg11.dtd">
<!-- Generated by graphviz version 2.36.0 (20140111.2315)
 -->
<!-- Title: G Pages: 1 -->
<svg width="994pt" height="582pt"
 viewBox="0.00 0.00 994.00 582.00" xmlns="http://www.w3.org/2000/svg" xmlns:xlink="http://www.w3.org/1999/xlink">
<g id="graph0" class="graph" transform="scale(1 1) rotate(0) translate(4 578)">
<title>G</title>
<polygon fill="white" stroke="none" points="-4,4 -4,-578 990,-578 990,4 -4,4"/>
<text text-anchor="middle" x="493" y="-558.8" font-family="Times,serif" font-size="14.00">Taskman dist gets everything visible.</text>
<text text-anchor="middle" x="493" y="-543.8" font-family="Times,serif" font-size="14.00">(A→B means B knows about A)</text>
<g id="clust1" class="cluster"><title>cluster_abs</title>
<polygon fill="#eeeeee" stroke="black" points="403,-210 403,-404 978,-404 978,-210 403,-210"/>
<text text-anchor="middle" x="690.5" y="-388.8" font-family="Times,serif" font-size="14.00" fill="#007000">Abstraction &amp; logic. 100% pure FP.</text>
</g>
<g id="clust2" class="cluster"><title>cluster_real</title>
<polygon fill="#eeeeee" stroke="black" points="446,-8 446,-202 952,-202 952,-8 446,-8"/>
<text text-anchor="middle" x="699" y="-186.8" font-family="Times,serif" font-size="14.00" fill="red">Real implementations. Wiring.</text>
</g>
<g id="clust3" class="cluster"><title>cluster_public</title>
<polygon fill="#cccccc" stroke="black" points="8,-90 8,-528 395,-528 395,-90 8,-90"/>
<text text-anchor="middle" x="201.5" y="-512.8" font-family="Times,serif" font-size="14.00">Webapp gets this.</text>
</g>
<g id="clust4" class="cluster"><title>cluster_api</title>
<polygon fill="#eeeeee" stroke="black" points="16,-311 16,-497 387,-497 387,-311 16,-311"/>
<text text-anchor="middle" x="201.5" y="-481.8" font-family="Times,serif" font-size="14.00" fill="#000080">API</text>
</g>
<g id="clust5" class="cluster"><title>cluster_realp</title>
<polygon fill="#eeeeee" stroke="black" points="131,-98 131,-303 349,-303 349,-98 131,-98"/>
<text text-anchor="middle" x="240" y="-287.8" font-family="Times,serif" font-size="14.00" fill="red">Real implementations for API</text>
</g>
<!-- dbv -->
<g id="node1" class="node"><title>dbv</title>
<ellipse fill="#bbffbb" stroke="black" cx="556" cy="-245" rx="63.459" ry="26.7407"/>
<text text-anchor="middle" x="556" y="-248.8" font-family="Times,serif" font-size="14.00">ShipReq</text>
<text text-anchor="middle" x="556" y="-233.8" font-family="Times,serif" font-size="14.00">data interface</text>
</g>
<!-- _dbv -->
<g id="node8" class="node"><title>_dbv</title>
<ellipse fill="#ffbbbb" stroke="black" cx="571" cy="-144" rx="44.3213" ry="26.7407"/>
<text text-anchor="middle" x="571" y="-147.8" font-family="Times,serif" font-size="14.00">ShipReq</text>
<text text-anchor="middle" x="571" y="-132.8" font-family="Times,serif" font-size="14.00">Views</text>
</g>
<!-- dbv&#45;&gt;_dbv -->
<g id="edge1" class="edge"><title>dbv&#45;&gt;_dbv</title>
<path fill="none" stroke="#222222" d="M559.941,-217.989C561.664,-206.621 563.712,-193.101 565.575,-180.804"/>
<polygon fill="#222222" stroke="#222222" points="569.048,-181.249 567.085,-170.837 562.127,-180.2 569.048,-181.249"/>
</g>
<!-- smtp -->
<g id="node2" class="node"><title>smtp</title>
<ellipse fill="#bbffbb" stroke="black" cx="683" cy="-245" rx="44.8843" ry="26.7407"/>
<text text-anchor="middle" x="683" y="-248.8" font-family="Times,serif" font-size="14.00">SMTP</text>
<text text-anchor="middle" x="683" y="-233.8" font-family="Times,serif" font-size="14.00">interface</text>
</g>
<!-- _smtp -->
<g id="node9" class="node"><title>_smtp</title>
<ellipse fill="#ffbbbb" stroke="black" cx="668" cy="-144" rx="34.1708" ry="18"/>
<text text-anchor="middle" x="668" y="-140.3" font-family="Times,serif" font-size="14.00">SMTP</text>
</g>
<!-- smtp&#45;&gt;_smtp -->
<g id="edge2" class="edge"><title>smtp&#45;&gt;_smtp</title>
<path fill="none" stroke="#222222" d="M679.059,-217.989C676.928,-203.928 674.299,-186.575 672.139,-172.318"/>
<polygon fill="#222222" stroke="#222222" points="675.553,-171.487 670.595,-162.124 668.632,-172.536 675.553,-171.487"/>
</g>
<!-- mc -->
<g id="node3" class="node"><title>mc</title>
<ellipse fill="#bbffbb" stroke="black" cx="803" cy="-245" rx="56.3526" ry="26.7407"/>
<text text-anchor="middle" x="803" y="-248.8" font-family="Times,serif" font-size="14.00">MailChimp</text>
<text text-anchor="middle" x="803" y="-233.8" font-family="Times,serif" font-size="14.00">interface</text>
</g>
<!-- _mc -->
<g id="node10" class="node"><title>_mc</title>
<ellipse fill="#ffbbbb" stroke="black" cx="777" cy="-144" rx="56.3526" ry="26.7407"/>
<text text-anchor="middle" x="777" y="-147.8" font-family="Times,serif" font-size="14.00">MailChimp</text>
<text text-anchor="middle" x="777" y="-132.8" font-family="Times,serif" font-size="14.00">API</text>
</g>
<!-- mc&#45;&gt;_mc -->
<g id="edge3" class="edge"><title>mc&#45;&gt;_mc</title>
<path fill="none" stroke="#222222" d="M796.237,-218.247C793.251,-206.879 789.69,-193.32 786.448,-180.976"/>
<polygon fill="#222222" stroke="#222222" points="789.745,-179.751 783.82,-170.968 782.975,-181.529 789.745,-179.751"/>
</g>
<!-- crm -->
<g id="node4" class="node"><title>crm</title>
<ellipse fill="#bbffbb" stroke="black" cx="924" cy="-245" rx="45.4433" ry="26.7407"/>
<text text-anchor="middle" x="924" y="-248.8" font-family="Times,serif" font-size="14.00">Insightly</text>
<text text-anchor="middle" x="924" y="-233.8" font-family="Times,serif" font-size="14.00">interface</text>
</g>
<!-- _crm -->
<g id="node11" class="node"><title>_crm</title>
<ellipse fill="#ffbbbb" stroke="black" cx="898" cy="-144" rx="45.4433" ry="26.7407"/>
<text text-anchor="middle" x="898" y="-147.8" font-family="Times,serif" font-size="14.00">Insightly</text>
<text text-anchor="middle" x="898" y="-132.8" font-family="Times,serif" font-size="14.00">API</text>
</g>
<!-- crm&#45;&gt;_crm -->
<g id="edge4" class="edge"><title>crm&#45;&gt;_crm</title>
<path fill="none" stroke="#222222" d="M917.237,-218.247C914.197,-206.674 910.562,-192.832 907.274,-180.312"/>
<polygon fill="#222222" stroke="#222222" points="910.655,-179.407 904.729,-170.624 903.884,-181.185 910.655,-179.407"/>
</g>
<!-- actors -->
<g id="node5" class="node"><title>actors</title>
<ellipse fill="#bbffbb" stroke="black" cx="443" cy="-245" rx="31.2735" ry="18"/>
<text text-anchor="middle" x="443" y="-241.3" font-family="Times,serif" font-size="14.00">actors</text>
</g>
<!-- akka -->
<g id="node12" class="node"><title>akka</title>
<ellipse fill="#ffbbbb" stroke="black" cx="481" cy="-144" rx="26.949" ry="18"/>
<text text-anchor="middle" x="481" y="-140.3" font-family="Times,serif" font-size="14.00">akka</text>
</g>
<!-- actors&#45;&gt;akka -->
<g id="edge5" class="edge"><title>actors&#45;&gt;akka</title>
<path fill="none" stroke="#222222" d="M449.446,-227.206C455.323,-211.896 464.1,-189.029 470.906,-171.297"/>
<polygon fill="#222222" stroke="#222222" points="474.333,-172.136 474.649,-161.546 467.798,-169.628 474.333,-172.136"/>
</g>
<!-- bl -->
<g id="node6" class="node"><title>bl</title>
<ellipse fill="#bbffbb" stroke="black" cx="656" cy="-346" rx="61.6163" ry="18"/>
<text text-anchor="middle" x="656" y="-342.3" font-family="Times,serif" font-size="14.00">Business logic</text>
</g>
<!-- bl&#45;&gt;dbv -->
<g id="edge7" class="edge"><title>bl&#45;&gt;dbv</title>
<path fill="none" stroke="#222222" d="M632.234,-321.471C616.592,-305.986 596.172,-285.77 580.403,-270.159"/>
<polygon fill="#222222" stroke="#222222" points="629.918,-324.104 639.487,-328.652 634.843,-319.129 629.918,-324.104"/>
</g>
<!-- bl&#45;&gt;smtp -->
<g id="edge8" class="edge"><title>bl&#45;&gt;smtp</title>
<path fill="none" stroke="#222222" d="M663.389,-317.906C667.328,-303.465 672.146,-285.799 676.02,-271.592"/>
<polygon fill="#222222" stroke="#222222" points="659.958,-317.187 660.703,-327.756 666.711,-319.029 659.958,-317.187"/>
</g>
<!-- bl&#45;&gt;mc -->
<g id="edge9" class="edge"><title>bl&#45;&gt;mc</title>
<path fill="none" stroke="#222222" d="M697.385,-325.893C710.431,-319.256 724.652,-311.364 737,-303 751.666,-293.066 766.712,-280.306 778.728,-269.379"/>
<polygon fill="#222222" stroke="#222222" points="695.532,-322.905 688.136,-330.492 698.649,-329.173 695.532,-322.905"/>
</g>
<!-- bl&#45;&gt;crm -->
<g id="edge10" class="edge"><title>bl&#45;&gt;crm</title>
<path fill="none" stroke="#222222" d="M726.43,-341.533C769.477,-336.943 824.44,-326.51 868,-303 882.894,-294.962 896.31,-281.639 906.275,-269.895"/>
<polygon fill="#222222" stroke="#222222" points="725.928,-338.066 716.319,-342.528 726.614,-345.032 725.928,-338.066"/>
</g>
<!-- bl&#45;&gt;actors -->
<g id="edge11" class="edge"><title>bl&#45;&gt;actors</title>
<path fill="none" stroke="#222222" d="M615.225,-326.561C600.606,-320.674 583.824,-314.726 568,-311 549.533,-306.651 499.404,-312.532 483,-303 467.425,-293.95 456.43,-276.126 449.96,-262.806"/>
<polygon fill="#222222" stroke="#222222" points="613.909,-329.804 624.488,-330.397 616.588,-323.337 613.909,-329.804"/>
</g>
<!-- tl -->
<g id="node7" class="node"><title>tl</title>
<ellipse fill="#bbffbb" stroke="black" cx="485" cy="-346" rx="74.3697" ry="26.7407"/>
<text text-anchor="middle" x="485" y="-349.8" font-family="Times,serif" font-size="14.00">Taskman</text>
<text text-anchor="middle" x="485" y="-334.8" font-family="Times,serif" font-size="14.00">processing logic</text>
</g>
<!-- tl&#45;&gt;actors -->
<g id="edge6" class="edge"><title>tl&#45;&gt;actors</title>
<path fill="none" stroke="#222222" d="M469.989,-309.618C463.193,-293.598 455.483,-275.425 450.049,-262.616"/>
<polygon fill="#222222" stroke="#222222" points="466.947,-311.408 474.075,-319.247 473.391,-308.675 466.947,-311.408"/>
</g>
<!-- tl&#45;&gt;bl -->
<g id="edge12" class="edge"><title>tl&#45;&gt;bl</title>
<path fill="none" stroke="#222222" d="M559.145,-346C567.483,-346 575.821,-346 584.159,-346"/>
<polygon fill="#222222" stroke="#222222" points="584.33,-349.5 594.33,-346 584.33,-342.5 584.33,-349.5"/>
</g>
<!-- postgres -->
<g id="node19" class="node"><title>postgres</title>
<ellipse fill="#ffbbbb" stroke="black" cx="282" cy="-144" rx="58.5343" ry="37.4533"/>
<text text-anchor="middle" x="282" y="-155.3" font-family="Times,serif" font-size="14.00">Slick</text>
<text text-anchor="middle" x="282" y="-140.3" font-family="Times,serif" font-size="14.00">BoneCP</text>
<text text-anchor="middle" x="282" y="-125.3" font-family="Times,serif" font-size="14.00">PostgreSQL</text>
</g>
<!-- _dbv&#45;&gt;postgres -->
<g id="edge22" class="edge"><title>_dbv&#45;&gt;postgres</title>
<path fill="none" stroke="#222222" d="M549.225,-177.824C538.655,-190.394 524.624,-202.472 508,-206 443.923,-219.598 371.055,-191.57 325.797,-168.895"/>
<polygon fill="#222222" stroke="#222222" points="552.268,-179.613 555.664,-169.577 546.751,-175.305 552.268,-179.613"/>
</g>
<!-- http -->
<g id="node13" class="node"><title>http</title>
<ellipse fill="#ffbbbb" stroke="black" cx="821" cy="-43" rx="79.2942" ry="26.7407"/>
<text text-anchor="middle" x="821" y="-46.8" font-family="Times,serif" font-size="14.00">HTTP/WS/REST</text>
<text text-anchor="middle" x="821" y="-31.8" font-family="Times,serif" font-size="14.00">client</text>
</g>
<!-- _mc&#45;&gt;http -->
<g id="edge19" class="edge"><title>_mc&#45;&gt;http</title>
<path fill="none" stroke="#222222" d="M788.331,-117.505C793.525,-105.818 799.767,-91.7746 805.396,-79.1084"/>
<polygon fill="#222222" stroke="#222222" points="808.691,-80.3123 809.554,-69.7526 802.295,-77.4693 808.691,-80.3123"/>
</g>
<!-- _crm&#45;&gt;http -->
<g id="edge20" class="edge"><title>_crm&#45;&gt;http</title>
<path fill="none" stroke="#222222" d="M879.557,-119.287C869.83,-106.781 857.733,-91.2279 847.064,-77.5103"/>
<polygon fill="#222222" stroke="#222222" points="849.541,-74.9948 840.639,-69.2501 844.016,-79.2924 849.541,-74.9948"/>
</g>
<!-- bla -->
<g id="node14" class="node"><title>bla</title>
<ellipse fill="#bbbbff" stroke="black" cx="293" cy="-439" rx="85.3397" ry="26.7407"/>
<text text-anchor="middle" x="293" y="-442.8" font-family="Times,serif" font-size="14.00">Business logic API</text>
<text text-anchor="middle" x="293" y="-427.8" font-family="Times,serif" font-size="14.00">(event/job defns)</text>
</g>
<!-- bla&#45;&gt;bl -->
<g id="edge16" class="edge"><title>bla&#45;&gt;bl</title>
<path fill="none" stroke="#222222" d="M378.328,-437.273C433.831,-434.443 506.969,-426.202 568,-404 589.996,-395.998 612.097,-381.654 628.648,-369.358"/>
<polygon fill="#222222" stroke="#222222" points="630.943,-372.009 636.768,-363.159 626.696,-366.445 630.943,-372.009"/>
</g>
<!-- tla -->
<g id="node15" class="node"><title>tla</title>
<ellipse fill="#bbbbff" stroke="black" cx="98" cy="-439" rx="73.3085" ry="26.7407"/>
<text text-anchor="middle" x="98" y="-442.8" font-family="Times,serif" font-size="14.00">Taskman</text>
<text text-anchor="middle" x="98" y="-427.8" font-family="Times,serif" font-size="14.00">submission API</text>
</g>
<!-- tla&#45;&gt;bl -->
<g id="edge15" class="edge"><title>tla&#45;&gt;bl</title>
<path fill="none" stroke="#222222" d="M153.077,-421.233C167.556,-417.501 183.253,-414.048 198,-412 238.73,-406.344 528.694,-416.081 568,-404 590.669,-397.032 613.058,-382.393 629.58,-369.695"/>
<polygon fill="#222222" stroke="#222222" points="632,-372.242 637.655,-363.283 627.647,-366.76 632,-372.242"/>
</g>
<!-- tla&#45;&gt;bla -->
<g id="edge14" class="edge"><title>tla&#45;&gt;bla</title>
<path fill="none" stroke="#222222" d="M171.506,-439C180.147,-439 188.789,-439 197.43,-439"/>
<polygon fill="#222222" stroke="#222222" points="197.574,-442.5 207.574,-439 197.574,-435.5 197.574,-442.5"/>
</g>
<!-- tsl -->
<g id="node16" class="node"><title>tsl</title>
<ellipse fill="#bbffbb" stroke="black" cx="177" cy="-346" rx="77.112" ry="26.7407"/>
<text text-anchor="middle" x="177" y="-349.8" font-family="Times,serif" font-size="14.00">Taskman</text>
<text text-anchor="middle" x="177" y="-334.8" font-family="Times,serif" font-size="14.00">submission logic</text>
</g>
<!-- tla&#45;&gt;tsl -->
<g id="edge17" class="edge"><title>tla&#45;&gt;tsl</title>
<path fill="none" stroke="#222222" d="M119.587,-413.134C128.557,-402.801 139.09,-390.668 148.669,-379.634"/>
<polygon fill="#222222" stroke="#222222" points="151.526,-381.682 155.439,-371.836 146.24,-377.093 151.526,-381.682"/>
</g>
<!-- tsl&#45;&gt;tl -->
<g id="edge18" class="edge"><title>tsl&#45;&gt;tl</title>
<path fill="none" stroke="#222222" d="M254.301,-346C303.059,-346 351.818,-346 400.576,-346"/>
<polygon fill="#222222" stroke="#222222" points="400.654,-349.5 410.654,-346 400.654,-342.5 400.654,-349.5"/>
</g>
<!-- _tsl -->
<g id="node17" class="node"><title>_tsl</title>
<ellipse fill="#ffbbbb" stroke="black" cx="215" cy="-245" rx="75.4903" ry="26.7407"/>
<text text-anchor="middle" x="215" y="-248.8" font-family="Times,serif" font-size="14.00">Taskman</text>
<text text-anchor="middle" x="215" y="-233.8" font-family="Times,serif" font-size="14.00">submission impl</text>
</g>
<!-- tsl&#45;&gt;_tsl -->
<g id="edge13" class="edge"><title>tsl&#45;&gt;_tsl</title>
<path fill="none" stroke="#222222" d="M186.885,-319.247C191.292,-307.765 196.557,-294.048 201.333,-281.606"/>
<polygon fill="#222222" stroke="#222222" points="204.717,-282.558 205.033,-271.968 198.182,-280.049 204.717,-282.558"/>
</g>
<!-- json4s -->
<g id="node18" class="node"><title>json4s</title>
<ellipse fill="#ffbbbb" stroke="black" cx="172" cy="-144" rx="33.2209" ry="18"/>
<text text-anchor="middle" x="172" y="-140.3" font-family="Times,serif" font-size="14.00">json4s</text>
</g>
<!-- _tsl&#45;&gt;json4s -->
<g id="edge23" class="edge"><title>_tsl&#45;&gt;json4s</title>
<path fill="none" stroke="#222222" d="M199.829,-209.071C192.823,-192.941 184.833,-174.545 179.217,-161.616"/>
<polygon fill="#222222" stroke="#222222" points="196.62,-210.47 203.815,-218.247 203.041,-207.681 196.62,-210.47"/>
</g>
<!-- _tsl&#45;&gt;postgres -->
<g id="edge21" class="edge"><title>_tsl&#45;&gt;postgres</title>
<path fill="none" stroke="#222222" d="M237.696,-210.464C244.609,-200.249 252.21,-189.018 259.134,-178.787"/>
<polygon fill="#222222" stroke="#222222" points="234.787,-208.519 232.08,-218.762 240.584,-212.442 234.787,-208.519"/>
</g>
</g>
</svg>
