<?xml version="1.0" encoding="UTF-8" standalone="no"?>
<!DOCTYPE svg PUBLIC "-//W3C//DTD SVG 1.1//EN"
 "http://www.w3.org/Graphics/SVG/1.1/DTD/svg11.dtd">
<!-- Generated by graphviz version 2.36.0 (20140111.2315)
 -->
<!-- Title: G Pages: 1 -->
<svg width="976pt" height="590pt"
 viewBox="0.00 0.00 976.00 590.00" xmlns="http://www.w3.org/2000/svg" xmlns:xlink="http://www.w3.org/1999/xlink">
<g id="graph0" class="graph" transform="scale(1 1) rotate(0) translate(4 586)">
<title>G</title>
<polygon fill="white" stroke="none" points="-4,4 -4,-586 972,-586 972,4 -4,4"/>
<text text-anchor="middle" x="484" y="-566.8" font-family="Times,serif" font-size="14.00">Taskman dist gets everything visible.</text>
<text text-anchor="middle" x="484" y="-551.8" font-family="Times,serif" font-size="14.00">(A→B means B knows about A)</text>
<g id="clust1" class="cluster"><title>cluster_abs</title>
<polygon fill="#eeeeee" stroke="black" points="385,-229 385,-412 960,-412 960,-229 385,-229"/>
<text text-anchor="middle" x="672.5" y="-396.8" font-family="Times,serif" font-size="14.00" fill="#007000">Abstraction &amp; logic. 100% pure FP.</text>
</g>
<g id="clust2" class="cluster"><title>cluster_real</title>
<polygon fill="#eeeeee" stroke="black" points="422,-27 422,-221 928,-221 928,-27 422,-27"/>
<text text-anchor="middle" x="675" y="-205.8" font-family="Times,serif" font-size="14.00" fill="red">Real implementations. Wiring.</text>
</g>
<g id="clust3" class="cluster"><title>cluster_public</title>
<polygon fill="#cccccc" stroke="black" points="8,-8 8,-536 377,-536 377,-8 8,-8"/>
<text text-anchor="middle" x="192.5" y="-520.8" font-family="Times,serif" font-size="14.00">Webapp gets this.</text>
</g>
<g id="clust4" class="cluster"><title>cluster_api</title>
<polygon fill="#eeeeee" stroke="black" points="16,-229 16,-505 369,-505 369,-229 16,-229"/>
<text text-anchor="middle" x="192.5" y="-489.8" font-family="Times,serif" font-size="14.00" fill="#000080">API</text>
</g>
<g id="clust5" class="cluster"><title>cluster_realp</title>
<polygon fill="#eeeeee" stroke="black" points="145,-16 145,-221 369,-221 369,-16 145,-16"/>
<text text-anchor="middle" x="257" y="-205.8" font-family="Times,serif" font-size="14.00" fill="red">Real implementations for API</text>
</g>
<!-- dbv -->
<g id="node1" class="node"><title>dbv</title>
<ellipse fill="#bbffbb" stroke="black" cx="538" cy="-264" rx="63.459" ry="26.7407"/>
<text text-anchor="middle" x="538" y="-267.8" font-family="Times,serif" font-size="14.00">ShipReq</text>
<text text-anchor="middle" x="538" y="-252.8" font-family="Times,serif" font-size="14.00">data interface</text>
</g>
<!-- _dbv -->
<g id="node8" class="node"><title>_dbv</title>
<ellipse fill="#ffbbbb" stroke="black" cx="547" cy="-163" rx="44.3213" ry="26.7407"/>
<text text-anchor="middle" x="547" y="-166.8" font-family="Times,serif" font-size="14.00">ShipReq</text>
<text text-anchor="middle" x="547" y="-151.8" font-family="Times,serif" font-size="14.00">Views</text>
</g>
<!-- dbv&#45;&gt;_dbv -->
<g id="edge1" class="edge"><title>dbv&#45;&gt;_dbv</title>
<path fill="none" stroke="#222222" d="M540.365,-236.989C541.398,-225.621 542.627,-212.101 543.745,-199.804"/>
<polygon fill="#222222" stroke="#222222" points="547.231,-200.113 544.651,-189.837 540.26,-199.479 547.231,-200.113"/>
</g>
<!-- smtp -->
<g id="node2" class="node"><title>smtp</title>
<ellipse fill="#bbffbb" stroke="black" cx="907" cy="-264" rx="44.8843" ry="26.7407"/>
<text text-anchor="middle" x="907" y="-267.8" font-family="Times,serif" font-size="14.00">SMTP</text>
<text text-anchor="middle" x="907" y="-252.8" font-family="Times,serif" font-size="14.00">interface</text>
</g>
<!-- _smtp -->
<g id="node9" class="node"><title>_smtp</title>
<ellipse fill="#ffbbbb" stroke="black" cx="886" cy="-163" rx="34.1708" ry="18"/>
<text text-anchor="middle" x="886" y="-159.3" font-family="Times,serif" font-size="14.00">SMTP</text>
</g>
<!-- smtp&#45;&gt;_smtp -->
<g id="edge3" class="edge"><title>smtp&#45;&gt;_smtp</title>
<path fill="none" stroke="#222222" d="M901.537,-237.247C898.506,-222.956 894.74,-205.203 891.675,-190.754"/>
<polygon fill="#222222" stroke="#222222" points="895.087,-189.97 889.588,-180.914 888.239,-191.423 895.087,-189.97"/>
</g>
<!-- mc -->
<g id="node3" class="node"><title>mc</title>
<ellipse fill="#bbffbb" stroke="black" cx="787" cy="-264" rx="56.3526" ry="26.7407"/>
<text text-anchor="middle" x="787" y="-267.8" font-family="Times,serif" font-size="14.00">MailChimp</text>
<text text-anchor="middle" x="787" y="-252.8" font-family="Times,serif" font-size="14.00">interface</text>
</g>
<!-- _mc -->
<g id="node10" class="node"><title>_mc</title>
<ellipse fill="#ffbbbb" stroke="black" cx="777" cy="-163" rx="56.3526" ry="26.7407"/>
<text text-anchor="middle" x="777" y="-166.8" font-family="Times,serif" font-size="14.00">MailChimp</text>
<text text-anchor="middle" x="777" y="-151.8" font-family="Times,serif" font-size="14.00">API</text>
</g>
<!-- mc&#45;&gt;_mc -->
<g id="edge4" class="edge"><title>mc&#45;&gt;_mc</title>
<path fill="none" stroke="#222222" d="M784.373,-236.989C783.245,-225.823 781.907,-212.581 780.683,-200.462"/>
<polygon fill="#222222" stroke="#222222" points="784.132,-199.779 779.645,-190.181 777.167,-200.482 784.132,-199.779"/>
</g>
<!-- crm -->
<g id="node4" class="node"><title>crm</title>
<ellipse fill="#bbffbb" stroke="black" cx="666" cy="-264" rx="45.4433" ry="26.7407"/>
<text text-anchor="middle" x="666" y="-267.8" font-family="Times,serif" font-size="14.00">Insightly</text>
<text text-anchor="middle" x="666" y="-252.8" font-family="Times,serif" font-size="14.00">interface</text>
</g>
<!-- _crm -->
<g id="node11" class="node"><title>_crm</title>
<ellipse fill="#ffbbbb" stroke="black" cx="656" cy="-163" rx="45.4433" ry="26.7407"/>
<text text-anchor="middle" x="656" y="-166.8" font-family="Times,serif" font-size="14.00">Insightly</text>
<text text-anchor="middle" x="656" y="-151.8" font-family="Times,serif" font-size="14.00">API</text>
</g>
<!-- crm&#45;&gt;_crm -->
<g id="edge5" class="edge"><title>crm&#45;&gt;_crm</title>
<path fill="none" stroke="#222222" d="M663.373,-236.989C662.224,-225.621 660.859,-212.101 659.617,-199.804"/>
<polygon fill="#222222" stroke="#222222" points="663.097,-199.435 658.61,-189.837 656.133,-200.139 663.097,-199.435"/>
</g>
<!-- actors -->
<g id="node5" class="node"><title>actors</title>
<ellipse fill="#bbffbb" stroke="black" cx="425" cy="-264" rx="31.2735" ry="18"/>
<text text-anchor="middle" x="425" y="-260.3" font-family="Times,serif" font-size="14.00">actors</text>
</g>
<!-- akka -->
<g id="node12" class="node"><title>akka</title>
<ellipse fill="#ffbbbb" stroke="black" cx="457" cy="-163" rx="26.949" ry="18"/>
<text text-anchor="middle" x="457" y="-159.3" font-family="Times,serif" font-size="14.00">akka</text>
</g>
<!-- actors&#45;&gt;akka -->
<g id="edge7" class="edge"><title>actors&#45;&gt;akka</title>
<path fill="none" stroke="#222222" d="M430.428,-246.206C435.347,-230.988 442.679,-208.305 448.396,-190.618"/>
<polygon fill="#222222" stroke="#222222" points="451.8,-191.468 451.545,-180.876 445.139,-189.315 451.8,-191.468"/>
</g>
<!-- bl -->
<g id="node6" class="node"><title>bl</title>
<ellipse fill="#bbffbb" stroke="black" cx="621" cy="-354" rx="61.6163" ry="18"/>
<text text-anchor="middle" x="621" y="-350.3" font-family="Times,serif" font-size="14.00">Business logic</text>
</g>
<!-- bl&#45;&gt;dbv -->
<g id="edge11" class="edge"><title>bl&#45;&gt;dbv</title>
<path fill="none" stroke="#222222" d="M598.476,-329.119C586.768,-316.706 572.493,-301.571 560.752,-289.123"/>
<polygon fill="#222222" stroke="#222222" points="595.981,-331.575 605.388,-336.448 601.073,-326.772 595.981,-331.575"/>
</g>
<!-- bl&#45;&gt;smtp -->
<g id="edge12" class="edge"><title>bl&#45;&gt;smtp</title>
<path fill="none" stroke="#222222" d="M678.872,-340.511C726.142,-329.589 794.321,-312.179 852,-291 859.039,-288.415 866.405,-285.264 873.374,-282.06"/>
<polygon fill="#222222" stroke="#222222" points="678.082,-337.101 669.114,-342.742 679.643,-343.925 678.082,-337.101"/>
</g>
<!-- bl&#45;&gt;mc -->
<g id="edge13" class="edge"><title>bl&#45;&gt;mc</title>
<path fill="none" stroke="#222222" d="M658.434,-333.156C685.837,-318.628 722.844,-299.011 750.117,-284.552"/>
<polygon fill="#222222" stroke="#222222" points="656.732,-330.096 649.536,-337.872 660.011,-336.281 656.732,-330.096"/>
</g>
<!-- bl&#45;&gt;crm -->
<g id="edge14" class="edge"><title>bl&#45;&gt;crm</title>
<path fill="none" stroke="#222222" d="M634.403,-326.789C640.374,-315.113 647.372,-301.428 653.263,-289.908"/>
<polygon fill="#222222" stroke="#222222" points="631.113,-325.536 629.676,-336.033 637.346,-328.723 631.113,-325.536"/>
</g>
<!-- bl&#45;&gt;actors -->
<g id="edge15" class="edge"><title>bl&#45;&gt;actors</title>
<path fill="none" stroke="#222222" d="M574.853,-335.818C536.366,-321.275 484.747,-301.214 465,-291 457.938,-287.347 450.547,-282.778 444.067,-278.493"/>
<polygon fill="#222222" stroke="#222222" points="573.736,-339.137 584.328,-339.387 576.204,-332.587 573.736,-339.137"/>
</g>
<!-- tl -->
<g id="node7" class="node"><title>tl</title>
<ellipse fill="#bbffbb" stroke="black" cx="467" cy="-354" rx="74.3697" ry="26.7407"/>
<text text-anchor="middle" x="467" y="-357.8" font-family="Times,serif" font-size="14.00">Taskman</text>
<text text-anchor="middle" x="467" y="-342.8" font-family="Times,serif" font-size="14.00">processing logic</text>
</g>
<!-- tl&#45;&gt;actors -->
<g id="edge8" class="edge"><title>tl&#45;&gt;actors</title>
<path fill="none" stroke="#222222" d="M450.191,-317.781C444.227,-305.286 437.794,-291.807 432.921,-281.597"/>
<polygon fill="#222222" stroke="#222222" points="447.16,-319.556 454.626,-327.073 453.477,-316.541 447.16,-319.556"/>
</g>
<!-- tl&#45;&gt;bl -->
<g id="edge16" class="edge"><title>tl&#45;&gt;bl</title>
<path fill="none" stroke="#222222" d="M541.293,-354C543.927,-354 546.56,-354 549.194,-354"/>
<polygon fill="#222222" stroke="#222222" points="549.352,-357.5 559.352,-354 549.352,-350.5 549.352,-357.5"/>
</g>
<!-- ser -->
<g id="node17" class="node"><title>ser</title>
<ellipse fill="#bbffbb" stroke="black" cx="165" cy="-264" rx="54.3924" ry="18"/>
<text text-anchor="middle" x="165" y="-260.3" font-family="Times,serif" font-size="14.00">Serialisation</text>
</g>
<!-- tl&#45;&gt;ser -->
<g id="edge10" class="edge"><title>tl&#45;&gt;ser</title>
<path fill="none" stroke="#222222" d="M399.73,-334.161C390.752,-331.715 381.66,-329.272 373,-327 308.773,-310.148 291.085,-311.722 228,-291 217.433,-287.529 206.132,-283.101 196.061,-278.888"/>
<polygon fill="#222222" stroke="#222222" points="398.83,-337.543 409.399,-336.808 400.679,-330.792 398.83,-337.543"/>
</g>
<!-- workq -->
<g id="node18" class="node"><title>workq</title>
<ellipse fill="#bbffbb" stroke="black" cx="299" cy="-264" rx="61.2774" ry="26.7407"/>
<text text-anchor="middle" x="299" y="-267.8" font-family="Times,serif" font-size="14.00">Work Queue</text>
<text text-anchor="middle" x="299" y="-252.8" font-family="Times,serif" font-size="14.00">interface</text>
</g>
<!-- tl&#45;&gt;workq -->
<g id="edge9" class="edge"><title>tl&#45;&gt;workq</title>
<path fill="none" stroke="#222222" d="M416.773,-326.691C391.325,-313.36 360.914,-297.431 337.37,-285.098"/>
<polygon fill="#222222" stroke="#222222" points="415.42,-329.933 425.903,-331.473 418.668,-323.732 415.42,-329.933"/>
</g>
<!-- postgres -->
<g id="node21" class="node"><title>postgres</title>
<ellipse fill="#ffbbbb" stroke="black" cx="300" cy="-62" rx="58.5343" ry="37.4533"/>
<text text-anchor="middle" x="300" y="-73.3" font-family="Times,serif" font-size="14.00">Slick</text>
<text text-anchor="middle" x="300" y="-58.3" font-family="Times,serif" font-size="14.00">BoneCP</text>
<text text-anchor="middle" x="300" y="-43.3" font-family="Times,serif" font-size="14.00">PostgreSQL</text>
</g>
<!-- _dbv&#45;&gt;postgres -->
<g id="edge26" class="edge"><title>_dbv&#45;&gt;postgres</title>
<path fill="none" stroke="#222222" d="M513.505,-145.315C506.764,-142.116 499.694,-138.871 493,-136 449.143,-117.19 398.669,-98.1894 360.341,-84.2899"/>
<polygon fill="#222222" stroke="#222222" points="361.464,-80.9743 350.87,-80.8693 359.086,-87.5581 361.464,-80.9743"/>
</g>
<!-- http -->
<g id="node13" class="node"><title>http</title>
<ellipse fill="#ffbbbb" stroke="black" cx="716" cy="-62" rx="79.2942" ry="26.7407"/>
<text text-anchor="middle" x="716" y="-65.8" font-family="Times,serif" font-size="14.00">HTTP/WS/REST</text>
<text text-anchor="middle" x="716" y="-50.8" font-family="Times,serif" font-size="14.00">client</text>
</g>
<!-- _mc&#45;&gt;http -->
<g id="edge23" class="edge"><title>_mc&#45;&gt;http</title>
<path fill="none" stroke="#222222" d="M761.607,-137.018C754.209,-125.011 745.223,-110.428 737.191,-97.3915"/>
<polygon fill="#222222" stroke="#222222" points="740.039,-95.3416 731.813,-88.664 734.079,-99.0137 740.039,-95.3416"/>
</g>
<!-- _crm&#45;&gt;http -->
<g id="edge24" class="edge"><title>_crm&#45;&gt;http</title>
<path fill="none" stroke="#222222" d="M670.831,-137.528C678.162,-125.432 687.133,-110.63 695.143,-97.4145"/>
<polygon fill="#222222" stroke="#222222" points="698.312,-98.9374 700.502,-88.5714 692.326,-95.3093 698.312,-98.9374"/>
</g>
<!-- bla -->
<g id="node14" class="node"><title>bla</title>
<ellipse fill="#bbbbff" stroke="black" cx="275" cy="-447" rx="85.3397" ry="26.7407"/>
<text text-anchor="middle" x="275" y="-450.8" font-family="Times,serif" font-size="14.00">Business logic API</text>
<text text-anchor="middle" x="275" y="-435.8" font-family="Times,serif" font-size="14.00">(event/job defns)</text>
</g>
<!-- bla&#45;&gt;bl -->
<g id="edge19" class="edge"><title>bla&#45;&gt;bl</title>
<path fill="none" stroke="#222222" d="M357.943,-440.744C425.986,-435.516 516.377,-426.205 550,-412 568.088,-404.358 585.339,-390.712 598.306,-378.688"/>
<polygon fill="#222222" stroke="#222222" points="601.019,-380.935 605.796,-371.479 596.164,-375.892 601.019,-380.935"/>
</g>
<!-- tla -->
<g id="node15" class="node"><title>tla</title>
<ellipse fill="#bbbbff" stroke="black" cx="98" cy="-447" rx="73.3085" ry="26.7407"/>
<text text-anchor="middle" x="98" y="-450.8" font-family="Times,serif" font-size="14.00">Taskman</text>
<text text-anchor="middle" x="98" y="-435.8" font-family="Times,serif" font-size="14.00">submission API</text>
</g>
<!-- tla&#45;&gt;bl -->
<g id="edge18" class="edge"><title>tla&#45;&gt;bl</title>
<path fill="none" stroke="#222222" d="M148.627,-427.477C158.882,-424.429 169.687,-421.71 180,-420 220.567,-413.273 511.359,-426.063 550,-412 568.874,-405.131 586.503,-391.039 599.474,-378.586"/>
<polygon fill="#222222" stroke="#222222" points="601.952,-381.057 606.546,-371.51 597.001,-376.108 601.952,-381.057"/>
</g>
<!-- tla&#45;&gt;bla -->
<g id="edge17" class="edge"><title>tla&#45;&gt;bla</title>
<path fill="none" stroke="#222222" d="M171.289,-447C173.948,-447 176.606,-447 179.265,-447"/>
<polygon fill="#222222" stroke="#222222" points="179.52,-450.5 189.52,-447 179.519,-443.5 179.52,-450.5"/>
</g>
<!-- tsl -->
<g id="node16" class="node"><title>tsl</title>
<ellipse fill="#bbffbb" stroke="black" cx="165" cy="-354" rx="77.112" ry="26.7407"/>
<text text-anchor="middle" x="165" y="-357.8" font-family="Times,serif" font-size="14.00">Taskman</text>
<text text-anchor="middle" x="165" y="-342.8" font-family="Times,serif" font-size="14.00">submission logic</text>
</g>
<!-- tla&#45;&gt;tsl -->
<g id="edge20" class="edge"><title>tla&#45;&gt;tsl</title>
<path fill="none" stroke="#222222" d="M116.663,-420.651C123.996,-410.692 132.517,-399.119 140.344,-388.488"/>
<polygon fill="#222222" stroke="#222222" points="143.326,-390.341 146.437,-380.213 137.689,-386.19 143.326,-390.341"/>
</g>
<!-- tsl&#45;&gt;ser -->
<g id="edge21" class="edge"><title>tsl&#45;&gt;ser</title>
<path fill="none" stroke="#222222" d="M165,-316.823C165,-304.818 165,-292.01 165,-282.13"/>
<polygon fill="#222222" stroke="#222222" points="161.5,-317.073 165,-327.073 168.5,-317.073 161.5,-317.073"/>
</g>
<!-- tsl&#45;&gt;workq -->
<g id="edge22" class="edge"><title>tsl&#45;&gt;workq</title>
<path fill="none" stroke="#222222" d="M208.798,-324.237C227.365,-312.044 248.645,-298.069 265.871,-286.756"/>
<polygon fill="#222222" stroke="#222222" points="206.644,-321.464 200.207,-329.879 210.487,-327.315 206.644,-321.464"/>
</g>
<!-- json4s -->
<g id="node20" class="node"><title>json4s</title>
<ellipse fill="#ffbbbb" stroke="black" cx="186" cy="-163" rx="33.2209" ry="18"/>
<text text-anchor="middle" x="186" y="-159.3" font-family="Times,serif" font-size="14.00">json4s</text>
</g>
<!-- ser&#45;&gt;json4s -->
<g id="edge6" class="edge"><title>ser&#45;&gt;json4s</title>
<path fill="none" stroke="#222222" d="M168.658,-245.756C171.85,-230.708 176.536,-208.616 180.232,-191.19"/>
<polygon fill="#222222" stroke="#222222" points="183.733,-191.556 182.384,-181.047 176.885,-190.103 183.733,-191.556"/>
</g>
<!-- _workq -->
<g id="node19" class="node"><title>_workq</title>
<ellipse fill="#ffbbbb" stroke="black" cx="299" cy="-163" rx="61.2774" ry="26.7407"/>
<text text-anchor="middle" x="299" y="-166.8" font-family="Times,serif" font-size="14.00">Work Queue</text>
<text text-anchor="middle" x="299" y="-151.8" font-family="Times,serif" font-size="14.00">DB objects</text>
</g>
<!-- workq&#45;&gt;_workq -->
<g id="edge2" class="edge"><title>workq&#45;&gt;_workq</title>
<path fill="none" stroke="#222222" d="M299,-236.989C299,-225.823 299,-212.581 299,-200.462"/>
<polygon fill="#222222" stroke="#222222" points="302.5,-200.181 299,-190.181 295.5,-200.181 302.5,-200.181"/>
</g>
<!-- _workq&#45;&gt;postgres -->
<g id="edge25" class="edge"><title>_workq&#45;&gt;postgres</title>
<path fill="none" stroke="#222222" d="M299.263,-135.989C299.344,-127.914 299.437,-118.753 299.528,-109.716"/>
<polygon fill="#222222" stroke="#222222" points="303.029,-109.666 299.63,-99.631 296.029,-109.595 303.029,-109.666"/>
</g>
</g>
</svg>
