<?xml version="1.0" encoding="UTF-8" standalone="no"?>
<!DOCTYPE svg PUBLIC "-//W3C//DTD SVG 1.1//EN"
 "http://www.w3.org/Graphics/SVG/1.1/DTD/svg11.dtd">
<!-- Generated by graphviz version 2.38.0 (20140413.2041)
 -->
<!-- Title: G Pages: 1 -->
<svg width="1274pt" height="1164pt"
 viewBox="0.00 0.00 1273.72 1164.28" xmlns="http://www.w3.org/2000/svg" xmlns:xlink="http://www.w3.org/1999/xlink">
<g id="graph0" class="graph" transform="scale(1 1) rotate(0) translate(4 1160.28)">
<title>G</title>
<polygon fill="white" stroke="none" points="-4,4 -4,-1160.28 1269.72,-1160.28 1269.72,4 -4,4"/>
<!-- UseCaseId -->
<g id="node1" class="node"><title>UseCaseId</title>
<ellipse fill="#ffddff" stroke="black" cx="461.362" cy="-540.132" rx="48.9926" ry="18"/>
<text text-anchor="middle" x="461.362" y="-536.432" font-family="Times,serif" font-size="14.00">UseCaseId</text>
</g>
<!-- ReqId -->
<g id="node2" class="node"><title>ReqId</title>
<ellipse fill="#ffddff" stroke="black" cx="599.362" cy="-352.581" rx="32.4942" ry="18"/>
<text text-anchor="middle" x="599.362" y="-348.881" font-family="Times,serif" font-size="14.00">ReqId</text>
</g>
<!-- UseCaseId&#45;&gt;ReqId -->
<g id="edge1" class="edge"><title>UseCaseId&#45;&gt;ReqId</title>
<path fill="none" stroke="red" stroke-dasharray="5,2" d="M473.609,-522.666C498.078,-489.765 553.1,-415.784 581.559,-377.518"/>
<polygon fill="none" stroke="red" points="584.377,-379.595 587.536,-369.482 578.76,-375.418 584.377,-379.595"/>
</g>
<!-- ReqOrSubReqId -->
<g id="node3" class="node"><title>ReqOrSubReqId</title>
<ellipse fill="#ffddff" stroke="black" cx="811.362" cy="-18" rx="69.5877" ry="18"/>
<text text-anchor="middle" x="811.362" y="-14.3" font-family="Times,serif" font-size="14.00">ReqOrSubReqId</text>
</g>
<!-- ReqId&#45;&gt;ReqOrSubReqId -->
<g id="edge2" class="edge"><title>ReqId&#45;&gt;ReqOrSubReqId</title>
<path fill="none" stroke="red" stroke-dasharray="5,2" d="M627.46,-343.232C679.213,-325.925 784.362,-280.926 784.362,-201 784.362,-201 784.362,-201 784.362,-90 784.362,-74.4469 790.093,-58.1553 796.274,-45.1066"/>
<polygon fill="none" stroke="red" points="799.581,-46.3255 801.001,-35.8262 793.343,-43.1484 799.581,-46.3255"/>
</g>
<!-- UseCaseStepId -->
<g id="node4" class="node"><title>UseCaseStepId</title>
<ellipse fill="#ffddff" stroke="black" cx="895.362" cy="-164" rx="64.189" ry="18"/>
<text text-anchor="middle" x="895.362" y="-160.3" font-family="Times,serif" font-size="14.00">UseCaseStepId</text>
</g>
<!-- SubReqId -->
<g id="node5" class="node"><title>SubReqId</title>
<ellipse fill="#ffddff" stroke="black" cx="868.362" cy="-91" rx="46.2923" ry="18"/>
<text text-anchor="middle" x="868.362" y="-87.3" font-family="Times,serif" font-size="14.00">SubReqId</text>
</g>
<!-- UseCaseStepId&#45;&gt;SubReqId -->
<g id="edge3" class="edge"><title>UseCaseStepId&#45;&gt;SubReqId</title>
<path fill="none" stroke="red" stroke-dasharray="5,2" d="M888.827,-145.813C885.709,-137.615 881.909,-127.623 878.434,-118.485"/>
<polygon fill="none" stroke="red" points="881.664,-117.132 874.838,-109.029 875.121,-119.62 881.664,-117.132"/>
</g>
<!-- SubReqId&#45;&gt;ReqOrSubReqId -->
<g id="edge4" class="edge"><title>SubReqId&#45;&gt;ReqOrSubReqId</title>
<path fill="none" stroke="red" stroke-dasharray="5,2" d="M855.142,-73.5327C848.051,-64.6996 839.168,-53.6345 831.26,-43.7841"/>
<polygon fill="none" stroke="red" points="833.896,-41.4779 824.907,-35.871 828.438,-45.8601 833.896,-41.4779"/>
</g>
<!-- UseCase -->
<g id="node6" class="node"><title>UseCase</title>
<ellipse fill="none" stroke="black" cx="175.362" cy="-720.533" rx="175.225" ry="91.4341"/>
<text text-anchor="middle" x="175.362" y="-769.833" font-family="monospace" font-size="14.00">UseCase</text>
<text text-anchor="start" x="59.3625" y="-738.833" font-family="monospace" font-size="14.00">id &#160;&#160;&#160;&#160;&#160;&#160;&#160;&#160;&#160;&#160;&#160;: UseCaseId</text>
<text text-anchor="start" x="59.3625" y="-723.833" font-family="monospace" font-size="14.00">pos &#160;&#160;&#160;&#160;&#160;&#160;&#160;&#160;&#160;&#160;: ReqTypePos</text>
<text text-anchor="start" x="59.3625" y="-708.833" font-family="monospace" font-size="14.00">title &#160;&#160;&#160;&#160;&#160;&#160;&#160;&#160;: OptionalText</text>
<text text-anchor="start" x="59.3625" y="-693.833" font-family="monospace" font-size="14.00">stepsNA &#160;&#160;&#160;&#160;&#160;&#160;: UseCaseSteps</text>
<text text-anchor="start" x="59.3625" y="-678.833" font-family="monospace" font-size="14.00">stepsE &#160;&#160;&#160;&#160;&#160;&#160;&#160;: UseCaseSteps</text>
<text text-anchor="start" x="59.3625" y="-663.833" font-family="monospace" font-size="14.00">liveExplicitly: Live</text>
</g>
<!-- UseCase&#45;&gt;UseCaseId -->
<g id="edge5" class="edge"><title>UseCase&#45;&gt;UseCaseId</title>
<path fill="none" stroke="blue" d="M289.469,-643.559C314.001,-627.671 339.906,-611.226 364.362,-596.316 388.019,-581.894 415.513,-566.365 435.176,-555.466"/>
<ellipse fill="blue" stroke="blue" cx="285.944" cy="-645.846" rx="4.00002" ry="4.00002"/>
</g>
<!-- UseCaseSteps -->
<g id="node9" class="node"><title>UseCaseSteps</title>
<ellipse fill="none" stroke="black" cx="226.362" cy="-540.132" rx="145.828" ry="38.3684"/>
<text text-anchor="middle" x="226.362" y="-551.932" font-family="monospace" font-size="14.00">UseCaseSteps</text>
<text text-anchor="middle" x="226.362" y="-520.932" font-family="monospace" font-size="14.00">tree: UseCaseSteps.Tree</text>
</g>
<!-- UseCase&#45;&gt;UseCaseSteps -->
<g id="edge6" class="edge"><title>UseCase&#45;&gt;UseCaseSteps</title>
<path fill="none" stroke="blue" d="M169.672,-621.303C171.108,-612.696 173.266,-604.25 176.362,-596.316 178.995,-589.572 182.868,-583.137 187.314,-577.2"/>
<ellipse fill="blue" stroke="blue" cx="169.11" cy="-625.283" rx="4.00001" ry="4.00001"/>
<text text-anchor="middle" x="190.362" y="-600.116" font-family="Times,serif" font-size="14.00">N+A</text>
</g>
<!-- UseCase&#45;&gt;UseCaseSteps -->
<g id="edge7" class="edge"><title>UseCase&#45;&gt;UseCaseSteps</title>
<path fill="none" stroke="blue" d="M203.136,-622.378C207.606,-606.744 211.981,-591.438 215.708,-578.402"/>
<ellipse fill="blue" stroke="blue" cx="202.037" cy="-626.225" rx="4.00001" ry="4.00001"/>
<text text-anchor="middle" x="214.862" y="-600.116" font-family="Times,serif" font-size="14.00">E</text>
</g>
<!-- UseCases -->
<g id="node7" class="node"><title>UseCases</title>
<ellipse fill="none" stroke="black" cx="805.362" cy="-1096.88" rx="181.039" ry="59.2941"/>
<text text-anchor="middle" x="805.362" y="-1123.68" font-family="monospace" font-size="14.00">UseCases</text>
<text text-anchor="start" x="685.362" y="-1092.68" font-family="monospace" font-size="14.00">imap &#160;&#160;&#160;&#160;: UseCaseIMap</text>
<text text-anchor="start" x="685.362" y="-1077.68" font-family="monospace" font-size="14.00">stepIndex: UseCases.StepIndex</text>
<text text-anchor="start" x="685.362" y="-1062.68" font-family="monospace" font-size="14.00">stepFlow : UseCases.StepFlow</text>
</g>
<!-- UseCaseIMap -->
<g id="node10" class="node"><title>UseCaseIMap</title>
<ellipse fill="none" stroke="black" cx="378.362" cy="-962.301" rx="152.056" ry="38.3684"/>
<text text-anchor="middle" x="378.362" y="-974.101" font-family="monospace" font-size="14.00">UseCaseIMap</text>
<text text-anchor="middle" x="378.362" y="-943.101" font-family="monospace" font-size="14.00">IMap[UseCaseId, UseCase]</text>
</g>
<!-- UseCases&#45;&gt;UseCaseIMap -->
<g id="edge11" class="edge"><title>UseCases&#45;&gt;UseCaseIMap</title>
<path fill="none" stroke="blue" d="M667.488,-1053.07C603.662,-1033.25 529.479,-1010.22 472.237,-992.448"/>
<ellipse fill="blue" stroke="blue" cx="671.399" cy="-1054.29" rx="4.00001" ry="4.00001"/>
</g>
<!-- UseCasesStepIndex -->
<g id="node12" class="node"><title>UseCasesStepIndex</title>
<ellipse fill="none" stroke="black" cx="805.362" cy="-962.301" rx="192.166" ry="38.3684"/>
<text text-anchor="middle" x="805.362" y="-974.101" font-family="monospace" font-size="14.00">UseCases.StepIndex</text>
<text text-anchor="middle" x="805.362" y="-943.101" font-family="monospace" font-size="14.00">Map[UseCaseStepId, StepTreeKey]</text>
</g>
<!-- UseCases&#45;&gt;UseCasesStepIndex -->
<g id="edge12" class="edge"><title>UseCases&#45;&gt;UseCasesStepIndex</title>
<path fill="none" stroke="blue" d="M805.362,-1029.11C805.362,-1019.3 805.362,-1009.5 805.362,-1000.57"/>
<ellipse fill="blue" stroke="blue" cx="805.363" cy="-1033.34" rx="4" ry="4"/>
</g>
<!-- UseCasesStepFlow -->
<g id="node13" class="node"><title>UseCasesStepFlow</title>
<ellipse fill="none" stroke="black" cx="1090.36" cy="-867.933" rx="175.225" ry="38.3684"/>
<text text-anchor="middle" x="1090.36" y="-879.733" font-family="monospace" font-size="14.00">UseCases.StepFlow</text>
<text text-anchor="middle" x="1090.36" y="-848.733" font-family="monospace" font-size="14.00">Digraph.BiDir[UseCaseStepId]</text>
</g>
<!-- UseCases&#45;&gt;UseCasesStepFlow -->
<g id="edge13" class="edge"><title>UseCases&#45;&gt;UseCasesStepFlow</title>
<path fill="none" stroke="blue" d="M932.663,-1048.72C958.742,-1035.55 984.783,-1019.52 1006.36,-1000.48 1036.13,-974.224 1059.34,-934.938 1073.75,-906.134"/>
<ellipse fill="blue" stroke="blue" cx="928.895" cy="-1050.59" rx="4.00002" ry="4.00002"/>
</g>
<!-- UseCaseStep -->
<g id="node8" class="node"><title>UseCaseStep</title>
<ellipse fill="none" stroke="black" cx="503.362" cy="-267.79" rx="128.887" ry="48.5816"/>
<text text-anchor="middle" x="503.362" y="-287.09" font-family="monospace" font-size="14.00">UseCaseStep</text>
<text text-anchor="start" x="420.362" y="-256.09" font-family="monospace" font-size="14.00">id &#160;&#160;: UseCaseStepId</text>
<text text-anchor="start" x="420.362" y="-241.09" font-family="monospace" font-size="14.00">title: OptionalText</text>
</g>
<!-- UseCaseStep&#45;&gt;UseCaseStepId -->
<g id="edge10" class="edge"><title>UseCaseStep&#45;&gt;UseCaseStepId</title>
<path fill="none" stroke="blue" d="M616.342,-237.453C694.077,-217.268 793.185,-191.532 849.939,-176.795"/>
<ellipse fill="blue" stroke="blue" cx="612.283" cy="-238.507" rx="4.00001" ry="4.00001"/>
</g>
<!-- UseCaseStepsTree -->
<g id="node11" class="node"><title>UseCaseStepsTree</title>
<ellipse fill="none" stroke="black" cx="277.362" cy="-426.765" rx="145.828" ry="38.3684"/>
<text text-anchor="middle" x="277.362" y="-438.565" font-family="monospace" font-size="14.00">UseCaseSteps.Tree</text>
<text text-anchor="middle" x="277.362" y="-407.565" font-family="monospace" font-size="14.00">VectorTree[UseCaseStep]</text>
</g>
<!-- UseCaseSteps&#45;&gt;UseCaseStepsTree -->
<g id="edge8" class="edge"><title>UseCaseSteps&#45;&gt;UseCaseStepsTree</title>
<path fill="none" stroke="blue" d="M246.727,-494.662C251.22,-484.852 255.934,-474.558 260.28,-465.066"/>
<ellipse fill="blue" stroke="blue" cx="245.01" cy="-498.411" rx="4.00002" ry="4.00002"/>
</g>
<!-- UseCaseIMap&#45;&gt;UseCaseId -->
<g id="edge15" class="edge"><title>UseCaseIMap&#45;&gt;UseCaseId</title>
<path fill="none" stroke="blue" d="M373.099,-916.044C367.214,-850.635 362.595,-726.831 397.362,-629.316 407.463,-600.985 429.706,-573.829 445.111,-557.317"/>
<ellipse fill="blue" stroke="blue" cx="373.483" cy="-920.128" rx="4" ry="4"/>
</g>
<!-- UseCaseIMap&#45;&gt;UseCase -->
<g id="edge14" class="edge"><title>UseCaseIMap&#45;&gt;UseCase</title>
<path fill="none" stroke="blue" d="M342.316,-918.726C315.512,-887.067 278.088,-842.864 245.465,-804.332"/>
<ellipse fill="blue" stroke="blue" cx="344.946" cy="-921.832" rx="4.00002" ry="4.00002"/>
</g>
<!-- UseCaseStepsTree&#45;&gt;UseCaseStep -->
<g id="edge9" class="edge"><title>UseCaseStepsTree&#45;&gt;UseCaseStep</title>
<path fill="none" stroke="blue" d="M334.704,-385.936C367.685,-363.028 409.098,-334.264 442.633,-310.971"/>
<ellipse fill="blue" stroke="blue" cx="331.085" cy="-388.45" rx="4.00002" ry="4.00002"/>
</g>
<!-- UseCasesStepIndex&#45;&gt;UseCaseStepId -->
<g id="edge16" class="edge"><title>UseCasesStepIndex&#45;&gt;UseCaseStepId</title>
<path fill="none" stroke="blue" d="M834.538,-917.139C862.461,-870.531 900.362,-793.933 900.362,-721.533 900.362,-721.533 900.362,-721.533 900.362,-266.79 900.362,-237.066 898.209,-202.517 896.729,-182.278"/>
<ellipse fill="blue" stroke="blue" cx="832.4" cy="-920.656" rx="4.00002" ry="4.00002"/>
</g>
<!-- StepTreeKey -->
<g id="node14" class="node"><title>StepTreeKey</title>
<ellipse fill="none" stroke="black" cx="639.362" cy="-720.533" rx="233.191" ry="48.5816"/>
<text text-anchor="middle" x="639.362" y="-739.833" font-family="monospace" font-size="14.00">UseCases.StepTreeKey</text>
<text text-anchor="start" x="482.362" y="-708.833" font-family="monospace" font-size="14.00">useCaseId: UseCaseId</text>
<text text-anchor="start" x="482.362" y="-693.833" font-family="monospace" font-size="14.00">field &#160;&#160;&#160;: StaticField.UseCaseStepTree</text>
</g>
<!-- UseCasesStepIndex&#45;&gt;StepTreeKey -->
<g id="edge17" class="edge"><title>UseCasesStepIndex&#45;&gt;StepTreeKey</title>
<path fill="none" stroke="blue" d="M775.081,-917.563C746.049,-875.629 702.332,-812.485 672.409,-769.265"/>
<ellipse fill="blue" stroke="blue" cx="777.512" cy="-921.074" rx="4.00002" ry="4.00002"/>
</g>
<!-- UseCasesStepFlow&#45;&gt;UseCaseStepId -->
<g id="edge18" class="edge"><title>UseCasesStepFlow&#45;&gt;UseCaseStepId</title>
<path fill="none" stroke="blue" d="M1068.97,-822.107C1046.49,-770.807 1014.36,-683.683 1014.36,-604.816 1014.36,-604.816 1014.36,-604.816 1014.36,-266.79 1014.36,-223.156 967.587,-194.224 932.688,-178.711"/>
<ellipse fill="blue" stroke="blue" cx="1070.73" cy="-826.062" rx="4.00002" ry="4.00002"/>
</g>
<!-- StepTreeKey&#45;&gt;UseCaseId -->
<g id="edge19" class="edge"><title>StepTreeKey&#45;&gt;UseCaseId</title>
<path fill="none" stroke="blue" d="M586.723,-666.774C549.554,-629.522 502.168,-582.029 477.67,-557.477"/>
<ellipse fill="blue" stroke="blue" cx="589.77" cy="-669.828" rx="4.00002" ry="4.00002"/>
</g>
</g>
</svg>
