<?xml version="1.0" encoding="UTF-8" standalone="no"?>
<!DOCTYPE svg PUBLIC "-//W3C//DTD SVG 1.1//EN"
 "http://www.w3.org/Graphics/SVG/1.1/DTD/svg11.dtd">
<!-- Generated by graphviz version 2.38.0 (20140413.2041)
 -->
<!-- Title: G Pages: 1 -->
<svg width="1174pt" height="1242pt"
 viewBox="0.00 0.00 1173.76 1242.29" xmlns="http://www.w3.org/2000/svg" xmlns:xlink="http://www.w3.org/1999/xlink">
<g id="graph0" class="graph" transform="scale(1 1) rotate(0) translate(4 1238.29)">
<title>G</title>
<polygon fill="white" stroke="none" points="-4,4 -4,-1238.29 1169.76,-1238.29 1169.76,4 -4,4"/>
<!-- UseCaseId -->
<g id="node1" class="node"><title>UseCaseId</title>
<ellipse fill="#ffddff" stroke="black" cx="195.25" cy="-666.935" rx="48.9926" ry="18"/>
<text text-anchor="middle" x="195.25" y="-663.235" font-family="Times,serif" font-size="14.00">UseCaseId</text>
</g>
<!-- ReqId -->
<g id="node2" class="node"><title>ReqId</title>
<ellipse fill="#ffddff" stroke="black" cx="288.25" cy="-464.534" rx="32.4942" ry="18"/>
<text text-anchor="middle" x="288.25" y="-460.834" font-family="Times,serif" font-size="14.00">ReqId</text>
</g>
<!-- UseCaseId&#45;&gt;ReqId -->
<g id="edge1" class="edge"><title>UseCaseId&#45;&gt;ReqId</title>
<path fill="none" stroke="red" stroke-dasharray="5,2" d="M203.179,-648.849C219.486,-613.71 256.87,-533.153 276.193,-491.515"/>
<polygon fill="none" stroke="red" points="279.437,-492.838 280.472,-482.294 273.088,-489.892 279.437,-492.838"/>
</g>
<!-- ReqOrSubReqId -->
<g id="node3" class="node"><title>ReqOrSubReqId</title>
<ellipse fill="#ffddff" stroke="black" cx="451.25" cy="-18" rx="69.5877" ry="18"/>
<text text-anchor="middle" x="451.25" y="-14.3" font-family="Times,serif" font-size="14.00">ReqOrSubReqId</text>
</g>
<!-- ReqId&#45;&gt;ReqOrSubReqId -->
<g id="edge2" class="edge"><title>ReqId&#45;&gt;ReqOrSubReqId</title>
<path fill="none" stroke="red" stroke-dasharray="5,2" d="M313.343,-452.788C349.576,-435.383 412.25,-397.369 412.25,-342.652 412.25,-342.652 412.25,-342.652 412.25,-90 412.25,-73.3171 420.624,-56.8501 429.611,-43.981"/>
<polygon fill="none" stroke="red" points="432.632,-45.7869 435.836,-35.6881 427.034,-41.5847 432.632,-45.7869"/>
</g>
<!-- UseCaseStepId -->
<g id="node4" class="node"><title>UseCaseStepId</title>
<ellipse fill="#ffddff" stroke="black" cx="774.25" cy="-164" rx="64.189" ry="18"/>
<text text-anchor="middle" x="774.25" y="-160.3" font-family="Times,serif" font-size="14.00">UseCaseStepId</text>
</g>
<!-- SubReqId -->
<g id="node5" class="node"><title>SubReqId</title>
<ellipse fill="#ffddff" stroke="black" cx="544.25" cy="-91" rx="46.2923" ry="18"/>
<text text-anchor="middle" x="544.25" y="-87.3" font-family="Times,serif" font-size="14.00">SubReqId</text>
</g>
<!-- UseCaseStepId&#45;&gt;SubReqId -->
<g id="edge3" class="edge"><title>UseCaseStepId&#45;&gt;SubReqId</title>
<path fill="none" stroke="red" stroke-dasharray="5,2" d="M732.599,-150.142C691.971,-137.601 630.382,-118.589 588.794,-105.751"/>
<polygon fill="none" stroke="red" points="589.786,-102.394 579.199,-102.788 587.721,-109.082 589.786,-102.394"/>
</g>
<!-- SubReqId&#45;&gt;ReqOrSubReqId -->
<g id="edge4" class="edge"><title>SubReqId&#45;&gt;ReqOrSubReqId</title>
<path fill="none" stroke="red" stroke-dasharray="5,2" d="M524.07,-74.5941C511.388,-64.9116 494.81,-52.2554 480.676,-41.4651"/>
<polygon fill="none" stroke="red" points="482.757,-38.6503 472.684,-35.364 478.509,-44.2142 482.757,-38.6503"/>
</g>
<!-- UseCase -->
<g id="node6" class="node"><title>UseCase</title>
<ellipse fill="none" stroke="black" cx="195.25" cy="-840.971" rx="160.526" ry="79.8062"/>
<text text-anchor="middle" x="195.25" y="-883.871" font-family="monospace" font-size="12.00">UseCase</text>
<text text-anchor="start" x="89.7498" y="-856.871" font-family="monospace" font-size="12.00">id &#160;&#160;&#160;&#160;&#160;&#160;&#160;&#160;&#160;&#160;&#160;: UseCaseId</text>
<text text-anchor="start" x="89.7498" y="-843.871" font-family="monospace" font-size="12.00">pos &#160;&#160;&#160;&#160;&#160;&#160;&#160;&#160;&#160;&#160;: ReqTypePos</text>
<text text-anchor="start" x="89.7498" y="-830.871" font-family="monospace" font-size="12.00">title &#160;&#160;&#160;&#160;&#160;&#160;&#160;&#160;: OptionalText</text>
<text text-anchor="start" x="89.7498" y="-817.871" font-family="monospace" font-size="12.00">stepsNA &#160;&#160;&#160;&#160;&#160;&#160;: UseCaseSteps</text>
<text text-anchor="start" x="89.7498" y="-804.871" font-family="monospace" font-size="12.00">stepsE &#160;&#160;&#160;&#160;&#160;&#160;&#160;: UseCaseSteps</text>
<text text-anchor="start" x="89.7498" y="-791.871" font-family="monospace" font-size="12.00">liveExplicitly: Live</text>
</g>
<!-- UseCase&#45;&gt;UseCaseId -->
<g id="edge5" class="edge"><title>UseCase&#45;&gt;UseCaseId</title>
<path fill="none" stroke="blue" d="M195.25,-752.986C195.25,-727.134 195.25,-701.398 195.25,-685.121"/>
<ellipse fill="blue" stroke="blue" cx="195.25" cy="-757.002" rx="4" ry="4"/>
</g>
<!-- UseCaseSteps -->
<g id="node9" class="node"><title>UseCaseSteps</title>
<ellipse fill="none" stroke="black" cx="497.25" cy="-666.935" rx="234.519" ry="43.2674"/>
<text text-anchor="middle" x="497.25" y="-683.835" font-family="monospace" font-size="12.00">UseCaseSteps</text>
<text text-anchor="start" x="339.25" y="-656.835" font-family="monospace" font-size="12.00">tree : UseCaseSteps.Tree</text>
<text text-anchor="start" x="339.25" y="-643.835" font-family="monospace" font-size="12.00">steps: Map[UseCaseStepId, UseCaseStepLocs]</text>
</g>
<!-- UseCase&#45;&gt;UseCaseSteps -->
<g id="edge6" class="edge"><title>UseCase&#45;&gt;UseCaseSteps</title>
<path fill="none" stroke="blue" d="M299.202,-772.94C323.856,-757.716 350.258,-741.952 375.25,-728.068 387.738,-721.13 401.138,-714.113 414.321,-707.442"/>
<ellipse fill="blue" stroke="blue" cx="295.698" cy="-775.111" rx="4.00002" ry="4.00002"/>
<text text-anchor="middle" x="389.25" y="-731.868" font-family="Times,serif" font-size="14.00">N+A</text>
</g>
<!-- UseCase&#45;&gt;UseCaseSteps -->
<g id="edge7" class="edge"><title>UseCase&#45;&gt;UseCaseSteps</title>
<path fill="none" stroke="blue" d="M319.044,-782.098C334.265,-775.004 349.611,-767.864 364.25,-761.068 381.566,-753.03 387.008,-753.101 403.25,-743.068 419.247,-733.186 435.614,-720.967 450.113,-709.274"/>
<ellipse fill="blue" stroke="blue" cx="315.211" cy="-783.885" rx="4.00002" ry="4.00002"/>
<text text-anchor="middle" x="429.75" y="-731.868" font-family="Times,serif" font-size="14.00">E</text>
</g>
<!-- UseCases -->
<g id="node7" class="node"><title>UseCases</title>
<ellipse fill="none" stroke="black" cx="667.25" cy="-1181.96" rx="165.426" ry="52.1524"/>
<text text-anchor="middle" x="667.25" y="-1205.36" font-family="monospace" font-size="12.00">UseCases</text>
<text text-anchor="start" x="558.25" y="-1178.36" font-family="monospace" font-size="12.00">imap &#160;&#160;&#160;&#160;: UseCaseIMap</text>
<text text-anchor="start" x="558.25" y="-1165.36" font-family="monospace" font-size="12.00">stepIndex: UseCases.StepIndex</text>
<text text-anchor="start" x="558.25" y="-1152.36" font-family="monospace" font-size="12.00">stepFlow : UseCases.StepFlow</text>
</g>
<!-- UseCaseIMap -->
<g id="node10" class="node"><title>UseCaseIMap</title>
<ellipse fill="none" stroke="black" cx="195.25" cy="-1058.7" rx="139.1" ry="33.8824"/>
<text text-anchor="middle" x="195.25" y="-1069.1" font-family="monospace" font-size="12.00">UseCaseIMap</text>
<text text-anchor="middle" x="195.25" y="-1042.1" font-family="monospace" font-size="12.00">IMap[UseCaseId, UseCase]</text>
</g>
<!-- UseCases&#45;&gt;UseCaseIMap -->
<g id="edge12" class="edge"><title>UseCases&#45;&gt;UseCaseIMap</title>
<path fill="none" stroke="blue" d="M532.201,-1146.27C454.49,-1126.3 358.785,-1101.71 289.255,-1083.85"/>
<ellipse fill="blue" stroke="blue" cx="536.267" cy="-1147.31" rx="4.00001" ry="4.00001"/>
</g>
<!-- UseCasesStepIndex -->
<g id="node13" class="node"><title>UseCasesStepIndex</title>
<ellipse fill="none" stroke="black" cx="667.25" cy="-1058.7" rx="176.139" ry="33.8824"/>
<text text-anchor="middle" x="667.25" y="-1069.1" font-family="monospace" font-size="12.00">UseCases.StepIndex</text>
<text text-anchor="middle" x="667.25" y="-1042.1" font-family="monospace" font-size="12.00">Map[UseCaseStepId, StepTreeKey]</text>
</g>
<!-- UseCases&#45;&gt;UseCasesStepIndex -->
<g id="edge13" class="edge"><title>UseCases&#45;&gt;UseCasesStepIndex</title>
<path fill="none" stroke="blue" d="M667.25,-1121.35C667.25,-1111.57 667.25,-1101.75 667.25,-1092.91"/>
<ellipse fill="blue" stroke="blue" cx="667.25" cy="-1125.54" rx="4" ry="4"/>
</g>
<!-- UseCasesStepFlow -->
<g id="node14" class="node"><title>UseCasesStepFlow</title>
<ellipse fill="none" stroke="black" cx="1005.25" cy="-972.815" rx="160.526" ry="33.8824"/>
<text text-anchor="middle" x="1005.25" y="-983.215" font-family="monospace" font-size="12.00">UseCases.StepFlow</text>
<text text-anchor="middle" x="1005.25" y="-956.215" font-family="monospace" font-size="12.00">Digraph.BiDir[UseCaseStepId]</text>
</g>
<!-- UseCases&#45;&gt;UseCasesStepFlow -->
<g id="edge14" class="edge"><title>UseCases&#45;&gt;UseCasesStepFlow</title>
<path fill="none" stroke="blue" d="M771.904,-1135.81C798.703,-1122.95 827.056,-1108.19 852.25,-1092.64 894.324,-1066.68 938.526,-1031.35 968.541,-1005.98"/>
<ellipse fill="blue" stroke="blue" cx="768.002" cy="-1137.66" rx="4.00002" ry="4.00002"/>
</g>
<!-- UseCaseStep -->
<g id="node8" class="node"><title>UseCaseStep</title>
<ellipse fill="none" stroke="black" cx="636.25" cy="-271.326" rx="165.426" ry="52.1524"/>
<text text-anchor="middle" x="636.25" y="-294.726" font-family="monospace" font-size="12.00">UseCaseStep</text>
<text text-anchor="start" x="527.25" y="-267.726" font-family="monospace" font-size="12.00">id &#160;&#160;&#160;&#160;&#160;&#160;&#160;&#160;&#160;&#160;&#160;: UseCaseStepId</text>
<text text-anchor="start" x="527.25" y="-254.726" font-family="monospace" font-size="12.00">title &#160;&#160;&#160;&#160;&#160;&#160;&#160;&#160;: OptionalText</text>
<text text-anchor="start" x="527.25" y="-241.726" font-family="monospace" font-size="12.00">liveExplicitly: Live</text>
</g>
<!-- UseCaseStep&#45;&gt;UseCaseStepId -->
<g id="edge10" class="edge"><title>UseCaseStep&#45;&gt;UseCaseStepId</title>
<path fill="none" stroke="blue" d="M705.218,-217.687C722.689,-204.353 740.163,-191.016 753.159,-181.097"/>
<ellipse fill="blue" stroke="blue" cx="701.969" cy="-220.167" rx="4.00002" ry="4.00002"/>
</g>
<!-- UseCaseStepLocs -->
<g id="node11" class="node"><title>UseCaseStepLocs</title>
<ellipse fill="none" stroke="black" cx="642.25" cy="-543.668" rx="144.5" ry="43.2674"/>
<text text-anchor="middle" x="642.25" y="-560.568" font-family="monospace" font-size="12.00">UseCaseStep.Locs</text>
<text text-anchor="start" x="548.25" y="-533.568" font-family="monospace" font-size="12.00">main: Location</text>
<text text-anchor="start" x="548.25" y="-520.568" font-family="monospace" font-size="12.00">live: Location v Location</text>
</g>
<!-- UseCaseSteps&#45;&gt;UseCaseStepLocs -->
<g id="edge11" class="edge"><title>UseCaseSteps&#45;&gt;UseCaseStepLocs</title>
<path fill="none" stroke="blue" d="M552.965,-619.339C566.648,-607.895 581.175,-595.746 594.448,-584.645"/>
<ellipse fill="blue" stroke="blue" cx="549.813" cy="-621.974" rx="4.00002" ry="4.00002"/>
</g>
<!-- UseCaseStepsTree -->
<g id="node12" class="node"><title>UseCaseStepsTree</title>
<ellipse fill="none" stroke="black" cx="636.25" cy="-394.593" rx="133.787" ry="33.8824"/>
<text text-anchor="middle" x="636.25" y="-404.993" font-family="monospace" font-size="12.00">UseCaseSteps.Tree</text>
<text text-anchor="middle" x="636.25" y="-377.993" font-family="monospace" font-size="12.00">VectorTree[UseCaseStep]</text>
</g>
<!-- UseCaseSteps&#45;&gt;UseCaseStepsTree -->
<g id="edge8" class="edge"><title>UseCaseSteps&#45;&gt;UseCaseStepsTree</title>
<path fill="none" stroke="blue" d="M482.208,-615.69C474.857,-581.381 471.038,-535.911 489.25,-500.534 506.544,-466.939 540.127,-441.72 570.832,-424.435"/>
<ellipse fill="blue" stroke="blue" cx="483.147" cy="-619.815" rx="4.00001" ry="4.00001"/>
</g>
<!-- UseCaseIMap&#45;&gt;UseCaseId -->
<g id="edge16" class="edge"><title>UseCaseIMap&#45;&gt;UseCaseId</title>
<path fill="none" stroke="blue" d="M128.443,-1023.63C90.5993,-1000.34 46.6595,-965.588 25.2498,-920.874 -5.42302,-856.814 -10.9497,-822.176 25.2498,-761.068 53.1217,-714.018 114.107,-689.174 154.937,-677.302"/>
<ellipse fill="blue" stroke="blue" cx="132.006" cy="-1025.78" rx="4.00002" ry="4.00002"/>
</g>
<!-- UseCaseIMap&#45;&gt;UseCase -->
<g id="edge15" class="edge"><title>UseCaseIMap&#45;&gt;UseCase</title>
<path fill="none" stroke="blue" d="M195.25,-1016.4C195.25,-989.415 195.25,-953.31 195.25,-920.949"/>
<ellipse fill="blue" stroke="blue" cx="195.25" cy="-1020.46" rx="4" ry="4"/>
</g>
<!-- UseCaseStepLocs&#45;&gt;UseCaseStepsTree -->
<g id="edge21" class="edge"><title>UseCaseStepLocs&#45;&gt;UseCaseStepsTree</title>
<path fill="none" stroke="#555555" stroke-dasharray="5,2" d="M640.53,-500.522C639.744,-481.239 638.813,-458.41 638.02,-438.979"/>
<polygon fill="#555555" stroke="#555555" points="641.512,-438.721 637.607,-428.872 634.518,-439.006 641.512,-438.721"/>
<text text-anchor="middle" x="664.75" y="-460.834" font-family="Times,serif" font-size="14.00" fill="#444444"> refers to</text>
</g>
<!-- UseCaseStepsTree&#45;&gt;UseCaseStep -->
<g id="edge9" class="edge"><title>UseCaseStepsTree&#45;&gt;UseCaseStep</title>
<path fill="none" stroke="blue" d="M636.25,-352.331C636.25,-343.257 636.25,-333.535 636.25,-324.106"/>
<ellipse fill="blue" stroke="blue" cx="636.25" cy="-356.456" rx="4" ry="4"/>
</g>
<!-- UseCasesStepIndex&#45;&gt;UseCaseStepId -->
<g id="edge17" class="edge"><title>UseCasesStepIndex&#45;&gt;UseCaseStepId</title>
<path fill="none" stroke="blue" d="M719.086,-1020.49C750.004,-995.644 787.542,-960.362 810.25,-920.874 828.232,-889.605 829.25,-878.042 829.25,-841.971 829.25,-841.971 829.25,-841.971 829.25,-270.326 829.25,-235.876 805.844,-201.551 789.57,-181.848"/>
<ellipse fill="blue" stroke="blue" cx="715.732" cy="-1023.14" rx="4.00002" ry="4.00002"/>
</g>
<!-- StepTreeKey -->
<g id="node15" class="node"><title>StepTreeKey</title>
<ellipse fill="none" stroke="black" cx="587.25" cy="-840.971" rx="213.593" ry="43.2674"/>
<text text-anchor="middle" x="587.25" y="-857.871" font-family="monospace" font-size="12.00">UseCases.StepTreeKey</text>
<text text-anchor="start" x="444.25" y="-830.871" font-family="monospace" font-size="12.00">useCaseId: UseCaseId</text>
<text text-anchor="start" x="444.25" y="-817.871" font-family="monospace" font-size="12.00">field &#160;&#160;&#160;: StaticField.UseCaseStepTree</text>
</g>
<!-- UseCasesStepIndex&#45;&gt;StepTreeKey -->
<g id="edge18" class="edge"><title>UseCasesStepIndex&#45;&gt;StepTreeKey</title>
<path fill="none" stroke="blue" d="M652.028,-1016.65C637.945,-978.675 617.103,-922.472 602.889,-884.143"/>
<ellipse fill="blue" stroke="blue" cx="653.534" cy="-1020.71" rx="4.00001" ry="4.00001"/>
</g>
<!-- UseCasesStepFlow&#45;&gt;UseCaseStepId -->
<g id="edge19" class="edge"><title>UseCasesStepFlow&#45;&gt;UseCaseStepId</title>
<path fill="none" stroke="blue" d="M985.752,-931.433C965.348,-885.391 936.25,-807.326 936.25,-736.568 936.25,-736.568 936.25,-736.568 936.25,-270.326 936.25,-216.316 872.175,-188.581 824.62,-175.435"/>
<ellipse fill="blue" stroke="blue" cx="987.432" cy="-935.17" rx="4.00002" ry="4.00002"/>
</g>
<!-- StepTreeKey&#45;&gt;UseCaseId -->
<g id="edge20" class="edge"><title>StepTreeKey&#45;&gt;UseCaseId</title>
<path fill="none" stroke="blue" d="M539.465,-793.316C512.106,-769.554 475.816,-742.664 438.25,-728.068 361.247,-698.151 330.488,-739.372 253.25,-710.068 237.89,-704.24 222.949,-693.221 212.079,-683.912"/>
<ellipse fill="blue" stroke="blue" cx="542.514" cy="-796.003" rx="4.00002" ry="4.00002"/>
</g>
<!-- StepTreeKey&#45;&gt;UseCaseSteps -->
<g id="edge22" class="edge"><title>StepTreeKey&#45;&gt;UseCaseSteps</title>
<path fill="none" stroke="#555555" stroke-dasharray="5,2" d="M565.233,-797.886C552.766,-774.054 537.081,-744.072 523.919,-718.913"/>
<polygon fill="#555555" stroke="#555555" points="526.932,-717.121 519.195,-709.883 520.729,-720.366 526.932,-717.121"/>
<text text-anchor="middle" x="558.75" y="-731.868" font-family="Times,serif" font-size="14.00" fill="#444444"> refers to</text>
</g>
</g>
</svg>
