<?xml version="1.0" encoding="UTF-8" standalone="no"?>
<!DOCTYPE svg PUBLIC "-//W3C//DTD SVG 1.1//EN"
 "http://www.w3.org/Graphics/SVG/1.1/DTD/svg11.dtd">
<!-- Generated by graphviz version 2.38.0 (20140413.2041)
 -->
<!-- Title: G Pages: 1 -->
<svg width="1898pt" height="332pt"
 viewBox="0.00 0.00 1898.23 332.00" xmlns="http://www.w3.org/2000/svg" xmlns:xlink="http://www.w3.org/1999/xlink">
<g id="graph0" class="graph" transform="scale(1 1) rotate(0) translate(4 328)">
<title>G</title>
<polygon fill="white" stroke="none" points="-4,4 -4,-328 1894.23,-328 1894.23,4 -4,4"/>
<!-- 71 -->
<g id="node1" class="node"><title>71</title>
<ellipse fill="#e0ac5e" stroke="black" cx="172.629" cy="-306" rx="31.3957" ry="18"/>
<text text-anchor="middle" x="172.629" y="-302.3" font-family="Times,serif" font-size="14.00">MF&#45;1</text>
</g>
<!-- 72 -->
<g id="node2" class="node"><title>72</title>
<ellipse fill="#e0ac5e" stroke="black" cx="124.629" cy="-234" rx="31.3957" ry="18"/>
<text text-anchor="middle" x="124.629" y="-230.3" font-family="Times,serif" font-size="14.00">MF&#45;2</text>
</g>
<!-- 71&#45;&gt;72 -->
<g id="edge1" class="edge"><title>71&#45;&gt;72</title>
<path fill="none" stroke="black" d="M161.737,-289.116C155.807,-280.469 148.338,-269.575 141.657,-259.833"/>
<polygon fill="black" stroke="black" points="144.353,-257.575 135.811,-251.307 138.58,-261.534 144.353,-257.575"/>
</g>
<!-- 73 -->
<g id="node3" class="node"><title>73</title>
<ellipse fill="#e0ac5e" stroke="black" cx="248.629" cy="-234" rx="31.3957" ry="18"/>
<text text-anchor="middle" x="248.629" y="-230.3" font-family="Times,serif" font-size="14.00">MF&#45;3</text>
</g>
<!-- 71&#45;&gt;73 -->
<g id="edge7" class="edge"><title>71&#45;&gt;73</title>
<path fill="none" stroke="black" d="M188.747,-290.155C199.398,-280.344 213.529,-267.329 225.389,-256.405"/>
<polygon fill="black" stroke="black" points="227.811,-258.933 232.795,-249.584 223.068,-253.784 227.811,-258.933"/>
</g>
<!-- 733 -->
<g id="node4" class="node"><title>733</title>
<ellipse fill="#e0ac5e" stroke="black" cx="47.6289" cy="-162" rx="30.5947" ry="18"/>
<text text-anchor="middle" x="47.6289" y="-158.3" font-family="Times,serif" font-size="14.00">UC&#45;3</text>
</g>
<!-- 72&#45;&gt;733 -->
<g id="edge2" class="edge"><title>72&#45;&gt;733</title>
<path fill="none" stroke="black" d="M108.674,-218.496C97.8339,-208.641 83.3113,-195.439 71.1507,-184.383"/>
<polygon fill="black" stroke="black" points="73.3167,-181.622 63.5629,-177.485 68.608,-186.802 73.3167,-181.622"/>
</g>
<!-- 713 -->
<g id="node7" class="node"><title>713</title>
<ellipse fill="#cca6cb" stroke="black" cx="124.629" cy="-162" rx="28.6953" ry="18"/>
<text text-anchor="middle" x="124.629" y="-158.3" font-family="Times,serif" font-size="14.00">FR&#45;3</text>
</g>
<!-- 72&#45;&gt;713 -->
<g id="edge4" class="edge"><title>72&#45;&gt;713</title>
<path fill="none" stroke="black" d="M124.629,-215.697C124.629,-207.983 124.629,-198.712 124.629,-190.112"/>
<polygon fill="black" stroke="black" points="128.129,-190.104 124.629,-180.104 121.129,-190.104 128.129,-190.104"/>
</g>
<!-- 731 -->
<g id="node11" class="node"><title>731</title>
<ellipse fill="#8ad2ba" stroke="black" cx="125.629" cy="-18" rx="30.5947" ry="18"/>
<text text-anchor="middle" x="125.629" y="-14.3" font-family="Times,serif" font-size="14.00">UC&#45;1</text>
</g>
<!-- 72&#45;&gt;731 -->
<g id="edge5" class="edge"><title>72&#45;&gt;731</title>
<path fill="none" stroke="black" d="M94.713,-228.664C66.8153,-222.86 26.7227,-209.611 7.62891,-180 -0.991753,-166.631 -4.50812,-93.3443 9.62891,-72 26.8125,-46.056 60.0913,-32.6242 86.6135,-25.7858"/>
<polygon fill="black" stroke="black" points="87.4717,-29.1795 96.3999,-23.4754 85.8633,-22.3668 87.4717,-29.1795"/>
</g>
<!-- 732 -->
<g id="node12" class="node"><title>732</title>
<ellipse fill="#8ad2ba" stroke="black" cx="124.629" cy="-90" rx="30.5947" ry="18"/>
<text text-anchor="middle" x="124.629" y="-86.3" font-family="Times,serif" font-size="14.00">UC&#45;2</text>
</g>
<!-- 72&#45;&gt;732 -->
<g id="edge6" class="edge"><title>72&#45;&gt;732</title>
<path fill="none" stroke="black" d="M139.519,-217.756C148.095,-207.875 158.055,-194.228 162.629,-180 167.525,-164.768 167.525,-159.232 162.629,-144 159.163,-133.218 152.604,-122.77 145.898,-114.041"/>
<polygon fill="black" stroke="black" points="148.56,-111.768 139.519,-106.244 143.142,-116.2 148.56,-111.768"/>
</g>
<!-- 711 -->
<g id="node5" class="node"><title>711</title>
<ellipse fill="#cca6cb" stroke="black" cx="309.629" cy="-18" rx="28.6953" ry="18"/>
<text text-anchor="middle" x="309.629" y="-14.3" font-family="Times,serif" font-size="14.00">FR&#45;1</text>
</g>
<!-- 73&#45;&gt;711 -->
<g id="edge10" class="edge"><title>73&#45;&gt;711</title>
<path fill="none" stroke="black" d="M271.956,-221.693C287.604,-212.737 307.042,-198.633 316.629,-180 338.689,-137.123 327.874,-79.0065 318.449,-45.6035"/>
<polygon fill="black" stroke="black" points="321.7,-44.2559 315.482,-35.6774 314.993,-46.2609 321.7,-44.2559"/>
</g>
<!-- 721 -->
<g id="node8" class="node"><title>721</title>
<ellipse fill="#a2d860" stroke="black" cx="277.629" cy="-162" rx="29.795" ry="18"/>
<text text-anchor="middle" x="277.629" y="-158.3" font-family="Times,serif" font-size="14.00">BR&#45;1</text>
</g>
<!-- 73&#45;&gt;721 -->
<g id="edge9" class="edge"><title>73&#45;&gt;721</title>
<path fill="none" stroke="black" d="M255.502,-216.411C258.847,-208.335 262.95,-198.431 266.711,-189.355"/>
<polygon fill="black" stroke="black" points="270.01,-190.534 270.604,-179.956 263.543,-187.855 270.01,-190.534"/>
</g>
<!-- 722 -->
<g id="node9" class="node"><title>722</title>
<ellipse fill="#a2d860" stroke="black" cx="202.629" cy="-90" rx="29.795" ry="18"/>
<text text-anchor="middle" x="202.629" y="-86.3" font-family="Times,serif" font-size="14.00">BR&#45;2</text>
</g>
<!-- 73&#45;&gt;722 -->
<g id="edge8" class="edge"><title>73&#45;&gt;722</title>
<path fill="none" stroke="black" d="M243.171,-216.153C235.287,-191.813 220.63,-146.568 211.267,-117.665"/>
<polygon fill="black" stroke="black" points="214.491,-116.26 208.079,-107.825 207.831,-118.417 214.491,-116.26"/>
</g>
<!-- 712 -->
<g id="node6" class="node"><title>712</title>
<ellipse fill="#cca6cb" stroke="black" cx="47.6289" cy="-90" rx="28.6953" ry="18"/>
<text text-anchor="middle" x="47.6289" y="-86.3" font-family="Times,serif" font-size="14.00">FR&#45;2</text>
</g>
<!-- 733&#45;&gt;712 -->
<g id="edge3" class="edge"><title>733&#45;&gt;712</title>
<path fill="none" stroke="black" d="M47.6289,-143.697C47.6289,-135.983 47.6289,-126.712 47.6289,-118.112"/>
<polygon fill="black" stroke="black" points="51.129,-118.104 47.6289,-108.104 44.129,-118.104 51.129,-118.104"/>
</g>
<!-- 713&#45;&gt;732 -->
<g id="edge15" class="edge"><title>713&#45;&gt;732</title>
<path fill="none" stroke="black" d="M124.629,-143.697C124.629,-135.983 124.629,-126.712 124.629,-118.112"/>
<polygon fill="black" stroke="black" points="128.129,-118.104 124.629,-108.104 121.129,-118.104 128.129,-118.104"/>
</g>
<!-- 721&#45;&gt;722 -->
<g id="edge11" class="edge"><title>721&#45;&gt;722</title>
<path fill="none" stroke="black" d="M262.089,-146.496C251.53,-136.641 237.385,-123.439 225.54,-112.383"/>
<polygon fill="black" stroke="black" points="227.848,-109.75 218.149,-105.485 223.072,-114.867 227.848,-109.75"/>
</g>
<!-- 723 -->
<g id="node10" class="node"><title>723</title>
<ellipse fill="#a2d860" stroke="black" cx="280.629" cy="-90" rx="29.795" ry="18"/>
<text text-anchor="middle" x="280.629" y="-86.3" font-family="Times,serif" font-size="14.00">BR&#45;3</text>
</g>
<!-- 721&#45;&gt;723 -->
<g id="edge12" class="edge"><title>721&#45;&gt;723</title>
<path fill="none" stroke="black" d="M278.37,-143.697C278.701,-135.983 279.098,-126.712 279.467,-118.112"/>
<polygon fill="black" stroke="black" points="282.964,-118.245 279.896,-108.104 275.971,-117.945 282.964,-118.245"/>
</g>
<!-- 723&#45;&gt;711 -->
<g id="edge14" class="edge"><title>723&#45;&gt;711</title>
<path fill="none" stroke="black" d="M287.502,-72.411C290.847,-64.3352 294.95,-54.4312 298.711,-45.3547"/>
<polygon fill="black" stroke="black" points="302.01,-46.5344 302.604,-35.9562 295.543,-43.8552 302.01,-46.5344"/>
</g>
<!-- 723&#45;&gt;731 -->
<g id="edge13" class="edge"><title>723&#45;&gt;731</title>
<path fill="none" stroke="black" d="M257.424,-78.5203C231.133,-66.647 188.089,-47.2079 158.385,-33.7929"/>
<polygon fill="black" stroke="black" points="159.801,-30.5924 149.247,-29.6663 156.92,-36.972 159.801,-30.5924"/>
</g>
<!-- 91 -->
<g id="node13" class="node"><title>91</title>
<ellipse fill="#dfab62" stroke="black" cx="574.629" cy="-306" rx="31.3957" ry="18"/>
<text text-anchor="middle" x="574.629" y="-302.3" font-family="Times,serif" font-size="14.00">MF&#45;1</text>
</g>
<!-- 92 -->
<g id="node14" class="node"><title>92</title>
<ellipse fill="#dfab62" stroke="black" cx="512.629" cy="-234" rx="31.3957" ry="18"/>
<text text-anchor="middle" x="512.629" y="-230.3" font-family="Times,serif" font-size="14.00">MF&#45;2</text>
</g>
<!-- 91&#45;&gt;92 -->
<g id="edge16" class="edge"><title>91&#45;&gt;92</title>
<path fill="none" stroke="black" d="M560.869,-289.465C552.682,-280.221 542.142,-268.321 533.003,-258.003"/>
<polygon fill="black" stroke="black" points="535.601,-255.657 526.35,-250.492 530.361,-260.298 535.601,-255.657"/>
</g>
<!-- 93 -->
<g id="node15" class="node"><title>93</title>
<ellipse fill="#dfab62" stroke="black" cx="636.629" cy="-234" rx="31.3957" ry="18"/>
<text text-anchor="middle" x="636.629" y="-230.3" font-family="Times,serif" font-size="14.00">MF&#45;3</text>
</g>
<!-- 91&#45;&gt;93 -->
<g id="edge22" class="edge"><title>91&#45;&gt;93</title>
<path fill="none" stroke="black" d="M588.389,-289.465C596.576,-280.221 607.116,-268.321 616.255,-258.003"/>
<polygon fill="black" stroke="black" points="618.897,-260.298 622.908,-250.492 613.657,-255.657 618.897,-260.298"/>
</g>
<!-- 933 -->
<g id="node16" class="node"><title>933</title>
<ellipse fill="#dfab62" stroke="black" cx="435.629" cy="-162" rx="30.5947" ry="18"/>
<text text-anchor="middle" x="435.629" y="-158.3" font-family="Times,serif" font-size="14.00">UC&#45;3</text>
</g>
<!-- 92&#45;&gt;933 -->
<g id="edge17" class="edge"><title>92&#45;&gt;933</title>
<path fill="none" stroke="black" d="M496.674,-218.496C485.834,-208.641 471.311,-195.439 459.151,-184.383"/>
<polygon fill="black" stroke="black" points="461.317,-181.622 451.563,-177.485 456.608,-186.802 461.317,-181.622"/>
</g>
<!-- 913 -->
<g id="node19" class="node"><title>913</title>
<ellipse fill="#cf9ed3" stroke="black" cx="512.629" cy="-162" rx="28.6953" ry="18"/>
<text text-anchor="middle" x="512.629" y="-158.3" font-family="Times,serif" font-size="14.00">FR&#45;3</text>
</g>
<!-- 92&#45;&gt;913 -->
<g id="edge19" class="edge"><title>92&#45;&gt;913</title>
<path fill="none" stroke="black" d="M512.629,-215.697C512.629,-207.983 512.629,-198.712 512.629,-190.112"/>
<polygon fill="black" stroke="black" points="516.129,-190.104 512.629,-180.104 509.129,-190.104 516.129,-190.104"/>
</g>
<!-- 931 -->
<g id="node23" class="node"><title>931</title>
<ellipse fill="#90d1ba" stroke="black" cx="498.629" cy="-18" rx="30.5947" ry="18"/>
<text text-anchor="middle" x="498.629" y="-14.3" font-family="Times,serif" font-size="14.00">UC&#45;1</text>
</g>
<!-- 92&#45;&gt;931 -->
<g id="edge20" class="edge"><title>92&#45;&gt;931</title>
<path fill="none" stroke="black" d="M482.713,-228.664C454.815,-222.86 414.723,-209.611 395.629,-180 387.218,-166.956 383.911,-93.9945 397.629,-72 411.596,-49.6064 438.395,-36.1646 460.879,-28.4233"/>
<polygon fill="black" stroke="black" points="462.057,-31.7215 470.522,-25.3505 459.932,-25.0519 462.057,-31.7215"/>
</g>
<!-- 932 -->
<g id="node24" class="node"><title>932</title>
<ellipse fill="#90d1ba" stroke="black" cx="512.629" cy="-90" rx="30.5947" ry="18"/>
<text text-anchor="middle" x="512.629" y="-86.3" font-family="Times,serif" font-size="14.00">UC&#45;2</text>
</g>
<!-- 92&#45;&gt;932 -->
<g id="edge21" class="edge"><title>92&#45;&gt;932</title>
<path fill="none" stroke="black" d="M527.519,-217.756C536.095,-207.875 546.055,-194.228 550.629,-180 555.525,-164.768 555.525,-159.232 550.629,-144 547.163,-133.218 540.604,-122.77 533.898,-114.041"/>
<polygon fill="black" stroke="black" points="536.56,-111.768 527.519,-106.244 531.142,-116.2 536.56,-111.768"/>
</g>
<!-- 911 -->
<g id="node17" class="node"><title>911</title>
<ellipse fill="#cf9ed3" stroke="black" cx="697.629" cy="-18" rx="28.6953" ry="18"/>
<text text-anchor="middle" x="697.629" y="-14.3" font-family="Times,serif" font-size="14.00">FR&#45;1</text>
</g>
<!-- 93&#45;&gt;911 -->
<g id="edge25" class="edge"><title>93&#45;&gt;911</title>
<path fill="none" stroke="black" d="M659.956,-221.693C675.604,-212.737 695.042,-198.633 704.629,-180 726.689,-137.123 715.874,-79.0065 706.449,-45.6035"/>
<polygon fill="black" stroke="black" points="709.7,-44.2559 703.482,-35.6774 702.993,-46.2609 709.7,-44.2559"/>
</g>
<!-- 921 -->
<g id="node20" class="node"><title>921</title>
<ellipse fill="#9bd858" stroke="black" cx="665.629" cy="-162" rx="29.795" ry="18"/>
<text text-anchor="middle" x="665.629" y="-158.3" font-family="Times,serif" font-size="14.00">BR&#45;1</text>
</g>
<!-- 93&#45;&gt;921 -->
<g id="edge24" class="edge"><title>93&#45;&gt;921</title>
<path fill="none" stroke="black" d="M643.502,-216.411C646.847,-208.335 650.95,-198.431 654.711,-189.355"/>
<polygon fill="black" stroke="black" points="658.01,-190.534 658.604,-179.956 651.543,-187.855 658.01,-190.534"/>
</g>
<!-- 922 -->
<g id="node21" class="node"><title>922</title>
<ellipse fill="#9bd858" stroke="black" cx="590.629" cy="-90" rx="29.795" ry="18"/>
<text text-anchor="middle" x="590.629" y="-86.3" font-family="Times,serif" font-size="14.00">BR&#45;2</text>
</g>
<!-- 93&#45;&gt;922 -->
<g id="edge23" class="edge"><title>93&#45;&gt;922</title>
<path fill="none" stroke="black" d="M631.171,-216.153C623.287,-191.813 608.63,-146.568 599.267,-117.665"/>
<polygon fill="black" stroke="black" points="602.491,-116.26 596.079,-107.825 595.831,-118.417 602.491,-116.26"/>
</g>
<!-- 912 -->
<g id="node18" class="node"><title>912</title>
<ellipse fill="#cf9ed3" stroke="black" cx="435.629" cy="-90" rx="28.6953" ry="18"/>
<text text-anchor="middle" x="435.629" y="-86.3" font-family="Times,serif" font-size="14.00">FR&#45;2</text>
</g>
<!-- 933&#45;&gt;912 -->
<g id="edge18" class="edge"><title>933&#45;&gt;912</title>
<path fill="none" stroke="black" d="M435.629,-143.697C435.629,-135.983 435.629,-126.712 435.629,-118.112"/>
<polygon fill="black" stroke="black" points="439.129,-118.104 435.629,-108.104 432.129,-118.104 439.129,-118.104"/>
</g>
<!-- 913&#45;&gt;932 -->
<g id="edge30" class="edge"><title>913&#45;&gt;932</title>
<path fill="none" stroke="black" d="M512.629,-143.697C512.629,-135.983 512.629,-126.712 512.629,-118.112"/>
<polygon fill="black" stroke="black" points="516.129,-118.104 512.629,-108.104 509.129,-118.104 516.129,-118.104"/>
</g>
<!-- 921&#45;&gt;922 -->
<g id="edge26" class="edge"><title>921&#45;&gt;922</title>
<path fill="none" stroke="black" d="M650.089,-146.496C639.53,-136.641 625.385,-123.439 613.54,-112.383"/>
<polygon fill="black" stroke="black" points="615.848,-109.75 606.149,-105.485 611.072,-114.867 615.848,-109.75"/>
</g>
<!-- 923 -->
<g id="node22" class="node"><title>923</title>
<ellipse fill="#9bd858" stroke="black" cx="668.629" cy="-90" rx="29.795" ry="18"/>
<text text-anchor="middle" x="668.629" y="-86.3" font-family="Times,serif" font-size="14.00">BR&#45;3</text>
</g>
<!-- 921&#45;&gt;923 -->
<g id="edge27" class="edge"><title>921&#45;&gt;923</title>
<path fill="none" stroke="black" d="M666.37,-143.697C666.701,-135.983 667.098,-126.712 667.467,-118.112"/>
<polygon fill="black" stroke="black" points="670.964,-118.245 667.896,-108.104 663.971,-117.945 670.964,-118.245"/>
</g>
<!-- 923&#45;&gt;911 -->
<g id="edge29" class="edge"><title>923&#45;&gt;911</title>
<path fill="none" stroke="black" d="M675.502,-72.411C678.847,-64.3352 682.95,-54.4312 686.711,-45.3547"/>
<polygon fill="black" stroke="black" points="690.01,-46.5344 690.604,-35.9562 683.543,-43.8552 690.01,-46.5344"/>
</g>
<!-- 923&#45;&gt;931 -->
<g id="edge28" class="edge"><title>923&#45;&gt;931</title>
<path fill="none" stroke="black" d="M645.162,-78.6504C640.053,-76.4308 634.668,-74.1172 629.629,-72 596.937,-58.2645 559.402,-43.1445 532.914,-32.5816"/>
<polygon fill="black" stroke="black" points="533.922,-29.2156 523.336,-28.7688 531.333,-35.7193 533.922,-29.2156"/>
</g>
<!-- 51 -->
<g id="node25" class="node"><title>51</title>
<ellipse fill="#91d8c0" stroke="black" cx="962.629" cy="-306" rx="31.3957" ry="18"/>
<text text-anchor="middle" x="962.629" y="-302.3" font-family="Times,serif" font-size="14.00">MF&#45;1</text>
</g>
<!-- 52 -->
<g id="node26" class="node"><title>52</title>
<ellipse fill="#91d8c0" stroke="black" cx="900.629" cy="-234" rx="31.3957" ry="18"/>
<text text-anchor="middle" x="900.629" y="-230.3" font-family="Times,serif" font-size="14.00">MF&#45;2</text>
</g>
<!-- 51&#45;&gt;52 -->
<g id="edge31" class="edge"><title>51&#45;&gt;52</title>
<path fill="none" stroke="black" d="M948.869,-289.465C940.682,-280.221 930.142,-268.321 921.003,-258.003"/>
<polygon fill="black" stroke="black" points="923.601,-255.657 914.35,-250.492 918.361,-260.298 923.601,-255.657"/>
</g>
<!-- 53 -->
<g id="node27" class="node"><title>53</title>
<ellipse fill="#91d8c0" stroke="black" cx="1024.63" cy="-234" rx="31.3957" ry="18"/>
<text text-anchor="middle" x="1024.63" y="-230.3" font-family="Times,serif" font-size="14.00">MF&#45;3</text>
</g>
<!-- 51&#45;&gt;53 -->
<g id="edge37" class="edge"><title>51&#45;&gt;53</title>
<path fill="none" stroke="black" d="M976.389,-289.465C984.576,-280.221 995.116,-268.321 1004.25,-258.003"/>
<polygon fill="black" stroke="black" points="1006.9,-260.298 1010.91,-250.492 1001.66,-255.657 1006.9,-260.298"/>
</g>
<!-- 533 -->
<g id="node28" class="node"><title>533</title>
<ellipse fill="#91d8c0" stroke="black" cx="823.629" cy="-162" rx="30.5947" ry="18"/>
<text text-anchor="middle" x="823.629" y="-158.3" font-family="Times,serif" font-size="14.00">UC&#45;3</text>
</g>
<!-- 52&#45;&gt;533 -->
<g id="edge32" class="edge"><title>52&#45;&gt;533</title>
<path fill="none" stroke="black" d="M884.674,-218.496C873.834,-208.641 859.311,-195.439 847.151,-184.383"/>
<polygon fill="black" stroke="black" points="849.317,-181.622 839.563,-177.485 844.608,-186.802 849.317,-181.622"/>
</g>
<!-- 513 -->
<g id="node31" class="node"><title>513</title>
<ellipse fill="#e0c162" stroke="black" cx="900.629" cy="-162" rx="28.6953" ry="18"/>
<text text-anchor="middle" x="900.629" y="-158.3" font-family="Times,serif" font-size="14.00">FR&#45;3</text>
</g>
<!-- 52&#45;&gt;513 -->
<g id="edge34" class="edge"><title>52&#45;&gt;513</title>
<path fill="none" stroke="black" d="M900.629,-215.697C900.629,-207.983 900.629,-198.712 900.629,-190.112"/>
<polygon fill="black" stroke="black" points="904.129,-190.104 900.629,-180.104 897.129,-190.104 904.129,-190.104"/>
</g>
<!-- 531 -->
<g id="node35" class="node"><title>531</title>
<ellipse fill="#8fde5e" stroke="black" cx="920.629" cy="-18" rx="30.5947" ry="18"/>
<text text-anchor="middle" x="920.629" y="-14.3" font-family="Times,serif" font-size="14.00">UC&#45;1</text>
</g>
<!-- 52&#45;&gt;531 -->
<g id="edge35" class="edge"><title>52&#45;&gt;531</title>
<path fill="none" stroke="black" d="M870.713,-228.664C842.815,-222.86 802.723,-209.611 783.629,-180 774.804,-166.315 771.084,-92.7119 785.629,-72 807.08,-41.4537 848.956,-28.5122 880.409,-23.0296"/>
<polygon fill="black" stroke="black" points="881.288,-26.4352 890.632,-21.4415 880.213,-19.5181 881.288,-26.4352"/>
</g>
<!-- 532 -->
<g id="node36" class="node"><title>532</title>
<ellipse fill="#8fde5e" stroke="black" cx="900.629" cy="-90" rx="30.5947" ry="18"/>
<text text-anchor="middle" x="900.629" y="-86.3" font-family="Times,serif" font-size="14.00">UC&#45;2</text>
</g>
<!-- 52&#45;&gt;532 -->
<g id="edge36" class="edge"><title>52&#45;&gt;532</title>
<path fill="none" stroke="black" d="M915.519,-217.756C924.095,-207.875 934.055,-194.228 938.629,-180 943.525,-164.768 943.525,-159.232 938.629,-144 935.163,-133.218 928.604,-122.77 921.898,-114.041"/>
<polygon fill="black" stroke="black" points="924.56,-111.768 915.519,-106.244 919.142,-116.2 924.56,-111.768"/>
</g>
<!-- 511 -->
<g id="node29" class="node"><title>511</title>
<ellipse fill="#e0c162" stroke="black" cx="1085.63" cy="-18" rx="28.6953" ry="18"/>
<text text-anchor="middle" x="1085.63" y="-14.3" font-family="Times,serif" font-size="14.00">FR&#45;1</text>
</g>
<!-- 53&#45;&gt;511 -->
<g id="edge40" class="edge"><title>53&#45;&gt;511</title>
<path fill="none" stroke="black" d="M1047.96,-221.693C1063.6,-212.737 1083.04,-198.633 1092.63,-180 1114.69,-137.123 1103.87,-79.0065 1094.45,-45.6035"/>
<polygon fill="black" stroke="black" points="1097.7,-44.2559 1091.48,-35.6774 1090.99,-46.2609 1097.7,-44.2559"/>
</g>
<!-- 521 -->
<g id="node32" class="node"><title>521</title>
<ellipse fill="#d5aed2" stroke="black" cx="1053.63" cy="-162" rx="29.795" ry="18"/>
<text text-anchor="middle" x="1053.63" y="-158.3" font-family="Times,serif" font-size="14.00">BR&#45;1</text>
</g>
<!-- 53&#45;&gt;521 -->
<g id="edge39" class="edge"><title>53&#45;&gt;521</title>
<path fill="none" stroke="black" d="M1031.5,-216.411C1034.85,-208.335 1038.95,-198.431 1042.71,-189.355"/>
<polygon fill="black" stroke="black" points="1046.01,-190.534 1046.6,-179.956 1039.54,-187.855 1046.01,-190.534"/>
</g>
<!-- 522 -->
<g id="node33" class="node"><title>522</title>
<ellipse fill="#d5aed2" stroke="black" cx="978.629" cy="-90" rx="29.795" ry="18"/>
<text text-anchor="middle" x="978.629" y="-86.3" font-family="Times,serif" font-size="14.00">BR&#45;2</text>
</g>
<!-- 53&#45;&gt;522 -->
<g id="edge38" class="edge"><title>53&#45;&gt;522</title>
<path fill="none" stroke="black" d="M1019.17,-216.153C1011.29,-191.813 996.63,-146.568 987.267,-117.665"/>
<polygon fill="black" stroke="black" points="990.491,-116.26 984.079,-107.825 983.831,-118.417 990.491,-116.26"/>
</g>
<!-- 512 -->
<g id="node30" class="node"><title>512</title>
<ellipse fill="#e0c162" stroke="black" cx="823.629" cy="-90" rx="28.6953" ry="18"/>
<text text-anchor="middle" x="823.629" y="-86.3" font-family="Times,serif" font-size="14.00">FR&#45;2</text>
</g>
<!-- 533&#45;&gt;512 -->
<g id="edge33" class="edge"><title>533&#45;&gt;512</title>
<path fill="none" stroke="black" d="M823.629,-143.697C823.629,-135.983 823.629,-126.712 823.629,-118.112"/>
<polygon fill="black" stroke="black" points="827.129,-118.104 823.629,-108.104 820.129,-118.104 827.129,-118.104"/>
</g>
<!-- 513&#45;&gt;532 -->
<g id="edge45" class="edge"><title>513&#45;&gt;532</title>
<path fill="none" stroke="black" d="M900.629,-143.697C900.629,-135.983 900.629,-126.712 900.629,-118.112"/>
<polygon fill="black" stroke="black" points="904.129,-118.104 900.629,-108.104 897.129,-118.104 904.129,-118.104"/>
</g>
<!-- 521&#45;&gt;522 -->
<g id="edge41" class="edge"><title>521&#45;&gt;522</title>
<path fill="none" stroke="black" d="M1038.09,-146.496C1027.53,-136.641 1013.38,-123.439 1001.54,-112.383"/>
<polygon fill="black" stroke="black" points="1003.85,-109.75 994.149,-105.485 999.072,-114.867 1003.85,-109.75"/>
</g>
<!-- 523 -->
<g id="node34" class="node"><title>523</title>
<ellipse fill="#d5aed2" stroke="black" cx="1056.63" cy="-90" rx="29.795" ry="18"/>
<text text-anchor="middle" x="1056.63" y="-86.3" font-family="Times,serif" font-size="14.00">BR&#45;3</text>
</g>
<!-- 521&#45;&gt;523 -->
<g id="edge42" class="edge"><title>521&#45;&gt;523</title>
<path fill="none" stroke="black" d="M1054.37,-143.697C1054.7,-135.983 1055.1,-126.712 1055.47,-118.112"/>
<polygon fill="black" stroke="black" points="1058.96,-118.245 1055.9,-108.104 1051.97,-117.945 1058.96,-118.245"/>
</g>
<!-- 523&#45;&gt;511 -->
<g id="edge44" class="edge"><title>523&#45;&gt;511</title>
<path fill="none" stroke="black" d="M1063.5,-72.411C1066.85,-64.3352 1070.95,-54.4312 1074.71,-45.3547"/>
<polygon fill="black" stroke="black" points="1078.01,-46.5344 1078.6,-35.9562 1071.54,-43.8552 1078.01,-46.5344"/>
</g>
<!-- 523&#45;&gt;531 -->
<g id="edge43" class="edge"><title>523&#45;&gt;531</title>
<path fill="none" stroke="black" d="M1034.48,-77.5975C1012.18,-66.1238 977.588,-48.3173 952.382,-35.3434"/>
<polygon fill="black" stroke="black" points="953.719,-32.0954 943.226,-30.6309 950.516,-38.3194 953.719,-32.0954"/>
</g>
<!-- 61 -->
<g id="node37" class="node"><title>61</title>
<ellipse fill="#91d9bc" stroke="black" cx="1350.63" cy="-306" rx="31.3957" ry="18"/>
<text text-anchor="middle" x="1350.63" y="-302.3" font-family="Times,serif" font-size="14.00">MF&#45;1</text>
</g>
<!-- 62 -->
<g id="node38" class="node"><title>62</title>
<ellipse fill="#91d9bc" stroke="black" cx="1288.63" cy="-234" rx="31.3957" ry="18"/>
<text text-anchor="middle" x="1288.63" y="-230.3" font-family="Times,serif" font-size="14.00">MF&#45;2</text>
</g>
<!-- 61&#45;&gt;62 -->
<g id="edge46" class="edge"><title>61&#45;&gt;62</title>
<path fill="none" stroke="black" d="M1336.87,-289.465C1328.68,-280.221 1318.14,-268.321 1309,-258.003"/>
<polygon fill="black" stroke="black" points="1311.6,-255.657 1302.35,-250.492 1306.36,-260.298 1311.6,-255.657"/>
</g>
<!-- 63 -->
<g id="node39" class="node"><title>63</title>
<ellipse fill="#91d9bc" stroke="black" cx="1412.63" cy="-234" rx="31.3957" ry="18"/>
<text text-anchor="middle" x="1412.63" y="-230.3" font-family="Times,serif" font-size="14.00">MF&#45;3</text>
</g>
<!-- 61&#45;&gt;63 -->
<g id="edge52" class="edge"><title>61&#45;&gt;63</title>
<path fill="none" stroke="black" d="M1364.39,-289.465C1372.58,-280.221 1383.12,-268.321 1392.25,-258.003"/>
<polygon fill="black" stroke="black" points="1394.9,-260.298 1398.91,-250.492 1389.66,-255.657 1394.9,-260.298"/>
</g>
<!-- 633 -->
<g id="node40" class="node"><title>633</title>
<ellipse fill="#91d9bc" stroke="black" cx="1211.63" cy="-162" rx="30.5947" ry="18"/>
<text text-anchor="middle" x="1211.63" y="-158.3" font-family="Times,serif" font-size="14.00">UC&#45;3</text>
</g>
<!-- 62&#45;&gt;633 -->
<g id="edge47" class="edge"><title>62&#45;&gt;633</title>
<path fill="none" stroke="black" d="M1272.67,-218.496C1261.83,-208.641 1247.31,-195.439 1235.15,-184.383"/>
<polygon fill="black" stroke="black" points="1237.32,-181.622 1227.56,-177.485 1232.61,-186.802 1237.32,-181.622"/>
</g>
<!-- 613 -->
<g id="node43" class="node"><title>613</title>
<ellipse fill="#93df58" stroke="black" cx="1288.63" cy="-162" rx="28.6953" ry="18"/>
<text text-anchor="middle" x="1288.63" y="-158.3" font-family="Times,serif" font-size="14.00">FR&#45;3</text>
</g>
<!-- 62&#45;&gt;613 -->
<g id="edge49" class="edge"><title>62&#45;&gt;613</title>
<path fill="none" stroke="black" d="M1288.63,-215.697C1288.63,-207.983 1288.63,-198.712 1288.63,-190.112"/>
<polygon fill="black" stroke="black" points="1292.13,-190.104 1288.63,-180.104 1285.13,-190.104 1292.13,-190.104"/>
</g>
<!-- 631 -->
<g id="node47" class="node"><title>631</title>
<ellipse fill="#dfbe64" stroke="black" cx="1274.63" cy="-18" rx="30.5947" ry="18"/>
<text text-anchor="middle" x="1274.63" y="-14.3" font-family="Times,serif" font-size="14.00">UC&#45;1</text>
</g>
<!-- 62&#45;&gt;631 -->
<g id="edge50" class="edge"><title>62&#45;&gt;631</title>
<path fill="none" stroke="black" d="M1258.71,-228.664C1230.82,-222.86 1190.72,-209.611 1171.63,-180 1163.22,-166.956 1159.91,-93.9945 1173.63,-72 1187.6,-49.6064 1214.39,-36.1646 1236.88,-28.4233"/>
<polygon fill="black" stroke="black" points="1238.06,-31.7215 1246.52,-25.3505 1235.93,-25.0519 1238.06,-31.7215"/>
</g>
<!-- 632 -->
<g id="node48" class="node"><title>632</title>
<ellipse fill="#dfbe64" stroke="black" cx="1288.63" cy="-90" rx="30.5947" ry="18"/>
<text text-anchor="middle" x="1288.63" y="-86.3" font-family="Times,serif" font-size="14.00">UC&#45;2</text>
</g>
<!-- 62&#45;&gt;632 -->
<g id="edge51" class="edge"><title>62&#45;&gt;632</title>
<path fill="none" stroke="black" d="M1303.52,-217.756C1312.1,-207.875 1322.06,-194.228 1326.63,-180 1331.53,-164.768 1331.53,-159.232 1326.63,-144 1323.16,-133.218 1316.6,-122.77 1309.9,-114.041"/>
<polygon fill="black" stroke="black" points="1312.56,-111.768 1303.52,-106.244 1307.14,-116.2 1312.56,-111.768"/>
</g>
<!-- 611 -->
<g id="node41" class="node"><title>611</title>
<ellipse fill="#93df58" stroke="black" cx="1473.63" cy="-18" rx="28.6953" ry="18"/>
<text text-anchor="middle" x="1473.63" y="-14.3" font-family="Times,serif" font-size="14.00">FR&#45;1</text>
</g>
<!-- 63&#45;&gt;611 -->
<g id="edge55" class="edge"><title>63&#45;&gt;611</title>
<path fill="none" stroke="black" d="M1435.96,-221.693C1451.6,-212.737 1471.04,-198.633 1480.63,-180 1502.69,-137.123 1491.87,-79.0065 1482.45,-45.6035"/>
<polygon fill="black" stroke="black" points="1485.7,-44.2559 1479.48,-35.6774 1478.99,-46.2609 1485.7,-44.2559"/>
</g>
<!-- 621 -->
<g id="node44" class="node"><title>621</title>
<ellipse fill="#d1b0d4" stroke="black" cx="1441.63" cy="-162" rx="29.795" ry="18"/>
<text text-anchor="middle" x="1441.63" y="-158.3" font-family="Times,serif" font-size="14.00">BR&#45;1</text>
</g>
<!-- 63&#45;&gt;621 -->
<g id="edge54" class="edge"><title>63&#45;&gt;621</title>
<path fill="none" stroke="black" d="M1419.5,-216.411C1422.85,-208.335 1426.95,-198.431 1430.71,-189.355"/>
<polygon fill="black" stroke="black" points="1434.01,-190.534 1434.6,-179.956 1427.54,-187.855 1434.01,-190.534"/>
</g>
<!-- 622 -->
<g id="node45" class="node"><title>622</title>
<ellipse fill="#d1b0d4" stroke="black" cx="1366.63" cy="-90" rx="29.795" ry="18"/>
<text text-anchor="middle" x="1366.63" y="-86.3" font-family="Times,serif" font-size="14.00">BR&#45;2</text>
</g>
<!-- 63&#45;&gt;622 -->
<g id="edge53" class="edge"><title>63&#45;&gt;622</title>
<path fill="none" stroke="black" d="M1407.17,-216.153C1399.29,-191.813 1384.63,-146.568 1375.27,-117.665"/>
<polygon fill="black" stroke="black" points="1378.49,-116.26 1372.08,-107.825 1371.83,-118.417 1378.49,-116.26"/>
</g>
<!-- 612 -->
<g id="node42" class="node"><title>612</title>
<ellipse fill="#93df58" stroke="black" cx="1211.63" cy="-90" rx="28.6953" ry="18"/>
<text text-anchor="middle" x="1211.63" y="-86.3" font-family="Times,serif" font-size="14.00">FR&#45;2</text>
</g>
<!-- 633&#45;&gt;612 -->
<g id="edge48" class="edge"><title>633&#45;&gt;612</title>
<path fill="none" stroke="black" d="M1211.63,-143.697C1211.63,-135.983 1211.63,-126.712 1211.63,-118.112"/>
<polygon fill="black" stroke="black" points="1215.13,-118.104 1211.63,-108.104 1208.13,-118.104 1215.13,-118.104"/>
</g>
<!-- 613&#45;&gt;632 -->
<g id="edge60" class="edge"><title>613&#45;&gt;632</title>
<path fill="none" stroke="black" d="M1288.63,-143.697C1288.63,-135.983 1288.63,-126.712 1288.63,-118.112"/>
<polygon fill="black" stroke="black" points="1292.13,-118.104 1288.63,-108.104 1285.13,-118.104 1292.13,-118.104"/>
</g>
<!-- 621&#45;&gt;622 -->
<g id="edge56" class="edge"><title>621&#45;&gt;622</title>
<path fill="none" stroke="black" d="M1426.09,-146.496C1415.53,-136.641 1401.38,-123.439 1389.54,-112.383"/>
<polygon fill="black" stroke="black" points="1391.85,-109.75 1382.15,-105.485 1387.07,-114.867 1391.85,-109.75"/>
</g>
<!-- 623 -->
<g id="node46" class="node"><title>623</title>
<ellipse fill="#d1b0d4" stroke="black" cx="1444.63" cy="-90" rx="29.795" ry="18"/>
<text text-anchor="middle" x="1444.63" y="-86.3" font-family="Times,serif" font-size="14.00">BR&#45;3</text>
</g>
<!-- 621&#45;&gt;623 -->
<g id="edge57" class="edge"><title>621&#45;&gt;623</title>
<path fill="none" stroke="black" d="M1442.37,-143.697C1442.7,-135.983 1443.1,-126.712 1443.47,-118.112"/>
<polygon fill="black" stroke="black" points="1446.96,-118.245 1443.9,-108.104 1439.97,-117.945 1446.96,-118.245"/>
</g>
<!-- 623&#45;&gt;611 -->
<g id="edge59" class="edge"><title>623&#45;&gt;611</title>
<path fill="none" stroke="black" d="M1451.5,-72.411C1454.85,-64.3352 1458.95,-54.4312 1462.71,-45.3547"/>
<polygon fill="black" stroke="black" points="1466.01,-46.5344 1466.6,-35.9562 1459.54,-43.8552 1466.01,-46.5344"/>
</g>
<!-- 623&#45;&gt;631 -->
<g id="edge58" class="edge"><title>623&#45;&gt;631</title>
<path fill="none" stroke="black" d="M1421.16,-78.6504C1416.05,-76.4308 1410.67,-74.1172 1405.63,-72 1372.94,-58.2645 1335.4,-43.1445 1308.91,-32.5816"/>
<polygon fill="black" stroke="black" points="1309.92,-29.2156 1299.34,-28.7688 1307.33,-35.7193 1309.92,-29.2156"/>
</g>
<!-- 81 -->
<g id="node49" class="node"><title>81</title>
<ellipse fill="#d5b4d4" stroke="black" cx="1738.63" cy="-306" rx="31.3957" ry="18"/>
<text text-anchor="middle" x="1738.63" y="-302.3" font-family="Times,serif" font-size="14.00">MF&#45;1</text>
</g>
<!-- 82 -->
<g id="node50" class="node"><title>82</title>
<ellipse fill="#d5b4d4" stroke="black" cx="1676.63" cy="-234" rx="31.3957" ry="18"/>
<text text-anchor="middle" x="1676.63" y="-230.3" font-family="Times,serif" font-size="14.00">MF&#45;2</text>
</g>
<!-- 81&#45;&gt;82 -->
<g id="edge61" class="edge"><title>81&#45;&gt;82</title>
<path fill="none" stroke="black" d="M1724.87,-289.465C1716.68,-280.221 1706.14,-268.321 1697,-258.003"/>
<polygon fill="black" stroke="black" points="1699.6,-255.657 1690.35,-250.492 1694.36,-260.298 1699.6,-255.657"/>
</g>
<!-- 83 -->
<g id="node51" class="node"><title>83</title>
<ellipse fill="#d5b4d4" stroke="black" cx="1800.63" cy="-234" rx="31.3957" ry="18"/>
<text text-anchor="middle" x="1800.63" y="-230.3" font-family="Times,serif" font-size="14.00">MF&#45;3</text>
</g>
<!-- 81&#45;&gt;83 -->
<g id="edge67" class="edge"><title>81&#45;&gt;83</title>
<path fill="none" stroke="black" d="M1752.39,-289.465C1760.58,-280.221 1771.12,-268.321 1780.25,-258.003"/>
<polygon fill="black" stroke="black" points="1782.9,-260.298 1786.91,-250.492 1777.66,-255.657 1782.9,-260.298"/>
</g>
<!-- 833 -->
<g id="node52" class="node"><title>833</title>
<ellipse fill="#d5b4d4" stroke="black" cx="1599.63" cy="-162" rx="30.5947" ry="18"/>
<text text-anchor="middle" x="1599.63" y="-158.3" font-family="Times,serif" font-size="14.00">UC&#45;3</text>
</g>
<!-- 82&#45;&gt;833 -->
<g id="edge62" class="edge"><title>82&#45;&gt;833</title>
<path fill="none" stroke="black" d="M1660.67,-218.496C1649.83,-208.641 1635.31,-195.439 1623.15,-184.383"/>
<polygon fill="black" stroke="black" points="1625.32,-181.622 1615.56,-177.485 1620.61,-186.802 1625.32,-181.622"/>
</g>
<!-- 813 -->
<g id="node55" class="node"><title>813</title>
<ellipse fill="#91e15b" stroke="black" cx="1676.63" cy="-162" rx="28.6953" ry="18"/>
<text text-anchor="middle" x="1676.63" y="-158.3" font-family="Times,serif" font-size="14.00">FR&#45;3</text>
</g>
<!-- 82&#45;&gt;813 -->
<g id="edge64" class="edge"><title>82&#45;&gt;813</title>
<path fill="none" stroke="black" d="M1676.63,-215.697C1676.63,-207.983 1676.63,-198.712 1676.63,-190.112"/>
<polygon fill="black" stroke="black" points="1680.13,-190.104 1676.63,-180.104 1673.13,-190.104 1680.13,-190.104"/>
</g>
<!-- 831 -->
<g id="node59" class="node"><title>831</title>
<ellipse fill="#e1c662" stroke="black" cx="1662.63" cy="-18" rx="30.5947" ry="18"/>
<text text-anchor="middle" x="1662.63" y="-14.3" font-family="Times,serif" font-size="14.00">UC&#45;1</text>
</g>
<!-- 82&#45;&gt;831 -->
<g id="edge65" class="edge"><title>82&#45;&gt;831</title>
<path fill="none" stroke="black" d="M1646.71,-228.664C1618.82,-222.86 1578.72,-209.611 1559.63,-180 1551.22,-166.956 1547.91,-93.9945 1561.63,-72 1575.6,-49.6064 1602.39,-36.1646 1624.88,-28.4233"/>
<polygon fill="black" stroke="black" points="1626.06,-31.7215 1634.52,-25.3505 1623.93,-25.0519 1626.06,-31.7215"/>
</g>
<!-- 832 -->
<g id="node60" class="node"><title>832</title>
<ellipse fill="#e1c662" stroke="black" cx="1676.63" cy="-90" rx="30.5947" ry="18"/>
<text text-anchor="middle" x="1676.63" y="-86.3" font-family="Times,serif" font-size="14.00">UC&#45;2</text>
</g>
<!-- 82&#45;&gt;832 -->
<g id="edge66" class="edge"><title>82&#45;&gt;832</title>
<path fill="none" stroke="black" d="M1691.52,-217.756C1700.1,-207.875 1710.06,-194.228 1714.63,-180 1719.53,-164.768 1719.53,-159.232 1714.63,-144 1711.16,-133.218 1704.6,-122.77 1697.9,-114.041"/>
<polygon fill="black" stroke="black" points="1700.56,-111.768 1691.52,-106.244 1695.14,-116.2 1700.56,-111.768"/>
</g>
<!-- 811 -->
<g id="node53" class="node"><title>811</title>
<ellipse fill="#91e15b" stroke="black" cx="1861.63" cy="-18" rx="28.6953" ry="18"/>
<text text-anchor="middle" x="1861.63" y="-14.3" font-family="Times,serif" font-size="14.00">FR&#45;1</text>
</g>
<!-- 83&#45;&gt;811 -->
<g id="edge70" class="edge"><title>83&#45;&gt;811</title>
<path fill="none" stroke="black" d="M1823.96,-221.693C1839.6,-212.737 1859.04,-198.633 1868.63,-180 1890.69,-137.123 1879.87,-79.0065 1870.45,-45.6035"/>
<polygon fill="black" stroke="black" points="1873.7,-44.2559 1867.48,-35.6774 1866.99,-46.2609 1873.7,-44.2559"/>
</g>
<!-- 821 -->
<g id="node56" class="node"><title>821</title>
<ellipse fill="#93ddbe" stroke="black" cx="1829.63" cy="-162" rx="29.795" ry="18"/>
<text text-anchor="middle" x="1829.63" y="-158.3" font-family="Times,serif" font-size="14.00">BR&#45;1</text>
</g>
<!-- 83&#45;&gt;821 -->
<g id="edge69" class="edge"><title>83&#45;&gt;821</title>
<path fill="none" stroke="black" d="M1807.5,-216.411C1810.85,-208.335 1814.95,-198.431 1818.71,-189.355"/>
<polygon fill="black" stroke="black" points="1822.01,-190.534 1822.6,-179.956 1815.54,-187.855 1822.01,-190.534"/>
</g>
<!-- 822 -->
<g id="node57" class="node"><title>822</title>
<ellipse fill="#93ddbe" stroke="black" cx="1754.63" cy="-90" rx="29.795" ry="18"/>
<text text-anchor="middle" x="1754.63" y="-86.3" font-family="Times,serif" font-size="14.00">BR&#45;2</text>
</g>
<!-- 83&#45;&gt;822 -->
<g id="edge68" class="edge"><title>83&#45;&gt;822</title>
<path fill="none" stroke="black" d="M1795.17,-216.153C1787.29,-191.813 1772.63,-146.568 1763.27,-117.665"/>
<polygon fill="black" stroke="black" points="1766.49,-116.26 1760.08,-107.825 1759.83,-118.417 1766.49,-116.26"/>
</g>
<!-- 812 -->
<g id="node54" class="node"><title>812</title>
<ellipse fill="#91e15b" stroke="black" cx="1599.63" cy="-90" rx="28.6953" ry="18"/>
<text text-anchor="middle" x="1599.63" y="-86.3" font-family="Times,serif" font-size="14.00">FR&#45;2</text>
</g>
<!-- 833&#45;&gt;812 -->
<g id="edge63" class="edge"><title>833&#45;&gt;812</title>
<path fill="none" stroke="black" d="M1599.63,-143.697C1599.63,-135.983 1599.63,-126.712 1599.63,-118.112"/>
<polygon fill="black" stroke="black" points="1603.13,-118.104 1599.63,-108.104 1596.13,-118.104 1603.13,-118.104"/>
</g>
<!-- 813&#45;&gt;832 -->
<g id="edge75" class="edge"><title>813&#45;&gt;832</title>
<path fill="none" stroke="black" d="M1676.63,-143.697C1676.63,-135.983 1676.63,-126.712 1676.63,-118.112"/>
<polygon fill="black" stroke="black" points="1680.13,-118.104 1676.63,-108.104 1673.13,-118.104 1680.13,-118.104"/>
</g>
<!-- 821&#45;&gt;822 -->
<g id="edge71" class="edge"><title>821&#45;&gt;822</title>
<path fill="none" stroke="black" d="M1814.09,-146.496C1803.53,-136.641 1789.38,-123.439 1777.54,-112.383"/>
<polygon fill="black" stroke="black" points="1779.85,-109.75 1770.15,-105.485 1775.07,-114.867 1779.85,-109.75"/>
</g>
<!-- 823 -->
<g id="node58" class="node"><title>823</title>
<ellipse fill="#93ddbe" stroke="black" cx="1832.63" cy="-90" rx="29.795" ry="18"/>
<text text-anchor="middle" x="1832.63" y="-86.3" font-family="Times,serif" font-size="14.00">BR&#45;3</text>
</g>
<!-- 821&#45;&gt;823 -->
<g id="edge72" class="edge"><title>821&#45;&gt;823</title>
<path fill="none" stroke="black" d="M1830.37,-143.697C1830.7,-135.983 1831.1,-126.712 1831.47,-118.112"/>
<polygon fill="black" stroke="black" points="1834.96,-118.245 1831.9,-108.104 1827.97,-117.945 1834.96,-118.245"/>
</g>
<!-- 823&#45;&gt;811 -->
<g id="edge74" class="edge"><title>823&#45;&gt;811</title>
<path fill="none" stroke="black" d="M1839.5,-72.411C1842.85,-64.3352 1846.95,-54.4312 1850.71,-45.3547"/>
<polygon fill="black" stroke="black" points="1854.01,-46.5344 1854.6,-35.9562 1847.54,-43.8552 1854.01,-46.5344"/>
</g>
<!-- 823&#45;&gt;831 -->
<g id="edge73" class="edge"><title>823&#45;&gt;831</title>
<path fill="none" stroke="black" d="M1809.16,-78.6504C1804.05,-76.4308 1798.67,-74.1172 1793.63,-72 1760.94,-58.2645 1723.4,-43.1445 1696.91,-32.5816"/>
<polygon fill="black" stroke="black" points="1697.92,-29.2156 1687.34,-28.7688 1695.33,-35.7193 1697.92,-29.2156"/>
</g>
</g>
</svg>
