<?xml version="1.0" encoding="UTF-8" standalone="no"?>
<!DOCTYPE svg PUBLIC "-//W3C//DTD SVG 1.1//EN"
 "http://www.w3.org/Graphics/SVG/1.1/DTD/svg11.dtd">
<!-- Generated by graphviz version 2.40.1 (20161225.0304)
 -->
<!-- Title: G Pages: 1 -->
<svg width="359pt" height="437pt"
 viewBox="0.00 0.00 359.04 437.00" xmlns="http://www.w3.org/2000/svg" xmlns:xlink="http://www.w3.org/1999/xlink">
<g id="graph0" class="graph" transform="scale(1 1) rotate(0) translate(4 433)">
<title>G</title>
<polygon fill="#ffffff" stroke="transparent" points="-4,4 -4,-433 355.0444,-433 355.0444,4 -4,4"/>
<!-- Start -->
<g id="node1" class="node">
<title>Start</title>
<ellipse fill="#e6e6e6" stroke="#000000" cx="63.0444" cy="-411" rx="34.394" ry="18"/>
<text text-anchor="middle" x="63.0444" y="-407.3" font-family="Times,serif" font-size="14.00" fill="#000000">Start</text>
</g>
<!-- ReadDbVer -->
<g id="node5" class="node">
<title>ReadDbVer</title>
<ellipse fill="#bbee77" stroke="#000000" cx="63.0444" cy="-338" rx="63.0888" ry="18"/>
<text text-anchor="middle" x="63.0444" y="-334.3" font-family="Times,serif" font-size="14.00" fill="#000000">ReadDbVer</text>
</g>
<!-- Start&#45;&gt;ReadDbVer -->
<g id="edge1" class="edge">
<title>Start&#45;&gt;ReadDbVer</title>
<path fill="none" stroke="#000000" d="M63.0444,-392.9551C63.0444,-384.8828 63.0444,-375.1764 63.0444,-366.1817"/>
<polygon fill="#000000" stroke="#000000" points="66.5445,-366.0903 63.0444,-356.0904 59.5445,-366.0904 66.5445,-366.0903"/>
</g>
<!-- Respond -->
<g id="node2" class="node">
<title>Respond</title>
<ellipse fill="#bbee77" stroke="#000000" cx="271.0444" cy="-18" rx="50.8918" ry="18"/>
<text text-anchor="middle" x="271.0444" y="-14.3" font-family="Times,serif" font-size="14.00" fill="#000000">Respond</text>
</g>
<!-- DB -->
<g id="node3" class="node">
<title>DB</title>
<ellipse fill="#ddddff" stroke="#000000" cx="68.0444" cy="-18" rx="27" ry="18"/>
<text text-anchor="middle" x="68.0444" y="-14.3" font-family="Times,serif" font-size="14.00" fill="#000000">DB</text>
</g>
<!-- Redis -->
<g id="node4" class="node">
<title>Redis</title>
<ellipse fill="#ddddff" stroke="#000000" cx="166.0444" cy="-18" rx="36.2938" ry="18"/>
<text text-anchor="middle" x="166.0444" y="-14.3" font-family="Times,serif" font-size="14.00" fill="#000000">Redis</text>
</g>
<!-- ReadDbVer&#45;&gt;DB -->
<g id="edge7" class="edge">
<title>ReadDbVer&#45;&gt;DB</title>
<path fill="none" stroke="#ccccff" stroke-dasharray="5,2" d="M58.3705,-319.8356C55.0011,-305.1478 51.0444,-283.8802 51.0444,-265 51.0444,-265 51.0444,-265 51.0444,-91 51.0444,-71.7412 56.7263,-50.3517 61.5204,-35.732"/>
</g>
<!-- ReadRedis -->
<g id="node6" class="node">
<title>ReadRedis</title>
<ellipse fill="#bbee77" stroke="#000000" cx="161.0444" cy="-265" rx="59.5901" ry="18"/>
<text text-anchor="middle" x="161.0444" y="-261.3" font-family="Times,serif" font-size="14.00" fill="#000000">ReadRedis</text>
</g>
<!-- ReadDbVer&#45;&gt;ReadRedis -->
<g id="edge2" class="edge">
<title>ReadDbVer&#45;&gt;ReadRedis</title>
<path fill="none" stroke="#000000" d="M85.7739,-321.0688C99.0086,-311.2104 115.8734,-298.6478 130.2834,-287.9138"/>
<polygon fill="#000000" stroke="#000000" points="132.5094,-290.62 138.4382,-281.8393 128.3277,-285.0063 132.5094,-290.62"/>
</g>
<!-- ReadRedis&#45;&gt;Respond -->
<g id="edge3" class="edge">
<title>ReadRedis&#45;&gt;Respond</title>
<path fill="none" stroke="#000000" d="M207.1086,-253.3964C219.9251,-247.9999 232.6251,-240.2004 241.0444,-229 281.8141,-174.7633 279.5686,-89.9597 275.0139,-46.2112"/>
<polygon fill="#000000" stroke="#000000" points="278.4896,-45.7984 273.863,-36.2672 271.536,-46.6033 278.4896,-45.7984"/>
<text text-anchor="middle" x="313.0444" y="-130.8" font-family="Times,serif" font-size="14.00" fill="#000000">redis = db</text>
</g>
<!-- ReadDbFull -->
<g id="node7" class="node">
<title>ReadDbFull</title>
<ellipse fill="#bbee77" stroke="#000000" cx="161.0444" cy="-178" rx="65.7887" ry="18"/>
<text text-anchor="middle" x="161.0444" y="-174.3" font-family="Times,serif" font-size="14.00" fill="#000000">ReadDbFull</text>
</g>
<!-- ReadRedis&#45;&gt;ReadDbFull -->
<g id="edge4" class="edge">
<title>ReadRedis&#45;&gt;ReadDbFull</title>
<path fill="none" stroke="#000000" d="M161.0444,-246.9735C161.0444,-235.1918 161.0444,-219.5607 161.0444,-206.1581"/>
<polygon fill="#000000" stroke="#000000" points="164.5445,-206.0033 161.0444,-196.0034 157.5445,-206.0034 164.5445,-206.0033"/>
<text text-anchor="middle" x="199.0444" y="-217.8" font-family="Times,serif" font-size="14.00" fill="#000000">redis &lt; db</text>
</g>
<!-- ReadDbFull&#45;&gt;DB -->
<g id="edge8" class="edge">
<title>ReadDbFull&#45;&gt;DB</title>
<path fill="none" stroke="#ccccff" stroke-dasharray="5,2" d="M145.6137,-160.4011C134.2969,-146.9386 119.0491,-127.5869 108.0444,-109 93.7132,-84.7947 81.4155,-54.5209 74.3717,-35.7196"/>
</g>
<!-- WriteRedis -->
<g id="node8" class="node">
<title>WriteRedis</title>
<ellipse fill="#bbee77" stroke="#000000" cx="180.0444" cy="-91" rx="63.0888" ry="18"/>
<text text-anchor="middle" x="180.0444" y="-87.3" font-family="Times,serif" font-size="14.00" fill="#000000">WriteRedis</text>
</g>
<!-- ReadDbFull&#45;&gt;WriteRedis -->
<g id="edge5" class="edge">
<title>ReadDbFull&#45;&gt;WriteRedis</title>
<path fill="none" stroke="#000000" d="M164.9812,-159.9735C167.5542,-148.1918 170.9679,-132.5607 173.8949,-119.1581"/>
<polygon fill="#000000" stroke="#000000" points="177.3983,-119.5199 176.1126,-109.0034 170.5595,-118.0263 177.3983,-119.5199"/>
</g>
<!-- WriteRedis&#45;&gt;Respond -->
<g id="edge6" class="edge">
<title>WriteRedis&#45;&gt;Respond</title>
<path fill="none" stroke="#000000" d="M201.6101,-73.7C213.7971,-63.9236 229.1867,-51.5782 242.3784,-40.9958"/>
<polygon fill="#000000" stroke="#000000" points="244.6496,-43.6609 250.2599,-34.6733 240.2694,-38.2006 244.6496,-43.6609"/>
</g>
<!-- WriteRedis&#45;&gt;Redis -->
<g id="edge9" class="edge">
<title>WriteRedis&#45;&gt;Redis</title>
<path fill="none" stroke="#ccccff" stroke-dasharray="5,2" d="M176.5837,-72.9551C174.4299,-61.7241 171.6693,-47.3298 169.5138,-36.0904"/>
</g>
</g>
</svg>
