<?xml version="1.0" encoding="UTF-8" standalone="no"?>
<!DOCTYPE svg PUBLIC "-//W3C//DTD SVG 1.1//EN"
 "http://www.w3.org/Graphics/SVG/1.1/DTD/svg11.dtd">
<!-- Generated by graphviz version 2.40.1 (20161225.0304)
 -->
<!-- Title: G Pages: 1 -->
<svg width="320pt" height="510pt"
 viewBox="0.00 0.00 319.84 510.00" xmlns="http://www.w3.org/2000/svg" xmlns:xlink="http://www.w3.org/1999/xlink">
<g id="graph0" class="graph" transform="scale(1 1) rotate(0) translate(4 506)">
<title>G</title>
<polygon fill="#ffffff" stroke="transparent" points="-4,4 -4,-506 315.8449,-506 315.8449,4 -4,4"/>
<!-- Start -->
<g id="node1" class="node">
<title>Start</title>
<ellipse fill="#e6e6e6" stroke="#000000" cx="57.8449" cy="-484" rx="34.394" ry="18"/>
<text text-anchor="middle" x="57.8449" y="-480.3" font-family="Times,serif" font-size="14.00" fill="#000000">Start</text>
</g>
<!-- Subscribe -->
<g id="node5" class="node">
<title>Subscribe</title>
<ellipse fill="#bbee77" stroke="#000000" cx="57.8449" cy="-411" rx="57.6901" ry="18"/>
<text text-anchor="middle" x="57.8449" y="-407.3" font-family="Times,serif" font-size="14.00" fill="#000000">Subscribe</text>
</g>
<!-- Start&#45;&gt;Subscribe -->
<g id="edge1" class="edge">
<title>Start&#45;&gt;Subscribe</title>
<path fill="none" stroke="#000000" d="M57.8449,-465.9551C57.8449,-457.8828 57.8449,-448.1764 57.8449,-439.1817"/>
<polygon fill="#000000" stroke="#000000" points="61.345,-439.0903 57.8449,-429.0904 54.345,-439.0904 61.345,-439.0903"/>
</g>
<!-- Respond -->
<g id="node2" class="node">
<title>Respond</title>
<ellipse fill="#bbee77" stroke="#000000" cx="159.8449" cy="-18" rx="50.8918" ry="18"/>
<text text-anchor="middle" x="159.8449" y="-14.3" font-family="Times,serif" font-size="14.00" fill="#000000">Respond</text>
</g>
<!-- DB -->
<g id="node3" class="node">
<title>DB</title>
<ellipse fill="#ddddff" stroke="#000000" cx="284.8449" cy="-18" rx="27" ry="18"/>
<text text-anchor="middle" x="284.8449" y="-14.3" font-family="Times,serif" font-size="14.00" fill="#000000">DB</text>
</g>
<!-- Redis -->
<g id="node4" class="node">
<title>Redis</title>
<ellipse fill="#ddddff" stroke="#000000" cx="48.8449" cy="-18" rx="36.2938" ry="18"/>
<text text-anchor="middle" x="48.8449" y="-14.3" font-family="Times,serif" font-size="14.00" fill="#000000">Redis</text>
</g>
<!-- Subscribe&#45;&gt;Redis -->
<g id="edge11" class="edge">
<title>Subscribe&#45;&gt;Redis</title>
<path fill="none" stroke="#ccccff" stroke-dasharray="5,2" d="M53.171,-392.8356C49.8016,-378.1478 45.8449,-356.8802 45.8449,-338 45.8449,-338 45.8449,-338 45.8449,-91 45.8449,-72.2272 46.8476,-50.7618 47.6936,-35.9915"/>
</g>
<!-- ReadDbVer -->
<g id="node6" class="node">
<title>ReadDbVer</title>
<ellipse fill="#bbee77" stroke="#000000" cx="147.8449" cy="-338" rx="63.0888" ry="18"/>
<text text-anchor="middle" x="147.8449" y="-334.3" font-family="Times,serif" font-size="14.00" fill="#000000">ReadDbVer</text>
</g>
<!-- Subscribe&#45;&gt;ReadDbVer -->
<g id="edge2" class="edge">
<title>Subscribe&#45;&gt;ReadDbVer</title>
<path fill="none" stroke="#000000" d="M78.7189,-394.0688C90.6736,-384.3723 105.8535,-372.0596 118.9412,-361.4441"/>
<polygon fill="#000000" stroke="#000000" points="121.2107,-364.1099 126.7723,-355.0922 116.801,-358.6734 121.2107,-364.1099"/>
</g>
<!-- ReadDbVer&#45;&gt;DB -->
<g id="edge8" class="edge">
<title>ReadDbVer&#45;&gt;DB</title>
<path fill="none" stroke="#ccccff" stroke-dasharray="5,2" d="M194.65,-325.7462C240.6008,-312.3014 303.8449,-289.3701 303.8449,-265 303.8449,-265 303.8449,-265 303.8449,-91 303.8449,-71.4872 297.4084,-49.959 292.028,-35.3716"/>
</g>
<!-- ReadRedis -->
<g id="node7" class="node">
<title>ReadRedis</title>
<ellipse fill="#bbee77" stroke="#000000" cx="147.8449" cy="-265" rx="59.5901" ry="18"/>
<text text-anchor="middle" x="147.8449" y="-261.3" font-family="Times,serif" font-size="14.00" fill="#000000">ReadRedis</text>
</g>
<!-- ReadDbVer&#45;&gt;ReadRedis -->
<g id="edge3" class="edge">
<title>ReadDbVer&#45;&gt;ReadRedis</title>
<path fill="none" stroke="#000000" d="M147.8449,-319.9551C147.8449,-311.8828 147.8449,-302.1764 147.8449,-293.1817"/>
<polygon fill="#000000" stroke="#000000" points="151.345,-293.0903 147.8449,-283.0904 144.345,-293.0904 151.345,-293.0903"/>
</g>
<!-- ReadRedis&#45;&gt;Respond -->
<g id="edge4" class="edge">
<title>ReadRedis&#45;&gt;Respond</title>
<path fill="none" stroke="#000000" d="M133.2029,-247.4725C122.9502,-234.1991 109.8735,-215.0532 102.8449,-196 92.1768,-167.0809 93.8595,-157.7601 95.8449,-127 97.4037,-102.8494 91.9693,-94.6194 102.8449,-73 108.9889,-60.7863 118.9579,-49.7638 128.8542,-40.8495"/>
<polygon fill="#000000" stroke="#000000" points="131.3549,-43.3171 136.7008,-34.1698 126.8174,-37.9869 131.3549,-43.3171"/>
<text text-anchor="middle" x="133.8449" y="-130.8" font-family="Times,serif" font-size="14.00" fill="#000000">redis = db</text>
</g>
<!-- ReadDbFull -->
<g id="node8" class="node">
<title>ReadDbFull</title>
<ellipse fill="#bbee77" stroke="#000000" cx="177.8449" cy="-178" rx="65.7887" ry="18"/>
<text text-anchor="middle" x="177.8449" y="-174.3" font-family="Times,serif" font-size="14.00" fill="#000000">ReadDbFull</text>
</g>
<!-- ReadRedis&#45;&gt;ReadDbFull -->
<g id="edge5" class="edge">
<title>ReadRedis&#45;&gt;ReadDbFull</title>
<path fill="none" stroke="#000000" d="M154.0609,-246.9735C158.1638,-235.0751 163.6205,-219.2508 168.2722,-205.7606"/>
<polygon fill="#000000" stroke="#000000" points="171.6856,-206.5981 171.6368,-196.0034 165.068,-204.3161 171.6856,-206.5981"/>
<text text-anchor="middle" x="201.8449" y="-217.8" font-family="Times,serif" font-size="14.00" fill="#000000">redis &lt; db</text>
</g>
<!-- ReadDbFull&#45;&gt;DB -->
<g id="edge9" class="edge">
<title>ReadDbFull&#45;&gt;DB</title>
<path fill="none" stroke="#ccccff" stroke-dasharray="5,2" d="M199.0557,-160.7501C213.9644,-147.7588 233.5455,-128.8422 246.8449,-109 262.4777,-85.6764 273.6762,-54.8897 279.7061,-35.7741"/>
</g>
<!-- WriteRedis -->
<g id="node9" class="node">
<title>WriteRedis</title>
<ellipse fill="#bbee77" stroke="#000000" cx="174.8449" cy="-91" rx="63.0888" ry="18"/>
<text text-anchor="middle" x="174.8449" y="-87.3" font-family="Times,serif" font-size="14.00" fill="#000000">WriteRedis</text>
</g>
<!-- ReadDbFull&#45;&gt;WriteRedis -->
<g id="edge6" class="edge">
<title>ReadDbFull&#45;&gt;WriteRedis</title>
<path fill="none" stroke="#000000" d="M177.2233,-159.9735C176.817,-148.1918 176.278,-132.5607 175.8158,-119.1581"/>
<polygon fill="#000000" stroke="#000000" points="179.3083,-118.8768 175.4657,-109.0034 172.3125,-119.1181 179.3083,-118.8768"/>
</g>
<!-- WriteRedis&#45;&gt;Respond -->
<g id="edge7" class="edge">
<title>WriteRedis&#45;&gt;Respond</title>
<path fill="none" stroke="#000000" d="M171.137,-72.9551C169.4603,-64.7951 167.4405,-54.9652 165.5754,-45.8887"/>
<polygon fill="#000000" stroke="#000000" points="169.0033,-45.1812 163.5621,-36.0904 162.1465,-46.5902 169.0033,-45.1812"/>
</g>
<!-- WriteRedis&#45;&gt;Redis -->
<g id="edge10" class="edge">
<title>WriteRedis&#45;&gt;Redis</title>
<path fill="none" stroke="#ccccff" stroke-dasharray="5,2" d="M146.8814,-74.7989C124.551,-61.8615 93.6097,-43.9352 72.4983,-31.704"/>
</g>
</g>
</svg>
