<svg version="1" xmlns="http://www.w3.org/2000/svg" width="933.333" height="933.333" viewBox="0 0 700.000000 700.000000"><path d="M318.5 4.1c-65.9 6.1-130.2 32.3-183 74.5-13.3 10.6-40.1 37.3-50.6 50.4-76.5 95.1-98.7 220.3-59.4 335C60.3 565.3 140.4 645.4 241 679.3c32.6 11 62.2 16.3 96.8 17.4l20.2.6V502.1l-20.4-14c-11.3-7.8-21.1-14.1-21.8-14.1-.7.1-10.3 6.3-21.3 13.9l-20 13.8.3 11 .4 10.9-35.8 12.9-35.8 12.9-11.2-3.8c-14.2-4.8-21.4-8.2-19.4-9 .8-.3 22.9-8.2 49-17.7 26.1-9.4 47.6-17.2 47.8-17.3.4-.5-4.4-50.5-4.9-51.1-.3-.3-27.6 9.2-60.6 21.2l-60.1 21.6-1.2 14.3-1.3 14.3-2.8-1.5c-6.6-3.4-24.1-17.5-33.4-26.9-21.9-22.2-36.8-48.9-45-80.8-5.8-22.8-6.9-33.5-7-66.2 0-29.5.9-43 4.6-67 13.4-87.8 53.2-157.1 118.3-206C220 40.9 275.8 17.4 338 5.6l12.5-2.4H339c-6.3.1-15.5.4-20.5.9zM364.5 5.7c.2 1.5.6 6.2.9 10.4 1.3 17.9 9.5 46.7 21.5 74.9 6.4 14.9 21.9 46.8 29.1 59.7l4.1 7.3h215.1l-4.7-6.8C591.6 95.5 535.9 51.1 474 26.5 441.4 13.6 411.7 7 371.3 3.5l-7.3-.6.5 2.8z"/><path d="M197.9 125.4c-13.1 3.5-23.7 15.6-25.5 29l-.7 4.6h35.2c19.3 0 35.1-.2 35.1-.5 0-.2-.5-2.8-1.1-5.7-2.9-13.6-12.6-23.9-25.6-27.3-6.8-1.8-11.2-1.8-17.4-.1zM155 175v8h104v-16H155v8zM272.5 175.6c1.1.2 21.4 2.4 45 4.9 23.7 2.5 57.6 6.1 75.5 8 17.9 1.9 60.4 6.4 94.5 10 34.1 3.6 66.1 7 71 7.5 5 .6 30.4 3.3 56.5 6s48.5 5.1 49.8 5.3c1.2.3 2.2.2 2.2 0 0-1.1-10.5-23.1-15.2-31.8l-5.4-10-188-.1c-103.3-.1-187 0-185.9.2zM171.6 195.7c-1 6.7-2.8 30.1-2.5 31.1.2.5 16.7-4.9 36.7-12.1l36.2-13.1V192h-69.8l-.6 3.7zM450 211.5c0 .3 6.7 12.3 14.9 26.8 45.2 79.9 67.6 126.6 82.4 172.2 21.3 65.5 20.8 117.1-1.4 162-7.6 15.4-16.8 28.2-29.9 41.8-30.3 31.5-70.8 55.2-130.5 76.3-13.9 4.9-14.7 5.3-10.3 5.3 12 .2 44.4-5.4 66.1-11.4 36.9-10.1 78-30.1 110-53.5 52.6-38.5 93.7-91.9 118-153.5 9.9-25.1 17-52.9 21.4-83.6 2.6-18.1 2.5-69.2 0-87.4-2.6-18.1-7.1-39.6-11.2-52.8-6.3-20.4-5.2-18.4-10.4-19.1-2.5-.3-51.6-5.5-109.1-11.6-57.5-6-105.7-11.2-107.2-11.5-1.6-.2-2.8-.2-2.8 0zM205.5 238.3c-21.4 7.7-39.1 14.1-39.1 14.1-.4.3-5.2 55.1-4.9 55.4.2.2 20.1-6.7 44.2-15.4l43.9-15.8-2.3-24.5c-1.2-13.5-2.4-25.3-2.5-26.2-.2-1.4-7.2.8-39.3 12.4zM204.8 316.3c-24.6 8.9-44.9 16.5-45.3 16.8-.7.8-5.7 54-5.1 54.6.4.4 100.6-35.4 101.5-36.2.9-.9-4.3-51.5-5.3-51.4-.6 0-21.2 7.3-45.8 16.2zM203.7 394c-28.5 10.3-51.9 18.9-52.1 19.1-.3.4-5.4 55.2-5.2 55.6.2.3 115.8-41.5 116.3-42.1.3-.3-.5-12-1.8-26-1.9-21.7-2.5-25.6-3.8-25.5-.9 0-24.9 8.5-53.4 18.9z"/></svg>