<?xml version="1.0" encoding="UTF-8" standalone="no"?>
<!DOCTYPE svg PUBLIC "-//W3C//DTD SVG 1.1//EN"
 "http://www.w3.org/Graphics/SVG/1.1/DTD/svg11.dtd">
<!-- Generated by graphviz version 2.36.0 (20140111.2315)
 -->
<!-- Title: G Pages: 1 -->
<svg width="946pt" height="550pt"
 viewBox="0.00 0.00 946.00 550.00" xmlns="http://www.w3.org/2000/svg" xmlns:xlink="http://www.w3.org/1999/xlink">
<g id="graph0" class="graph" transform="scale(1 1) rotate(0) translate(4 546)">
<title>G</title>
<polygon fill="white" stroke="none" points="-4,4 -4,-546 942,-546 942,4 -4,4"/>
<text text-anchor="middle" x="469" y="-526.8" font-family="Times,serif" font-size="14.00">ShipReq System Diagram</text>
<text text-anchor="middle" x="469" y="-511.8" font-family="Times,serif" font-size="14.00">(arrows denote flow of data from one component to another)</text>
<text text-anchor="middle" x="469" y="-496.8" font-family="Times,serif" font-size="14.00">(ignores which component instigates the data transfer)</text>
<text text-anchor="middle" x="469" y="-481.8" font-family="Times,serif" font-size="14.00">(red = email from user, blue = email to user)</text>
<g id="clust1" class="cluster"><title>cluster_usr</title>
<polygon fill="#eeeeaa" stroke="black" points="632,-8 632,-235 734,-235 734,-8 632,-8"/>
<text text-anchor="middle" x="683" y="-219.8" font-family="Times,serif" font-size="14.00">Userland</text>
</g>
<g id="clust2" class="cluster"><title>cluster_gandi</title>
<polygon fill="#e8e8e8" stroke="black" points="8,-84 8,-235 414,-235 414,-84 8,-84"/>
<text text-anchor="middle" x="211" y="-219.8" font-family="Times,serif" font-size="14.00">gandi.net</text>
</g>
<g id="clust3" class="cluster"><title>cluster_aws</title>
<polygon fill="#e8e8e8" stroke="black" points="583,-245 583,-466 726,-466 726,-245 583,-245"/>
<text text-anchor="middle" x="654.5" y="-450.8" font-family="Times,serif" font-size="14.00">Amazon Web Services</text>
</g>
<g id="clust5" class="cluster"><title>cluster_mc</title>
<polygon fill="#e8e8e8" stroke="black" points="778,-8 778,-234 888,-234 888,-8 778,-8"/>
<text text-anchor="middle" x="833" y="-218.8" font-family="Times,serif" font-size="14.00">MailChimp</text>
</g>
<g id="clust6" class="cluster"><title>cluster_fd</title>
<polygon fill="#e8e8e8" stroke="black" points="472,-8 472,-234 624,-234 624,-8 472,-8"/>
<text text-anchor="middle" x="548" y="-218.8" font-family="Times,serif" font-size="14.00">Freshdesk</text>
</g>
<g id="clust7" class="cluster"><title>cluster_crm</title>
<polygon fill="#e8e8e8" stroke="black" points="778,-243 778,-466 930,-466 930,-243 778,-243"/>
<text text-anchor="middle" x="854" y="-450.8" font-family="Times,serif" font-size="14.00">Insightly</text>
</g>
<!-- gmail -->
<g id="node1" class="node"><title>gmail</title>
<polygon fill="#aabbff" stroke="black" points="464,-55 461,-59 440,-59 437,-55 388,-55 388,-17 464,-17 464,-55"/>
<text text-anchor="middle" x="426" y="-39.8" font-family="Times,serif" font-size="14.00">shipreq@</text>
<text text-anchor="middle" x="426" y="-24.8" font-family="Times,serif" font-size="14.00">gmail.com</text>
</g>
<!-- usr_web -->
<g id="node2" class="node"><title>usr_web</title>
<polygon fill="#ccaa66" stroke="black" points="726,-130 652,-130 652,-134 640,-134 640,-92 726,-92 726,-130"/>
<polyline fill="none" stroke="black" points="640,-130 652,-130 "/>
<text text-anchor="middle" x="683" y="-114.8" font-family="Times,serif" font-size="14.00">User&#39;s</text>
<text text-anchor="middle" x="683" y="-99.8" font-family="Times,serif" font-size="14.00">web browser</text>
</g>
<!-- usr -->
<g id="node4" class="node"><title>usr</title>
<polygon fill="#ccaa66" stroke="black" points="684.5,-42 686,-43.5 686,-46.5 684.5,-48 681.5,-48 680,-46.5 680,-43.5 681.5,-42 684.5,-42"/>
<polyline fill="none" stroke="black" points="683,-42 683,-36 "/>
<polyline fill="none" stroke="black" points="656,-36 710,-36 "/>
<text text-anchor="middle" x="683" y="-24.3" font-family="Times,serif" font-size="14.00">User</text>
</g>
<!-- usr_web&#45;&gt;usr -->
<g id="edge22" class="edge"><title>usr_web&#45;&gt;usr</title>
<path fill="none" stroke="red" d="M676.405,-81.7387C676.07,-72.9716 676.278,-63.5353 677.031,-55.5995"/>
<polygon fill="red" stroke="red" points="677.084,-91.9551 671.931,-82.2756 676.753,-86.9661 676.421,-81.9771 676.421,-81.9771 676.421,-81.9771 676.753,-86.9661 680.911,-81.6786 677.084,-91.9551 677.084,-91.9551"/>
</g>
<!-- usr_web&#45;&gt;usr -->
<g id="edge38" class="edge"><title>usr_web&#45;&gt;usr</title>
<path fill="none" stroke="#000099" d="M688.916,-91.9551C689.702,-84.0042 689.933,-74.4679 689.607,-65.588"/>
<polygon fill="#000099" stroke="#000099" points="688.969,-55.5995 694.097,-65.2925 689.288,-60.5894 689.607,-65.5792 689.607,-65.5792 689.607,-65.5792 689.288,-60.5894 685.116,-65.8659 688.969,-55.5995 688.969,-55.5995"/>
</g>
<!-- wb -->
<g id="node11" class="node"><title>wb</title>
<ellipse fill="pink" stroke="black" cx="654" cy="-417" rx="38.0212" ry="18"/>
<text text-anchor="middle" x="654" y="-413.3" font-family="Times,serif" font-size="14.00">webapp</text>
</g>
<!-- usr_web&#45;&gt;wb -->
<g id="edge23" class="edge"><title>usr_web&#45;&gt;wb</title>
<path fill="none" stroke="red" d="M691.515,-130.041C695.898,-140.326 700.778,-153.601 703,-166 718.481,-252.37 723.169,-281.765 690,-363 685.9,-373.041 679.702,-383.121 673.597,-391.754"/>
<polygon fill="red" stroke="red" points="667.606,-399.85 669.937,-389.135 670.58,-395.831 673.554,-391.812 673.554,-391.812 673.554,-391.812 670.58,-395.831 677.172,-394.489 667.606,-399.85 667.606,-399.85"/>
</g>
<!-- usr_mail -->
<g id="node3" class="node"><title>usr_mail</title>
<polygon fill="#ccaaaa" stroke="black" points="694,-204 691,-208 670,-208 667,-204 640,-204 640,-166 694,-166 694,-204"/>
<text text-anchor="middle" x="667" y="-188.8" font-family="Times,serif" font-size="14.00">User&#39;s</text>
<text text-anchor="middle" x="667" y="-173.8" font-family="Times,serif" font-size="14.00">email</text>
</g>
<!-- usr_mail&#45;&gt;usr_web -->
<g id="edge21" class="edge"><title>usr_mail&#45;&gt;usr_web</title>
<path fill="none" stroke="red" d="M666.649,-155.854C668.228,-147.31 670.475,-138.144 672.932,-130.413"/>
<polygon fill="red" stroke="red" points="665.085,-165.831 662.189,-155.255 665.86,-160.892 666.634,-155.952 666.634,-155.952 666.634,-155.952 665.86,-160.892 671.08,-156.649 665.085,-165.831 665.085,-165.831"/>
</g>
<!-- usr_mail&#45;&gt;usr_web -->
<g id="edge37" class="edge"><title>usr_mail&#45;&gt;usr_web</title>
<path fill="none" stroke="#000099" d="M676.99,-165.831C679.451,-158.131 681.707,-148.974 683.3,-140.417"/>
<polygon fill="#000099" stroke="#000099" points="684.884,-130.413 687.765,-140.994 684.102,-135.352 683.32,-140.29 683.32,-140.29 683.32,-140.29 684.102,-135.352 678.876,-139.586 684.884,-130.413 684.884,-130.413"/>
</g>
<!-- ea_contact -->
<g id="node5" class="node"><title>ea_contact</title>
<polygon fill="#a8aab8" stroke="black" points="405.5,-130 402.5,-134 381.5,-134 378.5,-130 322.5,-130 322.5,-92 405.5,-92 405.5,-130"/>
<text text-anchor="middle" x="364" y="-114.8" font-family="Times,serif" font-size="14.00">contact@</text>
<text text-anchor="middle" x="364" y="-99.8" font-family="Times,serif" font-size="14.00">shipreq.com</text>
</g>
<!-- usr_mail&#45;&gt;ea_contact -->
<g id="edge20" class="edge"><title>usr_mail&#45;&gt;ea_contact</title>
<path fill="none" stroke="red" d="M639.62,-170.41C635.773,-168.782 631.826,-167.256 628,-166 589.288,-153.296 481.039,-132.881 415.8,-121.129"/>
<polygon fill="red" stroke="red" points="405.716,-119.32 416.353,-116.657 410.637,-120.203 415.559,-121.086 415.559,-121.086 415.559,-121.086 410.637,-120.203 414.764,-125.515 405.716,-119.32 405.716,-119.32"/>
</g>
<!-- ea_contact&#45;&gt;gmail -->
<g id="edge11" class="edge"><title>ea_contact&#45;&gt;gmail</title>
<path fill="none" stroke="red" d="M379.326,-91.9551C386.778,-83.1809 395.87,-72.4759 404.043,-62.853"/>
<polygon fill="red" stroke="red" points="410.636,-55.0904 407.592,-65.6254 407.399,-58.9014 404.162,-62.7124 404.162,-62.7124 404.162,-62.7124 407.399,-58.9014 400.732,-59.7993 410.636,-55.0904 410.636,-55.0904"/>
</g>
<!-- fd_mail -->
<g id="node16" class="node"><title>fd_mail</title>
<polygon fill="#aabbff" stroke="black" points="543.25,-203 540.25,-207 519.25,-207 516.25,-203 480.75,-203 480.75,-167 543.25,-167 543.25,-203"/>
<text text-anchor="middle" x="512" y="-181.3" font-family="Times,serif" font-size="14.00">Mailbox</text>
</g>
<!-- ea_contact&#45;&gt;fd_mail -->
<g id="edge10" class="edge"><title>ea_contact&#45;&gt;fd_mail</title>
<path fill="none" stroke="red" d="M401.096,-130.047C422.538,-140.478 449.536,-153.612 471.526,-164.31"/>
<polygon fill="red" stroke="red" points="480.613,-168.731 469.652,-168.403 476.117,-166.543 471.621,-164.356 471.621,-164.356 471.621,-164.356 476.117,-166.543 473.589,-160.309 480.613,-168.731 480.613,-168.731"/>
</g>
<!-- ea_news -->
<g id="node6" class="node"><title>ea_news</title>
<polygon fill="#a8aab8" stroke="black" points="201.5,-204 198.5,-208 177.5,-208 174.5,-204 118.5,-204 118.5,-166 201.5,-166 201.5,-204"/>
<text text-anchor="middle" x="160" y="-188.8" font-family="Times,serif" font-size="14.00">news@</text>
<text text-anchor="middle" x="160" y="-173.8" font-family="Times,serif" font-size="14.00">shipreq.com</text>
</g>
<!-- ea_news&#45;&gt;ea_contact -->
<g id="edge13" class="edge"><title>ea_news&#45;&gt;ea_contact</title>
<path fill="none" stroke="red" d="M201.775,-169.256C233.815,-157.947 278.209,-142.279 312.457,-130.192"/>
<polygon fill="red" stroke="red" points="322.281,-126.724 314.349,-134.296 317.566,-128.388 312.851,-130.053 312.851,-130.053 312.851,-130.053 317.566,-128.388 311.354,-125.809 322.281,-126.724 322.281,-126.724"/>
</g>
<!-- ea_notice -->
<g id="node7" class="node"><title>ea_notice</title>
<polygon fill="#a8aab8" stroke="black" points="99.5,-204 96.5,-208 75.5,-208 72.5,-204 16.5,-204 16.5,-166 99.5,-166 99.5,-204"/>
<text text-anchor="middle" x="58" y="-188.8" font-family="Times,serif" font-size="14.00">notice@</text>
<text text-anchor="middle" x="58" y="-173.8" font-family="Times,serif" font-size="14.00">shipreq.com</text>
</g>
<!-- ea_notice&#45;&gt;ea_contact -->
<g id="edge14" class="edge"><title>ea_notice&#45;&gt;ea_contact</title>
<path fill="none" stroke="red" d="M99.6066,-168.817C102.77,-167.816 105.927,-166.864 109,-166 178.431,-146.486 260.245,-130.34 312.114,-120.932"/>
<polygon fill="red" stroke="red" points="322.076,-119.141 313.03,-125.339 317.155,-120.025 312.233,-120.91 312.233,-120.91 312.233,-120.91 317.155,-120.025 311.437,-116.481 322.076,-119.141 322.076,-119.141"/>
</g>
<!-- ea_support -->
<g id="node8" class="node"><title>ea_support</title>
<polygon fill="#a8aab8" stroke="black" points="405.5,-204 402.5,-208 381.5,-208 378.5,-204 322.5,-204 322.5,-166 405.5,-166 405.5,-204"/>
<text text-anchor="middle" x="364" y="-188.8" font-family="Times,serif" font-size="14.00">support@</text>
<text text-anchor="middle" x="364" y="-173.8" font-family="Times,serif" font-size="14.00">shipreq.com</text>
</g>
<!-- ea_support&#45;&gt;ea_contact -->
<g id="edge15" class="edge"><title>ea_support&#45;&gt;ea_contact</title>
<path fill="none" stroke="red" d="M364,-165.831C364,-158.131 364,-148.974 364,-140.417"/>
<polygon fill="red" stroke="red" points="364,-130.413 368.5,-140.413 364,-135.413 364,-140.413 364,-140.413 364,-140.413 364,-135.413 359.5,-140.413 364,-130.413 364,-130.413"/>
</g>
<!-- ea_noreply -->
<g id="node9" class="node"><title>ea_noreply</title>
<polygon fill="#a8aab8" stroke="black" points="303.5,-204 300.5,-208 279.5,-208 276.5,-204 220.5,-204 220.5,-166 303.5,-166 303.5,-204"/>
<text text-anchor="middle" x="262" y="-188.8" font-family="Times,serif" font-size="14.00">no&#45;reply@</text>
<text text-anchor="middle" x="262" y="-173.8" font-family="Times,serif" font-size="14.00">shipreq.com</text>
</g>
<!-- ea_noreply&#45;&gt;ea_contact -->
<g id="edge12" class="edge"><title>ea_noreply&#45;&gt;ea_contact</title>
<path fill="none" stroke="red" d="M287.739,-165.831C300.544,-156.793 316.191,-145.748 329.972,-136.02"/>
<polygon fill="red" stroke="red" points="338.269,-130.163 332.695,-139.606 334.184,-133.046 330.1,-135.93 330.1,-135.93 330.1,-135.93 334.184,-133.046 327.505,-132.253 338.269,-130.163 338.269,-130.163"/>
</g>
<!-- aws_rds -->
<g id="node10" class="node"><title>aws_rds</title>
<ellipse fill="#55cc55" stroke="black" cx="654" cy="-345" rx="27.4223" ry="18"/>
<text text-anchor="middle" x="654" y="-341.3" font-family="Times,serif" font-size="14.00">RDS</text>
</g>
<!-- taskman -->
<g id="node12" class="node"><title>taskman</title>
<ellipse fill="pink" stroke="black" cx="654" cy="-271" rx="39.9464" ry="18"/>
<text text-anchor="middle" x="654" y="-267.3" font-family="Times,serif" font-size="14.00">taskman</text>
</g>
<!-- aws_rds&#45;&gt;taskman -->
<g id="edge25" class="edge"><title>aws_rds&#45;&gt;taskman</title>
<path fill="none" stroke="red" d="M642.643,-328.377C640.564,-319.598 639.998,-308.408 640.944,-298.316"/>
<polygon fill="red" stroke="red" points="642.477,-288.342 645.405,-298.91 641.717,-293.284 640.958,-298.226 640.958,-298.226 640.958,-298.226 641.717,-293.284 636.51,-297.542 642.477,-288.342 642.477,-288.342"/>
</g>
<!-- aws_rds&#45;&gt;taskman -->
<g id="edge40" class="edge"><title>aws_rds&#45;&gt;taskman</title>
<path fill="none" stroke="#000099" d="M665.357,-328.377C667.436,-319.598 668.002,-308.408 667.056,-298.316"/>
<polygon fill="#000099" stroke="#000099" points="665.523,-288.342 671.49,-297.542 666.283,-293.284 667.042,-298.226 667.042,-298.226 667.042,-298.226 666.283,-293.284 662.595,-298.91 665.523,-288.342 665.523,-288.342"/>
</g>
<!-- wb&#45;&gt;usr_web -->
<g id="edge7" class="edge"><title>wb&#45;&gt;usr_web</title>
<path fill="none" stroke="black" d="M692.947,-400.953C709.331,-392.452 726.719,-380.05 736,-363 777.861,-286.1 769.128,-247.046 736,-166 731.541,-155.091 723.697,-145.195 715.39,-136.943"/>
<polygon fill="black" stroke="black" points="683.486,-405.512 690.54,-397.117 687.99,-403.341 692.494,-401.171 692.494,-401.171 692.494,-401.171 687.99,-403.341 694.448,-405.225 683.486,-405.512 683.486,-405.512"/>
<polygon fill="black" stroke="black" points="708.043,-130.13 718.435,-133.63 711.709,-133.53 715.375,-136.93 715.375,-136.93 715.375,-136.93 711.709,-133.53 712.316,-140.23 708.043,-130.13 708.043,-130.13"/>
</g>
<!-- wb&#45;&gt;aws_rds -->
<g id="edge6" class="edge"><title>wb&#45;&gt;aws_rds</title>
<path fill="none" stroke="black" d="M640.874,-389.658C640.355,-383.765 640.376,-377.522 640.937,-371.658"/>
<polygon fill="black" stroke="black" points="642.398,-399.765 636.457,-390.548 641.653,-394.821 640.907,-389.876 640.907,-389.876 640.907,-389.876 641.653,-394.821 645.357,-389.205 642.398,-399.765 642.398,-399.765"/>
<polygon fill="black" stroke="black" points="642.529,-361.666 645.399,-372.249 641.742,-366.603 640.955,-371.541 640.955,-371.541 640.955,-371.541 641.742,-366.603 636.511,-370.833 642.529,-361.666 642.529,-361.666"/>
</g>
<!-- wb&#45;&gt;aws_rds -->
<g id="edge24" class="edge"><title>wb&#45;&gt;aws_rds</title>
<path fill="none" stroke="red" d="M654,-398.697C654,-390.983 654,-381.712 654,-373.112"/>
<polygon fill="red" stroke="red" points="654,-363.104 658.5,-373.104 654,-368.104 654,-373.104 654,-373.104 654,-373.104 654,-368.104 649.5,-373.104 654,-363.104 654,-363.104"/>
</g>
<!-- wb&#45;&gt;aws_rds -->
<g id="edge39" class="edge"><title>wb&#45;&gt;aws_rds</title>
<path fill="none" stroke="#000099" d="M665.602,-399.765C667.472,-391.431 667.96,-381.082 667.067,-371.695"/>
<polygon fill="#000099" stroke="#000099" points="665.471,-361.666 671.486,-370.834 666.257,-366.604 667.042,-371.542 667.042,-371.542 667.042,-371.542 666.257,-366.604 662.598,-372.249 665.471,-361.666 665.471,-361.666"/>
</g>
<!-- taskman&#45;&gt;gmail -->
<g id="edge19" class="edge"><title>taskman&#45;&gt;gmail</title>
<path fill="none" stroke="red" d="M614.275,-268.042C563.514,-264.576 480.15,-255.669 459,-235 413.01,-190.057 411.308,-108.196 417.365,-65.16"/>
<polygon fill="red" stroke="red" points="419.05,-55.1013 421.836,-65.7073 418.224,-60.0326 417.398,-64.9639 417.398,-64.9639 417.398,-64.9639 418.224,-60.0326 412.96,-64.2204 419.05,-55.1013 419.05,-55.1013"/>
</g>
<!-- taskman&#45;&gt;gmail -->
<g id="edge36" class="edge"><title>taskman&#45;&gt;gmail</title>
<path fill="none" stroke="#000099" d="M614.559,-267.095C568.487,-263.064 496.447,-254.004 477,-235 431.01,-190.057 429.308,-108.196 428.791,-65.16"/>
<polygon fill="#000099" stroke="#000099" points="428.659,-55.1013 433.29,-65.0412 428.725,-60.1008 428.79,-65.1004 428.79,-65.1004 428.79,-65.1004 428.725,-60.1008 424.291,-65.1596 428.659,-55.1013 428.659,-55.1013"/>
</g>
<!-- taskman&#45;&gt;usr_mail -->
<g id="edge35" class="edge"><title>taskman&#45;&gt;usr_mail</title>
<path fill="none" stroke="#000099" d="M656.631,-253.001C658.346,-241.915 660.628,-227.175 662.613,-214.344"/>
<polygon fill="#000099" stroke="#000099" points="664.193,-204.136 667.111,-214.707 663.428,-209.077 662.664,-214.019 662.664,-214.019 662.664,-214.019 663.428,-209.077 658.217,-213.33 664.193,-204.136 664.193,-204.136"/>
</g>
<!-- taskman&#45;&gt;aws_rds -->
<g id="edge4" class="edge"><title>taskman&#45;&gt;aws_rds</title>
<path fill="none" stroke="black" d="M654,-299.686C654,-305.274 654,-311.145 654,-316.719"/>
<polygon fill="black" stroke="black" points="654,-289.441 658.5,-299.441 654,-294.441 654,-299.441 654,-299.441 654,-299.441 654,-294.441 649.5,-299.441 654,-289.441 654,-289.441"/>
<polygon fill="black" stroke="black" points="654,-326.937 649.5,-316.937 654,-321.937 654,-316.937 654,-316.937 654,-316.937 654,-321.937 658.5,-316.937 654,-326.937 654,-326.937"/>
</g>
<!-- mc_api -->
<g id="node13" class="node"><title>mc_api</title>
<ellipse fill="#55cc55" stroke="black" cx="824" cy="-185" rx="27" ry="18"/>
<text text-anchor="middle" x="824" y="-181.3" font-family="Times,serif" font-size="14.00">API</text>
</g>
<!-- taskman&#45;&gt;mc_api -->
<g id="edge5" class="edge"><title>taskman&#45;&gt;mc_api</title>
<path fill="none" stroke="black" d="M679.735,-256.966C694.407,-250.745 712.833,-242.937 729,-235 750.642,-224.376 774.392,-210.68 792.921,-200.47"/>
<polygon fill="black" stroke="black" points="801.83,-195.625 795.195,-204.356 797.438,-198.014 793.045,-200.402 793.045,-200.402 793.045,-200.402 797.438,-198.014 790.895,-196.449 801.83,-195.625 801.83,-195.625"/>
</g>
<!-- taskman&#45;&gt;mc_api -->
<g id="edge33" class="edge"><title>taskman&#45;&gt;mc_api</title>
<path fill="none" stroke="#000099" d="M696.735,-256.74C712.851,-250.557 731.028,-242.841 747,-235 768.904,-224.247 792.969,-210.347 808.522,-200.1"/>
<polygon fill="#000099" stroke="#000099" points="687.004,-260.38 694.794,-252.662 691.687,-258.628 696.371,-256.876 696.371,-256.876 696.371,-256.876 691.687,-258.628 697.947,-261.091 687.004,-260.38 687.004,-260.38"/>
</g>
<!-- fd_api -->
<g id="node18" class="node"><title>fd_api</title>
<ellipse fill="#55cc55" stroke="black" cx="589" cy="-185" rx="27" ry="18"/>
<text text-anchor="middle" x="589" y="-181.3" font-family="Times,serif" font-size="14.00">API</text>
</g>
<!-- taskman&#45;&gt;fd_api -->
<g id="edge18" class="edge"><title>taskman&#45;&gt;fd_api</title>
<path fill="none" stroke="red" d="M641.467,-253.804C631.752,-241.249 618.151,-223.672 607.231,-209.56"/>
<polygon fill="red" stroke="red" points="600.837,-201.297 610.516,-206.452 603.897,-205.251 606.957,-209.206 606.957,-209.206 606.957,-209.206 603.897,-205.251 603.398,-211.96 600.837,-201.297 600.837,-201.297"/>
</g>
<!-- mc_web -->
<g id="node14" class="node"><title>mc_web</title>
<polygon fill="#55cc55" stroke="black" points="880,-129 798,-129 798,-133 786,-133 786,-93 880,-93 880,-129"/>
<polyline fill="none" stroke="black" points="786,-129 798,-129 "/>
<text text-anchor="middle" x="833" y="-107.3" font-family="Times,serif" font-size="14.00">Web interface</text>
</g>
<!-- mc_api&#45;&gt;mc_web -->
<g id="edge3" class="edge"><title>mc_api&#45;&gt;mc_web</title>
<path fill="none" stroke="black" d="M820.293,-166.937C820.448,-158.719 821.46,-148.66 822.998,-139.406"/>
<polygon fill="black" stroke="black" points="824.94,-129.441 827.444,-140.117 823.984,-134.348 823.027,-139.256 823.027,-139.256 823.027,-139.256 823.984,-134.348 818.61,-138.395 824.94,-129.441 824.94,-129.441"/>
</g>
<!-- mc_api&#45;&gt;mc_web -->
<g id="edge34" class="edge"><title>mc_api&#45;&gt;mc_web</title>
<path fill="none" stroke="#000099" d="M833.799,-157.791C835.453,-148.2 836.548,-137.605 836.708,-129.025"/>
<polygon fill="#000099" stroke="#000099" points="831.803,-167.662 829.374,-156.969 832.794,-162.761 833.785,-157.86 833.785,-157.86 833.785,-157.86 832.794,-162.761 838.196,-158.752 831.803,-167.662 831.803,-167.662"/>
</g>
<!-- mc_web&#45;&gt;usr_mail -->
<g id="edge32" class="edge"><title>mc_web&#45;&gt;usr_mail</title>
<path fill="none" stroke="#000099" d="M793.567,-129.104C766.218,-140.966 730.063,-156.647 703.4,-168.212"/>
<polygon fill="#000099" stroke="#000099" points="694.04,-172.272 701.424,-164.164 698.627,-170.282 703.214,-168.292 703.214,-168.292 703.214,-168.292 698.627,-170.282 705.005,-172.421 694.04,-172.272 694.04,-172.272"/>
</g>
<!-- mc_staff -->
<g id="node15" class="node"><title>mc_staff</title>
<polygon fill="#aabbff" stroke="black" points="834.5,-42 836,-43.5 836,-46.5 834.5,-48 831.5,-48 830,-46.5 830,-43.5 831.5,-42 834.5,-42"/>
<polyline fill="none" stroke="black" points="833,-42 833,-36 "/>
<polyline fill="none" stroke="black" points="806,-36 860,-36 "/>
<text text-anchor="middle" x="833" y="-24.3" font-family="Times,serif" font-size="14.00">Staff</text>
</g>
<!-- mc_web&#45;&gt;mc_staff -->
<g id="edge31" class="edge"><title>mc_web&#45;&gt;mc_staff</title>
<path fill="none" stroke="#000099" d="M833,-82.6603C833,-73.6771 833,-63.9025 833,-55.7104"/>
<polygon fill="#000099" stroke="#000099" points="833,-92.7 828.5,-82.7 833,-87.7 833,-82.7 833,-82.7 833,-82.7 833,-87.7 837.5,-82.7001 833,-92.7 833,-92.7"/>
</g>
<!-- fd_web -->
<g id="node17" class="node"><title>fd_web</title>
<polygon fill="#55cc55" stroke="black" points="595,-129 513,-129 513,-133 501,-133 501,-93 595,-93 595,-129"/>
<polyline fill="none" stroke="black" points="501,-129 513,-129 "/>
<text text-anchor="middle" x="548" y="-107.3" font-family="Times,serif" font-size="14.00">Web interface</text>
</g>
<!-- fd_mail&#45;&gt;fd_web -->
<g id="edge16" class="edge"><title>fd_mail&#45;&gt;fd_web</title>
<path fill="none" stroke="red" d="M520.531,-166.937C524.773,-158.454 529.995,-148.009 534.744,-138.513"/>
<polygon fill="red" stroke="red" points="539.28,-129.441 538.832,-140.397 537.044,-133.913 534.807,-138.385 534.807,-138.385 534.807,-138.385 537.044,-133.913 530.783,-136.372 539.28,-129.441 539.28,-129.441"/>
</g>
<!-- fd_web&#45;&gt;gmail -->
<g id="edge30" class="edge"><title>fd_web&#45;&gt;gmail</title>
<path fill="none" stroke="#000099" d="M519.396,-92.8847C503.203,-83.1954 482.719,-70.9387 465.064,-60.3743"/>
<polygon fill="#000099" stroke="#000099" points="456.127,-55.0266 467.018,-56.2998 460.417,-57.594 464.708,-60.1613 464.708,-60.1613 464.708,-60.1613 460.417,-57.594 462.397,-64.0228 456.127,-55.0266 456.127,-55.0266"/>
</g>
<!-- fd_web&#45;&gt;usr_mail -->
<g id="edge29" class="edge"><title>fd_web&#45;&gt;usr_mail</title>
<path fill="none" stroke="#000099" d="M576.138,-129.025C592.583,-138.975 613.504,-151.633 631.125,-162.294"/>
<polygon fill="#000099" stroke="#000099" points="639.997,-167.662 629.112,-166.336 635.719,-165.074 631.441,-162.485 631.441,-162.485 631.441,-162.485 635.719,-165.074 633.771,-158.635 639.997,-167.662 639.997,-167.662"/>
</g>
<!-- fd_staff -->
<g id="node19" class="node"><title>fd_staff</title>
<polygon fill="#aabbff" stroke="black" points="549.5,-42 551,-43.5 551,-46.5 549.5,-48 546.5,-48 545,-46.5 545,-43.5 546.5,-42 549.5,-42"/>
<polyline fill="none" stroke="black" points="548,-42 548,-36 "/>
<polyline fill="none" stroke="black" points="521,-36 575,-36 "/>
<text text-anchor="middle" x="548" y="-24.3" font-family="Times,serif" font-size="14.00">Staff</text>
</g>
<!-- fd_web&#45;&gt;fd_staff -->
<g id="edge17" class="edge"><title>fd_web&#45;&gt;fd_staff</title>
<path fill="none" stroke="red" d="M542.16,-92.7C541.323,-84.6997 541.063,-74.979 541.381,-65.9119"/>
<polygon fill="red" stroke="red" points="542.02,-55.7104 545.886,-65.9721 541.708,-60.7007 541.395,-65.6909 541.395,-65.6909 541.395,-65.6909 541.708,-60.7007 536.904,-65.4097 542.02,-55.7104 542.02,-55.7104"/>
</g>
<!-- fd_web&#45;&gt;fd_staff -->
<g id="edge28" class="edge"><title>fd_web&#45;&gt;fd_staff</title>
<path fill="none" stroke="#000099" d="M554.557,-82.6603C554.943,-73.6771 554.75,-63.9025 553.98,-55.7104"/>
<polygon fill="#000099" stroke="#000099" points="553.84,-92.7 550.064,-82.4046 554.196,-87.7127 554.553,-82.7255 554.553,-82.7255 554.553,-82.7255 554.196,-87.7127 559.041,-83.0463 553.84,-92.7 553.84,-92.7"/>
</g>
<!-- fd_api&#45;&gt;fd_web -->
<g id="edge2" class="edge"><title>fd_api&#45;&gt;fd_web</title>
<path fill="none" stroke="black" d="M579.901,-168.021C574.879,-159.203 568.52,-148.035 562.803,-137.995"/>
<polygon fill="black" stroke="black" points="557.79,-129.191 566.648,-135.655 560.264,-133.536 562.738,-137.881 562.738,-137.881 562.738,-137.881 560.264,-133.536 558.828,-140.108 557.79,-129.191 557.79,-129.191"/>
</g>
<!-- crm_mail -->
<g id="node20" class="node"><title>crm_mail</title>
<polygon fill="#aabbff" stroke="black" points="921.25,-435 918.25,-439 897.25,-439 894.25,-435 858.75,-435 858.75,-399 921.25,-399 921.25,-435"/>
<text text-anchor="middle" x="890" y="-413.3" font-family="Times,serif" font-size="14.00">Mailbox</text>
</g>
<!-- crm_web -->
<g id="node21" class="node"><title>crm_web</title>
<polygon fill="#55cc55" stroke="black" points="922,-363 840,-363 840,-367 828,-367 828,-327 922,-327 922,-363"/>
<polyline fill="none" stroke="black" points="828,-363 840,-363 "/>
<text text-anchor="middle" x="875" y="-341.3" font-family="Times,serif" font-size="14.00">Web interface</text>
</g>
<!-- crm_mail&#45;&gt;crm_web -->
<g id="edge8" class="edge"><title>crm_mail&#45;&gt;crm_web</title>
<path fill="none" stroke="red" d="M880.376,-398.697C877.928,-390.983 875.715,-381.712 874.215,-373.112"/>
<polygon fill="red" stroke="red" points="872.77,-363.104 878.652,-372.359 873.484,-368.053 874.199,-373.002 874.199,-373.002 874.199,-373.002 873.484,-368.053 869.745,-373.645 872.77,-363.104 872.77,-363.104"/>
</g>
<!-- crm_mail&#45;&gt;crm_web -->
<g id="edge26" class="edge"><title>crm_mail&#45;&gt;crm_web</title>
<path fill="none" stroke="#000099" d="M892.208,-398.697C891.341,-390.898 889.552,-381.509 887.333,-372.829"/>
<polygon fill="#000099" stroke="#000099" points="884.56,-363.104 891.63,-371.487 885.931,-367.913 887.302,-372.721 887.302,-372.721 887.302,-372.721 885.931,-367.913 882.975,-373.955 884.56,-363.104 884.56,-363.104"/>
</g>
<!-- crm_staff -->
<g id="node23" class="node"><title>crm_staff</title>
<polygon fill="#aabbff" stroke="black" points="876.5,-277 878,-278.5 878,-281.5 876.5,-283 873.5,-283 872,-281.5 872,-278.5 873.5,-277 876.5,-277"/>
<polyline fill="none" stroke="black" points="875,-277 875,-271 "/>
<polyline fill="none" stroke="black" points="848,-271 902,-271 "/>
<text text-anchor="middle" x="875" y="-259.3" font-family="Times,serif" font-size="14.00">Staff</text>
</g>
<!-- crm_web&#45;&gt;crm_staff -->
<g id="edge9" class="edge"><title>crm_web&#45;&gt;crm_staff</title>
<path fill="none" stroke="red" d="M869.16,-326.937C868.329,-319.106 868.067,-309.604 868.374,-300.719"/>
<polygon fill="red" stroke="red" points="868.996,-290.71 872.867,-300.97 868.686,-295.701 868.376,-300.691 868.376,-300.691 868.376,-300.691 868.686,-295.701 863.885,-300.412 868.996,-290.71 868.996,-290.71"/>
</g>
<!-- crm_web&#45;&gt;crm_staff -->
<g id="edge27" class="edge"><title>crm_web&#45;&gt;crm_staff</title>
<path fill="none" stroke="#000099" d="M880.84,-326.937C881.671,-319.106 881.933,-309.604 881.626,-300.719"/>
<polygon fill="#000099" stroke="#000099" points="881.004,-290.71 886.115,-300.412 881.314,-295.701 881.624,-300.691 881.624,-300.691 881.624,-300.691 881.314,-295.701 877.133,-300.97 881.004,-290.71 881.004,-290.71"/>
</g>
<!-- crm_api -->
<g id="node22" class="node"><title>crm_api</title>
<ellipse fill="#55cc55" stroke="black" cx="813" cy="-417" rx="27" ry="18"/>
<text text-anchor="middle" x="813" y="-413.3" font-family="Times,serif" font-size="14.00">API</text>
</g>
<!-- crm_api&#45;&gt;crm_web -->
<g id="edge1" class="edge"><title>crm_api&#45;&gt;crm_web</title>
<path fill="none" stroke="black" d="M826.149,-401.155C834.023,-392.264 844.229,-380.742 853.274,-370.529"/>
<polygon fill="black" stroke="black" points="859.907,-363.04 856.646,-373.51 856.592,-366.783 853.277,-370.526 853.277,-370.526 853.277,-370.526 856.592,-366.783 849.908,-367.542 859.907,-363.04 859.907,-363.04"/>
</g>
</g>
</svg>
