<?xml version="1.0" encoding="UTF-8" standalone="no"?>
<!DOCTYPE svg PUBLIC "-//W3C//DTD SVG 1.1//EN"
 "http://www.w3.org/Graphics/SVG/1.1/DTD/svg11.dtd">
<!-- Generated by graphviz version 2.36.0 (20140111.2315)
 -->
<!-- Title: G Pages: 1 -->
<svg width="1132pt" height="595pt"
 viewBox="0.00 0.00 1132.00 595.00" xmlns="http://www.w3.org/2000/svg" xmlns:xlink="http://www.w3.org/1999/xlink">
<g id="graph0" class="graph" transform="scale(1 1) rotate(0) translate(4 591)">
<title>G</title>
<polygon fill="white" stroke="none" points="-4,4 -4,-591 1128,-591 1128,4 -4,4"/>
<text text-anchor="middle" x="562" y="-571.8" font-family="Times,serif" font-size="14.00">ShipReq System Diagram</text>
<text text-anchor="middle" x="562" y="-556.8" font-family="Times,serif" font-size="14.00">(arrows denote a component&#39;s knowledge of another)</text>
<g id="clust1" class="cluster"><title>cluster_gandi</title>
<polygon fill="#ccddcc" stroke="black" points="235,-157 235,-391 539,-391 539,-157 235,-157"/>
<text text-anchor="middle" x="387" y="-375.8" font-family="Times,serif" font-size="14.00">gandi.net</text>
</g>
<g id="clust2" class="cluster"><title>cluster_aws</title>
<polygon fill="#ccddcc" stroke="black" points="737,-158 737,-541 973,-541 973,-158 737,-158"/>
<text text-anchor="middle" x="855" y="-525.8" font-family="Times,serif" font-size="14.00">Amazon Web Services</text>
</g>
<g id="clust4" class="cluster"><title>cluster_mc</title>
<polygon fill="#ccddcc" stroke="black" points="547,-316 547,-391 729,-391 729,-316 547,-316"/>
<text text-anchor="middle" x="638" y="-375.8" font-family="Times,serif" font-size="14.00">MailChimp</text>
</g>
<g id="clust5" class="cluster"><title>cluster_fd</title>
<polygon fill="#ccddcc" stroke="black" points="35,-158 35,-233 227,-233 227,-158 35,-158"/>
<text text-anchor="middle" x="131" y="-217.8" font-family="Times,serif" font-size="14.00">Freshdesk</text>
</g>
<g id="clust6" class="cluster"><title>cluster_crm</title>
<polygon fill="#ccddcc" stroke="black" points="388,-8 388,-83 652,-83 652,-8 388,-8"/>
<text text-anchor="middle" x="520" y="-67.8" font-family="Times,serif" font-size="14.00">Insightly</text>
</g>
<!-- gmail -->
<g id="node1" class="node"><title>gmail</title>
<polygon fill="#aabbff" stroke="black" points="380,-511 377,-515 356,-515 353,-511 304,-511 304,-473 380,-473 380,-511"/>
<text text-anchor="middle" x="342" y="-495.8" font-family="Times,serif" font-size="14.00">shipreq@</text>
<text text-anchor="middle" x="342" y="-480.8" font-family="Times,serif" font-size="14.00">gmail.com</text>
</g>
<!-- gandi_mx -->
<g id="node3" class="node"><title>gandi_mx</title>
<ellipse fill="#55cc55" stroke="black" cx="342" cy="-342" rx="44.2946" ry="18"/>
<text text-anchor="middle" x="342" y="-338.3" font-family="Times,serif" font-size="14.00">Mail fwd</text>
</g>
<!-- gmail&#45;&gt;gandi_mx -->
<g id="edge18" class="edge"><title>gmail&#45;&gt;gandi_mx</title>
<path fill="none" stroke="black" d="M342,-462.539C342,-432.316 342,-385.514 342,-360.376"/>
<polygon fill="black" stroke="black" points="338.5,-462.852 342,-472.852 345.5,-462.852 338.5,-462.852"/>
<text text-anchor="middle" x="354.5" y="-423.3" font-family="Times,serif" font-size="14.00">Fwd</text>
</g>
<!-- gandi_dns -->
<g id="node2" class="node"><title>gandi_dns</title>
<ellipse fill="#55cc55" stroke="black" cx="502" cy="-342" rx="28.3955" ry="18"/>
<text text-anchor="middle" x="502" y="-338.3" font-family="Times,serif" font-size="14.00">DNS</text>
</g>
<!-- aws_r53 -->
<g id="node7" class="node"><title>aws_r53</title>
<ellipse fill="#55cc55" stroke="black" cx="788" cy="-492" rx="42.3456" ry="18"/>
<text text-anchor="middle" x="788" y="-488.3" font-family="Times,serif" font-size="14.00">Route 53</text>
</g>
<!-- gandi_dns&#45;&gt;aws_r53 -->
<g id="edge1" class="edge"><title>gandi_dns&#45;&gt;aws_r53</title>
<path fill="none" stroke="black" d="M512.617,-358.999C520.103,-369.269 530.919,-382.271 543,-391 605.141,-435.9 690.372,-464.755 742.186,-479.404"/>
<polygon fill="black" stroke="black" points="741.515,-482.85 752.087,-482.145 743.383,-476.104 741.515,-482.85"/>
<text text-anchor="middle" x="662.5" y="-423.3" font-family="Times,serif" font-size="14.00">Delegates DNS</text>
</g>
<!-- ea_contact -->
<g id="node4" class="node"><title>ea_contact</title>
<polygon fill="#aabbff" stroke="black" points="530.5,-203 527.5,-207 506.5,-207 503.5,-203 447.5,-203 447.5,-165 530.5,-165 530.5,-203"/>
<text text-anchor="middle" x="489" y="-187.8" font-family="Times,serif" font-size="14.00">contact@</text>
<text text-anchor="middle" x="489" y="-172.8" font-family="Times,serif" font-size="14.00">shipreq.com</text>
</g>
<!-- gandi_mx&#45;&gt;ea_contact -->
<g id="edge13" class="edge"><title>gandi_mx&#45;&gt;ea_contact</title>
<path fill="none" stroke="black" d="M357.178,-324.893C382.713,-297.795 434.458,-242.881 464.972,-210.499"/>
<polygon fill="black" stroke="black" points="467.566,-212.85 471.877,-203.172 462.471,-208.049 467.566,-212.85"/>
<text text-anchor="middle" x="432" y="-265.3" font-family="Times,serif" font-size="14.00">Catch</text>
</g>
<!-- ea_news -->
<g id="node5" class="node"><title>ea_news</title>
<polygon fill="#aabbff" stroke="black" points="326.5,-203 323.5,-207 302.5,-207 299.5,-203 243.5,-203 243.5,-165 326.5,-165 326.5,-203"/>
<text text-anchor="middle" x="285" y="-187.8" font-family="Times,serif" font-size="14.00">news@</text>
<text text-anchor="middle" x="285" y="-172.8" font-family="Times,serif" font-size="14.00">shipreq.com</text>
</g>
<!-- gandi_mx&#45;&gt;ea_news -->
<g id="edge14" class="edge"><title>gandi_mx&#45;&gt;ea_news</title>
<path fill="none" stroke="black" d="M335.791,-324.008C326.054,-297.358 307.086,-245.447 295.287,-213.154"/>
<polygon fill="black" stroke="black" points="298.448,-211.607 291.729,-203.415 291.873,-214.009 298.448,-211.607"/>
<text text-anchor="middle" x="335" y="-265.3" font-family="Times,serif" font-size="14.00">Catch</text>
</g>
<!-- ea_notice -->
<g id="node6" class="node"><title>ea_notice</title>
<polygon fill="#aabbff" stroke="black" points="428.5,-203 425.5,-207 404.5,-207 401.5,-203 345.5,-203 345.5,-165 428.5,-165 428.5,-203"/>
<text text-anchor="middle" x="387" y="-187.8" font-family="Times,serif" font-size="14.00">notice@</text>
<text text-anchor="middle" x="387" y="-172.8" font-family="Times,serif" font-size="14.00">shipreq.com</text>
</g>
<!-- gandi_mx&#45;&gt;ea_notice -->
<g id="edge15" class="edge"><title>gandi_mx&#45;&gt;ea_notice</title>
<path fill="none" stroke="black" d="M346.901,-324.008C354.589,-297.358 369.563,-245.447 378.879,-213.154"/>
<polygon fill="black" stroke="black" points="382.279,-213.994 381.688,-203.415 375.553,-212.053 382.279,-213.994"/>
<text text-anchor="middle" x="381" y="-265.3" font-family="Times,serif" font-size="14.00">Catch</text>
</g>
<!-- fd_mail -->
<g id="node14" class="node"><title>fd_mail</title>
<polygon fill="#aabbff" stroke="black" points="218.25,-202 215.25,-206 194.25,-206 191.25,-202 155.75,-202 155.75,-166 218.25,-166 218.25,-202"/>
<text text-anchor="middle" x="187" y="-180.3" font-family="Times,serif" font-size="14.00">Mailbox</text>
</g>
<!-- gandi_mx&#45;&gt;fd_mail -->
<g id="edge16" class="edge"><title>gandi_mx&#45;&gt;fd_mail</title>
<path fill="none" stroke="black" d="M325.16,-325.189C303.154,-304.399 263.585,-266.57 231,-233 223.83,-225.613 216.193,-217.408 209.33,-209.902"/>
<polygon fill="black" stroke="black" points="211.558,-207.15 202.243,-202.102 206.377,-211.857 211.558,-207.15"/>
<text text-anchor="middle" x="287.5" y="-265.3" font-family="Times,serif" font-size="14.00">Fwd</text>
</g>
<!-- crm_mail -->
<g id="node16" class="node"><title>crm_mail</title>
<polygon fill="#aabbff" stroke="black" points="459.25,-52 456.25,-56 435.25,-56 432.25,-52 396.75,-52 396.75,-16 459.25,-16 459.25,-52"/>
<text text-anchor="middle" x="428" y="-30.3" font-family="Times,serif" font-size="14.00">Mailbox</text>
</g>
<!-- gandi_mx&#45;&gt;crm_mail -->
<g id="edge17" class="edge"><title>gandi_mx&#45;&gt;crm_mail</title>
<path fill="none" stroke="black" d="M297.64,-340.968C205.103,-339.7 0,-330.11 0,-270 0,-270 0,-270 0,-118 0,-39.8049 278.809,-33.7655 386.369,-34.345"/>
<polygon fill="black" stroke="black" points="386.502,-37.846 396.528,-34.4224 386.555,-30.8462 386.502,-37.846"/>
<text text-anchor="middle" x="12.5" y="-180.3" font-family="Times,serif" font-size="14.00">Fwd</text>
</g>
<!-- aws_r53&#45;&gt;gandi_mx -->
<g id="edge12" class="edge"><title>aws_r53&#45;&gt;gandi_mx</title>
<path fill="none" stroke="black" d="M748.34,-485.229C697.514,-477.172 607.118,-460.597 533,-435 475.592,-415.174 412.833,-382.681 375.474,-362.089"/>
<polygon fill="black" stroke="black" points="376.984,-358.924 366.543,-357.126 373.583,-365.043 376.984,-358.924"/>
<text text-anchor="middle" x="560" y="-423.3" font-family="Times,serif" font-size="14.00">DNS:MX</text>
</g>
<!-- aws_r53&#45;&gt;aws_r53 -->
<g id="edge2" class="edge"><title>aws_r53:w&#45;&gt;aws_r53:w</title>
<path fill="none" stroke="black" d="M737.118,-498.561C732.029,-500.273 727.104,-498.086 727.104,-492 727.104,-482.5 739.104,-482.5 745,-492"/>
<polygon fill="black" stroke="black" points="739.554,-501.088 745,-492 735.075,-495.708 739.554,-501.088"/>
<text text-anchor="middle" x="695.104" y="-488.3" font-family="Times,serif" font-size="14.00">DNS:www </text>
</g>
<!-- wb -->
<g id="node10" class="node"><title>wb</title>
<ellipse fill="pink" stroke="black" cx="783" cy="-342" rx="38.0212" ry="18"/>
<text text-anchor="middle" x="783" y="-338.3" font-family="Times,serif" font-size="14.00">webapp</text>
</g>
<!-- aws_r53&#45;&gt;wb -->
<g id="edge3" class="edge"><title>aws_r53&#45;&gt;wb</title>
<path fill="none" stroke="black" d="M787.417,-473.733C786.559,-448.334 784.948,-400.651 783.927,-370.428"/>
<polygon fill="black" stroke="black" points="787.415,-370.033 783.58,-360.157 780.419,-370.27 787.415,-370.033"/>
<text text-anchor="middle" x="820.5" y="-423.3" font-family="Times,serif" font-size="14.00">DNS:APEX</text>
</g>
<!-- aws_rds -->
<g id="node8" class="node"><title>aws_rds</title>
<ellipse fill="#55cc55" stroke="black" cx="773" cy="-184" rx="27.4223" ry="18"/>
<text text-anchor="middle" x="773" y="-180.3" font-family="Times,serif" font-size="14.00">RDS</text>
</g>
<!-- aws_ses -->
<g id="node9" class="node"><title>aws_ses</title>
<ellipse fill="#55cc55" stroke="black" cx="846" cy="-184" rx="27" ry="18"/>
<text text-anchor="middle" x="846" y="-180.3" font-family="Times,serif" font-size="14.00">SES</text>
</g>
<!-- wb&#45;&gt;ea_contact -->
<g id="edge5" class="edge"><title>wb&#45;&gt;ea_contact</title>
<path fill="none" stroke="black" stroke-dasharray="5,2" d="M758.691,-328.101C708.862,-301.662 594.575,-241.019 531.959,-207.795"/>
<polygon fill="black" stroke="black" points="533.583,-204.694 523.109,-203.099 530.302,-210.878 533.583,-204.694"/>
</g>
<!-- wb&#45;&gt;aws_rds -->
<g id="edge4" class="edge"><title>wb&#45;&gt;aws_rds</title>
<path fill="none" stroke="black" d="M781.892,-323.709C780.165,-296.768 776.817,-244.54 774.758,-212.423"/>
<polygon fill="black" stroke="black" points="778.246,-212.124 774.113,-202.368 771.26,-212.572 778.246,-212.124"/>
</g>
<!-- worker -->
<g id="node11" class="node"><title>worker</title>
<ellipse fill="pink" stroke="black" cx="902" cy="-342" rx="62.3993" ry="26.7407"/>
<text text-anchor="middle" x="902" y="-345.8" font-family="Times,serif" font-size="14.00">Backend task</text>
<text text-anchor="middle" x="902" y="-330.8" font-family="Times,serif" font-size="14.00">processor</text>
</g>
<!-- worker&#45;&gt;ea_contact -->
<g id="edge19" class="edge"><title>worker&#45;&gt;ea_contact</title>
<path fill="none" stroke="black" stroke-dasharray="5,2" d="M856.224,-323.709C778.525,-294.361 621.378,-235.002 540.166,-204.327"/>
<polygon fill="black" stroke="black" points="541.241,-200.991 530.649,-200.732 538.767,-207.54 541.241,-200.991"/>
</g>
<!-- worker&#45;&gt;aws_rds -->
<g id="edge7" class="edge"><title>worker&#45;&gt;aws_rds</title>
<path fill="none" stroke="black" d="M880.458,-316.41C861.588,-294.705 833.574,-262.085 810,-233 803.675,-225.196 796.922,-216.538 790.939,-208.747"/>
<polygon fill="black" stroke="black" points="793.657,-206.539 784.807,-200.715 788.094,-210.787 793.657,-206.539"/>
</g>
<!-- worker&#45;&gt;aws_ses -->
<g id="edge6" class="edge"><title>worker&#45;&gt;aws_ses</title>
<path fill="none" stroke="black" d="M892.753,-315.24C882.415,-286.442 865.766,-240.063 855.376,-211.12"/>
<polygon fill="black" stroke="black" points="858.656,-209.896 851.983,-201.667 852.068,-212.262 858.656,-209.896"/>
</g>
<!-- mc_api -->
<g id="node12" class="node"><title>mc_api</title>
<ellipse fill="#55cc55" stroke="black" cx="694" cy="-342" rx="27" ry="18"/>
<text text-anchor="middle" x="694" y="-338.3" font-family="Times,serif" font-size="14.00">API</text>
</g>
<!-- worker&#45;&gt;mc_api -->
<g id="edge8" class="edge"><title>worker&#45;&gt;mc_api</title>
<path fill="none" stroke="black" d="M878.713,-366.975C863.768,-381.107 843.075,-397.426 821,-405 787.789,-416.395 773.464,-420.583 742,-405 726.582,-397.364 714.769,-382.142 706.72,-368.574"/>
<polygon fill="black" stroke="black" points="709.643,-366.627 701.751,-359.558 703.513,-370.006 709.643,-366.627"/>
<text text-anchor="middle" x="830.713" y="-385.775" font-family="Times,serif" font-size="14.00">Push contact data</text>
<text text-anchor="middle" x="830.713" y="-370.775" font-family="Times,serif" font-size="14.00">Query</text>
</g>
<!-- worker&#45;&gt;crm_mail -->
<g id="edge20" class="edge"><title>worker&#45;&gt;crm_mail</title>
<path fill="none" stroke="black" stroke-dasharray="5,2" d="M905.787,-315.094C907.436,-301.669 909,-284.987 909,-270 909,-270 909,-270 909,-118 909,-68.9567 512.689,-105.282 469,-83 458.938,-77.8681 450.332,-69.0886 443.642,-60.4302"/>
<polygon fill="black" stroke="black" points="446.488,-58.3933 437.828,-52.289 440.791,-62.4611 446.488,-58.3933"/>
<text text-anchor="middle" x="923" y="-180.3" font-family="Times,serif" font-size="14.00">BCC</text>
</g>
<!-- crm_api -->
<g id="node18" class="node"><title>crm_api</title>
<ellipse fill="#55cc55" stroke="black" cx="617" cy="-34" rx="27" ry="18"/>
<text text-anchor="middle" x="617" y="-30.3" font-family="Times,serif" font-size="14.00">API</text>
</g>
<!-- worker&#45;&gt;crm_api -->
<g id="edge9" class="edge"><title>worker&#45;&gt;crm_api</title>
<path fill="none" stroke="black" d="M939.994,-320.487C956.875,-308.389 973,-291.267 973,-270 973,-270 973,-270 973,-118 973,-53.0623 745.5,-38.9066 654.228,-35.8405"/>
<polygon fill="black" stroke="black" points="654.153,-32.3366 644.05,-35.526 653.937,-39.3333 654.153,-32.3366"/>
<text text-anchor="middle" x="1048.5" y="-187.8" font-family="Times,serif" font-size="14.00">Push contact data</text>
<text text-anchor="middle" x="1048.5" y="-172.8" font-family="Times,serif" font-size="14.00">Log MailChimp broadcasts</text>
</g>
<!-- mc_web -->
<g id="node13" class="node"><title>mc_web</title>
<polygon fill="#55cc55" stroke="black" points="649,-360 567,-360 567,-364 555,-364 555,-324 649,-324 649,-360"/>
<polyline fill="none" stroke="black" points="555,-360 567,-360 "/>
<text text-anchor="middle" x="602" y="-338.3" font-family="Times,serif" font-size="14.00">Web interface</text>
</g>
<!-- mc_web&#45;&gt;ea_news -->
<g id="edge10" class="edge"><title>mc_web&#45;&gt;ea_news</title>
<path fill="none" stroke="black" stroke-dasharray="5,2" d="M575.067,-323.932C545.78,-306.028 497.104,-278.153 452,-261 402.427,-242.148 382.646,-258.239 336,-233 325.52,-227.329 315.59,-218.966 307.325,-210.803"/>
<polygon fill="black" stroke="black" points="309.693,-208.217 300.234,-203.445 304.653,-213.074 309.693,-208.217"/>
</g>
<!-- mc_web&#45;&gt;ea_notice -->
<g id="edge11" class="edge"><title>mc_web&#45;&gt;ea_notice</title>
<path fill="none" stroke="black" stroke-dasharray="5,2" d="M600.578,-323.859C597.659,-300.795 588.794,-260.428 562,-241 539.645,-224.791 463.327,-244.001 438,-233 426.614,-228.055 416.198,-219.419 407.79,-210.824"/>
<polygon fill="black" stroke="black" points="410.287,-208.369 400.943,-203.375 405.133,-213.106 410.287,-208.369"/>
</g>
<!-- fd_web -->
<g id="node15" class="node"><title>fd_web</title>
<polygon fill="#55cc55" stroke="black" points="137,-202 55,-202 55,-206 43,-206 43,-166 137,-166 137,-202"/>
<polyline fill="none" stroke="black" points="43,-202 55,-202 "/>
<text text-anchor="middle" x="90" y="-180.3" font-family="Times,serif" font-size="14.00">Web interface</text>
</g>
<!-- fd_web&#45;&gt;crm_mail -->
<g id="edge21" class="edge"><title>fd_web&#45;&gt;crm_mail</title>
<path fill="none" stroke="black" stroke-dasharray="5,2" d="M126.386,-165.938C132.903,-162.93 139.642,-159.85 146,-157 231.407,-118.707 332.216,-75.5926 387.191,-52.2559"/>
<polygon fill="black" stroke="black" points="388.745,-55.3987 396.584,-48.2716 386.012,-48.9544 388.745,-55.3987"/>
<text text-anchor="middle" x="279.5" y="-115.3" font-family="Times,serif" font-size="14.00">Auto&#45;BCC</text>
</g>
<!-- crm_web -->
<g id="node17" class="node"><title>crm_web</title>
<polygon fill="#55cc55" stroke="black" points="572,-52 490,-52 490,-56 478,-56 478,-16 572,-16 572,-52"/>
<polyline fill="none" stroke="black" points="478,-52 490,-52 "/>
<text text-anchor="middle" x="525" y="-30.3" font-family="Times,serif" font-size="14.00">Web interface</text>
</g>
</g>
</svg>
