<?xml version="1.0" encoding="UTF-8" standalone="no"?>
<!DOCTYPE svg PUBLIC "-//W3C//DTD SVG 1.1//EN"
 "http://www.w3.org/Graphics/SVG/1.1/DTD/svg11.dtd">
<!-- Generated by graphviz version 2.36.0 (20140111.2315)
 -->
<!-- Title: G Pages: 1 -->
<svg width="1015pt" height="491pt"
 viewBox="0.00 0.00 1015.00 491.00" xmlns="http://www.w3.org/2000/svg" xmlns:xlink="http://www.w3.org/1999/xlink">
<g id="graph0" class="graph" transform="scale(1 1) rotate(0) translate(4 487)">
<title>G</title>
<polygon fill="white" stroke="none" points="-4,4 -4,-487 1011,-487 1011,4 -4,4"/>
<text text-anchor="middle" x="503.5" y="-467.8" font-family="Times,serif" font-size="14.00">ShipReq System Diagram</text>
<g id="clust1" class="cluster"><title>cluster_usr</title>
<polygon fill="#eeeeaa" stroke="black" points="825,-15 825,-92 999,-92 999,-15 825,-15"/>
<text text-anchor="middle" x="912" y="-76.8" font-family="Times,serif" font-size="14.00">Userland</text>
</g>
<g id="clust2" class="cluster"><title>cluster_internet</title>
<polygon fill="#e2ffe2" stroke="black" points="62,-8 62,-452 817,-452 817,-8 62,-8"/>
</g>
<g id="clust4" class="cluster"><title>cluster_gandi</title>
<polygon fill="#ccddcc" stroke="black" points="535,-260 535,-335 715,-335 715,-260 535,-260"/>
<text text-anchor="middle" x="625" y="-319.8" font-family="Times,serif" font-size="14.00">gandi.net</text>
</g>
<g id="clust5" class="cluster"><title>cluster_aws</title>
<polygon fill="#ccddcc" stroke="black" points="284,-135 284,-444 499,-444 499,-135 284,-135"/>
<text text-anchor="middle" x="391.5" y="-428.8" font-family="Times,serif" font-size="14.00">Amazon Web Services</text>
</g>
<g id="clust6" class="cluster"><title>cluster_fd</title>
<polygon fill="#ccddcc" stroke="black" points="519,-135 519,-210 711,-210 711,-135 519,-135"/>
<text text-anchor="middle" x="615" y="-194.8" font-family="Times,serif" font-size="14.00">Freskdesk</text>
</g>
<g id="clust7" class="cluster"><title>cluster_crm</title>
<polygon fill="#ccddcc" stroke="black" points="213,-16 213,-91 405,-91 405,-16 213,-16"/>
<text text-anchor="middle" x="309" y="-75.8" font-family="Times,serif" font-size="14.00">Insightly</text>
</g>
<!-- me -->
<g id="node1" class="node"><title>me</title>
<polygon fill="#aabbff" stroke="black" points="28.5,-292 30,-293.5 30,-296.5 28.5,-298 25.5,-298 24,-296.5 24,-293.5 25.5,-292 28.5,-292"/>
<polyline fill="none" stroke="black" points="27,-292 27,-286 "/>
<polyline fill="none" stroke="black" points="0,-286 54,-286 "/>
<text text-anchor="middle" x="27" y="-274.3" font-family="Times,serif" font-size="14.00">Staff</text>
</g>
<!-- mc -->
<g id="node5" class="node"><title>mc</title>
<ellipse fill="#55cc55" stroke="black" cx="151" cy="-42" rx="51.4931" ry="18"/>
<text text-anchor="middle" x="151" y="-38.3" font-family="Times,serif" font-size="14.00">MailChimp</text>
</g>
<!-- me&#45;&gt;mc -->
<g id="edge21" class="edge"><title>me&#45;&gt;mc</title>
<path fill="none" stroke="black" d="M21.0636,-266.378C10.9385,-230.817 -5.50976,-152.151 28,-100 43.2866,-76.2097 71.3182,-62.195 96.7641,-54.0201"/>
<polygon fill="black" stroke="black" points="97.7718,-57.372 106.358,-51.1648 95.775,-50.6629 97.7718,-57.372"/>
</g>
<!-- mc_to_crm -->
<g id="node6" class="node"><title>mc_to_crm</title>
<ellipse fill="#55cc55" stroke="black" cx="173" cy="-161" rx="103.357" ry="26.7407"/>
<text text-anchor="middle" x="173" y="-164.8" font-family="Times,serif" font-size="14.00">Custom tool</text>
<text text-anchor="middle" x="173" y="-149.8" font-family="Times,serif" font-size="14.00">MailChimp to Insightly</text>
</g>
<!-- me&#45;&gt;mc_to_crm -->
<g id="edge15" class="edge"><title>me&#45;&gt;mc_to_crm</title>
<path fill="none" stroke="#182888" d="M49.1743,-266.319C72.1173,-246.99 108.357,-216.459 135.716,-193.41"/>
<polygon fill="#182888" stroke="#182888" points="138.144,-195.941 143.537,-186.821 133.634,-190.588 138.144,-195.941"/>
</g>
<!-- fd_web -->
<g id="node14" class="node"><title>fd_web</title>
<polygon fill="#55cc55" stroke="black" points="621,-179 539,-179 539,-183 527,-183 527,-143 621,-143 621,-179"/>
<polyline fill="none" stroke="black" points="527,-179 539,-179 "/>
<text text-anchor="middle" x="574" y="-157.3" font-family="Times,serif" font-size="14.00">Web interface</text>
</g>
<!-- me&#45;&gt;fd_web -->
<g id="edge22" class="edge"><title>me&#45;&gt;fd_web</title>
<path fill="none" stroke="black" d="M54.2031,-279.759C86.9138,-273.251 143.366,-261.363 191,-248 231.191,-236.725 238.936,-225.493 280,-218 328.782,-209.099 455.855,-225.371 503,-210 518.861,-204.829 534.449,-194.979 546.959,-185.542"/>
<polygon fill="black" stroke="black" points="549.403,-188.073 555.095,-179.136 545.072,-182.573 549.403,-188.073"/>
</g>
<!-- crm_web -->
<g id="node16" class="node"><title>crm_web</title>
<polygon fill="#55cc55" stroke="black" points="315,-60 233,-60 233,-64 221,-64 221,-24 315,-24 315,-60"/>
<polyline fill="none" stroke="black" points="221,-60 233,-60 "/>
<text text-anchor="middle" x="268" y="-38.3" font-family="Times,serif" font-size="14.00">Web interface</text>
</g>
<!-- me&#45;&gt;crm_web -->
<g id="edge23" class="edge"><title>me&#45;&gt;crm_web</title>
<path fill="none" stroke="black" d="M28.8154,-266.24C33.3361,-221.421 45.6267,-111.018 58,-100 71.2106,-88.2364 200.762,-99.0159 217,-92 229.152,-86.7495 240.114,-77.2308 248.733,-67.9701"/>
<polygon fill="black" stroke="black" points="251.448,-70.1826 255.397,-60.3511 246.179,-65.5742 251.448,-70.1826"/>
</g>
<!-- usr_web -->
<g id="node2" class="node"><title>usr_web</title>
<polygon fill="#ccaa66" stroke="black" points="991,-61 917,-61 917,-65 905,-65 905,-23 991,-23 991,-61"/>
<polyline fill="none" stroke="black" points="905,-61 917,-61 "/>
<text text-anchor="middle" x="948" y="-45.8" font-family="Times,serif" font-size="14.00">User&#39;s</text>
<text text-anchor="middle" x="948" y="-30.8" font-family="Times,serif" font-size="14.00">web browser</text>
</g>
<!-- gandi_dns -->
<g id="node7" class="node"><title>gandi_dns</title>
<ellipse fill="#55cc55" stroke="black" cx="678" cy="-286" rx="28.3955" ry="18"/>
<text text-anchor="middle" x="678" y="-282.3" font-family="Times,serif" font-size="14.00">DNS</text>
</g>
<!-- usr_web&#45;&gt;gandi_dns -->
<g id="edge1" class="edge"><title>usr_web&#45;&gt;gandi_dns</title>
<path fill="none" stroke="#996644" d="M942.107,-61.01C928.014,-101.158 888.428,-198.354 821,-248 790.295,-270.608 747.016,-279.436 716.129,-282.864"/>
<polygon fill="#996644" stroke="#996644" points="715.78,-279.381 706.165,-283.832 716.456,-286.348 715.78,-279.381"/>
</g>
<!-- usr_email -->
<g id="node3" class="node"><title>usr_email</title>
<polygon fill="#ccaa66" stroke="black" points="887,-61 884,-65 863,-65 860,-61 833,-61 833,-23 887,-23 887,-61"/>
<text text-anchor="middle" x="860" y="-45.8" font-family="Times,serif" font-size="14.00">User&#39;s</text>
<text text-anchor="middle" x="860" y="-30.8" font-family="Times,serif" font-size="14.00">email</text>
</g>
<!-- aws_r53 -->
<g id="node9" class="node"><title>aws_r53</title>
<ellipse fill="#55cc55" stroke="black" cx="369" cy="-395" rx="42.3456" ry="18"/>
<text text-anchor="middle" x="369" y="-391.3" font-family="Times,serif" font-size="14.00">Route 53</text>
</g>
<!-- usr_email&#45;&gt;aws_r53 -->
<g id="edge20" class="edge"><title>usr_email&#45;&gt;aws_r53</title>
<path fill="none" stroke="#182888" d="M860.454,-61.0989C860.601,-98.6052 856.761,-186.445 821,-248 791.069,-299.52 769.723,-303.737 719,-335 695.6,-349.423 688.573,-351.968 662,-359 579.773,-380.76 480.96,-389.017 421.662,-392.133"/>
<polygon fill="#182888" stroke="#182888" points="421.235,-388.649 411.42,-392.64 421.581,-395.641 421.235,-388.649"/>
</g>
<!-- gmail -->
<g id="node4" class="node"><title>gmail</title>
<polygon fill="#aabbff" stroke="black" points="809.25,-180 806.25,-184 785.25,-184 782.25,-180 720.75,-180 720.75,-142 809.25,-142 809.25,-180"/>
<text text-anchor="middle" x="765" y="-164.8" font-family="Times,serif" font-size="14.00">shipreq</text>
<text text-anchor="middle" x="765" y="-149.8" font-family="Times,serif" font-size="14.00">@gmail.com</text>
</g>
<!-- mc&#45;&gt;usr_email -->
<g id="edge14" class="edge"><title>mc&#45;&gt;usr_email</title>
<path fill="none" stroke="red" d="M161.695,-59.9343C173.153,-77.2113 193.1,-102.261 218,-113 328.309,-160.575 703.67,-78.783 823.154,-50.8431"/>
<polygon fill="red" stroke="red" points="824.004,-54.2389 832.936,-48.5419 822.401,-47.4249 824.004,-54.2389"/>
</g>
<!-- mc_to_crm&#45;&gt;mc -->
<g id="edge16" class="edge"><title>mc_to_crm&#45;&gt;mc</title>
<path fill="none" stroke="#182888" d="M168.117,-134.034C164.55,-115.062 159.724,-89.3952 156.105,-70.1516"/>
<polygon fill="#182888" stroke="#182888" points="159.523,-69.3858 154.235,-60.2048 152.643,-70.6794 159.523,-69.3858"/>
</g>
<!-- crm_mail -->
<g id="node15" class="node"><title>crm_mail</title>
<polygon fill="#aabbff" stroke="black" points="396.25,-60 393.25,-64 372.25,-64 369.25,-60 333.75,-60 333.75,-24 396.25,-24 396.25,-60"/>
<text text-anchor="middle" x="365" y="-38.3" font-family="Times,serif" font-size="14.00">Mailbox</text>
</g>
<!-- mc_to_crm&#45;&gt;crm_mail -->
<g id="edge17" class="edge"><title>mc_to_crm&#45;&gt;crm_mail</title>
<path fill="none" stroke="#182888" d="M234.869,-139.454C263.637,-128.133 297.307,-112.233 324,-92 332.751,-85.3667 340.866,-76.5358 347.527,-68.199"/>
<polygon fill="#182888" stroke="#182888" points="350.4,-70.2031 353.674,-60.1267 344.831,-65.9624 350.4,-70.2031"/>
</g>
<!-- gandi_dns&#45;&gt;aws_r53 -->
<g id="edge2" class="edge"><title>gandi_dns&#45;&gt;aws_r53</title>
<path fill="none" stroke="black" d="M669.077,-303.124C662.404,-313.72 652.324,-327.047 640,-335 573.018,-378.224 479.329,-390.217 421.491,-393.296"/>
<polygon fill="black" stroke="black" points="421.302,-389.801 411.475,-393.759 421.626,-396.793 421.302,-389.801"/>
<text text-anchor="middle" x="639" y="-347.3" font-family="Times,serif" font-size="14.00">DNS:*</text>
</g>
<!-- gandi_mx -->
<g id="node8" class="node"><title>gandi_mx</title>
<ellipse fill="#55cc55" stroke="black" cx="587" cy="-286" rx="44.2946" ry="18"/>
<text text-anchor="middle" x="587" y="-282.3" font-family="Times,serif" font-size="14.00">Mail fwd</text>
</g>
<!-- gandi_mx&#45;&gt;gmail -->
<g id="edge8" class="edge"><title>gandi_mx&#45;&gt;gmail</title>
<path fill="none" stroke="#182888" d="M613.885,-271.626C640.61,-257.796 682.234,-234.78 715,-210 723.782,-203.359 732.673,-195.333 740.475,-187.761"/>
<polygon fill="#182888" stroke="#182888" points="743.246,-189.941 747.868,-180.408 738.309,-184.978 743.246,-189.941"/>
</g>
<!-- fd_mail -->
<g id="node13" class="node"><title>fd_mail</title>
<polygon fill="#aabbff" stroke="black" points="702.25,-179 699.25,-183 678.25,-183 675.25,-179 639.75,-179 639.75,-143 702.25,-143 702.25,-179"/>
<text text-anchor="middle" x="671" y="-157.3" font-family="Times,serif" font-size="14.00">Mailbox</text>
</g>
<!-- gandi_mx&#45;&gt;fd_mail -->
<g id="edge9" class="edge"><title>gandi_mx&#45;&gt;fd_mail</title>
<path fill="none" stroke="#182888" d="M598.329,-268.412C612.527,-247.621 637.009,-211.772 653.593,-187.489"/>
<polygon fill="#182888" stroke="#182888" points="656.563,-189.347 659.312,-179.115 650.782,-185.399 656.563,-189.347"/>
</g>
<!-- gandi_mx&#45;&gt;crm_mail -->
<g id="edge10" class="edge"><title>gandi_mx&#45;&gt;crm_mail</title>
<path fill="none" stroke="#182888" d="M566.715,-269.819C549.992,-256.119 527.119,-234.412 515,-210 499.794,-179.37 521.517,-162.749 503,-134 480.044,-98.3601 437.632,-73.5512 405.861,-58.9404"/>
<polygon fill="#182888" stroke="#182888" points="406.936,-55.5885 396.376,-54.7328 404.097,-61.9871 406.936,-55.5885"/>
</g>
<!-- aws_r53&#45;&gt;gandi_mx -->
<g id="edge7" class="edge"><title>aws_r53&#45;&gt;gandi_mx</title>
<path fill="none" stroke="#182888" d="M398.687,-381.978C426.116,-370.624 467.818,-352.736 503,-335 520.427,-326.214 539.34,-315.515 554.799,-306.45"/>
<polygon fill="#182888" stroke="#182888" points="556.637,-309.429 563.464,-301.328 553.075,-303.403 556.637,-309.429"/>
<text text-anchor="middle" x="513" y="-347.3" font-family="Times,serif" font-size="14.00">DNS:MX</text>
</g>
<!-- aws_r53&#45;&gt;aws_r53 -->
<g id="edge3" class="edge"><title>aws_r53&#45;&gt;aws_r53</title>
<path fill="none" stroke="black" d="M416.946,-402.496C424.133,-401.336 429,-398.837 429,-395 429,-389.543 419.156,-386.793 406.793,-386.751"/>
<polygon fill="black" stroke="black" points="416.506,-399.019 406.793,-403.249 417.024,-405.999 416.506,-399.019"/>
<text text-anchor="middle" x="459.5" y="-391.3" font-family="Times,serif" font-size="14.00">DNS:www</text>
</g>
<!-- aws_ec2 -->
<g id="node10" class="node"><title>aws_ec2</title>
<ellipse fill="#55cc55" stroke="black" cx="369" cy="-286" rx="27" ry="18"/>
<text text-anchor="middle" x="369" y="-282.3" font-family="Times,serif" font-size="14.00">EC2</text>
</g>
<!-- aws_r53&#45;&gt;aws_ec2 -->
<g id="edge4" class="edge"><title>aws_r53&#45;&gt;aws_ec2</title>
<path fill="none" stroke="black" d="M369,-376.809C369,-359.961 369,-334.018 369,-314.339"/>
<polygon fill="black" stroke="black" points="372.5,-314.149 369,-304.149 365.5,-314.149 372.5,-314.149"/>
<text text-anchor="middle" x="402.5" y="-347.3" font-family="Times,serif" font-size="14.00">DNS:APEX</text>
</g>
<!-- aws_rds -->
<g id="node11" class="node"><title>aws_rds</title>
<ellipse fill="#55cc55" stroke="black" cx="426" cy="-161" rx="27.4223" ry="18"/>
<text text-anchor="middle" x="426" y="-157.3" font-family="Times,serif" font-size="14.00">RDS</text>
</g>
<!-- aws_ec2&#45;&gt;aws_rds -->
<g id="edge5" class="edge"><title>aws_ec2&#45;&gt;aws_rds</title>
<path fill="none" stroke="black" d="M385.224,-271.281C391.92,-264.838 399.217,-256.672 404,-248 414.047,-229.784 419.615,-206.868 422.635,-189.272"/>
<polygon fill="black" stroke="black" points="426.139,-189.51 424.203,-179.094 419.221,-188.445 426.139,-189.51"/>
<text text-anchor="middle" x="448.5" y="-236.8" font-family="Times,serif" font-size="14.00">Database</text>
<text text-anchor="middle" x="448.5" y="-221.8" font-family="Times,serif" font-size="14.00">(postgresql)</text>
</g>
<!-- aws_ses -->
<g id="node12" class="node"><title>aws_ses</title>
<ellipse fill="#55cc55" stroke="black" cx="338" cy="-161" rx="27" ry="18"/>
<text text-anchor="middle" x="338" y="-157.3" font-family="Times,serif" font-size="14.00">SES</text>
</g>
<!-- aws_ec2&#45;&gt;aws_ses -->
<g id="edge6" class="edge"><title>aws_ec2&#45;&gt;aws_ses</title>
<path fill="none" stroke="black" d="M347.22,-275.271C336.32,-269.142 324.162,-260.084 318,-248 308.246,-228.873 315.152,-204.933 323.408,-187.171"/>
<polygon fill="black" stroke="black" points="326.651,-188.513 328.036,-178.009 320.403,-185.357 326.651,-188.513"/>
<text text-anchor="middle" x="361" y="-236.8" font-family="Times,serif" font-size="14.00">Outgoing email</text>
<text text-anchor="middle" x="361" y="-221.8" font-family="Times,serif" font-size="14.00">(SMTP)</text>
</g>
<!-- aws_ses&#45;&gt;usr_email -->
<g id="edge11" class="edge"><title>aws_ses&#45;&gt;usr_email</title>
<path fill="none" stroke="red" d="M357.153,-148.099C366.433,-142.901 377.941,-137.257 389,-134 464.851,-111.662 488.099,-129.562 566,-116 659.651,-99.6964 767.619,-70.0238 823.001,-53.9883"/>
<polygon fill="red" stroke="red" points="824.093,-57.3159 832.715,-51.1591 822.135,-50.5951 824.093,-57.3159"/>
</g>
<!-- aws_ses&#45;&gt;aws_r53 -->
<g id="edge13" class="edge"><title>aws_ses&#45;&gt;aws_r53</title>
<path fill="none" stroke="#182888" d="M327.55,-177.895C321.086,-188.707 313.396,-203.613 310,-218 306.937,-230.977 308.282,-234.778 310,-248 315.154,-287.662 317.309,-298.211 333,-335 338.025,-346.781 345.117,-358.994 351.68,-369.231"/>
<polygon fill="#182888" stroke="#182888" points="348.814,-371.243 357.246,-377.658 354.655,-367.385 348.814,-371.243"/>
</g>
<!-- aws_ses&#45;&gt;crm_mail -->
<g id="edge12" class="edge"><title>aws_ses&#45;&gt;crm_mail</title>
<path fill="none" stroke="#182888" stroke-dasharray="5,2" d="M341.926,-142.987C346.345,-123.838 353.584,-92.4683 358.776,-69.9708"/>
<polygon fill="#182888" stroke="#182888" points="362.231,-70.5643 361.069,-60.0333 355.41,-68.9902 362.231,-70.5643"/>
<text text-anchor="middle" x="366" y="-104.3" font-family="Times,serif" font-size="14.00">BCC</text>
</g>
<!-- fd_web&#45;&gt;usr_email -->
<g id="edge18" class="edge"><title>fd_web&#45;&gt;usr_email</title>
<path fill="none" stroke="red" d="M610.676,-142.947C617.41,-139.908 624.397,-136.816 631,-134 698.275,-105.311 777.821,-74.357 823.248,-56.9572"/>
<polygon fill="red" stroke="red" points="824.587,-60.1924 832.678,-53.3523 822.087,-53.6538 824.587,-60.1924"/>
</g>
<!-- fd_web&#45;&gt;crm_mail -->
<g id="edge19" class="edge"><title>fd_web&#45;&gt;crm_mail</title>
<path fill="none" stroke="#182888" stroke-dasharray="5,2" d="M559.989,-142.793C548.508,-129.61 531.231,-111.747 513,-100 479.688,-78.536 437.054,-63.1901 406.108,-53.8673"/>
<polygon fill="#182888" stroke="#182888" points="407.079,-50.5047 396.498,-51.0519 405.111,-57.2223 407.079,-50.5047"/>
<text text-anchor="middle" x="548" y="-104.3" font-family="Times,serif" font-size="14.00">BCC</text>
</g>
</g>
</svg>
