<?xml version="1.0" encoding="UTF-8" standalone="no"?>
<!DOCTYPE svg PUBLIC "-//W3C//DTD SVG 1.1//EN"
 "http://www.w3.org/Graphics/SVG/1.1/DTD/svg11.dtd">
<!-- Generated by graphviz version 2.36.0 (20140111.2315)
 -->
<!-- Title: G Pages: 1 -->
<svg width="977pt" height="624pt"
 viewBox="0.00 0.00 977.00 624.00" xmlns="http://www.w3.org/2000/svg" xmlns:xlink="http://www.w3.org/1999/xlink">
<g id="graph0" class="graph" transform="scale(1 1) rotate(0) translate(4 620)">
<title>G</title>
<polygon fill="white" stroke="none" points="-4,4 -4,-620 973,-620 973,4 -4,4"/>
<text text-anchor="middle" x="484.5" y="-600.8" font-family="Times,serif" font-size="14.00">ShipReq System Diagram</text>
<text text-anchor="middle" x="484.5" y="-585.8" font-family="Times,serif" font-size="14.00">(arrows denote flow of data from one component to another)</text>
<text text-anchor="middle" x="484.5" y="-570.8" font-family="Times,serif" font-size="14.00">(ignores which component instigates the data transfer)</text>
<g id="clust1" class="cluster"><title>cluster_usr</title>
<polygon fill="#eeeeaa" stroke="black" points="486,-8 486,-197 588,-197 588,-8 486,-8"/>
<text text-anchor="middle" x="537" y="-181.8" font-family="Times,serif" font-size="14.00">Userland</text>
</g>
<g id="clust2" class="cluster"><title>cluster_gandi</title>
<polygon fill="#e8e8e8" stroke="black" points="8,-120 8,-310 312,-310 312,-120 8,-120"/>
<text text-anchor="middle" x="160" y="-294.8" font-family="Times,serif" font-size="14.00">gandi.net</text>
</g>
<g id="clust3" class="cluster"><title>cluster_aws</title>
<polygon fill="#e8e8e8" stroke="black" points="438,-349 438,-555 674,-555 674,-349 438,-349"/>
<text text-anchor="middle" x="556" y="-539.8" font-family="Times,serif" font-size="14.00">Amazon Web Services</text>
</g>
<g id="clust5" class="cluster"><title>cluster_mc</title>
<polygon fill="#e8e8e8" stroke="black" points="682,-235 682,-424 792,-424 792,-235 682,-235"/>
<text text-anchor="middle" x="737" y="-408.8" font-family="Times,serif" font-size="14.00">MailChimp</text>
</g>
<g id="clust6" class="cluster"><title>cluster_fd</title>
<polygon fill="#e8e8e8" stroke="black" points="320,-235 320,-424 430,-424 430,-235 320,-235"/>
<text text-anchor="middle" x="375" y="-408.8" font-family="Times,serif" font-size="14.00">Freshdesk</text>
</g>
<g id="clust7" class="cluster"><title>cluster_crm</title>
<polygon fill="#e8e8e8" stroke="black" points="809,-9 809,-196 961,-196 961,-9 809,-9"/>
<text text-anchor="middle" x="885" y="-180.8" font-family="Times,serif" font-size="14.00">Insightly</text>
</g>
<!-- gmail -->
<g id="node1" class="node"><title>gmail</title>
<polygon fill="#aabbff" stroke="black" points="298,-394 295,-398 274,-398 271,-394 222,-394 222,-356 298,-356 298,-394"/>
<text text-anchor="middle" x="260" y="-378.8" font-family="Times,serif" font-size="14.00">shipreq@</text>
<text text-anchor="middle" x="260" y="-363.8" font-family="Times,serif" font-size="14.00">gmail.com</text>
</g>
<!-- gandi_mx -->
<g id="node4" class="node"><title>gandi_mx</title>
<ellipse fill="#55cc55" stroke="black" cx="260" cy="-261" rx="44.2946" ry="18"/>
<text text-anchor="middle" x="260" y="-257.3" font-family="Times,serif" font-size="14.00">Mail fwd</text>
</g>
<!-- gmail&#45;&gt;gandi_mx -->
<g id="edge15" class="edge"><title>gmail&#45;&gt;gandi_mx</title>
<path fill="none" stroke="#5566aa" d="M260,-345.251C260,-324.298 260,-296.613 260,-279.052"/>
<polygon fill="#5566aa" stroke="#5566aa" points="256.5,-345.505 260,-355.505 263.5,-345.506 256.5,-345.505"/>
</g>
<!-- usr_web -->
<g id="node2" class="node"><title>usr_web</title>
<polygon fill="#ccaa66" stroke="black" points="580,-54 506,-54 506,-58 494,-58 494,-16 580,-16 580,-54"/>
<polyline fill="none" stroke="black" points="494,-54 506,-54 "/>
<text text-anchor="middle" x="537" y="-38.8" font-family="Times,serif" font-size="14.00">User&#39;s</text>
<text text-anchor="middle" x="537" y="-23.8" font-family="Times,serif" font-size="14.00">web browser</text>
</g>
<!-- usr_email -->
<g id="node3" class="node"><title>usr_email</title>
<polygon fill="#ccaaaa" stroke="black" points="564,-166 561,-170 540,-170 537,-166 510,-166 510,-128 564,-128 564,-166"/>
<text text-anchor="middle" x="537" y="-150.8" font-family="Times,serif" font-size="14.00">User&#39;s</text>
<text text-anchor="middle" x="537" y="-135.8" font-family="Times,serif" font-size="14.00">email</text>
</g>
<!-- usr_email&#45;&gt;usr_web -->
<g id="edge21" class="edge"><title>usr_email&#45;&gt;usr_web</title>
<path fill="none" stroke="#5566aa" d="M537,-127.836C537,-110.559 537,-84.309 537,-64.2917"/>
<polygon fill="#5566aa" stroke="#5566aa" points="540.5,-64.1912 537,-54.1912 533.5,-64.1913 540.5,-64.1912"/>
</g>
<!-- usr_email&#45;&gt;gandi_mx -->
<g id="edge24" class="edge"><title>usr_email&#45;&gt;gandi_mx</title>
<path fill="none" stroke="#5566aa" d="M509.967,-158.193C468.158,-174.06 385.386,-205.872 316,-235 310.073,-237.488 303.827,-240.193 297.742,-242.874"/>
<polygon fill="#5566aa" stroke="#5566aa" points="296.098,-239.775 288.381,-247.034 298.941,-246.172 296.098,-239.775"/>
</g>
<!-- ea_contact -->
<g id="node5" class="node"><title>ea_contact</title>
<polygon fill="#aabbff" stroke="black" points="303.5,-166 300.5,-170 279.5,-170 276.5,-166 220.5,-166 220.5,-128 303.5,-128 303.5,-166"/>
<text text-anchor="middle" x="262" y="-150.8" font-family="Times,serif" font-size="14.00">contact@</text>
<text text-anchor="middle" x="262" y="-135.8" font-family="Times,serif" font-size="14.00">shipreq.com</text>
</g>
<!-- gandi_mx&#45;&gt;ea_contact -->
<g id="edge10" class="edge"><title>gandi_mx&#45;&gt;ea_contact</title>
<path fill="none" stroke="#5566aa" d="M260.483,-232.938C260.852,-212.281 261.35,-184.38 261.673,-166.289"/>
<polygon fill="#5566aa" stroke="#5566aa" points="256.983,-232.929 260.304,-242.99 263.982,-233.054 256.983,-232.929"/>
</g>
<!-- ea_news -->
<g id="node6" class="node"><title>ea_news</title>
<polygon fill="#aabbff" stroke="black" points="99.5,-166 96.5,-170 75.5,-170 72.5,-166 16.5,-166 16.5,-128 99.5,-128 99.5,-166"/>
<text text-anchor="middle" x="58" y="-150.8" font-family="Times,serif" font-size="14.00">news@</text>
<text text-anchor="middle" x="58" y="-135.8" font-family="Times,serif" font-size="14.00">shipreq.com</text>
</g>
<!-- gandi_mx&#45;&gt;ea_news -->
<g id="edge11" class="edge"><title>gandi_mx&#45;&gt;ea_news</title>
<path fill="none" stroke="#5566aa" d="M215.782,-246.42C184.488,-235.677 142.332,-218.854 109,-197 95.8565,-188.383 83.1065,-176.133 73.6424,-166.037"/>
<polygon fill="#5566aa" stroke="#5566aa" points="214.942,-249.83 225.536,-249.693 217.168,-243.193 214.942,-249.83"/>
</g>
<!-- ea_notice -->
<g id="node7" class="node"><title>ea_notice</title>
<polygon fill="#aabbff" stroke="black" points="201.5,-166 198.5,-170 177.5,-170 174.5,-166 118.5,-166 118.5,-128 201.5,-128 201.5,-166"/>
<text text-anchor="middle" x="160" y="-150.8" font-family="Times,serif" font-size="14.00">notice@</text>
<text text-anchor="middle" x="160" y="-135.8" font-family="Times,serif" font-size="14.00">shipreq.com</text>
</g>
<!-- gandi_mx&#45;&gt;ea_notice -->
<g id="edge12" class="edge"><title>gandi_mx&#45;&gt;ea_notice</title>
<path fill="none" stroke="#5566aa" d="M238.954,-236.429C220.276,-215.51 193.374,-185.378 176.293,-166.248"/>
<polygon fill="#5566aa" stroke="#5566aa" points="236.401,-238.825 245.672,-243.953 241.623,-234.163 236.401,-238.825"/>
</g>
<!-- fd_mail -->
<g id="node14" class="node"><title>fd_mail</title>
<polygon fill="#aabbff" stroke="black" points="398.25,-393 395.25,-397 374.25,-397 371.25,-393 335.75,-393 335.75,-357 398.25,-357 398.25,-393"/>
<text text-anchor="middle" x="367" y="-371.3" font-family="Times,serif" font-size="14.00">Mailbox</text>
</g>
<!-- gandi_mx&#45;&gt;fd_mail -->
<g id="edge13" class="edge"><title>gandi_mx&#45;&gt;fd_mail</title>
<path fill="none" stroke="#5566aa" d="M275.361,-278.079C293.281,-296.836 323.092,-328.04 343.827,-349.745"/>
<polygon fill="#5566aa" stroke="#5566aa" points="341.31,-352.177 350.749,-356.99 346.372,-347.341 341.31,-352.177"/>
</g>
<!-- crm_mail -->
<g id="node16" class="node"><title>crm_mail</title>
<polygon fill="#aabbff" stroke="black" points="880.25,-165 877.25,-169 856.25,-169 853.25,-165 817.75,-165 817.75,-129 880.25,-129 880.25,-165"/>
<text text-anchor="middle" x="849" y="-143.3" font-family="Times,serif" font-size="14.00">Mailbox</text>
</g>
<!-- gandi_mx&#45;&gt;crm_mail -->
<g id="edge14" class="edge"><title>gandi_mx&#45;&gt;crm_mail</title>
<path fill="none" stroke="#5566aa" d="M286.199,-246.462C295.41,-242.203 305.968,-237.867 316,-235 435.058,-200.977 469.81,-217.046 592,-197 668.319,-184.479 756.808,-166.937 807.515,-156.593"/>
<polygon fill="#5566aa" stroke="#5566aa" points="808.346,-159.995 817.441,-154.561 806.943,-153.137 808.346,-159.995"/>
</g>
<!-- aws_rds -->
<g id="node8" class="node"><title>aws_rds</title>
<ellipse fill="#55cc55" stroke="black" cx="525" cy="-375" rx="27.4223" ry="18"/>
<text text-anchor="middle" x="525" y="-371.3" font-family="Times,serif" font-size="14.00">RDS</text>
</g>
<!-- aws_ses -->
<g id="node9" class="node"><title>aws_ses</title>
<ellipse fill="#55cc55" stroke="black" cx="603" cy="-375" rx="27" ry="18"/>
<text text-anchor="middle" x="603" y="-371.3" font-family="Times,serif" font-size="14.00">SES</text>
</g>
<!-- wb -->
<g id="node10" class="node"><title>wb</title>
<ellipse fill="pink" stroke="black" cx="484" cy="-497" rx="38.0212" ry="18"/>
<text text-anchor="middle" x="484" y="-493.3" font-family="Times,serif" font-size="14.00">webapp</text>
</g>
<!-- wb&#45;&gt;usr_web -->
<g id="edge7" class="edge"><title>wb&#45;&gt;usr_web</title>
<path fill="none" stroke="black" d="M514.863,-477.047C520.113,-474.375 525.613,-471.897 531,-470 670.414,-420.907 850,-523.805 850,-376 850,-376 850,-376 850,-318 850,-179.505 678.763,-91.6083 589.6,-55.2281"/>
<polygon fill="black" stroke="black" points="512.883,-474.139 505.76,-481.982 516.219,-480.292 512.883,-474.139"/>
<polygon fill="black" stroke="black" points="590.777,-51.9292 580.193,-51.4566 588.172,-58.4265 590.777,-51.9292"/>
</g>
<!-- wb&#45;&gt;aws_rds -->
<g id="edge1" class="edge"><title>wb&#45;&gt;aws_rds</title>
<path fill="none" stroke="black" d="M493.084,-469.413C499.884,-449.51 509.145,-422.404 515.94,-402.518"/>
<polygon fill="black" stroke="black" points="489.709,-468.467 489.787,-479.061 496.333,-470.73 489.709,-468.467"/>
<polygon fill="black" stroke="black" points="519.321,-403.447 519.242,-392.852 512.697,-401.184 519.321,-403.447"/>
</g>
<!-- worker -->
<g id="node11" class="node"><title>worker</title>
<ellipse fill="pink" stroke="black" cx="603" cy="-497" rx="62.3993" ry="26.7407"/>
<text text-anchor="middle" x="603" y="-500.8" font-family="Times,serif" font-size="14.00">Backend task</text>
<text text-anchor="middle" x="603" y="-485.8" font-family="Times,serif" font-size="14.00">processor</text>
</g>
<!-- worker&#45;&gt;usr_email -->
<g id="edge16" class="edge"><title>worker&#45;&gt;usr_email</title>
<path fill="none" stroke="#5566aa" d="M661.854,-487.806C704.423,-478.949 760.482,-460.795 796,-424 811.618,-407.821 812,-398.487 812,-376 812,-376 812,-376 812,-318 812,-280.432 820.732,-263.279 796,-235 780.963,-217.807 641.935,-177.235 574.008,-158.198"/>
<polygon fill="#5566aa" stroke="#5566aa" points="574.709,-154.76 564.136,-155.443 572.827,-161.502 574.709,-154.76"/>
</g>
<!-- worker&#45;&gt;ea_contact -->
<g id="edge17" class="edge"><title>worker&#45;&gt;ea_contact</title>
<path fill="none" stroke="#5566aa" d="M555.78,-479.046C514.127,-460.702 460,-427.045 460,-376 460,-376 460,-376 460,-260 460,-192.613 372.039,-165.3 313.372,-154.577"/>
<polygon fill="#5566aa" stroke="#5566aa" points="313.956,-151.126 303.507,-152.878 312.768,-158.024 313.956,-151.126"/>
</g>
<!-- worker&#45;&gt;aws_rds -->
<g id="edge2" class="edge"><title>worker&#45;&gt;aws_rds</title>
<path fill="none" stroke="black" d="M581.141,-462.37C568.391,-442.755 552.589,-418.445 541.002,-400.618"/>
<polygon fill="black" stroke="black" points="578.264,-464.367 586.649,-470.844 584.133,-460.552 578.264,-464.367"/>
<polygon fill="black" stroke="black" points="543.749,-398.423 535.365,-391.946 537.88,-402.238 543.749,-398.423"/>
</g>
<!-- worker&#45;&gt;aws_ses -->
<g id="edge8" class="edge"><title>worker&#45;&gt;aws_ses</title>
<path fill="none" stroke="#5566aa" d="M603,-469.962C603,-450.212 603,-423.143 603,-403.13"/>
<polygon fill="#5566aa" stroke="#5566aa" points="606.5,-403.107 603,-393.107 599.5,-403.107 606.5,-403.107"/>
</g>
<!-- mc_api -->
<g id="node12" class="node"><title>mc_api</title>
<ellipse fill="#55cc55" stroke="black" cx="727" cy="-375" rx="27" ry="18"/>
<text text-anchor="middle" x="727" y="-371.3" font-family="Times,serif" font-size="14.00">API</text>
</g>
<!-- worker&#45;&gt;mc_api -->
<g id="edge3" class="edge"><title>worker&#45;&gt;mc_api</title>
<path fill="none" stroke="black" d="M635.555,-464.884C648.758,-452.229 664.135,-437.445 678,-424 686.902,-415.368 696.668,-405.817 705.124,-397.522"/>
<polygon fill="black" stroke="black" points="632.861,-462.618 628.061,-472.063 637.703,-467.673 632.861,-462.618"/>
<polygon fill="black" stroke="black" points="707.775,-399.824 712.458,-390.321 702.87,-394.83 707.775,-399.824"/>
</g>
<!-- worker&#45;&gt;crm_mail -->
<g id="edge18" class="edge"><title>worker&#45;&gt;crm_mail</title>
<path fill="none" stroke="#5566aa" d="M665.544,-496.013C749.439,-492.364 888,-471.83 888,-376 888,-376 888,-376 888,-260 888,-229.33 874.796,-196.433 863.754,-174.283"/>
<polygon fill="#5566aa" stroke="#5566aa" points="866.754,-172.465 859.043,-165.198 860.539,-175.687 866.754,-172.465"/>
</g>
<!-- crm_api -->
<g id="node18" class="node"><title>crm_api</title>
<ellipse fill="#55cc55" stroke="black" cx="926" cy="-147" rx="27" ry="18"/>
<text text-anchor="middle" x="926" y="-143.3" font-family="Times,serif" font-size="14.00">API</text>
</g>
<!-- worker&#45;&gt;crm_api -->
<g id="edge4" class="edge"><title>worker&#45;&gt;crm_api</title>
<path fill="none" stroke="black" d="M662.988,-489.116C720.658,-481.012 809.378,-464.596 881,-434 911.004,-421.183 926,-408.627 926,-376 926,-376 926,-376 926,-260 926,-231.092 926,-197.986 926,-175.308"/>
<polygon fill="black" stroke="black" points="929.5,-175.077 926,-165.077 922.5,-175.077 929.5,-175.077"/>
</g>
<!-- mc_web -->
<g id="node13" class="node"><title>mc_web</title>
<polygon fill="#55cc55" stroke="black" points="784,-279 702,-279 702,-283 690,-283 690,-243 784,-243 784,-279"/>
<polyline fill="none" stroke="black" points="690,-279 702,-279 "/>
<text text-anchor="middle" x="737" y="-257.3" font-family="Times,serif" font-size="14.00">Web interface</text>
</g>
<!-- mc_api&#45;&gt;mc_web -->
<g id="edge6" class="edge"><title>mc_api&#45;&gt;mc_web</title>
<path fill="none" stroke="black" d="M728.519,-356.99C730.127,-338.981 732.688,-310.293 734.576,-289.152"/>
<polygon fill="black" stroke="black" points="738.064,-289.442 735.467,-279.17 731.091,-288.82 738.064,-289.442"/>
</g>
<!-- mc_web&#45;&gt;usr_email -->
<g id="edge9" class="edge"><title>mc_web&#45;&gt;usr_email</title>
<path fill="none" stroke="#5566aa" d="M706.624,-242.99C670.71,-222.878 611.012,-189.447 572.861,-168.082"/>
<polygon fill="#5566aa" stroke="#5566aa" points="574.559,-165.022 564.124,-163.189 571.139,-171.129 574.559,-165.022"/>
</g>
<!-- fd_web -->
<g id="node15" class="node"><title>fd_web</title>
<polygon fill="#55cc55" stroke="black" points="422,-279 340,-279 340,-283 328,-283 328,-243 422,-243 422,-279"/>
<polyline fill="none" stroke="black" points="328,-279 340,-279 "/>
<text text-anchor="middle" x="375" y="-257.3" font-family="Times,serif" font-size="14.00">Web interface</text>
</g>
<!-- fd_mail&#45;&gt;fd_web -->
<g id="edge23" class="edge"><title>fd_mail&#45;&gt;fd_web</title>
<path fill="none" stroke="#5566aa" d="M368.215,-356.99C369.501,-338.981 371.55,-310.293 373.061,-289.152"/>
<polygon fill="#5566aa" stroke="#5566aa" points="376.552,-289.394 373.774,-279.17 369.57,-288.896 376.552,-289.394"/>
</g>
<!-- fd_web&#45;&gt;usr_email -->
<g id="edge20" class="edge"><title>fd_web&#45;&gt;usr_email</title>
<path fill="none" stroke="#5566aa" d="M399.604,-242.99C427.032,-224.027 471.586,-193.225 502.49,-171.859"/>
<polygon fill="#5566aa" stroke="#5566aa" points="504.583,-174.667 510.819,-166.101 500.603,-168.909 504.583,-174.667"/>
</g>
<!-- fd_web&#45;&gt;crm_mail -->
<g id="edge19" class="edge"><title>fd_web&#45;&gt;crm_mail</title>
<path fill="none" stroke="#5566aa" d="M422.122,-255.775C534.505,-245.521 810.133,-219.264 826,-207 836.024,-199.252 841.684,-186.523 844.878,-174.869"/>
<polygon fill="#5566aa" stroke="#5566aa" points="848.305,-175.581 847.097,-165.055 841.477,-174.037 848.305,-175.581"/>
</g>
<!-- crm_web -->
<g id="node17" class="node"><title>crm_web</title>
<polygon fill="#55cc55" stroke="black" points="931,-53 849,-53 849,-57 837,-57 837,-17 931,-17 931,-53"/>
<polyline fill="none" stroke="black" points="837,-53 849,-53 "/>
<text text-anchor="middle" x="884" y="-31.3" font-family="Times,serif" font-size="14.00">Web interface</text>
</g>
<!-- crm_mail&#45;&gt;crm_web -->
<g id="edge22" class="edge"><title>crm_mail&#45;&gt;crm_web</title>
<path fill="none" stroke="#5566aa" d="M854.469,-128.812C860.094,-111.134 868.933,-83.3535 875.476,-62.7887"/>
<polygon fill="#5566aa" stroke="#5566aa" points="878.873,-63.6573 878.57,-53.0668 872.202,-61.5348 878.873,-63.6573"/>
</g>
<!-- crm_api&#45;&gt;crm_web -->
<g id="edge5" class="edge"><title>crm_api&#45;&gt;crm_web</title>
<path fill="none" stroke="black" d="M919.621,-129.293C912.877,-111.629 902.137,-83.5029 894.212,-62.7465"/>
<polygon fill="black" stroke="black" points="897.414,-61.3209 890.578,-53.2272 890.875,-63.8178 897.414,-61.3209"/>
</g>
</g>
</svg>
