<?xml version="1.0" encoding="UTF-8" standalone="no"?>
<!DOCTYPE svg PUBLIC "-//W3C//DTD SVG 1.1//EN"
 "http://www.w3.org/Graphics/SVG/1.1/DTD/svg11.dtd">
<!-- Generated by graphviz version 2.36.0 (20140111.2315)
 -->
<!-- Title: G Pages: 1 -->
<svg width="1159pt" height="753pt"
 viewBox="0.00 0.00 1159.00 753.00" xmlns="http://www.w3.org/2000/svg" xmlns:xlink="http://www.w3.org/1999/xlink">
<g id="graph0" class="graph" transform="scale(1 1) rotate(0) translate(4 749)">
<title>G</title>
<polygon fill="white" stroke="none" points="-4,4 -4,-749 1155,-749 1155,4 -4,4"/>
<text text-anchor="middle" x="575.5" y="-729.8" font-family="Times,serif" font-size="14.00">ShipReq System Diagram</text>
<text text-anchor="middle" x="575.5" y="-714.8" font-family="Times,serif" font-size="14.00">(arrows denote a component&#39;s knowledge of another)</text>
<g id="clust1" class="cluster"><title>cluster_gandi</title>
<polygon fill="#ccddcc" stroke="black" points="594,-157 594,-382 898,-382 898,-157 594,-157"/>
<text text-anchor="middle" x="746" y="-366.8" font-family="Times,serif" font-size="14.00">gandi.net</text>
</g>
<g id="clust2" class="cluster"><title>cluster_aws</title>
<polygon fill="#ccddcc" stroke="black" points="161,-307 161,-699 396,-699 396,-307 161,-307"/>
<text text-anchor="middle" x="278.5" y="-683.8" font-family="Times,serif" font-size="14.00">Amazon Web Services</text>
</g>
<g id="clust4" class="cluster"><title>cluster_mc</title>
<polygon fill="#ccddcc" stroke="black" points="404,-307 404,-382 586,-382 586,-307 404,-307"/>
<text text-anchor="middle" x="495" y="-366.8" font-family="Times,serif" font-size="14.00">MailChimp</text>
</g>
<g id="clust5" class="cluster"><title>cluster_fd</title>
<polygon fill="#ccddcc" stroke="black" points="906,-158 906,-233 1098,-233 1098,-158 906,-158"/>
<text text-anchor="middle" x="1002" y="-217.8" font-family="Times,serif" font-size="14.00">Freshdesk</text>
</g>
<g id="clust6" class="cluster"><title>cluster_crm</title>
<polygon fill="#ccddcc" stroke="black" points="8,-8 8,-83 272,-83 272,-8 8,-8"/>
<text text-anchor="middle" x="140" y="-67.8" font-family="Times,serif" font-size="14.00">Insightly</text>
</g>
<!-- gmail -->
<g id="node1" class="node"><title>gmail</title>
<polygon fill="#aabbff" stroke="black" points="768,-521 765,-525 744,-525 741,-521 692,-521 692,-483 768,-483 768,-521"/>
<text text-anchor="middle" x="730" y="-505.8" font-family="Times,serif" font-size="14.00">shipreq@</text>
<text text-anchor="middle" x="730" y="-490.8" font-family="Times,serif" font-size="14.00">gmail.com</text>
</g>
<!-- gandi_mx -->
<g id="node3" class="node"><title>gandi_mx</title>
<ellipse fill="#55cc55" stroke="black" cx="804" cy="-333" rx="44.2946" ry="18"/>
<text text-anchor="middle" x="804" y="-329.3" font-family="Times,serif" font-size="14.00">Mail fwd</text>
</g>
<!-- gmail&#45;&gt;gandi_mx -->
<g id="edge20" class="edge"><title>gmail&#45;&gt;gandi_mx</title>
<path fill="none" stroke="black" d="M739.688,-473.549C746.331,-455.327 755.61,-430.99 765,-410 774.326,-389.152 786.545,-365.884 794.801,-350.652"/>
<polygon fill="black" stroke="black" points="736.386,-472.389 736.285,-482.983 742.97,-474.764 736.386,-472.389"/>
<text text-anchor="middle" x="777.5" y="-414.3" font-family="Times,serif" font-size="14.00">Fwd</text>
</g>
<!-- gandi_dns -->
<g id="node2" class="node"><title>gandi_dns</title>
<ellipse fill="#55cc55" stroke="black" cx="631" cy="-333" rx="28.3955" ry="18"/>
<text text-anchor="middle" x="631" y="-329.3" font-family="Times,serif" font-size="14.00">DNS</text>
</g>
<!-- aws_r53 -->
<g id="node7" class="node"><title>aws_r53</title>
<ellipse fill="#55cc55" stroke="black" cx="345" cy="-650" rx="42.3456" ry="18"/>
<text text-anchor="middle" x="345" y="-646.3" font-family="Times,serif" font-size="14.00">Route 53</text>
</g>
<!-- gandi_dns&#45;&gt;aws_r53 -->
<g id="edge1" class="edge"><title>gandi_dns&#45;&gt;aws_r53</title>
<path fill="none" stroke="black" d="M616.697,-348.849C603.194,-364.486 585,-390.476 585,-417 585,-587 585,-587 585,-587 585,-625.556 467.416,-640.513 396.855,-646.018"/>
<polygon fill="black" stroke="black" points="396.519,-642.533 386.805,-646.763 397.036,-649.514 396.519,-642.533"/>
<text text-anchor="middle" x="627.5" y="-498.3" font-family="Times,serif" font-size="14.00">Delegates DNS</text>
</g>
<!-- ea_contact -->
<g id="node4" class="node"><title>ea_contact</title>
<polygon fill="#aabbff" stroke="black" points="685.5,-203 682.5,-207 661.5,-207 658.5,-203 602.5,-203 602.5,-165 685.5,-165 685.5,-203"/>
<text text-anchor="middle" x="644" y="-187.8" font-family="Times,serif" font-size="14.00">contact@</text>
<text text-anchor="middle" x="644" y="-172.8" font-family="Times,serif" font-size="14.00">shipreq.com</text>
</g>
<!-- gandi_mx&#45;&gt;ea_contact -->
<g id="edge15" class="edge"><title>gandi_mx&#45;&gt;ea_contact</title>
<path fill="none" stroke="black" d="M785.564,-316.612C772.651,-305.725 755.079,-290.686 740,-277 715.705,-254.949 688.795,-229.024 669.663,-210.324"/>
<polygon fill="black" stroke="black" points="672.071,-207.785 662.479,-203.286 667.172,-212.784 672.071,-207.785"/>
<text text-anchor="middle" x="756" y="-265.3" font-family="Times,serif" font-size="14.00">Catch</text>
</g>
<!-- ea_news -->
<g id="node5" class="node"><title>ea_news</title>
<polygon fill="#aabbff" stroke="black" points="889.5,-203 886.5,-207 865.5,-207 862.5,-203 806.5,-203 806.5,-165 889.5,-165 889.5,-203"/>
<text text-anchor="middle" x="848" y="-187.8" font-family="Times,serif" font-size="14.00">news@</text>
<text text-anchor="middle" x="848" y="-172.8" font-family="Times,serif" font-size="14.00">shipreq.com</text>
</g>
<!-- gandi_mx&#45;&gt;ea_news -->
<g id="edge16" class="edge"><title>gandi_mx&#45;&gt;ea_news</title>
<path fill="none" stroke="black" d="M809.133,-314.85C816.596,-289.918 830.529,-243.369 839.527,-213.306"/>
<polygon fill="black" stroke="black" points="842.971,-214.006 842.486,-203.422 836.265,-211.999 842.971,-214.006"/>
<text text-anchor="middle" x="840" y="-265.3" font-family="Times,serif" font-size="14.00">Catch</text>
</g>
<!-- ea_notice -->
<g id="node6" class="node"><title>ea_notice</title>
<polygon fill="#aabbff" stroke="black" points="787.5,-203 784.5,-207 763.5,-207 760.5,-203 704.5,-203 704.5,-165 787.5,-165 787.5,-203"/>
<text text-anchor="middle" x="746" y="-187.8" font-family="Times,serif" font-size="14.00">notice@</text>
<text text-anchor="middle" x="746" y="-172.8" font-family="Times,serif" font-size="14.00">shipreq.com</text>
</g>
<!-- gandi_mx&#45;&gt;ea_notice -->
<g id="edge17" class="edge"><title>gandi_mx&#45;&gt;ea_notice</title>
<path fill="none" stroke="black" d="M797.347,-315.137C787.455,-290.068 768.763,-242.694 756.868,-212.546"/>
<polygon fill="black" stroke="black" points="760.043,-211.056 753.117,-203.039 753.532,-213.626 760.043,-211.056"/>
<text text-anchor="middle" x="797" y="-265.3" font-family="Times,serif" font-size="14.00">Catch</text>
</g>
<!-- fd_mail -->
<g id="node14" class="node"><title>fd_mail</title>
<polygon fill="#aabbff" stroke="black" points="1089.25,-202 1086.25,-206 1065.25,-206 1062.25,-202 1026.75,-202 1026.75,-166 1089.25,-166 1089.25,-202"/>
<text text-anchor="middle" x="1058" y="-180.3" font-family="Times,serif" font-size="14.00">Mailbox</text>
</g>
<!-- gandi_mx&#45;&gt;fd_mail -->
<g id="edge18" class="edge"><title>gandi_mx&#45;&gt;fd_mail</title>
<path fill="none" stroke="black" d="M837.788,-321.372C881.95,-306.4 960.33,-276.035 1017,-233 1025.42,-226.605 1033.32,-218.212 1039.89,-210.236"/>
<polygon fill="black" stroke="black" points="1042.8,-212.2 1046.23,-202.176 1037.29,-207.875 1042.8,-212.2"/>
<text text-anchor="middle" x="984.5" y="-265.3" font-family="Times,serif" font-size="14.00">Fwd</text>
</g>
<!-- crm_mail -->
<g id="node16" class="node"><title>crm_mail</title>
<polygon fill="#aabbff" stroke="black" points="263.25,-52 260.25,-56 239.25,-56 236.25,-52 200.75,-52 200.75,-16 263.25,-16 263.25,-52"/>
<text text-anchor="middle" x="232" y="-30.3" font-family="Times,serif" font-size="14.00">Mailbox</text>
</g>
<!-- gandi_mx&#45;&gt;crm_mail -->
<g id="edge19" class="edge"><title>gandi_mx&#45;&gt;crm_mail</title>
<path fill="none" stroke="black" d="M848.098,-332.574C936.285,-332.529 1126,-325.933 1126,-270 1126,-270 1126,-270 1126,-118 1126,-74.608 449.45,-43.8997 273.444,-36.6451"/>
<polygon fill="black" stroke="black" points="273.428,-33.1417 263.294,-36.23 273.142,-40.1358 273.428,-33.1417"/>
<text text-anchor="middle" x="1138.5" y="-180.3" font-family="Times,serif" font-size="14.00">Fwd</text>
</g>
<!-- aws_r53&#45;&gt;gandi_mx -->
<g id="edge14" class="edge"><title>aws_r53&#45;&gt;gandi_mx</title>
<path fill="none" stroke="black" d="M387.359,-647.688C500.988,-643.61 804,-628.814 804,-587 804,-587 804,-587 804,-417 804,-398.502 804,-377.684 804,-361.525"/>
<polygon fill="black" stroke="black" points="807.5,-361.168 804,-351.168 800.5,-361.168 807.5,-361.168"/>
<text text-anchor="middle" x="831" y="-498.3" font-family="Times,serif" font-size="14.00">DNS:MX</text>
</g>
<!-- aws_r53&#45;&gt;aws_r53 -->
<g id="edge2" class="edge"><title>aws_r53:w&#45;&gt;aws_r53:w</title>
<path fill="none" stroke="black" d="M294.118,-656.216C289.029,-657.838 284.104,-655.766 284.104,-650 284.104,-641 296.104,-641 302,-650"/>
<polygon fill="black" stroke="black" points="296.316,-658.941 302,-650 291.981,-653.445 296.316,-658.941"/>
<text text-anchor="middle" x="252.104" y="-646.3" font-family="Times,serif" font-size="14.00">DNS:www </text>
</g>
<!-- wb -->
<g id="node10" class="node"><title>wb</title>
<ellipse fill="pink" stroke="black" cx="207" cy="-502" rx="38.0212" ry="18"/>
<text text-anchor="middle" x="207" y="-498.3" font-family="Times,serif" font-size="14.00">webapp</text>
</g>
<!-- aws_r53&#45;&gt;wb -->
<g id="edge3" class="edge"><title>aws_r53&#45;&gt;wb</title>
<path fill="none" stroke="black" d="M329.969,-633.098C305.601,-607.317 257.358,-556.277 229.083,-526.363"/>
<polygon fill="black" stroke="black" points="231.425,-523.746 222.013,-518.883 226.338,-528.554 231.425,-523.746"/>
<text text-anchor="middle" x="325.5" y="-582.3" font-family="Times,serif" font-size="14.00">DNS:APEX</text>
</g>
<!-- aws_rds -->
<g id="node8" class="node"><title>aws_rds</title>
<ellipse fill="#55cc55" stroke="black" cx="360" cy="-333" rx="27.4223" ry="18"/>
<text text-anchor="middle" x="360" y="-329.3" font-family="Times,serif" font-size="14.00">RDS</text>
</g>
<!-- aws_ses -->
<g id="node9" class="node"><title>aws_ses</title>
<ellipse fill="#55cc55" stroke="black" cx="287" cy="-333" rx="27" ry="18"/>
<text text-anchor="middle" x="287" y="-329.3" font-family="Times,serif" font-size="14.00">SES</text>
</g>
<!-- wb&#45;&gt;ea_contact -->
<g id="edge21" class="edge"><title>wb&#45;&gt;ea_contact</title>
<path fill="none" stroke="black" stroke-dasharray="5,2" d="M202.671,-483.848C198.889,-467.344 194,-441.63 194,-419 194,-419 194,-419 194,-295 194,-213.808 473.919,-192.263 592.215,-186.783"/>
<polygon fill="black" stroke="black" points="592.636,-190.268 602.472,-186.33 592.327,-183.275 592.636,-190.268"/>
</g>
<!-- wb&#45;&gt;aws_rds -->
<g id="edge5" class="edge"><title>wb&#45;&gt;aws_rds</title>
<path fill="none" stroke="black" d="M223.371,-485.393C246.409,-463.169 289.343,-420.789 323,-382 329.684,-374.296 336.612,-365.544 342.64,-357.642"/>
<polygon fill="black" stroke="black" points="345.557,-359.586 348.774,-349.492 339.964,-355.377 345.557,-359.586"/>
</g>
<!-- wb&#45;&gt;aws_ses -->
<g id="edge4" class="edge"><title>wb&#45;&gt;aws_ses</title>
<path fill="none" stroke="black" d="M214.963,-484.377C228.98,-455.117 258.143,-394.24 274.743,-359.586"/>
<polygon fill="black" stroke="black" points="277.905,-361.087 279.069,-350.556 271.592,-358.062 277.905,-361.087"/>
</g>
<!-- mc_api -->
<g id="node12" class="node"><title>mc_api</title>
<ellipse fill="#55cc55" stroke="black" cx="551" cy="-333" rx="27" ry="18"/>
<text text-anchor="middle" x="551" y="-329.3" font-family="Times,serif" font-size="14.00">API</text>
</g>
<!-- wb&#45;&gt;mc_api -->
<g id="edge11" class="edge"><title>wb&#45;&gt;mc_api</title>
<path fill="none" stroke="black" d="M224.349,-485.599C233.105,-478.369 244.151,-470.036 255,-464 314.729,-430.767 333.657,-430.056 399,-410 449.702,-394.438 470.698,-411.157 515,-382 523.912,-376.135 531.455,-367.279 537.299,-358.765"/>
<polygon fill="black" stroke="black" points="540.359,-360.476 542.759,-350.156 534.447,-356.726 540.359,-360.476"/>
<text text-anchor="middle" x="447" y="-414.3" font-family="Times,serif" font-size="14.00">Push contact data</text>
</g>
<!-- wb&#45;&gt;crm_mail -->
<g id="edge22" class="edge"><title>wb&#45;&gt;crm_mail</title>
<path fill="none" stroke="black" stroke-dasharray="5,2" d="M184.788,-487.345C164.617,-473.05 138,-448.583 138,-419 138,-419 138,-419 138,-118 138,-89.7717 169.848,-101.693 191,-83 198.719,-76.178 206.298,-67.8942 212.798,-60.1419"/>
<polygon fill="black" stroke="black" points="215.796,-62.0018 219.384,-52.0328 210.363,-57.5888 215.796,-62.0018"/>
<text text-anchor="middle" x="152" y="-265.3" font-family="Times,serif" font-size="14.00">BCC</text>
</g>
<!-- crm_api -->
<g id="node18" class="node"><title>crm_api</title>
<ellipse fill="#55cc55" stroke="black" cx="43" cy="-34" rx="27" ry="18"/>
<text text-anchor="middle" x="43" y="-30.3" font-family="Times,serif" font-size="14.00">API</text>
</g>
<!-- wb&#45;&gt;crm_api -->
<g id="edge6" class="edge"><title>wb&#45;&gt;crm_api</title>
<path fill="none" stroke="black" d="M168.72,-501.656C110.402,-500.433 6,-488.534 6,-419 6,-419 6,-419 6,-118 6,-96.7668 16.2264,-74.9191 25.9266,-58.9716"/>
<polygon fill="black" stroke="black" points="29.0298,-60.6169 31.4958,-50.313 23.1424,-56.8301 29.0298,-60.6169"/>
<text text-anchor="middle" x="54" y="-265.3" font-family="Times,serif" font-size="14.00">Push contact data</text>
</g>
<!-- mc2crm -->
<g id="node11" class="node"><title>mc2crm</title>
<ellipse fill="pink" stroke="black" cx="326" cy="-502" rx="62.3385" ry="37.4533"/>
<text text-anchor="middle" x="326" y="-513.3" font-family="Times,serif" font-size="14.00">Custom tool:</text>
<text text-anchor="middle" x="326" y="-498.3" font-family="Times,serif" font-size="14.00">MailChimp</text>
<text text-anchor="middle" x="326" y="-483.3" font-family="Times,serif" font-size="14.00">to Insightly</text>
</g>
<!-- mc2crm&#45;&gt;aws_rds -->
<g id="edge8" class="edge"><title>mc2crm&#45;&gt;aws_rds</title>
<path fill="none" stroke="black" d="M333.377,-464.763C339.716,-433.631 348.715,-389.427 354.456,-361.232"/>
<polygon fill="black" stroke="black" points="357.919,-361.767 356.484,-351.27 351.059,-360.37 357.919,-361.767"/>
</g>
<!-- mc2crm&#45;&gt;aws_ses -->
<g id="edge7" class="edge"><title>mc2crm&#45;&gt;aws_ses</title>
<path fill="none" stroke="black" d="M317.538,-464.763C310.227,-433.46 299.831,-388.943 293.252,-360.771"/>
<polygon fill="black" stroke="black" points="296.614,-359.777 290.932,-350.835 289.797,-361.369 296.614,-359.777"/>
</g>
<!-- mc2crm&#45;&gt;mc_api -->
<g id="edge9" class="edge"><title>mc2crm&#45;&gt;mc_api</title>
<path fill="none" stroke="black" d="M382.989,-486.513C419.492,-474.943 466.027,-455.67 499,-426 518.951,-408.048 533.081,-380.572 541.527,-360.318"/>
<polygon fill="black" stroke="black" points="544.888,-361.338 545.322,-350.752 538.381,-358.756 544.888,-361.338"/>
</g>
<!-- mc2crm&#45;&gt;crm_mail -->
<g id="edge10" class="edge"><title>mc2crm&#45;&gt;crm_mail</title>
<path fill="none" stroke="black" stroke-dasharray="5,2" d="M276.523,-479.333C253.877,-465.77 232,-445.745 232,-419 232,-419 232,-419 232,-118 232,-99.5015 232,-78.684 232,-62.5249"/>
<polygon fill="black" stroke="black" points="235.5,-62.1679 232,-52.1679 228.5,-62.168 235.5,-62.1679"/>
</g>
<!-- mc_web -->
<g id="node13" class="node"><title>mc_web</title>
<polygon fill="#55cc55" stroke="black" points="506,-351 424,-351 424,-355 412,-355 412,-315 506,-315 506,-351"/>
<polyline fill="none" stroke="black" points="412,-351 424,-351 "/>
<text text-anchor="middle" x="459" y="-329.3" font-family="Times,serif" font-size="14.00">Web interface</text>
</g>
<!-- mc_web&#45;&gt;ea_news -->
<g id="edge12" class="edge"><title>mc_web&#45;&gt;ea_news</title>
<path fill="none" stroke="black" stroke-dasharray="5,2" d="M494.8,-314.986C501.44,-312.127 508.372,-309.335 515,-307 575.905,-285.545 739.377,-264.041 796,-233 806.558,-227.212 816.653,-218.821 825.092,-210.669"/>
<polygon fill="black" stroke="black" points="827.804,-212.904 832.342,-203.33 822.824,-207.984 827.804,-212.904"/>
</g>
<!-- mc_web&#45;&gt;ea_notice -->
<g id="edge13" class="edge"><title>mc_web&#45;&gt;ea_notice</title>
<path fill="none" stroke="black" stroke-dasharray="5,2" d="M474.116,-314.877C494.393,-293.249 532.666,-256.937 574,-241 623.873,-221.771 644.893,-254.11 694,-233 705.524,-228.046 716.126,-219.41 724.71,-210.815"/>
<polygon fill="black" stroke="black" points="727.41,-213.052 731.705,-203.367 722.308,-208.26 727.41,-213.052"/>
</g>
<!-- fd_web -->
<g id="node15" class="node"><title>fd_web</title>
<polygon fill="#55cc55" stroke="black" points="1008,-202 926,-202 926,-206 914,-206 914,-166 1008,-166 1008,-202"/>
<polyline fill="none" stroke="black" points="914,-202 926,-202 "/>
<text text-anchor="middle" x="961" y="-180.3" font-family="Times,serif" font-size="14.00">Web interface</text>
</g>
<!-- fd_web&#45;&gt;crm_mail -->
<g id="edge23" class="edge"><title>fd_web&#45;&gt;crm_mail</title>
<path fill="none" stroke="black" stroke-dasharray="5,2" d="M925.947,-165.944C918.19,-162.626 909.919,-159.429 902,-157 670.088,-85.8718 379.56,-50.3924 273.327,-39.107"/>
<polygon fill="black" stroke="black" points="273.647,-35.6214 263.337,-38.0596 272.917,-42.5833 273.647,-35.6214"/>
<text text-anchor="middle" x="821.5" y="-115.3" font-family="Times,serif" font-size="14.00">Auto&#45;BCC</text>
</g>
<!-- crm_web -->
<g id="node17" class="node"><title>crm_web</title>
<polygon fill="#55cc55" stroke="black" points="182,-52 100,-52 100,-56 88,-56 88,-16 182,-16 182,-52"/>
<polyline fill="none" stroke="black" points="88,-52 100,-52 "/>
<text text-anchor="middle" x="135" y="-30.3" font-family="Times,serif" font-size="14.00">Web interface</text>
</g>
</g>
</svg>
