<?xml version="1.0" encoding="UTF-8" standalone="no"?>
<!DOCTYPE svg PUBLIC "-//W3C//DTD SVG 1.1//EN"
 "http://www.w3.org/Graphics/SVG/1.1/DTD/svg11.dtd">
<!-- Generated by graphviz version 2.43.20190912.0211 (20190912.0211)
 -->
<!-- Title: %3 Pages: 1 -->
<svg width="957pt" height="1043pt"
 viewBox="0.00 0.00 956.73 1042.91" xmlns="http://www.w3.org/2000/svg" xmlns:xlink="http://www.w3.org/1999/xlink">
<g id="graph0" class="graph" transform="scale(1 1) rotate(0) translate(4 1038.91)">
<title>%3</title>
<polygon fill="white" stroke="transparent" points="-4,4 -4,-1038.91 952.73,-1038.91 952.73,4 -4,4"/>
<g id="clust1" class="cluster">
<title>cluster_AWS</title>
<polygon fill="#eeffee" stroke="black" points="8.73,-8 8.73,-921.91 940.73,-921.91 940.73,-8 8.73,-8"/>
<text text-anchor="middle" x="474.73" y="-906.71" font-family="Times,serif" font-size="14.00">AWS</text>
</g>
<g id="clust2" class="cluster">
<title>cluster_VPC</title>
<polygon fill="white" stroke="black" points="16.73,-161.74 16.73,-822.17 932.73,-822.17 932.73,-161.74 16.73,-161.74"/>
<text text-anchor="middle" x="474.73" y="-806.97" font-family="Times,serif" font-size="14.00">VPC</text>
</g>
<g id="clust3" class="cluster">
<title>cluster_public</title>
<polygon fill="#999999" stroke="black" points="259.73,-638.22 259.73,-791.17 711.73,-791.17 711.73,-638.22 259.73,-638.22"/>
<text text-anchor="middle" x="485.73" y="-775.97" font-family="Times,serif" font-size="14.00">Public subnet</text>
</g>
<g id="clust4" class="cluster">
<title>cluster_sg_bastion</title>
<polygon fill="white" stroke="black" points="499.73,-646.22 499.73,-760.17 703.73,-760.17 703.73,-646.22 499.73,-646.22"/>
<text text-anchor="middle" x="601.73" y="-744.97" font-family="Times,serif" font-size="14.00">SG: Bastion</text>
</g>
<g id="clust5" class="cluster">
<title>cluster_private_app</title>
<polygon fill="#cccccc" stroke="black" points="46.73,-314.61 46.73,-630.22 490.73,-630.22 490.73,-314.61 46.73,-314.61"/>
<text text-anchor="middle" x="268.73" y="-615.02" font-family="Times,serif" font-size="14.00">Private app subnet</text>
</g>
<g id="clust6" class="cluster">
<title>cluster_sg_rds</title>
<polygon fill="white" stroke="black" points="144.73,-322.61 144.73,-397.61 249.73,-397.61 249.73,-322.61 144.73,-322.61"/>
<text text-anchor="middle" x="197.23" y="-382.41" font-family="Times,serif" font-size="14.00">SG: RDS</text>
</g>
<g id="clust7" class="cluster">
<title>cluster_sg_redis</title>
<polygon fill="white" stroke="black" points="302.73,-322.61 302.73,-397.61 417.73,-397.61 417.73,-322.61 302.73,-322.61"/>
<text text-anchor="middle" x="360.23" y="-382.41" font-family="Times,serif" font-size="14.00">SG: Redis</text>
</g>
<g id="clust8" class="cluster">
<title>cluster_sg_app</title>
<polygon fill="white" stroke="black" points="54.73,-467.48 54.73,-599.22 463.73,-599.22 463.73,-467.48 54.73,-467.48"/>
<text text-anchor="middle" x="259.23" y="-584.02" font-family="Times,serif" font-size="14.00">SG: App</text>
</g>
<g id="clust9" class="cluster">
<title>cluster_ecs2_app</title>
<polygon fill="#ffeeee" stroke="black" points="62.73,-475.48 62.73,-568.22 437.73,-568.22 437.73,-475.48 62.73,-475.48"/>
<text text-anchor="middle" x="250.23" y="-553.02" font-family="Times,serif" font-size="14.00">App ECS Cluster / EC2s</text>
</g>
<g id="clust10" class="cluster">
<title>cluster_private_ops</title>
<polygon fill="#cccccc" stroke="black" points="498.73,-169.74 498.73,-437.48 912.73,-437.48 912.73,-169.74 498.73,-169.74"/>
<text text-anchor="middle" x="705.73" y="-422.28" font-family="Times,serif" font-size="14.00">Private ops subnet</text>
</g>
<g id="clust11" class="cluster">
<title>cluster_sg_es</title>
<polygon fill="white" stroke="black" points="525.73,-313.74 525.73,-406.48 730.73,-406.48 730.73,-313.74 525.73,-313.74"/>
<text text-anchor="middle" x="628.23" y="-391.28" font-family="Times,serif" font-size="14.00">SG: ES</text>
</g>
<!-- internet -->
<g id="node1" class="node">
<title>internet</title>
<ellipse fill="#ffee44" stroke="black" cx="425.73" cy="-1016.91" rx="48.99" ry="18"/>
<text text-anchor="middle" x="425.73" y="-1013.21" font-family="Times,serif" font-size="14.00">Internet</text>
</g>
<!-- dns_shipreq -->
<g id="node2" class="node">
<title>dns_shipreq</title>
<ellipse fill="#ffee44" stroke="black" cx="321.73" cy="-864.04" rx="73.58" ry="26.74"/>
<text text-anchor="middle" x="321.73" y="-867.84" font-family="Times,serif" font-size="14.00">DNS:</text>
<text text-anchor="middle" x="321.73" y="-852.84" font-family="Times,serif" font-size="14.00">shipreq.com</text>
</g>
<!-- internet&#45;&gt;dns_shipreq -->
<g id="edge1" class="edge">
<title>internet&#45;&gt;dns_shipreq</title>
<path fill="none" stroke="red" d="M414.2,-999.19C397.57,-975.07 366.49,-929.98 344.98,-898.77"/>
<polygon fill="red" stroke="red" points="347.74,-896.62 339.19,-890.37 341.98,-900.59 347.74,-896.62"/>
</g>
<!-- nat -->
<g id="node6" class="node">
<title>nat</title>
<ellipse fill="#ffee44" stroke="black" cx="425.73" cy="-691.7" rx="36.54" ry="26.74"/>
<text text-anchor="middle" x="425.73" y="-695.5" font-family="Times,serif" font-size="14.00">ASG:</text>
<text text-anchor="middle" x="425.73" y="-680.5" font-family="Times,serif" font-size="14.00">NAT</text>
</g>
<!-- internet&#45;&gt;nat -->
<g id="edge3" class="edge">
<title>internet&#45;&gt;nat</title>
<path fill="none" stroke="red" d="M425.73,-988.43C425.73,-926.95 425.73,-778.98 425.73,-718.81"/>
<polygon fill="red" stroke="red" points="422.23,-988.54 425.73,-998.54 429.23,-988.54 422.23,-988.54"/>
</g>
<!-- bastion -->
<g id="node8" class="node">
<title>bastion</title>
<ellipse fill="#ffee44" stroke="black" cx="614.73" cy="-691.7" rx="80.72" ry="37.45"/>
<text text-anchor="middle" x="614.73" y="-703" font-family="Times,serif" font-size="14.00">ASG:</text>
<text text-anchor="middle" x="614.73" y="-688" font-family="Times,serif" font-size="14.00">Bastion &amp;</text>
<text text-anchor="middle" x="614.73" y="-673" font-family="Times,serif" font-size="14.00">devops portal</text>
</g>
<!-- internet&#45;&gt;bastion -->
<g id="edge4" class="edge">
<title>internet&#45;&gt;bastion</title>
<path fill="none" stroke="red" d="M435.62,-998.99C464.03,-950.41 546.5,-809.37 588.9,-736.87"/>
<polygon fill="red" stroke="red" points="592.08,-738.35 594.11,-727.95 586.04,-734.82 592.08,-738.35"/>
</g>
<!-- elb_webapp -->
<g id="node5" class="node">
<title>elb_webapp</title>
<ellipse fill="#ffee44" stroke="black" cx="319.73" cy="-691.7" rx="51.74" ry="26.74"/>
<text text-anchor="middle" x="319.73" y="-695.5" font-family="Times,serif" font-size="14.00">ELB:</text>
<text text-anchor="middle" x="319.73" y="-680.5" font-family="Times,serif" font-size="14.00">Webapp</text>
</g>
<!-- dns_shipreq&#45;&gt;elb_webapp -->
<g id="edge2" class="edge">
<title>dns_shipreq&#45;&gt;elb_webapp</title>
<path fill="none" stroke="red" d="M321.42,-837.17C321.08,-808.28 320.53,-761.32 320.15,-728.82"/>
<polygon fill="red" stroke="red" points="323.65,-728.77 320.03,-718.81 316.65,-728.85 323.65,-728.77"/>
</g>
<!-- ebs_prometheus -->
<g id="node3" class="node">
<title>ebs_prometheus</title>
<ellipse fill="#ffee44" stroke="black" cx="802.73" cy="-42.87" rx="72.66" ry="26.74"/>
<text text-anchor="middle" x="802.73" y="-46.67" font-family="Times,serif" font-size="14.00">EBS:</text>
<text text-anchor="middle" x="802.73" y="-31.67" font-family="Times,serif" font-size="14.00">Prometheus</text>
</g>
<!-- subnet_public -->
<g id="node4" class="node">
<title>subnet_public</title>
<ellipse fill="blue" stroke="black" cx="484.73" cy="-691.7" rx="4.32" ry="4.32"/>
</g>
<!-- subnet_private_app -->
<g id="node9" class="node">
<title>subnet_private_app</title>
<ellipse fill="blue" stroke="black" cx="478.73" cy="-510.35" rx="4.32" ry="4.32"/>
</g>
<!-- subnet_public&#45;&gt;subnet_private_app -->
<g id="edge10" class="edge">
<title>subnet_public&#45;&gt;subnet_private_app</title>
<path fill="none" stroke="blue" d="M484.27,-676.89C483.15,-643.47 480.31,-558.55 479.19,-525.15"/>
<polygon fill="blue" stroke="blue" points="480.78,-677.4 484.61,-687.27 487.78,-677.16 480.78,-677.4"/>
<polygon fill="blue" stroke="blue" points="482.68,-524.69 478.84,-514.81 475.68,-524.92 482.68,-524.69"/>
</g>
<!-- subnet_private_ops -->
<g id="node18" class="node">
<title>subnet_private_ops</title>
<ellipse fill="blue" stroke="black" cx="510.73" cy="-348.61" rx="4.32" ry="4.32"/>
</g>
<!-- subnet_public&#45;&gt;subnet_private_ops -->
<g id="edge11" class="edge">
<title>subnet_public&#45;&gt;subnet_private_ops</title>
<path fill="none" stroke="blue" d="M485.45,-687.17C487.31,-677.89 492.31,-652.01 494.73,-630.22 506.08,-527.82 509.59,-403.44 510.47,-363"/>
<polygon fill="blue" stroke="blue" points="513.97,-363.02 510.67,-352.96 506.97,-362.88 513.97,-363.02"/>
</g>
<!-- docker_webapp -->
<g id="node16" class="node">
<title>docker_webapp</title>
<ellipse fill="#ffee44" stroke="black" cx="253.73" cy="-510.35" rx="51.74" ry="26.74"/>
<text text-anchor="middle" x="253.73" y="-514.15" font-family="Times,serif" font-size="14.00">Docker:</text>
<text text-anchor="middle" x="253.73" y="-499.15" font-family="Times,serif" font-size="14.00">Webapp</text>
</g>
<!-- elb_webapp&#45;&gt;docker_webapp -->
<g id="edge8" class="edge">
<title>elb_webapp&#45;&gt;docker_webapp</title>
<path fill="none" stroke="red" d="M310.27,-665C298.85,-633.97 279.58,-581.61 266.76,-546.77"/>
<polygon fill="red" stroke="red" points="269.9,-545.17 263.17,-537 263.33,-547.59 269.9,-545.17"/>
</g>
<!-- nat&#45;&gt;subnet_private_app -->
<g id="edge9" class="edge">
<title>nat&#45;&gt;subnet_private_app</title>
<path fill="none" stroke="red" d="M451.09,-660.65C457.59,-651.43 463.84,-640.89 467.73,-630.22 483.49,-586.99 480.19,-529.35 479.03,-514.8"/>
<polygon fill="red" stroke="red" points="448.26,-658.6 445.11,-668.72 453.88,-662.77 448.26,-658.6"/>
</g>
<!-- sg_bastion -->
<g id="node7" class="node">
<title>sg_bastion</title>
<ellipse fill="blue" stroke="black" cx="511.73" cy="-691.7" rx="4.32" ry="4.32"/>
</g>
<!-- sg_rds -->
<g id="node10" class="node">
<title>sg_rds</title>
<ellipse fill="blue" stroke="black" cx="237.73" cy="-348.61" rx="4.32" ry="4.32"/>
</g>
<!-- sg_bastion&#45;&gt;sg_rds -->
<g id="edge17" class="edge">
<title>sg_bastion&#45;&gt;sg_rds</title>
<path fill="none" stroke="blue" d="M512.51,-687.18C514.42,-677.59 518.16,-650.84 503.73,-638.22 484.19,-621.14 54.92,-648.72 36.73,-630.22 -13.98,-578.64 -10.19,-522.53 36.73,-467.48 91.33,-403.42 164.24,-497.03 223.73,-437.48 243.43,-417.76 242.31,-382.17 239.94,-362.89"/>
<polygon fill="blue" stroke="blue" points="243.38,-362.26 238.4,-352.91 236.46,-363.32 243.38,-362.26"/>
</g>
<!-- sg_redis -->
<g id="node12" class="node">
<title>sg_redis</title>
<ellipse fill="blue" stroke="black" cx="405.73" cy="-348.61" rx="4.32" ry="4.32"/>
</g>
<!-- sg_bastion&#45;&gt;sg_redis -->
<g id="edge18" class="edge">
<title>sg_bastion&#45;&gt;sg_redis</title>
<path fill="none" stroke="blue" d="M512.51,-687.19C514.42,-677.6 518.15,-650.84 503.73,-638.22 485.12,-621.94 76.05,-647.86 58.73,-630.22 33.39,-604.42 34.33,-494.17 58.73,-467.48 108.85,-412.64 337.43,-488.2 391.73,-437.48 412.1,-418.45 410.71,-382.58 408.11,-363.07"/>
<polygon fill="blue" stroke="blue" points="411.52,-362.26 406.45,-352.96 404.62,-363.39 411.52,-362.26"/>
</g>
<!-- sg_app -->
<g id="node14" class="node">
<title>sg_app</title>
<ellipse fill="blue" stroke="black" cx="451.73" cy="-510.35" rx="4.32" ry="4.32"/>
</g>
<!-- sg_bastion&#45;&gt;sg_app -->
<g id="edge16" class="edge">
<title>sg_bastion&#45;&gt;sg_app</title>
<path fill="none" stroke="blue" d="M512.4,-687.3C514.02,-678.02 517.09,-651.97 503.73,-638.22 489.87,-623.97 472.97,-645.04 459.73,-630.22 446.11,-614.97 448.75,-552.37 450.66,-524.66"/>
<polygon fill="blue" stroke="blue" points="454.15,-524.91 451.43,-514.67 447.18,-524.38 454.15,-524.91"/>
</g>
<!-- sg_es -->
<g id="node19" class="node">
<title>sg_es</title>
<ellipse fill="blue" stroke="black" cx="718.73" cy="-348.61" rx="4.32" ry="4.32"/>
</g>
<!-- sg_bastion&#45;&gt;sg_es -->
<g id="edge19" class="edge">
<title>sg_bastion&#45;&gt;sg_es</title>
<path fill="none" stroke="blue" d="M512.01,-687.18C512.83,-678.42 515.77,-655.14 524.73,-638.22 580.8,-532.31 653.2,-545.67 704.73,-437.48 716.33,-413.12 718.62,-381.1 718.9,-363.21"/>
<polygon fill="blue" stroke="blue" points="722.4,-363.16 718.86,-353.17 715.4,-363.18 722.4,-363.16"/>
</g>
<!-- es -->
<g id="node20" class="node">
<title>es</title>
<ellipse fill="#ffee44" stroke="black" cx="614.73" cy="-348.61" rx="81.13" ry="26.74"/>
<text text-anchor="middle" x="614.73" y="-352.41" font-family="Times,serif" font-size="14.00">ElasticSearch</text>
<text text-anchor="middle" x="614.73" y="-337.41" font-family="Times,serif" font-size="14.00">&amp; Kibana</text>
</g>
<!-- bastion&#45;&gt;es -->
<g id="edge5" class="edge">
<title>bastion&#45;&gt;es</title>
<path fill="none" stroke="red" d="M614.73,-654.19C614.73,-588.59 614.73,-451.49 614.73,-385.98"/>
<polygon fill="red" stroke="red" points="618.23,-385.73 614.73,-375.73 611.23,-385.73 618.23,-385.73"/>
</g>
<!-- docker_prometheus -->
<g id="node21" class="node">
<title>docker_prometheus</title>
<ellipse fill="#ffee44" stroke="black" cx="802.73" cy="-195.74" rx="102.08" ry="18"/>
<text text-anchor="middle" x="802.73" y="-192.04" font-family="Times,serif" font-size="14.00">docker_prometheus</text>
</g>
<!-- bastion&#45;&gt;docker_prometheus -->
<g id="edge6" class="edge">
<title>bastion&#45;&gt;docker_prometheus</title>
<path fill="none" stroke="red" d="M669.77,-664.29C742.19,-626 865.88,-547.41 913.73,-437.48 935.68,-387.05 934.1,-364.82 913.73,-313.74 898.03,-274.38 862.1,-240.67 835.34,-219.68"/>
<polygon fill="red" stroke="red" points="837.44,-216.88 827.37,-213.58 833.18,-222.44 837.44,-216.88"/>
</g>
<!-- docker_grafana -->
<g id="node22" class="node">
<title>docker_grafana</title>
<ellipse fill="#ffee44" stroke="black" cx="822.73" cy="-348.61" rx="81.79" ry="18"/>
<text text-anchor="middle" x="822.73" y="-344.91" font-family="Times,serif" font-size="14.00">docker_grafana</text>
</g>
<!-- bastion&#45;&gt;docker_grafana -->
<g id="edge7" class="edge">
<title>bastion&#45;&gt;docker_grafana</title>
<path fill="none" stroke="red" d="M636.2,-655.48C678.16,-586.67 770.14,-435.84 807,-375.41"/>
<polygon fill="red" stroke="red" points="810,-377.2 812.22,-366.84 804.03,-373.55 810,-377.2"/>
</g>
<!-- subnet_private_app&#45;&gt;subnet_private_ops -->
<g id="edge12" class="edge">
<title>subnet_private_app&#45;&gt;subnet_private_ops</title>
<path fill="none" stroke="blue" d="M481.37,-496.17C487.37,-466.19 502.01,-393.14 508.05,-362.98"/>
<polygon fill="blue" stroke="blue" points="477.93,-495.52 479.4,-506.01 484.79,-496.9 477.93,-495.52"/>
<polygon fill="blue" stroke="blue" points="511.53,-363.42 510.06,-352.93 504.67,-362.05 511.53,-363.42"/>
</g>
<!-- rds -->
<g id="node11" class="node">
<title>rds</title>
<ellipse fill="#ffee44" stroke="black" cx="183.73" cy="-348.61" rx="31.4" ry="18"/>
<text text-anchor="middle" x="183.73" y="-344.91" font-family="Times,serif" font-size="14.00">RDS</text>
</g>
<!-- redis -->
<g id="node13" class="node">
<title>redis</title>
<ellipse fill="#ffee44" stroke="black" cx="346.73" cy="-348.61" rx="36.29" ry="18"/>
<text text-anchor="middle" x="346.73" y="-344.91" font-family="Times,serif" font-size="14.00">Redis</text>
</g>
<!-- sg_app&#45;&gt;sg_rds -->
<g id="edge13" class="edge">
<title>sg_app&#45;&gt;sg_rds</title>
<path fill="none" stroke="blue" d="M452.04,-505.71C452.52,-497.6 452.44,-477.9 441.73,-467.48 395.18,-422.2 352.85,-473.36 298.73,-437.48 270.39,-418.7 251.39,-381.85 242.86,-362.37"/>
<polygon fill="blue" stroke="blue" points="246.04,-360.9 238.99,-353 239.57,-363.57 246.04,-360.9"/>
</g>
<!-- sg_app&#45;&gt;sg_redis -->
<g id="edge14" class="edge">
<title>sg_app&#45;&gt;sg_redis</title>
<path fill="none" stroke="blue" d="M450.97,-505.86C449.39,-498.65 445.57,-481.62 441.73,-467.48 431.26,-428.98 416.95,-384.04 409.94,-362.46"/>
<polygon fill="blue" stroke="blue" points="413.24,-361.29 406.8,-352.87 406.58,-363.46 413.24,-361.29"/>
</g>
<!-- sg_app&#45;&gt;sg_es -->
<g id="edge15" class="edge">
<title>sg_app&#45;&gt;sg_es</title>
<path fill="none" stroke="blue" d="M451.16,-505.67C450.11,-497.46 448.92,-477.59 459.73,-467.48 539.85,-392.55 625.77,-513.64 704.73,-437.48 724.79,-418.13 723.53,-382.39 721.03,-362.99"/>
<polygon fill="blue" stroke="blue" points="724.46,-362.26 719.43,-352.93 717.55,-363.36 724.46,-362.26"/>
</g>
<!-- docker_filebeat -->
<g id="node15" class="node">
<title>docker_filebeat</title>
<ellipse fill="#ffee44" stroke="black" cx="376.73" cy="-510.35" rx="53.07" ry="26.74"/>
<text text-anchor="middle" x="376.73" y="-514.15" font-family="Times,serif" font-size="14.00">Docker:</text>
<text text-anchor="middle" x="376.73" y="-499.15" font-family="Times,serif" font-size="14.00">Filebeat</text>
</g>
<!-- docker_filebeat&#45;&gt;es -->
<g id="edge20" class="edge">
<title>docker_filebeat&#45;&gt;es</title>
<path fill="none" stroke="green" d="M403.37,-486.96C412.56,-480.02 423.21,-472.8 433.73,-467.48 473.62,-447.31 491.68,-460.94 529.73,-437.48 552.76,-423.28 573.93,-401.44 589.38,-383.08"/>
<polygon fill="green" stroke="green" points="592.43,-384.88 596.07,-374.93 587.02,-380.44 592.43,-384.88"/>
</g>
<!-- docker_webapp&#45;&gt;docker_prometheus -->
<g id="edge22" class="edge">
<title>docker_webapp&#45;&gt;docker_prometheus</title>
<path fill="none" stroke="green" d="M289.75,-481.78C297.69,-476.52 306.27,-471.44 314.73,-467.48 359.47,-446.56 382.31,-467.24 421.73,-437.48 473.24,-398.59 448.08,-354.98 497.73,-313.74 567.42,-255.85 668.9,-224.65 735.36,-209.37"/>
<polygon fill="green" stroke="green" points="287.68,-478.95 281.42,-487.5 291.64,-484.72 287.68,-478.95"/>
</g>
<!-- docker_taskman -->
<g id="node17" class="node">
<title>docker_taskman</title>
<ellipse fill="#ffee44" stroke="black" cx="127.73" cy="-510.35" rx="56.64" ry="26.74"/>
<text text-anchor="middle" x="127.73" y="-514.15" font-family="Times,serif" font-size="14.00">Docker:</text>
<text text-anchor="middle" x="127.73" y="-499.15" font-family="Times,serif" font-size="14.00">Taskman</text>
</g>
<!-- docker_prometheus&#45;&gt;ebs_prometheus -->
<g id="edge21" class="edge">
<title>docker_prometheus&#45;&gt;ebs_prometheus</title>
<path fill="none" stroke="green" d="M802.73,-177.73C802.73,-154.22 802.73,-111.21 802.73,-80.28"/>
<polygon fill="green" stroke="green" points="806.23,-79.9 802.73,-69.9 799.23,-79.9 806.23,-79.9"/>
</g>
<!-- docker_grafana&#45;&gt;docker_prometheus -->
<g id="edge23" class="edge">
<title>docker_grafana&#45;&gt;docker_prometheus</title>
<path fill="none" stroke="green" d="M820.47,-330.6C817.04,-304.68 810.46,-255.05 806.35,-224.04"/>
<polygon fill="green" stroke="green" points="809.79,-223.38 805,-213.92 802.85,-224.3 809.79,-223.38"/>
</g>
</g>
</svg>
