<?xml version="1.0" encoding="UTF-8" standalone="no"?>
<!DOCTYPE svg PUBLIC "-//W3C//DTD SVG 1.1//EN"
 "http://www.w3.org/Graphics/SVG/1.1/DTD/svg11.dtd">
<!-- Generated by graphviz version 2.43.20190912.0211 (20190912.0211)
 -->
<!-- Title: %3 Pages: 1 -->
<svg width="1067pt" height="1116pt"
 viewBox="0.00 0.00 1067.00 1116.42" xmlns="http://www.w3.org/2000/svg" xmlns:xlink="http://www.w3.org/1999/xlink">
<g id="graph0" class="graph" transform="scale(1 1) rotate(0) translate(4 1112.42)">
<title>%3</title>
<polygon fill="white" stroke="transparent" points="-4,4 -4,-1112.42 1063,-1112.42 1063,4 -4,4"/>
<g id="clust1" class="cluster">
<title>cluster_AWS</title>
<polygon fill="#eeffdd" stroke="black" points="8,-8 8,-1045.42 1051,-1045.42 1051,-8 8,-8"/>
<text text-anchor="middle" x="529.5" y="-1030.22" font-family="Times,serif" font-size="14.00">AWS</text>
</g>
<g id="clust3" class="cluster">
<title>cluster_VPC</title>
<polygon fill="white" stroke="black" points="124,-124.95 124,-952.68 1043,-952.68 1043,-124.95 124,-124.95"/>
<text text-anchor="middle" x="583.5" y="-937.48" font-family="Times,serif" font-size="14.00">VPC</text>
</g>
<g id="clust4" class="cluster">
<title>cluster_public</title>
<polygon fill="#999999" stroke="black" points="493,-789.94 493,-921.68 1035,-921.68 1035,-789.94 493,-789.94"/>
<text text-anchor="middle" x="764" y="-906.48" font-family="Times,serif" font-size="14.00">Public subnet</text>
</g>
<g id="clust5" class="cluster">
<title>cluster_bastion</title>
<path fill="#ffee44" stroke="red" d="M717,-797.94C717,-797.94 1015,-797.94 1015,-797.94 1021,-797.94 1027,-803.94 1027,-809.94 1027,-809.94 1027,-878.68 1027,-878.68 1027,-884.68 1021,-890.68 1015,-890.68 1015,-890.68 717,-890.68 717,-890.68 711,-890.68 705,-884.68 705,-878.68 705,-878.68 705,-809.94 705,-809.94 705,-803.94 711,-797.94 717,-797.94"/>
<text text-anchor="middle" x="866" y="-875.48" font-family="Times,serif" font-size="14.00">EC2: Bastion</text>
</g>
<g id="clust6" class="cluster">
<title>cluster_private</title>
<polygon fill="#dddddd" stroke="black" points="132,-132.95 132,-724.57 1035,-724.57 1035,-132.95 132,-132.95"/>
<text text-anchor="middle" x="583.5" y="-709.37" font-family="Times,serif" font-size="14.00">Private subnet</text>
</g>
<g id="clust7" class="cluster">
<title>cluster_ecs2_app</title>
<polygon fill="#ffeeee" stroke="black" points="140,-521.43 140,-614.17 828,-614.17 828,-521.43 140,-521.43"/>
<text text-anchor="middle" x="484" y="-598.97" font-family="Times,serif" font-size="14.00">App ECS Cluster / AGS / EC2s</text>
</g>
<g id="clust8" class="cluster">
<title>cluster_rds</title>
<path fill="#b0e2ff" stroke="black" d="M589,-406.54C589,-406.54 783,-406.54 783,-406.54 789,-406.54 795,-412.54 795,-418.54 795,-418.54 795,-469.54 795,-469.54 795,-475.54 789,-481.54 783,-481.54 783,-481.54 589,-481.54 589,-481.54 583,-481.54 577,-475.54 577,-469.54 577,-469.54 577,-418.54 577,-418.54 577,-412.54 583,-406.54 589,-406.54"/>
<text text-anchor="middle" x="686" y="-466.34" font-family="Times,serif" font-size="14.00">RDS</text>
</g>
<g id="clust9" class="cluster">
<title>cluster_ecs2_ops</title>
<polygon fill="#ffeeee" stroke="black" points="212,-140.95 212,-366.65 995,-366.65 995,-140.95 212,-140.95"/>
<text text-anchor="middle" x="603.5" y="-351.45" font-family="Times,serif" font-size="14.00">Ops ECS Cluster / ASG / EC2s</text>
</g>
<!-- internet -->
<g id="node1" class="node">
<title>internet</title>
<ellipse fill="#aa1111" stroke="black" cx="901" cy="-1090.42" rx="48.99" ry="18"/>
<text text-anchor="middle" x="901" y="-1086.72" font-family="Times,serif" font-size="14.00" fill="white">Internet</text>
</g>
<!-- dns_shipreq -->
<g id="node2" class="node">
<title>dns_shipreq</title>
<ellipse fill="#ffee44" stroke="black" cx="717" cy="-987.55" rx="73.58" ry="26.74"/>
<text text-anchor="middle" x="717" y="-991.35" font-family="Times,serif" font-size="14.00">DNS:</text>
<text text-anchor="middle" x="717" y="-976.35" font-family="Times,serif" font-size="14.00">shipreq.com</text>
</g>
<!-- internet&#45;&gt;dns_shipreq -->
<g id="edge2" class="edge">
<title>internet&#45;&gt;dns_shipreq</title>
<path fill="none" stroke="red" d="M869.03,-1076.62C849.56,-1068.45 824.4,-1057.2 803,-1045.42 787.81,-1037.06 771.79,-1026.88 757.76,-1017.46"/>
<polygon fill="red" stroke="red" points="759.54,-1014.44 749.3,-1011.71 755.61,-1020.23 759.54,-1014.44"/>
</g>
<!-- eip_bastion -->
<g id="node6" class="node">
<title>eip_bastion</title>
<ellipse fill="#ffee44" stroke="black" cx="862" cy="-987.55" rx="50.41" ry="26.74"/>
<text text-anchor="middle" x="862" y="-991.35" font-family="Times,serif" font-size="14.00">EIP:</text>
<text text-anchor="middle" x="862" y="-976.35" font-family="Times,serif" font-size="14.00">Bastion</text>
</g>
<!-- internet&#45;&gt;eip_bastion -->
<g id="edge4" class="edge">
<title>internet&#45;&gt;eip_bastion</title>
<path fill="none" stroke="red" d="M894.38,-1072.31C889.22,-1058.97 881.89,-1039.99 875.5,-1023.47"/>
<polygon fill="red" stroke="red" points="878.75,-1022.16 871.87,-1014.09 872.22,-1024.68 878.75,-1022.16"/>
</g>
<!-- nat -->
<g id="node10" class="node">
<title>nat</title>
<ellipse fill="#ffee44" stroke="black" cx="659" cy="-832.81" rx="36.12" ry="26.74"/>
<text text-anchor="middle" x="659" y="-836.61" font-family="Times,serif" font-size="14.00">EC2:</text>
<text text-anchor="middle" x="659" y="-821.61" font-family="Times,serif" font-size="14.00">NAT</text>
</g>
<!-- internet&#45;&gt;nat -->
<g id="edge13" class="edge">
<title>internet&#45;&gt;nat</title>
<path fill="none" stroke="blue" d="M917.3,-1063.92C933.53,-1034.96 952.54,-988.18 926,-960.68 908.63,-942.68 721.16,-967.49 701,-952.68 671.8,-931.24 662.8,-887.84 660.09,-859.84"/>
<polygon fill="blue" stroke="blue" points="914.22,-1062.25 912.18,-1072.64 920.26,-1065.78 914.22,-1062.25"/>
</g>
<!-- bastion_out -->
<g id="node12" class="node">
<title>bastion_out</title>
<ellipse fill="blue" stroke="black" cx="1015" cy="-832.81" rx="4.32" ry="4.32"/>
</g>
<!-- internet&#45;&gt;bastion_out -->
<g id="edge14" class="edge">
<title>internet&#45;&gt;bastion_out</title>
<path fill="none" stroke="blue" d="M931.06,-1067.98C939.12,-1061.34 947.42,-1053.6 954,-1045.42 983.1,-1009.27 988.58,-997.11 1002,-952.68 1015.32,-908.56 1015.32,-851.57 1015.08,-837.21"/>
<polygon fill="blue" stroke="blue" points="928.82,-1065.29 923.15,-1074.23 933.16,-1070.78 928.82,-1065.29"/>
</g>
<!-- acm_ssl -->
<g id="node3" class="node">
<title>acm_ssl</title>
<ellipse fill="#ffee44" stroke="black" cx="553" cy="-987.55" rx="55.31" ry="26.74"/>
<text text-anchor="middle" x="553" y="-991.35" font-family="Times,serif" font-size="14.00">ACM:</text>
<text text-anchor="middle" x="553" y="-976.35" font-family="Times,serif" font-size="14.00">SSL cert</text>
</g>
<!-- dns_shipreq&#45;&gt;acm_ssl -->
<g id="edge16" class="edge">
<title>dns_shipreq&#45;&gt;acm_ssl</title>
<path fill="none" stroke="green" d="M643.2,-987.55C634.95,-987.55 626.71,-987.55 618.47,-987.55"/>
<polygon fill="green" stroke="green" points="618.41,-984.05 608.41,-987.55 618.41,-991.05 618.41,-984.05"/>
</g>
<!-- alb_webapp -->
<g id="node9" class="node">
<title>alb_webapp</title>
<ellipse fill="#ffee44" stroke="red" cx="553" cy="-832.81" rx="51.74" ry="26.74"/>
<text text-anchor="middle" x="553" y="-836.61" font-family="Times,serif" font-size="14.00">ALB:</text>
<text text-anchor="middle" x="553" y="-821.61" font-family="Times,serif" font-size="14.00">Webapp</text>
</g>
<!-- dns_shipreq&#45;&gt;alb_webapp -->
<g id="edge3" class="edge">
<title>dns_shipreq&#45;&gt;alb_webapp</title>
<path fill="none" stroke="red" d="M653.05,-974.03C639.08,-969.09 625.16,-962.22 614,-952.68 588.51,-930.9 572.36,-895.82 563.13,-869.41"/>
<polygon fill="red" stroke="red" points="566.39,-868.14 559.92,-859.75 559.75,-870.34 566.39,-868.14"/>
</g>
<!-- acm_ssl&#45;&gt;alb_webapp -->
<g id="edge17" class="edge">
<title>acm_ssl&#45;&gt;alb_webapp</title>
<path fill="none" stroke="green" d="M553,-950.51C553,-922.67 553,-884.8 553,-859.85"/>
<polygon fill="green" stroke="green" points="549.5,-950.64 553,-960.64 556.5,-950.64 549.5,-950.64"/>
</g>
<!-- ebs_prometheus_tech -->
<g id="node4" class="node">
<title>ebs_prometheus_tech</title>
<ellipse fill="#b0e2ff" stroke="black" cx="298" cy="-53.48" rx="72.66" ry="37.45"/>
<text text-anchor="middle" x="298" y="-64.78" font-family="Times,serif" font-size="14.00">EBS:</text>
<text text-anchor="middle" x="298" y="-49.78" font-family="Times,serif" font-size="14.00">Prometheus</text>
<text text-anchor="middle" x="298" y="-34.78" font-family="Times,serif" font-size="14.00">(tech)</text>
</g>
<!-- ebs_prometheus_busi -->
<g id="node5" class="node">
<title>ebs_prometheus_busi</title>
<ellipse fill="#b0e2ff" stroke="black" cx="811" cy="-53.48" rx="72.66" ry="37.45"/>
<text text-anchor="middle" x="811" y="-64.78" font-family="Times,serif" font-size="14.00">EBS:</text>
<text text-anchor="middle" x="811" y="-49.78" font-family="Times,serif" font-size="14.00">Prometheus</text>
<text text-anchor="middle" x="811" y="-34.78" font-family="Times,serif" font-size="14.00">(business)</text>
</g>
<!-- bastion -->
<g id="node11" class="node">
<title>bastion</title>
<ellipse fill="red" stroke="black" cx="865" cy="-832.81" rx="4.32" ry="4.32"/>
</g>
<!-- eip_bastion&#45;&gt;bastion -->
<g id="edge5" class="edge">
<title>eip_bastion&#45;&gt;bastion</title>
<path fill="none" stroke="red" d="M862.51,-960.64C863.15,-928.02 864.23,-873.17 864.73,-847.65"/>
<polygon fill="red" stroke="red" points="868.23,-847.54 864.93,-837.47 861.23,-847.4 868.23,-847.54"/>
</g>
<!-- s3_shipreq -->
<g id="node7" class="node">
<title>s3_shipreq</title>
<ellipse fill="#b0e2ff" stroke="black" cx="66" cy="-689.25" rx="50.41" ry="48.17"/>
<text text-anchor="middle" x="66" y="-708.05" font-family="Times,serif" font-size="14.00">S3:</text>
<text text-anchor="middle" x="66" y="-693.05" font-family="Times,serif" font-size="14.00">shipreq</text>
<text text-anchor="middle" x="66" y="-678.05" font-family="Times,serif" font-size="14.00">config</text>
<text text-anchor="middle" x="66" y="-663.05" font-family="Times,serif" font-size="14.00">files</text>
</g>
<!-- docker_webapp -->
<g id="node22" class="node">
<title>docker_webapp</title>
<ellipse fill="#ffee44" stroke="red" cx="644" cy="-556.3" rx="51.74" ry="26.74"/>
<text text-anchor="middle" x="644" y="-560.1" font-family="Times,serif" font-size="14.00">Docker:</text>
<text text-anchor="middle" x="644" y="-545.1" font-family="Times,serif" font-size="14.00">Webapp</text>
</g>
<!-- s3_shipreq&#45;&gt;docker_webapp -->
<g id="edge23" class="edge">
<title>s3_shipreq:e&#45;&gt;docker_webapp</title>
<path fill="none" stroke="green" d="M127.32,-689.17C238.67,-687.45 492.71,-659.28 584,-614.17 599.7,-606.41 614.06,-593.13 624.79,-581.35"/>
<polygon fill="green" stroke="green" points="126.97,-685.67 117,-689.25 127.03,-692.67 126.97,-685.67"/>
</g>
<!-- docker_taskman -->
<g id="node23" class="node">
<title>docker_taskman</title>
<ellipse fill="#ffee44" stroke="black" cx="518" cy="-556.3" rx="56.64" ry="26.74"/>
<text text-anchor="middle" x="518" y="-560.1" font-family="Times,serif" font-size="14.00">Docker:</text>
<text text-anchor="middle" x="518" y="-545.1" font-family="Times,serif" font-size="14.00">Taskman</text>
</g>
<!-- s3_shipreq&#45;&gt;docker_taskman -->
<g id="edge22" class="edge">
<title>s3_shipreq:se&#45;&gt;docker_taskman</title>
<path fill="none" stroke="green" d="M109.06,-646.66C175.43,-601.72 383.15,-644.18 452,-614.17 469.05,-606.73 484.96,-593.32 496.88,-581.38"/>
<polygon fill="green" stroke="green" points="106.52,-644.21 101,-653.25 110.96,-649.63 106.52,-644.21"/>
</g>
<!-- internal_dns -->
<g id="node8" class="node">
<title>internal_dns</title>
<ellipse fill="#ffee44" stroke="black" cx="308" cy="-832.81" rx="104.8" ry="37.45"/>
<text text-anchor="middle" x="308" y="-844.11" font-family="Times,serif" font-size="14.00">Private DNS:</text>
<text text-anchor="middle" x="308" y="-829.11" font-family="Times,serif" font-size="14.00">&lt;env&gt;.sd.internal</text>
<text text-anchor="middle" x="308" y="-814.11" font-family="Times,serif" font-size="14.00">&lt;env&gt;.internal</text>
</g>
<!-- alb_webapp&#45;&gt;docker_webapp -->
<g id="edge6" class="edge">
<title>alb_webapp&#45;&gt;docker_webapp</title>
<path fill="none" stroke="red" d="M564.8,-806.32C572.93,-787.63 583.27,-761.41 589,-737.34 598.96,-695.53 586.38,-682.25 599,-641.17 604.38,-623.64 613.56,-605.55 622.22,-590.68"/>
<polygon fill="red" stroke="red" points="625.36,-592.24 627.51,-581.87 619.36,-588.64 625.36,-592.24"/>
</g>
<!-- subnet_private_out -->
<g id="node16" class="node">
<title>subnet_private_out</title>
<ellipse fill="blue" stroke="black" cx="659" cy="-689.25" rx="4.32" ry="4.32"/>
</g>
<!-- nat&#45;&gt;subnet_private_out -->
<g id="edge15" class="edge">
<title>nat&#45;&gt;subnet_private_out</title>
<path fill="none" stroke="blue" d="M659,-795.73C659,-759.83 659,-708.11 659,-693.95"/>
<polygon fill="blue" stroke="blue" points="655.5,-795.85 659,-805.85 662.5,-795.85 655.5,-795.85"/>
</g>
<!-- subnet_private_in -->
<g id="node15" class="node">
<title>subnet_private_in</title>
<ellipse fill="red" stroke="black" cx="865" cy="-689.25" rx="4.32" ry="4.32"/>
</g>
<!-- bastion&#45;&gt;subnet_private_in -->
<g id="edge7" class="edge">
<title>bastion&#45;&gt;subnet_private_in</title>
<path fill="none" stroke="red" d="M865,-828.31C865,-811.1 865,-734.98 865,-703.72"/>
<polygon fill="red" stroke="red" points="868.5,-703.63 865,-693.63 861.5,-703.63 868.5,-703.63"/>
</g>
<!-- docker_portal -->
<g id="node13" class="node">
<title>docker_portal</title>
<ellipse fill="#fff8f0" stroke="black" cx="778" cy="-832.81" rx="65.11" ry="26.74"/>
<text text-anchor="middle" x="778" y="-836.61" font-family="Times,serif" font-size="14.00">Docker:</text>
<text text-anchor="middle" x="778" y="-821.61" font-family="Times,serif" font-size="14.00">Ops Portal</text>
</g>
<!-- docker_portal&#45;&gt;subnet_private_in -->
<g id="edge8" class="edge">
<title>docker_portal&#45;&gt;subnet_private_in</title>
<path fill="none" stroke="red" stroke-dasharray="5,2" d="M793.55,-806.5C812.54,-775.61 843.84,-724.68 857.84,-701.9"/>
<polygon fill="red" stroke="red" points="860.94,-703.54 863.2,-693.19 854.98,-699.87 860.94,-703.54"/>
</g>
<!-- docker_filebeatB -->
<g id="node14" class="node">
<title>docker_filebeatB</title>
<ellipse fill="#eecc99" stroke="black" cx="940" cy="-832.81" rx="53.07" ry="26.74"/>
<text text-anchor="middle" x="940" y="-836.61" font-family="Times,serif" font-size="14.00">Docker:</text>
<text text-anchor="middle" x="940" y="-821.61" font-family="Times,serif" font-size="14.00">Filebeat</text>
</g>
<!-- es -->
<g id="node18" class="node">
<title>es</title>
<ellipse fill="#b0e2ff" stroke="red" cx="906" cy="-432.54" rx="81.13" ry="26.74"/>
<text text-anchor="middle" x="906" y="-436.34" font-family="Times,serif" font-size="14.00">ElasticSearch</text>
<text text-anchor="middle" x="906" y="-421.34" font-family="Times,serif" font-size="14.00">&amp; Kibana</text>
</g>
<!-- docker_filebeatB&#45;&gt;es -->
<g id="edge29" class="edge">
<title>docker_filebeatB&#45;&gt;es</title>
<path fill="none" stroke="#888888" stroke-dasharray="5,2" d="M937.77,-805.68C931.87,-736.53 915.83,-548.67 909.07,-469.49"/>
<polygon fill="#888888" stroke="#888888" points="912.55,-469.17 908.22,-459.51 905.58,-469.77 912.55,-469.17"/>
</g>
<!-- subnet_private_in&#45;&gt;es -->
<g id="edge9" class="edge">
<title>subnet_private_in&#45;&gt;es</title>
<path fill="none" stroke="red" stroke-dasharray="5,2" d="M865.58,-684.65C869.3,-661.57 889.94,-533.31 900.2,-469.54"/>
<polygon fill="red" stroke="red" points="903.68,-469.95 901.82,-459.52 896.77,-468.84 903.68,-469.95"/>
</g>
<!-- docker_filebeatA -->
<g id="node19" class="node">
<title>docker_filebeatA</title>
<ellipse fill="#eecc99" stroke="black" cx="767" cy="-556.3" rx="53.07" ry="26.74"/>
<text text-anchor="middle" x="767" y="-560.1" font-family="Times,serif" font-size="14.00">Docker:</text>
<text text-anchor="middle" x="767" y="-545.1" font-family="Times,serif" font-size="14.00">Filebeat</text>
</g>
<!-- subnet_private_in&#45;&gt;docker_filebeatA -->
<!-- docker_prometheus_tech -->
<g id="node30" class="node">
<title>docker_prometheus_tech</title>
<ellipse fill="#ffee44" stroke="red" cx="298" cy="-186.43" rx="72.66" ry="37.45"/>
<text text-anchor="middle" x="298" y="-197.73" font-family="Times,serif" font-size="14.00">Docker:</text>
<text text-anchor="middle" x="298" y="-182.73" font-family="Times,serif" font-size="14.00">Prometheus</text>
<text text-anchor="middle" x="298" y="-167.73" font-family="Times,serif" font-size="14.00">(tech)</text>
</g>
<!-- subnet_private_in&#45;&gt;docker_prometheus_tech -->
<g id="edge11" class="edge">
<title>subnet_private_in&#45;&gt;docker_prometheus_tech</title>
<path fill="none" stroke="red" stroke-dasharray="5,2" d="M867.51,-685.64C883.26,-669.06 968.53,-576.2 996,-481.54 1002.18,-460.24 1010.59,-298.61 996,-281.91 975.84,-258.83 559.17,-213.95 379.4,-195.58"/>
<polygon fill="red" stroke="red" points="379.5,-192.07 369.2,-194.54 378.79,-199.03 379.5,-192.07"/>
</g>
<!-- docker_prometheus_busi -->
<g id="node31" class="node">
<title>docker_prometheus_busi</title>
<ellipse fill="#ffee44" stroke="red" cx="811" cy="-186.43" rx="72.66" ry="37.45"/>
<text text-anchor="middle" x="811" y="-197.73" font-family="Times,serif" font-size="14.00">Docker:</text>
<text text-anchor="middle" x="811" y="-182.73" font-family="Times,serif" font-size="14.00">Prometheus</text>
<text text-anchor="middle" x="811" y="-167.73" font-family="Times,serif" font-size="14.00">(business)</text>
</g>
<!-- subnet_private_in&#45;&gt;docker_prometheus_busi -->
<g id="edge12" class="edge">
<title>subnet_private_in&#45;&gt;docker_prometheus_busi</title>
<path fill="none" stroke="red" stroke-dasharray="5,2" d="M869.23,-687.41C888.27,-683.36 966.47,-664.04 999,-614.17 1026.65,-571.78 1016.48,-290.56 1011,-281.91 984.25,-239.69 933,-215.98 889.08,-202.87"/>
<polygon fill="red" stroke="red" points="889.83,-199.44 879.26,-200.07 887.92,-206.17 889.83,-199.44"/>
</g>
<!-- docker_grafana -->
<g id="node32" class="node">
<title>docker_grafana</title>
<ellipse fill="#ffee44" stroke="red" cx="811" cy="-308.78" rx="52.15" ry="26.74"/>
<text text-anchor="middle" x="811" y="-312.58" font-family="Times,serif" font-size="14.00">Docker:</text>
<text text-anchor="middle" x="811" y="-297.58" font-family="Times,serif" font-size="14.00">Grafana</text>
</g>
<!-- subnet_private_in&#45;&gt;docker_grafana -->
<g id="edge10" class="edge">
<title>subnet_private_in&#45;&gt;docker_grafana</title>
<path fill="none" stroke="red" stroke-dasharray="5,2" d="M864.53,-684.55C862.17,-666.44 850.98,-585.4 832,-521.43 826.57,-503.12 819.89,-500.24 816,-481.54 806.41,-435.48 806.74,-381 808.4,-345.94"/>
<polygon fill="red" stroke="red" points="811.91,-345.89 808.95,-335.71 804.92,-345.51 811.91,-345.89"/>
</g>
<!-- redis -->
<g id="node17" class="node">
<title>redis</title>
<ellipse fill="#ffee44" stroke="black" cx="527" cy="-432.54" rx="39.7" ry="38.78"/>
<text text-anchor="middle" x="527" y="-428.84" font-family="Times,serif" font-size="14.00">Redis</text>
</g>
<!-- docker_filebeatO -->
<g id="node26" class="node">
<title>docker_filebeatO</title>
<ellipse fill="#eecc99" stroke="black" cx="934" cy="-308.78" rx="53.07" ry="26.74"/>
<text text-anchor="middle" x="934" y="-312.58" font-family="Times,serif" font-size="14.00">Docker:</text>
<text text-anchor="middle" x="934" y="-297.58" font-family="Times,serif" font-size="14.00">Filebeat</text>
</g>
<!-- es&#45;&gt;docker_filebeatO -->
<g id="edge30" class="edge">
<title>es&#45;&gt;docker_filebeatO</title>
<path fill="none" stroke="#888888" stroke-dasharray="5,2" d="M914.23,-395.76C918.67,-376.46 924.04,-353.07 928.07,-335.56"/>
<polygon fill="#888888" stroke="#888888" points="910.77,-395.19 911.94,-405.72 917.59,-396.75 910.77,-395.19"/>
</g>
<!-- docker_filebeatA&#45;&gt;es -->
<g id="edge28" class="edge">
<title>docker_filebeatA&#45;&gt;es</title>
<path fill="none" stroke="#888888" stroke-dasharray="5,2" d="M792.82,-532.68C814.64,-513.57 846.12,-485.99 870.34,-464.77"/>
<polygon fill="#888888" stroke="#888888" points="872.72,-467.35 877.93,-458.13 868.1,-462.08 872.72,-467.35"/>
</g>
<!-- docker_nodeexpA -->
<g id="node20" class="node">
<title>docker_nodeexpA</title>
<ellipse fill="#eecc99" stroke="black" cx="231" cy="-556.3" rx="83.38" ry="26.74"/>
<text text-anchor="middle" x="231" y="-560.1" font-family="Times,serif" font-size="14.00">Docker:</text>
<text text-anchor="middle" x="231" y="-545.1" font-family="Times,serif" font-size="14.00">NodeExporter</text>
</g>
<!-- docker_nodeexpA&#45;&gt;docker_prometheus_tech -->
<g id="edge33" class="edge">
<title>docker_nodeexpA&#45;&gt;docker_prometheus_tech</title>
<path fill="none" stroke="#888888" stroke-dasharray="5,2" d="M189.05,-525.09C175.91,-513.16 163.02,-498.29 156,-481.54 121.71,-399.71 114.1,-360.11 156,-281.91 173.9,-248.5 209.4,-224.88 240.42,-209.61"/>
<polygon fill="#888888" stroke="#888888" points="186.91,-527.87 196.77,-531.76 191.49,-522.57 186.91,-527.87"/>
</g>
<!-- docker_cadvisorA -->
<g id="node21" class="node">
<title>docker_cadvisorA</title>
<ellipse fill="#eecc99" stroke="black" cx="388" cy="-556.3" rx="55.31" ry="26.74"/>
<text text-anchor="middle" x="388" y="-560.1" font-family="Times,serif" font-size="14.00">Docker:</text>
<text text-anchor="middle" x="388" y="-545.1" font-family="Times,serif" font-size="14.00">cAdvisor</text>
</g>
<!-- docker_cadvisorA&#45;&gt;docker_prometheus_tech -->
<g id="edge35" class="edge">
<title>docker_cadvisorA&#45;&gt;docker_prometheus_tech</title>
<path fill="none" stroke="#888888" stroke-dasharray="5,2" d="M343.99,-530.75C337.08,-527.37 329.93,-524.14 323,-521.43 259.95,-496.78 217.13,-535.31 176,-481.54 149.05,-446.3 156.47,-321.74 176,-281.91 190.68,-251.96 219.94,-228.8 246.12,-212.9"/>
<polygon fill="#888888" stroke="#888888" points="342.72,-534.04 353.22,-535.42 345.88,-527.79 342.72,-534.04"/>
</g>
<!-- docker_webapp&#45;&gt;redis -->
<g id="edge19" class="edge">
<title>docker_webapp&#45;&gt;redis</title>
<path fill="none" stroke="green" d="M621.6,-532.06C607.62,-517.54 589.25,-498.46 573,-481.54 569.1,-477.48 565.02,-473.23 560.97,-469"/>
<polygon fill="green" stroke="green" points="563.19,-466.26 553.75,-461.47 558.14,-471.11 563.19,-466.26"/>
</g>
<!-- rds_shipreq -->
<g id="node24" class="node">
<title>rds_shipreq</title>
<ellipse fill="#fff8f0" stroke="black" cx="631" cy="-432.54" rx="46.29" ry="18"/>
<text text-anchor="middle" x="631" y="-428.84" font-family="Times,serif" font-size="14.00">shipreq</text>
</g>
<!-- docker_webapp&#45;&gt;rds_shipreq -->
<g id="edge20" class="edge">
<title>docker_webapp&#45;&gt;rds_shipreq</title>
<path fill="none" stroke="green" d="M641.21,-529.18C639.06,-509.04 636.1,-481.27 633.91,-460.84"/>
<polygon fill="green" stroke="green" points="637.37,-460.19 632.82,-450.62 630.41,-460.94 637.37,-460.19"/>
</g>
<!-- docker_webapp&#45;&gt;docker_prometheus_tech -->
<g id="edge31" class="edge">
<title>docker_webapp&#45;&gt;docker_prometheus_tech</title>
<path fill="none" stroke="#888888" stroke-dasharray="5,2" d="M603.85,-529.72C597.41,-526.48 590.66,-523.56 584,-521.43 503.55,-495.7 262.51,-544.32 206,-481.54 196.02,-470.45 206.72,-292.19 211,-281.91 221.28,-257.2 241.04,-234.9 259.13,-218.18"/>
<polygon fill="#888888" stroke="#888888" points="602.57,-533.01 613.04,-534.65 605.88,-526.84 602.57,-533.01"/>
</g>
<!-- docker_taskman&#45;&gt;rds_shipreq -->
<g id="edge21" class="edge">
<title>docker_taskman&#45;&gt;rds_shipreq</title>
<path fill="none" stroke="green" d="M540.06,-531.53C559.96,-510.08 589.09,-478.69 608.99,-457.26"/>
<polygon fill="green" stroke="green" points="611.63,-459.56 615.86,-449.85 606.5,-454.8 611.63,-459.56"/>
</g>
<!-- docker_taskman&#45;&gt;docker_prometheus_tech -->
<g id="edge32" class="edge">
<title>docker_taskman&#45;&gt;docker_prometheus_tech</title>
<path fill="none" stroke="#888888" stroke-dasharray="5,2" d="M474.27,-530.42C467,-527 459.41,-523.84 452,-521.43 397.25,-503.63 233.45,-525.27 196,-481.54 167.15,-447.84 178.24,-322.56 196,-281.91 207.74,-255.03 231.31,-232.39 252.84,-216.01"/>
<polygon fill="#888888" stroke="#888888" points="472.76,-533.58 483.28,-534.86 475.85,-527.3 472.76,-533.58"/>
</g>
<!-- docker_db_metrics -->
<g id="node29" class="node">
<title>docker_db_metrics</title>
<ellipse fill="#ffee44" stroke="black" cx="637" cy="-308.78" rx="103.89" ry="26.74"/>
<text text-anchor="middle" x="637" y="-312.58" font-family="Times,serif" font-size="14.00">Docker:</text>
<text text-anchor="middle" x="637" y="-297.58" font-family="Times,serif" font-size="14.00">postgres_exporter</text>
</g>
<!-- rds_shipreq&#45;&gt;docker_db_metrics -->
<g id="edge37" class="edge">
<title>rds_shipreq&#45;&gt;docker_db_metrics</title>
<path fill="none" stroke="#888888" stroke-dasharray="5,2" d="M632.35,-404.12C633.36,-383.68 634.73,-355.93 635.72,-335.82"/>
<polygon fill="#888888" stroke="#888888" points="628.84,-404.19 631.85,-414.35 635.83,-404.53 628.84,-404.19"/>
</g>
<!-- rds_grafana -->
<g id="node25" class="node">
<title>rds_grafana</title>
<ellipse fill="#fff8f0" stroke="black" cx="741" cy="-432.54" rx="46.29" ry="18"/>
<text text-anchor="middle" x="741" y="-428.84" font-family="Times,serif" font-size="14.00">grafana</text>
</g>
<!-- rds_grafana&#45;&gt;docker_grafana -->
<g id="edge18" class="edge">
<title>rds_grafana&#45;&gt;docker_grafana</title>
<path fill="none" stroke="green" d="M755.58,-406.17C767.65,-385.19 784.69,-355.54 796.68,-334.68"/>
<polygon fill="green" stroke="green" points="752.54,-404.45 750.59,-414.86 758.6,-407.94 752.54,-404.45"/>
</g>
<!-- docker_nodeexpO -->
<g id="node27" class="node">
<title>docker_nodeexpO</title>
<ellipse fill="#eecc99" stroke="black" cx="303" cy="-308.78" rx="83.38" ry="26.74"/>
<text text-anchor="middle" x="303" y="-312.58" font-family="Times,serif" font-size="14.00">Docker:</text>
<text text-anchor="middle" x="303" y="-297.58" font-family="Times,serif" font-size="14.00">NodeExporter</text>
</g>
<!-- docker_nodeexpO&#45;&gt;docker_prometheus_tech -->
<g id="edge34" class="edge">
<title>docker_nodeexpO&#45;&gt;docker_prometheus_tech</title>
<path fill="none" stroke="#888888" stroke-dasharray="5,2" d="M301.48,-271.24C300.86,-256.26 300.14,-238.97 299.52,-223.99"/>
<polygon fill="#888888" stroke="#888888" points="298,-271.82 301.92,-281.66 305,-271.53 298,-271.82"/>
</g>
<!-- docker_cadvisorO -->
<g id="node28" class="node">
<title>docker_cadvisorO</title>
<ellipse fill="#eecc99" stroke="black" cx="460" cy="-308.78" rx="55.31" ry="26.74"/>
<text text-anchor="middle" x="460" y="-312.58" font-family="Times,serif" font-size="14.00">Docker:</text>
<text text-anchor="middle" x="460" y="-297.58" font-family="Times,serif" font-size="14.00">cAdvisor</text>
</g>
<!-- docker_cadvisorO&#45;&gt;docker_prometheus_tech -->
<g id="edge36" class="edge">
<title>docker_cadvisorO&#45;&gt;docker_prometheus_tech</title>
<path fill="none" stroke="#888888" stroke-dasharray="5,2" d="M422.48,-279.91C397.4,-261.27 364.41,-236.76 338.69,-217.66"/>
<polygon fill="#888888" stroke="#888888" points="420.55,-282.83 430.66,-285.98 424.72,-277.21 420.55,-282.83"/>
</g>
<!-- docker_db_metrics&#45;&gt;docker_prometheus_busi -->
<g id="edge38" class="edge">
<title>docker_db_metrics&#45;&gt;docker_prometheus_busi</title>
<path fill="none" stroke="#888888" stroke-dasharray="5,2" d="M680.66,-277.58C707.53,-259 741.8,-235.29 768.46,-216.85"/>
<polygon fill="#888888" stroke="#888888" points="678.45,-274.86 672.21,-283.42 682.43,-280.61 678.45,-274.86"/>
</g>
<!-- docker_prometheus_tech&#45;&gt;ebs_prometheus_tech -->
<g id="edge24" class="edge">
<title>docker_prometheus_tech&#45;&gt;ebs_prometheus_tech</title>
<path fill="none" stroke="green" d="M298,-148.95C298,-134.18 298,-116.93 298,-101.25"/>
<polygon fill="green" stroke="green" points="301.5,-101.21 298,-91.21 294.5,-101.21 301.5,-101.21"/>
</g>
<!-- docker_prometheus_busi&#45;&gt;ebs_prometheus_busi -->
<g id="edge25" class="edge">
<title>docker_prometheus_busi&#45;&gt;ebs_prometheus_busi</title>
<path fill="none" stroke="green" d="M811,-148.95C811,-134.18 811,-116.93 811,-101.25"/>
<polygon fill="green" stroke="green" points="814.5,-101.21 811,-91.21 807.5,-101.21 814.5,-101.21"/>
</g>
<!-- docker_grafana&#45;&gt;docker_prometheus_tech -->
<g id="edge26" class="edge">
<title>docker_grafana&#45;&gt;docker_prometheus_tech</title>
<path fill="none" stroke="green" d="M772.7,-290.2C765.27,-287.17 757.46,-284.25 750,-281.91 622.25,-241.89 468.84,-213.88 377.6,-199.24"/>
<polygon fill="green" stroke="green" points="378.03,-195.76 367.61,-197.65 376.93,-202.68 378.03,-195.76"/>
</g>
<!-- docker_grafana&#45;&gt;docker_prometheus_busi -->
<g id="edge27" class="edge">
<title>docker_grafana&#45;&gt;docker_prometheus_busi</title>
<path fill="none" stroke="green" d="M811,-281.66C811,-267.83 811,-250.41 811,-234.32"/>
<polygon fill="green" stroke="green" points="814.5,-233.99 811,-223.99 807.5,-233.99 814.5,-233.99"/>
</g>
</g>
</svg>
