<?xml version="1.0" encoding="UTF-8" standalone="no"?>
<!DOCTYPE svg PUBLIC "-//W3C//DTD SVG 1.1//EN"
 "http://www.w3.org/Graphics/SVG/1.1/DTD/svg11.dtd">
<!-- Generated by graphviz version 2.43.20190912.0211 (20190912.0211)
 -->
<!-- Title: %3 Pages: 1 -->
<svg width="1069pt" height="1061pt"
 viewBox="0.00 0.00 1068.73 1060.65" xmlns="http://www.w3.org/2000/svg" xmlns:xlink="http://www.w3.org/1999/xlink">
<g id="graph0" class="graph" transform="scale(1 1) rotate(0) translate(4 1056.65)">
<title>%3</title>
<polygon fill="white" stroke="transparent" points="-4,4 -4,-1056.65 1064.73,-1056.65 1064.73,4 -4,4"/>
<g id="clust1" class="cluster">
<title>cluster_AWS</title>
<polygon fill="#eeffee" stroke="black" points="8.73,-8 8.73,-939.65 1052.73,-939.65 1052.73,-8 8.73,-8"/>
<text text-anchor="middle" x="530.73" y="-924.45" font-family="Times,serif" font-size="14.00">AWS</text>
</g>
<g id="clust2" class="cluster">
<title>cluster_VPC</title>
<polygon fill="white" stroke="black" points="16.73,-170.61 16.73,-839.91 932.73,-839.91 932.73,-170.61 16.73,-170.61"/>
<text text-anchor="middle" x="474.73" y="-824.71" font-family="Times,serif" font-size="14.00">VPC</text>
</g>
<g id="clust3" class="cluster">
<title>cluster_public</title>
<polygon fill="#999999" stroke="black" points="259.73,-655.96 259.73,-808.91 711.73,-808.91 711.73,-655.96 259.73,-655.96"/>
<text text-anchor="middle" x="485.73" y="-793.71" font-family="Times,serif" font-size="14.00">Public subnet</text>
</g>
<g id="clust4" class="cluster">
<title>cluster_sg_bastion</title>
<polygon fill="white" stroke="black" points="499.73,-663.96 499.73,-777.91 703.73,-777.91 703.73,-663.96 499.73,-663.96"/>
<text text-anchor="middle" x="601.73" y="-762.71" font-family="Times,serif" font-size="14.00">SG: Bastion</text>
</g>
<g id="clust5" class="cluster">
<title>cluster_private_app</title>
<polygon fill="#cccccc" stroke="black" points="46.73,-332.35 46.73,-647.96 490.73,-647.96 490.73,-332.35 46.73,-332.35"/>
<text text-anchor="middle" x="268.73" y="-632.76" font-family="Times,serif" font-size="14.00">Private app subnet</text>
</g>
<g id="clust6" class="cluster">
<title>cluster_sg_rds</title>
<polygon fill="white" stroke="black" points="144.73,-340.35 144.73,-415.35 249.73,-415.35 249.73,-340.35 144.73,-340.35"/>
<text text-anchor="middle" x="197.23" y="-400.15" font-family="Times,serif" font-size="14.00">SG: RDS</text>
</g>
<g id="clust7" class="cluster">
<title>cluster_sg_redis</title>
<polygon fill="white" stroke="black" points="302.73,-340.35 302.73,-415.35 417.73,-415.35 417.73,-340.35 302.73,-340.35"/>
<text text-anchor="middle" x="360.23" y="-400.15" font-family="Times,serif" font-size="14.00">SG: Redis</text>
</g>
<g id="clust8" class="cluster">
<title>cluster_sg_app</title>
<polygon fill="white" stroke="black" points="54.73,-485.22 54.73,-616.96 463.73,-616.96 463.73,-485.22 54.73,-485.22"/>
<text text-anchor="middle" x="259.23" y="-601.76" font-family="Times,serif" font-size="14.00">SG: App</text>
</g>
<g id="clust9" class="cluster">
<title>cluster_ecs2_app</title>
<polygon fill="#ffeeee" stroke="black" points="62.73,-493.22 62.73,-585.96 437.73,-585.96 437.73,-493.22 62.73,-493.22"/>
<text text-anchor="middle" x="250.23" y="-570.76" font-family="Times,serif" font-size="14.00">App ECS Cluster / EC2s</text>
</g>
<g id="clust10" class="cluster">
<title>cluster_private_ops</title>
<polygon fill="#cccccc" stroke="black" points="498.73,-178.61 498.73,-455.22 912.73,-455.22 912.73,-178.61 498.73,-178.61"/>
<text text-anchor="middle" x="705.73" y="-440.02" font-family="Times,serif" font-size="14.00">Private ops subnet</text>
</g>
<g id="clust11" class="cluster">
<title>cluster_sg_es</title>
<polygon fill="white" stroke="black" points="525.73,-331.48 525.73,-424.22 730.73,-424.22 730.73,-331.48 525.73,-331.48"/>
<text text-anchor="middle" x="628.23" y="-409.02" font-family="Times,serif" font-size="14.00">SG: ES</text>
</g>
<!-- internet -->
<g id="node1" class="node">
<title>internet</title>
<ellipse fill="#ffee44" stroke="black" cx="425.73" cy="-1034.65" rx="48.99" ry="18"/>
<text text-anchor="middle" x="425.73" y="-1030.95" font-family="Times,serif" font-size="14.00">Internet</text>
</g>
<!-- dns_shipreq -->
<g id="node2" class="node">
<title>dns_shipreq</title>
<ellipse fill="#ffee44" stroke="black" cx="321.73" cy="-881.78" rx="73.58" ry="26.74"/>
<text text-anchor="middle" x="321.73" y="-885.58" font-family="Times,serif" font-size="14.00">DNS:</text>
<text text-anchor="middle" x="321.73" y="-870.58" font-family="Times,serif" font-size="14.00">shipreq.com</text>
</g>
<!-- internet&#45;&gt;dns_shipreq -->
<g id="edge1" class="edge">
<title>internet&#45;&gt;dns_shipreq</title>
<path fill="none" stroke="red" d="M414.2,-1016.93C397.57,-992.81 366.49,-947.72 344.98,-916.51"/>
<polygon fill="red" stroke="red" points="347.74,-914.36 339.19,-908.11 341.98,-918.33 347.74,-914.36"/>
</g>
<!-- nat -->
<g id="node7" class="node">
<title>nat</title>
<ellipse fill="#ffee44" stroke="black" cx="425.73" cy="-709.44" rx="36.54" ry="26.74"/>
<text text-anchor="middle" x="425.73" y="-713.24" font-family="Times,serif" font-size="14.00">ASG:</text>
<text text-anchor="middle" x="425.73" y="-698.24" font-family="Times,serif" font-size="14.00">NAT</text>
</g>
<!-- internet&#45;&gt;nat -->
<g id="edge3" class="edge">
<title>internet&#45;&gt;nat</title>
<path fill="none" stroke="red" d="M425.73,-1006.17C425.73,-944.69 425.73,-796.72 425.73,-736.55"/>
<polygon fill="red" stroke="red" points="422.23,-1006.28 425.73,-1016.28 429.23,-1006.28 422.23,-1006.28"/>
</g>
<!-- bastion -->
<g id="node9" class="node">
<title>bastion</title>
<ellipse fill="#ffee44" stroke="black" cx="614.73" cy="-709.44" rx="80.72" ry="37.45"/>
<text text-anchor="middle" x="614.73" y="-720.74" font-family="Times,serif" font-size="14.00">ASG:</text>
<text text-anchor="middle" x="614.73" y="-705.74" font-family="Times,serif" font-size="14.00">Bastion &amp;</text>
<text text-anchor="middle" x="614.73" y="-690.74" font-family="Times,serif" font-size="14.00">devops portal</text>
</g>
<!-- internet&#45;&gt;bastion -->
<g id="edge4" class="edge">
<title>internet&#45;&gt;bastion</title>
<path fill="none" stroke="red" d="M435.62,-1016.73C464.03,-968.15 546.5,-827.11 588.9,-754.61"/>
<polygon fill="red" stroke="red" points="592.08,-756.09 594.11,-745.69 586.04,-752.56 592.08,-756.09"/>
</g>
<!-- elb_webapp -->
<g id="node6" class="node">
<title>elb_webapp</title>
<ellipse fill="#ffee44" stroke="black" cx="319.73" cy="-709.44" rx="51.74" ry="26.74"/>
<text text-anchor="middle" x="319.73" y="-713.24" font-family="Times,serif" font-size="14.00">ELB:</text>
<text text-anchor="middle" x="319.73" y="-698.24" font-family="Times,serif" font-size="14.00">Webapp</text>
</g>
<!-- dns_shipreq&#45;&gt;elb_webapp -->
<g id="edge2" class="edge">
<title>dns_shipreq&#45;&gt;elb_webapp</title>
<path fill="none" stroke="red" d="M321.42,-854.91C321.08,-826.02 320.53,-779.06 320.15,-746.56"/>
<polygon fill="red" stroke="red" points="323.65,-746.51 320.03,-736.55 316.65,-746.59 323.65,-746.51"/>
</g>
<!-- ebs_prometheus -->
<g id="node3" class="node">
<title>ebs_prometheus</title>
<ellipse fill="#ffee44" stroke="black" cx="802.73" cy="-42.87" rx="72.66" ry="26.74"/>
<text text-anchor="middle" x="802.73" y="-46.67" font-family="Times,serif" font-size="14.00">EBS:</text>
<text text-anchor="middle" x="802.73" y="-31.67" font-family="Times,serif" font-size="14.00">Prometheus</text>
</g>
<!-- ebs_grafana -->
<g id="node4" class="node">
<title>ebs_grafana</title>
<ellipse fill="#ffee44" stroke="black" cx="992.73" cy="-204.61" rx="52.15" ry="26.74"/>
<text text-anchor="middle" x="992.73" y="-208.41" font-family="Times,serif" font-size="14.00">EBS:</text>
<text text-anchor="middle" x="992.73" y="-193.41" font-family="Times,serif" font-size="14.00">Grafana</text>
</g>
<!-- subnet_public -->
<g id="node5" class="node">
<title>subnet_public</title>
<ellipse fill="blue" stroke="black" cx="484.73" cy="-709.44" rx="4.32" ry="4.32"/>
</g>
<!-- subnet_private_app -->
<g id="node10" class="node">
<title>subnet_private_app</title>
<ellipse fill="blue" stroke="black" cx="478.73" cy="-528.09" rx="4.32" ry="4.32"/>
</g>
<!-- subnet_public&#45;&gt;subnet_private_app -->
<g id="edge10" class="edge">
<title>subnet_public&#45;&gt;subnet_private_app</title>
<path fill="none" stroke="blue" d="M484.27,-694.63C483.15,-661.21 480.31,-576.29 479.19,-542.89"/>
<polygon fill="blue" stroke="blue" points="480.78,-695.14 484.61,-705.01 487.78,-694.9 480.78,-695.14"/>
<polygon fill="blue" stroke="blue" points="482.68,-542.43 478.84,-532.55 475.68,-542.66 482.68,-542.43"/>
</g>
<!-- subnet_private_ops -->
<g id="node19" class="node">
<title>subnet_private_ops</title>
<ellipse fill="blue" stroke="black" cx="510.73" cy="-366.35" rx="4.32" ry="4.32"/>
</g>
<!-- subnet_public&#45;&gt;subnet_private_ops -->
<g id="edge11" class="edge">
<title>subnet_public&#45;&gt;subnet_private_ops</title>
<path fill="none" stroke="blue" d="M485.45,-704.91C487.31,-695.63 492.31,-669.75 494.73,-647.96 506.08,-545.56 509.59,-421.18 510.47,-380.74"/>
<polygon fill="blue" stroke="blue" points="513.97,-380.76 510.67,-370.7 506.97,-380.62 513.97,-380.76"/>
</g>
<!-- docker_webapp -->
<g id="node17" class="node">
<title>docker_webapp</title>
<ellipse fill="#ffee44" stroke="black" cx="253.73" cy="-528.09" rx="51.74" ry="26.74"/>
<text text-anchor="middle" x="253.73" y="-531.89" font-family="Times,serif" font-size="14.00">Docker:</text>
<text text-anchor="middle" x="253.73" y="-516.89" font-family="Times,serif" font-size="14.00">Webapp</text>
</g>
<!-- elb_webapp&#45;&gt;docker_webapp -->
<g id="edge8" class="edge">
<title>elb_webapp&#45;&gt;docker_webapp</title>
<path fill="none" stroke="red" d="M310.27,-682.74C298.85,-651.71 279.58,-599.35 266.76,-564.51"/>
<polygon fill="red" stroke="red" points="269.9,-562.91 263.17,-554.74 263.33,-565.33 269.9,-562.91"/>
</g>
<!-- nat&#45;&gt;subnet_private_app -->
<g id="edge9" class="edge">
<title>nat&#45;&gt;subnet_private_app</title>
<path fill="none" stroke="red" d="M451.09,-678.39C457.59,-669.17 463.84,-658.63 467.73,-647.96 483.49,-604.73 480.19,-547.09 479.03,-532.54"/>
<polygon fill="red" stroke="red" points="448.26,-676.34 445.11,-686.46 453.88,-680.51 448.26,-676.34"/>
</g>
<!-- sg_bastion -->
<g id="node8" class="node">
<title>sg_bastion</title>
<ellipse fill="blue" stroke="black" cx="511.73" cy="-709.44" rx="4.32" ry="4.32"/>
</g>
<!-- sg_rds -->
<g id="node11" class="node">
<title>sg_rds</title>
<ellipse fill="blue" stroke="black" cx="237.73" cy="-366.35" rx="4.32" ry="4.32"/>
</g>
<!-- sg_bastion&#45;&gt;sg_rds -->
<g id="edge17" class="edge">
<title>sg_bastion&#45;&gt;sg_rds</title>
<path fill="none" stroke="blue" d="M512.51,-704.92C514.42,-695.33 518.16,-668.58 503.73,-655.96 484.19,-638.88 54.92,-666.47 36.73,-647.96 -13.98,-596.38 -10.19,-540.27 36.73,-485.22 91.33,-421.16 164.24,-514.77 223.73,-455.22 243.43,-435.5 242.31,-399.91 239.94,-380.63"/>
<polygon fill="blue" stroke="blue" points="243.38,-380 238.4,-370.65 236.46,-381.06 243.38,-380"/>
</g>
<!-- sg_redis -->
<g id="node13" class="node">
<title>sg_redis</title>
<ellipse fill="blue" stroke="black" cx="405.73" cy="-366.35" rx="4.32" ry="4.32"/>
</g>
<!-- sg_bastion&#45;&gt;sg_redis -->
<g id="edge18" class="edge">
<title>sg_bastion&#45;&gt;sg_redis</title>
<path fill="none" stroke="blue" d="M512.51,-704.93C514.42,-695.34 518.15,-668.58 503.73,-655.96 485.12,-639.68 76.05,-665.6 58.73,-647.96 33.39,-622.16 34.33,-511.92 58.73,-485.22 108.85,-430.38 337.43,-505.94 391.73,-455.22 412.1,-436.19 410.71,-400.32 408.11,-380.81"/>
<polygon fill="blue" stroke="blue" points="411.52,-380 406.45,-370.7 404.62,-381.13 411.52,-380"/>
</g>
<!-- sg_app -->
<g id="node15" class="node">
<title>sg_app</title>
<ellipse fill="blue" stroke="black" cx="451.73" cy="-528.09" rx="4.32" ry="4.32"/>
</g>
<!-- sg_bastion&#45;&gt;sg_app -->
<g id="edge16" class="edge">
<title>sg_bastion&#45;&gt;sg_app</title>
<path fill="none" stroke="blue" d="M512.4,-705.04C514.02,-695.76 517.09,-669.71 503.73,-655.96 489.87,-641.71 472.97,-662.78 459.73,-647.96 446.11,-632.71 448.75,-570.11 450.66,-542.4"/>
<polygon fill="blue" stroke="blue" points="454.15,-542.65 451.43,-532.41 447.18,-542.12 454.15,-542.65"/>
</g>
<!-- sg_es -->
<g id="node20" class="node">
<title>sg_es</title>
<ellipse fill="blue" stroke="black" cx="718.73" cy="-366.35" rx="4.32" ry="4.32"/>
</g>
<!-- sg_bastion&#45;&gt;sg_es -->
<g id="edge19" class="edge">
<title>sg_bastion&#45;&gt;sg_es</title>
<path fill="none" stroke="blue" d="M512.01,-704.92C512.83,-696.16 515.77,-672.88 524.73,-655.96 580.8,-550.05 653.2,-563.41 704.73,-455.22 716.33,-430.86 718.62,-398.84 718.9,-380.95"/>
<polygon fill="blue" stroke="blue" points="722.4,-380.9 718.86,-370.91 715.4,-380.92 722.4,-380.9"/>
</g>
<!-- es -->
<g id="node21" class="node">
<title>es</title>
<ellipse fill="#ffee44" stroke="black" cx="614.73" cy="-366.35" rx="81.13" ry="26.74"/>
<text text-anchor="middle" x="614.73" y="-370.15" font-family="Times,serif" font-size="14.00">ElasticSearch</text>
<text text-anchor="middle" x="614.73" y="-355.15" font-family="Times,serif" font-size="14.00">&amp; Kibana</text>
</g>
<!-- bastion&#45;&gt;es -->
<g id="edge5" class="edge">
<title>bastion&#45;&gt;es</title>
<path fill="none" stroke="red" d="M614.73,-671.93C614.73,-606.33 614.73,-469.23 614.73,-403.72"/>
<polygon fill="red" stroke="red" points="618.23,-403.47 614.73,-393.47 611.23,-403.47 618.23,-403.47"/>
</g>
<!-- docker_prometheus -->
<g id="node22" class="node">
<title>docker_prometheus</title>
<ellipse fill="#ffee44" stroke="black" cx="802.73" cy="-204.61" rx="102.08" ry="18"/>
<text text-anchor="middle" x="802.73" y="-200.91" font-family="Times,serif" font-size="14.00">docker_prometheus</text>
</g>
<!-- bastion&#45;&gt;docker_prometheus -->
<g id="edge6" class="edge">
<title>bastion&#45;&gt;docker_prometheus</title>
<path fill="none" stroke="red" d="M669.77,-682.03C742.19,-643.74 865.88,-565.15 913.73,-455.22 935.68,-404.79 933.17,-382.92 913.73,-331.48 897.67,-289 860.02,-251.58 833.02,-228.82"/>
<polygon fill="red" stroke="red" points="834.96,-225.88 825.01,-222.23 830.51,-231.29 834.96,-225.88"/>
</g>
<!-- docker_grafana -->
<g id="node23" class="node">
<title>docker_grafana</title>
<ellipse fill="#ffee44" stroke="black" cx="822.73" cy="-366.35" rx="81.79" ry="18"/>
<text text-anchor="middle" x="822.73" y="-362.65" font-family="Times,serif" font-size="14.00">docker_grafana</text>
</g>
<!-- bastion&#45;&gt;docker_grafana -->
<g id="edge7" class="edge">
<title>bastion&#45;&gt;docker_grafana</title>
<path fill="none" stroke="red" d="M636.2,-673.22C678.16,-604.41 770.14,-453.58 807,-393.15"/>
<polygon fill="red" stroke="red" points="810,-394.94 812.22,-384.58 804.03,-391.29 810,-394.94"/>
</g>
<!-- subnet_private_app&#45;&gt;subnet_private_ops -->
<g id="edge12" class="edge">
<title>subnet_private_app&#45;&gt;subnet_private_ops</title>
<path fill="none" stroke="blue" d="M481.37,-513.91C487.37,-483.93 502.01,-410.88 508.05,-380.72"/>
<polygon fill="blue" stroke="blue" points="477.93,-513.26 479.4,-523.75 484.79,-514.64 477.93,-513.26"/>
<polygon fill="blue" stroke="blue" points="511.53,-381.16 510.06,-370.67 504.67,-379.79 511.53,-381.16"/>
</g>
<!-- rds -->
<g id="node12" class="node">
<title>rds</title>
<ellipse fill="#ffee44" stroke="black" cx="183.73" cy="-366.35" rx="31.4" ry="18"/>
<text text-anchor="middle" x="183.73" y="-362.65" font-family="Times,serif" font-size="14.00">RDS</text>
</g>
<!-- redis -->
<g id="node14" class="node">
<title>redis</title>
<ellipse fill="#ffee44" stroke="black" cx="346.73" cy="-366.35" rx="36.29" ry="18"/>
<text text-anchor="middle" x="346.73" y="-362.65" font-family="Times,serif" font-size="14.00">Redis</text>
</g>
<!-- sg_app&#45;&gt;sg_rds -->
<g id="edge13" class="edge">
<title>sg_app&#45;&gt;sg_rds</title>
<path fill="none" stroke="blue" d="M452.04,-523.45C452.52,-515.34 452.44,-495.64 441.73,-485.22 395.18,-439.94 352.85,-491.1 298.73,-455.22 270.39,-436.44 251.39,-399.59 242.86,-380.12"/>
<polygon fill="blue" stroke="blue" points="246.04,-378.64 238.99,-370.74 239.57,-381.31 246.04,-378.64"/>
</g>
<!-- sg_app&#45;&gt;sg_redis -->
<g id="edge14" class="edge">
<title>sg_app&#45;&gt;sg_redis</title>
<path fill="none" stroke="blue" d="M450.97,-523.6C449.39,-516.39 445.57,-499.36 441.73,-485.22 431.26,-446.72 416.95,-401.78 409.94,-380.2"/>
<polygon fill="blue" stroke="blue" points="413.24,-379.03 406.8,-370.61 406.58,-381.2 413.24,-379.03"/>
</g>
<!-- sg_app&#45;&gt;sg_es -->
<g id="edge15" class="edge">
<title>sg_app&#45;&gt;sg_es</title>
<path fill="none" stroke="blue" d="M451.16,-523.41C450.11,-515.2 448.92,-495.33 459.73,-485.22 539.85,-410.29 625.77,-531.38 704.73,-455.22 724.79,-435.87 723.53,-400.13 721.03,-380.73"/>
<polygon fill="blue" stroke="blue" points="724.46,-380 719.43,-370.67 717.55,-381.1 724.46,-380"/>
</g>
<!-- docker_filebeat -->
<g id="node16" class="node">
<title>docker_filebeat</title>
<ellipse fill="#ffee44" stroke="black" cx="376.73" cy="-528.09" rx="53.07" ry="26.74"/>
<text text-anchor="middle" x="376.73" y="-531.89" font-family="Times,serif" font-size="14.00">Docker:</text>
<text text-anchor="middle" x="376.73" y="-516.89" font-family="Times,serif" font-size="14.00">Filebeat</text>
</g>
<!-- docker_filebeat&#45;&gt;es -->
<g id="edge20" class="edge">
<title>docker_filebeat&#45;&gt;es</title>
<path fill="none" stroke="green" d="M403.37,-504.7C412.56,-497.76 423.21,-490.54 433.73,-485.22 473.62,-465.05 491.68,-478.68 529.73,-455.22 552.76,-441.02 573.93,-419.18 589.38,-400.82"/>
<polygon fill="green" stroke="green" points="592.43,-402.62 596.07,-392.67 587.02,-398.18 592.43,-402.62"/>
</g>
<!-- docker_webapp&#45;&gt;docker_prometheus -->
<g id="edge23" class="edge">
<title>docker_webapp&#45;&gt;docker_prometheus</title>
<path fill="none" stroke="green" d="M289.75,-499.52C297.69,-494.26 306.27,-489.18 314.73,-485.22 359.47,-464.3 382.31,-484.98 421.73,-455.22 473.24,-416.33 448.6,-373.34 497.73,-331.48 569.34,-270.46 674.61,-235.92 740.87,-219.01"/>
<polygon fill="green" stroke="green" points="287.68,-496.69 281.42,-505.24 291.64,-502.47 287.68,-496.69"/>
</g>
<!-- docker_taskman -->
<g id="node18" class="node">
<title>docker_taskman</title>
<ellipse fill="#ffee44" stroke="black" cx="127.73" cy="-528.09" rx="56.64" ry="26.74"/>
<text text-anchor="middle" x="127.73" y="-531.89" font-family="Times,serif" font-size="14.00">Docker:</text>
<text text-anchor="middle" x="127.73" y="-516.89" font-family="Times,serif" font-size="14.00">Taskman</text>
</g>
<!-- docker_prometheus&#45;&gt;ebs_prometheus -->
<g id="edge21" class="edge">
<title>docker_prometheus&#45;&gt;ebs_prometheus</title>
<path fill="none" stroke="green" d="M802.73,-186.52C802.73,-161.24 802.73,-113.31 802.73,-80.03"/>
<polygon fill="green" stroke="green" points="806.23,-79.78 802.73,-69.78 799.23,-79.78 806.23,-79.78"/>
</g>
<!-- docker_grafana&#45;&gt;ebs_grafana -->
<g id="edge22" class="edge">
<title>docker_grafana&#45;&gt;ebs_grafana</title>
<path fill="none" stroke="green" d="M840.6,-348.56C869.05,-321.82 925.05,-269.2 960.6,-235.8"/>
<polygon fill="green" stroke="green" points="963.4,-237.97 968.29,-228.57 958.61,-232.87 963.4,-237.97"/>
</g>
<!-- docker_grafana&#45;&gt;docker_prometheus -->
<g id="edge24" class="edge">
<title>docker_grafana&#45;&gt;docker_prometheus</title>
<path fill="none" stroke="green" d="M820.59,-348.26C817.15,-320.78 810.35,-266.52 806.21,-233.41"/>
<polygon fill="green" stroke="green" points="809.63,-232.55 804.91,-223.07 802.68,-233.42 809.63,-232.55"/>
</g>
</g>
</svg>
