<?xml version="1.0" encoding="UTF-8" standalone="no"?>
<!DOCTYPE svg PUBLIC "-//W3C//DTD SVG 1.1//EN"
 "http://www.w3.org/Graphics/SVG/1.1/DTD/svg11.dtd">
<!-- Generated by graphviz version 2.42.3 (0)
 -->
<!-- Title: %3 Pages: 1 -->
<svg width="1185pt" height="1029pt"
 viewBox="0.00 0.00 1185.00 1028.90" xmlns="http://www.w3.org/2000/svg" xmlns:xlink="http://www.w3.org/1999/xlink">
<g id="graph0" class="graph" transform="scale(1 1) rotate(0) translate(4 1024.9)">
<title>%3</title>
<polygon fill="white" stroke="transparent" points="-4,4 -4,-1024.9 1181,-1024.9 1181,4 -4,4"/>
<g id="clust1" class="cluster">
<title>cluster_AWS</title>
<polygon fill="#eeffdd" stroke="black" points="8,-8 8,-957.9 1169,-957.9 1169,-8 8,-8"/>
<text text-anchor="middle" x="588.5" y="-942.7" font-family="Times,serif" font-size="14.00">AWS</text>
</g>
<g id="clust3" class="cluster">
<title>cluster_VPC</title>
<polygon fill="white" stroke="black" points="16,-124.95 16,-865.16 1161,-865.16 1161,-124.95 16,-124.95"/>
<text text-anchor="middle" x="588.5" y="-849.96" font-family="Times,serif" font-size="14.00">VPC</text>
</g>
<g id="clust4" class="cluster">
<title>cluster_public</title>
<polygon fill="#999999" stroke="black" points="243,-702.42 243,-834.16 1153,-834.16 1153,-702.42 243,-702.42"/>
<text text-anchor="middle" x="698" y="-818.96" font-family="Times,serif" font-size="14.00">Public subnet</text>
</g>
<g id="clust5" class="cluster">
<title>cluster_bastion</title>
<path fill="#ffee44" stroke="red" d="M377,-710.42C377,-710.42 670,-710.42 670,-710.42 676,-710.42 682,-716.42 682,-722.42 682,-722.42 682,-791.16 682,-791.16 682,-797.16 676,-803.16 670,-803.16 670,-803.16 377,-803.16 377,-803.16 371,-803.16 365,-797.16 365,-791.16 365,-791.16 365,-722.42 365,-722.42 365,-716.42 371,-710.42 377,-710.42"/>
<text text-anchor="middle" x="523.5" y="-787.96" font-family="Times,serif" font-size="14.00">EC2: Bastion</text>
</g>
<g id="clust6" class="cluster">
<title>cluster_nat</title>
<path fill="#ffee44" stroke="red" d="M702,-710.42C702,-710.42 1133,-710.42 1133,-710.42 1139,-710.42 1145,-716.42 1145,-722.42 1145,-722.42 1145,-791.16 1145,-791.16 1145,-797.16 1139,-803.16 1133,-803.16 1133,-803.16 702,-803.16 702,-803.16 696,-803.16 690,-797.16 690,-791.16 690,-791.16 690,-722.42 690,-722.42 690,-716.42 696,-710.42 702,-710.42"/>
<text text-anchor="middle" x="917.5" y="-787.96" font-family="Times,serif" font-size="14.00">EC2: NAT</text>
</g>
<g id="clust8" class="cluster">
<title>cluster_private</title>
<polygon fill="#dddddd" stroke="black" points="24,-132.95 24,-680.81 1093,-680.81 1093,-132.95 24,-132.95"/>
<text text-anchor="middle" x="558.5" y="-665.61" font-family="Times,serif" font-size="14.00">Private subnet</text>
</g>
<g id="clust9" class="cluster">
<title>cluster_app</title>
<polygon fill="#ffeeee" stroke="black" points="32,-521.43 32,-614.17 714,-614.17 714,-521.43 32,-521.43"/>
<text text-anchor="middle" x="373" y="-598.97" font-family="Times,serif" font-size="14.00">App ECS Cluster / AGS / EC2s</text>
</g>
<g id="clust10" class="cluster">
<title>cluster_rds</title>
<path fill="#b0e2ff" stroke="black" d="M568,-406.54C568,-406.54 762,-406.54 762,-406.54 768,-406.54 774,-412.54 774,-418.54 774,-418.54 774,-469.54 774,-469.54 774,-475.54 768,-481.54 762,-481.54 762,-481.54 568,-481.54 568,-481.54 562,-481.54 556,-475.54 556,-469.54 556,-469.54 556,-418.54 556,-418.54 556,-412.54 562,-406.54 568,-406.54"/>
<text text-anchor="middle" x="665" y="-466.34" font-family="Times,serif" font-size="14.00">RDS</text>
</g>
<g id="clust11" class="cluster">
<title>cluster_ops</title>
<polygon fill="#ffeeee" stroke="black" points="104,-140.95 104,-366.65 1053,-366.65 1053,-140.95 104,-140.95"/>
<text text-anchor="middle" x="578.5" y="-351.45" font-family="Times,serif" font-size="14.00">Ops ECS Cluster / ASG / EC2s</text>
</g>
<!-- internet -->
<g id="node1" class="node">
<title>internet</title>
<ellipse fill="#aa1111" stroke="black" cx="630" cy="-1002.9" rx="48.99" ry="18"/>
<text text-anchor="middle" x="630" y="-999.2" font-family="Times,serif" font-size="14.00" fill="white">Internet</text>
</g>
<!-- dns_shipreq -->
<g id="node2" class="node">
<title>dns_shipreq</title>
<ellipse fill="#ffee44" stroke="black" cx="303" cy="-900.03" rx="73.58" ry="26.74"/>
<text text-anchor="middle" x="303" y="-903.83" font-family="Times,serif" font-size="14.00">DNS:</text>
<text text-anchor="middle" x="303" y="-888.83" font-family="Times,serif" font-size="14.00">shipreq.com</text>
</g>
<!-- internet&#45;&gt;dns_shipreq -->
<g id="edge2" class="edge">
<title>internet&#45;&gt;dns_shipreq</title>
<path fill="none" stroke="red" d="M583.59,-997.37C536.85,-991.79 463.24,-980.18 403,-957.9 383.22,-950.58 362.74,-939.62 345.51,-929.27"/>
<polygon fill="red" stroke="red" points="347.17,-926.19 336.82,-923.94 343.51,-932.15 347.17,-926.19"/>
</g>
<!-- eip_bastion -->
<g id="node6" class="node">
<title>eip_bastion</title>
<ellipse fill="#ffee44" stroke="black" cx="591" cy="-900.03" rx="50.41" ry="26.74"/>
<text text-anchor="middle" x="591" y="-903.83" font-family="Times,serif" font-size="14.00">EIP:</text>
<text text-anchor="middle" x="591" y="-888.83" font-family="Times,serif" font-size="14.00">Bastion</text>
</g>
<!-- internet&#45;&gt;eip_bastion -->
<g id="edge4" class="edge">
<title>internet&#45;&gt;eip_bastion</title>
<path fill="none" stroke="red" d="M623.38,-984.78C618.22,-971.44 610.89,-952.46 604.5,-935.94"/>
<polygon fill="red" stroke="red" points="607.75,-934.63 600.87,-926.56 601.22,-937.15 607.75,-934.63"/>
</g>
<!-- bastion_out -->
<g id="node10" class="node">
<title>bastion_out</title>
<ellipse fill="blue" stroke="black" cx="670" cy="-745.29" rx="4.32" ry="4.32"/>
</g>
<!-- internet&#45;&gt;bastion_out -->
<g id="edge14" class="edge">
<title>internet&#45;&gt;bastion_out</title>
<path fill="none" stroke="blue" d="M646.98,-976.43C650.17,-970.56 653.1,-964.19 655,-957.9 679.63,-876.46 672.02,-769.69 670.3,-749.62"/>
<polygon fill="blue" stroke="blue" points="643.91,-974.75 641.87,-985.15 649.94,-978.3 643.91,-974.75"/>
</g>
<!-- docker_nat -->
<g id="node14" class="node">
<title>docker_nat</title>
<ellipse fill="#fff8f0" stroke="black" cx="866" cy="-745.29" rx="50.41" ry="26.74"/>
<text text-anchor="middle" x="866" y="-749.09" font-family="Times,serif" font-size="14.00">Docker:</text>
<text text-anchor="middle" x="866" y="-734.09" font-family="Times,serif" font-size="14.00">NAT</text>
</g>
<!-- internet&#45;&gt;docker_nat -->
<g id="edge13" class="edge">
<title>internet&#45;&gt;docker_nat</title>
<path fill="none" stroke="blue" d="M664.32,-982.03C703.01,-958.26 765.85,-915.33 807,-865.16 830.38,-836.65 847.58,-797.34 857.19,-771.87"/>
<polygon fill="blue" stroke="blue" points="662.25,-979.2 655.51,-987.37 665.87,-985.18 662.25,-979.2"/>
</g>
<!-- acm_ssl -->
<g id="node3" class="node">
<title>acm_ssl</title>
<ellipse fill="#ffee44" stroke="black" cx="467" cy="-900.03" rx="55.31" ry="26.74"/>
<text text-anchor="middle" x="467" y="-903.83" font-family="Times,serif" font-size="14.00">ACM:</text>
<text text-anchor="middle" x="467" y="-888.83" font-family="Times,serif" font-size="14.00">SSL cert</text>
</g>
<!-- dns_shipreq&#45;&gt;acm_ssl -->
<g id="edge17" class="edge">
<title>dns_shipreq&#45;&gt;acm_ssl</title>
<path fill="none" stroke="green" d="M376.67,-900.03C384.95,-900.03 393.23,-900.03 401.51,-900.03"/>
<polygon fill="green" stroke="green" points="401.6,-903.53 411.6,-900.03 401.6,-896.53 401.6,-903.53"/>
</g>
<!-- alb_webapp -->
<g id="node8" class="node">
<title>alb_webapp</title>
<ellipse fill="#ffee44" stroke="red" cx="303" cy="-745.29" rx="51.74" ry="26.74"/>
<text text-anchor="middle" x="303" y="-749.09" font-family="Times,serif" font-size="14.00">ALB:</text>
<text text-anchor="middle" x="303" y="-734.09" font-family="Times,serif" font-size="14.00">Webapp</text>
</g>
<!-- dns_shipreq&#45;&gt;alb_webapp -->
<g id="edge3" class="edge">
<title>dns_shipreq&#45;&gt;alb_webapp</title>
<path fill="none" stroke="red" d="M303,-873.12C303,-848.21 303,-810.35 303,-782.47"/>
<polygon fill="red" stroke="red" points="306.5,-782.32 303,-772.32 299.5,-782.32 306.5,-782.32"/>
</g>
<!-- acm_ssl&#45;&gt;alb_webapp -->
<g id="edge18" class="edge">
<title>acm_ssl&#45;&gt;alb_webapp</title>
<path fill="none" stroke="green" d="M411.91,-881.44C386.14,-873.21 361.04,-865.19 361,-865.16 332.69,-840.67 316.92,-799.17 309.19,-772.26"/>
<polygon fill="green" stroke="green" points="411.17,-884.88 421.76,-884.58 413.3,-878.21 411.17,-884.88"/>
</g>
<!-- ebs_prometheus_tech -->
<g id="node4" class="node">
<title>ebs_prometheus_tech</title>
<ellipse fill="#b0e2ff" stroke="black" cx="285" cy="-53.48" rx="72.66" ry="37.45"/>
<text text-anchor="middle" x="285" y="-64.78" font-family="Times,serif" font-size="14.00">EBS:</text>
<text text-anchor="middle" x="285" y="-49.78" font-family="Times,serif" font-size="14.00">Prometheus</text>
<text text-anchor="middle" x="285" y="-34.78" font-family="Times,serif" font-size="14.00">(tech)</text>
</g>
<!-- ebs_prometheus_busi -->
<g id="node5" class="node">
<title>ebs_prometheus_busi</title>
<ellipse fill="#b0e2ff" stroke="black" cx="874" cy="-53.48" rx="72.66" ry="37.45"/>
<text text-anchor="middle" x="874" y="-64.78" font-family="Times,serif" font-size="14.00">EBS:</text>
<text text-anchor="middle" x="874" y="-49.78" font-family="Times,serif" font-size="14.00">Prometheus</text>
<text text-anchor="middle" x="874" y="-34.78" font-family="Times,serif" font-size="14.00">(business)</text>
</g>
<!-- bastion -->
<g id="node9" class="node">
<title>bastion</title>
<ellipse fill="red" stroke="black" cx="377" cy="-745.29" rx="4.32" ry="4.32"/>
</g>
<!-- eip_bastion&#45;&gt;bastion -->
<g id="edge5" class="edge">
<title>eip_bastion&#45;&gt;bastion</title>
<path fill="none" stroke="red" d="M554.89,-881.05C547.17,-877.9 538.95,-875.03 531,-873.16 515.73,-869.55 401.38,-875.96 390,-865.16 375.11,-851.03 375.47,-787.82 376.4,-759.77"/>
<polygon fill="red" stroke="red" points="379.9,-759.79 376.82,-749.66 372.91,-759.5 379.9,-759.79"/>
</g>
<!-- internal_dns -->
<g id="node7" class="node">
<title>internal_dns</title>
<ellipse fill="#ffee44" stroke="black" cx="129" cy="-745.29" rx="104.8" ry="37.45"/>
<text text-anchor="middle" x="129" y="-756.59" font-family="Times,serif" font-size="14.00">Private DNS:</text>
<text text-anchor="middle" x="129" y="-741.59" font-family="Times,serif" font-size="14.00">&lt;env&gt;.sd.internal</text>
<text text-anchor="middle" x="129" y="-726.59" font-family="Times,serif" font-size="14.00">&lt;env&gt;.internal</text>
</g>
<!-- docker_webapp -->
<g id="node24" class="node">
<title>docker_webapp</title>
<ellipse fill="#ffee44" stroke="red" cx="405" cy="-556.3" rx="51.74" ry="26.74"/>
<text text-anchor="middle" x="405" y="-560.1" font-family="Times,serif" font-size="14.00">Docker:</text>
<text text-anchor="middle" x="405" y="-545.1" font-family="Times,serif" font-size="14.00">Webapp</text>
</g>
<!-- alb_webapp&#45;&gt;docker_webapp -->
<g id="edge6" class="edge">
<title>alb_webapp&#45;&gt;docker_webapp</title>
<path fill="none" stroke="red" d="M316.55,-719.27C327.87,-698.37 344.46,-667.81 359,-641.17 367.96,-624.75 377.94,-606.55 386.31,-591.3"/>
<polygon fill="red" stroke="red" points="389.54,-592.69 391.29,-582.24 383.4,-589.32 389.54,-592.69"/>
</g>
<!-- subnet_private_in -->
<g id="node17" class="node">
<title>subnet_private_in</title>
<ellipse fill="red" stroke="black" cx="864" cy="-645.49" rx="4.32" ry="4.32"/>
</g>
<!-- bastion&#45;&gt;subnet_private_in -->
<g id="edge7" class="edge">
<title>bastion&#45;&gt;subnet_private_in</title>
<path fill="none" stroke="red" d="M376.91,-740.55C376.94,-732.23 378.29,-712.15 390,-702.42 462.13,-642.45 777.42,-644.81 849.35,-646.15"/>
<polygon fill="red" stroke="red" points="849.5,-649.66 859.57,-646.37 849.65,-642.66 849.5,-649.66"/>
</g>
<!-- docker_portal -->
<g id="node11" class="node">
<title>docker_portal</title>
<ellipse fill="#fff8f0" stroke="black" cx="464" cy="-745.29" rx="65.11" ry="26.74"/>
<text text-anchor="middle" x="464" y="-749.09" font-family="Times,serif" font-size="14.00">Docker:</text>
<text text-anchor="middle" x="464" y="-734.09" font-family="Times,serif" font-size="14.00">Ops Portal</text>
</g>
<!-- docker_portal&#45;&gt;subnet_private_in -->
<g id="edge8" class="edge">
<title>docker_portal&#45;&gt;subnet_private_in</title>
<path fill="none" stroke="red" stroke-dasharray="5,2" d="M497.46,-722.11C509.76,-714.84 524.1,-707.37 538,-702.42 653.45,-661.27 802.99,-649.86 849.53,-647.2"/>
<polygon fill="red" stroke="red" points="849.83,-650.69 859.63,-646.67 849.46,-643.7 849.83,-650.69"/>
</g>
<!-- docker_filebeatB -->
<g id="node12" class="node">
<title>docker_filebeatB</title>
<ellipse fill="#eecc99" stroke="black" cx="597" cy="-745.29" rx="50.41" ry="26.74"/>
<text text-anchor="middle" x="597" y="-749.09" font-family="Times,serif" font-size="14.00">Docker:</text>
<text text-anchor="middle" x="597" y="-734.09" font-family="Times,serif" font-size="14.00">filebeat</text>
</g>
<!-- es -->
<g id="node20" class="node">
<title>es</title>
<ellipse fill="#b0e2ff" stroke="red" cx="964" cy="-432.54" rx="81.13" ry="26.74"/>
<text text-anchor="middle" x="964" y="-436.34" font-family="Times,serif" font-size="14.00">ElasticSearch</text>
<text text-anchor="middle" x="964" y="-421.34" font-family="Times,serif" font-size="14.00">&amp; Kibana</text>
</g>
<!-- docker_filebeatB&#45;&gt;es -->
<g id="edge29" class="edge">
<title>docker_filebeatB&#45;&gt;es</title>
<path fill="none" stroke="#888888" stroke-dasharray="5,2" d="M622.47,-721.99C632.55,-714.43 644.67,-706.79 657,-702.42 687.97,-691.42 929.05,-704.33 952,-680.81 1006.7,-624.74 989.6,-523.18 975.2,-469.32"/>
<polygon fill="#888888" stroke="#888888" points="978.53,-468.22 972.48,-459.52 971.79,-470.09 978.53,-468.22"/>
</g>
<!-- nat_in -->
<g id="node13" class="node">
<title>nat_in</title>
<ellipse fill="blue" stroke="black" cx="939" cy="-745.29" rx="4.32" ry="4.32"/>
</g>
<!-- subnet_private_out -->
<g id="node18" class="node">
<title>subnet_private_out</title>
<ellipse fill="blue" stroke="black" cx="939" cy="-645.49" rx="4.32" ry="4.32"/>
</g>
<!-- nat_in&#45;&gt;subnet_private_out -->
<g id="edge15" class="edge">
<title>nat_in&#45;&gt;subnet_private_out</title>
<path fill="none" stroke="blue" d="M939,-730.43C939,-707.6 939,-663.28 939,-650.21"/>
<polygon fill="blue" stroke="blue" points="935.5,-730.57 939,-740.57 942.5,-730.57 935.5,-730.57"/>
</g>
<!-- docker_nat&#45;&gt;nat_in -->
<g id="edge16" class="edge">
<title>docker_nat&#45;&gt;nat_in</title>
<path fill="none" stroke="blue" d="M926.57,-745.29C929.19,-745.29 931.81,-745.29 934.42,-745.29"/>
<polygon fill="blue" stroke="blue" points="926.47,-741.79 916.47,-745.29 926.47,-748.79 926.47,-741.79"/>
</g>
<!-- docker_squid_exporter -->
<g id="node16" class="node">
<title>docker_squid_exporter</title>
<ellipse fill="#eecc99" stroke="black" cx="1049" cy="-745.29" rx="87.86" ry="26.74"/>
<text text-anchor="middle" x="1049" y="-749.09" font-family="Times,serif" font-size="14.00">Docker:</text>
<text text-anchor="middle" x="1049" y="-734.09" font-family="Times,serif" font-size="14.00">squid_exporter</text>
</g>
<!-- docker_nat&#45;&gt;docker_squid_exporter -->
<g id="edge27" class="edge">
<title>docker_nat&#45;&gt;docker_squid_exporter</title>
<path fill="none" stroke="#888888" stroke-dasharray="5,2" d="M871.85,-782.21C879.56,-815.71 896.92,-861.07 935,-869.16 987.46,-880.29 1023.29,-811.82 1039.37,-772.14"/>
<polygon fill="#888888" stroke="#888888" points="875.23,-781.31 869.75,-772.24 868.38,-782.75 875.23,-781.31"/>
</g>
<!-- docker_filebeatN -->
<g id="node15" class="node">
<title>docker_filebeatN</title>
<ellipse fill="#eecc99" stroke="black" cx="748" cy="-745.29" rx="50.41" ry="26.74"/>
<text text-anchor="middle" x="748" y="-749.09" font-family="Times,serif" font-size="14.00">Docker:</text>
<text text-anchor="middle" x="748" y="-734.09" font-family="Times,serif" font-size="14.00">filebeat</text>
</g>
<!-- docker_prometheus_tech -->
<g id="node33" class="node">
<title>docker_prometheus_tech</title>
<ellipse fill="#ffee44" stroke="red" cx="285" cy="-186.43" rx="72.66" ry="37.45"/>
<text text-anchor="middle" x="285" y="-197.73" font-family="Times,serif" font-size="14.00">Docker:</text>
<text text-anchor="middle" x="285" y="-182.73" font-family="Times,serif" font-size="14.00">Prometheus</text>
<text text-anchor="middle" x="285" y="-167.73" font-family="Times,serif" font-size="14.00">(tech)</text>
</g>
<!-- docker_squid_exporter&#45;&gt;docker_prometheus_tech -->
<g id="edge31" class="edge">
<title>docker_squid_exporter&#45;&gt;docker_prometheus_tech</title>
<path fill="none" stroke="#888888" stroke-dasharray="5,2" d="M1078.45,-710.92C1085.4,-701.67 1092.18,-691.28 1097,-680.81 1120.49,-629.77 1124,-613.49 1124,-557.3 1124,-557.3 1124,-557.3 1124,-431.54 1124,-363.96 1146.26,-328.17 1097,-281.91 1070.09,-256.63 550.24,-210.01 356.75,-193.45"/>
<polygon fill="#888888" stroke="#888888" points="1075.49,-709.03 1072.08,-719.06 1081,-713.35 1075.49,-709.03"/>
</g>
<!-- subnet_private_in&#45;&gt;es -->
<g id="edge9" class="edge">
<title>subnet_private_in&#45;&gt;es</title>
<path fill="none" stroke="red" stroke-dasharray="5,2" d="M865.57,-641.18C874.74,-621.84 921.78,-522.6 947.37,-468.62"/>
<polygon fill="red" stroke="red" points="950.61,-469.95 951.73,-459.41 944.29,-466.95 950.61,-469.95"/>
</g>
<!-- docker_filebeatA -->
<g id="node21" class="node">
<title>docker_filebeatA</title>
<ellipse fill="#eecc99" stroke="black" cx="656" cy="-556.3" rx="50.41" ry="26.74"/>
<text text-anchor="middle" x="656" y="-560.1" font-family="Times,serif" font-size="14.00">Docker:</text>
<text text-anchor="middle" x="656" y="-545.1" font-family="Times,serif" font-size="14.00">filebeat</text>
</g>
<!-- subnet_private_in&#45;&gt;docker_filebeatA -->
<!-- subnet_private_in&#45;&gt;docker_prometheus_tech -->
<g id="edge11" class="edge">
<title>subnet_private_in&#45;&gt;docker_prometheus_tech</title>
<path fill="none" stroke="red" stroke-dasharray="5,2" d="M867.6,-642.88C890.19,-632.6 1012.58,-573.45 1054,-481.54 1063.11,-461.31 1068.7,-298.52 1054,-281.91 1009.04,-231.08 557.17,-201.68 367.8,-191.51"/>
<polygon fill="red" stroke="red" points="367.79,-188 357.62,-190.97 367.42,-194.99 367.79,-188"/>
</g>
<!-- docker_prometheus_busi -->
<g id="node34" class="node">
<title>docker_prometheus_busi</title>
<ellipse fill="#ffee44" stroke="red" cx="874" cy="-186.43" rx="72.66" ry="37.45"/>
<text text-anchor="middle" x="874" y="-197.73" font-family="Times,serif" font-size="14.00">Docker:</text>
<text text-anchor="middle" x="874" y="-182.73" font-family="Times,serif" font-size="14.00">Prometheus</text>
<text text-anchor="middle" x="874" y="-167.73" font-family="Times,serif" font-size="14.00">(business)</text>
</g>
<!-- subnet_private_in&#45;&gt;docker_prometheus_busi -->
<g id="edge12" class="edge">
<title>subnet_private_in&#45;&gt;docker_prometheus_busi</title>
<path fill="none" stroke="red" stroke-dasharray="5,2" d="M868.34,-644.18C896.72,-642.14 1055.31,-630.03 1069,-614.17 1117.24,-558.27 1108.21,-344.47 1069,-281.91 1043.24,-240.8 993.95,-217.13 951.38,-203.77"/>
<polygon fill="red" stroke="red" points="952.15,-200.35 941.56,-200.83 950.14,-207.05 952.15,-200.35"/>
</g>
<!-- docker_grafana -->
<g id="node35" class="node">
<title>docker_grafana</title>
<ellipse fill="#ffee44" stroke="red" cx="874" cy="-308.78" rx="52.15" ry="26.74"/>
<text text-anchor="middle" x="874" y="-312.58" font-family="Times,serif" font-size="14.00">Docker:</text>
<text text-anchor="middle" x="874" y="-297.58" font-family="Times,serif" font-size="14.00">Grafana</text>
</g>
<!-- subnet_private_in&#45;&gt;docker_grafana -->
<g id="edge10" class="edge">
<title>subnet_private_in&#45;&gt;docker_grafana</title>
<path fill="none" stroke="red" stroke-dasharray="5,2" d="M864.11,-640.73C864.97,-611.96 870.54,-425.68 872.92,-345.92"/>
<polygon fill="red" stroke="red" points="876.42,-345.95 873.22,-335.85 869.42,-345.74 876.42,-345.95"/>
</g>
<!-- redis -->
<g id="node19" class="node">
<title>redis</title>
<ellipse fill="#ffee44" stroke="black" cx="112" cy="-432.54" rx="39.7" ry="38.78"/>
<text text-anchor="middle" x="112" y="-428.84" font-family="Times,serif" font-size="14.00">Redis</text>
</g>
<!-- docker_filebeatO -->
<g id="node28" class="node">
<title>docker_filebeatO</title>
<ellipse fill="#eecc99" stroke="black" cx="995" cy="-308.78" rx="50.41" ry="26.74"/>
<text text-anchor="middle" x="995" y="-312.58" font-family="Times,serif" font-size="14.00">Docker:</text>
<text text-anchor="middle" x="995" y="-297.58" font-family="Times,serif" font-size="14.00">filebeat</text>
</g>
<!-- es&#45;&gt;docker_filebeatO -->
<g id="edge30" class="edge">
<title>es&#45;&gt;docker_filebeatO</title>
<path fill="none" stroke="#888888" stroke-dasharray="5,2" d="M973.11,-395.76C978.02,-376.46 983.98,-353.07 988.44,-335.56"/>
<polygon fill="#888888" stroke="#888888" points="969.65,-395.16 970.57,-405.72 976.43,-396.89 969.65,-395.16"/>
</g>
<!-- docker_filebeatA&#45;&gt;es -->
<g id="edge28" class="edge">
<title>docker_filebeatA&#45;&gt;es</title>
<path fill="none" stroke="#888888" stroke-dasharray="5,2" d="M686.15,-534.71C693.75,-529.99 702.02,-525.25 710,-521.43 769.7,-492.84 841.23,-468.94 893.15,-453.32"/>
<polygon fill="#888888" stroke="#888888" points="894.35,-456.62 902.93,-450.41 892.35,-449.91 894.35,-456.62"/>
</g>
<!-- docker_nodeexpA -->
<g id="node22" class="node">
<title>docker_nodeexpA</title>
<ellipse fill="#eecc99" stroke="black" cx="124" cy="-556.3" rx="84.29" ry="26.74"/>
<text text-anchor="middle" x="124" y="-560.1" font-family="Times,serif" font-size="14.00">Docker:</text>
<text text-anchor="middle" x="124" y="-545.1" font-family="Times,serif" font-size="14.00">node_exporter</text>
</g>
<!-- docker_nodeexpA&#45;&gt;docker_prometheus_tech -->
<g id="edge34" class="edge">
<title>docker_nodeexpA&#45;&gt;docker_prometheus_tech</title>
<path fill="none" stroke="#888888" stroke-dasharray="5,2" d="M82.6,-524.98C69.63,-513.05 56.92,-498.2 50,-481.54 42.54,-463.58 53.92,-283.44 55,-281.91 91.32,-230.26 161.2,-206.79 214.45,-196.16"/>
<polygon fill="#888888" stroke="#888888" points="80.39,-527.7 90.22,-531.66 85,-522.44 80.39,-527.7"/>
</g>
<!-- docker_cadvisorA -->
<g id="node23" class="node">
<title>docker_cadvisorA</title>
<ellipse fill="#eecc99" stroke="black" cx="281" cy="-556.3" rx="54.39" ry="26.74"/>
<text text-anchor="middle" x="281" y="-560.1" font-family="Times,serif" font-size="14.00">Docker:</text>
<text text-anchor="middle" x="281" y="-545.1" font-family="Times,serif" font-size="14.00">cadvisor</text>
</g>
<!-- docker_cadvisorA&#45;&gt;docker_prometheus_tech -->
<g id="edge36" class="edge">
<title>docker_cadvisorA&#45;&gt;docker_prometheus_tech</title>
<path fill="none" stroke="#888888" stroke-dasharray="5,2" d="M237.74,-530.62C230.92,-527.25 223.86,-524.06 217,-521.43 148.98,-495.34 102.81,-538.98 58,-481.54 43.72,-463.23 66.58,-283.87 68,-281.91 102.43,-234.16 166.27,-210.27 215.83,-198.48"/>
<polygon fill="#888888" stroke="#888888" points="236.34,-533.83 246.84,-535.27 239.53,-527.6 236.34,-533.83"/>
</g>
<!-- docker_webapp&#45;&gt;redis -->
<g id="edge20" class="edge">
<title>docker_webapp&#45;&gt;redis</title>
<path fill="none" stroke="green" d="M372.91,-535.23C363.81,-530.17 353.74,-525.13 344,-521.43 268.23,-492.59 238.15,-518.51 166,-481.54 159.01,-477.96 152.22,-473.26 145.93,-468.2"/>
<polygon fill="green" stroke="green" points="148.15,-465.5 138.27,-461.67 143.61,-470.82 148.15,-465.5"/>
</g>
<!-- rds_shipreq -->
<g id="node26" class="node">
<title>rds_shipreq</title>
<ellipse fill="#fff8f0" stroke="black" cx="610" cy="-432.54" rx="46.29" ry="18"/>
<text text-anchor="middle" x="610" y="-428.84" font-family="Times,serif" font-size="14.00">shipreq</text>
</g>
<!-- docker_webapp&#45;&gt;rds_shipreq -->
<g id="edge21" class="edge">
<title>docker_webapp&#45;&gt;rds_shipreq</title>
<path fill="none" stroke="green" d="M438.39,-535.46C476.63,-512.76 538.87,-475.79 576.96,-453.16"/>
<polygon fill="green" stroke="green" points="578.81,-456.13 585.62,-448.02 575.24,-450.11 578.81,-456.13"/>
</g>
<!-- docker_webapp&#45;&gt;docker_prometheus_tech -->
<g id="edge32" class="edge">
<title>docker_webapp&#45;&gt;docker_prometheus_tech</title>
<path fill="none" stroke="#888888" stroke-dasharray="5,2" d="M363.4,-530.35C357.03,-527.07 350.43,-523.98 344,-521.43 276.66,-494.76 236.61,-533.35 186,-481.54 158.01,-452.88 192.73,-423.48 166,-393.65 141.52,-366.33 109.28,-396.53 88,-366.65 66.15,-335.97 67.94,-313.78 88,-281.91 116.19,-237.13 172.15,-213.1 217.25,-200.5"/>
<polygon fill="#888888" stroke="#888888" points="362.05,-533.6 372.52,-535.23 365.36,-527.42 362.05,-533.6"/>
</g>
<!-- docker_taskman -->
<g id="node25" class="node">
<title>docker_taskman</title>
<ellipse fill="#ffee44" stroke="black" cx="531" cy="-556.3" rx="56.64" ry="26.74"/>
<text text-anchor="middle" x="531" y="-560.1" font-family="Times,serif" font-size="14.00">Docker:</text>
<text text-anchor="middle" x="531" y="-545.1" font-family="Times,serif" font-size="14.00">Taskman</text>
</g>
<!-- docker_taskman&#45;&gt;rds_shipreq -->
<g id="edge22" class="edge">
<title>docker_taskman&#45;&gt;rds_shipreq</title>
<path fill="none" stroke="green" d="M547.18,-530.36C560.77,-509.42 580.09,-479.64 593.71,-458.65"/>
<polygon fill="green" stroke="green" points="596.66,-460.53 599.16,-450.24 590.78,-456.72 596.66,-460.53"/>
</g>
<!-- docker_taskman&#45;&gt;docker_prometheus_tech -->
<g id="edge33" class="edge">
<title>docker_taskman&#45;&gt;docker_prometheus_tech</title>
<path fill="none" stroke="#888888" stroke-dasharray="5,2" d="M485.16,-530.98C478.75,-527.71 472.23,-524.45 466,-521.43 341.06,-460.93 310.05,-444.8 181,-393.65 146.9,-380.13 124.28,-396.53 103,-366.65 81.15,-335.97 83.44,-314.09 103,-281.91 128.14,-240.53 177.94,-216.45 219.09,-202.97"/>
<polygon fill="#888888" stroke="#888888" points="483.92,-534.28 494.41,-535.75 487.12,-528.06 483.92,-534.28"/>
</g>
<!-- docker_db_metrics -->
<g id="node32" class="node">
<title>docker_db_metrics</title>
<ellipse fill="#ffee44" stroke="black" cx="700" cy="-308.78" rx="103.89" ry="26.74"/>
<text text-anchor="middle" x="700" y="-312.58" font-family="Times,serif" font-size="14.00">Docker:</text>
<text text-anchor="middle" x="700" y="-297.58" font-family="Times,serif" font-size="14.00">postgres_exporter</text>
</g>
<!-- rds_shipreq&#45;&gt;docker_db_metrics -->
<g id="edge39" class="edge">
<title>rds_shipreq&#45;&gt;docker_db_metrics</title>
<path fill="none" stroke="#888888" stroke-dasharray="5,2" d="M628.09,-407.06C643.5,-386.22 665.56,-356.37 681.17,-335.25"/>
<polygon fill="#888888" stroke="#888888" points="625.27,-404.99 622.14,-415.12 630.9,-409.16 625.27,-404.99"/>
</g>
<!-- rds_grafana -->
<g id="node27" class="node">
<title>rds_grafana</title>
<ellipse fill="#fff8f0" stroke="black" cx="720" cy="-432.54" rx="46.29" ry="18"/>
<text text-anchor="middle" x="720" y="-428.84" font-family="Times,serif" font-size="14.00">grafana</text>
</g>
<!-- rds_grafana&#45;&gt;docker_grafana -->
<g id="edge19" class="edge">
<title>rds_grafana&#45;&gt;docker_grafana</title>
<path fill="none" stroke="green" d="M747.73,-409.84C754.89,-404.43 762.66,-398.72 770,-393.65 788.57,-380.82 795.11,-380.4 813,-366.65 826.31,-356.41 840.09,-343.77 851.17,-333.01"/>
<polygon fill="green" stroke="green" points="745.48,-407.16 739.66,-416.01 749.73,-412.72 745.48,-407.16"/>
</g>
<!-- docker_nodeexpO -->
<g id="node29" class="node">
<title>docker_nodeexpO</title>
<ellipse fill="#eecc99" stroke="black" cx="196" cy="-308.78" rx="84.29" ry="26.74"/>
<text text-anchor="middle" x="196" y="-312.58" font-family="Times,serif" font-size="14.00">Docker:</text>
<text text-anchor="middle" x="196" y="-297.58" font-family="Times,serif" font-size="14.00">node_exporter</text>
</g>
<!-- docker_nodeexpO&#45;&gt;docker_prometheus_tech -->
<g id="edge35" class="edge">
<title>docker_nodeexpO&#45;&gt;docker_prometheus_tech</title>
<path fill="none" stroke="#888888" stroke-dasharray="5,2" d="M220.74,-274.32C232.86,-257.94 247.42,-238.25 259.62,-221.76"/>
<polygon fill="#888888" stroke="#888888" points="217.79,-272.43 214.66,-282.55 223.42,-276.59 217.79,-272.43"/>
</g>
<!-- docker_cadvisorO -->
<g id="node30" class="node">
<title>docker_cadvisorO</title>
<ellipse fill="#eecc99" stroke="black" cx="524" cy="-308.78" rx="54.39" ry="26.74"/>
<text text-anchor="middle" x="524" y="-312.58" font-family="Times,serif" font-size="14.00">Docker:</text>
<text text-anchor="middle" x="524" y="-297.58" font-family="Times,serif" font-size="14.00">cadvisor</text>
</g>
<!-- docker_cadvisorO&#45;&gt;docker_prometheus_tech -->
<g id="edge37" class="edge">
<title>docker_cadvisorO&#45;&gt;docker_prometheus_tech</title>
<path fill="none" stroke="#888888" stroke-dasharray="5,2" d="M477.53,-284.37C436.96,-263.95 378.19,-234.36 336.27,-213.25"/>
<polygon fill="#888888" stroke="#888888" points="476.15,-287.6 486.66,-288.97 479.3,-281.35 476.15,-287.6"/>
</g>
<!-- docker_ecs_exporter -->
<g id="node31" class="node">
<title>docker_ecs_exporter</title>
<ellipse fill="#eecc99" stroke="black" cx="375" cy="-308.78" rx="76.24" ry="26.74"/>
<text text-anchor="middle" x="375" y="-312.58" font-family="Times,serif" font-size="14.00">Docker:</text>
<text text-anchor="middle" x="375" y="-297.58" font-family="Times,serif" font-size="14.00">ecs_exporter</text>
</g>
<!-- docker_ecs_exporter&#45;&gt;docker_prometheus_tech -->
<g id="edge38" class="edge">
<title>docker_ecs_exporter&#45;&gt;docker_prometheus_tech</title>
<path fill="none" stroke="#888888" stroke-dasharray="5,2" d="M349.98,-274.32C337.73,-257.94 323,-238.25 310.67,-221.76"/>
<polygon fill="#888888" stroke="#888888" points="347.34,-276.64 356.13,-282.55 352.95,-272.44 347.34,-276.64"/>
</g>
<!-- docker_db_metrics&#45;&gt;docker_prometheus_busi -->
<g id="edge40" class="edge">
<title>docker_db_metrics&#45;&gt;docker_prometheus_busi</title>
<path fill="none" stroke="#888888" stroke-dasharray="5,2" d="M743.66,-277.58C770.53,-259 804.8,-235.29 831.46,-216.85"/>
<polygon fill="#888888" stroke="#888888" points="741.45,-274.86 735.21,-283.42 745.43,-280.61 741.45,-274.86"/>
</g>
<!-- docker_prometheus_tech&#45;&gt;ebs_prometheus_tech -->
<g id="edge23" class="edge">
<title>docker_prometheus_tech&#45;&gt;ebs_prometheus_tech</title>
<path fill="none" stroke="green" d="M285,-148.95C285,-134.18 285,-116.93 285,-101.25"/>
<polygon fill="green" stroke="green" points="288.5,-101.21 285,-91.21 281.5,-101.21 288.5,-101.21"/>
</g>
<!-- docker_prometheus_busi&#45;&gt;ebs_prometheus_busi -->
<g id="edge24" class="edge">
<title>docker_prometheus_busi&#45;&gt;ebs_prometheus_busi</title>
<path fill="none" stroke="green" d="M874,-148.95C874,-134.18 874,-116.93 874,-101.25"/>
<polygon fill="green" stroke="green" points="877.5,-101.21 874,-91.21 870.5,-101.21 877.5,-101.21"/>
</g>
<!-- docker_grafana&#45;&gt;docker_prometheus_tech -->
<g id="edge25" class="edge">
<title>docker_grafana&#45;&gt;docker_prometheus_tech</title>
<path fill="none" stroke="green" d="M836.08,-290.15C828.55,-287.09 820.61,-284.17 813,-281.91 658.38,-235.92 471.24,-208.91 366.4,-196.25"/>
<polygon fill="green" stroke="green" points="366.55,-192.74 356.2,-195.03 365.72,-199.69 366.55,-192.74"/>
</g>
<!-- docker_grafana&#45;&gt;docker_prometheus_busi -->
<g id="edge26" class="edge">
<title>docker_grafana&#45;&gt;docker_prometheus_busi</title>
<path fill="none" stroke="green" d="M874,-281.66C874,-267.83 874,-250.41 874,-234.32"/>
<polygon fill="green" stroke="green" points="877.5,-233.99 874,-223.99 870.5,-233.99 877.5,-233.99"/>
</g>
</g>
</svg>
