<?xml version="1.0" encoding="UTF-8" standalone="no"?>
<!DOCTYPE svg PUBLIC "-//W3C//DTD SVG 1.1//EN"
 "http://www.w3.org/Graphics/SVG/1.1/DTD/svg11.dtd">
<!-- Generated by graphviz version 2.43.20190912.0211 (20190912.0211)
 -->
<!-- Title: %3 Pages: 1 -->
<svg width="1162pt" height="1061pt"
 viewBox="0.00 0.00 1162.00 1061.49" xmlns="http://www.w3.org/2000/svg" xmlns:xlink="http://www.w3.org/1999/xlink">
<g id="graph0" class="graph" transform="scale(1 1) rotate(0) translate(4 1057.49)">
<title>%3</title>
<polygon fill="white" stroke="transparent" points="-4,4 -4,-1057.49 1158,-1057.49 1158,4 -4,4"/>
<g id="clust1" class="cluster">
<title>cluster_AWS</title>
<polygon fill="#eeffdd" stroke="black" points="8,-8 8,-990.49 1146,-990.49 1146,-8 8,-8"/>
<text text-anchor="middle" x="577" y="-975.29" font-family="Times,serif" font-size="14.00">AWS</text>
</g>
<g id="clust2" class="cluster">
<title>cluster_VPC</title>
<polygon fill="white" stroke="black" points="16,-16 16,-897.75 820,-897.75 820,-16 16,-16"/>
<text text-anchor="middle" x="418" y="-882.55" font-family="Times,serif" font-size="14.00">VPC</text>
</g>
<g id="clust3" class="cluster">
<title>cluster_public</title>
<polygon fill="#999999" stroke="black" points="344,-731.59 344,-866.75 812,-866.75 812,-731.59 344,-731.59"/>
<text text-anchor="middle" x="578" y="-851.55" font-family="Times,serif" font-size="14.00">Public subnet</text>
</g>
<g id="clust4" class="cluster">
<title>cluster_private</title>
<polygon fill="#dddddd" stroke="black" points="24,-24 24,-712.59 812,-712.59 812,-24 24,-24"/>
<text text-anchor="middle" x="418" y="-697.39" font-family="Times,serif" font-size="14.00">Private subnet</text>
</g>
<g id="clust5" class="cluster">
<title>cluster_ecs2_app</title>
<polygon fill="#ffeeee" stroke="black" points="64,-553.21 64,-645.95 752,-645.95 752,-553.21 64,-553.21"/>
<text text-anchor="middle" x="408" y="-630.75" font-family="Times,serif" font-size="14.00">App ECS Cluster / AGS / EC2s</text>
</g>
<g id="clust6" class="cluster">
<title>cluster_rds</title>
<path fill="#b0e2ff" stroke="black" d="M537,-429.12C537,-429.12 731,-429.12 731,-429.12 737,-429.12 743,-435.12 743,-441.12 743,-441.12 743,-492.12 743,-492.12 743,-498.12 737,-504.12 731,-504.12 731,-504.12 537,-504.12 537,-504.12 531,-504.12 525,-498.12 525,-492.12 525,-492.12 525,-441.12 525,-441.12 525,-435.12 531,-429.12 537,-429.12"/>
<text text-anchor="middle" x="634" y="-488.92" font-family="Times,serif" font-size="14.00">RDS</text>
</g>
<g id="clust7" class="cluster">
<title>cluster_ecs2_ops</title>
<polygon fill="#ffeeee" stroke="black" points="338,-32 338,-380.04 772,-380.04 772,-32 338,-32"/>
<text text-anchor="middle" x="555" y="-364.84" font-family="Times,serif" font-size="14.00">Ops ECS Cluster / ASG / EC2s</text>
</g>
<!-- internet -->
<g id="node1" class="node">
<title>internet</title>
<ellipse fill="#aa1111" stroke="black" cx="594" cy="-1035.49" rx="48.99" ry="18"/>
<text text-anchor="middle" x="594" y="-1031.79" font-family="Times,serif" font-size="14.00" fill="white">Internet</text>
</g>
<!-- dns_shipreq -->
<g id="node2" class="node">
<title>dns_shipreq</title>
<ellipse fill="#ffee44" stroke="black" cx="428" cy="-932.62" rx="73.58" ry="26.74"/>
<text text-anchor="middle" x="428" y="-936.42" font-family="Times,serif" font-size="14.00">DNS:</text>
<text text-anchor="middle" x="428" y="-921.42" font-family="Times,serif" font-size="14.00">shipreq.com</text>
</g>
<!-- internet&#45;&gt;dns_shipreq -->
<g id="edge9" class="edge">
<title>internet&#45;&gt;dns_shipreq</title>
<path fill="none" stroke="red" d="M569.86,-1019.83C544.74,-1004.56 504.78,-980.28 473.67,-961.38"/>
<polygon fill="red" stroke="red" points="475.1,-958.15 464.74,-955.95 471.47,-964.13 475.1,-958.15"/>
</g>
<!-- eip_bastion -->
<g id="node5" class="node">
<title>eip_bastion</title>
<ellipse fill="#ffee44" stroke="black" cx="594" cy="-932.62" rx="50.41" ry="26.74"/>
<text text-anchor="middle" x="594" y="-936.42" font-family="Times,serif" font-size="14.00">EIP:</text>
<text text-anchor="middle" x="594" y="-921.42" font-family="Times,serif" font-size="14.00">Bastion</text>
</g>
<!-- internet&#45;&gt;eip_bastion -->
<g id="edge11" class="edge">
<title>internet&#45;&gt;eip_bastion</title>
<path fill="none" stroke="red" d="M594,-1017.38C594,-1004.38 594,-986.03 594,-969.82"/>
<polygon fill="red" stroke="red" points="597.5,-969.55 594,-959.55 590.5,-969.55 597.5,-969.55"/>
</g>
<!-- nat -->
<g id="node9" class="node">
<title>nat</title>
<ellipse fill="#ffee44" stroke="black" cx="768" cy="-787.67" rx="36.12" ry="26.74"/>
<text text-anchor="middle" x="768" y="-791.47" font-family="Times,serif" font-size="14.00">EC2:</text>
<text text-anchor="middle" x="768" y="-776.47" font-family="Times,serif" font-size="14.00">NAT</text>
</g>
<!-- internet&#45;&gt;nat -->
<g id="edge20" class="edge">
<title>internet&#45;&gt;nat</title>
<path fill="none" stroke="blue" d="M646.95,-1024.19C667.84,-1017.69 690.49,-1007.23 706,-990.49 752.21,-940.62 764.01,-857.05 767,-814.81"/>
<polygon fill="blue" stroke="blue" points="645.84,-1020.87 637.2,-1026.99 647.77,-1027.6 645.84,-1020.87"/>
</g>
<!-- elb_webapp -->
<g id="node8" class="node">
<title>elb_webapp</title>
<ellipse fill="#ffee44" stroke="black" cx="404" cy="-787.67" rx="51.74" ry="26.74"/>
<text text-anchor="middle" x="404" y="-791.47" font-family="Times,serif" font-size="14.00">ALB:</text>
<text text-anchor="middle" x="404" y="-776.47" font-family="Times,serif" font-size="14.00">Webapp</text>
</g>
<!-- dns_shipreq&#45;&gt;elb_webapp -->
<g id="edge10" class="edge">
<title>dns_shipreq&#45;&gt;elb_webapp</title>
<path fill="none" stroke="red" d="M423.65,-905.74C419.85,-883.11 414.3,-850.01 410.06,-824.78"/>
<polygon fill="red" stroke="red" points="413.5,-824.13 408.39,-814.85 406.6,-825.29 413.5,-824.13"/>
</g>
<!-- ebs_prometheus_tech -->
<g id="node3" class="node">
<title>ebs_prometheus_tech</title>
<ellipse fill="#b0e2ff" stroke="black" cx="901" cy="-66.87" rx="72.66" ry="37.45"/>
<text text-anchor="middle" x="901" y="-78.17" font-family="Times,serif" font-size="14.00">EBS:</text>
<text text-anchor="middle" x="901" y="-63.17" font-family="Times,serif" font-size="14.00">Prometheus</text>
<text text-anchor="middle" x="901" y="-48.17" font-family="Times,serif" font-size="14.00">(tech)</text>
</g>
<!-- ebs_prometheus_busi -->
<g id="node4" class="node">
<title>ebs_prometheus_busi</title>
<ellipse fill="#b0e2ff" stroke="black" cx="1065" cy="-66.87" rx="72.66" ry="37.45"/>
<text text-anchor="middle" x="1065" y="-78.17" font-family="Times,serif" font-size="14.00">EBS:</text>
<text text-anchor="middle" x="1065" y="-63.17" font-family="Times,serif" font-size="14.00">Prometheus</text>
<text text-anchor="middle" x="1065" y="-48.17" font-family="Times,serif" font-size="14.00">(business)</text>
</g>
<!-- bastion -->
<g id="node10" class="node">
<title>bastion</title>
<ellipse fill="#ffee44" stroke="red" cx="594" cy="-787.67" rx="120.42" ry="48.17"/>
<text text-anchor="middle" x="594" y="-806.47" font-family="Times,serif" font-size="14.00">EC2:</text>
<text text-anchor="middle" x="594" y="-791.47" font-family="Times,serif" font-size="14.00">Bastion</text>
<text text-anchor="middle" x="594" y="-776.47" font-family="Times,serif" font-size="14.00">devops reverse&#45;proxy</text>
<text text-anchor="middle" x="594" y="-761.47" font-family="Times,serif" font-size="14.00">devops portal</text>
</g>
<!-- eip_bastion&#45;&gt;bastion -->
<g id="edge12" class="edge">
<title>eip_bastion&#45;&gt;bastion</title>
<path fill="none" stroke="red" d="M594,-905.74C594,-889 594,-866.55 594,-845.78"/>
<polygon fill="red" stroke="red" points="597.5,-845.76 594,-835.76 590.5,-845.76 597.5,-845.76"/>
</g>
<!-- s3_webapp -->
<g id="node6" class="node">
<title>s3_webapp</title>
<ellipse fill="#ffee44" stroke="black" cx="879" cy="-455.12" rx="50.82" ry="48.17"/>
<text text-anchor="middle" x="879" y="-473.92" font-family="Times,serif" font-size="14.00">S3:</text>
<text text-anchor="middle" x="879" y="-458.92" font-family="Times,serif" font-size="14.00">webapp</text>
<text text-anchor="middle" x="879" y="-443.92" font-family="Times,serif" font-size="14.00">config</text>
<text text-anchor="middle" x="879" y="-428.92" font-family="Times,serif" font-size="14.00">&amp; ssl</text>
</g>
<!-- internal_dns -->
<g id="node7" class="node">
<title>internal_dns</title>
<ellipse fill="#ffee44" stroke="black" cx="180" cy="-787.67" rx="104.8" ry="37.45"/>
<text text-anchor="middle" x="180" y="-798.97" font-family="Times,serif" font-size="14.00">Private DNS:</text>
<text text-anchor="middle" x="180" y="-783.97" font-family="Times,serif" font-size="14.00">&lt;env&gt;.sd.internal</text>
<text text-anchor="middle" x="180" y="-768.97" font-family="Times,serif" font-size="14.00">&lt;env&gt;.internal</text>
</g>
<!-- docker_webapp -->
<g id="node17" class="node">
<title>docker_webapp</title>
<ellipse fill="#ffee44" stroke="black" cx="561" cy="-588.08" rx="51.74" ry="26.74"/>
<text text-anchor="middle" x="561" y="-591.88" font-family="Times,serif" font-size="14.00">Docker:</text>
<text text-anchor="middle" x="561" y="-576.88" font-family="Times,serif" font-size="14.00">Webapp</text>
</g>
<!-- elb_webapp&#45;&gt;docker_webapp -->
<g id="edge13" class="edge">
<title>elb_webapp&#45;&gt;docker_webapp</title>
<path fill="none" stroke="red" d="M420.86,-762.22C437.2,-738.86 462.97,-702.87 487,-672.95 501.29,-655.16 518.05,-636.03 532.01,-620.53"/>
<polygon fill="red" stroke="red" points="534.9,-622.55 539.02,-612.79 529.72,-617.85 534.9,-622.55"/>
</g>
<!-- subnet_private -->
<g id="node11" class="node">
<title>subnet_private</title>
<ellipse fill="blue" stroke="black" cx="687" cy="-677.27" rx="4.32" ry="4.32"/>
</g>
<!-- nat&#45;&gt;subnet_private -->
<g id="edge21" class="edge">
<title>nat&#45;&gt;subnet_private</title>
<path fill="none" stroke="blue" d="M744.99,-755.87C724.7,-728.73 697.18,-691.89 689.23,-681.25"/>
<polygon fill="blue" stroke="blue" points="742.23,-758.03 751.02,-763.95 747.84,-753.84 742.23,-758.03"/>
</g>
<!-- bastion&#45;&gt;subnet_private -->
<g id="edge14" class="edge">
<title>bastion&#45;&gt;subnet_private</title>
<path fill="none" stroke="red" d="M632.36,-741.95C649.1,-722.44 667.3,-701.24 677.89,-688.88"/>
<polygon fill="red" stroke="red" points="680.74,-690.94 684.59,-681.07 675.43,-686.38 680.74,-690.94"/>
</g>
<!-- es -->
<g id="node13" class="node">
<title>es</title>
<ellipse fill="#ffee44" stroke="black" cx="133" cy="-455.12" rx="81.13" ry="26.74"/>
<text text-anchor="middle" x="133" y="-458.92" font-family="Times,serif" font-size="14.00">ElasticSearch</text>
<text text-anchor="middle" x="133" y="-443.92" font-family="Times,serif" font-size="14.00">&amp; Kibana</text>
</g>
<!-- subnet_private&#45;&gt;es -->
<g id="edge15" class="edge">
<title>subnet_private&#45;&gt;es</title>
<path fill="none" stroke="red" stroke-dasharray="5,2" d="M682.49,-676.23C627.26,-675.7 82.84,-669.91 60,-645.95 17.67,-601.52 66.46,-529.92 102.16,-488.53"/>
<polygon fill="red" stroke="red" points="104.88,-490.73 108.87,-480.91 99.63,-486.1 104.88,-490.73"/>
</g>
<!-- subnet_private&#45;&gt;docker_webapp -->
<!-- docker_taskman -->
<g id="node18" class="node">
<title>docker_taskman</title>
<ellipse fill="#ffee44" stroke="black" cx="687" cy="-588.08" rx="56.64" ry="26.74"/>
<text text-anchor="middle" x="687" y="-591.88" font-family="Times,serif" font-size="14.00">Docker:</text>
<text text-anchor="middle" x="687" y="-576.88" font-family="Times,serif" font-size="14.00">Taskman</text>
</g>
<!-- subnet_private&#45;&gt;docker_taskman -->
<!-- docker_cadvisorO -->
<g id="node23" class="node">
<title>docker_cadvisorO</title>
<ellipse fill="#eecc99" stroke="black" cx="401" cy="-66.87" rx="55.31" ry="26.74"/>
<text text-anchor="middle" x="401" y="-70.67" font-family="Times,serif" font-size="14.00">Docker:</text>
<text text-anchor="middle" x="401" y="-55.67" font-family="Times,serif" font-size="14.00">cAdvisor</text>
</g>
<!-- subnet_private&#45;&gt;docker_cadvisorO -->
<g id="edge19" class="edge">
<title>subnet_private&#45;&gt;docker_cadvisorO</title>
<path fill="none" stroke="red" stroke-dasharray="5,2" d="M682.7,-676.23C627.71,-675.75 64.08,-670.27 40,-645.95 -19.4,-585.95 33,-540.55 33,-456.12 33,-456.12 33,-456.12 33,-321.17 33,-173.53 236.48,-105.4 340.82,-80.17"/>
<polygon fill="red" stroke="red" points="341.67,-83.56 350.6,-77.86 340.07,-76.75 341.67,-83.56"/>
</g>
<!-- docker_prometheus_tech -->
<g id="node25" class="node">
<title>docker_prometheus_tech</title>
<ellipse fill="#ffee44" stroke="black" cx="468" cy="-199.82" rx="72.66" ry="37.45"/>
<text text-anchor="middle" x="468" y="-211.12" font-family="Times,serif" font-size="14.00">Docker:</text>
<text text-anchor="middle" x="468" y="-196.12" font-family="Times,serif" font-size="14.00">Prometheus</text>
<text text-anchor="middle" x="468" y="-181.12" font-family="Times,serif" font-size="14.00">(tech)</text>
</g>
<!-- subnet_private&#45;&gt;docker_prometheus_tech -->
<g id="edge17" class="edge">
<title>subnet_private&#45;&gt;docker_prometheus_tech</title>
<path fill="none" stroke="red" stroke-dasharray="5,2" d="M691.43,-676.07C704.91,-675.2 745.64,-670.56 763,-645.95 785.47,-614.1 796.13,-326.67 773,-295.3 765.89,-285.65 629.08,-245.89 541.13,-221.13"/>
<polygon fill="red" stroke="red" points="542.03,-217.75 531.45,-218.41 540.13,-224.48 542.03,-217.75"/>
</g>
<!-- docker_prometheus_busi -->
<g id="node26" class="node">
<title>docker_prometheus_busi</title>
<ellipse fill="#ffee44" stroke="black" cx="681" cy="-199.82" rx="72.66" ry="37.45"/>
<text text-anchor="middle" x="681" y="-211.12" font-family="Times,serif" font-size="14.00">Docker:</text>
<text text-anchor="middle" x="681" y="-196.12" font-family="Times,serif" font-size="14.00">Prometheus</text>
<text text-anchor="middle" x="681" y="-181.12" font-family="Times,serif" font-size="14.00">(business)</text>
</g>
<!-- subnet_private&#45;&gt;docker_prometheus_busi -->
<g id="edge18" class="edge">
<title>subnet_private&#45;&gt;docker_prometheus_busi</title>
<path fill="none" stroke="red" stroke-dasharray="5,2" d="M691.44,-676.58C707.69,-677.44 764.18,-677.97 788,-645.95 811.25,-614.69 804.02,-330.82 788,-295.3 777.03,-270.97 756.35,-250.39 736.07,-234.71"/>
<polygon fill="red" stroke="red" points="738.15,-231.9 728.04,-228.73 733.97,-237.51 738.15,-231.9"/>
</g>
<!-- docker_grafana -->
<g id="node27" class="node">
<title>docker_grafana</title>
<ellipse fill="#ffee44" stroke="black" cx="712" cy="-322.17" rx="52.15" ry="26.74"/>
<text text-anchor="middle" x="712" y="-325.97" font-family="Times,serif" font-size="14.00">Docker:</text>
<text text-anchor="middle" x="712" y="-310.97" font-family="Times,serif" font-size="14.00">Grafana</text>
</g>
<!-- subnet_private&#45;&gt;docker_grafana -->
<g id="edge16" class="edge">
<title>subnet_private&#45;&gt;docker_grafana</title>
<path fill="none" stroke="red" stroke-dasharray="5,2" d="M691.43,-675.91C704.17,-674.62 740.98,-668.96 756,-645.95 769.52,-625.24 753.81,-436.35 747,-407.04 743.1,-390.27 736.17,-372.56 729.5,-357.76"/>
<polygon fill="red" stroke="red" points="732.58,-356.08 725.18,-348.49 726.23,-359.04 732.58,-356.08"/>
</g>
<!-- redis -->
<g id="node12" class="node">
<title>redis</title>
<ellipse fill="#ffee44" stroke="black" cx="450" cy="-455.12" rx="36.29" ry="18"/>
<text text-anchor="middle" x="450" y="-451.42" font-family="Times,serif" font-size="14.00">Redis</text>
</g>
<!-- docker_filebeatO -->
<g id="node21" class="node">
<title>docker_filebeatO</title>
<ellipse fill="#eecc99" stroke="black" cx="527" cy="-66.87" rx="53.07" ry="26.74"/>
<text text-anchor="middle" x="527" y="-70.67" font-family="Times,serif" font-size="14.00">Docker:</text>
<text text-anchor="middle" x="527" y="-55.67" font-family="Times,serif" font-size="14.00">Filebeat</text>
</g>
<!-- es&#45;&gt;docker_filebeatO -->
<g id="edge32" class="edge">
<title>es&#45;&gt;docker_filebeatO</title>
<path fill="none" stroke="#999999" stroke-dasharray="5,2" d="M157.49,-420.4C199.97,-363.25 291.83,-245.51 386,-162.35 419.46,-132.8 462.7,-105.13 492.42,-87.47"/>
<polygon fill="#999999" stroke="#999999" points="154.48,-418.58 151.34,-428.7 160.11,-422.75 154.48,-418.58"/>
</g>
<!-- docker_filebeatA -->
<g id="node14" class="node">
<title>docker_filebeatA</title>
<ellipse fill="#eecc99" stroke="black" cx="125" cy="-588.08" rx="53.07" ry="26.74"/>
<text text-anchor="middle" x="125" y="-591.88" font-family="Times,serif" font-size="14.00">Docker:</text>
<text text-anchor="middle" x="125" y="-576.88" font-family="Times,serif" font-size="14.00">Filebeat</text>
</g>
<!-- docker_filebeatA&#45;&gt;es -->
<g id="edge31" class="edge">
<title>docker_filebeatA&#45;&gt;es</title>
<path fill="none" stroke="#999999" stroke-dasharray="5,2" d="M126.58,-561.2C127.78,-541.6 129.44,-514.42 130.77,-492.61"/>
<polygon fill="#999999" stroke="#999999" points="134.28,-492.58 131.4,-482.39 127.29,-492.16 134.28,-492.58"/>
</g>
<!-- docker_nodeexpA -->
<g id="node15" class="node">
<title>docker_nodeexpA</title>
<ellipse fill="#eecc99" stroke="black" cx="279" cy="-588.08" rx="83.38" ry="26.74"/>
<text text-anchor="middle" x="279" y="-591.88" font-family="Times,serif" font-size="14.00">Docker:</text>
<text text-anchor="middle" x="279" y="-576.88" font-family="Times,serif" font-size="14.00">NodeExporter</text>
</g>
<!-- docker_nodeexpA&#45;&gt;docker_prometheus_tech -->
<g id="edge35" class="edge">
<title>docker_nodeexpA&#45;&gt;docker_prometheus_tech</title>
<path fill="none" stroke="#999999" stroke-dasharray="5,2" d="M294.28,-551.62C300.25,-537.06 306.87,-519.94 312,-504.12 341.54,-413.04 315.89,-377.5 365,-295.3 380.18,-269.89 404.29,-247.24 425.36,-230.49"/>
<polygon fill="#999999" stroke="#999999" points="290.89,-550.66 290.28,-561.24 297.35,-553.35 290.89,-550.66"/>
</g>
<!-- docker_cadvisorA -->
<g id="node16" class="node">
<title>docker_cadvisorA</title>
<ellipse fill="#eecc99" stroke="black" cx="436" cy="-588.08" rx="55.31" ry="26.74"/>
<text text-anchor="middle" x="436" y="-591.88" font-family="Times,serif" font-size="14.00">Docker:</text>
<text text-anchor="middle" x="436" y="-576.88" font-family="Times,serif" font-size="14.00">cAdvisor</text>
</g>
<!-- docker_cadvisorA&#45;&gt;docker_prometheus_tech -->
<g id="edge37" class="edge">
<title>docker_cadvisorA&#45;&gt;docker_prometheus_tech</title>
<path fill="none" stroke="#999999" stroke-dasharray="5,2" d="M412.44,-553.75C403.55,-539.22 394.51,-521.55 390,-504.12 366.75,-414.27 358.6,-382.64 390,-295.3 398.56,-271.48 416.02,-249.39 432.25,-232.57"/>
<polygon fill="#999999" stroke="#999999" points="409.59,-555.79 417.91,-562.36 415.5,-552.04 409.59,-555.79"/>
</g>
<!-- docker_webapp&#45;&gt;s3_webapp -->
<g id="edge25" class="edge">
<title>docker_webapp&#45;&gt;s3_webapp</title>
<path fill="none" stroke="green" d="M593.84,-567.33C602.53,-562.44 612,-557.41 621,-553.21 639.84,-544.41 752.05,-502.8 822.14,-476.99"/>
<polygon fill="green" stroke="green" points="823.56,-480.2 831.74,-473.46 821.14,-473.63 823.56,-480.2"/>
</g>
<!-- docker_webapp&#45;&gt;redis -->
<g id="edge23" class="edge">
<title>docker_webapp&#45;&gt;redis</title>
<path fill="none" stroke="green" d="M540.64,-563.06C520.6,-539.41 490.17,-503.51 470.18,-479.94"/>
<polygon fill="green" stroke="green" points="472.72,-477.52 463.59,-472.15 467.38,-482.04 472.72,-477.52"/>
</g>
<!-- rds_shipreq -->
<g id="node19" class="node">
<title>rds_shipreq</title>
<ellipse fill="#fff8f0" stroke="black" cx="579" cy="-455.12" rx="46.29" ry="18"/>
<text text-anchor="middle" x="579" y="-451.42" font-family="Times,serif" font-size="14.00">shipreq</text>
</g>
<!-- docker_webapp&#45;&gt;rds_shipreq -->
<g id="edge24" class="edge">
<title>docker_webapp&#45;&gt;rds_shipreq</title>
<path fill="none" stroke="green" d="M564.56,-561.2C567.65,-538.68 572.12,-506.15 575.27,-483.26"/>
<polygon fill="green" stroke="green" points="578.76,-483.57 576.65,-473.19 571.82,-482.62 578.76,-483.57"/>
</g>
<!-- docker_webapp&#45;&gt;docker_prometheus_tech -->
<g id="edge33" class="edge">
<title>docker_webapp&#45;&gt;docker_prometheus_tech</title>
<path fill="none" stroke="#999999" stroke-dasharray="5,2" d="M518.19,-562.95C512.11,-559.63 505.91,-556.3 500,-553.21 456.12,-530.28 426.18,-546.14 400,-504.12 375.43,-464.69 395.39,-339.4 410,-295.3 417.08,-273.92 429.81,-252.35 441.53,-235.23"/>
<polygon fill="#999999" stroke="#999999" points="516.52,-566.03 526.97,-567.78 519.89,-559.89 516.52,-566.03"/>
</g>
<!-- docker_taskman&#45;&gt;rds_shipreq -->
<g id="edge26" class="edge">
<title>docker_taskman&#45;&gt;rds_shipreq</title>
<path fill="none" stroke="green" d="M666.94,-562.75C647.51,-539.2 618.23,-503.69 598.87,-480.22"/>
<polygon fill="green" stroke="green" points="601.53,-477.94 592.47,-472.45 596.13,-482.4 601.53,-477.94"/>
</g>
<!-- docker_taskman&#45;&gt;docker_prometheus_tech -->
<g id="edge34" class="edge">
<title>docker_taskman&#45;&gt;docker_prometheus_tech</title>
<path fill="none" stroke="#999999" stroke-dasharray="5,2" d="M640.83,-562.82C634.52,-559.56 628.11,-556.28 622,-553.21 577.42,-530.77 551.83,-543.38 521,-504.12 493.73,-469.4 529.08,-440.25 500,-407.04 476.66,-380.39 445.37,-409.02 425,-380.04 394.46,-336.58 421.61,-274.13 444.47,-235.59"/>
<polygon fill="#999999" stroke="#999999" points="639.48,-566.06 649.97,-567.55 642.7,-559.84 639.48,-566.06"/>
</g>
<!-- docker_db_metrics -->
<g id="node24" class="node">
<title>docker_db_metrics</title>
<ellipse fill="#ffee44" stroke="black" cx="538" cy="-322.17" rx="103.89" ry="26.74"/>
<text text-anchor="middle" x="538" y="-325.97" font-family="Times,serif" font-size="14.00">Docker:</text>
<text text-anchor="middle" x="538" y="-310.97" font-family="Times,serif" font-size="14.00">postgres_exporter</text>
</g>
<!-- rds_shipreq&#45;&gt;docker_db_metrics -->
<g id="edge39" class="edge">
<title>rds_shipreq&#45;&gt;docker_db_metrics</title>
<path fill="none" stroke="#999999" stroke-dasharray="5,2" d="M570.6,-427.28C563.46,-404.48 553.27,-371.95 546.19,-349.34"/>
<polygon fill="#999999" stroke="#999999" points="567.31,-428.51 573.64,-437 573.99,-426.41 567.31,-428.51"/>
</g>
<!-- rds_grafana -->
<g id="node20" class="node">
<title>rds_grafana</title>
<ellipse fill="#fff8f0" stroke="black" cx="689" cy="-455.12" rx="46.29" ry="18"/>
<text text-anchor="middle" x="689" y="-451.42" font-family="Times,serif" font-size="14.00">grafana</text>
</g>
<!-- rds_grafana&#45;&gt;docker_grafana -->
<g id="edge22" class="edge">
<title>rds_grafana&#45;&gt;docker_grafana</title>
<path fill="none" stroke="green" d="M693.77,-426.97C697.77,-404.19 703.45,-371.85 707.4,-349.34"/>
<polygon fill="green" stroke="green" points="690.29,-426.55 692.01,-437 697.18,-427.76 690.29,-426.55"/>
</g>
<!-- docker_nodeexpO -->
<g id="node22" class="node">
<title>docker_nodeexpO</title>
<ellipse fill="#eecc99" stroke="black" cx="681" cy="-66.87" rx="83.38" ry="26.74"/>
<text text-anchor="middle" x="681" y="-70.67" font-family="Times,serif" font-size="14.00">Docker:</text>
<text text-anchor="middle" x="681" y="-55.67" font-family="Times,serif" font-size="14.00">NodeExporter</text>
</g>
<!-- docker_nodeexpO&#45;&gt;docker_prometheus_tech -->
<g id="edge36" class="edge">
<title>docker_nodeexpO&#45;&gt;docker_prometheus_tech</title>
<path fill="none" stroke="#999999" stroke-dasharray="5,2" d="M639.21,-97.08C604.16,-119.5 554.16,-150.21 517.19,-172.01"/>
<polygon fill="#999999" stroke="#999999" points="641.27,-99.92 647.79,-91.57 637.48,-94.04 641.27,-99.92"/>
</g>
<!-- docker_cadvisorO&#45;&gt;docker_prometheus_tech -->
<g id="edge38" class="edge">
<title>docker_cadvisorO&#45;&gt;docker_prometheus_tech</title>
<path fill="none" stroke="#999999" stroke-dasharray="5,2" d="M423.97,-101.11C434.59,-119.91 446.67,-143.44 455.62,-162.69"/>
<polygon fill="#999999" stroke="#999999" points="426.92,-99.21 418.89,-92.3 420.85,-102.71 426.92,-99.21"/>
</g>
<!-- docker_db_metrics&#45;&gt;docker_prometheus_busi -->
<g id="edge40" class="edge">
<title>docker_db_metrics&#45;&gt;docker_prometheus_busi</title>
<path fill="none" stroke="#999999" stroke-dasharray="5,2" d="M575.43,-289.67C596.5,-271.94 622.72,-249.87 643.76,-232.16"/>
<polygon fill="#999999" stroke="#999999" points="573.03,-287.12 567.63,-296.23 577.53,-292.47 573.03,-287.12"/>
</g>
<!-- docker_prometheus_tech&#45;&gt;ebs_prometheus_tech -->
<g id="edge27" class="edge">
<title>docker_prometheus_tech&#45;&gt;ebs_prometheus_tech</title>
<path fill="none" stroke="green" d="M530.04,-180.06C609.1,-156.15 745.52,-114.89 829.06,-89.63"/>
<polygon fill="green" stroke="green" points="830.17,-92.95 838.73,-86.7 828.14,-86.25 830.17,-92.95"/>
</g>
<!-- docker_prometheus_tech&#45;&gt;docker_filebeatO -->
<!-- docker_prometheus_tech&#45;&gt;docker_nodeexpO -->
<!-- docker_prometheus_tech&#45;&gt;docker_cadvisorO -->
<!-- docker_prometheus_busi&#45;&gt;ebs_prometheus_busi -->
<g id="edge28" class="edge">
<title>docker_prometheus_busi&#45;&gt;ebs_prometheus_busi</title>
<path fill="none" stroke="green" d="M744.48,-181.28C806.09,-163.71 901.92,-134.95 983,-104.35 989.27,-101.98 995.74,-99.38 1002.18,-96.69"/>
<polygon fill="green" stroke="green" points="1003.72,-99.84 1011.56,-92.71 1000.98,-93.4 1003.72,-99.84"/>
</g>
<!-- docker_prometheus_busi&#45;&gt;docker_filebeatO -->
<!-- docker_prometheus_busi&#45;&gt;docker_nodeexpO -->
<!-- docker_prometheus_busi&#45;&gt;docker_cadvisorO -->
<!-- docker_grafana&#45;&gt;docker_prometheus_tech -->
<g id="edge29" class="edge">
<title>docker_grafana&#45;&gt;docker_prometheus_tech</title>
<path fill="none" stroke="green" d="M675.21,-303.02C636.52,-283.94 574.99,-253.59 529.01,-230.92"/>
<polygon fill="green" stroke="green" points="530.55,-227.77 520.04,-226.49 527.46,-234.05 530.55,-227.77"/>
</g>
<!-- docker_grafana&#45;&gt;docker_prometheus_busi -->
<g id="edge30" class="edge">
<title>docker_grafana&#45;&gt;docker_prometheus_busi</title>
<path fill="none" stroke="green" d="M705.35,-295.35C701.73,-281.28 697.13,-263.44 692.91,-247.06"/>
<polygon fill="green" stroke="green" points="696.23,-245.91 690.34,-237.1 689.45,-247.66 696.23,-245.91"/>
</g>
</g>
</svg>
