<?xml version="1.0" encoding="UTF-8" standalone="no"?>
<!DOCTYPE svg PUBLIC "-//W3C//DTD SVG 1.1//EN"
 "http://www.w3.org/Graphics/SVG/1.1/DTD/svg11.dtd">
<!-- Generated by graphviz version 2.43.20190912.0211 (20190912.0211)
 -->
<!-- Title: %3 Pages: 1 -->
<svg width="1233pt" height="1116pt"
 viewBox="0.00 0.00 1233.00 1116.42" xmlns="http://www.w3.org/2000/svg" xmlns:xlink="http://www.w3.org/1999/xlink">
<g id="graph0" class="graph" transform="scale(1 1) rotate(0) translate(4 1112.42)">
<title>%3</title>
<polygon fill="white" stroke="transparent" points="-4,4 -4,-1112.42 1229,-1112.42 1229,4 -4,4"/>
<g id="clust1" class="cluster">
<title>cluster_AWS</title>
<polygon fill="#eeffdd" stroke="black" points="8,-8 8,-1045.42 1217,-1045.42 1217,-8 8,-8"/>
<text text-anchor="middle" x="612.5" y="-1030.22" font-family="Times,serif" font-size="14.00">AWS</text>
</g>
<g id="clust3" class="cluster">
<title>cluster_VPC</title>
<polygon fill="white" stroke="black" points="124,-124.95 124,-952.68 1209,-952.68 1209,-124.95 124,-124.95"/>
<text text-anchor="middle" x="666.5" y="-937.48" font-family="Times,serif" font-size="14.00">VPC</text>
</g>
<g id="clust4" class="cluster">
<title>cluster_public</title>
<polygon fill="#999999" stroke="black" points="663,-789.94 663,-921.68 1201,-921.68 1201,-789.94 663,-789.94"/>
<text text-anchor="middle" x="932" y="-906.48" font-family="Times,serif" font-size="14.00">Public subnet</text>
</g>
<g id="clust5" class="cluster">
<title>cluster_bastion</title>
<path fill="#ffee44" stroke="red" d="M887,-797.94C887,-797.94 1181,-797.94 1181,-797.94 1187,-797.94 1193,-803.94 1193,-809.94 1193,-809.94 1193,-878.68 1193,-878.68 1193,-884.68 1187,-890.68 1181,-890.68 1181,-890.68 887,-890.68 887,-890.68 881,-890.68 875,-884.68 875,-878.68 875,-878.68 875,-809.94 875,-809.94 875,-803.94 881,-797.94 887,-797.94"/>
<text text-anchor="middle" x="1034" y="-875.48" font-family="Times,serif" font-size="14.00">EC2: Bastion</text>
</g>
<g id="clust6" class="cluster">
<title>cluster_private</title>
<polygon fill="#dddddd" stroke="black" points="132,-132.95 132,-724.57 1201,-724.57 1201,-132.95 132,-132.95"/>
<text text-anchor="middle" x="666.5" y="-709.37" font-family="Times,serif" font-size="14.00">Private subnet</text>
</g>
<g id="clust7" class="cluster">
<title>cluster_app</title>
<polygon fill="#ffeeee" stroke="black" points="140,-521.43 140,-614.17 822,-614.17 822,-521.43 140,-521.43"/>
<text text-anchor="middle" x="481" y="-598.97" font-family="Times,serif" font-size="14.00">App ECS Cluster / AGS / EC2s</text>
</g>
<g id="clust8" class="cluster">
<title>cluster_rds</title>
<path fill="#b0e2ff" stroke="black" d="M731,-406.54C731,-406.54 925,-406.54 925,-406.54 931,-406.54 937,-412.54 937,-418.54 937,-418.54 937,-469.54 937,-469.54 937,-475.54 931,-481.54 925,-481.54 925,-481.54 731,-481.54 731,-481.54 725,-481.54 719,-475.54 719,-469.54 719,-469.54 719,-418.54 719,-418.54 719,-412.54 725,-406.54 731,-406.54"/>
<text text-anchor="middle" x="828" y="-466.34" font-family="Times,serif" font-size="14.00">RDS</text>
</g>
<g id="clust9" class="cluster">
<title>cluster_ops</title>
<polygon fill="#ffeeee" stroke="black" points="212,-140.95 212,-366.65 1161,-366.65 1161,-140.95 212,-140.95"/>
<text text-anchor="middle" x="686.5" y="-351.45" font-family="Times,serif" font-size="14.00">Ops ECS Cluster / ASG / EC2s</text>
</g>
<!-- internet -->
<g id="node1" class="node">
<title>internet</title>
<ellipse fill="#aa1111" stroke="black" cx="1071" cy="-1090.42" rx="48.99" ry="18"/>
<text text-anchor="middle" x="1071" y="-1086.72" font-family="Times,serif" font-size="14.00" fill="white">Internet</text>
</g>
<!-- dns_shipreq -->
<g id="node2" class="node">
<title>dns_shipreq</title>
<ellipse fill="#ffee44" stroke="black" cx="887" cy="-987.55" rx="73.58" ry="26.74"/>
<text text-anchor="middle" x="887" y="-991.35" font-family="Times,serif" font-size="14.00">DNS:</text>
<text text-anchor="middle" x="887" y="-976.35" font-family="Times,serif" font-size="14.00">shipreq.com</text>
</g>
<!-- internet&#45;&gt;dns_shipreq -->
<g id="edge2" class="edge">
<title>internet&#45;&gt;dns_shipreq</title>
<path fill="none" stroke="red" d="M1039.03,-1076.62C1019.56,-1068.45 994.4,-1057.2 973,-1045.42 957.81,-1037.06 941.79,-1026.88 927.76,-1017.46"/>
<polygon fill="red" stroke="red" points="929.54,-1014.44 919.3,-1011.71 925.61,-1020.23 929.54,-1014.44"/>
</g>
<!-- eip_bastion -->
<g id="node6" class="node">
<title>eip_bastion</title>
<ellipse fill="#ffee44" stroke="black" cx="1032" cy="-987.55" rx="50.41" ry="26.74"/>
<text text-anchor="middle" x="1032" y="-991.35" font-family="Times,serif" font-size="14.00">EIP:</text>
<text text-anchor="middle" x="1032" y="-976.35" font-family="Times,serif" font-size="14.00">Bastion</text>
</g>
<!-- internet&#45;&gt;eip_bastion -->
<g id="edge4" class="edge">
<title>internet&#45;&gt;eip_bastion</title>
<path fill="none" stroke="red" d="M1064.38,-1072.31C1059.22,-1058.97 1051.89,-1039.99 1045.5,-1023.47"/>
<polygon fill="red" stroke="red" points="1048.75,-1022.16 1041.87,-1014.09 1042.22,-1024.68 1048.75,-1022.16"/>
</g>
<!-- nat -->
<g id="node10" class="node">
<title>nat</title>
<ellipse fill="#ffee44" stroke="black" cx="829" cy="-832.81" rx="36.12" ry="26.74"/>
<text text-anchor="middle" x="829" y="-836.61" font-family="Times,serif" font-size="14.00">EC2:</text>
<text text-anchor="middle" x="829" y="-821.61" font-family="Times,serif" font-size="14.00">NAT</text>
</g>
<!-- internet&#45;&gt;nat -->
<g id="edge13" class="edge">
<title>internet&#45;&gt;nat</title>
<path fill="none" stroke="blue" d="M1087.3,-1063.92C1103.53,-1034.96 1122.54,-988.18 1096,-960.68 1078.63,-942.68 891.16,-967.49 871,-952.68 841.8,-931.24 832.8,-887.84 830.09,-859.84"/>
<polygon fill="blue" stroke="blue" points="1084.22,-1062.25 1082.18,-1072.64 1090.26,-1065.78 1084.22,-1062.25"/>
</g>
<!-- bastion_out -->
<g id="node12" class="node">
<title>bastion_out</title>
<ellipse fill="blue" stroke="black" cx="1181" cy="-832.81" rx="4.32" ry="4.32"/>
</g>
<!-- internet&#45;&gt;bastion_out -->
<g id="edge14" class="edge">
<title>internet&#45;&gt;bastion_out</title>
<path fill="none" stroke="blue" d="M1101.29,-1068.16C1109.36,-1061.52 1117.6,-1053.74 1124,-1045.42 1151.71,-1009.42 1154.63,-996.4 1167,-952.68 1179.56,-908.29 1180.86,-851.5 1180.99,-837.2"/>
<polygon fill="blue" stroke="blue" points="1099.06,-1065.47 1093.36,-1074.4 1103.38,-1070.97 1099.06,-1065.47"/>
</g>
<!-- acm_ssl -->
<g id="node3" class="node">
<title>acm_ssl</title>
<ellipse fill="#ffee44" stroke="black" cx="723" cy="-987.55" rx="55.31" ry="26.74"/>
<text text-anchor="middle" x="723" y="-991.35" font-family="Times,serif" font-size="14.00">ACM:</text>
<text text-anchor="middle" x="723" y="-976.35" font-family="Times,serif" font-size="14.00">SSL cert</text>
</g>
<!-- dns_shipreq&#45;&gt;acm_ssl -->
<g id="edge16" class="edge">
<title>dns_shipreq&#45;&gt;acm_ssl</title>
<path fill="none" stroke="green" d="M813.2,-987.55C804.95,-987.55 796.71,-987.55 788.47,-987.55"/>
<polygon fill="green" stroke="green" points="788.41,-984.05 778.41,-987.55 788.41,-991.05 788.41,-984.05"/>
</g>
<!-- alb_webapp -->
<g id="node9" class="node">
<title>alb_webapp</title>
<ellipse fill="#ffee44" stroke="red" cx="723" cy="-832.81" rx="51.74" ry="26.74"/>
<text text-anchor="middle" x="723" y="-836.61" font-family="Times,serif" font-size="14.00">ALB:</text>
<text text-anchor="middle" x="723" y="-821.61" font-family="Times,serif" font-size="14.00">Webapp</text>
</g>
<!-- dns_shipreq&#45;&gt;alb_webapp -->
<g id="edge3" class="edge">
<title>dns_shipreq&#45;&gt;alb_webapp</title>
<path fill="none" stroke="red" d="M823.05,-974.03C809.08,-969.09 795.16,-962.22 784,-952.68 758.51,-930.9 742.36,-895.82 733.13,-869.41"/>
<polygon fill="red" stroke="red" points="736.39,-868.14 729.92,-859.75 729.75,-870.34 736.39,-868.14"/>
</g>
<!-- acm_ssl&#45;&gt;alb_webapp -->
<g id="edge17" class="edge">
<title>acm_ssl&#45;&gt;alb_webapp</title>
<path fill="none" stroke="green" d="M723,-950.51C723,-922.67 723,-884.8 723,-859.85"/>
<polygon fill="green" stroke="green" points="719.5,-950.64 723,-960.64 726.5,-950.64 719.5,-950.64"/>
</g>
<!-- ebs_prometheus_tech -->
<g id="node4" class="node">
<title>ebs_prometheus_tech</title>
<ellipse fill="#b0e2ff" stroke="black" cx="296" cy="-53.48" rx="72.66" ry="37.45"/>
<text text-anchor="middle" x="296" y="-64.78" font-family="Times,serif" font-size="14.00">EBS:</text>
<text text-anchor="middle" x="296" y="-49.78" font-family="Times,serif" font-size="14.00">Prometheus</text>
<text text-anchor="middle" x="296" y="-34.78" font-family="Times,serif" font-size="14.00">(tech)</text>
</g>
<!-- ebs_prometheus_busi -->
<g id="node5" class="node">
<title>ebs_prometheus_busi</title>
<ellipse fill="#b0e2ff" stroke="black" cx="982" cy="-53.48" rx="72.66" ry="37.45"/>
<text text-anchor="middle" x="982" y="-64.78" font-family="Times,serif" font-size="14.00">EBS:</text>
<text text-anchor="middle" x="982" y="-49.78" font-family="Times,serif" font-size="14.00">Prometheus</text>
<text text-anchor="middle" x="982" y="-34.78" font-family="Times,serif" font-size="14.00">(business)</text>
</g>
<!-- bastion -->
<g id="node11" class="node">
<title>bastion</title>
<ellipse fill="red" stroke="black" cx="1035" cy="-832.81" rx="4.32" ry="4.32"/>
</g>
<!-- eip_bastion&#45;&gt;bastion -->
<g id="edge5" class="edge">
<title>eip_bastion&#45;&gt;bastion</title>
<path fill="none" stroke="red" d="M1032.51,-960.64C1033.15,-928.02 1034.23,-873.17 1034.73,-847.65"/>
<polygon fill="red" stroke="red" points="1038.23,-847.54 1034.93,-837.47 1031.23,-847.4 1038.23,-847.54"/>
</g>
<!-- s3_shipreq -->
<g id="node7" class="node">
<title>s3_shipreq</title>
<ellipse fill="#b0e2ff" stroke="black" cx="66" cy="-689.25" rx="50.41" ry="48.17"/>
<text text-anchor="middle" x="66" y="-708.05" font-family="Times,serif" font-size="14.00">S3:</text>
<text text-anchor="middle" x="66" y="-693.05" font-family="Times,serif" font-size="14.00">shipreq</text>
<text text-anchor="middle" x="66" y="-678.05" font-family="Times,serif" font-size="14.00">config</text>
<text text-anchor="middle" x="66" y="-663.05" font-family="Times,serif" font-size="14.00">files</text>
</g>
<!-- docker_webapp -->
<g id="node22" class="node">
<title>docker_webapp</title>
<ellipse fill="#ffee44" stroke="red" cx="644" cy="-556.3" rx="51.74" ry="26.74"/>
<text text-anchor="middle" x="644" y="-560.1" font-family="Times,serif" font-size="14.00">Docker:</text>
<text text-anchor="middle" x="644" y="-545.1" font-family="Times,serif" font-size="14.00">Webapp</text>
</g>
<!-- s3_shipreq&#45;&gt;docker_webapp -->
<g id="edge23" class="edge">
<title>s3_shipreq:e&#45;&gt;docker_webapp</title>
<path fill="none" stroke="green" d="M127.32,-689.17C238.67,-687.45 492.71,-659.28 584,-614.17 599.7,-606.41 614.06,-593.13 624.79,-581.35"/>
<polygon fill="green" stroke="green" points="126.97,-685.67 117,-689.25 127.03,-692.67 126.97,-685.67"/>
</g>
<!-- docker_taskman -->
<g id="node23" class="node">
<title>docker_taskman</title>
<ellipse fill="#ffee44" stroke="black" cx="518" cy="-556.3" rx="56.64" ry="26.74"/>
<text text-anchor="middle" x="518" y="-560.1" font-family="Times,serif" font-size="14.00">Docker:</text>
<text text-anchor="middle" x="518" y="-545.1" font-family="Times,serif" font-size="14.00">Taskman</text>
</g>
<!-- s3_shipreq&#45;&gt;docker_taskman -->
<g id="edge22" class="edge">
<title>s3_shipreq:se&#45;&gt;docker_taskman</title>
<path fill="none" stroke="green" d="M109.06,-646.66C175.43,-601.72 383.15,-644.18 452,-614.17 469.05,-606.73 484.96,-593.32 496.88,-581.38"/>
<polygon fill="green" stroke="green" points="106.52,-644.21 101,-653.25 110.96,-649.63 106.52,-644.21"/>
</g>
<!-- internal_dns -->
<g id="node8" class="node">
<title>internal_dns</title>
<ellipse fill="#ffee44" stroke="black" cx="393" cy="-832.81" rx="104.8" ry="37.45"/>
<text text-anchor="middle" x="393" y="-844.11" font-family="Times,serif" font-size="14.00">Private DNS:</text>
<text text-anchor="middle" x="393" y="-829.11" font-family="Times,serif" font-size="14.00">&lt;env&gt;.sd.internal</text>
<text text-anchor="middle" x="393" y="-814.11" font-family="Times,serif" font-size="14.00">&lt;env&gt;.internal</text>
</g>
<!-- alb_webapp&#45;&gt;docker_webapp -->
<g id="edge6" class="edge">
<title>alb_webapp&#45;&gt;docker_webapp</title>
<path fill="none" stroke="red" d="M711.55,-806.29C703.65,-787.57 693.6,-761.35 688,-737.34 678.24,-695.49 688.4,-682.86 678,-641.17 673.85,-624.54 667.06,-606.85 660.64,-592.02"/>
<polygon fill="red" stroke="red" points="663.77,-590.45 656.5,-582.74 657.38,-593.29 663.77,-590.45"/>
</g>
<!-- subnet_private_out -->
<g id="node16" class="node">
<title>subnet_private_out</title>
<ellipse fill="blue" stroke="black" cx="829" cy="-689.25" rx="4.32" ry="4.32"/>
</g>
<!-- nat&#45;&gt;subnet_private_out -->
<g id="edge15" class="edge">
<title>nat&#45;&gt;subnet_private_out</title>
<path fill="none" stroke="blue" d="M829,-795.73C829,-759.83 829,-708.11 829,-693.95"/>
<polygon fill="blue" stroke="blue" points="825.5,-795.85 829,-805.85 832.5,-795.85 825.5,-795.85"/>
</g>
<!-- subnet_private_in -->
<g id="node15" class="node">
<title>subnet_private_in</title>
<ellipse fill="red" stroke="black" cx="1035" cy="-689.25" rx="4.32" ry="4.32"/>
</g>
<!-- bastion&#45;&gt;subnet_private_in -->
<g id="edge7" class="edge">
<title>bastion&#45;&gt;subnet_private_in</title>
<path fill="none" stroke="red" d="M1035,-828.31C1035,-811.1 1035,-734.98 1035,-703.72"/>
<polygon fill="red" stroke="red" points="1038.5,-703.63 1035,-693.63 1031.5,-703.63 1038.5,-703.63"/>
</g>
<!-- docker_portal -->
<g id="node13" class="node">
<title>docker_portal</title>
<ellipse fill="#fff8f0" stroke="black" cx="948" cy="-832.81" rx="65.11" ry="26.74"/>
<text text-anchor="middle" x="948" y="-836.61" font-family="Times,serif" font-size="14.00">Docker:</text>
<text text-anchor="middle" x="948" y="-821.61" font-family="Times,serif" font-size="14.00">Ops Portal</text>
</g>
<!-- docker_portal&#45;&gt;subnet_private_in -->
<g id="edge8" class="edge">
<title>docker_portal&#45;&gt;subnet_private_in</title>
<path fill="none" stroke="red" stroke-dasharray="5,2" d="M963.55,-806.5C982.54,-775.61 1013.84,-724.68 1027.84,-701.9"/>
<polygon fill="red" stroke="red" points="1030.94,-703.54 1033.2,-693.19 1024.98,-699.87 1030.94,-703.54"/>
</g>
<!-- docker_filebeatB -->
<g id="node14" class="node">
<title>docker_filebeatB</title>
<ellipse fill="#eecc99" stroke="black" cx="1108" cy="-832.81" rx="50.41" ry="26.74"/>
<text text-anchor="middle" x="1108" y="-836.61" font-family="Times,serif" font-size="14.00">Docker:</text>
<text text-anchor="middle" x="1108" y="-821.61" font-family="Times,serif" font-size="14.00">filebeat</text>
</g>
<!-- es -->
<g id="node18" class="node">
<title>es</title>
<ellipse fill="#b0e2ff" stroke="red" cx="1072" cy="-432.54" rx="81.13" ry="26.74"/>
<text text-anchor="middle" x="1072" y="-436.34" font-family="Times,serif" font-size="14.00">ElasticSearch</text>
<text text-anchor="middle" x="1072" y="-421.34" font-family="Times,serif" font-size="14.00">&amp; Kibana</text>
</g>
<!-- docker_filebeatB&#45;&gt;es -->
<g id="edge29" class="edge">
<title>docker_filebeatB&#45;&gt;es</title>
<path fill="none" stroke="#888888" stroke-dasharray="5,2" d="M1105.64,-805.68C1099.39,-736.53 1082.41,-548.67 1075.25,-469.49"/>
<polygon fill="#888888" stroke="#888888" points="1078.73,-469.15 1074.35,-459.51 1071.76,-469.78 1078.73,-469.15"/>
</g>
<!-- subnet_private_in&#45;&gt;es -->
<g id="edge9" class="edge">
<title>subnet_private_in&#45;&gt;es</title>
<path fill="none" stroke="red" stroke-dasharray="5,2" d="M1035.52,-684.65C1038.88,-661.57 1057.51,-533.31 1066.77,-469.54"/>
<polygon fill="red" stroke="red" points="1070.25,-469.92 1068.23,-459.52 1063.32,-468.91 1070.25,-469.92"/>
</g>
<!-- docker_filebeatA -->
<g id="node19" class="node">
<title>docker_filebeatA</title>
<ellipse fill="#eecc99" stroke="black" cx="764" cy="-556.3" rx="50.41" ry="26.74"/>
<text text-anchor="middle" x="764" y="-560.1" font-family="Times,serif" font-size="14.00">Docker:</text>
<text text-anchor="middle" x="764" y="-545.1" font-family="Times,serif" font-size="14.00">filebeat</text>
</g>
<!-- subnet_private_in&#45;&gt;docker_filebeatA -->
<!-- docker_prometheus_tech -->
<g id="node31" class="node">
<title>docker_prometheus_tech</title>
<ellipse fill="#ffee44" stroke="red" cx="296" cy="-186.43" rx="72.66" ry="37.45"/>
<text text-anchor="middle" x="296" y="-197.73" font-family="Times,serif" font-size="14.00">Docker:</text>
<text text-anchor="middle" x="296" y="-182.73" font-family="Times,serif" font-size="14.00">Prometheus</text>
<text text-anchor="middle" x="296" y="-167.73" font-family="Times,serif" font-size="14.00">(tech)</text>
</g>
<!-- subnet_private_in&#45;&gt;docker_prometheus_tech -->
<g id="edge11" class="edge">
<title>subnet_private_in&#45;&gt;docker_prometheus_tech</title>
<path fill="none" stroke="red" stroke-dasharray="5,2" d="M1037.44,-685.62C1052.71,-668.94 1135.42,-575.57 1162,-481.54 1168.03,-460.19 1176.81,-298.42 1162,-281.91 1110.21,-224.16 585.23,-198.29 378.77,-190.3"/>
<polygon fill="red" stroke="red" points="378.71,-186.79 368.59,-189.91 378.44,-193.79 378.71,-186.79"/>
</g>
<!-- docker_prometheus_busi -->
<g id="node32" class="node">
<title>docker_prometheus_busi</title>
<ellipse fill="#ffee44" stroke="red" cx="982" cy="-186.43" rx="72.66" ry="37.45"/>
<text text-anchor="middle" x="982" y="-197.73" font-family="Times,serif" font-size="14.00">Docker:</text>
<text text-anchor="middle" x="982" y="-182.73" font-family="Times,serif" font-size="14.00">Prometheus</text>
<text text-anchor="middle" x="982" y="-167.73" font-family="Times,serif" font-size="14.00">(business)</text>
</g>
<!-- subnet_private_in&#45;&gt;docker_prometheus_busi -->
<g id="edge12" class="edge">
<title>subnet_private_in&#45;&gt;docker_prometheus_busi</title>
<path fill="none" stroke="red" stroke-dasharray="5,2" d="M1039.11,-687.36C1057.6,-683.12 1133.52,-663.11 1165,-614.17 1192.44,-571.51 1182.16,-290.14 1177,-281.91 1151.24,-240.8 1101.95,-217.13 1059.38,-203.77"/>
<polygon fill="red" stroke="red" points="1060.15,-200.35 1049.56,-200.83 1058.14,-207.05 1060.15,-200.35"/>
</g>
<!-- docker_grafana -->
<g id="node33" class="node">
<title>docker_grafana</title>
<ellipse fill="#ffee44" stroke="red" cx="982" cy="-308.78" rx="52.15" ry="26.74"/>
<text text-anchor="middle" x="982" y="-312.58" font-family="Times,serif" font-size="14.00">Docker:</text>
<text text-anchor="middle" x="982" y="-297.58" font-family="Times,serif" font-size="14.00">Grafana</text>
</g>
<!-- subnet_private_in&#45;&gt;docker_grafana -->
<g id="edge10" class="edge">
<title>subnet_private_in&#45;&gt;docker_grafana</title>
<path fill="none" stroke="red" stroke-dasharray="5,2" d="M1033.8,-684.9C1026.95,-665.57 992.67,-566.08 982,-481.54 976.13,-435.02 977.47,-380.85 979.38,-345.98"/>
<polygon fill="red" stroke="red" points="982.88,-345.99 979.98,-335.8 975.9,-345.58 982.88,-345.99"/>
</g>
<!-- redis -->
<g id="node17" class="node">
<title>redis</title>
<ellipse fill="#ffee44" stroke="black" cx="644" cy="-432.54" rx="39.7" ry="38.78"/>
<text text-anchor="middle" x="644" y="-428.84" font-family="Times,serif" font-size="14.00">Redis</text>
</g>
<!-- docker_filebeatO -->
<g id="node26" class="node">
<title>docker_filebeatO</title>
<ellipse fill="#eecc99" stroke="black" cx="1103" cy="-308.78" rx="50.41" ry="26.74"/>
<text text-anchor="middle" x="1103" y="-312.58" font-family="Times,serif" font-size="14.00">Docker:</text>
<text text-anchor="middle" x="1103" y="-297.58" font-family="Times,serif" font-size="14.00">filebeat</text>
</g>
<!-- es&#45;&gt;docker_filebeatO -->
<g id="edge30" class="edge">
<title>es&#45;&gt;docker_filebeatO</title>
<path fill="none" stroke="#888888" stroke-dasharray="5,2" d="M1081.11,-395.76C1086.02,-376.46 1091.98,-353.07 1096.44,-335.56"/>
<polygon fill="#888888" stroke="#888888" points="1077.65,-395.16 1078.57,-405.72 1084.43,-396.89 1077.65,-395.16"/>
</g>
<!-- docker_filebeatA&#45;&gt;es -->
<g id="edge28" class="edge">
<title>docker_filebeatA&#45;&gt;es</title>
<path fill="none" stroke="#888888" stroke-dasharray="5,2" d="M794.1,-534.6C801.7,-529.89 809.98,-525.17 818,-521.43 870.07,-497.11 886.68,-500.29 941,-481.54 963.64,-473.72 988.33,-464.78 1010.11,-456.76"/>
<polygon fill="#888888" stroke="#888888" points="1011.41,-460.01 1019.57,-453.26 1008.98,-453.44 1011.41,-460.01"/>
</g>
<!-- docker_nodeexpA -->
<g id="node20" class="node">
<title>docker_nodeexpA</title>
<ellipse fill="#eecc99" stroke="black" cx="232" cy="-556.3" rx="84.29" ry="26.74"/>
<text text-anchor="middle" x="232" y="-560.1" font-family="Times,serif" font-size="14.00">Docker:</text>
<text text-anchor="middle" x="232" y="-545.1" font-family="Times,serif" font-size="14.00">node_exporter</text>
</g>
<!-- docker_nodeexpA&#45;&gt;docker_prometheus_tech -->
<g id="edge33" class="edge">
<title>docker_nodeexpA&#45;&gt;docker_prometheus_tech</title>
<path fill="none" stroke="#888888" stroke-dasharray="5,2" d="M189.16,-524.89C175.97,-513.02 163.07,-498.24 156,-481.54 121.43,-399.82 114.35,-360.25 156,-281.91 173.55,-248.89 208.34,-225.33 238.85,-209.99"/>
<polygon fill="#888888" stroke="#888888" points="187.05,-527.68 196.92,-531.52 191.6,-522.36 187.05,-527.68"/>
</g>
<!-- docker_cadvisorA -->
<g id="node21" class="node">
<title>docker_cadvisorA</title>
<ellipse fill="#eecc99" stroke="black" cx="389" cy="-556.3" rx="54.39" ry="26.74"/>
<text text-anchor="middle" x="389" y="-560.1" font-family="Times,serif" font-size="14.00">Docker:</text>
<text text-anchor="middle" x="389" y="-545.1" font-family="Times,serif" font-size="14.00">cadvisor</text>
</g>
<!-- docker_cadvisorA&#45;&gt;docker_prometheus_tech -->
<g id="edge35" class="edge">
<title>docker_cadvisorA&#45;&gt;docker_prometheus_tech</title>
<path fill="none" stroke="#888888" stroke-dasharray="5,2" d="M345.7,-530.71C338.89,-527.34 331.84,-524.11 325,-521.43 261.19,-496.37 217.74,-535.92 176,-481.54 148.99,-446.35 156.63,-321.82 176,-281.91 190.36,-252.33 218.96,-229.24 244.64,-213.29"/>
<polygon fill="#888888" stroke="#888888" points="344.3,-533.93 354.79,-535.38 347.49,-527.7 344.3,-533.93"/>
</g>
<!-- docker_webapp&#45;&gt;redis -->
<g id="edge19" class="edge">
<title>docker_webapp&#45;&gt;redis</title>
<path fill="none" stroke="green" d="M644,-529.18C644,-515.42 644,-498.1 644,-482"/>
<polygon fill="green" stroke="green" points="647.5,-481.64 644,-471.64 640.5,-481.64 647.5,-481.64"/>
</g>
<!-- rds_shipreq -->
<g id="node24" class="node">
<title>rds_shipreq</title>
<ellipse fill="#fff8f0" stroke="black" cx="773" cy="-432.54" rx="46.29" ry="18"/>
<text text-anchor="middle" x="773" y="-428.84" font-family="Times,serif" font-size="14.00">shipreq</text>
</g>
<!-- docker_webapp&#45;&gt;rds_shipreq -->
<g id="edge20" class="edge">
<title>docker_webapp&#45;&gt;rds_shipreq</title>
<path fill="none" stroke="green" d="M668.64,-532.46C684.26,-517.93 704.88,-498.7 723,-481.54 731.56,-473.43 740.9,-464.5 749.16,-456.56"/>
<polygon fill="green" stroke="green" points="751.61,-459.05 756.39,-449.6 746.76,-454.01 751.61,-459.05"/>
</g>
<!-- docker_webapp&#45;&gt;docker_prometheus_tech -->
<g id="edge31" class="edge">
<title>docker_webapp&#45;&gt;docker_prometheus_tech</title>
<path fill="none" stroke="#888888" stroke-dasharray="5,2" d="M603.85,-529.72C597.41,-526.48 590.66,-523.56 584,-521.43 503.55,-495.7 262.51,-544.32 206,-481.54 196.06,-470.5 206.77,-292.25 211,-281.91 220.95,-257.61 240.02,-235.49 257.57,-218.77"/>
<polygon fill="#888888" stroke="#888888" points="602.57,-533.01 613.04,-534.65 605.88,-526.84 602.57,-533.01"/>
</g>
<!-- docker_taskman&#45;&gt;rds_shipreq -->
<g id="edge21" class="edge">
<title>docker_taskman&#45;&gt;rds_shipreq</title>
<path fill="none" stroke="green" d="M553.49,-535.15C562.91,-530.27 573.19,-525.34 583,-521.43 643.11,-497.49 666.89,-513.76 723,-481.54 733.98,-475.23 744.37,-466.01 752.82,-457.32"/>
<polygon fill="green" stroke="green" points="755.45,-459.63 759.7,-449.92 750.32,-454.86 755.45,-459.63"/>
</g>
<!-- docker_taskman&#45;&gt;docker_prometheus_tech -->
<g id="edge32" class="edge">
<title>docker_taskman&#45;&gt;docker_prometheus_tech</title>
<path fill="none" stroke="#888888" stroke-dasharray="5,2" d="M474.27,-530.42C467,-527 459.41,-523.84 452,-521.43 397.25,-503.63 233.45,-525.27 196,-481.54 167.15,-447.84 178.44,-322.65 196,-281.91 207.48,-255.26 230.59,-232.62 251.71,-216.19"/>
<polygon fill="#888888" stroke="#888888" points="472.76,-533.58 483.28,-534.86 475.85,-527.3 472.76,-533.58"/>
</g>
<!-- docker_db_metrics -->
<g id="node30" class="node">
<title>docker_db_metrics</title>
<ellipse fill="#ffee44" stroke="black" cx="808" cy="-308.78" rx="103.89" ry="26.74"/>
<text text-anchor="middle" x="808" y="-312.58" font-family="Times,serif" font-size="14.00">Docker:</text>
<text text-anchor="middle" x="808" y="-297.58" font-family="Times,serif" font-size="14.00">postgres_exporter</text>
</g>
<!-- rds_shipreq&#45;&gt;docker_db_metrics -->
<g id="edge38" class="edge">
<title>rds_shipreq&#45;&gt;docker_db_metrics</title>
<path fill="none" stroke="#888888" stroke-dasharray="5,2" d="M780.64,-404.96C786.53,-384.48 794.62,-356.31 800.48,-335.93"/>
<polygon fill="#888888" stroke="#888888" points="777.27,-404.03 777.87,-414.61 783.99,-405.96 777.27,-404.03"/>
</g>
<!-- rds_grafana -->
<g id="node25" class="node">
<title>rds_grafana</title>
<ellipse fill="#fff8f0" stroke="black" cx="883" cy="-432.54" rx="46.29" ry="18"/>
<text text-anchor="middle" x="883" y="-428.84" font-family="Times,serif" font-size="14.00">grafana</text>
</g>
<!-- rds_grafana&#45;&gt;docker_grafana -->
<g id="edge18" class="edge">
<title>rds_grafana&#45;&gt;docker_grafana</title>
<path fill="none" stroke="green" d="M902.81,-407.18C920.12,-385.88 945.13,-355.12 962.39,-333.89"/>
<polygon fill="green" stroke="green" points="899.94,-405.15 896.35,-415.12 905.38,-409.57 899.94,-405.15"/>
</g>
<!-- docker_nodeexpO -->
<g id="node27" class="node">
<title>docker_nodeexpO</title>
<ellipse fill="#eecc99" stroke="black" cx="602" cy="-308.78" rx="84.29" ry="26.74"/>
<text text-anchor="middle" x="602" y="-312.58" font-family="Times,serif" font-size="14.00">Docker:</text>
<text text-anchor="middle" x="602" y="-297.58" font-family="Times,serif" font-size="14.00">node_exporter</text>
</g>
<!-- docker_nodeexpO&#45;&gt;docker_prometheus_tech -->
<g id="edge34" class="edge">
<title>docker_nodeexpO&#45;&gt;docker_prometheus_tech</title>
<path fill="none" stroke="#888888" stroke-dasharray="5,2" d="M540.86,-283.73C486.1,-262.19 406.42,-230.86 352.98,-209.84"/>
<polygon fill="#888888" stroke="#888888" points="539.85,-287.09 550.44,-287.5 542.41,-280.58 539.85,-287.09"/>
</g>
<!-- docker_cadvisorO -->
<g id="node28" class="node">
<title>docker_cadvisorO</title>
<ellipse fill="#eecc99" stroke="black" cx="445" cy="-308.78" rx="54.39" ry="26.74"/>
<text text-anchor="middle" x="445" y="-312.58" font-family="Times,serif" font-size="14.00">Docker:</text>
<text text-anchor="middle" x="445" y="-297.58" font-family="Times,serif" font-size="14.00">cadvisor</text>
</g>
<!-- docker_cadvisorO&#45;&gt;docker_prometheus_tech -->
<g id="edge36" class="edge">
<title>docker_cadvisorO&#45;&gt;docker_prometheus_tech</title>
<path fill="none" stroke="#888888" stroke-dasharray="5,2" d="M409.33,-278.96C386.75,-260.73 357.58,-237.16 334.48,-218.51"/>
<polygon fill="#888888" stroke="#888888" points="407.34,-281.86 417.32,-285.42 411.74,-276.42 407.34,-281.86"/>
</g>
<!-- docker_ecs_exporter -->
<g id="node29" class="node">
<title>docker_ecs_exporter</title>
<ellipse fill="#eecc99" stroke="black" cx="296" cy="-308.78" rx="76.24" ry="26.74"/>
<text text-anchor="middle" x="296" y="-312.58" font-family="Times,serif" font-size="14.00">Docker:</text>
<text text-anchor="middle" x="296" y="-297.58" font-family="Times,serif" font-size="14.00">ecs_exporter</text>
</g>
<!-- docker_ecs_exporter&#45;&gt;docker_prometheus_tech -->
<g id="edge37" class="edge">
<title>docker_ecs_exporter&#45;&gt;docker_prometheus_tech</title>
<path fill="none" stroke="#888888" stroke-dasharray="5,2" d="M296,-271.24C296,-256.26 296,-238.97 296,-223.99"/>
<polygon fill="#888888" stroke="#888888" points="292.5,-271.66 296,-281.66 299.5,-271.66 292.5,-271.66"/>
</g>
<!-- docker_db_metrics&#45;&gt;docker_prometheus_busi -->
<g id="edge39" class="edge">
<title>docker_db_metrics&#45;&gt;docker_prometheus_busi</title>
<path fill="none" stroke="#888888" stroke-dasharray="5,2" d="M851.66,-277.58C878.53,-259 912.8,-235.29 939.46,-216.85"/>
<polygon fill="#888888" stroke="#888888" points="849.45,-274.86 843.21,-283.42 853.43,-280.61 849.45,-274.86"/>
</g>
<!-- docker_prometheus_tech&#45;&gt;ebs_prometheus_tech -->
<g id="edge24" class="edge">
<title>docker_prometheus_tech&#45;&gt;ebs_prometheus_tech</title>
<path fill="none" stroke="green" d="M296,-148.95C296,-134.18 296,-116.93 296,-101.25"/>
<polygon fill="green" stroke="green" points="299.5,-101.21 296,-91.21 292.5,-101.21 299.5,-101.21"/>
</g>
<!-- docker_prometheus_busi&#45;&gt;ebs_prometheus_busi -->
<g id="edge25" class="edge">
<title>docker_prometheus_busi&#45;&gt;ebs_prometheus_busi</title>
<path fill="none" stroke="green" d="M982,-148.95C982,-134.18 982,-116.93 982,-101.25"/>
<polygon fill="green" stroke="green" points="985.5,-101.21 982,-91.21 978.5,-101.21 985.5,-101.21"/>
</g>
<!-- docker_grafana&#45;&gt;docker_prometheus_tech -->
<g id="edge26" class="edge">
<title>docker_grafana&#45;&gt;docker_prometheus_tech</title>
<path fill="none" stroke="green" d="M944.13,-289.99C936.59,-286.94 928.64,-284.07 921,-281.91 730.92,-228.16 499.14,-203.29 378.28,-193.25"/>
<polygon fill="green" stroke="green" points="378.25,-189.74 368,-192.41 377.68,-196.72 378.25,-189.74"/>
</g>
<!-- docker_grafana&#45;&gt;docker_prometheus_busi -->
<g id="edge27" class="edge">
<title>docker_grafana&#45;&gt;docker_prometheus_busi</title>
<path fill="none" stroke="green" d="M982,-281.66C982,-267.83 982,-250.41 982,-234.32"/>
<polygon fill="green" stroke="green" points="985.5,-233.99 982,-223.99 978.5,-233.99 985.5,-233.99"/>
</g>
</g>
</svg>
