<?xml version="1.0" encoding="UTF-8" standalone="no"?>
<!DOCTYPE svg PUBLIC "-//W3C//DTD SVG 1.1//EN"
 "http://www.w3.org/Graphics/SVG/1.1/DTD/svg11.dtd">
<!-- Generated by graphviz version 2.43.20190912.0211 (20190912.0211)
 -->
<!-- Title: %3 Pages: 1 -->
<svg width="985pt" height="1168pt"
 viewBox="0.00 0.00 985.00 1168.29" xmlns="http://www.w3.org/2000/svg" xmlns:xlink="http://www.w3.org/1999/xlink">
<g id="graph0" class="graph" transform="scale(1 1) rotate(0) translate(4 1164.29)">
<title>%3</title>
<polygon fill="white" stroke="transparent" points="-4,4 -4,-1164.29 981,-1164.29 981,4 -4,4"/>
<g id="clust1" class="cluster">
<title>cluster_AWS</title>
<polygon fill="#eeffee" stroke="black" points="8,-8 8,-1047.29 969,-1047.29 969,-8 8,-8"/>
<text text-anchor="middle" x="488.5" y="-1032.09" font-family="Times,serif" font-size="14.00">AWS</text>
</g>
<g id="clust2" class="cluster">
<title>cluster_VPC</title>
<polygon fill="white" stroke="black" points="16,-153.74 16,-916.55 849,-916.55 849,-153.74 16,-153.74"/>
<text text-anchor="middle" x="432.5" y="-901.35" font-family="Times,serif" font-size="14.00">VPC</text>
</g>
<g id="clust3" class="cluster">
<title>cluster_public</title>
<polygon fill="#999999" stroke="black" points="167,-771.6 167,-885.55 556,-885.55 556,-771.6 167,-771.6"/>
<text text-anchor="middle" x="361.5" y="-870.35" font-family="Times,serif" font-size="14.00">Public subnet</text>
</g>
<g id="clust4" class="cluster">
<title>cluster_private_app</title>
<polygon fill="#dddddd" stroke="black" points="24,-340.35 24,-702.6 415,-702.6 415,-340.35 24,-340.35"/>
<text text-anchor="middle" x="219.5" y="-687.4" font-family="Times,serif" font-size="14.00">Private app subnet</text>
</g>
<g id="clust5" class="cluster">
<title>cluster_ecs2_app</title>
<polygon fill="#ffeeee" stroke="black" points="32,-493.22 32,-585.96 407,-585.96 407,-493.22 32,-493.22"/>
<text text-anchor="middle" x="219.5" y="-570.76" font-family="Times,serif" font-size="14.00">App ECS Cluster / AGS / EC2s</text>
</g>
<g id="clust6" class="cluster">
<title>cluster_private_ops</title>
<polygon fill="#dddddd" stroke="black" points="423,-161.74 423,-563.41 841,-563.41 841,-161.74 423,-161.74"/>
<text text-anchor="middle" x="632" y="-548.21" font-family="Times,serif" font-size="14.00">Private ops subnet</text>
</g>
<g id="clust7" class="cluster">
<title>cluster_ecs2_ops</title>
<polygon fill="#ffeeee" stroke="black" points="601,-169.74 601,-424.22 833,-424.22 833,-169.74 601,-169.74"/>
<text text-anchor="middle" x="717" y="-409.02" font-family="Times,serif" font-size="14.00">Ops ECS Cluster / ASG / EC2s</text>
</g>
<!-- internet -->
<g id="node1" class="node">
<title>internet</title>
<ellipse fill="#aa1111" stroke="black" cx="377" cy="-1142.29" rx="48.99" ry="18"/>
<text text-anchor="middle" x="377" y="-1138.59" font-family="Times,serif" font-size="14.00" fill="white">Internet</text>
</g>
<!-- dns_shipreq -->
<g id="node2" class="node">
<title>dns_shipreq</title>
<ellipse fill="#ffee44" stroke="black" cx="231" cy="-989.42" rx="73.58" ry="26.74"/>
<text text-anchor="middle" x="231" y="-993.22" font-family="Times,serif" font-size="14.00">DNS:</text>
<text text-anchor="middle" x="231" y="-978.22" font-family="Times,serif" font-size="14.00">shipreq.com</text>
</g>
<!-- internet&#45;&gt;dns_shipreq -->
<g id="edge5" class="edge">
<title>internet&#45;&gt;dns_shipreq</title>
<path fill="none" stroke="red" d="M361.38,-1125.15C337.68,-1100.66 292.18,-1053.64 261.7,-1022.15"/>
<polygon fill="red" stroke="red" points="264.15,-1019.65 254.68,-1014.89 259.12,-1024.51 264.15,-1019.65"/>
</g>
<!-- eip_bastion -->
<g id="node5" class="node">
<title>eip_bastion</title>
<ellipse fill="#ffee44" stroke="black" cx="377" cy="-989.42" rx="50.41" ry="26.74"/>
<text text-anchor="middle" x="377" y="-993.22" font-family="Times,serif" font-size="14.00">EIP:</text>
<text text-anchor="middle" x="377" y="-978.22" font-family="Times,serif" font-size="14.00">Bastion</text>
</g>
<!-- internet&#45;&gt;eip_bastion -->
<g id="edge7" class="edge">
<title>internet&#45;&gt;eip_bastion</title>
<path fill="none" stroke="red" d="M377,-1124.28C377,-1100.77 377,-1057.76 377,-1026.83"/>
<polygon fill="red" stroke="red" points="380.5,-1026.45 377,-1016.45 373.5,-1026.45 380.5,-1026.45"/>
</g>
<!-- nat -->
<g id="node7" class="node">
<title>nat</title>
<ellipse fill="#ffee44" stroke="black" cx="512" cy="-817.08" rx="36.12" ry="26.74"/>
<text text-anchor="middle" x="512" y="-820.88" font-family="Times,serif" font-size="14.00">EC2:</text>
<text text-anchor="middle" x="512" y="-805.88" font-family="Times,serif" font-size="14.00">NAT</text>
</g>
<!-- internet&#45;&gt;nat -->
<g id="edge12" class="edge">
<title>internet&#45;&gt;nat</title>
<path fill="none" stroke="blue" d="M406.13,-1119.45C426.97,-1102.2 453.92,-1076.26 469,-1047.29 504.06,-979.96 510.83,-888.3 511.94,-844.07"/>
<polygon fill="blue" stroke="blue" points="403.78,-1116.85 398.19,-1125.85 408.17,-1122.3 403.78,-1116.85"/>
</g>
<!-- elb_webapp -->
<g id="node6" class="node">
<title>elb_webapp</title>
<ellipse fill="#ffee44" stroke="black" cx="227" cy="-817.08" rx="51.74" ry="26.74"/>
<text text-anchor="middle" x="227" y="-820.88" font-family="Times,serif" font-size="14.00">ALB:</text>
<text text-anchor="middle" x="227" y="-805.88" font-family="Times,serif" font-size="14.00">Webapp</text>
</g>
<!-- dns_shipreq&#45;&gt;elb_webapp -->
<g id="edge6" class="edge">
<title>dns_shipreq&#45;&gt;elb_webapp</title>
<path fill="none" stroke="red" d="M230.39,-962.55C229.71,-933.66 228.61,-886.7 227.85,-854.2"/>
<polygon fill="red" stroke="red" points="231.35,-854.11 227.61,-844.19 224.35,-854.27 231.35,-854.11"/>
</g>
<!-- ebs_prometheus -->
<g id="node3" class="node">
<title>ebs_prometheus</title>
<ellipse fill="#ffee44" stroke="black" cx="682" cy="-42.87" rx="72.66" ry="26.74"/>
<text text-anchor="middle" x="682" y="-46.67" font-family="Times,serif" font-size="14.00">EBS:</text>
<text text-anchor="middle" x="682" y="-31.67" font-family="Times,serif" font-size="14.00">Prometheus</text>
</g>
<!-- ebs_grafana -->
<g id="node4" class="node">
<title>ebs_grafana</title>
<ellipse fill="#ffee44" stroke="black" cx="909" cy="-204.61" rx="52.15" ry="26.74"/>
<text text-anchor="middle" x="909" y="-208.41" font-family="Times,serif" font-size="14.00">EBS:</text>
<text text-anchor="middle" x="909" y="-193.41" font-family="Times,serif" font-size="14.00">Grafana</text>
</g>
<!-- bastion -->
<g id="node8" class="node">
<title>bastion</title>
<ellipse fill="#ffee44" stroke="red" cx="377" cy="-817.08" rx="80.72" ry="37.45"/>
<text text-anchor="middle" x="377" y="-828.38" font-family="Times,serif" font-size="14.00">EC2:</text>
<text text-anchor="middle" x="377" y="-813.38" font-family="Times,serif" font-size="14.00">Bastion &amp;</text>
<text text-anchor="middle" x="377" y="-798.38" font-family="Times,serif" font-size="14.00">devops portal</text>
</g>
<!-- eip_bastion&#45;&gt;bastion -->
<g id="edge8" class="edge">
<title>eip_bastion&#45;&gt;bastion</title>
<path fill="none" stroke="red" d="M377,-962.55C377,-936.71 377,-896.42 377,-864.94"/>
<polygon fill="red" stroke="red" points="380.5,-864.64 377,-854.64 373.5,-864.64 380.5,-864.64"/>
</g>
<!-- docker_webapp -->
<g id="node13" class="node">
<title>docker_webapp</title>
<ellipse fill="#ffee44" stroke="black" cx="223" cy="-528.09" rx="51.74" ry="26.74"/>
<text text-anchor="middle" x="223" y="-531.89" font-family="Times,serif" font-size="14.00">Docker:</text>
<text text-anchor="middle" x="223" y="-516.89" font-family="Times,serif" font-size="14.00">Webapp</text>
</g>
<!-- elb_webapp&#45;&gt;docker_webapp -->
<g id="edge9" class="edge">
<title>elb_webapp&#45;&gt;docker_webapp</title>
<path fill="none" stroke="red" d="M226.64,-790.1C225.92,-738.8 224.33,-624.34 223.51,-565.52"/>
<polygon fill="red" stroke="red" points="227,-565.16 223.36,-555.21 220,-565.26 227,-565.16"/>
</g>
<!-- subnet_private_app -->
<g id="node9" class="node">
<title>subnet_private_app</title>
<ellipse fill="blue" stroke="black" cx="390" cy="-667.28" rx="4.32" ry="4.32"/>
</g>
<!-- nat&#45;&gt;subnet_private_app -->
<g id="edge13" class="edge">
<title>nat&#45;&gt;subnet_private_app</title>
<path fill="none" stroke="blue" d="M487.07,-785.87C455.53,-747.67 403.92,-685.15 392.35,-671.13"/>
<polygon fill="blue" stroke="blue" points="484.41,-788.15 493.47,-793.63 489.8,-783.69 484.41,-788.15"/>
</g>
<!-- subnet_private_ops -->
<g id="node15" class="node">
<title>subnet_private_ops</title>
<ellipse fill="blue" stroke="black" cx="512" cy="-528.09" rx="4.32" ry="4.32"/>
</g>
<!-- nat&#45;&gt;subnet_private_ops -->
<g id="edge14" class="edge">
<title>nat&#45;&gt;subnet_private_ops</title>
<path fill="none" stroke="blue" d="M512,-779.86C512,-709.02 512,-556.85 512,-532.43"/>
<polygon fill="blue" stroke="blue" points="508.5,-780.1 512,-790.1 515.5,-780.1 508.5,-780.1"/>
</g>
<!-- bastion&#45;&gt;subnet_private_app -->
<g id="edge10" class="edge">
<title>bastion&#45;&gt;subnet_private_app</title>
<path fill="none" stroke="red" d="M380.21,-779.54C383,-747.82 386.89,-703.62 388.82,-681.7"/>
<polygon fill="red" stroke="red" points="392.31,-681.91 389.7,-671.64 385.34,-681.29 392.31,-681.91"/>
</g>
<!-- bastion&#45;&gt;subnet_private_ops -->
<g id="edge11" class="edge">
<title>bastion&#45;&gt;subnet_private_ops</title>
<path fill="none" stroke="red" d="M393.82,-780.31C424.13,-715.9 486.53,-583.23 506.04,-541.76"/>
<polygon fill="red" stroke="red" points="509.33,-543 510.42,-532.46 502.99,-540.02 509.33,-543"/>
</g>
<!-- docker_taskman -->
<g id="node14" class="node">
<title>docker_taskman</title>
<ellipse fill="#ffee44" stroke="black" cx="97" cy="-528.09" rx="56.64" ry="26.74"/>
<text text-anchor="middle" x="97" y="-531.89" font-family="Times,serif" font-size="14.00">Docker:</text>
<text text-anchor="middle" x="97" y="-516.89" font-family="Times,serif" font-size="14.00">Taskman</text>
</g>
<!-- subnet_private_app&#45;&gt;docker_taskman -->
<!-- es -->
<g id="node16" class="node">
<title>es</title>
<ellipse fill="#ffee44" stroke="black" cx="512" cy="-366.35" rx="81.13" ry="26.74"/>
<text text-anchor="middle" x="512" y="-370.15" font-family="Times,serif" font-size="14.00">ElasticSearch</text>
<text text-anchor="middle" x="512" y="-355.15" font-family="Times,serif" font-size="14.00">&amp; Kibana</text>
</g>
<!-- subnet_private_app&#45;&gt;es -->
<!-- rds -->
<g id="node10" class="node">
<title>rds</title>
<ellipse fill="#ffee44" stroke="black" cx="213" cy="-366.35" rx="31.4" ry="18"/>
<text text-anchor="middle" x="213" y="-362.65" font-family="Times,serif" font-size="14.00">RDS</text>
</g>
<!-- redis -->
<g id="node11" class="node">
<title>redis</title>
<ellipse fill="#ffee44" stroke="black" cx="107" cy="-366.35" rx="36.29" ry="18"/>
<text text-anchor="middle" x="107" y="-362.65" font-family="Times,serif" font-size="14.00">Redis</text>
</g>
<!-- docker_filebeat -->
<g id="node12" class="node">
<title>docker_filebeat</title>
<ellipse fill="#ffee44" stroke="black" cx="346" cy="-528.09" rx="53.07" ry="26.74"/>
<text text-anchor="middle" x="346" y="-531.89" font-family="Times,serif" font-size="14.00">Docker:</text>
<text text-anchor="middle" x="346" y="-516.89" font-family="Times,serif" font-size="14.00">Filebeat</text>
</g>
<!-- docker_filebeat&#45;&gt;es -->
<g id="edge15" class="edge">
<title>docker_filebeat&#45;&gt;es</title>
<path fill="none" stroke="green" d="M370.14,-503.86C398.86,-476.23 446.95,-429.95 479.07,-399.04"/>
<polygon fill="green" stroke="green" points="481.69,-401.37 486.47,-391.92 476.84,-396.33 481.69,-401.37"/>
</g>
<!-- docker_webapp&#45;&gt;rds -->
<g id="edge21" class="edge">
<title>docker_webapp&#45;&gt;rds</title>
<path fill="none" stroke="green" d="M221.37,-501.07C219.54,-471.78 216.57,-424.4 214.71,-394.61"/>
<polygon fill="green" stroke="green" points="218.19,-394.26 214.07,-384.5 211.21,-394.7 218.19,-394.26"/>
</g>
<!-- docker_webapp&#45;&gt;redis -->
<g id="edge20" class="edge">
<title>docker_webapp&#45;&gt;redis</title>
<path fill="none" stroke="green" d="M205.38,-502.83C183.58,-472.8 146.65,-421.96 124.78,-391.83"/>
<polygon fill="green" stroke="green" points="127.47,-389.59 118.77,-383.55 121.81,-393.7 127.47,-389.59"/>
</g>
<!-- docker_prometheus -->
<g id="node17" class="node">
<title>docker_prometheus</title>
<ellipse fill="#ffee44" stroke="black" cx="682" cy="-204.61" rx="72.66" ry="26.74"/>
<text text-anchor="middle" x="682" y="-208.41" font-family="Times,serif" font-size="14.00">Docker:</text>
<text text-anchor="middle" x="682" y="-193.41" font-family="Times,serif" font-size="14.00">Prometheus</text>
</g>
<!-- docker_webapp&#45;&gt;docker_prometheus -->
<g id="edge18" class="edge">
<title>docker_webapp&#45;&gt;docker_prometheus</title>
<path fill="none" stroke="green" d="M256.59,-497.85C279.59,-477.57 310.58,-449.73 337,-424.22 374.7,-387.81 376.85,-370.62 419,-339.48 487.61,-288.79 578.22,-247.41 633.2,-224.67"/>
<polygon fill="green" stroke="green" points="254.01,-495.46 248.81,-504.69 258.63,-500.72 254.01,-495.46"/>
</g>
<!-- docker_taskman&#45;&gt;rds -->
<g id="edge23" class="edge">
<title>docker_taskman&#45;&gt;rds</title>
<path fill="none" stroke="green" d="M114.87,-502.48C136.74,-472.37 173.52,-421.71 195.31,-391.72"/>
<polygon fill="green" stroke="green" points="198.25,-393.62 201.29,-383.48 192.58,-389.51 198.25,-393.62"/>
</g>
<!-- docker_taskman&#45;&gt;redis -->
<g id="edge22" class="edge">
<title>docker_taskman&#45;&gt;redis</title>
<path fill="none" stroke="green" d="M98.63,-501.07C100.46,-471.78 103.43,-424.4 105.29,-394.61"/>
<polygon fill="green" stroke="green" points="108.79,-394.7 105.93,-384.5 101.81,-394.26 108.79,-394.7"/>
</g>
<!-- subnet_private_ops&#45;&gt;es -->
<!-- docker_grafana -->
<g id="node18" class="node">
<title>docker_grafana</title>
<ellipse fill="#ffee44" stroke="black" cx="682" cy="-366.35" rx="52.15" ry="26.74"/>
<text text-anchor="middle" x="682" y="-370.15" font-family="Times,serif" font-size="14.00">Docker:</text>
<text text-anchor="middle" x="682" y="-355.15" font-family="Times,serif" font-size="14.00">Grafana</text>
</g>
<!-- subnet_private_ops&#45;&gt;docker_grafana -->
<!-- docker_prometheus&#45;&gt;ebs_prometheus -->
<g id="edge16" class="edge">
<title>docker_prometheus&#45;&gt;ebs_prometheus</title>
<path fill="none" stroke="green" d="M682,-177.59C682,-151.13 682,-109.92 682,-80.24"/>
<polygon fill="green" stroke="green" points="685.5,-79.88 682,-69.88 678.5,-79.88 685.5,-79.88"/>
</g>
<!-- docker_grafana&#45;&gt;ebs_grafana -->
<g id="edge17" class="edge">
<title>docker_grafana&#45;&gt;ebs_grafana</title>
<path fill="none" stroke="green" d="M712.14,-344.14C752.93,-315.44 825.73,-264.21 870.45,-232.74"/>
<polygon fill="green" stroke="green" points="872.57,-235.53 878.73,-226.91 868.54,-229.8 872.57,-235.53"/>
</g>
<!-- docker_grafana&#45;&gt;docker_prometheus -->
<g id="edge19" class="edge">
<title>docker_grafana&#45;&gt;docker_prometheus</title>
<path fill="none" stroke="green" d="M682,-339.33C682,-312.87 682,-271.66 682,-241.98"/>
<polygon fill="green" stroke="green" points="685.5,-241.62 682,-231.62 678.5,-241.62 685.5,-241.62"/>
</g>
</g>
</svg>
