<?xml version="1.0" encoding="UTF-8" standalone="no"?>
<!DOCTYPE svg PUBLIC "-//W3C//DTD SVG 1.1//EN"
 "http://www.w3.org/Graphics/SVG/1.1/DTD/svg11.dtd">
<!-- Generated by graphviz version 2.38.0 (20140413.2041)
 -->
<!-- Title: D Pages: 1 -->
<svg width="571pt" height="923pt"
 viewBox="0.00 0.00 571.25 922.71" xmlns="http://www.w3.org/2000/svg" xmlns:xlink="http://www.w3.org/1999/xlink">
<g id="graph0" class="graph" transform="scale(1 1) rotate(0) translate(4 918.715)">
<title>D</title>
<polygon fill="white" stroke="none" points="-4,4 -4,-918.715 567.246,-918.715 567.246,4 -4,4"/>
<!-- FieldSpec -->
<g id="node1" class="node"><title>FieldSpec</title>
<ellipse fill="none" stroke="black" cx="251.246" cy="-800.845" rx="57.0522" ry="26.7407"/>
<text text-anchor="middle" x="251.246" y="-804.645" font-family="Times,serif" font-size="14.00">FieldSpec</text>
<text text-anchor="middle" x="251.246" y="-789.645" font-family="Times,serif" font-size="14.00">[P,V,I,C,O]</text>
</g>
<!-- TableSpecBuilder -->
<g id="node2" class="node"><title>TableSpecBuilder</title>
<ellipse fill="none" stroke="black" cx="242.246" cy="-696.105" rx="84.2917" ry="26.7407"/>
<text text-anchor="middle" x="242.246" y="-699.905" font-family="Times,serif" font-size="14.00">TableSpecBuilderⁿ</text>
<text text-anchor="middle" x="242.246" y="-684.905" font-family="Times,serif" font-size="14.00">[P,U,V,Iₙ,Cₙ,Oₙ]</text>
</g>
<!-- FieldSpec&#45;&gt;TableSpecBuilder -->
<g id="edge1" class="edge"><title>FieldSpec&#45;&gt;TableSpecBuilder</title>
<path fill="none" stroke="black" d="M248.975,-773.919C247.899,-761.63 246.594,-746.741 245.422,-733.356"/>
<polygon fill="black" stroke="black" points="248.876,-732.678 244.517,-723.022 241.903,-733.289 248.876,-732.678"/>
<text text-anchor="middle" x="281.246" y="-744.775" font-family="Times,serif" font-size="14.00">U⁺ = ΣOₙ⁻</text>
<text text-anchor="middle" x="227.517" y="-726.822" font-family="Times,serif" font-size="14.00">1 &#160;&#160;&#160;&#160;&#160;&#160;</text>
<text text-anchor="middle" x="245.475" y="-762.719" font-family="Times,serif" font-size="14.00">n</text>
</g>
<!-- TableSpecBuilder&#45;&gt;TableSpecBuilder -->
<g id="edge14" class="edge"><title>TableSpecBuilder&#45;&gt;TableSpecBuilder</title>
<path fill="none" stroke="red" d="M323.166,-703.665C335.787,-702.535 344.392,-700.015 344.392,-696.105 344.392,-693.355 340.138,-691.293 333.225,-689.918"/>
<polygon fill="red" stroke="red" points="333.548,-686.43 323.166,-688.544 332.6,-693.365 333.548,-686.43"/>
<text text-anchor="middle" x="371.892" y="-692.405" font-family="Times,serif" font-size="14.00" fill="#550000"> U⁺ = arb</text>
</g>
<!-- TableSpecBuilder_B2 -->
<g id="node3" class="node"><title>TableSpecBuilder_B2</title>
<ellipse fill="none" stroke="black" cx="281.246" cy="-584.151" rx="138.686" ry="48.1667"/>
<text text-anchor="middle" x="281.246" y="-602.951" font-family="Times,serif" font-size="14.00">TableSpecBuilderⁿ.B2</text>
<text text-anchor="middle" x="281.246" y="-587.951" font-family="Times,serif" font-size="14.00">[P,U,V,Iₙ,Cₙ,Oₙ]</text>
<text text-anchor="middle" x="281.246" y="-572.951" font-family="Times,serif" font-size="14.00">[D]</text>
<text text-anchor="middle" x="281.246" y="-557.951" font-family="Times,serif" font-size="14.00">S = SavedAndUnsaved[D,P,ΣIₙ]</text>
</g>
<!-- TableSpecBuilder&#45;&gt;TableSpecBuilder_B2 -->
<g id="edge2" class="edge"><title>TableSpecBuilder&#45;&gt;TableSpecBuilder_B2</title>
<path fill="none" stroke="black" d="M251.39,-669.326C254.362,-660.947 257.786,-651.294 261.231,-641.58"/>
<polygon fill="black" stroke="black" points="264.624,-642.486 264.668,-631.891 258.026,-640.146 264.624,-642.486"/>
</g>
<!-- FieldSpecR -->
<g id="node4" class="node"><title>FieldSpecR</title>
<ellipse fill="none" stroke="black" cx="74.2462" cy="-458.198" rx="74.4932" ry="26.7407"/>
<text text-anchor="middle" x="74.2462" y="-461.998" font-family="Times,serif" font-size="14.00">FieldSpecR</text>
<text text-anchor="middle" x="74.2462" y="-446.998" font-family="Times,serif" font-size="14.00">[S,R,P,V,I,C,O]</text>
</g>
<!-- TableSpecBuilder_B2&#45;&gt;FieldSpecR -->
<g id="edge3" class="edge"><title>TableSpecBuilder_B2&#45;&gt;FieldSpecR</title>
<path fill="none" stroke="black" d="M212.893,-542.221C182.528,-524.038 147.582,-503.112 120.372,-486.818"/>
<polygon fill="black" stroke="black" points="121.836,-483.616 111.458,-481.481 118.239,-489.621 121.836,-483.616"/>
<text text-anchor="middle" x="220.746" y="-506.868" font-family="Times,serif" font-size="14.00">R⁺ = Option[D⁻]</text>
<text text-anchor="middle" x="103.958" y="-485.281" font-family="Times,serif" font-size="14.00">n &#160;</text>
<text text-anchor="middle" x="205.393" y="-531.021" font-family="Times,serif" font-size="14.00">1 &#160;</text>
</g>
<!-- RowSpec -->
<g id="node5" class="node"><title>RowSpec</title>
<ellipse fill="none" stroke="black" cx="281.246" cy="-458.198" rx="96.7474" ry="26.7407"/>
<text text-anchor="middle" x="281.246" y="-461.998" font-family="Times,serif" font-size="14.00">RowSpecⁿ</text>
<text text-anchor="middle" x="281.246" y="-446.998" font-family="Times,serif" font-size="14.00">[S,R,U,P,V,Iₙ,Cₙ,Oₙ]</text>
</g>
<!-- TableSpecBuilder_B2&#45;&gt;RowSpec -->
<g id="edge4" class="edge"><title>TableSpecBuilder_B2&#45;&gt;RowSpec</title>
<path fill="none" stroke="black" d="M281.246,-535.936C281.246,-522.467 281.246,-508.01 281.246,-495.316"/>
<polygon fill="black" stroke="black" points="284.746,-495.128 281.246,-485.128 277.746,-495.129 284.746,-495.128"/>
</g>
<!-- TableSpecB -->
<g id="node6" class="node"><title>TableSpecB</title>
<ellipse fill="none" stroke="black" cx="420.246" cy="-117.61" rx="75.8212" ry="26.7407"/>
<text text-anchor="middle" x="420.246" y="-121.41" font-family="Times,serif" font-size="14.00">TableSpecB</text>
<text text-anchor="middle" x="420.246" y="-106.41" font-family="Times,serif" font-size="14.00">[S,D,U,P,II,VV]</text>
</g>
<!-- TableSpecBuilder_B2&#45;&gt;TableSpecB -->
<g id="edge5" class="edge"><title>TableSpecBuilder_B2&#45;&gt;TableSpecB</title>
<path fill="none" stroke="black" d="M341.481,-540.759C359.073,-525.282 376.453,-506.301 387.246,-485.068 442.885,-375.612 433.576,-223.927 425.483,-155.136"/>
<polygon fill="black" stroke="black" points="428.909,-154.32 424.205,-144.827 421.962,-155.181 428.909,-154.32"/>
<text text-anchor="middle" x="458.746" y="-402.128" font-family="Times,serif" font-size="14.00">II⁺ = ΣIₙ⁻</text>
<text text-anchor="middle" x="458.746" y="-387.128" font-family="Times,serif" font-size="14.00">VV⁺ = (V⁻)ⁿ</text>
</g>
<!-- FieldSpecR&#45;&gt;RowSpec -->
<g id="edge6" class="edge"><title>FieldSpecR&#45;&gt;RowSpec</title>
<path fill="none" stroke="black" d="M148.637,-458.198C157.046,-458.198 165.454,-458.198 173.863,-458.198"/>
<polygon fill="black" stroke="black" points="174.12,-461.698 184.12,-458.198 174.12,-454.698 174.12,-461.698"/>
<text text-anchor="middle" x="180.62" y="-461.998" font-family="Times,serif" font-size="14.00">1</text>
<text text-anchor="middle" x="152.137" y="-461.998" font-family="Times,serif" font-size="14.00">n</text>
</g>
<!-- RowRenderer -->
<g id="node8" class="node"><title>RowRenderer</title>
<ellipse fill="none" stroke="black" cx="227.246" cy="-273.404" rx="165.426" ry="91.8478"/>
<text text-anchor="middle" x="227.246" y="-323.204" font-family="Times,serif" font-size="14.00">RowRenderer</text>
<text text-anchor="middle" x="227.246" y="-308.204" font-family="Times,serif" font-size="14.00">[S,U,P,II,VV]</text>
<text text-anchor="middle" x="227.246" y="-277.204" font-family="Times,serif" font-size="14.00">renderM: WeirdLens[M,S,S,II]</text>
<text text-anchor="middle" x="227.246" y="-262.204" font-family="Times,serif" font-size="14.00">⇒ (S ⇒ M[P])</text>
<text text-anchor="middle" x="227.246" y="-247.204" font-family="Times,serif" font-size="14.00">⇒ ((S,U) ⇒ IO[S])</text>
<text text-anchor="middle" x="227.246" y="-232.204" font-family="Times,serif" font-size="14.00">⇒ ComponentStateFocus[S] ⇒ M[VV]</text>
</g>
<!-- RowSpec&#45;&gt;RowRenderer -->
<g id="edge8" class="edge"><title>RowSpec&#45;&gt;RowRenderer</title>
<path fill="none" stroke="black" d="M273.624,-431.396C269.086,-416.034 263.004,-395.447 256.742,-374.249"/>
<polygon fill="black" stroke="black" points="260.047,-373.082 253.857,-364.483 253.333,-375.065 260.047,-373.082"/>
<text text-anchor="middle" x="305.746" y="-402.128" font-family="Times,serif" font-size="14.00">II⁺ = ΣIₙ⁻</text>
<text text-anchor="middle" x="305.746" y="-387.128" font-family="Times,serif" font-size="14.00">VV⁺ = (V⁻)ⁿ</text>
</g>
<!-- TableSpec -->
<g id="node7" class="node"><title>TableSpec</title>
<ellipse fill="none" stroke="black" cx="420.246" cy="-26.8701" rx="75.8212" ry="26.7407"/>
<text text-anchor="middle" x="420.246" y="-30.6701" font-family="Times,serif" font-size="14.00">TableSpec</text>
<text text-anchor="middle" x="420.246" y="-15.6701" font-family="Times,serif" font-size="14.00">[S,D,U,P,II,VV]</text>
</g>
<!-- TableSpecB&#45;&gt;TableSpec -->
<g id="edge7" class="edge"><title>TableSpecB&#45;&gt;TableSpec</title>
<path fill="none" stroke="black" d="M420.246,-90.4652C420.246,-82.1605 420.246,-72.8249 420.246,-63.9483"/>
<polygon fill="black" stroke="black" points="423.746,-63.8282 420.246,-53.8282 416.746,-63.8282 423.746,-63.8282"/>
</g>
<!-- RowRenderer&#45;&gt;TableSpecB -->
<g id="edge9" class="edge"><title>RowRenderer&#45;&gt;TableSpecB</title>
<path fill="none" stroke="black" d="M321.202,-197.534C342.787,-180.335 364.541,-162.999 382.142,-148.974"/>
<polygon fill="black" stroke="black" points="384.79,-151.339 390.43,-142.37 380.428,-145.865 384.79,-151.339"/>
</g>
<!-- Client -->
<g id="node9" class="node"><title>Client</title>
<ellipse fill="none" stroke="black" cx="387.246" cy="-896.715" rx="32.4942" ry="18"/>
<text text-anchor="middle" x="387.246" y="-893.015" font-family="Times,serif" font-size="14.00" fill="red">Client</text>
</g>
<!-- Client&#45;&gt;FieldSpec -->
<g id="edge10" class="edge"><title>Client&#45;&gt;FieldSpec</title>
<path fill="none" stroke="red" d="M356.065,-891.427C333.691,-886.982 303.958,-878.117 283.246,-860.715 275.578,-854.272 269.449,-845.505 264.69,-836.705"/>
<polygon fill="red" stroke="red" points="267.775,-835.047 260.22,-827.619 261.494,-838.137 267.775,-835.047"/>
<text text-anchor="middle" x="308.246" y="-849.515" font-family="Times,serif" font-size="14.00" fill="#550000">1. Create</text>
</g>
<!-- Client&#45;&gt;TableSpecBuilder -->
<g id="edge11" class="edge"><title>Client&#45;&gt;TableSpecBuilder</title>
<path fill="none" stroke="red" d="M381.227,-878.817C368.355,-843.344 337.739,-762.609 318.246,-740.975 312.529,-734.629 305.671,-728.959 298.446,-723.973"/>
<polygon fill="red" stroke="red" points="300.145,-720.904 289.843,-718.434 296.356,-726.79 300.145,-720.904"/>
<text text-anchor="middle" x="387.246" y="-804.645" font-family="Times,serif" font-size="14.00" fill="#550000">2. Create</text>
<text text-anchor="middle" x="387.246" y="-789.645" font-family="Times,serif" font-size="14.00" fill="#550000">3. dataId</text>
</g>
<!-- Client&#45;&gt;TableSpecBuilder_B2 -->
<g id="edge12" class="edge"><title>Client&#45;&gt;TableSpecBuilder_B2</title>
<path fill="none" stroke="red" d="M395.538,-879.166C401.8,-865.695 409.872,-845.985 413.246,-827.715 419.03,-796.394 411.726,-675.357 408.246,-669.235 399.316,-653.523 386.103,-640.208 371.529,-629.129"/>
<polygon fill="red" stroke="red" points="373.47,-626.213 363.311,-623.203 369.375,-631.891 373.47,-626.213"/>
<text text-anchor="middle" x="449.246" y="-744.775" font-family="Times,serif" font-size="14.00" fill="#550000">4. validators</text>
</g>
<!-- Client&#45;&gt;TableSpecB -->
<g id="edge13" class="edge"><title>Client&#45;&gt;TableSpecB</title>
<path fill="none" stroke="red" d="M415.774,-887.794C452.109,-875.762 510.246,-849.123 510.246,-801.845 510.246,-801.845 510.246,-801.845 510.246,-272.404 510.246,-225.121 478.165,-179.477 452.311,-150.369"/>
<polygon fill="red" stroke="red" points="454.884,-147.996 445.556,-142.972 449.715,-152.717 454.884,-147.996"/>
<text text-anchor="middle" x="536.746" y="-580.451" font-family="Times,serif" font-size="14.00" fill="#550000">5. saveFn</text>
</g>
</g>
</svg>
