<?xml version="1.0" encoding="UTF-8" standalone="no"?>
<!DOCTYPE svg PUBLIC "-//W3C//DTD SVG 1.1//EN"
 "http://www.w3.org/Graphics/SVG/1.1/DTD/svg11.dtd">
<!-- Generated by graphviz version 2.38.0 (20140413.2041)
 -->
<!-- Title: D Pages: 1 -->
<svg width="563pt" height="923pt"
 viewBox="0.00 0.00 563.25 922.71" xmlns="http://www.w3.org/2000/svg" xmlns:xlink="http://www.w3.org/1999/xlink">
<g id="graph0" class="graph" transform="scale(1 1) rotate(0) translate(4 918.715)">
<title>D</title>
<polygon fill="white" stroke="none" points="-4,4 -4,-918.715 559.246,-918.715 559.246,4 -4,4"/>
<!-- FieldSpec -->
<g id="node1" class="node"><title>FieldSpec</title>
<ellipse fill="none" stroke="black" cx="243.246" cy="-800.845" rx="57.0522" ry="26.7407"/>
<text text-anchor="middle" x="243.246" y="-804.645" font-family="Times,serif" font-size="14.00">FieldSpec</text>
<text text-anchor="middle" x="243.246" y="-789.645" font-family="Times,serif" font-size="14.00">[P,V,I,C,O]</text>
</g>
<!-- TableSpecBuilder -->
<g id="node2" class="node"><title>TableSpecBuilder</title>
<ellipse fill="none" stroke="black" cx="234.246" cy="-696.105" rx="84.2917" ry="26.7407"/>
<text text-anchor="middle" x="234.246" y="-699.905" font-family="Times,serif" font-size="14.00">TableSpecBuilderⁿ</text>
<text text-anchor="middle" x="234.246" y="-684.905" font-family="Times,serif" font-size="14.00">[P,U,V,Iₙ,Cₙ,Oₙ]</text>
</g>
<!-- FieldSpec&#45;&gt;TableSpecBuilder -->
<g id="edge1" class="edge"><title>FieldSpec&#45;&gt;TableSpecBuilder</title>
<path fill="none" stroke="black" d="M240.975,-773.919C239.899,-761.63 238.594,-746.741 237.422,-733.356"/>
<polygon fill="black" stroke="black" points="240.876,-732.678 236.517,-723.022 233.903,-733.289 240.876,-732.678"/>
<text text-anchor="middle" x="273.246" y="-744.775" font-family="Times,serif" font-size="14.00">U⁺ = ΣOₙ⁻</text>
<text text-anchor="middle" x="219.517" y="-726.822" font-family="Times,serif" font-size="14.00">1 &#160;&#160;&#160;&#160;&#160;&#160;</text>
<text text-anchor="middle" x="237.475" y="-762.719" font-family="Times,serif" font-size="14.00">n</text>
</g>
<!-- TableSpecBuilder&#45;&gt;TableSpecBuilder -->
<g id="edge14" class="edge"><title>TableSpecBuilder&#45;&gt;TableSpecBuilder</title>
<path fill="none" stroke="red" d="M315.166,-703.665C327.787,-702.535 336.392,-700.015 336.392,-696.105 336.392,-693.355 332.138,-691.293 325.225,-689.918"/>
<polygon fill="red" stroke="red" points="325.548,-686.43 315.166,-688.544 324.6,-693.365 325.548,-686.43"/>
<text text-anchor="middle" x="363.892" y="-692.405" font-family="Times,serif" font-size="14.00" fill="#550000"> U⁺ = arb</text>
</g>
<!-- TableSpecBuilder_B2 -->
<g id="node3" class="node"><title>TableSpecBuilder_B2</title>
<ellipse fill="none" stroke="black" cx="281.246" cy="-584.151" rx="138.686" ry="48.1667"/>
<text text-anchor="middle" x="281.246" y="-602.951" font-family="Times,serif" font-size="14.00">TableSpecBuilderⁿ.B2</text>
<text text-anchor="middle" x="281.246" y="-587.951" font-family="Times,serif" font-size="14.00">[P,U,V,Iₙ,Cₙ,Oₙ]</text>
<text text-anchor="middle" x="281.246" y="-572.951" font-family="Times,serif" font-size="14.00">[D]</text>
<text text-anchor="middle" x="281.246" y="-557.951" font-family="Times,serif" font-size="14.00">S = SavedAndUnsaved[D,P,ΣIₙ]</text>
</g>
<!-- TableSpecBuilder&#45;&gt;TableSpecBuilder_B2 -->
<g id="edge2" class="edge"><title>TableSpecBuilder&#45;&gt;TableSpecBuilder_B2</title>
<path fill="none" stroke="black" d="M245.266,-669.326C248.884,-660.86 253.059,-651.092 257.255,-641.276"/>
<polygon fill="black" stroke="black" points="260.555,-642.462 261.267,-631.891 254.118,-639.711 260.555,-642.462"/>
</g>
<!-- FieldSpecR -->
<g id="node4" class="node"><title>FieldSpecR</title>
<ellipse fill="none" stroke="black" cx="74.2462" cy="-458.198" rx="74.4932" ry="26.7407"/>
<text text-anchor="middle" x="74.2462" y="-461.998" font-family="Times,serif" font-size="14.00">FieldSpecR</text>
<text text-anchor="middle" x="74.2462" y="-446.998" font-family="Times,serif" font-size="14.00">[S,R,P,V,I,C,O]</text>
</g>
<!-- TableSpecBuilder_B2&#45;&gt;FieldSpecR -->
<g id="edge3" class="edge"><title>TableSpecBuilder_B2&#45;&gt;FieldSpecR</title>
<path fill="none" stroke="black" d="M212.893,-542.221C182.528,-524.038 147.582,-503.112 120.372,-486.818"/>
<polygon fill="black" stroke="black" points="121.836,-483.616 111.458,-481.481 118.239,-489.621 121.836,-483.616"/>
<text text-anchor="middle" x="220.746" y="-506.868" font-family="Times,serif" font-size="14.00">R⁺ = Option[D⁻]</text>
<text text-anchor="middle" x="103.958" y="-485.281" font-family="Times,serif" font-size="14.00">n &#160;</text>
<text text-anchor="middle" x="205.393" y="-531.021" font-family="Times,serif" font-size="14.00">1 &#160;</text>
</g>
<!-- RowSpec -->
<g id="node5" class="node"><title>RowSpec</title>
<ellipse fill="none" stroke="black" cx="281.246" cy="-458.198" rx="96.7474" ry="26.7407"/>
<text text-anchor="middle" x="281.246" y="-461.998" font-family="Times,serif" font-size="14.00">RowSpecⁿ</text>
<text text-anchor="middle" x="281.246" y="-446.998" font-family="Times,serif" font-size="14.00">[S,R,U,P,V,Iₙ,Cₙ,Oₙ]</text>
</g>
<!-- TableSpecBuilder_B2&#45;&gt;RowSpec -->
<g id="edge4" class="edge"><title>TableSpecBuilder_B2&#45;&gt;RowSpec</title>
<path fill="none" stroke="black" d="M281.246,-535.936C281.246,-522.467 281.246,-508.01 281.246,-495.316"/>
<polygon fill="black" stroke="black" points="284.746,-495.128 281.246,-485.128 277.746,-495.129 284.746,-495.128"/>
</g>
<!-- TableSpecB -->
<g id="node6" class="node"><title>TableSpecB</title>
<ellipse fill="none" stroke="black" cx="422.246" cy="-117.61" rx="65.5227" ry="26.7407"/>
<text text-anchor="middle" x="422.246" y="-121.41" font-family="Times,serif" font-size="14.00">TableSpecB</text>
<text text-anchor="middle" x="422.246" y="-106.41" font-family="Times,serif" font-size="14.00">[S,D,U,P,I,V]</text>
</g>
<!-- TableSpecBuilder_B2&#45;&gt;TableSpecB -->
<g id="edge5" class="edge"><title>TableSpecBuilder_B2&#45;&gt;TableSpecB</title>
<path fill="none" stroke="black" d="M341.275,-540.653C358.854,-525.17 376.279,-506.212 387.246,-485.068 443.811,-376.019 435.165,-224.13 427.345,-155.212"/>
<polygon fill="black" stroke="black" points="430.772,-154.395 426.107,-144.883 423.822,-155.228 430.772,-154.395"/>
<text text-anchor="middle" x="454.746" y="-402.128" font-family="Times,serif" font-size="14.00">I⁺ = ΣIₙ⁻</text>
<text text-anchor="middle" x="454.746" y="-387.128" font-family="Times,serif" font-size="14.00">V⁺ = (V⁻)ⁿ</text>
</g>
<!-- FieldSpecR&#45;&gt;RowSpec -->
<g id="edge6" class="edge"><title>FieldSpecR&#45;&gt;RowSpec</title>
<path fill="none" stroke="black" d="M148.637,-458.198C157.046,-458.198 165.454,-458.198 173.863,-458.198"/>
<polygon fill="black" stroke="black" points="174.12,-461.698 184.12,-458.198 174.12,-454.698 174.12,-461.698"/>
<text text-anchor="middle" x="180.62" y="-461.998" font-family="Times,serif" font-size="14.00">1</text>
<text text-anchor="middle" x="152.137" y="-461.998" font-family="Times,serif" font-size="14.00">n</text>
</g>
<!-- RowRenderer -->
<g id="node8" class="node"><title>RowRenderer</title>
<ellipse fill="none" stroke="black" cx="236.246" cy="-273.404" rx="158.284" ry="91.8478"/>
<text text-anchor="middle" x="236.246" y="-323.204" font-family="Times,serif" font-size="14.00">RowRenderer</text>
<text text-anchor="middle" x="236.246" y="-308.204" font-family="Times,serif" font-size="14.00">[S,U,P,I,V]</text>
<text text-anchor="middle" x="236.246" y="-277.204" font-family="Times,serif" font-size="14.00">renderM: WeirdLens[M,S,S,I]</text>
<text text-anchor="middle" x="236.246" y="-262.204" font-family="Times,serif" font-size="14.00">⇒ (S ⇒ M[P])</text>
<text text-anchor="middle" x="236.246" y="-247.204" font-family="Times,serif" font-size="14.00">⇒ ((S,U) ⇒ IO[S])</text>
<text text-anchor="middle" x="236.246" y="-232.204" font-family="Times,serif" font-size="14.00">⇒ ComponentStateFocus[S] ⇒ M[V]</text>
</g>
<!-- RowSpec&#45;&gt;RowRenderer -->
<g id="edge8" class="edge"><title>RowSpec&#45;&gt;RowRenderer</title>
<path fill="none" stroke="black" d="M274.799,-431.008C271.043,-415.753 266.043,-395.442 260.891,-374.515"/>
<polygon fill="black" stroke="black" points="264.226,-373.417 258.437,-364.544 257.429,-375.091 264.226,-373.417"/>
<text text-anchor="middle" x="303.746" y="-402.128" font-family="Times,serif" font-size="14.00">I⁺ = ΣIₙ⁻</text>
<text text-anchor="middle" x="303.746" y="-387.128" font-family="Times,serif" font-size="14.00">V⁺ = (V⁻)ⁿ</text>
</g>
<!-- TableSpec -->
<g id="node7" class="node"><title>TableSpec</title>
<ellipse fill="none" stroke="black" cx="422.246" cy="-26.8701" rx="65.5227" ry="26.7407"/>
<text text-anchor="middle" x="422.246" y="-30.6701" font-family="Times,serif" font-size="14.00">TableSpec</text>
<text text-anchor="middle" x="422.246" y="-15.6701" font-family="Times,serif" font-size="14.00">[S,D,U,P,I,V]</text>
</g>
<!-- TableSpecB&#45;&gt;TableSpec -->
<g id="edge7" class="edge"><title>TableSpecB&#45;&gt;TableSpec</title>
<path fill="none" stroke="black" d="M422.246,-90.4652C422.246,-82.1605 422.246,-72.8249 422.246,-63.9483"/>
<polygon fill="black" stroke="black" points="425.746,-63.8282 422.246,-53.8282 418.746,-63.8282 425.746,-63.8282"/>
</g>
<!-- RowRenderer&#45;&gt;TableSpecB -->
<g id="edge9" class="edge"><title>RowRenderer&#45;&gt;TableSpecB</title>
<path fill="none" stroke="black" d="M326.522,-197.76C347.521,-180.396 368.706,-162.88 385.788,-148.755"/>
<polygon fill="black" stroke="black" points="388.35,-151.179 393.826,-142.109 383.889,-145.784 388.35,-151.179"/>
</g>
<!-- Client -->
<g id="node9" class="node"><title>Client</title>
<ellipse fill="none" stroke="black" cx="379.246" cy="-896.715" rx="32.4942" ry="18"/>
<text text-anchor="middle" x="379.246" y="-893.015" font-family="Times,serif" font-size="14.00" fill="red">Client</text>
</g>
<!-- Client&#45;&gt;FieldSpec -->
<g id="edge10" class="edge"><title>Client&#45;&gt;FieldSpec</title>
<path fill="none" stroke="red" d="M348.065,-891.427C325.691,-886.982 295.958,-878.117 275.246,-860.715 267.578,-854.272 261.449,-845.505 256.69,-836.705"/>
<polygon fill="red" stroke="red" points="259.775,-835.047 252.22,-827.619 253.494,-838.137 259.775,-835.047"/>
<text text-anchor="middle" x="300.246" y="-849.515" font-family="Times,serif" font-size="14.00" fill="#550000">1. Create</text>
</g>
<!-- Client&#45;&gt;TableSpecBuilder -->
<g id="edge11" class="edge"><title>Client&#45;&gt;TableSpecBuilder</title>
<path fill="none" stroke="red" d="M373.227,-878.817C360.355,-843.344 329.739,-762.609 310.246,-740.975 304.529,-734.629 297.671,-728.959 290.446,-723.973"/>
<polygon fill="red" stroke="red" points="292.145,-720.904 281.843,-718.434 288.356,-726.79 292.145,-720.904"/>
<text text-anchor="middle" x="379.246" y="-804.645" font-family="Times,serif" font-size="14.00" fill="#550000">2. Create</text>
<text text-anchor="middle" x="379.246" y="-789.645" font-family="Times,serif" font-size="14.00" fill="#550000">3. dataId</text>
</g>
<!-- Client&#45;&gt;TableSpecBuilder_B2 -->
<g id="edge12" class="edge"><title>Client&#45;&gt;TableSpecBuilder_B2</title>
<path fill="none" stroke="red" d="M387.538,-879.166C393.8,-865.695 401.872,-845.985 405.246,-827.715 411.014,-796.479 403.695,-675.523 400.246,-669.235 392.06,-654.309 379.955,-641.421 366.557,-630.53"/>
<polygon fill="red" stroke="red" points="368.595,-627.682 358.539,-624.347 364.321,-633.225 368.595,-627.682"/>
<text text-anchor="middle" x="441.246" y="-744.775" font-family="Times,serif" font-size="14.00" fill="#550000">4. validators</text>
</g>
<!-- Client&#45;&gt;TableSpecB -->
<g id="edge13" class="edge"><title>Client&#45;&gt;TableSpecB</title>
<path fill="none" stroke="red" d="M407.774,-887.794C444.109,-875.762 502.246,-849.123 502.246,-801.845 502.246,-801.845 502.246,-801.845 502.246,-272.404 502.246,-226.324 473.631,-180.352 450.629,-150.841"/>
<polygon fill="red" stroke="red" points="453.303,-148.582 444.318,-142.968 447.841,-152.96 453.303,-148.582"/>
<text text-anchor="middle" x="528.746" y="-580.451" font-family="Times,serif" font-size="14.00" fill="#550000">5. saveFn</text>
</g>
</g>
</svg>
