<?xml version="1.0" encoding="UTF-8" standalone="no"?>
<!-- Created with Inkscape (http://www.inkscape.org/) -->

<svg
   xmlns:dc="http://purl.org/dc/elements/1.1/"
   xmlns:cc="http://creativecommons.org/ns#"
   xmlns:rdf="http://www.w3.org/1999/02/22-rdf-syntax-ns#"
   xmlns:svg="http://www.w3.org/2000/svg"
   xmlns="http://www.w3.org/2000/svg"
   xmlns:xlink="http://www.w3.org/1999/xlink"
   xmlns:sodipodi="http://sodipodi.sourceforge.net/DTD/sodipodi-0.dtd"
   xmlns:inkscape="http://www.inkscape.org/namespaces/inkscape"
   id="svg3004"
   version="1.1"
   inkscape:version="0.48.4 r9939"
   width="300"
   height="300"
   xml:space="preserve"
   sodipodi:docname="logo-only.svg"><metadata
     id="metadata3010"><rdf:RDF><cc:Work
         rdf:about=""><dc:format>image/svg+xml</dc:format><dc:type
           rdf:resource="http://purl.org/dc/dcmitype/StillImage" /><dc:title /></cc:Work></rdf:RDF></metadata><defs
     id="defs3008"><linearGradient
       id="linearGradient4157"><stop
         id="stop4159"
         offset="0"
         style="stop-color:#ff9a40;stop-opacity:1;" /><stop
         id="stop4161"
         offset="1"
         style="stop-color:#fffe81;stop-opacity:0;" /></linearGradient><linearGradient
       id="linearGradient4091"><stop
         id="stop4093"
         offset="0"
         style="stop-color:#e86600;stop-opacity:1;" /><stop
         id="stop4095"
         offset="1"
         style="stop-color:#eeff23;stop-opacity:0.2682927;" /></linearGradient><linearGradient
       id="linearGradient4025"><stop
         id="stop4027"
         offset="0"
         style="stop-color:#001a30;stop-opacity:1;" /><stop
         id="stop4029"
         offset="1"
         style="stop-color:#001a30;stop-opacity:0;" /></linearGradient><linearGradient
       id="linearGradient3959"><stop
         style="stop-color:#efff2c;stop-opacity:1;"
         offset="0"
         id="stop3961" /><stop
         style="stop-color:#f2ff55;stop-opacity:0;"
         offset="1"
         id="stop3963" /></linearGradient><linearGradient
       id="linearGradient5594"><stop
         style="stop-color:#fbeda0;stop-opacity:1;"
         offset="0"
         id="stop5596" /><stop
         style="stop-color:#fbfbd5;stop-opacity:1;"
         offset="1"
         id="stop5598" /></linearGradient><linearGradient
       inkscape:collect="always"
       xlink:href="#linearGradient4091"
       id="linearGradient4097"
       gradientUnits="userSpaceOnUse"
       x1="206.80417"
       y1="80.044655"
       x2="726.83533"
       y2="80.044655" /></defs><sodipodi:namedview
     pagecolor="#ffffff"
     bordercolor="#666666"
     borderopacity="1"
     objecttolerance="10"
     gridtolerance="10"
     guidetolerance="10"
     inkscape:pageopacity="0"
     inkscape:pageshadow="2"
     inkscape:window-width="1920"
     inkscape:window-height="1058"
     id="namedview3006"
     showgrid="false"
     inkscape:zoom="2.8366667"
     inkscape:cx="150"
     inkscape:cy="150"
     inkscape:window-x="1200"
     inkscape:window-y="0"
     inkscape:window-maximized="1"
     inkscape:current-layer="layer1"
     fit-margin-top="0"
     fit-margin-left="0"
     fit-margin-right="0"
     fit-margin-bottom="0"
     showborder="true" /><g
     style="display:none"
     inkscape:label="Beam &amp; Wave (hack)"
     id="g4068"
     inkscape:groupmode="layer"
     transform="translate(-123.7265,73.51919)"><path
       inkscape:connector-curvature="0"
       id="path4072"
       style="fill:#00488c;fill-opacity:1;fill-rule:evenodd;stroke:none;display:inline"
       d="m 621.72697,-68.073382 c 79.44865,3.198685 141.39413,70.6449506 141.39413,148.827833 0,80.251819 -62.77392,145.666099 -141.39413,148.833569 191.45515,-59.43748 0,-216.324446 0,-297.661402" /><path
       sodipodi:nodetypes="cccc"
       d="m 820.90022,38.328453 0,-39.5234865 -373.47229,0 z"
       style="fill:#001a30;fill-opacity:1;fill-rule:evenodd;stroke:#ffffff;stroke-width:9.92917824;stroke-linecap:butt;stroke-linejoin:miter;stroke-miterlimit:4;stroke-opacity:1;stroke-dasharray:none;marker-start:none;display:inline"
       id="path4074"
       inkscape:connector-curvature="0" /><path
       inkscape:connector-curvature="0"
       id="path4116"
       d="m 661.59879,-70.230936 0,9.489626 c 53.51006,17.880193 93.03719,66.0712286 100.31866,122.643393 l 54.95667,0 0,-132.133019 -22.33446,0 -94.69505,0 -38.24582,0 z"
       style="fill:#ffffff;fill-opacity:1;fill-rule:evenodd;stroke:none;display:inline" /></g><g
     transform="translate(-123.7265,73.51919)"
     inkscape:groupmode="layer"
     id="g3337"
     inkscape:label="Wave"
     style="display:inline"><path
       style="fill:#00488c;fill-opacity:1;fill-rule:evenodd;stroke:none;display:inline"
       d="m 279.70457,-72.360274 c 0,18.928424 10.39651,41.966437 23.89489,66.8976173 l 92.7861,0 C 371.14316,-43.86712 328.78997,-70.384045 279.70457,-72.360274 z m 36.31508,89.182453 C 360.21986,94.534917 413.58792,183.75261 279.70457,225.31686 358.32479,222.14939 421.097,156.73012 421.097,76.4783 c 0,-17.182444 -2.99717,-33.863173 -8.50933,-49.440442 L 316.01965,16.822179 z"
       id="path3339"
       inkscape:connector-curvature="0" /></g><g
     inkscape:groupmode="layer"
     id="layer2"
     inkscape:label="Beam"
     style="display:inline"
     transform="translate(-20.21242,82.531784)"><path
       style="fill:#001a30;fill-opacity:1;fill-rule:evenodd;stroke:none;stroke-width:9.92917824;marker-start:none;display:inline"
       d="M 131.7099,-7.6216942 306.3231,10.869977 c -2.63859,-6.3932278 -5.73014,-12.5553947 -9.19696,-18.4916712 l -165.41624,0 z"
       id="path3341"
       inkscape:connector-curvature="0" /></g><g
     inkscape:groupmode="layer"
     id="layer1"
     inkscape:label="Logo Left"
     style="display:inline"
     transform="translate(-20.21242,82.531784)"><g
       style="fill:#001a30;fill-opacity:1;display:inline"
       id="g4076"
       transform="matrix(1.0660856,0,0,-1.0692536,-194.52019,807.67671)"><path
         inkscape:connector-curvature="0"
         id="path4078"
         style="fill:#001a30;fill-opacity:1;fill-rule:evenodd;stroke:none"
         d="m 305.466,682.653 1.95,-21.242 -47.295,-17.004 2.081,22.69 43.264,15.556" /><path
         inkscape:connector-curvature="0"
         id="path4080"
         style="fill:#001a30;fill-opacity:1;fill-rule:evenodd;stroke:none"
         d="m 299.941,742.832 1.951,-21.24 -35.871,-12.897 2.083,22.691 31.837,11.446" /><path
         inkscape:connector-curvature="0"
         id="path4082"
         style="fill:#001a30;fill-opacity:1;fill-rule:evenodd;stroke:none"
         d="m 263.496,759.058 42.1055,0 0,6.68086 -42.1055,0 0,-6.68086 z" /></g><path
       d="M 177.56502,106.33183 197.04666,84.90079 177.56502,96.756675 142.5601,71.222903 177.56502,106.33183"
       style="fill:#a7d1ec;fill-opacity:1;fill-rule:evenodd;stroke:none;display:inline"
       id="path4084"
       inkscape:connector-curvature="0" /><g
       style="fill:#00488c;fill-opacity:1;display:inline"
       id="g4086"
       transform="matrix(1.0660856,0,0,-1.0692536,-194.52019,807.67671)"><path
         inkscape:connector-curvature="0"
         id="path4088"
         style="fill:#00488c;fill-opacity:1;fill-rule:evenodd;stroke:none"
         d="m 308.228,652.562 1.951,-21.242 -53.011,-19.057 2.084,22.691 48.976,17.608" /><path
         inkscape:connector-curvature="0"
         id="path4090"
         style="fill:#00488c;fill-opacity:1;fill-rule:evenodd;stroke:none"
         d="m 302.704,712.741 1.95,-21.239 -41.584,-14.951 2.083,22.69 37.551,13.5" /><path
         inkscape:connector-curvature="0"
         id="path4092"
         style="fill:#00488c;fill-opacity:1;fill-rule:evenodd;stroke:none"
         d="m 270.337,755.718 28.422,0 0.371,-4.036 -30.159,-10.843 1.366,14.879" /><path
         inkscape:connector-curvature="0"
         id="path4094"
         style="fill:#00488c;fill-opacity:1;fill-rule:evenodd;stroke:none"
         d="m 284.548,768.643 -14.211,0 c 0,7.91 6.362,14.322 14.211,14.322 7.848,0 14.209,-6.412 14.209,-14.322 l -14.209,0" /></g><path
       d="m 170.20583,-81.49646 c 1.18655,0 2.37951,0.01283 3.55432,0.04277 -48.37149,6.975812 -130.739389,36.565268 -130.739389,148.919234 0,48.092886 25.946399,73.750696 64.514159,85.305046 l 30.24911,-10.86362 -0.1151,-9.44258 17.93262,-12.29106 18.15863,12.38944 0.16418,29.52102 -0.16418,0 0,54.3074 c -1.17481,0.0299 -2.36777,0.0417 -3.55432,0.0417 -81.382835,0 -147.363939,-66.69576 -147.363939,-148.967338 0,-82.277999 65.981104,-148.962004 147.363939,-148.962004"
       style="fill:#001a30;fill-opacity:1;fill-rule:evenodd;stroke:none;display:inline"
       id="path4096"
       inkscape:connector-curvature="0" /></g></svg>