<?xml version="1.0" encoding="UTF-8" standalone="no"?>
<!DOCTYPE svg PUBLIC "-//W3C//DTD SVG 1.1//EN"
 "http://www.w3.org/Graphics/SVG/1.1/DTD/svg11.dtd">
<!-- Generated by graphviz version 2.36.0 (20140111.2315)
 -->
<!-- Title: G Pages: 1 -->
<svg width="2605pt" height="886pt"
 viewBox="0.00 0.00 2605.00 886.00" xmlns="http://www.w3.org/2000/svg" xmlns:xlink="http://www.w3.org/1999/xlink">
<g id="graph0" class="graph" transform="scale(1 1) rotate(0) translate(4 882)">
<title>G</title>
<polygon fill="white" stroke="none" points="-4,4 -4,-882 2601,-882 2601,4 -4,4"/>
<!-- WantToResolve -->
<g id="node1" class="node"><title>WantToResolve</title>
<ellipse fill="none" stroke="black" cx="1102" cy="-729" rx="96.3112" ry="26.7407"/>
<text text-anchor="middle" x="1102" y="-732.8" font-family="Times,serif" font-size="14.00" fill="#880000">Want to</text>
<text text-anchor="middle" x="1102" y="-717.8" font-family="Times,serif" font-size="14.00" fill="#880000">resolve incompletions</text>
</g>
<!-- GaugeState -->
<g id="node2" class="node"><title>GaugeState</title>
<ellipse fill="none" stroke="black" cx="2024" cy="-729" rx="94.0678" ry="26.7407"/>
<text text-anchor="middle" x="2024" y="-732.8" font-family="Times,serif" font-size="14.00" fill="#880000">Gauge how</text>
<text text-anchor="middle" x="2024" y="-717.8" font-family="Times,serif" font-size="14.00" fill="#880000">(in)complete reqs are</text>
</g>
<!-- WantToResolve&#45;&gt;GaugeState -->
<g id="edge4" class="edge"><title>WantToResolve&#45;&gt;GaugeState</title>
<path fill="none" stroke="black" d="M1198.79,-729C1438.98,-729 1679.17,-729 1919.36,-729"/>
<polygon fill="black" stroke="black" points="1919.71,-732.5 1929.71,-729 1919.71,-725.5 1919.71,-732.5"/>
</g>
<!-- KnowWhy -->
<g id="node12" class="node"><title>KnowWhy</title>
<ellipse fill="none" stroke="black" cx="872" cy="-596" rx="71.127" ry="37.4533"/>
<text text-anchor="middle" x="872" y="-607.3" font-family="Times,serif" font-size="14.00">Need to know</text>
<text text-anchor="middle" x="872" y="-592.3" font-family="Times,serif" font-size="14.00">why something</text>
<text text-anchor="middle" x="872" y="-577.3" font-family="Times,serif" font-size="14.00">is incomplete</text>
</g>
<!-- WantToResolve&#45;&gt;KnowWhy -->
<g id="edge12" class="edge"><title>WantToResolve&#45;&gt;KnowWhy</title>
<path fill="none" stroke="black" d="M1060.88,-704.58C1023.92,-683.531 969.316,-652.428 928.309,-629.072"/>
<polygon fill="black" stroke="black" points="929.936,-625.971 919.514,-624.063 926.472,-632.053 929.936,-625.971"/>
</g>
<!-- RemindMyself -->
<g id="node13" class="node"><title>RemindMyself</title>
<ellipse fill="none" stroke="black" cx="1102" cy="-596" rx="102.296" ry="26.7407"/>
<text text-anchor="middle" x="1102" y="-599.8" font-family="Times,serif" font-size="14.00">Want to remind myself</text>
<text text-anchor="middle" x="1102" y="-584.8" font-family="Times,serif" font-size="14.00">to do something</text>
</g>
<!-- WantToResolve&#45;&gt;RemindMyself -->
<g id="edge29" class="edge"><title>WantToResolve&#45;&gt;RemindMyself</title>
<path fill="none" stroke="black" d="M1102,-702.119C1102,-682.51 1102,-655.314 1102,-633.497"/>
<polygon fill="black" stroke="black" points="1105.5,-633.276 1102,-623.276 1098.5,-633.276 1105.5,-633.276"/>
</g>
<!-- ShareDeps -->
<g id="node14" class="node"><title>ShareDeps</title>
<ellipse fill="none" stroke="black" cx="1289" cy="-596" rx="66.2022" ry="37.4533"/>
<text text-anchor="middle" x="1289" y="-607.3" font-family="Times,serif" font-size="14.00">Communicate</text>
<text text-anchor="middle" x="1289" y="-592.3" font-family="Times,serif" font-size="14.00">dependencies</text>
<text text-anchor="middle" x="1289" y="-577.3" font-family="Times,serif" font-size="14.00">with team</text>
</g>
<!-- WantToResolve&#45;&gt;ShareDeps -->
<g id="edge30" class="edge"><title>WantToResolve&#45;&gt;ShareDeps</title>
<path fill="none" stroke="black" d="M1136.74,-703.667C1165.63,-683.426 1207.11,-654.365 1239.49,-631.686"/>
<polygon fill="black" stroke="black" points="1241.75,-634.374 1247.93,-625.77 1237.73,-628.641 1241.75,-634.374"/>
</g>
<!-- Explict -->
<g id="node28" class="node"><title>Explict</title>
<ellipse fill="none" stroke="black" cx="1089" cy="-484" rx="91.3863" ry="37.4533"/>
<text text-anchor="middle" x="1089" y="-495.3" font-family="Times,serif" font-size="14.00">Make</text>
<text text-anchor="middle" x="1089" y="-480.3" font-family="Times,serif" font-size="14.00">remaining tasks and</text>
<text text-anchor="middle" x="1089" y="-465.3" font-family="Times,serif" font-size="14.00">dependencies explict</text>
</g>
<!-- WantToResolve&#45;&gt;Explict -->
<g id="edge22" class="edge"><title>WantToResolve&#45;&gt;Explict</title>
<path fill="none" stroke="black" d="M1058.88,-704.762C1033.72,-688.595 1004.21,-664.485 990,-634 975.727,-603.386 974.771,-588.15 990,-558 997.726,-542.703 1010.34,-529.823 1024.01,-519.348"/>
<polygon fill="black" stroke="black" points="1026.1,-522.154 1032.16,-513.458 1022,-516.482 1026.1,-522.154"/>
</g>
<!-- Summary -->
<g id="node33" class="node"><title>Summary</title>
<ellipse fill="#99ee99" stroke="black" cx="1455" cy="-596" rx="68.9457" ry="26.7407"/>
<text text-anchor="middle" x="1455" y="-599.8" font-family="Times,serif" font-size="14.00">View list of all</text>
<text text-anchor="middle" x="1455" y="-584.8" font-family="Times,serif" font-size="14.00">incompletions</text>
</g>
<!-- WantToResolve&#45;&gt;Summary -->
<g id="edge1" class="edge"><title>WantToResolve&#45;&gt;Summary</title>
<path fill="none" stroke="black" d="M1160.79,-707.695C1214.06,-689.11 1294.6,-660.544 1364,-634 1375.45,-629.621 1387.64,-624.784 1399.26,-620.092"/>
<polygon fill="black" stroke="black" points="1400.9,-623.202 1408.85,-616.198 1398.27,-616.716 1400.9,-623.202"/>
</g>
<!-- CountAll -->
<g id="node31" class="node"><title>CountAll</title>
<ellipse fill="#99ee99" stroke="black" cx="1805" cy="-596" rx="109.402" ry="37.4533"/>
<text text-anchor="middle" x="1805" y="-607.3" font-family="Times,serif" font-size="14.00">Want to know</text>
<text text-anchor="middle" x="1805" y="-592.3" font-family="Times,serif" font-size="14.00">how many incompletions</text>
<text text-anchor="middle" x="1805" y="-577.3" font-family="Times,serif" font-size="14.00">in given scope</text>
</g>
<!-- GaugeState&#45;&gt;CountAll -->
<g id="edge2" class="edge"><title>GaugeState&#45;&gt;CountAll</title>
<path fill="none" stroke="black" d="M1984.59,-704.429C1951.99,-684.924 1905.08,-656.863 1867.38,-634.311"/>
<polygon fill="black" stroke="black" points="1868.88,-631.131 1858.5,-629.001 1865.28,-637.138 1868.88,-631.131"/>
</g>
<!-- CountEach -->
<g id="node32" class="node"><title>CountEach</title>
<ellipse fill="#99ee99" stroke="black" cx="2024" cy="-484" rx="82.5969" ry="37.4533"/>
<text text-anchor="middle" x="2024" y="-495.3" font-family="Times,serif" font-size="14.00">List reqs</text>
<text text-anchor="middle" x="2024" y="-480.3" font-family="Times,serif" font-size="14.00">and incompletions</text>
<text text-anchor="middle" x="2024" y="-465.3" font-family="Times,serif" font-size="14.00">in each</text>
</g>
<!-- GaugeState&#45;&gt;CountEach -->
<g id="edge3" class="edge"><title>GaugeState&#45;&gt;CountEach</title>
<path fill="none" stroke="black" d="M2024,-701.995C2024,-661.446 2024,-582.563 2024,-531.904"/>
<polygon fill="black" stroke="black" points="2027.5,-531.857 2024,-521.857 2020.5,-531.857 2027.5,-531.857"/>
</g>
<!-- MandatoryFields -->
<g id="node3" class="node"><title>MandatoryFields</title>
<ellipse fill="none" stroke="black" cx="72" cy="-729" rx="72.2493" ry="26.7407"/>
<text text-anchor="middle" x="72" y="-732.8" font-family="Times,serif" font-size="14.00">Some req fields</text>
<text text-anchor="middle" x="72" y="-717.8" font-family="Times,serif" font-size="14.00">are mandatory</text>
</g>
<!-- ReasonIncompete -->
<g id="node8" class="node"><title>ReasonIncompete</title>
<ellipse fill="none" stroke="black" cx="401" cy="-596" rx="67.2629" ry="26.7407"/>
<text text-anchor="middle" x="401" y="-599.8" font-family="Times,serif" font-size="14.00">Incompletions</text>
<text text-anchor="middle" x="401" y="-584.8" font-family="Times,serif" font-size="14.00">have reasons</text>
</g>
<!-- MandatoryFields&#45;&gt;ReasonIncompete -->
<g id="edge14" class="edge"><title>MandatoryFields&#45;&gt;ReasonIncompete</title>
<path fill="none" stroke="black" d="M100.897,-704.015C115.978,-692.444 135.172,-679.13 154,-670 211.24,-642.244 281.142,-622.793 331.955,-610.988"/>
<polygon fill="black" stroke="black" points="332.883,-614.366 341.854,-608.729 331.326,-607.542 332.883,-614.366"/>
</g>
<!-- ToggleMandatory -->
<g id="node41" class="node"><title>ToggleMandatory</title>
<ellipse fill="#bbbbff" stroke="black" cx="72" cy="-596" rx="72.2493" ry="37.4533"/>
<text text-anchor="middle" x="72" y="-607.3" font-family="Times,serif" font-size="14.00">Specify</text>
<text text-anchor="middle" x="72" y="-592.3" font-family="Times,serif" font-size="14.00">mandatory&#45;ness</text>
<text text-anchor="middle" x="72" y="-577.3" font-family="Times,serif" font-size="14.00">of fields</text>
</g>
<!-- MandatoryFields&#45;&gt;ToggleMandatory -->
<g id="edge15" class="edge"><title>MandatoryFields&#45;&gt;ToggleMandatory</title>
<path fill="none" stroke="black" d="M72,-702.119C72,-685.482 72,-663.384 72,-643.744"/>
<polygon fill="black" stroke="black" points="75.5001,-643.739 72,-633.739 68.5001,-643.739 75.5001,-643.739"/>
</g>
<!-- TODOs -->
<g id="node4" class="node"><title>TODOs</title>
<ellipse fill="none" stroke="black" cx="686" cy="-729" rx="62.3993" ry="37.4533"/>
<text text-anchor="middle" x="686" y="-740.3" font-family="Times,serif" font-size="14.00">Tags such as</text>
<text text-anchor="middle" x="686" y="-725.3" font-family="Times,serif" font-size="14.00">TODO, TBD</text>
<text text-anchor="middle" x="686" y="-710.3" font-family="Times,serif" font-size="14.00">often used</text>
</g>
<!-- TagInFields -->
<g id="node38" class="node"><title>TagInFields</title>
<ellipse fill="#bbbbff" stroke="black" cx="686" cy="-596" rx="96.3112" ry="26.7407"/>
<text text-anchor="middle" x="686" y="-599.8" font-family="Times,serif" font-size="14.00">Store an incompletion</text>
<text text-anchor="middle" x="686" y="-584.8" font-family="Times,serif" font-size="14.00">tag in a req field</text>
</g>
<!-- TODOs&#45;&gt;TagInFields -->
<g id="edge5" class="edge"><title>TODOs&#45;&gt;TagInFields</title>
<path fill="none" stroke="black" d="M686,-691.509C686,-673.283 686,-651.301 686,-633.125"/>
<polygon fill="black" stroke="black" points="689.5,-632.92 686,-622.921 682.5,-632.921 689.5,-632.92"/>
</g>
<!-- TypeIndicatesDependency -->
<g id="node5" class="node"><title>TypeIndicatesDependency</title>
<ellipse fill="none" stroke="black" cx="1837" cy="-484" rx="85.9015" ry="37.4533"/>
<text text-anchor="middle" x="1837" y="-495.3" font-family="Times,serif" font-size="14.00">Incompletion types</text>
<text text-anchor="middle" x="1837" y="-480.3" font-family="Times,serif" font-size="14.00">represent real&#45;life</text>
<text text-anchor="middle" x="1837" y="-465.3" font-family="Times,serif" font-size="14.00">dependencies</text>
</g>
<!-- SepByType -->
<g id="node36" class="node"><title>SepByType</title>
<ellipse fill="#99ee99" stroke="black" cx="1837" cy="-362" rx="82.0366" ry="37.4533"/>
<text text-anchor="middle" x="1837" y="-373.3" font-family="Times,serif" font-size="14.00">Apply/remove</text>
<text text-anchor="middle" x="1837" y="-358.3" font-family="Times,serif" font-size="14.00">filter(s) on</text>
<text text-anchor="middle" x="1837" y="-343.3" font-family="Times,serif" font-size="14.00">incompletion type</text>
</g>
<!-- TypeIndicatesDependency&#45;&gt;SepByType -->
<g id="edge40" class="edge"><title>TypeIndicatesDependency&#45;&gt;SepByType</title>
<path fill="none" stroke="black" d="M1837,-446.344C1837,-434.936 1837,-422.194 1837,-410.172"/>
<polygon fill="black" stroke="black" points="1840.5,-409.845 1837,-399.845 1833.5,-409.845 1840.5,-409.845"/>
</g>
<!-- NeedCtx -->
<g id="node6" class="node"><title>NeedCtx</title>
<ellipse fill="none" stroke="black" cx="1344" cy="-484" rx="107.22" ry="37.4533"/>
<text text-anchor="middle" x="1344" y="-495.3" font-family="Times,serif" font-size="14.00">Hard to</text>
<text text-anchor="middle" x="1344" y="-480.3" font-family="Times,serif" font-size="14.00">understand incompletion</text>
<text text-anchor="middle" x="1344" y="-465.3" font-family="Times,serif" font-size="14.00">without ctx</text>
</g>
<!-- SeeCtx -->
<g id="node35" class="node"><title>SeeCtx</title>
<ellipse fill="#99ee99" stroke="black" cx="1366" cy="-362" rx="51.4931" ry="18"/>
<text text-anchor="middle" x="1366" y="-358.3" font-family="Times,serif" font-size="14.00">See context</text>
</g>
<!-- NeedCtx&#45;&gt;SeeCtx -->
<g id="edge21" class="edge"><title>NeedCtx&#45;&gt;SeeCtx</title>
<path fill="none" stroke="black" d="M1350.72,-446.344C1354.04,-428.251 1357.97,-406.803 1361.01,-390.196"/>
<polygon fill="black" stroke="black" points="1364.51,-390.533 1362.87,-380.066 1357.63,-389.271 1364.51,-390.533"/>
</g>
<!-- TagNotEnough -->
<g id="node7" class="node"><title>TagNotEnough</title>
<ellipse fill="none" stroke="black" cx="686" cy="-484" rx="85.9015" ry="26.7407"/>
<text text-anchor="middle" x="686" y="-487.8" font-family="Times,serif" font-size="14.00">A TODO/TBD tag</text>
<text text-anchor="middle" x="686" y="-472.8" font-family="Times,serif" font-size="14.00">is often not enough</text>
</g>
<!-- SuppText -->
<g id="node37" class="node"><title>SuppText</title>
<ellipse fill="#bbbbff" stroke="black" cx="686" cy="-362" rx="92.4462" ry="26.7407"/>
<text text-anchor="middle" x="686" y="-365.8" font-family="Times,serif" font-size="14.00">Store supplimentary</text>
<text text-anchor="middle" x="686" y="-350.8" font-family="Times,serif" font-size="14.00">text with TODO tags</text>
</g>
<!-- TagNotEnough&#45;&gt;SuppText -->
<g id="edge11" class="edge"><title>TagNotEnough&#45;&gt;SuppText</title>
<path fill="none" stroke="black" d="M686,-456.962C686,-440.057 686,-417.79 686,-399.176"/>
<polygon fill="black" stroke="black" points="689.5,-398.987 686,-388.987 682.5,-398.987 689.5,-398.987"/>
</g>
<!-- ReasonIncompete&#45;&gt;TagNotEnough -->
<g id="edge10" class="edge"><title>ReasonIncompete&#45;&gt;TagNotEnough</title>
<path fill="none" stroke="black" d="M448.062,-576.836C495.988,-558.338 570.569,-529.552 623.442,-509.145"/>
<polygon fill="black" stroke="black" points="624.982,-512.302 633.051,-505.436 622.462,-505.772 624.982,-512.302"/>
</g>
<!-- IntDep -->
<g id="node9" class="node"><title>IntDep</title>
<ellipse fill="none" stroke="black" cx="243" cy="-729" rx="79.3553" ry="48.1667"/>
<text text-anchor="middle" x="243" y="-747.8" font-family="Times,serif" font-size="14.00">Waiting</text>
<text text-anchor="middle" x="243" y="-732.8" font-family="Times,serif" font-size="14.00">on author</text>
<text text-anchor="middle" x="243" y="-717.8" font-family="Times,serif" font-size="14.00">(time, attention,</text>
<text text-anchor="middle" x="243" y="-702.8" font-family="Times,serif" font-size="14.00">thought, analysis)</text>
</g>
<!-- IntDep&#45;&gt;ReasonIncompete -->
<g id="edge8" class="edge"><title>IntDep&#45;&gt;ReasonIncompete</title>
<path fill="none" stroke="black" d="M289.125,-689.757C313.137,-669.848 342.082,-645.85 364.513,-627.252"/>
<polygon fill="black" stroke="black" points="366.997,-629.739 372.462,-620.661 362.53,-624.35 366.997,-629.739"/>
</g>
<!-- ExtDep -->
<g id="node10" class="node"><title>ExtDep</title>
<ellipse fill="none" stroke="black" cx="401" cy="-729" rx="60.1562" ry="48.1667"/>
<text text-anchor="middle" x="401" y="-747.8" font-family="Times,serif" font-size="14.00">Waiting on</text>
<text text-anchor="middle" x="401" y="-732.8" font-family="Times,serif" font-size="14.00">an external</text>
<text text-anchor="middle" x="401" y="-717.8" font-family="Times,serif" font-size="14.00">dependency,</text>
<text text-anchor="middle" x="401" y="-702.8" font-family="Times,serif" font-size="14.00">event, info</text>
</g>
<!-- ExtDep&#45;&gt;ReasonIncompete -->
<g id="edge9" class="edge"><title>ExtDep&#45;&gt;ReasonIncompete</title>
<path fill="none" stroke="black" d="M401,-680.706C401,-665.019 401,-647.819 401,-633.112"/>
<polygon fill="black" stroke="black" points="404.5,-632.901 401,-622.901 397.5,-632.901 404.5,-632.901"/>
</g>
<!-- Effect -->
<g id="node11" class="node"><title>Effect</title>
<ellipse fill="none" stroke="black" cx="542" cy="-729" rx="62.3993" ry="58.8803"/>
<text text-anchor="middle" x="542" y="-755.3" font-family="Times,serif" font-size="14.00">Incompletion</text>
<text text-anchor="middle" x="542" y="-740.3" font-family="Times,serif" font-size="14.00">caused by</text>
<text text-anchor="middle" x="542" y="-725.3" font-family="Times,serif" font-size="14.00">change to</text>
<text text-anchor="middle" x="542" y="-710.3" font-family="Times,serif" font-size="14.00">related data</text>
<text text-anchor="middle" x="542" y="-695.3" font-family="Times,serif" font-size="14.00">(eg. del UC)</text>
</g>
<!-- Effect&#45;&gt;ReasonIncompete -->
<g id="edge7" class="edge"><title>Effect&#45;&gt;ReasonIncompete</title>
<path fill="none" stroke="black" d="M497.774,-686.91C477.33,-667.917 453.448,-645.728 434.523,-628.146"/>
<polygon fill="black" stroke="black" points="436.714,-625.403 427.005,-621.161 431.949,-630.532 436.714,-625.403"/>
</g>
<!-- KnowWhy&#45;&gt;TagNotEnough -->
<g id="edge13" class="edge"><title>KnowWhy&#45;&gt;TagNotEnough</title>
<path fill="none" stroke="black" d="M825.544,-567.526C797.581,-550.989 762.054,-529.978 733.846,-513.296"/>
<polygon fill="black" stroke="black" points="735.352,-510.121 724.963,-508.043 731.789,-516.146 735.352,-510.121"/>
</g>
<!-- RemindMyself&#45;&gt;Explict -->
<g id="edge24" class="edge"><title>RemindMyself&#45;&gt;Explict</title>
<path fill="none" stroke="black" d="M1098.92,-568.932C1097.6,-557.802 1096.03,-544.464 1094.52,-531.731"/>
<polygon fill="black" stroke="black" points="1097.99,-531.223 1093.34,-521.702 1091.04,-532.044 1097.99,-531.223"/>
</g>
<!-- ShareDeps&#45;&gt;Explict -->
<g id="edge23" class="edge"><title>ShareDeps&#45;&gt;Explict</title>
<path fill="none" stroke="black" d="M1242.36,-569.349C1215.37,-554.505 1181.05,-535.628 1151.72,-519.498"/>
<polygon fill="black" stroke="black" points="1153.24,-516.34 1142.79,-514.587 1149.87,-522.473 1153.24,-516.34"/>
</g>
<!-- AssessSocial -->
<g id="node15" class="node"><title>AssessSocial</title>
<ellipse fill="none" stroke="black" cx="1923" cy="-851" rx="109.402" ry="26.7407"/>
<text text-anchor="middle" x="1923" y="-854.8" font-family="Times,serif" font-size="14.00">Assess whether complete</text>
<text text-anchor="middle" x="1923" y="-839.8" font-family="Times,serif" font-size="14.00">enough to socialise</text>
</g>
<!-- AssessSocial&#45;&gt;GaugeState -->
<g id="edge18" class="edge"><title>AssessSocial&#45;&gt;GaugeState</title>
<path fill="none" stroke="black" d="M1944.42,-824.551C1959.48,-806.653 1979.79,-782.532 1996.11,-763.133"/>
<polygon fill="black" stroke="black" points="1998.85,-765.317 2002.61,-755.412 1993.49,-760.809 1998.85,-765.317"/>
</g>
<!-- AssessRemainingWork -->
<g id="node16" class="node"><title>AssessRemainingWork</title>
<ellipse fill="none" stroke="black" cx="2124" cy="-851" rx="73.3085" ry="26.7407"/>
<text text-anchor="middle" x="2124" y="-854.8" font-family="Times,serif" font-size="14.00">Assess</text>
<text text-anchor="middle" x="2124" y="-839.8" font-family="Times,serif" font-size="14.00">remaining work</text>
</g>
<!-- AssessRemainingWork&#45;&gt;GaugeState -->
<g id="edge19" class="edge"><title>AssessRemainingWork&#45;&gt;GaugeState</title>
<path fill="none" stroke="black" d="M2103.28,-825.136C2088.3,-807.156 2067.9,-782.675 2051.54,-763.05"/>
<polygon fill="black" stroke="black" points="2054.13,-760.687 2045.04,-755.245 2048.75,-765.168 2054.13,-760.687"/>
</g>
<!-- CanResolveOne -->
<g id="node17" class="node"><title>CanResolveOne</title>
<ellipse fill="none" stroke="black" cx="1388" cy="-240" rx="85.9015" ry="26.7407"/>
<text text-anchor="middle" x="1388" y="-243.8" font-family="Times,serif" font-size="14.00">Realise can resolve</text>
<text text-anchor="middle" x="1388" y="-228.8" font-family="Times,serif" font-size="14.00">an incompletion</text>
</g>
<!-- ResolveOne -->
<g id="node40" class="node"><title>ResolveOne</title>
<ellipse fill="#bbbbff" stroke="black" cx="1388" cy="-128" rx="82.0366" ry="37.4533"/>
<text text-anchor="middle" x="1388" y="-139.3" font-family="Times,serif" font-size="14.00">Edit field</text>
<text text-anchor="middle" x="1388" y="-124.3" font-family="Times,serif" font-size="14.00">with incompletion</text>
<text text-anchor="middle" x="1388" y="-109.3" font-family="Times,serif" font-size="14.00">and resolve</text>
</g>
<!-- CanResolveOne&#45;&gt;ResolveOne -->
<g id="edge33" class="edge"><title>CanResolveOne&#45;&gt;ResolveOne</title>
<path fill="none" stroke="black" d="M1388,-212.932C1388,-201.802 1388,-188.464 1388,-175.731"/>
<polygon fill="black" stroke="black" points="1391.5,-175.702 1388,-165.702 1384.5,-175.703 1391.5,-175.702"/>
</g>
<!-- WantToResolveNext -->
<g id="node18" class="node"><title>WantToResolveNext</title>
<ellipse fill="none" stroke="black" cx="1229" cy="-27" rx="67.3243" ry="26.7407"/>
<text text-anchor="middle" x="1229" y="-30.8" font-family="Times,serif" font-size="14.00">Want to</text>
<text text-anchor="middle" x="1229" y="-15.8" font-family="Times,serif" font-size="14.00">keep resolving</text>
</g>
<!-- WantToResolveNext&#45;&gt;Summary -->
<g id="edge35" class="edge"><title>WantToResolveNext&#45;&gt;Summary</title>
<path fill="none" stroke="black" d="M1224.95,-53.9118C1219.11,-93.6374 1209,-172.031 1209,-239 1209,-363 1209,-363 1209,-363 1209,-434.169 1181.31,-468.283 1228,-522 1269.02,-569.193 1304.7,-538.185 1364,-558 1376,-562.009 1388.68,-566.801 1400.65,-571.585"/>
<polygon fill="black" stroke="black" points="1399.48,-574.889 1410.06,-575.406 1402.11,-568.403 1399.48,-574.889"/>
</g>
<!-- FinishedResolving -->
<g id="node19" class="node"><title>FinishedResolving</title>
<ellipse fill="none" stroke="black" cx="1401" cy="-27" rx="76.0649" ry="18"/>
<text text-anchor="middle" x="1401" y="-23.3" font-family="Times,serif" font-size="14.00">Finished resolving</text>
</g>
<!-- FinishedResolving&#45;&gt;GaugeState -->
<g id="edge37" class="edge"><title>FinishedResolving&#45;&gt;GaugeState</title>
<path fill="none" stroke="black" d="M1472.38,-33.2324C1656.83,-48.7023 2135,-102.017 2135,-239 2135,-485 2135,-485 2135,-485 2135,-565.827 2083.56,-649.217 2050.72,-694.225"/>
<polygon fill="black" stroke="black" points="2047.77,-692.323 2044.62,-702.438 2053.39,-696.497 2047.77,-692.323"/>
</g>
<!-- WhileWriting -->
<g id="node20" class="node"><title>WhileWriting</title>
<ellipse fill="none" stroke="black" cx="850" cy="-729" rx="83.1581" ry="37.4533"/>
<text text-anchor="middle" x="850" y="-740.3" font-family="Times,serif" font-size="14.00">Discover a</text>
<text text-anchor="middle" x="850" y="-725.3" font-family="Times,serif" font-size="14.00">dependency whilst</text>
<text text-anchor="middle" x="850" y="-710.3" font-family="Times,serif" font-size="14.00">writing a req</text>
</g>
<!-- WhileWriting&#45;&gt;TagInFields -->
<g id="edge38" class="edge"><title>WhileWriting&#45;&gt;TagInFields</title>
<path fill="none" stroke="black" d="M809.881,-695.954C783.954,-675.244 750.391,-648.435 724.741,-627.946"/>
<polygon fill="black" stroke="black" points="726.709,-625.038 716.711,-621.531 722.34,-630.507 726.709,-625.038"/>
</g>
<!-- ArbTypes -->
<g id="node21" class="node"><title>ArbTypes</title>
<ellipse fill="none" stroke="black" cx="2285" cy="-484" rx="85.9015" ry="26.7407"/>
<text text-anchor="middle" x="2285" y="-487.8" font-family="Times,serif" font-size="14.00">Incompletion types</text>
<text text-anchor="middle" x="2285" y="-472.8" font-family="Times,serif" font-size="14.00">are arbitrary</text>
</g>
<!-- MngTypes -->
<g id="node22" class="node"><title>MngTypes</title>
<ellipse fill="none" stroke="black" cx="2355" cy="-362" rx="43.2005" ry="26.7407"/>
<text text-anchor="middle" x="2355" y="-365.8" font-family="Times,serif" font-size="14.00">Manage</text>
<text text-anchor="middle" x="2355" y="-350.8" font-family="Times,serif" font-size="14.00">Types</text>
</g>
<!-- ArbTypes&#45;&gt;MngTypes -->
<g id="edge45" class="edge"><title>ArbTypes&#45;&gt;MngTypes</title>
<path fill="none" stroke="black" d="M2300.02,-457.257C2310.42,-439.421 2324.37,-415.513 2335.61,-396.238"/>
<polygon fill="black" stroke="black" points="2338.71,-397.873 2340.73,-387.471 2332.66,-394.346 2338.71,-397.873"/>
</g>
<!-- ArbTypes&#45;&gt;SepByType -->
<g id="edge39" class="edge"><title>ArbTypes&#45;&gt;SepByType</title>
<path fill="none" stroke="black" d="M2220.81,-465.807C2140.67,-444.341 2003.59,-407.621 1916.78,-384.369"/>
<polygon fill="black" stroke="black" points="1917.53,-380.948 1906.97,-381.742 1915.72,-387.71 1917.53,-380.948"/>
</g>
<!-- TypeC -->
<g id="node23" class="node"><title>TypeC</title>
<ellipse fill="none" stroke="black" cx="2480" cy="-240" rx="36.1582" ry="26.7407"/>
<text text-anchor="middle" x="2480" y="-243.8" font-family="Times,serif" font-size="14.00">Create</text>
<text text-anchor="middle" x="2480" y="-228.8" font-family="Times,serif" font-size="14.00">Type</text>
</g>
<!-- MngTypes&#45;&gt;TypeC -->
<g id="edge46" class="edge"><title>MngTypes&#45;&gt;TypeC</title>
<path fill="none" stroke="black" d="M2377.93,-338.99C2398.48,-319.259 2428.73,-290.216 2450.97,-268.869"/>
<polygon fill="black" stroke="black" points="2453.68,-271.117 2458.47,-261.667 2448.83,-266.068 2453.68,-271.117"/>
</g>
<!-- TypeR -->
<g id="node24" class="node"><title>TypeR</title>
<ellipse fill="none" stroke="black" cx="2566" cy="-240" rx="31.1693" ry="26.7407"/>
<text text-anchor="middle" x="2566" y="-243.8" font-family="Times,serif" font-size="14.00">Read</text>
<text text-anchor="middle" x="2566" y="-228.8" font-family="Times,serif" font-size="14.00">Type</text>
</g>
<!-- MngTypes&#45;&gt;TypeR -->
<g id="edge47" class="edge"><title>MngTypes&#45;&gt;TypeR</title>
<path fill="none" stroke="black" d="M2390.75,-347.012C2426.28,-332.329 2481.59,-307.327 2525,-278 2529.57,-274.914 2534.15,-271.347 2538.52,-267.672"/>
<polygon fill="black" stroke="black" points="2540.88,-270.252 2546.08,-261.019 2536.26,-264.996 2540.88,-270.252"/>
</g>
<!-- TypeU -->
<g id="node25" class="node"><title>TypeU</title>
<ellipse fill="none" stroke="black" cx="2204" cy="-240" rx="41.0183" ry="26.7407"/>
<text text-anchor="middle" x="2204" y="-243.8" font-family="Times,serif" font-size="14.00">Modify</text>
<text text-anchor="middle" x="2204" y="-228.8" font-family="Times,serif" font-size="14.00">Type</text>
</g>
<!-- MngTypes&#45;&gt;TypeU -->
<g id="edge48" class="edge"><title>MngTypes&#45;&gt;TypeU</title>
<path fill="none" stroke="black" d="M2329.04,-340.371C2303.64,-320.183 2264.84,-289.349 2237.2,-267.386"/>
<polygon fill="black" stroke="black" points="2239.37,-264.641 2229.37,-261.16 2235.02,-270.122 2239.37,-264.641"/>
</g>
<!-- TypeD -->
<g id="node26" class="node"><title>TypeD</title>
<ellipse fill="none" stroke="black" cx="2300" cy="-240" rx="36.1582" ry="26.7407"/>
<text text-anchor="middle" x="2300" y="-243.8" font-family="Times,serif" font-size="14.00">Delete</text>
<text text-anchor="middle" x="2300" y="-228.8" font-family="Times,serif" font-size="14.00">Type</text>
</g>
<!-- MngTypes&#45;&gt;TypeD -->
<g id="edge49" class="edge"><title>MngTypes&#45;&gt;TypeD</title>
<path fill="none" stroke="black" d="M2343.47,-335.844C2335.35,-318.126 2324.38,-294.203 2315.5,-274.817"/>
<polygon fill="black" stroke="black" points="2318.67,-273.344 2311.33,-265.712 2312.31,-276.261 2318.67,-273.344"/>
</g>
<!-- TypeL -->
<g id="node27" class="node"><title>TypeL</title>
<ellipse fill="none" stroke="black" cx="2390" cy="-240" rx="35.0343" ry="26.7407"/>
<text text-anchor="middle" x="2390" y="-243.8" font-family="Times,serif" font-size="14.00">List</text>
<text text-anchor="middle" x="2390" y="-228.8" font-family="Times,serif" font-size="14.00">Types</text>
</g>
<!-- MngTypes&#45;&gt;TypeL -->
<g id="edge50" class="edge"><title>MngTypes&#45;&gt;TypeL</title>
<path fill="none" stroke="black" d="M2362.51,-335.257C2367.55,-317.978 2374.25,-294.998 2379.78,-276.055"/>
<polygon fill="black" stroke="black" points="2383.18,-276.869 2382.62,-266.289 2376.46,-274.909 2383.18,-276.869"/>
</g>
<!-- Span0 -->
<g id="node29" class="node"><title>Span0</title>
<ellipse fill="none" stroke="black" cx="931" cy="-362" rx="65.1436" ry="48.1667"/>
<text text-anchor="middle" x="931" y="-380.8" font-family="Times,serif" font-size="14.00">Tasks</text>
<text text-anchor="middle" x="931" y="-365.8" font-family="Times,serif" font-size="14.00">can exist for</text>
<text text-anchor="middle" x="931" y="-350.8" font-family="Times,serif" font-size="14.00">reqs that don&#39;t</text>
<text text-anchor="middle" x="931" y="-335.8" font-family="Times,serif" font-size="14.00">exist yet</text>
</g>
<!-- Explict&#45;&gt;Span0 -->
<g id="edge25" class="edge"><title>Explict&#45;&gt;Span0</title>
<path fill="none" stroke="black" d="M1046.24,-450.526C1027.13,-436.007 1004.39,-418.742 984.191,-403.398"/>
<polygon fill="black" stroke="black" points="986.081,-400.439 976.001,-397.178 981.847,-406.013 986.081,-400.439"/>
</g>
<!-- SpanN -->
<g id="node30" class="node"><title>SpanN</title>
<ellipse fill="none" stroke="black" cx="1095" cy="-362" rx="79.3553" ry="37.4533"/>
<text text-anchor="middle" x="1095" y="-373.3" font-family="Times,serif" font-size="14.00">Tasks</text>
<text text-anchor="middle" x="1095" y="-358.3" font-family="Times,serif" font-size="14.00">can span multiple</text>
<text text-anchor="middle" x="1095" y="-343.3" font-family="Times,serif" font-size="14.00">existing reqs</text>
</g>
<!-- Explict&#45;&gt;SpanN -->
<g id="edge26" class="edge"><title>Explict&#45;&gt;SpanN</title>
<path fill="none" stroke="black" d="M1090.83,-446.344C1091.4,-434.936 1092.04,-422.194 1092.64,-410.172"/>
<polygon fill="black" stroke="black" points="1096.15,-410.007 1093.16,-399.845 1089.16,-409.658 1096.15,-410.007"/>
</g>
<!-- FreeNotes -->
<g id="node39" class="node"><title>FreeNotes</title>
<ellipse fill="#bbbbff" stroke="black" cx="994" cy="-240" rx="124.176" ry="37.4533"/>
<text text-anchor="middle" x="994" y="-251.3" font-family="Times,serif" font-size="14.00">Store free&#45;text incompletions</text>
<text text-anchor="middle" x="994" y="-236.3" font-family="Times,serif" font-size="14.00">without associating</text>
<text text-anchor="middle" x="994" y="-221.3" font-family="Times,serif" font-size="14.00">with a req</text>
</g>
<!-- Span0&#45;&gt;FreeNotes -->
<g id="edge27" class="edge"><title>Span0&#45;&gt;FreeNotes</title>
<path fill="none" stroke="black" d="M954.101,-316.998C959.371,-306.96 964.979,-296.278 970.275,-286.191"/>
<polygon fill="black" stroke="black" points="973.482,-287.612 975.031,-277.131 967.284,-284.358 973.482,-287.612"/>
</g>
<!-- SpanN&#45;&gt;FreeNotes -->
<g id="edge28" class="edge"><title>SpanN&#45;&gt;FreeNotes</title>
<path fill="none" stroke="black" d="M1066.33,-326.934C1055.11,-313.604 1042.11,-298.159 1030.25,-284.071"/>
<polygon fill="black" stroke="black" points="1032.92,-281.803 1023.8,-276.406 1027.56,-286.31 1032.92,-281.803"/>
</g>
<!-- CountAll&#45;&gt;CountEach -->
<g id="edge44" class="edge"><title>CountAll&#45;&gt;CountEach</title>
<path fill="none" stroke="black" d="M1865.42,-564.651C1895.02,-549.782 1930.66,-531.883 1960.65,-516.822"/>
<polygon fill="black" stroke="black" points="1962.39,-519.861 1969.76,-512.245 1959.25,-513.606 1962.39,-519.861"/>
</g>
<!-- FilterScope -->
<g id="node34" class="node"><title>FilterScope</title>
<ellipse fill="#99ee99" stroke="black" cx="1620" cy="-484" rx="74.4303" ry="26.7407"/>
<text text-anchor="middle" x="1620" y="-487.8" font-family="Times,serif" font-size="14.00">Apply/remove</text>
<text text-anchor="middle" x="1620" y="-472.8" font-family="Times,serif" font-size="14.00">filter(s) to scope</text>
</g>
<!-- CountAll&#45;&gt;FilterScope -->
<g id="edge16" class="edge"><title>CountAll&#45;&gt;FilterScope</title>
<path fill="none" stroke="black" d="M1744.32,-558.921C1715.7,-541.904 1682.45,-522.135 1657.55,-507.324"/>
<ellipse fill="black" stroke="black" cx="1748.05" cy="-561.139" rx="4.00002" ry="4.00002"/>
</g>
<!-- CountAll&#45;&gt;SepByType -->
<g id="edge42" class="edge"><title>CountAll&#45;&gt;SepByType</title>
<path fill="none" stroke="black" d="M1761.24,-554.311C1753.37,-544.558 1746.31,-533.584 1742,-522 1730.23,-490.34 1728.03,-476.754 1742,-446 1751.83,-424.365 1770.39,-406.159 1788.52,-392.363"/>
<ellipse fill="black" stroke="black" cx="1763.92" cy="-557.483" rx="4.00002" ry="4.00002"/>
</g>
<!-- CountEach&#45;&gt;SepByType -->
<g id="edge43" class="edge"><title>CountEach&#45;&gt;SepByType</title>
<path fill="none" stroke="black" d="M1970.46,-448.646C1943.09,-431.082 1910.1,-409.906 1883.76,-393.005"/>
<ellipse fill="black" stroke="black" cx="1973.93" cy="-450.868" rx="4.00002" ry="4.00002"/>
</g>
<!-- Summary&#45;&gt;NeedCtx -->
<g id="edge20" class="edge"><title>Summary&#45;&gt;NeedCtx</title>
<path fill="none" stroke="black" d="M1430.37,-570.587C1417.41,-557.75 1401.17,-541.654 1386.28,-526.894"/>
<polygon fill="black" stroke="black" points="1388.66,-524.329 1379.09,-519.776 1383.73,-529.301 1388.66,-524.329"/>
</g>
<!-- Summary&#45;&gt;CanResolveOne -->
<g id="edge31" class="edge"><title>Summary&#45;&gt;CanResolveOne</title>
<path fill="none" stroke="black" d="M1457.21,-569.007C1458.29,-555.078 1459.47,-537.616 1460,-522 1463.2,-428.383 1459.53,-401.466 1426,-314 1421.08,-301.157 1414.48,-287.65 1408.17,-275.795"/>
<polygon fill="black" stroke="black" points="1411.07,-273.792 1403.21,-266.686 1404.92,-277.141 1411.07,-273.792"/>
</g>
<!-- Summary&#45;&gt;FilterScope -->
<g id="edge17" class="edge"><title>Summary&#45;&gt;FilterScope</title>
<path fill="none" stroke="black" d="M1495.62,-567.917C1523.28,-549.48 1559.48,-525.346 1585.69,-507.873"/>
<ellipse fill="black" stroke="black" cx="1492.12" cy="-570.256" rx="4.00002" ry="4.00002"/>
</g>
<!-- Summary&#45;&gt;SepByType -->
<g id="edge41" class="edge"><title>Summary&#45;&gt;SepByType</title>
<path fill="none" stroke="black" d="M1472.01,-562.183C1494.22,-519.55 1530.9,-450.045 1536,-446 1599.15,-395.867 1690.54,-375.971 1756.03,-368.1"/>
<ellipse fill="black" stroke="black" cx="1470.15" cy="-565.746" rx="4.00002" ry="4.00002"/>
</g>
<!-- SeeCtx&#45;&gt;CanResolveOne -->
<g id="edge32" class="edge"><title>SeeCtx&#45;&gt;CanResolveOne</title>
<path fill="none" stroke="black" d="M1369.15,-343.807C1372.33,-326.464 1377.34,-299.163 1381.39,-277.053"/>
<polygon fill="black" stroke="black" points="1384.87,-277.466 1383.23,-266.999 1377.99,-276.204 1384.87,-277.466"/>
</g>
<!-- TagInFields&#45;&gt;TagNotEnough -->
<g id="edge6" class="edge"><title>TagInFields&#45;&gt;TagNotEnough</title>
<path fill="none" stroke="black" d="M686,-568.932C686,-554.684 686,-536.817 686,-521.233"/>
<polygon fill="black" stroke="black" points="689.5,-520.881 686,-510.881 682.5,-520.881 689.5,-520.881"/>
</g>
<!-- ResolveOne&#45;&gt;WantToResolveNext -->
<g id="edge34" class="edge"><title>ResolveOne&#45;&gt;WantToResolveNext</title>
<path fill="none" stroke="black" d="M1340.29,-97.2967C1318.92,-83.9906 1293.88,-68.3994 1272.97,-55.379"/>
<polygon fill="black" stroke="black" points="1274.62,-52.2848 1264.29,-49.9703 1270.92,-58.2271 1274.62,-52.2848"/>
</g>
<!-- ResolveOne&#45;&gt;FinishedResolving -->
<g id="edge36" class="edge"><title>ResolveOne&#45;&gt;FinishedResolving</title>
<path fill="none" stroke="black" d="M1392.8,-90.4173C1394.33,-78.7677 1396,-66.0918 1397.42,-55.2254"/>
<polygon fill="black" stroke="black" points="1400.93,-55.4377 1398.76,-45.0671 1393.99,-54.5263 1400.93,-55.4377"/>
</g>
</g>
</svg>
