<?xml version="1.0" encoding="UTF-8" standalone="no"?>
<!DOCTYPE svg PUBLIC "-//W3C//DTD SVG 1.1//EN"
 "http://www.w3.org/Graphics/SVG/1.1/DTD/svg11.dtd">
<!-- Generated by graphviz version 2.38.0 (20140413.2041)
 -->
<!-- Title: G Pages: 1 -->
<svg width="566pt" height="179pt"
 viewBox="0.00 0.00 566.27 179.00" xmlns="http://www.w3.org/2000/svg" xmlns:xlink="http://www.w3.org/1999/xlink">
<g id="graph0" class="graph" transform="scale(1 1) rotate(0) translate(4 175)">
<title>G</title>
<polygon fill="white" stroke="none" points="-4,4 -4,-175 562.266,-175 562.266,4 -4,4"/>
<!-- F -->
<g id="node1" class="node"><title>F</title>
<ellipse fill="none" stroke="#333333" stroke-width="2" cx="231.886" cy="-99" rx="28.6953" ry="18"/>
<text text-anchor="middle" x="231.886" y="-95.3" font-family="Times,serif" font-size="14.00">FR&#45;9</text>
</g>
<!-- 4 -->
<g id="node5" class="node"><title>4</title>
<ellipse fill="#7692b7" stroke="#333333" cx="325.081" cy="-153" rx="28.6953" ry="18"/>
<text text-anchor="middle" x="325.081" y="-149.3" font-family="Times,serif" font-size="14.00" fill="white">FR&#45;4</text>
</g>
<!-- F&#45;&gt;4 -->
<g id="edge4" class="edge"><title>F&#45;&gt;4</title>
<path fill="none" stroke="#31537f" d="M253.579,-111.253C265.791,-118.484 281.44,-127.751 294.891,-135.716"/>
<polygon fill="#31537f" stroke="#31537f" points="293.395,-138.898 303.783,-140.981 296.962,-132.874 293.395,-138.898"/>
</g>
<!-- 5 -->
<g id="node6" class="node"><title>5</title>
<ellipse fill="#7692b7" stroke="#333333" cx="325.081" cy="-99" rx="28.6953" ry="18"/>
<text text-anchor="middle" x="325.081" y="-95.3" font-family="Times,serif" font-size="14.00" fill="white">FR&#45;6</text>
</g>
<!-- F&#45;&gt;5 -->
<g id="edge5" class="edge"><title>F&#45;&gt;5</title>
<path fill="none" stroke="#31537f" d="M260.743,-99C268.786,-99 277.703,-99 286.245,-99"/>
<polygon fill="#31537f" stroke="#31537f" points="286.394,-102.5 296.394,-99 286.394,-95.5001 286.394,-102.5"/>
</g>
<!-- 6 -->
<g id="node7" class="node"><title>6</title>
<ellipse fill="#7692b7" stroke="#333333" cx="325.081" cy="-45" rx="28.6953" ry="18"/>
<text text-anchor="middle" x="325.081" y="-41.3" font-family="Times,serif" font-size="14.00" fill="white">FR&#45;8</text>
</g>
<!-- F&#45;&gt;6 -->
<g id="edge6" class="edge"><title>F&#45;&gt;6</title>
<path fill="none" stroke="#31537f" d="M253.579,-86.7466C265.791,-79.5156 281.44,-70.249 294.891,-62.2841"/>
<polygon fill="#31537f" stroke="#31537f" points="296.962,-65.1257 303.783,-57.0189 293.395,-59.1025 296.962,-65.1257"/>
</g>
<!-- 1 -->
<g id="node2" class="node"><title>1</title>
<ellipse fill="#ffede2" stroke="#333333" cx="31.1972" cy="-72" rx="31.3957" ry="18"/>
<text text-anchor="middle" x="31.1972" y="-68.3" font-family="Times,serif" font-size="14.00">MF&#45;3</text>
</g>
<!-- 3 -->
<g id="node4" class="node"><title>3</title>
<ellipse fill="#ffc19c" stroke="#333333" cx="132.841" cy="-72" rx="28.6953" ry="18"/>
<text text-anchor="middle" x="132.841" y="-68.3" font-family="Times,serif" font-size="14.00">FR&#45;3</text>
</g>
<!-- 1&#45;&gt;3 -->
<g id="edge1" class="edge"><title>1&#45;&gt;3</title>
<path fill="none" stroke="#ffc19c" d="M62.6352,-72C72.508,-72 83.5839,-72 93.9315,-72"/>
<polygon fill="#ffc19c" stroke="#ffc19c" points="93.9649,-75.5001 103.965,-72 93.9648,-68.5001 93.9649,-75.5001"/>
</g>
<!-- 2 -->
<g id="node3" class="node"><title>2</title>
<ellipse fill="#ffc19c" stroke="#333333" cx="132.841" cy="-126" rx="34.394" ry="18"/>
<text text-anchor="middle" x="132.841" y="-122.3" font-family="Times,serif" font-size="14.00">BR&#45;15</text>
</g>
<!-- 2&#45;&gt;F -->
<g id="edge2" class="edge"><title>2&#45;&gt;F</title>
<path fill="none" stroke="#c27040" d="M163.485,-117.752C173.623,-114.932 185.063,-111.749 195.602,-108.817"/>
<polygon fill="#c27040" stroke="#c27040" points="196.661,-112.155 205.357,-106.103 194.785,-105.411 196.661,-112.155"/>
</g>
<!-- 3&#45;&gt;F -->
<g id="edge3" class="edge"><title>3&#45;&gt;F</title>
<path fill="none" stroke="#c27040" d="M159.339,-79.0939C170.482,-82.1944 183.735,-85.8817 195.789,-89.2352"/>
<polygon fill="#c27040" stroke="#c27040" points="194.987,-92.6449 205.559,-91.9534 196.863,-85.901 194.987,-92.6449"/>
</g>
<!-- 7 -->
<g id="node8" class="node"><title>7</title>
<ellipse fill="#d6e1ef" stroke="#333333" cx="422.825" cy="-72" rx="33.2948" ry="18"/>
<text text-anchor="middle" x="422.825" y="-68.3" font-family="Times,serif" font-size="14.00">FR&#45;13</text>
</g>
<!-- 6&#45;&gt;7 -->
<g id="edge7" class="edge"><title>6&#45;&gt;7</title>
<path fill="none" stroke="#7692b7" d="M351.487,-52.1646C361.143,-54.8876 372.376,-58.0554 382.994,-61.0495"/>
<polygon fill="#7692b7" stroke="#7692b7" points="382.338,-64.5011 392.913,-63.8467 384.238,-57.7639 382.338,-64.5011"/>
</g>
<!-- 8 -->
<g id="node9" class="node"><title>8</title>
<ellipse fill="#d6e1ef" stroke="#333333" cx="422.825" cy="-18" rx="33.2948" ry="18"/>
<text text-anchor="middle" x="422.825" y="-14.3" font-family="Times,serif" font-size="14.00">FR&#45;22</text>
</g>
<!-- 6&#45;&gt;8 -->
<g id="edge8" class="edge"><title>6&#45;&gt;8</title>
<path fill="none" stroke="#7692b7" d="M351.487,-37.8354C361.143,-35.1124 372.376,-31.9446 382.994,-28.9505"/>
<polygon fill="#7692b7" stroke="#7692b7" points="384.238,-32.2361 392.913,-26.1533 382.338,-25.4989 384.238,-32.2361"/>
</g>
<!-- 9 -->
<g id="node10" class="node"><title>9</title>
<ellipse fill="#d6e1ef" stroke="#333333" cx="525.119" cy="-18" rx="33.2948" ry="18"/>
<text text-anchor="middle" x="525.119" y="-14.3" font-family="Times,serif" font-size="14.00">FR&#45;24</text>
</g>
<!-- 8&#45;&gt;9 -->
<g id="edge9" class="edge"><title>8&#45;&gt;9</title>
<path fill="none" stroke="#7692b7" d="M456.111,-18C464.253,-18 473.118,-18 481.676,-18"/>
<polygon fill="#7692b7" stroke="#7692b7" points="481.894,-21.5001 491.894,-18 481.894,-14.5001 481.894,-21.5001"/>
</g>
</g>
</svg>
