<?xml version="1.0" encoding="UTF-8" standalone="no"?>
<!-- Created with Inkscape (http://www.inkscape.org/) -->

<svg
   xmlns:dc="http://purl.org/dc/elements/1.1/"
   xmlns:cc="http://creativecommons.org/ns#"
   xmlns:rdf="http://www.w3.org/1999/02/22-rdf-syntax-ns#"
   xmlns:svg="http://www.w3.org/2000/svg"
   xmlns="http://www.w3.org/2000/svg"
   xmlns:xlink="http://www.w3.org/1999/xlink"
   xmlns:sodipodi="http://sodipodi.sourceforge.net/DTD/sodipodi-0.dtd"
   xmlns:inkscape="http://www.inkscape.org/namespaces/inkscape"
   id="svg3004"
   version="1.1"
   inkscape:version="0.91 r13725"
   width="316.31995"
   height="319.32617"
   xml:space="preserve"
   sodipodi:docname="logo-only-dark2.svg"><metadata
     id="metadata3010"><rdf:RDF><cc:Work
         rdf:about=""><dc:format>image/svg+xml</dc:format><dc:type
           rdf:resource="http://purl.org/dc/dcmitype/StillImage" /><dc:title></dc:title></cc:Work></rdf:RDF></metadata><defs
     id="defs3008"><linearGradient
       id="linearGradient4157"><stop
         id="stop4159"
         offset="0"
         style="stop-color:#ff9a40;stop-opacity:1;" /><stop
         id="stop4161"
         offset="1"
         style="stop-color:#fffe81;stop-opacity:0;" /></linearGradient><linearGradient
       id="linearGradient4091"><stop
         id="stop4093"
         offset="0"
         style="stop-color:#e86600;stop-opacity:1;" /><stop
         id="stop4095"
         offset="1"
         style="stop-color:#eeff23;stop-opacity:0.2682927;" /></linearGradient><linearGradient
       id="linearGradient4025"><stop
         id="stop4027"
         offset="0"
         style="stop-color:#001a30;stop-opacity:1;" /><stop
         id="stop4029"
         offset="1"
         style="stop-color:#001a30;stop-opacity:0;" /></linearGradient><linearGradient
       id="linearGradient3959"><stop
         style="stop-color:#efff2c;stop-opacity:1;"
         offset="0"
         id="stop3961" /><stop
         style="stop-color:#f2ff55;stop-opacity:0;"
         offset="1"
         id="stop3963" /></linearGradient><linearGradient
       id="linearGradient5594"><stop
         style="stop-color:#fbeda0;stop-opacity:1;"
         offset="0"
         id="stop5596" /><stop
         style="stop-color:#fbfbd5;stop-opacity:1;"
         offset="1"
         id="stop5598" /></linearGradient><linearGradient
       inkscape:collect="always"
       xlink:href="#linearGradient4091"
       id="linearGradient4097"
       gradientUnits="userSpaceOnUse"
       x1="206.80417"
       y1="80.044655"
       x2="726.83533"
       y2="80.044655" /></defs><sodipodi:namedview
     pagecolor="#1b1c1d"
     bordercolor="#666666"
     borderopacity="1"
     objecttolerance="10"
     gridtolerance="10"
     guidetolerance="10"
     inkscape:pageopacity="0"
     inkscape:pageshadow="2"
     inkscape:window-width="1920"
     inkscape:window-height="1058"
     id="namedview3006"
     showgrid="false"
     inkscape:zoom="0.1272738"
     inkscape:cx="-1577.8933"
     inkscape:cy="122.88784"
     inkscape:window-x="1200"
     inkscape:window-y="0"
     inkscape:window-maximized="1"
     inkscape:current-layer="layer4"
     fit-margin-top="0"
     fit-margin-left="0"
     fit-margin-right="0"
     fit-margin-bottom="0"
     showborder="false" /><g
     inkscape:groupmode="layer"
     id="layer4"
     inkscape:label="Background"
     transform="translate(8.2097778,9.6131897)"><ellipse
       style="opacity:1;fill:#ffffff;fill-opacity:1;stroke:none;stroke-width:1;stroke-linecap:butt;stroke-linejoin:miter;stroke-miterlimit:1;stroke-dasharray:none;stroke-dashoffset:0;stroke-opacity:1"
       id="path4218"
       cx="149.9502"
       cy="150.0499"
       rx="158.15997"
       ry="159.66309" /></g><g
     style="display:none"
     inkscape:label="Beam &amp; Wave (hack)"
     id="g4068"
     inkscape:groupmode="layer"
     transform="translate(-115.51672,83.13238)"
     sodipodi:insensitive="true"><path
       inkscape:connector-curvature="0"
       id="path4072"
       style="display:inline;fill:#00488c;fill-opacity:1;fill-rule:evenodd;stroke:none"
       d="m 621.72697,-68.073382 c 79.44865,3.198685 141.39413,70.6449506 141.39413,148.827833 0,80.251819 -62.77392,145.666099 -141.39413,148.833569 191.45515,-59.43748 0,-216.324446 0,-297.661402" /><path
       sodipodi:nodetypes="cccc"
       d="m 820.90022,38.328453 0,-39.5234865 -373.47229,0 z"
       style="display:inline;fill:#001a30;fill-opacity:1;fill-rule:evenodd;stroke:#ffffff;stroke-width:9.92917824;stroke-linecap:butt;stroke-linejoin:miter;stroke-miterlimit:4;stroke-dasharray:none;stroke-opacity:1;marker-start:none"
       id="path4074"
       inkscape:connector-curvature="0" /><path
       inkscape:connector-curvature="0"
       id="path4116"
       d="m 661.59879,-70.230936 0,9.489626 c 53.51006,17.880193 93.03719,66.0712286 100.31866,122.643393 l 54.95667,0 0,-132.133019 -22.33446,0 -94.69505,0 -38.24582,0 z"
       style="display:inline;fill:#ffffff;fill-opacity:1;fill-rule:evenodd;stroke:none" /></g><g
     inkscape:groupmode="layer"
     id="layer3"
     inkscape:label="Colour 3"
     style="display:inline"
     transform="translate(8.2097778,9.6131897)"><path
       transform="translate(-20.21242,82.531784)"
       d="M 177.56502,106.33183 197.04666,84.90079 177.56502,96.756675 142.5601,71.222903 177.56502,106.33183"
       style="display:inline;fill:#a8edff;fill-opacity:1;fill-rule:evenodd;stroke:none"
       id="path4084"
       inkscape:connector-curvature="0" /></g><g
     inkscape:groupmode="layer"
     id="layer2"
     inkscape:label="Colour 2"
     style="display:inline"
     transform="translate(8.2097778,9.6131897)"><path
       d="m 113.86482,192.45422 2.07994,22.71309 -56.514268,20.37676 2.221722,-24.26243 52.212606,-18.82742"
       style="display:inline;fill:#005db3;fill-opacity:1;fill-rule:evenodd;stroke:none"
       id="path4088"
       inkscape:connector-curvature="0" /><path
       d="m 107.97577,128.10761 2.07886,22.70988 -44.332101,15.98641 2.220656,-24.26136 40.032585,-14.43493"
       style="display:inline;fill:#005db3;fill-opacity:1;fill-rule:evenodd;stroke:none"
       id="path4090"
       inkscape:connector-curvature="0" /><path
       d="m 73.469773,82.154302 30.300287,0 0.39552,4.315507 -32.15208,11.593917 1.456273,-15.909424"
       style="display:inline;fill:#005db3;fill-opacity:1;fill-rule:evenodd;stroke:none"
       id="path4092"
       inkscape:connector-curvature="0" /><path
       d="m 88.61992,68.334199 -15.150147,0 c 0,-8.457796 6.782437,-15.31385 15.150147,-15.31385 8.36664,0 15.14801,6.856054 15.14801,15.31385 l -15.14801,0"
       style="display:inline;fill:#005db3;fill-opacity:1;fill-rule:evenodd;stroke:none"
       id="path4094"
       inkscape:connector-curvature="0" /><path
       style="display:inline;fill:#005db3;fill-opacity:1;fill-rule:evenodd;stroke:none"
       d="m 155.97807,1.158916 c 0,18.928424 10.39651,41.966437 23.89489,66.897617 l 92.7861,0 C 247.41666,29.65207 205.06347,3.135145 155.97807,1.158916 Z m 36.31508,89.182453 c 44.20021,77.712741 97.56827,166.930431 -36.31508,208.494681 78.62022,-3.16747 141.39243,-68.58674 141.39243,-148.83856 0,-17.18244 -2.99717,-33.86317 -8.50933,-49.44044 L 192.29315,90.341369 Z"
       id="path3339"
       inkscape:connector-curvature="0" /></g><g
     inkscape:groupmode="layer"
     id="layer1"
     inkscape:label="Colour 1"
     style="display:inline"
     transform="translate(-12.002642,92.144974)"><path
       d="m 131.13271,77.747532 2.07887,22.713088 -50.420518,18.18159 2.218524,-24.261369 46.123124,-16.633309"
       style="fill:#002d51;fill-opacity:1;fill-rule:evenodd;stroke:none"
       id="path4078"
       inkscape:connector-curvature="0" /><path
       d="M 125.24259,13.40092 127.32252,36.111866 89.080967,49.90203 91.301624,25.639597 125.24259,13.40092"
       style="fill:#002d51;fill-opacity:1;fill-rule:evenodd;stroke:none"
       id="path4080"
       inkscape:connector-curvature="0" /><path
       d="m 86.389101,-3.9487891 44.888069,0 0,-7.1435339 -44.888069,0 0,7.1435339 z"
       style="fill:#002d51;fill-opacity:1;fill-rule:evenodd;stroke:none"
       id="path4082"
       inkscape:connector-curvature="0" /><path
       d="m 170.20583,-81.49646 c 1.18655,0 2.37951,0.01283 3.55432,0.04277 -48.37149,6.975812 -130.739389,36.565268 -130.739389,148.919234 0,48.092886 25.946399,73.750696 64.514159,85.305046 l 30.24911,-10.86362 -0.1151,-9.44258 17.93262,-12.29106 18.15863,12.38944 0.16418,29.52102 -0.16418,0 0,54.3074 c -1.17481,0.0299 -2.36777,0.0417 -3.55432,0.0417 -81.382835,0 -147.363939,-66.69576 -147.363939,-148.967338 0,-82.277999 65.981104,-148.962004 147.363939,-148.962004"
       style="display:inline;fill:#002d51;fill-opacity:1;fill-rule:evenodd;stroke:none"
       id="path4096"
       inkscape:connector-curvature="0" /><path
       style="display:inline;fill:#002d51;fill-opacity:1;fill-rule:evenodd;stroke:none;stroke-width:9.92917824;marker-start:none"
       d="M 131.7099,-7.6216942 306.3231,10.869977 c -2.63859,-6.3932278 -5.73014,-12.5553947 -9.19696,-18.4916712 l -165.41624,0 z"
       id="path3341"
       inkscape:connector-curvature="0" /></g></svg>